/* XPM */
static char *player_dead1[] = {
/* columns rows colors chars-per-pixel */
"96 59 171 2 ",
"   c black",
".  c #000101",
"X  c #010101",
"o  c #010102",
"O  c #010203",
"+  c #060402",
"@  c #070403",
"#  c #040407",
"$  c #080503",
"%  c #090603",
"&  c #0A0603",
"*  c #080504",
"=  c #0A0604",
"-  c #040509",
";  c #05060A",
":  c #05060B",
">  c #100A06",
",  c #110B07",
"<  c #140C07",
"1  c #130E0A",
"2  c #180F09",
"3  c #190F09",
"4  c #191009",
"5  c #1A1009",
"6  c #19110A",
"7  c #1B110A",
"8  c #1E120B",
"9  c #1A130E",
"0  c #1D130D",
"q  c #1E140C",
"w  c #090B13",
"e  c #0B0C16",
"r  c #0C0E19",
"t  c #1E1A16",
"y  c #21150C",
"u  c #20150D",
"i  c #21160D",
"p  c #22170E",
"a  c #25190F",
"s  c #281B10",
"d  c #311E12",
"f  c #362113",
"g  c #312114",
"h  c #322114",
"j  c #352014",
"k  c #352114",
"l  c #372114",
"z  c #3B2415",
"x  c #3E2617",
"c  c #31231B",
"v  c #35261D",
"b  c #3B2718",
"n  c #3C2818",
"m  c #3E2919",
"M  c #0B1A2E",
"N  c #0D1D34",
"B  c #132034",
"V  c #342E37",
"C  c #362F38",
"Z  c #343135",
"A  c #402717",
"S  c #412817",
"D  c #422918",
"F  c #422A19",
"G  c #432A19",
"H  c #412B1A",
"J  c #442A19",
"K  c #452B1A",
"L  c #442C1A",
"P  c #472C1A",
"I  c #472D1B",
"U  c #492E1C",
"Y  c #492F1C",
"T  c #4A2F1C",
"R  c #48301D",
"E  c #4B311D",
"W  c #4A311E",
"Q  c #4B321E",
"!  c #4D321E",
"~  c #4F331F",
"^  c #4D341F",
"/  c #4F341F",
"(  c #50341F",
")  c #422F24",
"_  c #4F3520",
"`  c #503520",
"'  c #513520",
"]  c #503620",
"[  c #513620",
"{  c #523620",
"}  c #523621",
"|  c #533721",
" . c #513422",
".. c #543721",
"X. c #573523",
"o. c #543722",
"O. c #5A3623",
"+. c #553822",
"@. c #553922",
"#. c #563922",
"$. c #563A23",
"%. c #573A23",
"&. c #593A27",
"*. c #5A3C27",
"=. c #5F3F2B",
"-. c #603B27",
";. c #4E4336",
":. c #4A433D",
">. c #524638",
",. c #534A3D",
"<. c #61412B",
"1. c #64432E",
"2. c #6A442C",
"3. c #6A4732",
"4. c #6E4B32",
"5. c #6E4B35",
"6. c #6F4D34",
"7. c #755038",
"8. c #7D563E",
"9. c #7E573F",
"0. c #293352",
"q. c #2A385E",
"w. c #183772",
"e. c #193976",
"r. c #273B6A",
"t. c #1E467D",
"y. c #48434A",
"u. c #4B464D",
"i. c #6E5947",
"p. c #64594A",
"a. c #765541",
"s. c #7B5842",
"d. c #6E6252",
"f. c #776A58",
"g. c #7E7263",
"h. c #815A40",
"j. c #825B42",
"k. c #865E43",
"l. c #885F44",
"z. c #945940",
"x. c #975D44",
"c. c #9A5C42",
"v. c #8B6147",
"b. c #8D6349",
"n. c #9D6046",
"m. c #9F6549",
"M. c #9D664B",
"N. c #93684D",
"B. c #94694E",
"V. c #986B4F",
"C. c #986C50",
"Z. c #9A6D51",
"A. c #9D6F53",
"S. c #94735A",
"D. c #A1684C",
"F. c #A77255",
"G. c #A6775A",
"H. c #A97659",
"J. c #AC7B5D",
"K. c #8A7B66",
"L. c #947B63",
"P. c #91806A",
"I. c #B48E70",
"U. c #1C4185",
"Y. c #1D438A",
"T. c #2A60AE",
"R. c #2C65B5",
"E. c #BB9D80",
"W. c #BB9E81",
"Q. c #C1AC8F",
"!. c None",
/* pixels */
"!.!.!.!.!.!.!.!.!.!.!.!.!.!.!.!.!.!.!.!.!.!.!.!.!.!.!.!.!.!.!.!.!.!.!.!.!.                                    !.!.!.!.                    !.!.!.!.!.!.!.!.!.!.!.!.!.!.!.!.!.!.!.!.!.!.!.!.!.!.!.",
"!.!.!.!.!.!.!.!.!.!.!.!.!.!.!.!.!.!.!.!.!.!.!.!.!.!.!.!.!.!.!.!.!.!.!.!.!.                                    !.!.!.!.                    !.!.!.!.!.!.!.!.!.!.!.!.!.!.!.!.!.!.!.!.!.!.!.!.!.!.!.",
"!.!.!.!.!.!.!.!.!.!.!.!.!.!.!.!.!.!.!.!.!.!.!.!.!.!.!.!.!.!.!.!.!.!.!.!.!.                                    !.!.!.!.                    !.!.!.!.!.!.!.!.!.!.!.!.!.!.!.!.!.!.!.!.!.!.!.!.!.!.!.",
"!.!.!.!.!.!.!.!.!.!.!.!.!.!.!.!.!.!.!.!.!.!.!.!.!.!.!.!.!.!.!.!.!.!.!.!.!.                                    !.!.!.!.                    !.!.!.!.!.!.!.!.!.!.!.!.!.!.!.!.!.!.!.!.!.!.!.!.!.!.!.",
"!.!.!.!.!.!.!.!.!.!.!.!.!.!.!.!.!.!.!.!.!.!.!.!.!.!.!.!.!.!.!.!.!.!.!.!.!.        p s s s s s s s s y 8 8 8 7 !.!.!.!.q s s s s           !.!.!.!.!.!.!.!.!.!.!.!.!.!.!.!.!.!.!.!.!.!.!.!.!.!.!.",
"!.!.!.!.!.!.!.!.!.!.!.!.!.!.!.!.!.!.!.!.!.!.!.!.!.!.!.!.!.!.!.!.!.!.!.!.!.        Q %.%.%.%.%.%.%.%.P A A A l         h %.%.%.%.                            !.!.!.!.!.!.!.!.!.!.!.!.!.!.!.!.!.!.",
"!.!.!.!.!.!.!.!.!.!.!.!.!.!.!.!.!.!.!.!.!.!.!.!.!.!.!.!.!.!.!.!.!.!.!.!.!.        Q %.%.%.%.%.%.%.%.P A A A l         h %.%.%.%.                            !.!.!.!.!.!.!.!.!.!.!.!.!.!.!.!.!.!.",
"!.!.!.!.!.!.!.!.!.!.!.!.!.!.!.!.!.!.!.!.!.!.!.!.!.!.!.!.!.!.!.!.!.!.!.!.!.        Q %.%.%.%.%.%.%.%.P A A A l         h %.%.%.%.                            !.!.!.!.!.!.!.!.!.!.!.!.!.!.!.!.!.!.",
"!.!.!.!.!.!.!.!.!.!.!.!.!.!.!.!.!.!.!.!.!.!.!.!.!.!.!.!.!.!.!.!.!.!.!.!.!.        Q %.%.%.%.%.%.%.%.P A A A l         h %.%.%.%.                            !.!.!.!.!.!.!.!.!.!.!.!.!.!.!.!.!.!.",
"!.!.!.!.!.!.!.!.!.!.!.!.!.!.!.!.!.!.!.!.!.!.!.!.!.!.!.!.!.!.!.!.!.!.!.!.!.        + @ @ @ q %.%.%.%.#.@.@.@.[ z z z z E %.%.%.%.z z z z L ] ] ] ] ] ] ] ] b         !.!.!.!.!.!.!.!.!.!.!.!.!.!.",
"!.!.!.!.!.!.!.!.!.!.!.!.!.!.!.!.!.!.!.!.!.!.!.!.!.!.!.!.!.!.!.!.!.!.!.!.!.                6 %.%.%.%.%.%.%.%...A A A A ! %.%.%.%.A A A A T %.%.%.%.%.%.%.%.m         !.!.!.!.!.!.!.!.!.!.!.!.!.!.",
"!.!.!.!.!.!.!.!.!.!.!.!.!.!.!.!.!.!.!.!.!.!.!.!.!.!.!.!.!.!.!.!.!.!.!.!.!.                6 %.%.%.%.%.%.%.%...A A A A ! %.%.%.%.A A A A T %.%.%.%.%.%.%.%.m         !.!.!.!.!.!.!.!.!.!.!.!.!.!.",
"!.!.!.!.!.!.!.!.!.!.!.!.!.!.!.!.!.!.!.!.!.!.!.!.!.!.!.!.!.!.!.!.!.!.!.!.!.                6 %.%.%.%.%.%.%.%...A A A A ! %.%.%.%.A A A A T %.%.%.%.%.%.%.%.m         !.!.!.!.!.!.!.!.!.!.!.!.!.!.",
"!.!.!.!.!.!.!.!.!.!.!.!.!.!.!.!.!.!.!.!.!.!.!.!.!.!.!.!.!.!.!.!.!.!.!.!.> 3 3 3 3 u i i i g %.%.%.%.%.%.%.%.+.U U U U ' %.%.%.%.U U U U ~ %.%.%.%.%.%.%.%.R i i i i , !.!.!.!.!.!.!.!.!.!.!.!.!.",
"!.!.!.!.!.!.!.!.!.!.!.!.!.!.!.!.!.!.!.!.!.!.!.!.!.!.!.!.!.!.!.!.        7 A A A A ..%.%.%.%.%.%.%.%.%.%.%.%.%.%.%.%.%.%.%.%.%.%.%.%.%.%.%.%.%.%.%.%.%.%.%.%.%.%.%.%.6         !.!.!.!.!.!.!.!.!.",
"!.!.!.!.!.!.!.!.!.!.!.!.!.!.!.!.!.!.!.!.!.!.!.!.!.!.!.!.!.!.!.!.        7 A A A A ..%.%.%.%.%.%.%.%.%.%.%.%.%.%.%.%.%.%.%.%.%.%.%.%.%.%.%.%.%.%.%.%.%.%.%.%.%.%.%.%.6         !.!.!.!.!.!.!.!.!.",
"!.!.!.!.!.!.!.!.!.!.!.!.!.!.!.!.!.!.!.!.!.!.!.!.!.!.!.!.!.!.!.!.        7 A A A A ..%.%.%.%.%.%.%.%.%.%.%.%.%.%.%.%.%.%.%.%.%.%.%.%.%.%.%.%.%.%.%.%.%.%.%.%.%.%.%.%.6         !.!.!.!.!.!.!.!.!.",
"!.!.!.!.!.!.!.!.!.!.!.!.!.!.!.!.!.!.!.!.!.!.!.!.!.!.!.!.!.!.!.!.        7 A A A A ..%.%.%.%.%.%.%.%.%.%.%.%.%.%.%.%.%.%.%.%.%.%.%.%.%.%.%.%.%.%.%.%.%.%.%.%.%.%.%.%.6         !.!.!.!.!.!.!.!.!.",
"!.!.!.!.!.!.!.!.!.!.!.!.!.!.!.!.!.!.!.!.!.!.!.!.!.!.!.!.        f f f f G | | | | $.%.%.%.%.%.%.%.%.%.%.%.%.%.%.%.%.%.%.%.%.%.%.%.%.%.%.%.%.%.%.%.%.%.%.%.%.%.%.%.%.^ W W W H         !.!.!.!.!.",
"!.!.!.!.!.!.!.!.!.!.!.!.!.!.!.!.!.!.!.!.!.!.!.!.!.!.!.          A A A A T %.%.%.%.%.%.%.%.%.%.%.%.%.%.%.%.%.%.%.%.%.%.%.%.%.%.%.%.%.%.%.%.%.%.%.%.%.%.%.%.%.%.%.%.%.%.%.%.%.Q         !.!.!.!.!.",
"!.!.!.!.!.!.!.!.!.!.!.!.!.!.!.!.!.!.!.!.!.!.!.!.!.!.!.          A A A A T %.%.%.%.%.%.%.%.%.%.%.%.%.%.%.%.%.%.%.%.%.%.%.%.%.%.%.%.%.%.%.%.%.%.%.%.%.%.%.%.%.%.%.%.%.%.%.%.%.Q         !.!.!.!.!.",
"!.!.!.!.!.!.!.!.!.!.!.!.!.!.!.!.!.!.!.!.!.!.!.!.!.!.!.          A A A A T %.%.%.%.%.%.%.%.%.%.%.%.%.%.%.%.%.%.%.%.%.%.%.%.%.%.%.%.%.%.%.%.%.%.%.%.%.%.%.%.%.%.%.%.%.%.%.%.%.Q         !.!.!.!.!.",
"!.!.!.!.!.!.!.!.!.!.!.!.!.!.!.!.!.!.!.!.!.!.!.!.!.!.!.          A A A A T %.%.%.%.%.%.%.%.+.( ( ( ( +.%.%.%.%.%.%.%.%.%.%.%.%.%.( ( ( ( ( ( ( ( ( #.%.%.%.%.%.%.%.%.%.%.%.%.Q         !.!.!.!.!.",
"!.!.!.!.!.!.!.!.!.!.!.!.!.!.!.!.!.!.!.!.!.!.!.!.!.!.!.          A A A A T %.%.%.%.%.%.%.%.` A A A A ` %.%.%.%.%.%.%.%.%.%.%.%.%.A A A A A A A A A ..%.%.%.%.%.%.%.%.%.%.%.%.Q         !.!.!.!.!.",
"!.!.!.!.!.!.!.!.!.!.!.!.!.!.!.!.!.!.!.!.!.!.!.!.!.!.!.          A A A A T %.%.%.%.%.%.%.%.` A A A A ` %.%.%.%.%.%.%.%.%.%.%.%.%.A A A A A A A A A ..%.%.%.%.%.%.%.%.%.%.%.%.Q         !.!.!.!.!.",
"!.!.!.!.!.!.!.!.!.!.!.!.!.!.!.!.!.!.!.!.!.!.!.!.!.!.!.          A A A A T %.%.%.%.%.%.%.%.` A A A A ` %.%.%.%.%.%.%.%.%.%.%.%.%.A A A A A A A A A ..%.%.%.%.%.%.%.%.%.%.%.%.Q         !.!.!.!.!.",
"!.!.!.!.!.!.!.!.!.!.!.!.!.!.!.!.!.!.!.!.!.!.!.!.!.!.!.          A A A A T %.%.%.%.%.%.%.%.` A A A A ` %.%.%.%.%.%.%.%.%.%.%.%.%.A A A A A A A A A ..%.%.%.%.%.%.%.%.%.%.%.%.Q         !.!.!.!.!.",
"!.!.!.!.!.!.!.!.!.!.!.!.!.!.!.!.!.!.!.!.!.!.!.!.!.!.!.          A A A A D K K K K K K K K J A A A A ` %.%.%.%.%.%.%.%.%.%.%.%.%.A A A A 1.N.N.N.N.V.C.C.C.h.K K K K { %.%.%.} d d d d 2         ",
"!.!.!.!.!.!.!.!.!.!.!.!.!.!.!.!.!.!.!.!.!.!.!.!.!.!.!.          A A A A A A A A A A A A A A A A A A ` %.%.%.%.%.%.%.%.%.%.%.%.%.A A A A 5.J.J.J.J.J.J.J.J.b.A A A A ` %.%.%...A A A A 7         ",
"!.!.!.!.!.!.!.!.!.!.!.!.!.!.!.!.!.!.!.!.!.!.!.!.!.!.!.          A A A A A A A A A A A A A A A A A A ` %.%.%.%.%.%.%.%.%.%.%.%.%.A A A A 5.J.J.J.J.J.J.J.J.b.A A A A ` %.%.%...A A A A 7         ",
"!.!.!.!.!.!.!.!.!.!.!.!.!.!.!.!.!.!.!.!.!.!.!.!.!.!.!.          A A A A A A A A A A A A A A A A A A ` %.%.%.%.%.%.%.%.%.%.%.%.%.A A A A 5.J.J.J.J.J.J.J.J.b.A A A A ` %.%.%...A A A A 7         ",
"!.!.!.!.!.!.!.!.!.!.!.!.!.!.!.!.!.!.!.!.!.!.!.!.!.!.!.          A A A A D K K K K S A A A A A A A A ` %.%.%.%.%.%.%.%...{ { { { &.&.&.&.8.J.J.J.J.J.J.J.J.B.&.&.&.&.o.{ { { / A A A A 7         ",
"!.!.!.!.!.!.!.!.!.!.!.!.!.!.                                    A A A A T %.%.%.%.G A A A A A A A A ` %.%.%.%.%.%.%.%.T A A A A J.J.J.J.J.J.J.J.J.J.J.J.J.J.J.J.J.J.=.A A A A A A A A 7         ",
"!.!.!.!.!.!.!.!.!.!.!.!.!.!.                                    A A A A T %.%.%.%.G A A A A A A A A ` %.%.%.%.%.%.%.%.T A A A A J.J.J.J.J.J.J.J.J.J.J.J.J.J.J.J.J.J.=.A A A A A A A A 7         ",
"!.!.!.!.!.!.!.!.!.!.!.!.!.!.                                    A A A A T %.%.%.%.G A A A A A A A A ` %.%.%.%.%.%.%.%.T A A A A J.J.J.J.J.J.J.J.J.J.J.J.J.J.J.J.J.J.=.A A A A A A A A 7         ",
"!.!.!.!.!.!.!.!.!.!.!.!.!.!.                                    A A A A T %.%.%.%.G A A A A A A A A ` %.%.%.%.%.%.%.%.T A A A A J.J.J.J.J.J.J.J.J.J.J.J.J.J.J.J.J.J.=.A A A A A A A A 7         ",
"!.!.!.!.!.!.!.!.!.        M t.t.t.t.Z n n n n n n n n n n n n n A A A A T %.%.%.%.' ( ( ( <.v.v.v.v.*.I I I Y %.%.%.%.7.v.v.v.v.v v v v i.E.E.E.E.E.E.E.E.L.v v v v 0 < < < 5 A A A A 7         ",
"!.!.!.!.!.!.!.!.!.        N R.R.R.R.u.%.%.%.%.%.%.%.%.%.%.%.%.%.A A A A T %.%.%.%.%.%.%.%.6.J.J.J.J.=.A A A G %.%.%.%.l.J.J.J.J.        ,.Q.Q.Q.Q.Q.Q.Q.Q.K.                % A A A A 7         ",
"!.!.!.!.!.!.!.!.!.        N R.R.R.R.u.%.%.%.%.%.%.%.%.%.%.%.%.%.A A A A T %.%.%.%.%.%.%.%.6.J.J.J.J.=.A A A G %.%.%.%.l.J.J.J.J.        ,.Q.Q.Q.Q.Q.Q.Q.Q.K.                % A A A A 7         ",
"!.!.!.!.!.!.!.!.!.        N R.R.R.R.u.%.%.%.%.%.%.%.%.%.%.%.%.%.A A A A T %.%.%.%.%.%.%.%.6.J.J.J.J.=.A A A G %.%.%.%.l.J.J.J.J.        ,.Q.Q.Q.Q.Q.Q.Q.Q.K.                % A A A A 7         ",
"!.!.!.!.!.!.!.!.!.& = = = B T.T.T.T.y.| | | ..%.%.%.%._ W W W W f f f f G | | | | $.%.%.%.4.H.H.H.H.3. . . . .| | | | k.J.J.J.J.t t t t p.Q.Q.Q.Q.Q.Q.Q.Q.P.9 9 9 9 *       $ f f f f 4         ",
"!.!.!.!.!.        l A A A C Y.Y.Y.Y.C A A A G %.%.%.%.a                 7 A A A A ..%.%.%.2.c.c.c.c.F.J.J.J.A.A A A A 9.J.J.J.J.Q.Q.Q.Q.Q.Q.Q.Q.Q.Q.Q.Q.Q.W.J.J.J.J.c                 !.!.!.!.!.",
"!.!.!.!.!.        l A A A C Y.Y.Y.Y.C A A A G %.%.%.%.a                 7 A A A A ..%.%.%.2.c.c.c.c.F.J.J.J.A.A A A A 9.J.J.J.J.Q.Q.Q.Q.Q.Q.Q.Q.Q.Q.Q.Q.Q.W.J.J.J.J.c                 !.!.!.!.!.",
"!.!.!.!.!.        l A A A C Y.Y.Y.Y.C A A A G %.%.%.%.a                 7 A A A A ..%.%.%.2.c.c.c.c.F.J.J.J.A.A A A A 9.J.J.J.J.Q.Q.Q.Q.Q.Q.Q.Q.Q.Q.Q.Q.Q.W.J.J.J.J.c                 !.!.!.!.!.",
"!.!.!.!.!.        l A A A C Y.Y.Y.Y.C A A A G %.%.%.%.a                 7 A A A A ..%.%.%.2.c.c.c.c.F.J.J.J.A.A A A A 9.J.J.J.J.Q.Q.Q.Q.Q.Q.Q.Q.Q.Q.Q.Q.Q.W.J.J.J.J.c                 !.!.!.!.!.",
"!.!.!.!.#         l A A A C Y.Y.Y.Y.r.q.q.q.0.i i i i >.f.f.f.f.f.f.f.f.;.3 3 3 3 F U U U -.c.c.c.c.m.D.D.D.M.j.j.j.j.Z.J.J.J.J.I.I.I.I.I.I.I.I.I.I.I.I.I.S.) ) ) ) 1       X : : : : !.!.!.!.!.",
"r r r r ;         l A A A C Y.Y.Y.Y.Y.Y.Y.Y.e.        d.Q.Q.Q.Q.Q.Q.Q.Q.d.        l A A A O.c.c.c.c.c.c.c.c.n.J.J.J.J.J.J.J.J.J.J.J.J.J.J.J.J.J.J.J.J.J.J.s.                o r r r r !.!.!.!.!.",
"r r r r ;         l A A A C Y.Y.Y.Y.Y.Y.Y.Y.e.        d.Q.Q.Q.Q.Q.Q.Q.Q.d.        l A A A O.c.c.c.c.c.c.c.c.n.J.J.J.J.J.J.J.J.J.J.J.J.J.J.J.J.J.J.J.J.J.J.s.                o r r r r !.!.!.!.!.",
"r r r r ;         l A A A C Y.Y.Y.Y.Y.Y.Y.Y.e.        d.Q.Q.Q.Q.Q.Q.Q.Q.d.        l A A A O.c.c.c.c.c.c.c.c.n.J.J.J.J.J.J.J.J.J.J.J.J.J.J.J.J.J.J.J.J.J.J.s.                o r r r r !.!.!.!.!.",
"r r r r : . . . . k x x x V U.U.U.U.U.U.U.U.w.        d.Q.Q.Q.Q.Q.Q.Q.Q.d.        j x x x X.z.z.z.z.z.z.z.z.x.G.G.G.G.G.G.G.G.G.G.G.G.G.G.G.G.G.G.G.G.G.G.a.. . . . . . . . O r r r r !.!.!.!.!.",
"r r r r r r r r r r r r r r r r r r r r r r w         d.Q.Q.Q.Q.Q.Q.Q.Q.d.        w r r r r r r r r r r r r r r r r r r r r r r r r r r r r r r r r r r r r r r r r r r r r r r r r r !.!.!.!.!.",
"r r r r r r r r r r r r r r r r r r r r r r w         d.Q.Q.Q.Q.Q.Q.Q.Q.d.        w r r r r r r r r r r r r r r r r r r r r r r r r r r r r r r r r r r r r r r r r r r r r r r r r r !.!.!.!.!.",
"r r r r r r r r r r r r r r r r r r r r r r w         d.Q.Q.Q.Q.Q.Q.Q.Q.d.        w r r r r r r r r r r r r r r r r r r r r r r r r r r r r r r r r r r r r r r r r r r r r r r r r r !.!.!.!.!.",
"r r r r r r r r r r r r r r r r r r r r r r w         d.Q.Q.Q.Q.Q.Q.Q.Q.d.        w r r r r r r r r r r r r r r r r r r r r r r r r r r r r r r r r r r r r r r r r r r r r r r r r r !.!.!.!.!.",
"!.!.!.!.!.r r r r r r r r r r r r r r r r r e - - - - :.g.g.g.g.g.g.g.g.:.- - - - e r r r r r r r r r r r r r r r r r r r r r r r r r r r r r r r r r r r r r r r r r r r r !.!.!.!.!.!.!.!.!.!.",
"!.!.!.!.!.r r r r r r r r r r r r r r r r r r r r r r r r r r r r r r r r r r r r r r r r r r r r r r r r r r r r r r r r r r r r r r r r r r r r r r r r r r r r r r r r r !.!.!.!.!.!.!.!.!.!.",
"!.!.!.!.!.r r r r r r r r r r r r r r r r r r r r r r r r r r r r r r r r r r r r r r r r r r r r r r r r r r r r r r r r r r r r r r r r r r r r r r r r r r r r r r r r r !.!.!.!.!.!.!.!.!.!.",
"!.!.!.!.!.r r r r r r r r r r r r r r r r r r r r r r r r r r r r r r r r r r r r r r r r r r r r r r r r r r r r r r r r r r r r r r r r r r r r r r r r r r r r r r r r r !.!.!.!.!.!.!.!.!.!.",
"!.!.!.!.!.r r r r r r r r r r r r r r r r r r r r r r r r r r r r r r r r r r r r r r r r r r r r r r r r r r r r r r r r r r r r r r r r r r r r r r r r r r r r r r r r r !.!.!.!.!.!.!.!.!.!."
};
