/* XPM */
static char *DA1[] = {
/* columns rows colors chars-per-pixel */
"66 96 171 2 ",
"   c black",
".  c #000101",
"X  c #010101",
"o  c #010102",
"O  c #020203",
"+  c #070503",
"@  c #090604",
"#  c #040408",
"$  c #040509",
"%  c #05060B",
"&  c #06070C",
"*  c #140C07",
"=  c #130C08",
"-  c #160E09",
";  c #190F09",
":  c #1D120A",
">  c #1E120B",
",  c #0C0E19",
"<  c #21110D",
"1  c #23180E",
"2  c #25180F",
"3  c #271A10",
"4  c #271A11",
"5  c #281B10",
"6  c #2F1C11",
"7  c #2F1D11",
"8  c #311E12",
"9  c #331F12",
"0  c #342013",
"q  c #362113",
"w  c #332214",
"e  c #342014",
"r  c #362416",
"t  c #392314",
"y  c #392315",
"u  c #3B2415",
"i  c #3C2516",
"p  c #3D2516",
"a  c #3D2617",
"s  c #3D2717",
"d  c #35261D",
"f  c #36271D",
"g  c #3C2818",
"h  c #3F2A19",
"j  c #3F2A1A",
"k  c #3A332B",
"l  c #3D362D",
"z  c #402717",
"x  c #432918",
"c  c #402B1B",
"v  c #442A19",
"b  c #442B1A",
"n  c #452B1A",
"m  c #432D1B",
"M  c #452C1A",
"N  c #452D1B",
"B  c #462C1A",
"V  c #462D1B",
"C  c #472D1B",
"Z  c #472E1B",
"A  c #472F1C",
"S  c #482E1B",
"D  c #492E1C",
"F  c #4A2F1C",
"G  c #49301D",
"H  c #49311D",
"J  c #4B301D",
"K  c #4B311D",
"L  c #4A311E",
"P  c #4C311D",
"I  c #4D311E",
"U  c #4D321E",
"Y  c #4E341F",
"T  c #50341F",
"R  c #4C3226",
"E  c #4F3A2E",
"W  c #513520",
"Q  c #503620",
"!  c #513620",
"~  c #523620",
"^  c #523721",
"/  c #533721",
"(  c #523722",
")  c #533822",
"_  c #553822",
"`  c #563922",
"'  c #563923",
"]  c #573A23",
"[  c #5A3D27",
"{  c #5C3E2F",
"}  c #524135",
"|  c #5A4031",
" . c #5F4B39",
".. c #64442C",
"X. c #664634",
"o. c #664734",
"O. c #644736",
"+. c #6B4A36",
"@. c #6D4A34",
"#. c #6C4B35",
"$. c #724E37",
"%. c #69513D",
"&. c #6F543C",
"*. c #755139",
"=. c #76513A",
"-. c #74513D",
";. c #7A553C",
":. c #7F593E",
">. c #6D5A4B",
",. c #7F5840",
"<. c #7F5B45",
"1. c #785D44",
"2. c #705C49",
"3. c #675B5B",
"4. c #6F6664",
"5. c #6B646A",
"6. c #726B6F",
"7. c #71707F",
"8. c #825B42",
"9. c #845C43",
"0. c #845F48",
"q. c #856046",
"w. c #8A6047",
"e. c #8B6147",
"r. c #886149",
"t. c #8D6348",
"y. c #91664B",
"u. c #93684D",
"i. c #92684F",
"p. c #846D56",
"a. c #986C50",
"s. c #9D6F53",
"d. c #83705D",
"f. c #9F7256",
"g. c #95755D",
"h. c #A07155",
"j. c #AC7B5D",
"k. c #877460",
"l. c #857763",
"z. c #987461",
"x. c #9B7E65",
"c. c #9C7C6F",
"v. c #867E7D",
"b. c #988871",
"n. c #A18064",
"m. c #A5856A",
"M. c #A9876B",
"N. c #AB896C",
"B. c #A18D75",
"V. c #A38E75",
"C. c #AB8C70",
"Z. c #A69076",
"A. c #A99276",
"S. c #A39279",
"D. c #B79577",
"F. c #B8977A",
"G. c #B2997C",
"H. c #B99A7D",
"J. c #7A7B87",
"K. c #787E97",
"L. c #7E849B",
"P. c #81858F",
"I. c #84899F",
"U. c #BB9D80",
"Y. c #BCA183",
"T. c #BEA689",
"R. c #BFA78A",
"E. c #9095A7",
"W. c #A4A8B5",
"Q. c #C1AC8F",
"!. c None",
/* pixels */
"!.!.!.!.!.!.!.!.!.!.                                        !.!.!.!.!.!.                    !.!.!.!.!.!.!.!.!.!.!.!.!.!.!.!.!.!.!.!.",
"!.!.!.!.!.!.!.!.!.!.                                        !.!.!.!.!.!.                    !.!.!.!.!.!.!.!.!.!.!.!.!.!.!.!.!.!.!.!.",
"!.!.!.!.!.!.!.!.!.!.                                        !.!.!.!.!.!.                    !.!.!.!.!.!.!.!.!.!.!.!.!.!.!.!.!.!.!.!.",
"!.!.!.!.!.!.!.!.!.!.                                        !.!.!.!.!.!.                    !.!.!.!.!.!.!.!.!.!.!.!.!.!.!.!.!.!.!.!.",
"!.!.!.!.!.!.!.!.!.!.                                        !.!.!.!.!.!.                    !.!.!.!.!.!.!.!.!.!.!.!.!.!.!.!.!.!.!.!.",
"!.!.!.!.!.!.!.!.!.!.          j ^ ^ ^ ^ ^ ^ ^ ^ ^ M p p p p :         3 ^ ^ ^ ^ w                               !.!.!.!.!.!.!.!.!.!.",
"!.!.!.!.!.!.!.!.!.!.          m ] ] ] ] ] ] ] ] ] D z z z z >         5 ] ] ] ] r                               !.!.!.!.!.!.!.!.!.!.",
"!.!.!.!.!.!.!.!.!.!.          m ] ] ] ] ] ] ] ] ] D z z z z >         5 ] ] ] ] r                               !.!.!.!.!.!.!.!.!.!.",
"!.!.!.!.!.!.!.!.!.!.          m ] ] ] ] ] ] ] ] ] D z z z z >         5 ] ] ] ] r                               !.!.!.!.!.!.!.!.!.!.",
"!.!.!.!.!.!.!.!.!.!.          m ] ] ] ] ] ] ] ] ] D z z z z >         5 ] ] ] ] r                               !.!.!.!.!.!.!.!.!.!.",
"!.!.!.!.!.!.!.!.!.!.          + @ @ @ @ h ] ] ] ] ` _ _ _ _ V y y y y Z ] ] ] ] ) Y Y Y Y Y Y Y Y Y G y y y y 8           !.!.!.!.!.",
"!.!.!.!.!.!.!.!.!.!.                    g ] ] ] ] ] ] ] ] ] J z z z z J ] ] ] ] ] ] ] ] ] ] ] ] ] ] ! z z z z q           !.!.!.!.!.",
"!.!.!.!.!.!.!.!.!.!.                    g ] ] ] ] ] ] ] ] ] J z z z z J ] ] ] ] ] ] ] ] ] ] ] ] ] ] ! z z z z q           !.!.!.!.!.",
"!.!.!.!.!.!.!.!.!.!.                    g ] ] ] ] ] ] ] ] ] J z z z z J ] ] ] ] ] ] ] ] ] ] ] ] ] ] ! z z z z q           !.!.!.!.!.",
"!.!.!.!.!.!.!.!.!.!.                    g ] ] ] ] ] ] ] ] ] J z z z z J ] ] ] ] ] ] ] ] ] ] ] ] ] ] ! z z z z q           !.!.!.!.!.",
"!.!.!.!.!.          6 q q q q N H H H H ^ ] ] ] ] ] ] ] ] ] _ / / / / _ ] ] ] ] ] ] ] ] ] ] ] ] ] ] ' / / / / A           !.!.!.!.!.",
"!.!.!.!.!.          q z z z z ! ] ] ] ] ] ] ] ] ] ] ] ] ] ] ] ] ] ] ] ] ] ] ] ] ] ] ] ] ] ] ] ] ] ] ] ] ] ] ] L           !.!.!.!.!.",
"!.!.!.!.!.          q z z z z ! ] ] ] ] ] ] ] ] ] ] ] ] ] ] ] ] ] ] ] ] ] ] ] ] ] ] ] ] ] ] ] ] ] ] ] ] ] ] ] L           !.!.!.!.!.",
"!.!.!.!.!.          q z z z z ! ] ] ] ] ] ] ] ] ] ] ] ] ] ] ] ] ] ] ] ] ] ] ] ] ] ] ] ] ] ] ] ] ] ] ] ] ] ] ] L           !.!.!.!.!.",
"!.!.!.!.!.          q z z z z ! ] ] ] ] ] ] ] ] ] ] ] ] ] ] ] ] ] ] ] ] ] ] ] ] ] ] ] ] ] ] ] ] ] ] ] ] ] ] ] L           !.!.!.!.!.",
"          7 9 9 9 9 U ~ ~ ~ ~ ` ] ] ] ] ] ] ] ] ] ] ] ] ] ] U n n n n U ] ] ] ] ] ] ] ] ] ] ] ] ] ] ] ] ] ] ] ! 9 9 9 9 7           ",
"          u z z z z / ] ] ] ] ] ] ] ] ] ] ] ] ] ] ] ] ] ] ] J z z z z J ] ] ] ] ] ] ] ] ] ] ] ] ] ] ] ] ] ] ] / z z z z u           ",
"          u z z z z / ] ] ] ] ] ] ] ] ] ] ] ] ] ] ] ] ] ] ] J z z z z J ] ] ] ] ] ] ] ] ] ] ] ] ] ] ] ] ] ] ] / z z z z u           ",
"          u z z z z / ] ] ] ] ] ] ] ] ] ] ] ] ] ] ] ] ] ] ] J z z z z J ] ] ] ] ] ] ] ] ] ] ] ] ] ] ] ] ] ] ] / z z z z u           ",
"          u z z z z / ] ] ] ] ] ] ] ] ] ] ] ] ] ] ] ] ] ] ] J z z z z J ] ] ] ] ] ] ] ] ] ] ] ] ] ] ] ] ] ] ] / z z z z u           ",
"          K W W W W ' ] ] ] ] ] ] ] ] ] J B B B B B B B B B x z z z z x B B B B I ] ] ] ] ] ] ] ] ] ] ] ] ] ] ' W W W W K           ",
"          Q ] ] ] ] ] ] ] ] ] ] ] ] ] ] C z z z z z z z z z z z z z z z z z z z D ] ] ] ] ] ] ] ] ] ] ] ] ] ] ] ] ] ] ] Q           ",
"          Q ] ] ] ] ] ] ] ] ] ] ] ] ] ] C z z z z z z z z z z z z z z z z z z z D ] ] ] ] ] ] ] ] ] ] ] ] ] ] ] ] ] ] ] Q           ",
"          Q ] ] ] ] ] ] ] ] ] ] ] ] ] ] C z z z z z z z z z z z z z z z z z z z D ] ] ] ] ] ] ] ] ] ] ] ] ] ] ] ] ] ] ] Q           ",
"          Q ] ] ] ] ] ] ] ] ] ] ] ] ] ] C z z z z z z z z z z z z z z z z z z z D ] ] ] ] ] ] ] ] ] ] ] ] ] ] ] ] ] ] ] Q           ",
"          Q ] ] ] ] ] ] ] ] ] ] ] ] ] ] C z z z z @.w.w.w.w.w.w.w.w.w.w.w.w.w.w.t.y.y.y.y.;.C C C C J ] ] ] ] ] ] ] ] ] Q           ",
"          Q ] ] ] ] ] ] ] ] ] ] ] ] ] ] C z z z z 8.j.j.j.j.j.j.j.j.j.j.j.j.j.j.j.j.j.j.j.e.z z z z n ] ] ] ] ] ] ] ] ] Q           ",
"          Q ] ] ] ] ] ] ] ] ] ] ] ] ] ] C z z z z 8.j.j.j.j.j.j.j.j.j.j.j.j.j.j.j.j.j.j.j.e.z z z z n ] ] ] ] ] ] ] ] ] Q           ",
"          Q ] ] ] ] ] ] ] ] ] ] ] ] ] ] C z z z z 8.j.j.j.j.j.j.j.j.j.j.j.j.j.j.j.j.j.j.j.e.z z z z n ] ] ] ] ] ] ] ] ] Q           ",
"          Q ] ] ] ] ] ] ] ] ] ] ] ] ] ] C z z z z 8.j.j.j.j.j.j.j.j.j.j.j.j.j.j.j.j.j.j.j.e.z z z z n ] ] ] ] ] ] ] ] ] Q           ",
"          Q ] ] ] ] ] ] ] ] ] P S S S S $.9.9.9.9.s.j.j.j.j.j.j.j.j.j.j.j.j.j.j.j.j.j.j.j.h.9.9.9.9.=.S S S S J ] ] ] ] Q           ",
"          Q ] ] ] ] ] ] ] ] ] n z z z z e.j.j.j.j.j.j.j.j.j.j.j.j.j.j.j.j.j.j.j.j.j.j.j.j.j.j.j.j.j.u.z z z z v ] ] ] ] Q           ",
"          Q ] ] ] ] ] ] ] ] ] n z z z z e.j.j.j.j.j.j.j.j.j.j.j.j.j.j.j.j.j.j.j.j.j.j.j.j.j.j.j.j.j.u.z z z z v ] ] ] ] Q           ",
"          Q ] ] ] ] ] ] ] ] ] n z z z z e.j.j.j.j.j.j.j.j.j.j.j.j.j.j.j.j.j.j.j.j.j.j.j.j.j.j.j.j.j.u.z z z z v ] ] ] ] Q           ",
"          Q ] ] ] ] ] ] ] ] ] n z z z z e.j.j.j.j.j.j.j.j.j.j.j.j.j.j.j.j.j.j.j.j.j.j.j.j.j.j.j.j.j.u.z z z z v ] ] ] ] Q           ",
"          b F F F F _ ] ] ] ] *.,.,.,.,.X.{ { { { g.F.F.F.F.F.F.F.F.F.F.F.F.F.F.g.{ { { { -.j.j.j.j.u.z z z z i 2 2 2 2 1 !.!.!.!.!.",
"          u z z z z / ] ] ] ] a.j.j.j.j.R < < < < d.Q.Q.Q.Q.Q.Q.Q.Q.Q.Q.Q.Q.Q.Q.d.< < < < R j.j.j.j.u.z z z z q           !.!.!.!.!.",
"          u z z z z / ] ] ] ] a.j.j.j.j.R < < < < d.Q.Q.Q.Q.Q.Q.Q.Q.Q.Q.Q.Q.Q.Q.d.< < < < R j.j.j.j.u.z z z z q           !.!.!.!.!.",
"          u z z z z / ] ] ] ] a.j.j.j.j.R < < < < d.Q.Q.Q.Q.Q.Q.Q.Q.Q.Q.Q.Q.Q.Q.d.< < < < R j.j.j.j.u.z z z z q           !.!.!.!.!.",
"          u z z z z / ] ] ] ] a.j.j.j.j.R < < < < d.Q.Q.Q.Q.Q.Q.Q.Q.Q.Q.Q.Q.Q.Q.d.< < < < R j.j.j.j.u.z z z z q           !.!.!.!.!.",
"!.!.!.!.!.: > > > > Y ] ] ] ] n.D.D.D.D.E < < < < d.Q.Q.Q.Q.Q.Q.Q.Q.Q.Q.Q.Q.Q.Q.d.< < < < E D.D.D.D.C.p.p.p.p.2.          !.!.!.!.!.",
"!.!.!.!.!.          L ] ] ] ] A.Q.Q.Q.Q.} < < < < d.Q.Q.Q.Q.Q.Q.Q.Q.Q.Q.Q.Q.Q.Q.d.< < < < } Q.Q.Q.Q.Q.Q.Q.Q.Q.S.          !.!.!.!.!.",
"!.!.!.!.!.          L ] ] ] ] A.Q.Q.Q.Q.} < < < < d.Q.Q.Q.Q.Q.Q.Q.Q.Q.Q.Q.Q.Q.Q.d.< < < < } Q.Q.Q.Q.Q.Q.Q.Q.Q.S.          !.!.!.!.!.",
"!.!.!.!.!.          L ] ] ] ] A.Q.Q.Q.Q.} < < < < d.Q.Q.Q.Q.Q.Q.Q.Q.Q.Q.Q.Q.Q.Q.d.< < < < } Q.Q.Q.Q.Q.Q.Q.Q.Q.S.          !.!.!.!.!.",
"!.!.!.!.!.          L ] ] ] ] A.Q.Q.Q.Q.} < < < < d.Q.Q.Q.Q.Q.Q.Q.Q.Q.Q.Q.Q.Q.Q.d.< < < < } Q.Q.Q.Q.Q.Q.Q.Q.Q.S.          !.!.!.!.!.",
"!.!.!.!.!.          #.:.:.:.:.G.Q.Q.Q.Q.k.>.>.>.>.B.Q.Q.Q.Q.Q.Q.Q.Q.Q.Q.Q.Q.Q.Q.B.>.>.>.>.k.Q.Q.Q.Q.R.D.D.D.D.x.          !.!.!.!.!.",
"!.!.!.!.!.          i.j.j.j.j.Y.Q.Q.Q.Q.Q.Q.Q.Q.Q.Q.Q.Q.Q.Q.Q.Q.Q.Q.Q.Q.Q.Q.Q.Q.Q.Q.Q.Q.Q.Q.Q.Q.Q.Q.Y.j.j.j.j.i.          !.!.!.!.!.",
"!.!.!.!.!.          i.j.j.j.j.Y.Q.Q.Q.Q.Q.Q.Q.Q.Q.Q.Q.Q.Q.Q.Q.Q.Q.Q.Q.Q.Q.Q.Q.Q.Q.Q.Q.Q.Q.Q.Q.Q.Q.Q.Y.j.j.j.j.i.          !.!.!.!.!.",
"!.!.!.!.!.          i.j.j.j.j.Y.Q.Q.Q.Q.Q.Q.Q.Q.Q.Q.Q.Q.Q.Q.Q.Q.Q.Q.Q.Q.Q.Q.Q.Q.Q.Q.Q.Q.Q.Q.Q.Q.Q.Q.Y.j.j.j.j.i.          !.!.!.!.!.",
"!.!.!.!.!.          i.j.j.j.j.Y.Q.Q.Q.Q.Q.Q.Q.Q.Q.Q.Q.Q.Q.Q.Q.Q.Q.Q.Q.Q.Q.Q.Q.Q.Q.Q.Q.Q.Q.Q.Q.Q.Q.Q.Y.j.j.j.j.i.          !.!.!.!.!.",
"!.!.!.!.!.          | O.O.O.O.m.F.F.F.F.T.Q.Q.Q.Q.Q.Q.Q.Q.Q.Q.Q.Q.Q.Q.Q.Q.Q.Q.Q.Q.Q.Q.Q.Q.T.F.F.F.F.N.,.,.,.,.+.          !.!.!.!.!.",
"!.!.!.!.!.!.!.!.!.!.          0.j.j.j.j.U.Q.Q.Q.Q.Q.Q.Q.Q.Q.Q.Q.Q.Q.Q.Q.Q.Q.Q.Q.Q.Q.Q.Q.Q.U.j.j.j.j.u.z z z z q           !.!.!.!.!.",
"!.!.!.!.!.!.!.!.!.!.          0.j.j.j.j.U.Q.Q.Q.Q.Q.Q.Q.Q.Q.Q.Q.Q.Q.Q.Q.Q.Q.Q.Q.Q.Q.Q.Q.Q.U.j.j.j.j.u.z z z z q           !.!.!.!.!.",
"!.!.!.!.!.!.!.!.!.!.          0.j.j.j.j.U.Q.Q.Q.Q.Q.Q.Q.Q.Q.Q.Q.Q.Q.Q.Q.Q.Q.Q.Q.Q.Q.Q.Q.Q.U.j.j.j.j.u.z z z z q           !.!.!.!.!.",
"!.!.!.!.!.!.!.!.!.!.          0.j.j.j.j.U.Q.Q.Q.Q.Q.Q.Q.Q.Q.Q.Q.Q.Q.Q.Q.Q.Q.Q.Q.Q.Q.Q.Q.Q.U.j.j.j.j.u.z z z z q           !.!.!.!.!.",
"!.!.!.!.!.!.!.!.!.!.          o.9.9.9.9.M.H.H.H.H.H.H.H.H.H.H.H.H.H.H.H.H.H.H.H.H.H.H.H.H.M.9.9.9.9.=.S S S S s           !.!.!.!.!.",
"!.!.!.!.!.!.!.!.!.!.          8 z z z z e.j.j.j.j.j.j.j.j.j.j.j.j.j.j.j.j.j.j.j.j.j.j.j.j.e.z z z z n ] ] ] ] L           !.!.!.!.!.",
"!.!.!.!.!.!.!.!.!.!.          8 z z z z e.j.j.j.j.j.j.j.j.j.j.j.j.j.j.j.j.j.j.j.j.j.j.j.j.e.z z z z n ] ] ] ] L           !.!.!.!.!.",
"!.!.!.!.!.!.!.!.!.!.          8 z z z z e.j.j.j.j.j.j.j.j.j.j.j.j.j.j.j.j.j.j.j.j.j.j.j.j.e.z z z z n ] ] ] ] L           !.!.!.!.!.",
"!.!.!.!.!.!.!.!.!.!.          8 z z z z e.j.j.j.j.j.j.j.j.j.j.j.j.j.j.j.j.j.j.j.j.j.j.j.j.e.z z z z n ] ] ] ] L           !.!.!.!.!.",
"!.!.!.!.!.!.!.!.!.!.k l l l l  .%.%.%.%.q.y.y.y.y.z.c.c.c.c.c.c.c.c.c.c.c.c.c.c.z.y.y.y.y.;.C C C C J ] ] ] ] ( f f f f d !.!.!.!.!.",
"!.!.!.!.!.          S.Q.Q.Q.Q.Q.Q.Q.Q.Q.1.] ] ] ] 5.K.K.K.K.K.K.K.K.K.K.K.K.K.K.5.] ] ] ] ] ] ] ] ] ] ] ] ] ] ..j.j.j.j.f.          ",
"!.!.!.!.!.          S.Q.Q.Q.Q.Q.Q.Q.Q.Q.1.] ] ] ] 5.K.K.K.K.K.K.K.K.K.K.K.K.K.K.5.] ] ] ] ] ] ] ] ] ] ] ] ] ] ..j.j.j.j.f.          ",
"!.!.!.!.!.          S.Q.Q.Q.Q.Q.Q.Q.Q.Q.1.] ] ] ] 5.K.K.K.K.K.K.K.K.K.K.K.K.K.K.5.] ] ] ] ] ] ] ] ] ] ] ] ] ] ..j.j.j.j.f.          ",
"!.!.!.!.!.          S.Q.Q.Q.Q.Q.Q.Q.Q.Q.1.] ] ] ] 5.K.K.K.K.K.K.K.K.K.K.K.K.K.K.5.] ] ] ] ] ] ] ] ] ] ] ] ] ] ..j.j.j.j.f.          ",
"!.!.!.!.!.          S.Q.Q.Q.Q.Q.Q.Q.Q.Q.1.] ] ] ] 5.K.K.K.K.L.I.I.I.I.I.I.I.I.I.6.] ] ] ] ] ] ] ] ] ] ] ] ] ] ..j.j.j.j.f.          ",
"!.!.!.!.!.          S.Q.Q.Q.Q.Q.Q.Q.Q.Q.1.] ] ] ] 5.K.K.K.K.E.W.W.W.W.W.W.W.W.W.v.] ] ] ] ] ] ] ] ] ] ] ] ] ] ..j.j.j.j.f.          ",
"!.!.!.!.!.          S.Q.Q.Q.Q.Q.Q.Q.Q.Q.1.] ] ] ] 5.K.K.K.K.E.W.W.W.W.W.W.W.W.W.v.] ] ] ] ] ] ] ] ] ] ] ] ] ] ..j.j.j.j.f.          ",
"!.!.!.!.!.          S.Q.Q.Q.Q.Q.Q.Q.Q.Q.1.] ] ] ] 5.K.K.K.K.E.W.W.W.W.W.W.W.W.W.v.] ] ] ] ] ] ] ] ] ] ] ] ] ] ..j.j.j.j.f.          ",
"!.!.!.!.!.          S.Q.Q.Q.Q.Q.Q.Q.Q.Q.1.] ] ] ] 5.K.K.K.K.E.W.W.W.W.W.W.W.W.W.v.] ] ] ] ] ] ] ] ] ] ] ] ] ] ..j.j.j.j.f.          ",
"!.!.!.!.!.          l.b.b.b.b.V.Z.Z.Z.Z.&.] ] ] ] 3.7.7.7.7.J.P.P.P.P.P.P.P.P.P.4.~ ~ ~ ~ ~ ~ ~ ~ ~ ~ ~ ~ ~ ~ [ r.r.r.r.<.          ",
"!.!.!.!.!.!.!.!.!.!.          8 z z z z T ] ] ] ] ] ] ] ] ] 5                   ; z z z z z z z z z z z z z z q           !.!.!.!.!.",
"!.!.!.!.!.!.!.!.!.!.          8 z z z z T ] ] ] ] ] ] ] ] ] 5                   ; z z z z z z z z z z z z z z q           !.!.!.!.!.",
"!.!.!.!.!.!.!.!.!.!.          8 z z z z T ] ] ] ] ] ] ] ] ] 5                   ; z z z z z z z z z z z z z z q           !.!.!.!.!.",
"!.!.!.!.!.!.!.!.!.!.          8 z z z z T ] ] ] ] ] ] ] ] ] 5                   ; z z z z z z z z z z z z z z q           !.!.!.!.!.",
"!.!.!.!.!.!.!.!.!.!.          0 v v v v W ] ] ] ] ] ] ] ] ] 5         . o o o o - q q q q t z z z z z z z z z q           !.!.!.!.!.",
", , , , , , , , , , o         m ] ] ] ] ] ] ] ] ] ] ] ] ] ] 5         # , , , , %         * z z z z z z z z z q         . , , , , , ",
", , , , , , , , , , o         m ] ] ] ] ] ] ] ] ] ] ] ] ] ] 5         # , , , , %         * z z z z z z z z z q         . , , , , , ",
", , , , , , , , , , o         m ] ] ] ] ] ] ] ] ] ] ] ] ] ] 5         # , , , , %         * z z z z z z z z z q         . , , , , , ",
", , , , , , , , , , o         m ] ] ] ] ] ] ] ] ] ] ] ] ] ] 5         # , , , , %         * z z z z z z z z z q         . , , , , , ",
", , , , , , , , , , O X X X X c ) ) ) ) ) ) ) ) ) ) ) ) ) ) 4 X X X X $ , , , , & X X X X = a a a a a a a a a e X X X X o , , , , , ",
", , , , , , , , , , , , , , , , , , , , , , , , , , , , , , , , , , , , , , , , , , , , , , , , , , , , , , , , , , , , , , , , , , ",
", , , , , , , , , , , , , , , , , , , , , , , , , , , , , , , , , , , , , , , , , , , , , , , , , , , , , , , , , , , , , , , , , , ",
", , , , , , , , , , , , , , , , , , , , , , , , , , , , , , , , , , , , , , , , , , , , , , , , , , , , , , , , , , , , , , , , , , ",
", , , , , , , , , , , , , , , , , , , , , , , , , , , , , , , , , , , , , , , , , , , , , , , , , , , , , , , , , , , , , , , , , , ",
"!.!.!.!.!.!., , , , , , , , , , , , , , , , , , , , , , , , , , , , , , , , , , , , , , , , , , , , , , , , , , , , , , !.!.!.!.!.!.",
"!.!.!.!.!.!., , , , , , , , , , , , , , , , , , , , , , , , , , , , , , , , , , , , , , , , , , , , , , , , , , , , , , !.!.!.!.!.!.",
"!.!.!.!.!.!., , , , , , , , , , , , , , , , , , , , , , , , , , , , , , , , , , , , , , , , , , , , , , , , , , , , , , !.!.!.!.!.!.",
"!.!.!.!.!.!., , , , , , , , , , , , , , , , , , , , , , , , , , , , , , , , , , , , , , , , , , , , , , , , , , , , , , !.!.!.!.!.!.",
"!.!.!.!.!.!., , , , , , , , , , , , , , , , , , , , , , , , , , , , , , , , , , , , , , , , , , , , , , , , , , , , , , !.!.!.!.!.!.",
"!.!.!.!.!.!., , , , , , , , , , , , , , , , , , , , , , , , , , , , , , , , , , , , , , , , , , , , , , , , , , , , , , !.!.!.!.!.!."
};
