/* XPM */
static char *DA2[] = {
/* columns rows colors chars-per-pixel */
"74 96 140 2 ",
"   c #000000",
".  c #090603",
"X  c #0E0805",
"o  c #05060A",
"O  c #0D0D0D",
"+  c #120C07",
"@  c #140D08",
"#  c #13110F",
"$  c #1A110A",
"%  c #090A13",
"&  c #0C0E19",
"*  c #0B121D",
"=  c #151316",
"-  c #1A1518",
";  c #1A1A1A",
":  c #22130D",
">  c #27180E",
",  c #221913",
"<  c #2D1C12",
"1  c #201A1C",
"2  c #321F12",
"3  c #27231D",
"4  c #352315",
"5  c #3A2415",
"6  c #3F2817",
"7  c #3C2818",
"8  c #091423",
"9  c #1D1E20",
"0  c #2C2A28",
"q  c #3A342B",
"w  c #313236",
"e  c #323438",
"r  c #3B3B3B",
"t  c #402717",
"y  c #452B1A",
"u  c #492F1C",
"i  c #4C311D",
"p  c #50341F",
"a  c #453125",
"s  c #4D3423",
"d  c #41392E",
"f  c #523621",
"g  c #573A23",
"h  c #5D3F27",
"j  c #5D3F2A",
"k  c #423F3C",
"l  c #4A4237",
"z  c #43413D",
"x  c #4D4439",
"c  c #534035",
"v  c #5A483B",
"b  c #61422D",
"n  c #68472F",
"m  c #674635",
"M  c #674B39",
"N  c #6B4B39",
"B  c #6B4F36",
"V  c #724E36",
"C  c #6A513B",
"Z  c #75523A",
"A  c #1A2A4E",
"S  c #1C325E",
"D  c #313D56",
"F  c #142F61",
"G  c #16346A",
"H  c #253D6F",
"J  c #3D4254",
"K  c #374460",
"L  c #21427A",
"P  c #4A474F",
"I  c #584F4F",
"U  c #474851",
"Y  c #4D4E56",
"T  c #614E46",
"R  c #6E5A4D",
"E  c #655249",
"W  c #785641",
"Q  c #775C43",
"!  c #785D45",
"~  c #715F4E",
"^  c #625E59",
"/  c #776453",
"(  c #896046",
")  c #82604A",
"_  c #8B6249",
"`  c #966A4F",
"'  c #9B6E52",
"]  c #9F7154",
"[  c #AC7B5D",
"{  c #A48368",
"}  c #B08567",
"|  c #B28A6C",
" . c #A28D75",
".. c #B69275",
"X. c #B9997C",
"o. c #B59B7F",
"O. c #1D448B",
"+. c #214282",
"@. c #23519C",
"#. c #315791",
"$. c #365B93",
"%. c #355C98",
"&. c #285BA3",
"*. c #2F62AB",
"=. c #2C65B5",
"-. c #4C648F",
";. c #717080",
":. c #787E97",
">. c #797F98",
",. c #496FA9",
"<. c #4B70AB",
"1. c #5A7FB5",
"2. c #7C829A",
"3. c #9D9896",
"4. c #A59688",
"5. c #BB9D80",
"6. c #AB9D91",
"7. c #BCA184",
"8. c #BFA88B",
"9. c #B1A59B",
"0. c #868BA0",
"q. c #A5A6AA",
"w. c #A4A8B5",
"e. c #AEAEB2",
"r. c #AFB0B8",
"t. c #B6B7BA",
"y. c #BBB9BC",
"u. c #C1AC8F",
"i. c #CBC1B5",
"p. c #BEBEC1",
"a. c #C5C2C0",
"s. c #CAC5C1",
"d. c #D3CCC4",
"f. c #DBD2C7",
"g. c #CDCED0",
"h. c #D9D9D9",
"j. c #E5E1DD",
"k. c #F2F2F3",
"l. c #FFFFFF",
"z. c None",
/* pixels */
"z.z.z.z.z.z.z.z.z.z.z.                              z.z.z.z.              z.z.z.z.z.z.z.z.z.z.z.z.z.z.z.z.z.z.z.z.z.z.z.z.z.z.z.z.z.z.z.z.z.z.z.z.z.",
"z.z.z.z.z.z.z.z.z.z.z.                              z.z.z.z.              z.z.z.z.z.z.z.z.z.z.z.z.z.z.z.z.z.z.z.z.z.z.z.z.z.z.z.z.z.z.z.z.z.z.z.z.z.",
"z.z.z.z.z.z.z.z.z.z.z.                              z.z.z.z.              z.z.z.z.z.z.z.z.z.z.z.z.z.z.z.z.z.z.z.z.z.z.z.z.z.z.z.z.z.z.z.z.z.z.z.z.z.",
"z.z.z.z.z.z.z.z.z.z.z.      . $ $ $ $ $ $ $ $ + @ + z.z.z.@ $ $ $ .       z.z.z.z.z.z.z.z.z.z.z.z.z.z.z.z.z.z.z.z.z.z.z.z.z.z.z.z.z.z.z.z.z.z.z.z.z.",
"z.z.z.z.z.z.z.z.z.z.z.      + g g g g g g g y t t 5       > g g g $                     z.z.z.z.z.z.z.z.z.z.z.z.z.z.z.z.z.z.z.z.z.z.z.z.z.z.z.z.z.z.",
"z.z.z.z.z.z.z.z.z.z.z.      + g g g g g g g y t t 5       > g g g $                     z.z.z.z.z.z.z.z.z.z.z.z.z.z.z.z.z.z.z.z.z.z.z.z.z.z.z.z.z.z.",
"z.z.z.z.z.z.z.z.z.z.z.      + g g g g g g g y t t 5       > g g g $                     z.z.z.z.z.z.z.z.z.z.z.z.z.z.z.z.z.z.z.z.z.z.z.z.z.z.z.z.z.z.",
"z.z.z.z.z.z.z.z.z.z.z.      . : > : 7 g g g f i i i > > > 5 g g h 7 4 7 4 4 4 4 4 > > > @       z.z.z.z.z.z.z.z.z.z.z.z.z.z.z.z.z.z.z.z.z.z.z.z.z.z.",
"z.z.z.z.z.z.z.z.z.z.z.              < g g g g g g g t t t u g g g g g g g g g g f 6 6 t $       z.z.z.z.z.z.z.z.z.z.z.z.z.z.z.z.z.z.z.z.z.z.z.z.z.z.",
"z.z.z.z.z.z.z.z.z.z.z.              < g g g g g g f t t t u g g g g g g g g g g f 6 t t $       z.z.z.z.z.z.z.z.z.z.z.z.z.z.z.z.z.z.z.z.z.z.z.z.z.z.",
"z.z.z.z.z.z.z.z.z.z.z.              2 g g g g g g f t t t u g g g g g g g g g g p t t t $       z.z.z.z.z.z.z.z.z.z.z.z.z.z.z.z.z.z.z.z.z.z.z.z.z.z.",
"z.z.z.z.z.z.z.        4 5 5 6 f f f f g g g g g g g g f g g g g g g g g g g g g g f g g >       z.z.z.z.z.z.z.z.z.z.z.z.z.z.z.z.z.z.z.z.z.z.z.z.z.z.",
"z.z.z.z.z.z.z.        5 t t y g g g g g g g g g g g g g g g g g g g g g g g g g g g g g >       z.z.z.z.z.z.z.z.z.z.z.z.z.z.z.z.z.z.z.z.z.z.z.z.z.z.",
"z.z.z.z.z.z.z.        5 t t y g g g g g g g g g g g g g g g g g g g g g g g g g g g g g >       z.z.z.z.z.z.z.z.z.z.z.z.z.z.z.z.z.z.z.z.z.z.z.z.z.z.",
"z.z.z.z.z.z.z.X X X X t y y u g g g g g g g g g g g f f f g g g g g g g g g g g g g g g < X X X z.z.z.z.z.z.z.z.z.z.z.z.z.z.z.z.z.z.z.z.z.z.z.z.z.z.",
"z.z.z.z.      > t t t g g g g g g g g g g g g g g g t t t u g g g g g g g g g g g g g g u 6 6 6 .       z.z.z.z.z.z.z.z.z.z.z.z.z.z.z.z.z.z.z.z.z.z.",
"z.z.z.z.      > t t t g g g g g g g g g g g g g g g t t t u g g g g g g g g g g g g g g u t t t .       z.z.z.z.z.z.z.z.z.z.z.z.z.z.z.z.z.z.z.z.z.z.",
"z.z.z.z.      > t t t g g g g g g g g g g g g g g f t t t u g g g g g g g g g g g g g g u t t t .       z.z.z.z.z.z.z.z.z.z.z.z.z.z.z.z.z.z.z.z.z.z.",
"z.z.z.z.      < i i i g g g g g g g p i i u u i u u t t t y u u u p g g g g g g g g g g p i i i .       z.z.z.z.z.z.z.z.z.z.z.z.z.z.z.z.z.z.z.z.z.z.",
"z.z.z.z.      4 g g g g g g g g g g i t t t t t t t t t t t t t y p g g g g g g g g g g g g g g .       z.z.z.z.z.z.z.z.z.z.z.z.z.z.z.z.z.z.z.z.z.z.",
"z.z.z.z.      4 g g g g g g g g g g u t t t t t t t t t t t t t t p g g g g g g g g g g g g g g .       z.z.z.z.z.z.z.z.z.z.z.z.z.z.z.z.z.z.z.z.z.z.",
"z.z.z.z.      4 g g g g g g g g g g i t t t t t t t t t t t t t t p g g g g g g g g g g g g g g .       z.z.z.z.z.z.z.z.z.z.z.z.z.z.z.z.z.z.z.z.z.z.",
"z.z.z.z.      4 g g g g g g g g g g i t t t ( ' ' ' ' ' ' ' ' ' ' ' [ ` ' y y y i g g g g g g g .       z.z.z.z.z.z.z.z.z.z.z.z.z.z.z.z.z.z.z.z.z.z.",
"z.z.z.z.      4 g g g g g g g g g g i t t t ` [ [ [ [ [ [ [ [ [ [ [ [ [ [ t t t u g g g g g g g .       z.z.z.z.z.z.z.z.z.z.z.z.z.z.z.z.z.z.z.z.z.z.",
"z.z.z.z.      4 g g g g g g g g g g i t y t ` [ [ [ [ [ [ [ [ [ [ [ [ [ [ t t t u g g g g g g g .       z.z.z.z.z.z.z.z.z.z.z.z.z.z.z.z.z.z.z.z.z.z.",
"z.z.z.z.      4 g g g g g g g f f g f f s s ' [ [ [ [ [ [ [ [ [ [ [ [ [ [ p f p f p p f g g g g .       z.z.z.z.z.z.z.z.z.z.z.z.z.z.z.z.z.z.z.z.z.z.",
"z.z.z.z.      4 g g g g g g p 6 t t Z [ [ [ [ [ [ [ [ [ [ [ [ [ [ [ [ [ [ [ [ [ _ t t t p g g g .       z.z.z.z.z.z.z.z.z.z.z.z.z.z.z.z.z.z.z.z.z.z.",
"z.z.z.z.      4 g g g g g g f 6 t t Z [ [ [ [ [ [ [ [ [ [ [ [ [ [ [ [ [ [ [ [ [ _ t t t p g g g .       z.z.z.z.z.z.z.z.z.z.z.z.z.z.z.z.z.z.z.z.z.z.",
"z.z.z.z.      4 g g g g g g f 6 t t Z [ [ [ [ [ [ [ [ [ [ [ [ [ [ [ [ [ [ [ [ [ _ t t t i g g g .       z.z.z.z.z.z.z.z.z.z.z.z.z.z.z.z.z.z.z.z.z.z.",
"z.z.z.z.      < i i i g g g h V V V N N N N [ | ..................) N m N [ [ [ _ t t t 4 < 4 < .     z.z.z.z.z.z.z.z.z.z.z.z.z.z.z.z.z.z.z.z.z.z.z.",
"z.z.z.z.      > t t t g g g n [ [ [ m : : :  .u.u.u.u.u.u.u.u.u.u.j : : : [ [ [ _ t t t $       z.z.z.z.z.z.z.z.z.z.z.z.z.z.z.z.z.z.z.z.z.z.z.z.z.z.",
"z.z.z.z.      > t t t g g g n [ [ [ m : : :  .u.u.u.u.u.u.u.u.u.u.k : : : [ [ [ _ t t 6 $       z.z.z.z.z.z.z.z.z.z.z.z.z.z.z.z.z.z.z.z.z.z.z.z.z.z.",
"z.z.z.z.      > t t 6 g g g n [ [ [ m : : :  .u.u.u.u.u.u.u.u.u.u.j : : : [ [ [ _ t t t $       z.z.z.z.z.z.z.z.z.z.z.z.z.z.z.z.z.z.z.z.z.z.z.z.z.z.",
"z.z.z.z.z.z.z.X X X X f g g B 7.5.5.R : : :  .u.u.u.u.u.u.u.u.u.u.k : : : 5.7.5.o. . . .d       z.z.z.z.z.z.z.z.z.z.z.z.z.z.z.z.z.z.z.z.z.z.z.z.z.z.",
"z.z.z.z.z.z.z.        i g g C u.u.u.R : : $  .u.u.u.u.u.u.u.u.u.u.k : : : u.u.u.u.u.u.u.x       z.z.z.z.z.z.z.z.z.z.z.z.z.z.z.z.z.z.z.z.z.z.z.z.z.z.",
"z.z.z.z.z.z.z.        p g g C u.u.u.R : : :  .u.u.u.u.u.u.u.u.u.u.j : : : u.u.u.u.u.u.u.x       z.z.z.z.z.z.z.z.z.z.z.z.z.z.z.z.z.z.z.z.z.z.z.z.z.z.",
"z.z.z.z.z.z.z.        g h h Z u.u.u./ < < < 4.u.u.u.u.u.u.u.u.u.u.v < < < u.u.u.u.8.8.8.x       z.z.z.z.z.z.z.z.z.z.z.z.z.z.z.z.z.z.z.z.z.z.z.z.z.z.",
"z.z.z.z.              ] [ [ } u.u.u.u.u.u.u.u.u.u.u.u.u.u.u.u.u.u.u.u.u.u.u.u.u.5.[ [ [ a       z.z.z.z.z.z.z.z.z.z.z.z.z.z.z.z.z.z.z.z.z.z.z.z.z.z.",
"z.z.z.z.              ' [ [ } u.u.u.u.u.u.u.u.u.u.u.u.u.u.u.u.u.u.u.u.u.u.u.u.u.5.[ [ [ a       z.z.z.z.z.z.z.z.z.z.z.z.z.z.z.z.z.z.z.z.z.z.z.z.z.z.",
"z.z.z.z.              ] [ [ } u.u.u.u.u.u.u.u.u.u.u.u.u.u.u.u.u.u.u.u.u.u.u.u.u.5.[ [ [ a       z.z.z.z.z.z.z.z.z.z.z.z.z.z.z.z.z.z.z.z.z.z.z.z.z.z.",
"z.z.z.3 l l l l l l l N N N ! X.5.X.7.u.u.u.u.u.u.u.u.u.u.u.u.u.u.u.u.u.u.5.5...[ T m N <       z.z.z.z.z.z.z.z.z.z.z.z.z.z.z.z.z.z.z.z.z.z.z.z.z.z.",
"      q u.u.u.u.u.u.u.#     , [ [ [ ..u.u.u.u.u.u.u.u.u.u.u.u.u.u.u.u.u.u.[ [ [ W o             z.z.z.z.z.z.z.z.z.z.z.z.z.z.z.z.z.z.z.z.z.z.z.z.z.z.",
"      q u.u.u.u.u.u.u.#     , [ [ [ ..u.u.u.u.u.u.u.u.u.u.u.u.u.u.u.u.u.u.[ [ [ W               z.z.z.z.z.z.z.z.z.z.z.z.z.z.z.z.z.z.z.z.z.z.z.z.z.z.",
"      q u.u.u.u.u.u.u.#     , [ [ [ ..u.u.u.u.u.u.u.u.u.u.u.u.u.u.u.u.u.u.[ [ [ W               z.z.z.z.z.z.z.z.z.z.z.z.z.z.z.z.z.z.z.z.z.z.z.z.z.z.",
"      q u.u.u.u.u.u.u.#     @ b b b _ | | | | | | | | | | | | | [ 5.[ ..| W V V j < < > +                             z.z.z.z.z.z.z.z.z.z.z.z.z.z.z.",
"      q u.u.u.u.u.u.u.#     X t t t Z [ [ [ [ [ [ [ [ [ [ [ [ [ [ [ [ [ [ f g g f t t t $                             z.z.z.z.z.z.z.z.z.z.z.z.z.z.z.",
"      q u.u.u.u.u.u.u.#     X t t t Z [ [ [ [ [ [ [ [ [ [ [ [ [ [ [ [ [ [ g g g f t t t $                             z.z.z.z.z.z.z.z.z.z.z.z.z.z.z.",
"      q u.u.u.u.u.u.u.=     X t t t W [ [ [ [ [ [ [ [ [ [ [ [ [ [ [ [ [ [ g g g f t t t $                             z.z.z.z.z.z.z.z.z.z.z.z.z.z.z.",
"z.z.z.z.                    X 6 t t u g g g ;.:.:.:.:.:.:.:.:.:.2.T g g g g g g g g g g u 6 6 6 i.f.f.f.f.f.f.f.f.f.f.0                     z.z.z.z.",
"z.z.z.z.                    X t t t i g g g ;.:.:.:.:.:.:.:.:.:.:.E g g g g g g g g g g u 6 6 6 i.f.f.f.f.f.f.f.f.f.f.0                     z.z.z.z.",
"z.z.z.z.                    X 6 6 t i g g g ^ >.:.:.:.:.:.:.:.:.:.T g g g g g g g g g g u t 6 6 i.f.f.f.f.f.f.f.f.f.f.0                     z.z.z.z.",
"z.z.z.z.                    X y u u s g g g :.2.:.>.0.0.0.0.0.0.0.T g g g g g g b ! ! ! C C C C 4.6.6.9.s.s.s.d.f.f.f.^ z z z z z z r e e e 9 z.z.z.",
"z.z.z.z.z.z.z.z.z.z.z.      + g g g g g g g ;.:.:.2.w.w.w.w.w.w.w.R g g g g g g Q u.u.u.u.u.u.u.s t t c w.w.w.p.f.f.f.f.f.f.f.f.f.f.a.w.w.w.w       ",
"z.z.z.z.z.z.z.z.z.z.z.      + g g g g g g g ;.:.:.2.w.w.w.w.w.w.w.R g g g g g g Q u.u.u.u.u.u.u.s t t c w.w.w.y.f.f.f.f.f.f.f.f.f.f.a.w.w.w.w       ",
"z.z.z.z.z.z.z.z.z.z.z.      + g g g g g g g ;.:.:.2.w.w.w.w.w.w.w.R g g g g g g Q u.u.u.u.u.u.u.s t t c w.w.w.p.f.f.f.f.f.f.f.f.f.f.a.w.w.w.w       ",
"l.l.l.z.z.z.z.z.z.z.z.      + g g g g g g g -.<.,.<.1.1.1.1.1.1.2.I g g g g g g Q u.u.u.u.u.u.u.s t t c w.w.w.t.y.t.y.y.y.y.y.y.y.y.y.a.a.a.r       ",
"l.l.l.l.z.z.z.z.z.z.z.      + g g g g g g g %.=.=.=.=.=.=.=.=.=.=.J g g g g g g ! u.u.u.u.u.u.u.s t y k w.w.w.w.w.w.w.w.w.w.w.w.w.w.y.f.f.f.k       ",
"l.l.l.l.z.z.z.z.z.z.z.      + g g g g g g g $.=.=.=.=.=.=.=.=.=.=.J g g g g g g ! u.u.u.u.u.u.u.s t y x w.w.w.w.w.w.w.w.w.w.w.w.w.w.y.f.f.f.k       ",
"l.l.l.l.z.z.z.z.z.z.z.      + g g g g g g g $.=.=.=.=.=.=.=.=.=.=.Y g g g g g g ! u.u.8.u.u.u.u.s t 6 j w.w.w.w.w.w.w.w.w.w.w.w.w.w.t.f.f.f.z       ",
"l.l.l.l.z.z.z.z.z.z.z.      8 *.*.*.*.*.*.*.=.=.=.=.O.O.O.@.=.=.=.=.*.*.*.+.L O.G O O @ + O O + 2 t 6 4 O O O O O O O O O % O O O O O = # O .       ",
"l.l.l.l.z.z.z.z.z.z.z.      8 =.=.=.=.=.=.=.=.=.=.=.O.O.O.@.=.=.=.=.=.=.=.O.O.O.F               t t t 2                                             ",
"l.l.l.l.z.z.z.z.z.z.z.      8 =.=.=.=.=.=.=.=.=.=.=.O.O.O.@.=.=.=.=.=.=.=.O.O.O.F               2 y t 2                                             ",
"l.l.l.l.z.z.z.z.z.z.z.      * $.$.$.$.$.$.$.=.=.=.*.G G G L #.#.#.#.#.#.#.H H H A             . < 2 2 >                             ; r r r =       ",
"l.l.l.l.z.z.z.z.& & &       @ g g g g g g g %.=.=.&.      $ t t t t t t 6 6 6 6 <       o & & &       .         z.z.z.z.z.z.z.z.z.z.z.l.l.l.z.z.z.z.",
"l.l.l.l.z.z.z.z.& & &       X g g g g g g g %.=.=.&.      $ t t t t t t t t t t <       o & & &                 z.z.z.z.z.z.z.z.z.z.z.l.l.l.z.z.z.z.",
"l.l.l.l.z.z.z.z.& & &       + g g g g g g g %.=.=.&.      $ t t t t t t t t t t <       o & & &                 z.z.z.z.z.z.z.z.z.z.z.l.l.l.z.z.z.z.",
"l.l.l.l.l.l.l.g.t.t.t.O     @ g h g g g g g J K K D       X $ : $ 4 t t t t t t <       o & & & o o o o z.z.z.z.z.z.z.z.z.z.z.l.l.l.l.l.l.l.z.z.z.z.",
"l.l.l.l.l.l.l.l.l.l.l.;     + g g g g g g g y t t 5               < t t t t t t <       o & & & & & & z.z.z.z.z.z.z.z.z.z.z.z.l.l.l.l.l.l.l.z.z.z.z.",
"l.l.l.l.l.l.l.l.l.l.l.;     + g g g g g g g y t t 5               < t t t t t t <       o & & & & & & z.z.z.z.z.z.z.z.z.z.z.z.l.l.l.l.l.l.l.z.z.z.z.",
"l.l.l.l.l.l.l.l.l.l.l.;     + g g g g g g g y t t 5               < t t t t t t <       o & & & & & & z.z.z.z.z.z.z.z.z.z.z.z.l.l.l.l.l.l.l.z.z.z.z.",
"l.l.l.l.l.l.l.l.l.l.l.h.h.h.h.j.j.j.3.; 1 1 - - - - % % % % % % % = - - - - - - = % % % & & & & & & & z.z.z.z.z.z.z.z.l.l.l.l.l.l.l.l.l.l.l.z.z.z.z.",
"l.l.l.l.l.l.l.l.l.l.l.l.l.l.l.l.l.l.e.& & & & & & & & & & & & & & & & & & & & & & & & & & & & & & & & z.z.z.z.z.z.z.z.l.l.l.l.l.l.l.l.l.l.l.z.z.z.z.",
"l.l.l.l.l.l.l.l.l.l.l.l.l.l.l.l.l.l.e.& & & & & & & & & & & & & & & & & & & & & & & & & & & & & & & & z.z.z.z.z.z.z.z.l.l.l.l.l.l.l.l.l.l.l.z.z.z.z.",
"l.l.l.l.l.l.l.l.l.l.l.l.l.l.l.l.l.l.p.Y Y Y Y Y Y U & & & & & & & & & & & & & & & & & & & & & & z.z.z.z.z.z.z.z.z.z.z.l.l.l.l.l.l.l.l.l.l.l.z.z.z.z.",
"l.l.l.l.l.l.l.l.l.l.l.l.l.l.l.l.l.l.l.l.l.l.l.l.l.k.& & & & & & & & & & & & & & & & & & & & & & z.z.z.z.l.l.l.l.l.l.l.l.l.l.l.l.l.l.l.z.z.z.z.z.z.z.",
"l.l.l.l.l.l.l.l.l.l.l.l.l.l.l.l.l.l.l.l.l.l.l.l.l.k.& & & & & & & & & & & & & & & & & & & & & & z.z.z.z.l.l.l.l.l.l.l.l.l.l.l.l.l.l.l.z.z.z.z.z.z.z.",
"l.l.l.l.l.l.l.l.l.l.l.l.l.l.l.l.l.l.l.l.l.l.l.l.l.k.& & & & & & & & & & & & & & & & & & & & & & z.z.z.z.l.l.l.l.l.l.l.l.l.l.l.l.l.l.l.z.z.z.z.z.z.z.",
"l.l.l.l.l.l.l.l.l.l.l.l.l.l.l.l.l.l.l.l.l.l.l.l.l.k.q.q.q.q.q.q.q.q.q.q.q.q.q.q.q.q.q.q.q.q.q.q.z.z.z.l.l.l.l.l.l.l.l.l.l.l.l.l.l.l.l.z.z.z.z.z.z.z.",
"z.z.z.z.l.l.l.l.l.l.l.l.l.l.l.l.l.l.l.l.l.l.l.l.l.l.l.l.l.l.l.l.l.l.l.l.l.l.l.l.l.l.l.l.l.l.l.l.l.l.l.l.l.l.l.l.l.l.l.l.l.l.l.l.l.l.l.z.z.z.z.z.z.z.",
"z.z.z.z.l.l.l.l.l.l.l.l.l.l.l.l.l.l.l.l.l.l.l.l.l.l.l.l.l.l.l.l.l.l.l.l.l.l.l.l.l.l.l.l.l.l.l.l.l.l.l.l.l.l.l.l.l.l.l.l.l.l.l.l.l.l.l.z.z.z.z.z.z.z.",
"z.z.z.z.l.l.l.l.l.l.l.l.l.l.l.l.l.l.l.l.l.l.l.l.l.l.l.l.l.l.l.l.l.l.l.l.l.l.l.l.l.l.l.l.l.l.l.l.l.l.l.l.l.l.l.l.l.l.l.l.l.l.l.l.l.l.l.z.z.z.z.z.z.z.",
"z.z.z.z.l.l.l.l.l.l.l.l.l.l.l.l.l.l.l.l.l.l.l.l.l.l.l.l.l.l.l.l.l.l.l.l.l.l.l.l.l.l.l.l.l.l.l.l.l.l.l.l.l.l.l.l.l.l.l.l.l.l.l.z.z.z.z.z.z.z.z.z.z.z.",
"z.z.z.z.l.l.l.l.l.l.l.l.l.l.l.l.l.l.l.l.l.l.l.l.l.l.l.l.l.l.l.l.l.l.l.l.l.l.l.l.l.l.l.l.l.l.l.l.l.l.l.l.l.l.l.l.l.l.l.l.l.l.l.z.z.z.z.z.z.z.z.z.z.z.",
"z.z.z.z.l.l.l.l.l.l.l.l.l.l.l.l.l.l.l.l.l.l.l.l.l.l.l.l.l.l.l.l.l.l.l.l.l.l.l.l.l.l.l.l.l.l.l.l.l.l.l.l.l.l.l.l.l.l.l.l.l.l.l.z.z.z.z.z.z.z.z.z.z.z.",
"z.z.z.z.l.l.l.l.l.l.l.l.l.l.l.l.l.l.l.l.l.l.l.l.l.l.l.l.l.l.l.l.l.l.l.l.l.l.l.l.l.l.l.l.l.l.l.l.l.l.l.l.l.l.l.l.l.l.l.l.l.l.l.z.z.z.z.z.z.z.z.z.z.z.",
"z.z.z.z.z.z.z.l.l.l.l.l.l.l.l.l.l.l.l.l.l.l.l.l.l.l.l.l.l.l.l.l.l.l.l.l.l.l.l.l.l.l.l.l.l.l.l.l.l.l.l.l.l.l.l.l.l.l.l.z.z.z.z.z.z.z.z.z.z.z.z.z.z.z.",
"z.z.z.z.z.z.z.l.l.l.l.l.l.l.l.l.l.l.l.l.l.l.l.l.l.l.l.l.l.l.l.l.l.l.l.l.l.l.l.l.l.l.l.l.l.l.l.l.l.l.l.l.l.l.l.l.l.l.l.z.z.z.z.z.z.z.z.z.z.z.z.z.z.z.",
"z.z.z.z.z.z.z.l.l.l.l.l.l.l.l.l.l.l.l.l.l.l.l.l.l.l.l.l.l.l.l.l.l.l.l.l.l.l.l.l.l.l.l.l.l.l.l.l.l.l.l.l.l.l.l.l.l.l.l.z.z.z.z.z.z.z.z.z.z.z.z.z.z.z.",
"z.z.z.z.z.z.z.z.l.l.l.l.l.l.l.l.l.l.l.l.l.l.l.l.l.l.l.l.l.l.l.l.l.l.l.l.l.l.l.l.l.l.l.l.l.l.l.l.l.l.l.l.l.l.l.l.l.l.l.z.z.z.z.z.z.z.z.z.z.z.z.z.z.z.",
"z.z.z.z.z.z.z.z.z.z.z.l.l.l.l.l.l.l.l.l.l.l.l.l.l.l.l.l.l.l.l.l.l.l.l.l.l.l.l.l.l.l.l.l.l.l.l.l.l.l.l.l.l.l.l.l.z.z.z.z.z.z.z.z.z.z.z.z.z.z.z.z.z.z.",
"z.z.z.z.z.z.z.z.z.z.z.l.l.l.l.l.l.l.l.l.l.l.l.l.l.l.l.l.l.l.l.l.l.l.l.l.l.l.l.l.l.l.l.l.l.l.l.l.l.l.l.l.l.l.l.l.z.z.z.z.z.z.z.z.z.z.z.z.z.z.z.z.z.z.",
"z.z.z.z.z.z.z.z.z.z.z.l.l.l.l.l.l.l.l.l.l.l.l.l.l.l.l.l.l.l.l.l.l.l.l.l.l.l.l.l.l.l.l.l.l.l.l.l.l.l.l.l.l.l.l.l.z.z.z.z.z.z.z.z.z.z.z.z.z.z.z.z.z.z.",
"z.z.z.z.z.z.z.z.z.z.z.z.z.z.z.z.z.z.l.l.l.l.l.l.l.l.l.l.l.l.l.l.l.l.l.l.l.l.l.l.l.l.l.l.l.l.l.l.z.z.z.z.z.z.z.z.z.z.z.z.z.z.z.z.z.z.z.z.z.z.z.z.z.z.",
"z.z.z.z.z.z.z.z.z.z.z.z.z.z.z.z.z.z.z.l.l.l.l.l.l.l.l.l.l.l.l.l.l.l.l.l.l.l.l.l.l.l.l.l.l.l.l.l.z.z.z.z.z.z.z.z.z.z.z.z.z.z.z.z.z.z.z.z.z.z.z.z.z.z.",
"z.z.z.z.z.z.z.z.z.z.z.z.z.z.z.z.z.z.z.l.l.l.l.l.l.l.l.l.l.l.l.l.l.l.l.l.l.l.l.l.l.l.l.l.l.l.l.l.z.z.z.z.z.z.z.z.z.z.z.z.z.z.z.z.z.z.z.z.z.z.z.z.z.z.",
"z.z.z.z.z.z.z.z.z.z.z.z.z.z.z.z.z.z.z.l.l.l.l.l.l.l.l.l.l.l.l.l.l.l.l.l.l.l.l.l.l.l.l.l.l.l.l.l.z.z.z.z.z.z.z.z.z.z.z.z.z.z.z.z.z.z.z.z.z.z.z.z.z.z."
};
