/* XPM */
static char *PIS0[] = {
/* columns rows colors chars-per-pixel */
"62 96 156 2 ",
"   c black",
".  c #030201",
"X  c #010203",
"o  c #030306",
"O  c #030406",
"+  c #0B0704",
"@  c #0C0805",
"#  c #0D0805",
"$  c #0D0905",
"%  c #0E0905",
"&  c #0F0905",
"*  c #0F0A06",
"=  c #040509",
"-  c #05060B",
";  c #07080F",
":  c #110B06",
">  c #110B07",
",  c #110C07",
"<  c #140D08",
"1  c #170E08",
"2  c #1A1009",
"3  c #1E120B",
"4  c #080A11",
"5  c #0C0E19",
"6  c #1E1514",
"7  c #21110D",
"8  c #20150D",
"9  c #23170E",
"0  c #24170E",
"q  c #26170E",
"w  c #24180F",
"e  c #27180E",
"r  c #281B10",
"t  c #2C1B10",
"y  c #2C1913",
"u  c #2B1D11",
"i  c #2F1F13",
"p  c #2D1C16",
"a  c #2D1D17",
"s  c #2A1C18",
"d  c #301E12",
"f  c #301F13",
"g  c #331F12",
"h  c #2F221C",
"j  c #342315",
"k  c #372315",
"l  c #362416",
"z  c #36261E",
"x  c #37271F",
"c  c #3C2818",
"v  c #3F2A19",
"b  c #0D1C39",
"n  c #3A2921",
"m  c #402717",
"M  c #422818",
"N  c #422A19",
"B  c #432A19",
"V  c #452B19",
"C  c #442C1A",
"Z  c #472D1B",
"A  c #492F1C",
"S  c #4B301D",
"D  c #4A311E",
"F  c #4C311D",
"G  c #4E321E",
"H  c #4E331E",
"J  c #50341F",
"K  c #473326",
"L  c #4F392B",
"P  c #513520",
"I  c #503620",
"U  c #523621",
"Y  c #533621",
"T  c #533721",
"R  c #513422",
"E  c #543721",
"W  c #543822",
"Q  c #553822",
"!  c #553922",
"~  c #563922",
"^  c #573A23",
"/  c #563825",
"(  c #593B2D",
")  c #593E2D",
"_  c #5C3E2F",
"`  c #5D4129",
"'  c #5F432B",
"]  c #4D4337",
"[  c #4C4439",
"{  c #5F4031",
"}  c #5C4435",
"|  c #50473B",
" . c #62422D",
".. c #65452D",
"X. c #66462E",
"o. c #68472F",
"O. c #694731",
"+. c #6B4933",
"@. c #614A39",
"#. c #634B39",
"$. c #674A39",
"%. c #755137",
"&. c #745038",
"*. c #755039",
"=. c #79543A",
"-. c #112853",
";. c #122955",
":. c #243552",
">. c #17366E",
",. c #1E467D",
"<. c #364D74",
"1. c #344C76",
"2. c #3C537A",
"3. c #3D547B",
"4. c #594F42",
"5. c #775540",
"6. c #7C5A45",
"7. c #815941",
"8. c #8B6147",
"9. c #8A624A",
"0. c #92674B",
"q. c #A47558",
"w. c #A7775A",
"e. c #AC7B5D",
"r. c #9D8267",
"t. c #9A8A72",
"y. c #A0896E",
"u. c #A38F76",
"i. c #AD8F73",
"p. c #A79177",
"a. c #B49477",
"s. c #B9987B",
"d. c #1D438A",
"f. c #224F95",
"g. c #2658A4",
"h. c #295EAC",
"j. c #2A60AE",
"k. c #2C64B4",
"l. c #2C65B5",
"z. c #3569B3",
"x. c #376AB2",
"c. c #787E97",
"v. c #8D7D80",
"b. c #A0988B",
"n. c #B69D81",
"m. c #BB9D80",
"M. c #A39E97",
"N. c #BDA285",
"B. c #BFA88B",
"V. c #868BA0",
"C. c #898EA3",
"Z. c #9BA0AF",
"A. c #A4A8B5",
"S. c #C1AB8E",
"D. c #C1AC8F",
"F. c None",
/* pixels */
"F.F.F.F.F.F.F.F.F.F.                                      F.F.F.F.                    F.F.F.F.F.F.F.F.F.F.F.F.F.F.F.F.F.F.F.",
"F.F.F.F.F.F.F.F.F.F.                                      F.F.F.F.                    F.F.F.F.F.F.F.F.F.F.F.F.F.F.F.F.F.F.F.",
"F.F.F.F.F.F.F.F.F.F.                                      F.F.F.F.                    F.F.F.F.F.F.F.F.F.F.F.F.F.F.F.F.F.F.F.",
"F.F.F.F.F.F.F.F.F.F.                                      F.F.F.F.                    F.F.F.F.F.F.F.F.F.F.F.F.F.F.F.F.F.F.F.",
"F.F.F.F.F.F.F.F.F.F.        @ , , , , , , , , > # # # # + F.F.F.F.* , , , , .         F.F.F.F.F.F.F.F.F.F.F.F.F.F.F.F.F.F.F.",
"F.F.F.F.F.F.F.F.F.F.        c ^ ^ ^ ^ ^ ^ ^ ^ T m m m m e         l ^ ^ ^ ^ $                           F.F.F.F.F.F.F.F.F.F.",
"F.F.F.F.F.F.F.F.F.F.        c ^ ^ ^ ^ ^ ^ ^ ^ T m m m m e         l ^ ^ ^ ^ $                           F.F.F.F.F.F.F.F.F.F.",
"F.F.F.F.F.F.F.F.F.F.        c ^ ^ ^ ^ ^ ^ ^ ^ T m m m m e         l ^ ^ ^ ^ $                           F.F.F.F.F.F.F.F.F.F.",
"F.F.F.F.F.F.F.F.F.F.        c ^ ^ ^ ^ ^ ^ ^ ^ T m m m m e         l ^ ^ ^ ^ $                           F.F.F.F.F.F.F.F.F.F.",
"F.F.F.F.F.F.F.F.F.F.        w j j j j W ^ ^ ^ Q A A A A k 2 2 2 2 v ^ ^ ^ ^ u 9 9 9 9 9 9 9 9 8 2 2 2 2 : F.F.F.F.F.F.F.F.F.",
"F.F.F.F.F.F.F.F.F.F.                  I ^ ^ ^ ^ ^ ^ ^ ^ H m m m m H ^ ^ ^ ^ ^ ^ ^ ^ ^ ^ ^ ^ ^ J m m m m 3         F.F.F.F.F.",
"F.F.F.F.F.F.F.F.F.F.                  I ^ ^ ^ ^ ^ ^ ^ ^ H m m m m H ^ ^ ^ ^ ^ ^ ^ ^ ^ ^ ^ ^ ^ J m m m m 3         F.F.F.F.F.",
"F.F.F.F.F.F.F.F.F.F.                  I ^ ^ ^ ^ ^ ^ ^ ^ H m m m m H ^ ^ ^ ^ ^ ^ ^ ^ ^ ^ ^ ^ ^ J m m m m 3         F.F.F.F.F.",
"F.F.F.F.F.F.F.F.F.F.                  I ^ ^ ^ ^ ^ ^ ^ ^ H m m m m H ^ ^ ^ ^ ^ ^ ^ ^ ^ ^ ^ ^ ^ J m m m m 3         F.F.F.F.F.",
"F.F.F.F.F.        1 q q q q f j j j j W ^ ^ ^ ^ ^ ^ ^ ^ T G G G G T ^ ^ ^ ^ ^ ^ ^ ^ ^ ^ ^ ^ ^ W G G G G 0         F.F.F.F.F.",
"F.F.F.F.F.        3 m m m m J ^ ^ ^ ^ ^ ^ ^ ^ ^ ^ ^ ^ ^ ^ ^ ^ ^ ^ ^ ^ ^ ^ ^ ^ ^ ^ ^ ^ ^ ^ ^ ^ ^ ^ ^ ^ ^ r         F.F.F.F.F.",
"F.F.F.F.F.        3 m m m m J ^ ^ ^ ^ ^ ^ ^ ^ ^ ^ ^ ^ ^ ^ ^ ^ ^ ^ ^ ^ ^ ^ ^ ^ ^ ^ ^ ^ ^ ^ ^ ^ ^ ^ ^ ^ ^ r         F.F.F.F.F.",
"F.F.F.F.F.        3 m m m m J ^ ^ ^ ^ ^ ^ ^ ^ ^ ^ ^ ^ ^ ^ ^ ^ ^ ^ ^ ^ ^ ^ ^ ^ ^ ^ ^ ^ ^ ^ ^ ^ ^ ^ ^ ^ ^ r         F.F.F.F.F.",
"F.F.F.F.F.        3 m m m m J ^ ^ ^ ^ ^ ^ ^ ^ ^ ^ ^ ^ ^ ^ ^ ^ ^ ^ ^ ^ ^ ^ ^ ^ ^ ^ ^ ^ ^ ^ ^ ^ ^ ^ ^ ^ ^ r         F.F.F.F.F.",
"        % g g g g N U U U U ~ ^ ^ ^ ^ ^ ^ ^ ^ ^ ^ ^ ^ ^ J V V V V J ^ ^ ^ ^ ^ ^ ^ ^ ^ ^ ^ ^ ^ ^ ^ ^ ^ ^ C g g g g %         ",
"        & m m m m S ^ ^ ^ ^ ^ ^ ^ ^ ^ ^ ^ ^ ^ ^ ^ ^ ^ ^ H m m m m H ^ ^ ^ ^ ^ ^ ^ ^ ^ ^ ^ ^ ^ ^ ^ ^ ^ ^ S m m m m &         ",
"        & m m m m S ^ ^ ^ ^ ^ ^ ^ ^ ^ ^ ^ ^ ^ ^ ^ ^ ^ ^ H m m m m H ^ ^ ^ ^ ^ ^ ^ ^ ^ ^ ^ ^ ^ ^ ^ ^ ^ ^ S m m m m &         ",
"        & m m m m S ^ ^ ^ ^ ^ ^ ^ ^ ^ ^ ^ ^ ^ ^ ^ ^ ^ ^ H m m m m H ^ ^ ^ ^ ^ ^ ^ ^ ^ ^ ^ ^ ^ ^ ^ ^ ^ ^ S m m m m &         ",
"        & m m m m S ^ ^ ^ ^ ^ ^ ^ ^ ^ ^ ^ ^ ^ ^ ^ ^ ^ ^ H m m m m H ^ ^ ^ ^ ^ ^ ^ ^ ^ ^ ^ ^ ^ ^ ^ ^ ^ ^ S m m m m &         ",
"        < ^ ^ ^ ^ ^ ^ ^ ^ ^ ^ ^ ^ ^ ^ M m m m m m m m m m m m m m m m m m m T ^ ^ ^ ^ ^ ^ ^ ^ ^ ^ ^ ^ ^ ^ ^ ^ ^ ^ <         ",
"        < ^ ^ ^ ^ ^ ^ ^ ^ ^ ^ ^ ^ ^ ^ M m m m m m m m m m m m m m m m m m m T ^ ^ ^ ^ ^ ^ ^ ^ ^ ^ ^ ^ ^ ^ ^ ^ ^ ^ <         ",
"        < ^ ^ ^ ^ ^ ^ ^ ^ ^ ^ ^ ^ ^ ^ M m m m m m m m m m m m m m m m m m m T ^ ^ ^ ^ ^ ^ ^ ^ ^ ^ ^ ^ ^ ^ ^ ^ ^ ^ <         ",
"        < ^ ^ ^ ^ ^ ^ ^ ^ ^ ^ ^ ^ ^ ^ M m m m m m m m m m m m m m m m m m m T ^ ^ ^ ^ ^ ^ ^ ^ ^ ^ ^ ^ ^ ^ ^ ^ ^ ^ <         ",
"        < ^ ^ ^ ^ ^ ^ ^ ^ ^ ^ ^ ^ ^ ^ M m m m B / / / / / / / / / / / / / / ..o.o.o.X.U U U U E ^ ^ ^ ^ ^ ^ ^ ^ ^ <         ",
"        < ^ ^ ^ ^ ^ ^ ^ ^ ^ ^ ^ ^ ^ ^ M m m m R e.e.e.e.e.e.e.e.e.e.e.e.e.e.e.e.e.e.q.m m m m Z ^ ^ ^ ^ ^ ^ ^ ^ ^ <         ",
"        < ^ ^ ^ ^ ^ ^ ^ ^ ^ ^ ^ ^ ^ ^ M m m m R e.e.e.e.e.e.e.e.e.e.e.e.e.e.e.e.e.e.q.m m m m Z ^ ^ ^ ^ ^ ^ ^ ^ ^ <         ",
"        < ^ ^ ^ ^ ^ ^ ^ ^ ^ ^ ^ ^ ^ ^ M m m m R e.e.e.e.e.e.e.e.e.e.e.e.e.e.e.e.e.e.q.m m m m Z ^ ^ ^ ^ ^ ^ ^ ^ ^ <         ",
"        < ^ ^ ^ ^ ^ ^ ^ ^ ^ ^ ^ ^ ^ ^ M m m m R e.e.e.e.e.e.e.e.e.e.e.e.e.e.e.e.e.e.q.m m m m Z ^ ^ ^ ^ ^ ^ ^ ^ ^ <         ",
"        < ^ ^ ^ ^ ^ ^ ^ ^ ^ P G G G G O.+.+.+.*.e.e.e.e.e.e.e.e.e.e.e.e.e.e.e.e.e.e.w.+.+.+.+. .G G G G Y ^ ^ ^ ^ <         ",
"        < ^ ^ ^ ^ ^ ^ ^ ^ ^ Z m m m m q.e.e.e.e.e.e.e.e.e.e.e.e.e.e.e.e.e.e.e.e.e.e.e.e.e.e.e.8.m m m m F ^ ^ ^ ^ <         ",
"        < ^ ^ ^ ^ ^ ^ ^ ^ ^ Z m m m m q.e.e.e.e.e.e.e.e.e.e.e.e.e.e.e.e.e.e.e.e.e.e.e.e.e.e.e.8.m m m m F ^ ^ ^ ^ <         ",
"        < ^ ^ ^ ^ ^ ^ ^ ^ ^ Z m m m m q.e.e.e.e.e.e.e.e.e.e.e.e.e.e.e.e.e.e.e.e.e.e.e.e.e.e.e.8.m m m m F ^ ^ ^ ^ <         ",
"        < ^ ^ ^ ^ ^ ^ ^ ^ ^ Z m m m m q.e.e.e.e.e.e.e.e.e.e.e.e.e.e.e.e.e.e.e.e.e.e.e.e.e.e.e.8.m m m m F ^ ^ ^ ^ <         ",
"        : A A A A J ^ ^ ^ ^ &.7.7.7.7._ ( ( ( $.s.s.s.s.s.s.s.s.s.s.s.s.s.s.$.( ( ( { e.e.e.e.8.m m m m d 9 9 9 9 * F.F.F.F.",
"        & m m m m S ^ ^ ^ ^ 0.e.e.e.e.y 7 7 7 n D.D.D.D.D.D.D.D.D.D.D.D.D.D.n 7 7 7 y e.e.e.e.8.m m m m 3         F.F.F.F.F.",
"        & m m m m S ^ ^ ^ ^ 0.e.e.e.e.y 7 7 7 n D.D.D.D.D.D.D.D.D.D.D.D.D.D.n 7 7 7 y e.e.e.e.8.m m m m 3         F.F.F.F.F.",
"        & m m m m S ^ ^ ^ ^ 0.e.e.e.e.y 7 7 7 n D.D.D.D.D.D.D.D.D.D.D.D.D.D.n 7 7 7 y e.e.e.e.8.m m m m 3         F.F.F.F.F.",
"        & m m m m S ^ ^ ^ ^ 0.e.e.e.e.y 7 7 7 n D.D.D.D.D.D.D.D.D.D.D.D.D.D.n 7 7 7 y e.e.e.e.8.m m m m 3         F.F.F.F.F.",
"F.F.F.F.F.# # # # i ^ ^ ^ ^ r.N.N.N.N.p 7 7 7 n D.D.D.D.D.D.D.D.D.D.D.D.D.D.n 7 7 7 p N.N.N.N.n.p.p.p.p.]         F.F.F.F.F.",
"F.F.F.F.F.        r ^ ^ ^ ^ y.D.D.D.D.a 7 7 7 n D.D.D.D.D.D.D.D.D.D.D.D.D.D.n 7 7 7 a D.D.D.D.D.D.D.D.D.4.        F.F.F.F.F.",
"F.F.F.F.F.        r ^ ^ ^ ^ y.D.D.D.D.a 7 7 7 n D.D.D.D.D.D.D.D.D.D.D.D.D.D.n 7 7 7 a D.D.D.D.D.D.D.D.D.4.        F.F.F.F.F.",
"F.F.F.F.F.        r ^ ^ ^ ^ y.D.D.D.D.a 7 7 7 n D.D.D.D.D.D.D.D.D.D.D.D.D.D.n 7 7 7 a D.D.D.D.D.D.D.D.D.4.        F.F.F.F.F.",
"F.F.F.F.F.        r ^ ^ ^ ^ y.D.D.D.D.a 7 7 7 n D.D.D.D.D.D.D.D.D.D.D.D.D.D.n 7 7 7 a D.D.D.D.D.D.D.D.D.4.        F.F.F.F.F.",
"F.F.F.F.F.        L e.e.e.e.m.D.D.D.D.D.D.D.D.D.D.D.D.D.D.D.D.D.D.D.D.D.D.D.D.D.D.D.D.D.D.D.D.m.e.e.e.e.L         F.F.F.F.F.",
"F.F.F.F.F.        L e.e.e.e.m.D.D.D.D.D.D.D.D.D.D.D.D.D.D.D.D.D.D.D.D.D.D.D.D.D.D.D.D.D.D.D.D.m.e.e.e.e.L         F.F.F.F.F.",
"F.F.F.F.F.        L e.e.e.e.m.D.D.D.D.D.D.D.D.D.D.D.D.D.D.D.D.D.D.D.D.D.D.D.D.D.D.D.D.D.D.D.D.m.e.e.e.e.L         F.F.F.F.F.",
"F.F.F.F.F.        L e.e.e.e.m.D.D.D.D.D.D.D.D.D.D.D.D.D.D.D.D.D.D.D.D.D.D.D.D.D.D.D.D.D.D.D.D.m.e.e.e.e.L         F.F.F.F.F.",
"F.F.F.F.F.        K 9.9.9.9.i.N.N.N.N.S.D.D.D.D.D.D.D.D.D.D.D.D.D.D.D.D.D.D.D.D.D.D.S.N.N.N.N.i.9.9.9.9.K         F.F.F.F.F.",
"F.F.F.F.F.F.F.F.F.F.        5.e.e.e.e.B.D.D.D.D.D.D.D.D.D.D.D.D.D.D.D.D.D.D.D.D.D.D.B.e.e.e.e.5.        F.F.F.F.F.F.F.F.F.F.",
"F.F.F.F.F.F.F.F.F.F.        5.e.e.e.e.B.D.D.D.D.D.D.D.D.D.D.D.D.D.D.D.D.D.D.D.D.D.D.B.e.e.e.e.5.        F.F.F.F.F.F.F.F.F.F.",
"F.F.F.F.F.F.F.F.F.F.        5.e.e.e.e.B.D.D.D.D.D.D.D.D.D.D.D.D.D.D.D.D.D.D.D.D.D.D.B.e.e.e.e.5.        F.F.F.F.F.F.F.F.F.F.",
"F.F.F.F.F.F.F.F.F.F.        5.e.e.e.e.B.D.D.D.D.D.D.D.D.D.D.D.D.D.D.D.D.D.D.D.D.D.D.B.e.e.e.e.5.        F.F.F.F.F.F.F.F.F.F.",
"F.F.F.F.F.F.F.F.F.F.        ) 7.7.7.7.a.s.s.s.s.s.s.s.s.s.s.s.s.s.s.s.s.s.s.s.s.s.s.a.7.7.7.7.)         F.F.F.F.F.F.F.F.F.F.",
"F.F.F.F.F.F.F.F.F.F.        t m m m m q.e.e.e.e.e.e.e.e.e.e.e.e.e.e.e.e.e.e.e.e.e.e.q.m m m m t         F.F.F.F.F.F.F.F.F.F.",
"F.F.F.F.F.F.F.F.F.F.        t m m m m q.e.e.e.e.e.e.e.e.e.e.e.e.e.e.e.e.e.e.e.e.e.e.q.m m m m t         F.F.F.F.F.F.F.F.F.F.",
"F.F.F.F.F.F.F.F.F.F.        t m m m m q.e.e.e.e.e.e.e.e.e.e.e.e.e.e.e.e.e.e.e.e.e.e.q.m m m m t         F.F.F.F.F.F.F.F.F.F.",
"F.F.F.F.F.F.F.F.F.F.        t m m m m q.e.e.e.e.e.e.e.e.e.e.e.e.e.e.e.e.e.e.e.e.e.e.q.m m m m t         F.F.F.F.F.F.F.F.F.F.",
"F.F.F.F.F.F.F.F.F.F.        t m m m m %.=.=.=.6.v.v.v.v.v.v.v.v.v.v.v.v.v.v.6.=.=.=.%.m m m m t         F.F.F.F.F.F.F.F.F.F.",
"F.F.F.F.F.F.F.F.F.F.        t m m m m ! ^ ^ ^ } c.c.c.c.c.c.c.c.c.c.c.c.c.c.} ^ ^ ^ ! m m m m t         F.F.F.F.F.F.F.F.F.F.",
"F.F.F.F.F.F.F.F.F.F.        t m m m m ! ^ ^ ^ } c.c.c.c.c.c.c.c.c.c.c.c.c.c.} ^ ^ ^ ! m m m m t         F.F.F.F.F.F.F.F.F.F.",
"F.F.F.F.F.F.F.F.F.F.        t m m m m ! ^ ^ ^ } c.c.c.c.c.c.c.c.c.c.c.c.c.c.} ^ ^ ^ ! m m m m t         F.F.F.F.F.F.F.F.F.F.",
"F.F.F.F.F.F.F.F.F.F.        t m m m m ! ^ ^ ^ } c.c.c.c.c.c.c.c.c.c.c.c.c.c.} ^ ^ ^ ! m m m m t         F.F.F.F.F.F.F.F.F.F.",
"F.F.F.F.F.        | t.t.t.t.u.p.p.p.p.` ^ ^ ^ } c.c.c.c.V.Z.Z.Z.Z.Z.Z.Z.Z.Z.@.^ ^ ^ ` p.p.p.p.u.t.t.t.t.|         F.F.F.F.F.",
"F.F.F.F.F.        4.D.D.D.D.D.D.D.D.D.' ^ ^ ^ } c.c.c.c.C.A.A.A.A.A.A.A.A.A.#.^ ^ ^ ' D.D.D.D.D.D.D.D.D.4.        F.F.F.F.F.",
"F.F.F.F.F.        4.D.D.D.D.D.D.D.D.D.' ^ ^ ^ } c.c.c.c.C.A.A.A.A.A.A.A.A.A.#.^ ^ ^ ' D.D.D.D.D.D.D.D.D.4.        F.F.F.F.F.",
"F.F.F.F.F.        4.D.D.D.D.D.D.D.D.D.' ^ ^ ^ } c.c.c.c.C.A.A.A.A.A.A.A.A.A.#.^ ^ ^ ' D.D.D.D.D.D.D.D.D.4.        F.F.F.F.F.",
"F.F.F.F.F.        4.D.D.D.D.D.D.D.D.D.' ^ ^ ^ } c.c.c.c.C.A.A.A.A.A.A.A.A.A.#.^ ^ ^ ' D.D.D.D.D.D.D.D.D.4.        F.F.F.F.F.",
"F.F.F.F.F.        4.D.D.D.D.D.D.D.D.D.x.l.l.l.l.l.l.l.l.g.d.d.d.d.g.l.l.l.l.l.l.l.l.x.D.D.D.D.D.D.D.D.D.4.        F.F.F.F.F.",
"F.F.F.F.F.        4.D.D.D.D.D.D.D.D.D.x.l.l.l.l.l.l.l.l.g.d.d.d.d.g.l.l.l.l.l.l.l.l.x.D.D.D.D.D.D.D.D.D.4.        F.F.F.F.F.",
"F.F.F.F.F.        4.D.D.D.D.D.D.D.D.D.x.l.l.l.l.l.l.l.l.g.d.d.d.d.g.l.l.l.l.l.l.l.l.x.D.D.D.D.D.D.D.D.D.4.        F.F.F.F.F.",
"F.F.F.F.F.        4.D.D.D.D.D.D.D.D.D.x.l.l.l.l.l.l.l.l.g.d.d.d.d.g.l.l.l.l.l.l.l.l.x.D.D.D.D.D.D.D.D.D.4.        F.F.F.F.F.",
"F.F.F.F.F.X X X X [ t.t.t.t.b.M.M.M.M.z.l.l.l.k.h.h.h.h.f.>.>.>.>.f.h.h.h.h.k.l.l.l.z.M.M.M.M.b.t.t.t.t.[ X X X X F.F.F.F.F.",
"F.F.F.F.F.5 5 5 5 =         ,.l.l.l.l.l.l.l.l.j.d.d.d.d.;.        ;.d.d.d.d.j.l.l.l.l.l.l.l.l.,.        = 5 5 5 5 F.F.F.F.F.",
"F.F.F.F.F.5 5 5 5 =         ,.l.l.l.l.l.l.l.l.j.d.d.d.d.;.        ;.d.d.d.d.j.l.l.l.l.l.l.l.l.,.        = 5 5 5 5 F.F.F.F.F.",
"F.F.F.F.F.5 5 5 5 =         ,.l.l.l.l.l.l.l.l.j.d.d.d.d.;.        ;.d.d.d.d.j.l.l.l.l.l.l.l.l.,.        = 5 5 5 5 F.F.F.F.F.",
"F.F.F.F.F.5 5 5 5 =         ,.l.l.l.l.l.l.l.l.j.d.d.d.d.;.        ;.d.d.d.d.j.l.l.l.l.l.l.l.l.,.        = 5 5 5 5 F.F.F.F.F.",
"F.F.F.F.F.5 5 5 5 =         :.1.1.1.1.2.3.3.3.<.-.-.-.-.b O O O O b -.-.-.-.<.3.3.3.2.1.1.1.1.:.        = 5 5 5 5 F.F.F.F.F.",
"5 5 5 5 5 5 5 5 5 =         t m m m m ! ^ ^ ^ D         o 5 5 5 5 o         D ^ ^ ^ ! m m m m t         = 5 5 5 5 5 5 5 5 5 ",
"5 5 5 5 5 5 5 5 5 =         t m m m m ! ^ ^ ^ D         o 5 5 5 5 o         D ^ ^ ^ ! m m m m t         = 5 5 5 5 5 5 5 5 5 ",
"5 5 5 5 5 5 5 5 5 =         t m m m m ! ^ ^ ^ D         o 5 5 5 5 o         D ^ ^ ^ ! m m m m t         = 5 5 5 5 5 5 5 5 5 ",
"5 5 5 5 5 5 5 5 5 =         t m m m m ! ^ ^ ^ D         o 5 5 5 5 o         D ^ ^ ^ ! m m m m t         = 5 5 5 5 5 5 5 5 5 ",
"5 5 5 5 5 5 5 5 5 4 - - - - 6 s s s s z x x x h - - - - ; 5 5 5 5 ; - - - - h x x x z s s s s 6 - - - - 4 5 5 5 5 5 5 5 5 5 ",
"5 5 5 5 5 5 5 5 5 5 5 5 5 5 5 5 5 5 5 5 5 5 5 5 5 5 5 5 5 5 5 5 5 5 5 5 5 5 5 5 5 5 5 5 5 5 5 5 5 5 5 5 5 5 5 5 5 5 5 5 5 5 ",
"5 5 5 5 5 5 5 5 5 5 5 5 5 5 5 5 5 5 5 5 5 5 5 5 5 5 5 5 5 5 5 5 5 5 5 5 5 5 5 5 5 5 5 5 5 5 5 5 5 5 5 5 5 5 5 5 5 5 5 5 5 5 ",
"5 5 5 5 5 5 5 5 5 5 5 5 5 5 5 5 5 5 5 5 5 5 5 5 5 5 5 5 5 5 5 5 5 5 5 5 5 5 5 5 5 5 5 5 5 5 5 5 5 5 5 5 5 5 5 5 5 5 5 5 5 5 ",
"5 5 5 5 5 5 5 5 5 5 5 5 5 5 5 5 5 5 5 5 5 5 5 5 5 5 5 5 5 5 5 5 5 5 5 5 5 5 5 5 5 5 5 5 5 5 5 5 5 5 5 5 5 5 5 5 5 5 5 5 5 5 ",
"F.F.F.F.F.5 5 5 5 5 5 5 5 5 5 5 5 5 5 5 5 5 5 5 5 5 5 5 5 5 5 5 5 5 5 5 5 5 5 5 5 5 5 5 5 5 5 5 5 5 5 5 5 5 5 5 5 F.F.F.F.F.",
"F.F.F.F.F.5 5 5 5 5 5 5 5 5 5 5 5 5 5 5 5 5 5 5 5 5 5 5 5 5 5 5 5 5 5 5 5 5 5 5 5 5 5 5 5 5 5 5 5 5 5 5 5 5 5 5 5 F.F.F.F.F.",
"F.F.F.F.F.5 5 5 5 5 5 5 5 5 5 5 5 5 5 5 5 5 5 5 5 5 5 5 5 5 5 5 5 5 5 5 5 5 5 5 5 5 5 5 5 5 5 5 5 5 5 5 5 5 5 5 5 F.F.F.F.F.",
"F.F.F.F.F.5 5 5 5 5 5 5 5 5 5 5 5 5 5 5 5 5 5 5 5 5 5 5 5 5 5 5 5 5 5 5 5 5 5 5 5 5 5 5 5 5 5 5 5 5 5 5 5 5 5 5 5 F.F.F.F.F.",
"F.F.F.F.F.5 5 5 5 5 5 5 5 5 5 5 5 5 5 5 5 5 5 5 5 5 5 5 5 5 5 5 5 5 5 5 5 5 5 5 5 5 5 5 5 5 5 5 5 5 5 5 5 5 5 5 5 F.F.F.F.F."
};
