/* XPM */
static char *PIS3[] = {
/* columns rows colors chars-per-pixel */
"59 96 180 2 ",
"   c black",
".  c #000101",
"X  c #010102",
"o  c #010203",
"O  c #050302",
"+  c #020204",
"@  c #080503",
"#  c #090603",
"$  c #0B0704",
"%  c #0B0805",
"&  c #0C0805",
"*  c #0F0905",
"=  c #0E0A06",
"-  c #0F0A06",
";  c #07080E",
":  c #120B06",
">  c #120B07",
",  c #140D08",
"<  c #150D08",
"1  c #190F09",
"2  c #180F0A",
"3  c #19110A",
"4  c #1B110A",
"5  c #1B120B",
"6  c #1E120B",
"7  c #1F130B",
"8  c #1E140C",
"9  c #070B16",
"0  c #080910",
"q  c #080911",
"w  c #0C0E19",
"e  c #16161A",
"r  c #21110D",
"t  c #21160D",
"y  c #22160D",
"u  c #24170E",
"i  c #25190F",
"p  c #281B10",
"a  c #2E1C10",
"s  c #331F12",
"d  c #322114",
"f  c #372114",
"g  c #3B2415",
"h  c #3C2517",
"j  c #3E2617",
"k  c #3E2717",
"l  c #3F2717",
"z  c #30221A",
"x  c #31231B",
"c  c #362119",
"v  c #392618",
"b  c #3C2818",
"n  c #3E2818",
"m  c #070F20",
"M  c #081327",
"N  c #392820",
"B  c #3A2921",
"V  c #3C2B20",
"C  c #402717",
"Z  c #412918",
"A  c #422818",
"S  c #432A19",
"D  c #442A19",
"F  c #452B19",
"G  c #452B1A",
"H  c #472C1A",
"J  c #492E1C",
"K  c #4A2F1C",
"L  c #4A301C",
"P  c #4A311E",
"I  c #4B321E",
"U  c #4C321E",
"Y  c #4D321E",
"T  c #4E331E",
"R  c #4D341F",
"E  c #50341F",
"W  c #422F24",
"Q  c #4E3420",
"!  c #4E3421",
"~  c #503520",
"^  c #503620",
"/  c #513621",
"(  c #523620",
")  c #533721",
"_  c #513722",
"`  c #533623",
"'  c #543721",
"]  c #543822",
"[  c #553922",
"{  c #563922",
"}  c #563923",
"|  c #573A23",
" . c #4F3D32",
".. c #5E422A",
"X. c #524135",
"o. c #50473B",
"O. c #534A3D",
"+. c #60412A",
"@. c #61412D",
"#. c #674730",
"$. c #6A4732",
"%. c #674C34",
"&. c #6E4B35",
"*. c #6F4D34",
"=. c #634A3A",
"-. c #724F36",
";. c #704D3A",
":. c #704E3B",
">. c #785339",
",. c #7B563C",
"<. c #7E573F",
"1. c #7E583E",
"2. c #112746",
"3. c #363741",
"4. c #3A3944",
"5. c #153063",
"6. c #193A73",
"7. c #48444B",
"8. c #4B464D",
"9. c #574C4B",
"0. c #4A4750",
"q. c #5F5350",
"w. c #604E40",
"e. c #614F47",
"r. c #665645",
"t. c #7A5540",
"y. c #725F4F",
"u. c #6F5C50",
"i. c #7F634A",
"p. c #855D43",
"a. c #885F44",
"s. c #86624C",
"d. c #80664D",
"f. c #816250",
"g. c #846B51",
"h. c #9B6E52",
"j. c #9D6F53",
"k. c #8F7157",
"l. c #9F7256",
"z. c #AC7B5D",
"x. c #817360",
"c. c #8A7B66",
"v. c #8E7D7E",
"b. c #8F867A",
"n. c #B2896B",
"m. c #A18D74",
"M. c #B48E70",
"N. c #AD9277",
"B. c #AF997E",
"V. c #B59072",
"C. c #1D438A",
"Z. c #1F4890",
"A. c #204B94",
"S. c #224F99",
"D. c #275BA8",
"F. c #285BA9",
"G. c #325FA0",
"H. c #3061A7",
"J. c #2B62B1",
"K. c #2C65B5",
"L. c #3C6DB1",
"P. c #486B9E",
"I. c #787E97",
"U. c #4370AF",
"Y. c #5773A4",
"T. c #6B86B1",
"R. c #718BB5",
"E. c #96989A",
"W. c #B59E82",
"Q. c #B29F84",
"!. c #B99D80",
"~. c #BB9E81",
"^. c #BDA386",
"/. c #BEA487",
"(. c #BEA588",
"). c #BFA78A",
"_. c #9A9EAE",
"`. c #A4A8B5",
"'. c #C1AC8F",
"]. c None",
/* pixels */
"].].].].].].].].].                                    ].].].].].                  ].].].].].].].].].].].].].].].].].].",
"].].].].].].].].].                                    ].].].].].                  ].].].].].].].].].].].].].].].].].].",
"].].].].].].].].].                                    ].].].].].                  ].].].].].].].].].].].].].].].].].].",
"].].].].].].].].].                                    ].].].].].                  ].].].].].].].].].].].].].].].].].].",
"].].].].].].].].].        = i i i i i i i i y 4 4 4 4 $ ].].].- i i i i %         ].].].].].].].].].].].].].].].].].].",
"].].].].].].].].].        t | | | | | | | | E C C C C *       , | | | | 5                           ].].].].].].].].].",
"].].].].].].].].].        t | | | | | | | | E C C C C *       , | | | | 5                           ].].].].].].].].].",
"].].].].].].].].].        t | | | | | | | | E C C C C *       , | | | | 5                           ].].].].].].].].].",
"].].].].].].].].].        t | | | | | | | | E C C C C *       , | | | | 5                           ].].].].].].].].].",
"].].].].].].].].].        O & & & & U | | | { ' ' ' ' j f f f k | | | | Q I I I I I I I I n f f f s         ].].].].].",
"].].].].].].].].].                  P | | | | | | | | G C C C G | | | | | | | | | | | | | J C C C g         ].].].].].",
"].].].].].].].].].                  P | | | | | | | | G C C C G | | | | | | | | | | | | | J C C C g         ].].].].].",
"].].].].].].].].].                  P | | | | | | | | G C C C G | | | | | | | | | | | | | J C C C g         ].].].].].",
"].].].].].].].].].: > > > < 3 3 3 3 R | | | | | | | | L H H H L | | | | | | | | | | | | | Y H H H Z         ].].].].].",
"].].].].].        g C C C J | | | | | | | | | | | | | | | | | | | | | | | | | | | | | | | | | | | ^         ].].].].].",
"].].].].].        g C C C J | | | | | | | | | | | | | | | | | | | | | | | | | | | | | | | | | | | ^         ].].].].].",
"].].].].].        g C C C J | | | | | | | | | | | | | | | | | | | | | | | | | | | | | | | | | | | ^         ].].].].].",
"].].].].].        g C C C J | | | | | | | | | | | | | | | | | | | | | | | | | | | | | | | | | | | ^         ].].].].].",
"        1 a a a a T ~ ~ ~ ) | | | | | | | | | | | | | L H H H L | | | | | | | | | | | | | | | | | ] a a a a 1         ",
"        6 C C C C [ | | | | | | | | | | | | | | | | | G C C C G | | | | | | | | | | | | | | | | | [ C C C C 6         ",
"        6 C C C C [ | | | | | | | | | | | | | | | | | G C C C G | | | | | | | | | | | | | | | | | [ C C C C 6         ",
"        6 C C C C [ | | | | | | | | | | | | | | | | | G C C C G | | | | | | | | | | | | | | | | | [ C C C C 6         ",
"        7 S S S S [ | | | | | | | | ] ' ' ' ' ' ' ' ' F C C C F ' ' ' ' { | | | | | | | | | | | | [ S S S S 7         ",
"        p | | | | | | | | | | | | | D C C C C C C C C C C C C C C C C C E | | | | | | | | | | | | | | | | | p         ",
"        p | | | | | | | | | | | | | D C C C C C C C C C C C C C C C C C E | | | | | | | | | | | | | | | | | p         ",
"        p | | | | | | | | | | | | | D C C C C C C C C C C C C C C C C C E | | | | | | | | | | | | | | | | | p         ",
"        p | | | | | | | | | | | | | D C C C C C C C C C C C C C C C C C E | | | | | | | | | | | | | | | | | p         ",
"        p | | | | | | | | | | | | | D C C C ` <.<.<.<.<.<.<.<.<.<.<.<.<.p.a.a.a.1.K K K K ( | | | | | | | | p         ",
"        p | | | | | | | | | | | | | D C C C @.z.z.z.z.z.z.z.z.z.z.z.z.z.z.z.z.z.h.C C C C T | | | | | | | | p         ",
"        p | | | | | | | | | | | | | D C C C @.z.z.z.z.z.z.z.z.z.z.z.z.z.z.z.z.z.h.C C C C T | | | | | | | | p         ",
"        p | | | | | | | | | | | | | D C C C @.z.z.z.z.z.z.z.z.z.z.z.z.z.z.z.z.z.h.C C C C T | | | | | | | | p         ",
"        p | | | | | | | | | | | | | D C C C @.z.z.z.z.z.z.z.z.z.z.z.z.z.z.z.z.z.h.C C C C T | | | | | | | | p         ",
"        p | | | | | | | | T C C C C h.z.z.z.z.z.z.z.z.z.z.z.z.z.z.z.z.z.z.z.z.z.z.z.z.z.z.$.C C C A | | | | p         ",
"        p | | | | | | | | T C C C C h.z.z.z.z.z.z.z.z.z.z.z.z.z.z.z.z.z.z.z.z.z.z.z.z.z.z.$.C C C A | | | | p         ",
"        p | | | | | | | | T C C C C h.z.z.z.z.z.z.z.z.z.z.z.z.z.z.z.z.z.z.z.z.z.z.z.z.z.z.$.C C C A | | | | p         ",
"        p | | | | | | | | T C C C C h.z.z.z.z.z.z.z.z.z.z.z.z.z.z.z.z.z.z.z.z.z.z.z.z.z.z.$.C C C A | | | | p         ",
"        u Y Y Y Y } | | | +.&.&.&.&.;.:.:.:.s.V.V.V.V.V.V.V.V.V.V.V.V.V.s.:.:.:.t.z.z.z.z.$.C C C l d d d d 8         ",
"        6 C C C C [ | | | >.z.z.z.z.c r r r X.'.'.'.'.'.'.'.'.'.'.'.'.'.X.r r r c z.z.z.z.$.C C C g         ].].].].].",
"        6 C C C C [ | | | >.z.z.z.z.c r r r X.'.'.'.'.'.'.'.'.'.'.'.'.'.X.r r r c z.z.z.z.$.C C C g         ].].].].].",
"        6 C C C C [ | | | >.z.z.z.z.c r r r X.'.'.'.'.'.'.'.'.'.'.'.'.'.X.r r r c z.z.z.z.$.C C C g         ].].].].].",
"        6 C C C C [ | | | >.z.z.z.z.c r r r X.'.'.'.'.'.'.'.'.'.'.'.'.'.X.r r r c z.z.z.z.$.C C C g         ].].].].].",
"].].].].@ # # # # / | | | i.(.(.(.(.N r r r X.'.'.'.'.'.'.'.'.'.'.'.'.'.X.r r r N (.(.(.(.W.B.B.B.m.        ].].].].].",
"].].].].].        ^ | | | d.'.'.'.'.B r r r X.'.'.'.'.'.'.'.'.'.'.'.'.'.X.r r r B '.'.'.'.'.'.'.'.Q.        ].].].].].",
"].].].].].        ^ | | | d.'.'.'.'.B r r r X.'.'.'.'.'.'.'.'.'.'.'.'.'.X.r r r B '.'.'.'.'.'.'.'.Q.        ].].].].].",
"].].].].].        ^ | | | d.'.'.'.'.B r r r X.'.'.'.'.'.'.'.'.'.'.'.'.'.X.r r r B '.'.'.'.'.'.'.'.Q.        ].].].].].",
"].].].].].        #.*.*.*.k.'.'.'.'.w. . . .y.'.'.'.'.'.'.'.'.'.'.'.'.'.y. . . .w.'.'.'.'.^.~.~.~.N.        ].].].].].",
"].].].].].        l.z.z.z.M.'.'.'.'.'.'.'.'.'.'.'.'.'.'.'.'.'.'.'.'.'.'.'.'.'.'.'.'.'.'.'.M.z.z.z.l.        ].].].].].",
"].].].].].        l.z.z.z.M.'.'.'.'.'.'.'.'.'.'.'.'.'.'.'.'.'.'.'.'.'.'.'.'.'.'.'.'.'.'.'.M.z.z.z.l.        ].].].].].",
"].].].].].        l.z.z.z.M.'.'.'.'.'.'.'.'.'.'.'.'.'.'.'.'.'.'.'.'.'.'.'.'.'.'.'.'.'.'.'.M.z.z.z.l.        ].].].].].",
"].].].].].        l.z.z.z.M.'.'.'.'.'.'.'.'.'.'.'.'.'.'.'.'.'.'.'.'.'.'.'.'.'.'.'.'.'.'.'.M.z.z.z.l.        ].].].].].",
"].].].].].].].].].z x x x =.n.n.n.n.).'.'.'.'.'.'.'.'.'.'.'.'.'.'.'.'.'.'.'.'.'.).n.n.n.n.=.x x x z ].].].].].].].].].",
"].].].].].].].].].        W z.z.z.z./.'.'.'.'.'.'.'.'.'.'.'.'.'.'.'.'.'.'.'.'.'./.z.z.z.z.W         ].].].].].].].].].",
"].].].].].].].].].        W z.z.z.z./.'.'.'.'.'.'.'.'.'.'.'.'.'.'.'.'.'.'.'.'.'./.z.z.z.z.W         ].].].].].].].].].",
"].].].].].].].].].        W z.z.z.z./.'.'.'.'.'.'.'.'.'.'.'.'.'.'.'.'.'.'.'.'.'./.z.z.z.z.W         ].].].].].].].].].",
"].].].].].].].].].        V j.j.j.j.!.(.(.(.(.(.(.(.(.(.(.(.(.(.(.(.(.(.(.(.(.(.!.j.j.j.j.V         ].].].].].].].].].",
"].].].].].].].].].        1 C C C C h.z.z.z.z.z.z.z.z.z.z.z.z.z.z.z.z.z.z.z.z.z.h.C C C C 1         ].].].].].].].].].",
"].].].].].].].].].        1 C C C C h.z.z.z.z.z.z.z.z.z.z.z.z.z.z.z.z.z.z.z.z.z.h.C C C C 1         ].].].].].].].].].",
"].].].].].].].].].        1 C C C C h.z.z.z.z.z.z.z.z.z.z.z.z.z.z.z.z.z.z.z.z.z.h.C C C C 1         ].].].].].].].].].",
"].].].].].].].].].        1 C C C C h.z.z.z.z.z.z.z.z.z.z.z.z.z.z.z.z.z.z.z.z.z.h.C C C C 1         ].].].].].].].].].",
"].].].].].].].].].        1 C C C C -.,.,.,.f.v.v.v.v.v.v.v.v.v.v.v.v.v.f.,.,.,.-.C C C C 1         ].].].].].].].].].",
"].].].].].].].].].        1 C C C C ) | | | e.I.I.I.I.I.I.I.I.I.I.I.I.I.e.| | | ) C C C C 1         ].].].].].].].].].",
"].].].].].].].].].        1 C C C C ) | | | e.I.I.I.I.I.I.I.I.I.I.I.I.I.e.| | | ) C C C C 1         ].].].].].].].].].",
"].].].].].].].].].        1 C C C C ) | | | e.I.I.I.I.I.I.I.I.I.I.I.I.I.e.| | | ) C C C C 1         ].].].].].].].].].",
"].].].].].].].].].        1 C C C C ) | | | e.I.I.I.I.I.I.I.I.I.I.I.I.I.e.| | | ) C C C C 1         ].].].].].].].].].",
"].].].].].].].].].        t | | | | | | | | e.I.I.I.I._.`.`.`.`.`.`.`.`.u.| | | | | | | | t         ].].].].].].].].].",
"].].].].].].].].].        t | | | | | | | | e.I.I.I.I._.`.`.`.`.`.`.`.`.u.| | | | | | | | t         ].].].].].].].].].",
"].].].].].].].].].        t | | | | | | | | e.I.I.I.I._.`.`.`.`.`.`.`.`.u.| | | | | | | | t         ].].].].].].].].].",
"].].].].].].].].].        t | | | | | | | | e.I.I.I.I._.`.`.`.`.`.`.`.`.u.| | | | | | | | t         ].].].].].].].].].",
"].].].].].].].].].o.O.O.O.r.g.g.g.g...| | | 9.Y.Y.Y.Y.T.R.R.R.R.R.R.R.R.q.| | | ..g.g.g.g.r.O.O.O.o.].].].].].].].].].",
"].].].].].        Q.'.'.'.'.'.'.'.'.%.| | | 0.K.K.K.K.K.K.K.K.K.K.K.K.K.0.| | | %.'.'.'.'.'.'.'.'.Q.        ].].].].].",
"].].].].].        Q.'.'.'.'.'.'.'.'.%.| | | 0.K.K.K.K.K.K.K.K.K.K.K.K.K.0.| | | %.'.'.'.'.'.'.'.'.Q.        ].].].].].",
"].].].].].        Q.'.'.'.'.'.'.'.'.%.| | | 0.K.K.K.K.K.K.K.K.K.K.K.K.K.0.| | | %.'.'.'.'.'.'.'.'.Q.        ].].].].].",
"].].].].].        Q.'.'.'.'.'.'.'.'.%.| | | 0.K.K.K.K.K.K.K.K.K.K.K.K.K.0.| | | %.'.'.'.'.'.'.'.'.Q.        ].].].].].",
"].].].].].        Q.'.'.'.'.'.'.'.'.P.G.G.G.H.K.K.K.K.S.Z.Z.Z.S.K.K.K.K.H.G.G.G.P.'.'.'.'.'.'.'.'.Q.        ].].].].].",
"].].].].].        Q.'.'.'.'.'.'.'.'.U.K.K.K.K.K.K.K.K.A.C.C.C.A.K.K.K.K.K.K.K.K.U.'.'.'.'.'.'.'.'.Q.        ].].].].].",
"].].].].].        Q.'.'.'.'.'.'.'.'.U.K.K.K.K.K.K.K.K.A.C.C.C.A.K.K.K.K.K.K.K.K.U.'.'.'.'.'.'.'.'.Q.        ].].].].].",
"].].].].].        Q.'.'.'.'.'.'.'.'.U.K.K.K.K.K.K.K.K.A.C.C.C.A.K.K.K.K.K.K.K.K.U.'.'.'.'.'.'.'.'.Q.        ].].].].].",
"].].].].].+ + + + x.c.c.c.b.E.E.E.E.L.K.K.K.J.F.F.F.F.6.5.5.5.6.F.F.F.F.J.K.K.K.L.E.E.E.E.b.c.c.c.x.+ + + + ].].].].].",
"].].].].].w w w w .       2.K.K.K.K.K.K.K.K.D.C.C.C.C.m       m C.C.C.C.D.K.K.K.K.K.K.K.K.2.      . w w w w ].].].].].",
"].].].].].w w w w .       2.K.K.K.K.K.K.K.K.D.C.C.C.C.m       m C.C.C.C.D.K.K.K.K.K.K.K.K.2.      . w w w w ].].].].].",
"].].].].].w w w w .       2.K.K.K.K.K.K.K.K.D.C.C.C.C.m       m C.C.C.C.D.K.K.K.K.K.K.K.K.2.      . w w w w ].].].].].",
"].].].].].w w w w .       2.K.K.K.K.K.K.K.K.D.C.C.C.C.m       m C.C.C.C.D.K.K.K.K.K.K.K.K.2.      . w w w w ].].].].].",
"].].].].].w w w w .       e 4.4.4.4.7.8.8.8.3.M M M M 9 ; ; ; 9 M M M M 3.8.8.8.7.4.4.4.4.e       . w w w w ].].].].].",
"w w w w w w w w w .       1 C C C C ) | | | b         0 w w w 0         b | | | ) C C C C 1       . w w w w w w w w w ",
"w w w w w w w w w .       1 C C C C ) | | | b         0 w w w 0         b | | | ) C C C C 1       . w w w w w w w w w ",
"w w w w w w w w w .       1 C C C C ) | | | b         0 w w w 0         b | | | ) C C C C 1       . w w w w w w w w w ",
"w w w w w w w w w o X X X 2 h h h h ! _ _ _ v X X X X q w w w q X X X X v _ _ _ ! h h h h 2 X X X o w w w w w w w w w ",
"w w w w w w w w w w w w w w w w w w w w w w w w w w w w w w w w w w w w w w w w w w w w w w w w w w w w w w w w w w w ",
"w w w w w w w w w w w w w w w w w w w w w w w w w w w w w w w w w w w w w w w w w w w w w w w w w w w w w w w w w w w ",
"w w w w w w w w w w w w w w w w w w w w w w w w w w w w w w w w w w w w w w w w w w w w w w w w w w w w w w w w w w w ",
"w w w w w w w w w w w w w w w w w w w w w w w w w w w w w w w w w w w w w w w w w w w w w w w w w w w w w w w w w w w ",
"].].].].].w w w w w w w w w w w w w w w w w w w w w w w w w w w w w w w w w w w w w w w w w w w w w w w w w ].].].].].",
"].].].].].w w w w w w w w w w w w w w w w w w w w w w w w w w w w w w w w w w w w w w w w w w w w w w w w w ].].].].].",
"].].].].].w w w w w w w w w w w w w w w w w w w w w w w w w w w w w w w w w w w w w w w w w w w w w w w w w ].].].].].",
"].].].].].w w w w w w w w w w w w w w w w w w w w w w w w w w w w w w w w w w w w w w w w w w w w w w w w w ].].].].].",
"].].].].].w w w w w w w w w w w w w w w w w w w w w w w w w w w w w w w w w w w w w w w w w w w w w w w w w ].].].].]."
};
