/* XPM */
static char *PMS4[] = {
/* columns rows colors chars-per-pixel */
"57 96 170 2 ",
"   c black",
".  c #000001",
"X  c #010101",
"o  c #010102",
"O  c #020203",
"+  c #040302",
"@  c #070403",
"#  c #030306",
"$  c #040407",
"%  c #0B0604",
"&  c #0E0905",
"*  c #0F0905",
"=  c #0F0A06",
"-  c #06070D",
";  c #07080E",
":  c #100A06",
">  c #110A06",
",  c #110B06",
"<  c #130C07",
"1  c #140C07",
"2  c #140D08",
"3  c #170E08",
"4  c #170F09",
"5  c #1A1009",
"6  c #18100A",
"7  c #1B120B",
"8  c #1B130D",
"9  c #1D130C",
"0  c #090A12",
"q  c #0F0E12",
"w  c #0A0C15",
"e  c #0C0E19",
"r  c #21110D",
"t  c #22150C",
"y  c #23150D",
"u  c #22160D",
"i  c #27180E",
"p  c #27190F",
"a  c #29190F",
"s  c #2A1A0F",
"d  c #211711",
"f  c #281A10",
"g  c #281B10",
"h  c #2A1C12",
"j  c #2D1C10",
"k  c #2F1E12",
"l  c #2F1F13",
"z  c #281C15",
"x  c #2D1D17",
"c  c #291F1C",
"v  c #2F2013",
"b  c #2C211D",
"n  c #2A261F",
"m  c #362113",
"M  c #322214",
"N  c #342315",
"B  c #362416",
"V  c #372516",
"C  c #3A2315",
"Z  c #3F2A19",
"A  c #081221",
"S  c #101622",
"D  c #0E1F38",
"F  c #1E212A",
"G  c #2C2720",
"H  c #2D2821",
"J  c #402717",
"K  c #442A19",
"L  c #452B1A",
"P  c #462C1A",
"I  c #472C1B",
"U  c #472D1B",
"Y  c #492E1B",
"T  c #482D1C",
"R  c #4A2F1D",
"E  c #48301D",
"W  c #4A301C",
"Q  c #4B301D",
"!  c #4A311E",
"~  c #4C311D",
"^  c #4C301E",
"/  c #4D311E",
"(  c #4C321E",
")  c #4E331E",
"_  c #4F3520",
"`  c #503620",
"'  c #523620",
"]  c #533721",
"[  c #553822",
"{  c #553922",
"}  c #563922",
"|  c #573A23",
" . c #563B25",
".. c #563E2D",
"X. c #543D2E",
"o. c #5B3D2A",
"O. c #5D3E29",
"+. c #5A3F2C",
"@. c #433834",
"#. c #5D422E",
"$. c #4F423E",
"%. c #5B493C",
"&. c #674630",
"*. c #6B4933",
"=. c #6D4A34",
"-. c #6C4A38",
";. c #714D37",
":. c #724E37",
">. c #765238",
",. c #76513A",
"<. c #132C4E",
"1. c #3C4963",
"2. c #35496D",
"3. c #3F5172",
"4. c #4C4547",
"5. c #635143",
"6. c #745D4C",
"7. c #776453",
"8. c #405173",
"9. c #425578",
"0. c #8C6248",
"q. c #8F644A",
"w. c #8B664D",
"e. c #95694D",
"r. c #966B50",
"t. c #986C50",
"y. c #9B6E52",
"u. c #9C6F52",
"i. c #9D6F52",
"p. c #8A7157",
"a. c #9F7154",
"s. c #9F7156",
"d. c #90775D",
"f. c #A07257",
"g. c #A6775A",
"h. c #AC7B5D",
"j. c #927E69",
"k. c #9E7C6D",
"l. c #AE7F62",
"z. c #9E8D75",
"x. c #B48D6F",
"c. c #AC8F73",
"v. c #AB967A",
"b. c #AE977B",
"n. c #B69274",
"m. c #B49679",
"M. c #B19A7E",
"N. c #255599",
"B. c #345D9A",
"V. c #335E9C",
"C. c #2C65B5",
"Z. c #757C8A",
"A. c #787E97",
"S. c #4F70A7",
"D. c #5C7EB1",
"F. c #7C8BA1",
"G. c #6383B5",
"H. c #858282",
"J. c #AF9C82",
"K. c #B59E82",
"L. c #B49F84",
"P. c #BB9F81",
"I. c #B5A084",
"U. c #BEA487",
"Y. c #9498AA",
"T. c #969BAC",
"R. c #A0A4B2",
"E. c #A4A8B5",
"W. c #C1AC8F",
"Q. c None",
/* pixels */
"Q.Q.Q.Q.Q.Q.Q.Q.Q.                                  Q.Q.Q.Q.Q.                Q.Q.Q.Q.Q.Q.Q.Q.Q.Q.Q.Q.Q.Q.Q.Q.Q.Q.",
"Q.Q.Q.Q.Q.Q.Q.Q.Q.                                  Q.Q.Q.Q.Q.                Q.Q.Q.Q.Q.Q.Q.Q.Q.Q.Q.Q.Q.Q.Q.Q.Q.Q.",
"Q.Q.Q.Q.Q.Q.Q.Q.Q.                                  Q.Q.Q.Q.Q.                Q.Q.Q.Q.Q.Q.Q.Q.Q.Q.Q.Q.Q.Q.Q.Q.Q.Q.",
"Q.Q.Q.Q.Q.Q.Q.Q.Q.                                  Q.Q.Q.Q.Q.                Q.Q.Q.Q.Q.Q.Q.Q.Q.Q.Q.Q.Q.Q.Q.Q.Q.Q.",
"Q.Q.Q.Q.Q.Q.Q.Q.Q.        l V V V V V V V B a a a a >       4 V V V V +                         Q.Q.Q.Q.Q.Q.Q.Q.Q.",
"Q.Q.Q.Q.Q.Q.Q.Q.Q.        ! | | | | | | | { J J J J 1       7 | | | | @                         Q.Q.Q.Q.Q.Q.Q.Q.Q.",
"Q.Q.Q.Q.Q.Q.Q.Q.Q.        ! | | | | | | | { J J J J 1       7 | | | | @                         Q.Q.Q.Q.Q.Q.Q.Q.Q.",
"Q.Q.Q.Q.Q.Q.Q.Q.Q.        ! | | | | | | | { J J J J 1       7 | | | | @                         Q.Q.Q.Q.Q.Q.Q.Q.Q.",
"Q.Q.Q.Q.Q.Q.Q.Q.Q.        B Z Z Z ! | | | } P P P P t , , , p | | | | 9 6 6 6 6 6 6 6 4 , , , , Q.Q.Q.Q.Q.Q.Q.Q.Q.",
"Q.Q.Q.Q.Q.Q.Q.Q.Q.                g | | | | | | | | U J J J U | | | | | | | | | | | | ] J J J J *         Q.Q.Q.Q.",
"Q.Q.Q.Q.Q.Q.Q.Q.Q.                g | | | | | | | | U J J J U | | | | | | | | | | | | ] J J J J *         Q.Q.Q.Q.",
"Q.Q.Q.Q.Q.Q.Q.Q.Q.                g | | | | | | | | U J J J U | | | | | | | | | | | | ] J J J J *         Q.Q.Q.Q.",
"Q.Q.Q.Q.Q.Q.Q.Q.Q.                g | | | | | | | | U J J J U | | | | | | | | | | | | ] J J J J *         Q.Q.Q.Q.",
"Q.Q.Q.Q.        & C C C C ( _ _ _ ] | | | | | | | | } [ [ [ } | | | | | | | | | | | | | [ [ [ [ 2         Q.Q.Q.Q.",
"Q.Q.Q.Q.        * J J J J ] | | | | | | | | | | | | | | | | | | | | | | | | | | | | | | | | | | 2         Q.Q.Q.Q.",
"Q.Q.Q.Q.        * J J J J ] | | | | | | | | | | | | | | | | | | | | | | | | | | | | | | | | | | 2         Q.Q.Q.Q.",
"Q.Q.Q.Q.        * J J J J ] | | | | | | | | | | | | | | | | | | | | | | | | | | | | | | | | | | 2         Q.Q.Q.Q.",
"        5 y y y j / / / / { | | | | | | | | | | | | ) W W W ) | | | | | | | | | | | | | | | | | k y y y 5         ",
"        i J J J L | | | | | | | | | | | | | | | | | U J J J U | | | | | | | | | | | | | | | | | L J J J i         ",
"        i J J J L | | | | | | | | | | | | | | | | | U J J J U | | | | | | | | | | | | | | | | | L J J J i         ",
"        i J J J L | | | | | | | | | | | | | | | | | U J J J U | | | | | | | | | | | | | | | | | L J J J i         ",
"        s K K K Y | | | | | | | | [ ] ] ] ] ] ] ] ] P J J J P ] ] ] ] | | | | | | | | | | | | | Y K K K s         ",
"        B | | | | | | | | | | | | ~ J J J J J J J J J J J J J J J J J { | | | | | | | | | | | | | | | | B         ",
"        B | | | | | | | | | | | | ~ J J J J J J J J J J J J J J J J J { | | | | | | | | | | | | | | | | B         ",
"        B | | | | | | | | | | | | ~ J J J J J J J J J J J J J J J J J { | | | | | | | | | | | | | | | | B         ",
"        B | | | | | | | | | | | | ~ J J J J J J J J J J J J J J J J J { | | | | | | | | | | | | | | | | B         ",
"        B | | | | | | | | | | | | ~ J J J I t.t.t.t.t.t.t.t.t.t.t.t.t.u.i.i.i.=.K K K U | | | | | | | | B         ",
"        B | | | | | | | | | | | | ~ J J J T h.h.h.h.h.h.h.h.h.h.h.h.h.h.h.h.h.:.J J J K | | | | | | | | B         ",
"        B | | | | | | | | | | | | ~ J J J T h.h.h.h.h.h.h.h.h.h.h.h.h.h.h.h.h.:.J J J K | | | | | | | | B         ",
"        B | | | | | | | | | | | | ~ J J J T h.h.h.h.h.h.h.h.h.h.h.h.h.h.h.h.h.:.J J J K | | | | | | | | B         ",
"        B | | | | | | | | ) / / / O.;.;.;.,.h.h.h.h.h.h.h.h.h.h.h.h.h.h.h.h.h.0.;.;.;.*./ / / / [ | | | B         ",
"        B | | | | | | | | K J J J :.h.h.h.h.h.h.h.h.h.h.h.h.h.h.h.h.h.h.h.h.h.h.h.h.h.y.J J J J ' | | | B         ",
"        B | | | | | | | | K J J J :.h.h.h.h.h.h.h.h.h.h.h.h.h.h.h.h.h.h.h.h.h.h.h.h.h.y.J J J J ' | | | B         ",
"        B | | | | | | | | K J J J :.h.h.h.h.h.h.h.h.h.h.h.h.h.h.h.h.h.h.h.h.h.h.h.h.h.y.J J J J ' | | | B         ",
"        N [ [ [ { | | | | ^ R R R ;.s.s.s.f.l.l.l.l.l.l.l.l.l.l.l.l.l.f.s.s.s.g.h.h.h.y.J J J J ( _ _ _ M         ",
"        i J J J L | | | | a.h.h.h.-.r r r x W.W.W.W.W.W.W.W.W.W.W.W.W.x r r r -.h.h.h.y.J J J J *         Q.Q.Q.Q.",
"        i J J J L | | | | a.h.h.h.-.r r r x W.W.W.W.W.W.W.W.W.W.W.W.W.x r r r -.h.h.h.y.J J J J *         Q.Q.Q.Q.",
"        i J J J L | | | | a.h.h.h.-.r r r x W.W.W.W.W.W.W.W.W.W.W.W.W.x r r r -.h.h.h.y.J J J J *         Q.Q.Q.Q.",
"        i J J J L | | | | a.h.h.h.-.r r r x W.W.W.W.W.W.W.W.W.W.W.W.W.x r r r -.h.h.h.y.J J J J *         Q.Q.Q.Q.",
"Q.Q.Q.Q.* , , , u | | | | c.P.P.P.6.r r r x W.W.W.W.W.W.W.W.W.W.W.W.W.x r r r 6.P.P.P.m.q.q.q.q.d         Q.Q.Q.Q.",
"Q.Q.Q.Q.        2 | | | | M.W.W.W.7.r r r x W.W.W.W.W.W.W.W.W.W.W.W.W.x r r r 7.W.W.W.U.h.h.h.h.z         Q.Q.Q.Q.",
"Q.Q.Q.Q.        2 | | | | M.W.W.W.7.r r r x W.W.W.W.W.W.W.W.W.W.W.W.W.x r r r 7.W.W.W.U.h.h.h.h.z         Q.Q.Q.Q.",
"Q.Q.Q.Q.        2 | | | | M.W.W.W.7.r r r x W.W.W.W.W.W.W.W.W.W.W.W.W.x r r r 7.W.W.W.U.h.h.h.h.z         Q.Q.Q.Q.",
"Q.Q.Q.Q.        8 >.>.>.>.K.W.W.W.j.%.%.%.5.W.W.W.W.W.W.W.W.W.W.W.W.W.5.%.%.%.j.W.W.W.U.h.h.h.h.z         Q.Q.Q.Q.",
"Q.Q.Q.Q.        z h.h.h.h.U.W.W.W.W.W.W.W.W.W.W.W.W.W.W.W.W.W.W.W.W.W.W.W.W.W.W.W.W.W.U.h.h.h.h.z         Q.Q.Q.Q.",
"Q.Q.Q.Q.        z h.h.h.h.U.W.W.W.W.W.W.W.W.W.W.W.W.W.W.W.W.W.W.W.W.W.W.W.W.W.W.W.W.W.U.h.h.h.h.z         Q.Q.Q.Q.",
"Q.Q.Q.Q.        z h.h.h.h.U.W.W.W.W.W.W.W.W.W.W.W.W.W.W.W.W.W.W.W.W.W.W.W.W.W.W.W.W.W.U.h.h.h.h.z         Q.Q.Q.Q.",
"Q.Q.Q.Q.        z h.h.h.h.U.W.W.W.W.W.W.W.W.W.W.W.W.W.W.W.W.W.W.W.W.W.W.W.W.W.W.W.W.W.U.h.h.h.h.z         Q.Q.Q.Q.",
"Q.Q.Q.Q.        * J J J J y.h.h.h.n.W.W.W.W.W.W.W.W.W.W.W.W.W.W.W.W.W.W.W.W.W.n.h.h.h.y.J J J J *         Q.Q.Q.Q.",
"Q.Q.Q.Q.        * J J J J y.h.h.h.n.W.W.W.W.W.W.W.W.W.W.W.W.W.W.W.W.W.W.W.W.W.n.h.h.h.y.J J J J *         Q.Q.Q.Q.",
"Q.Q.Q.Q.        * J J J J y.h.h.h.n.W.W.W.W.W.W.W.W.W.W.W.W.W.W.W.W.W.W.W.W.W.n.h.h.h.y.J J J J *         Q.Q.Q.Q.",
"Q.Q.Q.Q.        * J J J J y.h.h.h.n.W.W.W.W.W.W.W.W.W.W.W.W.W.W.W.W.W.W.W.W.W.n.h.h.h.y.J J J J *         Q.Q.Q.Q.",
"Q.Q.Q.Q.Q.Q.Q.Q.% 3 3 3 3 o.&.&.&.w.x.x.x.x.x.x.x.x.x.x.x.x.x.x.x.x.x.x.x.x.x.w.&.&.&.o.3 3 3 3 % Q.Q.Q.Q.Q.Q.Q.Q.",
"Q.Q.Q.Q.Q.Q.Q.Q.Q.        m J J J :.h.h.h.h.h.h.h.h.h.h.h.h.h.h.h.h.h.h.h.h.h.:.J J J m         Q.Q.Q.Q.Q.Q.Q.Q.Q.",
"Q.Q.Q.Q.Q.Q.Q.Q.Q.        m J J J :.h.h.h.h.h.h.h.h.h.h.h.h.h.h.h.h.h.h.h.h.h.:.J J J m         Q.Q.Q.Q.Q.Q.Q.Q.Q.",
"Q.Q.Q.Q.Q.Q.Q.Q.Q.        m J J J :.h.h.h.h.h.h.h.h.h.h.h.h.h.h.h.h.h.h.h.h.h.:.J J J m         Q.Q.Q.Q.Q.Q.Q.Q.Q.",
"Q.Q.Q.Q.Q.Q.Q.Q.Q.        m J J J &.e.e.e.r.k.k.k.k.k.k.k.k.k.k.k.k.k.r.e.e.e.&.J J J m         Q.Q.Q.Q.Q.Q.Q.Q.Q.",
"Q.Q.Q.Q.Q.Q.Q.Q.Q.        m J J J Q | | | +.A.A.A.A.A.A.A.A.A.A.A.A.A.+.| | | Q J J J m         Q.Q.Q.Q.Q.Q.Q.Q.Q.",
"Q.Q.Q.Q.Q.Q.Q.Q.Q.        m J J J Q | | | +.A.A.A.A.A.A.A.A.A.A.A.A.A.+.| | | Q J J J m         Q.Q.Q.Q.Q.Q.Q.Q.Q.",
"Q.Q.Q.Q.Q.Q.Q.Q.Q.        m J J J Q | | | +.A.A.A.A.A.A.A.A.A.A.A.A.A.+.| | | Q J J J m         Q.Q.Q.Q.Q.Q.Q.Q.Q.",
"Q.Q.Q.Q.Q.Q.Q.Q.Q.        m J J J Q | | | +.A.A.A.A.A.A.A.A.A.A.A.A.A.+.| | | Q J J J m         Q.Q.Q.Q.Q.Q.Q.Q.Q.",
"Q.Q.Q.Q.                  E [ [ [ } | | | +.A.A.A.A.Y.R.R.R.R.R.R.R.R.#.| | | p.I.I.I.L.J.J.J.J.G         Q.Q.Q.Q.",
"Q.Q.Q.Q.                  ! | | | | | | | +.A.A.A.A.T.E.E.E.E.E.E.E.E.#.| | | d.W.W.W.W.W.W.W.W.H         Q.Q.Q.Q.",
"Q.Q.Q.Q.                  ! | | | | | | | +.A.A.A.A.T.E.E.E.E.E.E.E.E.#.| | | d.W.W.W.W.W.W.W.W.H         Q.Q.Q.Q.",
"Q.Q.Q.Q.                  ! | | | | | | | +.A.A.A.A.T.E.E.E.E.E.E.E.E.#.| | | d.W.W.W.W.W.W.W.W.H         Q.Q.Q.Q.",
"Q.Q.Q.Q.                  ! | | | | | | | ..S.S.S.S.D.G.G.G.G.G.G.G.G.9.8.8.8.H.W.W.W.W.W.W.W.W.H         Q.Q.Q.Q.",
"Q.Q.Q.Q.                  ! | | | | | | | X.C.C.C.C.C.C.C.C.C.C.C.C.C.C.C.C.C.F.W.W.W.W.W.W.W.W.H         Q.Q.Q.Q.",
"Q.Q.Q.Q.                  ! | | | | | | | X.C.C.C.C.C.C.C.C.C.C.C.C.C.C.C.C.C.F.W.W.W.W.W.W.W.W.H         Q.Q.Q.Q.",
"Q.Q.Q.Q.                  ! | | | | | | | X.C.C.C.C.C.C.C.C.C.C.C.C.C.C.C.C.C.F.W.W.W.W.W.W.W.W.H         Q.Q.Q.Q.",
"Q.Q.Q.Q.                  @.$.$.$.$.$.$.$.4.C.C.C.C.C.C.C.C.C.C.C.C.C.V.B.B.B.Z.b.b.b.v.z.z.z.z.n         Q.Q.Q.Q.",
"Q.Q.Q.Q.Q.Q.Q.Q.Q.        N.C.C.C.C.C.C.C.C.C.C.C.C.C.C.C.C.C.C.C.C.C.X.| | | | | | | !         Q.Q.Q.Q.Q.Q.Q.Q.Q.",
"Q.Q.Q.Q.Q.Q.Q.Q.Q.        N.C.C.C.C.C.C.C.C.C.C.C.C.C.C.C.C.C.C.C.C.C.X.| | | | | | | !         Q.Q.Q.Q.Q.Q.Q.Q.Q.",
"Q.Q.Q.Q.Q.Q.Q.Q.Q.        N.C.C.C.C.C.C.C.C.C.C.C.C.C.C.C.C.C.C.C.C.C.X.| | | | | | | !         Q.Q.Q.Q.Q.Q.Q.Q.Q.",
"Q.Q.Q.Q.Q.Q.Q.Q.Q.        N.C.C.C.C.C.C.C.C.C.C.C.C.C.C.C.C.C.C.C.C.C.X.| | | | | | | !         Q.Q.Q.Q.Q.Q.Q.Q.Q.",
"Q.Q.Q.Q.Q.Q.Q.Q.Q.        N.C.C.C.C.C.C.C.C.C.C.C.C.<.A A A F $.$.$.$. .| | | | | | | !         Q.Q.Q.Q.Q.Q.Q.Q.Q.",
"Q.Q.Q.Q.Q.Q.Q.Q.Q.        N.C.C.C.C.C.C.C.C.C.C.C.C.D       7 | | | | | | | | | | | | !         Q.Q.Q.Q.Q.Q.Q.Q.Q.",
"Q.Q.Q.Q.Q.Q.Q.Q.Q.        N.C.C.C.C.C.C.C.C.C.C.C.C.D       7 | | | | | | | | | | | | !         Q.Q.Q.Q.Q.Q.Q.Q.Q.",
"Q.Q.Q.Q.Q.Q.Q.Q.Q.        N.C.C.C.C.C.C.C.C.C.C.C.C.D       7 | | | | | | | | | | | | !         Q.Q.Q.Q.Q.Q.Q.Q.Q.",
"Q.Q.Q.Q.Q.Q.Q.Q.: f f f f 1.8.8.8.8.8.8.8.3.2.2.2.2.S       = v v v v v v v v v v v v h $ $ $ $ Q.Q.Q.Q.Q.Q.Q.Q.Q.",
"Q.Q.Q.Q.        2 | | | | | | | | | | | | { J J J J 1                                 o e e e e e e e e Q.Q.Q.Q.Q.",
"Q.Q.Q.Q.        2 | | | | | | | | | | | | { J J J J 1                                 o e e e e e e e e Q.Q.Q.Q.Q.",
"Q.Q.Q.Q.        2 | | | | | | | | | | | | { J J J J 1                                 o e e e e e e e e Q.Q.Q.Q.Q.",
"Q.Q.Q.Q..       2 | | | | | | | | | | | | [ C C C C < X X X X X X X X X X X X X X X X O e e e e e e e e Q.Q.Q.Q.Q.",
"e e e e #       2 | | | | | | | | | | | | `         - e e e e e e e e e e e e e e e e e e e e e e e e e e e e e e ",
"e e e e #       2 | | | | | | | | | | | | `         - e e e e e e e e e e e e e e e e e e e e e e e e e e e e e e ",
"e e e e #       2 | | | | | | | | | | | | `         - e e e e e e e e e e e e e e e e e e e e e e e e e e e e e e ",
"e e e e #       2 | | | | | | | | | | | | `         - e e e e e e e e e e e e e e e e e e e e e e e e e e e e e e ",
"e e e e 0 ; ; ; q b b b b b b b b b b b b c ; ; ; ; w e e e e e e e e e e e e e e e e e e e e e e e e e e e e e e ",
"e e e e e e e e e e e e e e e e e e e e e e e e e e e e e e e e e e e e e e e e e e e e e e e e e e e e e e e e e ",
"e e e e e e e e e e e e e e e e e e e e e e e e e e e e e e e e e e e e e e e e e e e e e e e e e e e e e e e e e ",
"e e e e e e e e e e e e e e e e e e e e e e e e e e e e e e e e e e e e e e e e e e e e e e e e e e e e e e e e e ",
"Q.Q.Q.Q.Q.e e e e e e e e e e e e e e e e e e e e e e e e e e e e e e e e e e e e e e e e e e e e e e e Q.Q.Q.Q.Q.",
"Q.Q.Q.Q.Q.e e e e e e e e e e e e e e e e e e e e e e e e e e e e e e e e e e e e e e e e e e e e e e e Q.Q.Q.Q.Q.",
"Q.Q.Q.Q.Q.e e e e e e e e e e e e e e e e e e e e e e e e e e e e e e e e e e e e e e e e e e e e e e e Q.Q.Q.Q.Q.",
"Q.Q.Q.Q.Q.e e e e e e e e e e e e e e e e e e e e e e e e e e e e e e e e e e e e e e e e e e e e e e e Q.Q.Q.Q.Q.",
"Q.Q.Q.Q.Q.e e e e e e e e e e e e e e e e e e e e e e e e e e e e e e e e e e e e e e e e e e e e e e e Q.Q.Q.Q.Q."
};
