/* XPM */
static char *PMS0[] = {
/* columns rows colors chars-per-pixel */
"54 96 212 2 ",
"   c black",
".  c #000101",
"X  c #020203",
"o  c #050302",
"O  c #060302",
"+  c #020305",
"@  c #030305",
"#  c #030306",
"$  c #040509",
"%  c #050509",
"&  c #06070D",
"*  c #100B07",
"=  c #110B07",
"-  c #120B06",
";  c #120B07",
":  c #130C07",
">  c #140D08",
",  c #160F0B",
"<  c #190F09",
"1  c #19100A",
"2  c #1A120B",
"3  c #1D120B",
"4  c #1F130B",
"5  c #1E140C",
"6  c #040912",
"7  c #0C0E19",
"8  c #21110D",
"9  c #20140C",
"0  c #21140C",
"q  c #20150D",
"w  c #22150C",
"e  c #21160D",
"r  c #22170E",
"t  c #24160D",
"y  c #25180E",
"u  c #2A190F",
"i  c #271A10",
"p  c #271C14",
"a  c #291B10",
"s  c #2A1A11",
"d  c #2C1B10",
"f  c #2A1C11",
"g  c #2F1F13",
"h  c #311E12",
"j  c #322013",
"k  c #352013",
"l  c #362113",
"z  c #342114",
"x  c #342315",
"c  c #372214",
"v  c #372315",
"b  c #392315",
"n  c #3B2415",
"m  c #392617",
"M  c #3E2717",
"N  c #37261B",
"B  c #3B2718",
"V  c #3C2818",
"C  c #39291F",
"Z  c #28262B",
"A  c #392C2A",
"S  c #3D2F2C",
"D  c #402717",
"F  c #412818",
"G  c #432919",
"H  c #402A1A",
"J  c #452B1A",
"K  c #422C1A",
"L  c #432C1B",
"P  c #432D1B",
"I  c #472D1B",
"U  c #472F1C",
"Y  c #492E1C",
"T  c #492E1D",
"R  c #4B2F1E",
"E  c #48301D",
"W  c #4B301C",
"Q  c #4B301D",
"!  c #4A311D",
"~  c #4A311E",
"^  c #4C311D",
"/  c #4C311E",
"(  c #4D321E",
")  c #4E331E",
"_  c #4E331F",
"`  c #4F331F",
"'  c #50341F",
"]  c #473121",
"[  c #433024",
"{  c #4C3423",
"}  c #4D3425",
"|  c #4E3524",
" . c #46352B",
".. c #4A3829",
"X. c #4B392F",
"o. c #513520",
"O. c #513521",
"+. c #503620",
"@. c #523620",
"#. c #523621",
"$. c #533621",
"%. c #543721",
"&. c #543821",
"*. c #553822",
"=. c #553922",
"-. c #563922",
";. c #563923",
":. c #563A23",
">. c #573A23",
",. c #583A26",
"<. c #593A27",
"1. c #553C2A",
"2. c #573A2C",
"3. c #5C3D29",
"4. c #403930",
"5. c #4D3B35",
"6. c #4D3C34",
"7. c #4A3C39",
"8. c #4C3F3D",
"9. c #4C4338",
"0. c #514036",
"q. c #57433A",
"w. c #5F4A3E",
"e. c #64432E",
"r. c #694731",
"t. c #6A4732",
"y. c #6D4B32",
"u. c #6E4B33",
"i. c #6F4C35",
"p. c #664C3F",
"a. c #704C36",
"s. c #704D37",
"d. c #714E39",
"f. c #6E503F",
"g. c #71503C",
"h. c #75533F",
"j. c #77523E",
"k. c #7A543D",
"l. c #7E583E",
"z. c #353542",
"x. c #3A3A47",
"c. c #183661",
"v. c #4E4343",
"b. c #4D4445",
"n. c #46444E",
"m. c #4A474F",
"M. c #584740",
"N. c #5E4D45",
"B. c #464B5B",
"V. c #464B5D",
"C. c #644F42",
"Z. c #665445",
"A. c #695345",
"S. c #775540",
"D. c #735746",
"F. c #795D4F",
"G. c #7C5F4C",
"H. c #825A42",
"J. c #855D42",
"K. c #8B624A",
"L. c #8A684E",
"P. c #95694E",
"I. c #886F55",
"U. c #9A6D51",
"Y. c #83705D",
"T. c #957156",
"R. c #9E7054",
"E. c #90775D",
"W. c #A37457",
"Q. c #A7775A",
"!. c #A8785A",
"~. c #AC7B5D",
"^. c #817061",
"/. c #827360",
"(. c #867763",
"). c #9A7F64",
"_. c #AE7F61",
"`. c #94806A",
"'. c #B48E70",
"]. c #B29073",
"[. c #B59073",
"{. c #B79578",
"}. c #B9997B",
"|. c #1D438A",
" X c #1E448C",
".X c #23509B",
"XX c #23519C",
"oX c #295DA7",
"OX c #295EA8",
"+X c #2E63AF",
"@X c #2B62B2",
"#X c #2B64B3",
"$X c #2D64B1",
"%X c #2C65B5",
"&X c #666D88",
"*X c #676F8C",
"=X c #65718A",
"-X c #69738C",
";X c #787E97",
":X c #5A74A3",
">X c #5C76A4",
",X c #867D88",
"<X c #7A8098",
"1X c #7B8199",
"2X c #758EB5",
"3X c #B9A589",
"4X c #BFA88B",
"5X c #9196A8",
"6X c #A4A8B5",
"7X c #C0A98C",
"8X c #C1AC8F",
"9X c None",
/* pixels */
"9X9X9X9X9X9X9X9X                                  9X9X9X9X                9X9X9X9X9X9X9X9X9X9X9X9X9X9X9X9X9X",
"9X9X9X9X9X9X9X9X                                  9X9X9X9X                9X9X9X9X9X9X9X9X9X9X9X9X9X9X9X9X9X",
"9X9X9X9X9X9X9X9X                                  9X9X9X9X                9X9X9X9X9X9X9X9X9X9X9X9X9X9X9X9X9X",
"9X9X9X9X9X9X9X9X                                  9X9X9X9X                9X9X9X9X9X9X9X9X9X9X9X9X9X9X9X9X9X",
"9X9X9X9X9X9X9X9X        i E E E E E E E L k k k h         P E E E =                         9X9X9X9X9X9X9X9X",
"9X9X9X9X9X9X9X9X        g >.>.>.>.>.>.>.@.D D D n         +.>.>.>.>                         9X9X9X9X9X9X9X9X",
"9X9X9X9X9X9X9X9X        g >.>.>.>.>.>.>.@.D D D n         +.>.>.>.>                         9X9X9X9X9X9X9X9X",
"9X9X9X9X9X9X9X9X        g >.>.>.>.>.>.>.@.D D D n         +.>.>.>.>                         9X9X9X9X9X9X9X9X",
"9X9X9X9X9X9X9X9X        * 5 5 5 x >.>.>.*.` ` ` / u u u u %.>.>.>.H m m m m m m m j u u u 9         9X9X9X9X",
"9X9X9X9X9X9X9X9X                e >.>.>.>.>.>.>.=.D D D D =.>.>.>.>.>.>.>.>.>.>.>.^ D D D d         9X9X9X9X",
"9X9X9X9X9X9X9X9X                e >.>.>.>.>.>.>.=.D D D D =.>.>.>.>.>.>.>.>.>.>.>.^ D D D d         9X9X9X9X",
"9X9X9X9X9X9X9X9X                e >.>.>.>.>.>.>.=.D D D D =.>.>.>.>.>.>.>.>.>.>.>.^ D D D d         9X9X9X9X",
"9X9X9X9X9X9X9X9X< 4 4 4 y f f f B >.>.>.>.>.>.>.;.Q Q Q Q ;.>.>.>.>.>.>.>.>.>.>.>.@.Q Q Q z         9X9X9X9X",
"9X9X9X9X        d D D D ^ >.>.>.>.>.>.>.>.>.>.>.>.>.>.>.>.>.>.>.>.>.>.>.>.>.>.>.>.>.>.>.>.V         9X9X9X9X",
"9X9X9X9X        d D D D ^ >.>.>.>.>.>.>.>.>.>.>.>.>.>.>.>.>.>.>.>.>.>.>.>.>.>.>.>.>.>.>.>.V         9X9X9X9X",
"9X9X9X9X        d D D D ^ >.>.>.>.>.>.>.>.>.>.>.>.>.>.>.>.>.>.>.>.>.>.>.>.>.>.>.>.>.>.>.>.V         9X9X9X9X",
"9X9X9X9X; : : : v I I I ' >.>.>.>.>.>.>.>.>.>.>.:.' ' ' ' :.>.>.>.>.>.>.>.>.>.>.>.>.>.>.>.K : : : ; 9X9X9X9X",
"        l D D D ' >.>.>.>.>.>.>.>.>.>.>.>.>.>.>.=.D D D D =.>.>.>.>.>.>.>.>.>.>.>.>.>.>.>.' D D D l         ",
"        l D D D ' >.>.>.>.>.>.>.>.>.>.>.>.>.>.>.=.D D D D =.>.>.>.>.>.>.>.>.>.>.>.>.>.>.>.' D D D l         ",
"        l D D D ' >.>.>.>.>.>.>.>.>.>.>.>.>.>.>.=.D D D D =.>.>.>.>.>.>.>.>.>.>.>.>.>.>.>.' D D D l         ",
"        b G G G o.>.>.>.>.>.>.>.-.&.&.&.&.&.&.&.#.D D D D #.&.&.&.;.>.>.>.>.>.>.>.>.>.>.>.o.G G G b         ",
"        ~ >.>.>.>.>.>.>.>.>.>.>.) D D D D D D D D D D D D D D D D @.>.>.>.>.>.>.>.>.>.>.>.>.>.>.>.~         ",
"        ~ >.>.>.>.>.>.>.>.>.>.>.) D D D D D D D D D D D D D D D D @.>.>.>.>.>.>.>.>.>.>.>.>.>.>.>.~         ",
"        ~ >.>.>.>.>.>.>.>.>.>.>.) D D D D D D D D D D D D D D D D @.>.>.>.>.>.>.>.>.>.>.>.>.>.>.>.~         ",
"        ~ >.>.>.>.>.>.>.>.>.>.>.) D D D D D D D D D D D D D D D D @.>.>.>.>.>.>.>.>.>.>.>.>.>.>.>.~         ",
"        ~ >.>.>.>.>.>.>.>.>.>.>.) D D D ,.Q.Q.Q.Q.Q.Q.Q.Q.Q.Q.Q.Q.!.!.!.!.r.F F F Q >.>.>.>.>.>.>.~         ",
"        ~ >.>.>.>.>.>.>.>.>.>.>.) D D D <.~.~.~.~.~.~.~.~.~.~.~.~.~.~.~.~.t.D D D W >.>.>.>.>.>.>.~         ",
"        ~ >.>.>.>.>.>.>.>.>.>.>.) D D D <.~.~.~.~.~.~.~.~.~.~.~.~.~.~.~.~.t.D D D W >.>.>.>.>.>.>.~         ",
"        ~ >.>.>.>.>.>.>.>.>.>.>.) D D D <.~.~.~.~.~.~.~.~.~.~.~.~.~.~.~.~.t.D D D W >.>.>.>.>.>.>.~         ",
"        ~ >.>.>.>.>.>.>.( J J J e.P.P.P.U.~.~.~.~.~.~.~.~.~.~.~.~.~.~.~.~.R.P.P.P.a.J J J W >.>.>.~         ",
"        ~ >.>.>.>.>.>.>.W D D D t.~.~.~.~.~.~.~.~.~.~.~.~.~.~.~.~.~.~.~.~.~.~.~.~.k.D D D I >.>.>.~         ",
"        ~ >.>.>.>.>.>.>.W D D D t.~.~.~.~.~.~.~.~.~.~.~.~.~.~.~.~.~.~.~.~.~.~.~.~.k.D D D I >.>.>.~         ",
"        ~ >.>.>.>.>.>.>.W D D D t.~.~.~.~.~.~.~.~.~.~.~.~.~.~.~.~.~.~.~.~.~.~.~.~.k.D D D I >.>.>.~         ",
"        M Y Y Y $.>.>.>.u.H.H.H.d.2.2.2.f.}.}.}.}.}.}.}.}.}.}.}.}.f.2.2.2.K.~.~.~.k.D D D c r r r q 9X9X9X9X",
"        l D D D ' >.>.>.J.~.~.~.j.8 8 8  .8X8X8X8X8X8X8X8X8X8X8X8X .8 8 8 j.~.~.~.k.D D D d         9X9X9X9X",
"        l D D D ' >.>.>.J.~.~.~.j.8 8 8  .8X8X8X8X8X8X8X8X8X8X8X8X .8 8 8 j.~.~.~.k.D D D d         9X9X9X9X",
"        l D D D ' >.>.>.J.~.~.~.j.8 8 8  .8X8X8X8X8X8X8X8X8X8X8X8X .8 8 8 j.~.~.~.k.D D D d         9X9X9X9X",
"        0 t t t U >.>.>.L.[.[.[.G.8 8 8  .8X8X8X8X8X8X8X8X8X8X8X8X .8 8 8 G.[.[.[.T.i.i.i.}         9X9X9X9X",
"9X9X9X9X        V >.>.>.E.8X8X8XY.8 8 8  .8X8X8X8X8X8X8X8X8X8X8X8X .8 8 8 Y.8X8X8X{.~.~.~.S.        9X9X9X9X",
"9X9X9X9X        V >.>.>.E.8X8X8XY.8 8 8  .8X8X8X8X8X8X8X8X8X8X8X8X .8 8 8 Y.8X8X8X{.~.~.~.S.        9X9X9X9X",
"9X9X9X9X        V >.>.>.E.8X8X8XY.8 8 8  .8X8X8X8X8X8X8X8X8X8X8X8X .8 8 8 Y.8X8X8X{.~.~.~.S.        9X9X9X9X",
"9X9X9X9X        { y.y.y.).8X8X8X`.X.X.X.Z.8X8X8X8X8X8X8X8X8X8X8X8XZ.X.X.X.`.8X8X8X{.~.~.~.S.        9X9X9X9X",
"9X9X9X9X        S.~.~.~.{.8X8X8X8X8X8X8X8X8X8X8X8X8X8X8X8X8X8X8X8X8X8X8X8X8X8X8X8X{.~.~.~.S.        9X9X9X9X",
"9X9X9X9X        S.~.~.~.{.8X8X8X8X8X8X8X8X8X8X8X8X8X8X8X8X8X8X8X8X8X8X8X8X8X8X8X8X{.~.~.~.S.        9X9X9X9X",
"9X9X9X9X        S.~.~.~.{.8X8X8X8X8X8X8X8X8X8X8X8X8X8X8X8X8X8X8X8X8X8X8X8X8X8X8X8X{.~.~.~.S.        9X9X9X9X",
"9X9X9X9X        g.W.W.W.].4X4X4X7X8X8X8X8X8X8X8X8X8X8X8X8X8X8X8X8X8X8X8X8X7X4X4X4X].W.W.W.g.        9X9X9X9X",
"9X9X9X9X        d D D D k.~.~.~.'.8X8X8X8X8X8X8X8X8X8X8X8X8X8X8X8X8X8X8X8X'.~.~.~.k.D D D d         9X9X9X9X",
"9X9X9X9X        d D D D k.~.~.~.'.8X8X8X8X8X8X8X8X8X8X8X8X8X8X8X8X8X8X8X8X'.~.~.~.k.D D D d         9X9X9X9X",
"9X9X9X9X        d D D D k.~.~.~.'.8X8X8X8X8X8X8X8X8X8X8X8X8X8X8X8X8X8X8X8X'.~.~.~.k.D D D d         9X9X9X9X",
"9X9X9X9X        d D D D k.~.~.~.'.8X8X8X8X8X8X8X8X8X8X8X8X8X8X8X8X8X8X8X8X'.~.~.~.k.D D D d         9X9X9X9X",
"9X9X9X9X9X9X9X9Xo O O O s T T T s._._._._._._._._._._._._._._._._._._._._.s.T T T s O O O o 9X9X9X9X9X9X9X9X",
"9X9X9X9X9X9X9X9X        w D D D t.~.~.~.~.~.~.~.~.~.~.~.~.~.~.~.~.~.~.~.~.t.D D D w         9X9X9X9X9X9X9X9X",
"9X9X9X9X9X9X9X9X        w D D D t.~.~.~.~.~.~.~.~.~.~.~.~.~.~.~.~.~.~.~.~.t.D D D w         9X9X9X9X9X9X9X9X",
"9X9X9X9X9X9X9X9X        w D D D t.~.~.~.~.~.~.~.~.~.~.~.~.~.~.~.~.~.~.~.~.t.D D D w         9X9X9X9X9X9X9X9X",
"9X9X9X9X9X9X9X9X        w D D D R 3.3.3.p.,X,X,X,X,X,X,X,X,X,X,X,XD.y.y.y.O.D D D w         9X9X9X9X9X9X9X9X",
"9X9X9X9X9X9X9X9X        w D D D D D D D 5.;X;X;X;X;X;X;X;X;X;X;X;Xw.>.>.>.Y D D D w         9X9X9X9X9X9X9X9X",
"9X9X9X9X9X9X9X9X        w D D D D D D D 5.;X;X;X;X;X;X;X;X;X;X;X;Xw.>.>.>.Y D D D w         9X9X9X9X9X9X9X9X",
"9X9X9X9X9X9X9X9X        w D D D D D D D 5.;X;X;X;X;X;X;X;X;X;X;X;Xw.>.>.>.Y D D D w         9X9X9X9X9X9X9X9X",
"9X9X9X9X9X9X9X9X        w D D D J ( ( ( q.;X;X;X<X5X5X5X5X5X5X5X5XC.>.>.>.o.( ( ( a         9X9X9X9X9X9X9X9X",
"9X9X9X9X9X9X9X9X        w D D D Y >.>.>.w.;X;X;X1X6X6X6X6X6X6X6X6XA.>.>.>.>.>.>.>.g         9X9X9X9X9X9X9X9X",
"9X9X9X9X9X9X9X9X        w D D D Y >.>.>.w.;X;X;X1X6X6X6X6X6X6X6X6XA.>.>.>.>.>.>.>.g         9X9X9X9X9X9X9X9X",
"9X9X9X9X9X9X9X9X        w D D D Y >.>.>.w.;X;X;X1X6X6X6X6X6X6X6X6XA.>.>.>.>.>.>.>.g         9X9X9X9X9X9X9X9X",
"9X9X9X9X9X9X9X9X4.9.9.9...Y Y Y _ >.>.>.M.:X:X:X>X2X2X2X2X2X2X2X2XN.>.>.>.>.>.>.>.| [ [ [ C 9X9X9X9X9X9X9X9X",
"9X9X9X9X        (.8X8X8XI.>.>.>.>.>.>.>.b.%X%X%X%X%X%X%X%X%X%X%X%Xb.>.>.>.>.>.>.>.l.~.~.~.S.        9X9X9X9X",
"9X9X9X9X        (.8X8X8XI.>.>.>.>.>.>.>.b.%X%X%X%X%X%X%X%X%X%X%X%Xb.>.>.>.>.>.>.>.l.~.~.~.S.        9X9X9X9X",
"9X9X9X9X        (.8X8X8XI.>.>.>.>.>.>.>.b.%X%X%X%X%X%X%X%X%X%X%X%Xb.>.>.>.>.>.>.>.l.~.~.~.S.        9X9X9X9X",
"9X9X9X9X        (.8X8X8X^.7.7.7.8.v.v.v.V.%X%X%X%X%X%X%X%X%X%X%X%XV.v.v.v.v.v.v.v.F.~.~.~.S.        9X9X9X9X",
"9X9X9X9X        (.8X8X8X-X|.|.|..X%X%X%X%X%X%X%X%X%X%X%X%X%X%X%X%X%X%X%X%X%X%X%X%X*X~.~.~.S.        9X9X9X9X",
"9X9X9X9X        (.8X8X8X-X|.|.|..X%X%X%X%X%X%X%X%X%X%X%X%X%X%X%X%X%X%X%X%X%X%X%X%X*X~.~.~.S.        9X9X9X9X",
"9X9X9X9X        (.8X8X8X-X|.|.|..X%X%X%X%X%X%X%X%X%X%X%X%X%X%X%X%X%X%X%X%X%X%X%X%X*X~.~.~.S.        9X9X9X9X",
"9X9X9X9X        /.3X3X3X=X X X XXX%X%X%X%X%X%X%X%X#X#X#X#X%X%X%X%X%X%X%X%X$X+X+X+X&X!.!.!.h.        9X9X9X9X",
"9X9X9X9X9X9X9X9X        c.%X%X%X%X%X%X%X%X%X%X%X@X|.|.|.|.@X%X%X%X%X%X%X%XB.>.>.>.>.>.>.>.V         9X9X9X9X",
"9X9X9X9X9X9X9X9X        c.%X%X%X%X%X%X%X%X%X%X%X@X|.|.|.|.@X%X%X%X%X%X%X%XB.>.>.>.>.>.>.>.V         9X9X9X9X",
"9X9X9X9X9X9X9X9X        c.%X%X%X%X%X%X%X%X%X%X%X@X|.|.|.|.@X%X%X%X%X%X%X%XB.>.>.>.>.>.>.>.V         9X9X9X9X",
"9X9X9X9X9X9X9X9X        c.%X%X%X%X%X%X%X%X%X%X%X@X|.|.|.|.@X%X%X%X%X%X%X%XB.>.>.>.>.>.>.>.V         9X9X9X9X",
"9X9X9X9X9X9X9X9X        c.%X%X%X%X%X%X%X%X%X%X%XOX6 6 6 6 A S S S 6.0.0.0.1.>.>.>.>.>.>.>.V         9X9X9X9X",
"9X9X9X9X9X9X9X9X        c.%X%X%X%X%X%X%X%X%X%X%XoX        n D D D @.>.>.>.>.>.>.>.>.>.>.>.V         9X9X9X9X",
"9X9X9X9X9X9X9X9X        c.%X%X%X%X%X%X%X%X%X%X%XoX        n D D D @.>.>.>.>.>.>.>.>.>.>.>.V         9X9X9X9X",
"9X9X9X9X9X9X9X9X        c.%X%X%X%X%X%X%X%X%X%X%XoX        n D D D @.>.>.>.>.>.>.>.>.>.>.>.V         9X9X9X9X",
"9X9X9X9X9X9X9X9XX       Z m.m.m.m.m.m.m.n.x.x.x.z.        - : : : 1 2 2 2 2 2 2 2 2 2 2 2 , & & & & 9X9X9X9X",
"9X9X9X9X9X7 7 7 +       g >.>.>.>.>.>.>.@.D D D n                                         + 7 7 7 9X9X9X9X9X",
"9X9X9X9X9X7 7 7 +       g >.>.>.>.>.>.>.@.D D D n                                         + 7 7 7 9X9X9X9X9X",
"9X9X9X9X9X7 7 7 +       g >.>.>.>.>.>.>.@.D D D n                                         + 7 7 7 9X9X9X9X9X",
"9X9X9X9X9X7 7 7 +       g >.>.>.>.>.>.>.! 4 4 4 3 $ $ $ $ $ $ $ $ $ $ $ $ $ $ $ $ $ $ $ $ & 7 7 7 9X9X9X9X9X",
"7 7 7 7 7 7 7 7 +       g >.>.>.>.>.>.>.P       . 7 7 7 7 7 7 7 7 7 7 7 7 7 7 7 7 7 7 7 7 7 7 7 7 7 7 7 7 7 ",
"7 7 7 7 7 7 7 7 +       g >.>.>.>.>.>.>.P       . 7 7 7 7 7 7 7 7 7 7 7 7 7 7 7 7 7 7 7 7 7 7 7 7 7 7 7 7 7 ",
"7 7 7 7 7 7 7 7 +       g >.>.>.>.>.>.>.P       . 7 7 7 7 7 7 7 7 7 7 7 7 7 7 7 7 7 7 7 7 7 7 7 7 7 7 7 7 7 ",
"7 7 7 7 7 7 7 7 % @ @ @ p ] ] ] ] ] ] ] N @ @ @ # 7 7 7 7 7 7 7 7 7 7 7 7 7 7 7 7 7 7 7 7 7 7 7 7 7 7 7 7 7 ",
"7 7 7 7 7 7 7 7 7 7 7 7 7 7 7 7 7 7 7 7 7 7 7 7 7 7 7 7 7 7 7 7 7 7 7 7 7 7 7 7 7 7 7 7 7 7 7 7 7 7 7 7 7 7 ",
"7 7 7 7 7 7 7 7 7 7 7 7 7 7 7 7 7 7 7 7 7 7 7 7 7 7 7 7 7 7 7 7 7 7 7 7 7 7 7 7 7 7 7 7 7 7 7 7 7 7 7 7 7 7 ",
"7 7 7 7 7 7 7 7 7 7 7 7 7 7 7 7 7 7 7 7 7 7 7 7 7 7 7 7 7 7 7 7 7 7 7 7 7 7 7 7 7 7 7 7 7 7 7 7 7 7 7 7 7 7 ",
"9X9X9X9X9X7 7 7 7 7 7 7 7 7 7 7 7 7 7 7 7 7 7 7 7 7 7 7 7 7 7 7 7 7 7 7 7 7 7 7 7 7 7 7 7 7 7 7 7 9X9X9X9X9X",
"9X9X9X9X9X7 7 7 7 7 7 7 7 7 7 7 7 7 7 7 7 7 7 7 7 7 7 7 7 7 7 7 7 7 7 7 7 7 7 7 7 7 7 7 7 7 7 7 7 9X9X9X9X9X",
"9X9X9X9X9X7 7 7 7 7 7 7 7 7 7 7 7 7 7 7 7 7 7 7 7 7 7 7 7 7 7 7 7 7 7 7 7 7 7 7 7 7 7 7 7 7 7 7 7 9X9X9X9X9X",
"9X9X9X9X9X7 7 7 7 7 7 7 7 7 7 7 7 7 7 7 7 7 7 7 7 7 7 7 7 7 7 7 7 7 7 7 7 7 7 7 7 7 7 7 7 7 7 7 7 9X9X9X9X9X",
"9X9X9X9X9X7 7 7 7 7 7 7 7 7 7 7 7 7 7 7 7 7 7 7 7 7 7 7 7 7 7 7 7 7 7 7 7 7 7 7 7 7 7 7 7 7 7 7 7 9X9X9X9X9X"
};
