/* XPM */
static char *PMS2[] = {
/* columns rows colors chars-per-pixel */
"59 96 181 2 ",
"   c black",
".  c #000101",
"X  c #010102",
"o  c #010203",
"O  c #040302",
"+  c #050302",
"@  c #020204",
"#  c #080503",
"$  c #090603",
"%  c #0A0604",
"&  c #0B0704",
"*  c #0B0805",
"=  c #0C0805",
"-  c #0F0905",
";  c #0E0A06",
":  c #0F0A06",
">  c #05060B",
",  c #06070D",
"<  c #07080E",
"1  c #07080F",
"2  c #0C090A",
"3  c #120B06",
"4  c #120B07",
"5  c #130D09",
"6  c #140D08",
"7  c #150D08",
"8  c #190F09",
"9  c #19110A",
"0  c #1B110A",
"q  c #1B120B",
"w  c #1E120B",
"e  c #1F130B",
"r  c #1E140C",
"t  c #0C0E19",
"y  c #21110D",
"u  c #21160D",
"i  c #22160D",
"p  c #24170E",
"a  c #25190F",
"s  c #281B10",
"d  c #2E1C10",
"f  c #331F12",
"g  c #322114",
"h  c #372114",
"j  c #3B2415",
"k  c #3E2617",
"l  c #3E2717",
"z  c #3F2717",
"x  c #362119",
"c  c #3E2818",
"v  c #392820",
"b  c #3A2921",
"n  c #402717",
"m  c #412918",
"M  c #422818",
"N  c #432A19",
"B  c #442A19",
"V  c #452B19",
"C  c #452B1A",
"Z  c #472C1A",
"A  c #452E1D",
"S  c #492E1C",
"D  c #4A2F1C",
"F  c #4A301C",
"G  c #4A311E",
"H  c #4B321E",
"J  c #4C321E",
"K  c #4D321E",
"L  c #4E331E",
"P  c #4D341F",
"I  c #50341F",
"U  c #473326",
"Y  c #4E3420",
"T  c #4F3726",
"R  c #4A3528",
"E  c #503520",
"W  c #503620",
"Q  c #513621",
"!  c #523620",
"~  c #533721",
"^  c #513722",
"/  c #533623",
"(  c #543721",
")  c #543822",
"_  c #553922",
"`  c #563922",
"'  c #563923",
"]  c #573A23",
"[  c #583A28",
"{  c #5F3F2B",
"}  c #5E3F2C",
"|  c #4F3D32",
" . c #5E422A",
".. c #524135",
"X. c #50473B",
"o. c #534A3D",
"O. c #60412A",
"+. c #61412D",
"@. c #674730",
"#. c #6A4732",
"$. c #674C34",
"%. c #6E4B35",
"&. c #6F4D34",
"*. c #724F36",
"=. c #704D3A",
"-. c #704E3B",
";. c #73523E",
":. c #785339",
">. c #7B563C",
",. c #7E573F",
"<. c #7E583E",
"1. c #153063",
"2. c #1B386B",
"3. c #1D396C",
"4. c #273B69",
"5. c #39476A",
"6. c #2A4273",
"7. c #25427B",
"8. c #3D527E",
"9. c #574C4B",
"0. c #4A4750",
"q. c #5F5350",
"w. c #604E40",
"e. c #614F47",
"r. c #665645",
"t. c #7A5540",
"y. c #7B5842",
"u. c #7F5B44",
"i. c #725F4F",
"p. c #6F5C50",
"a. c #61585E",
"s. c #7F634A",
"d. c #7D7077",
"f. c #7B737F",
"g. c #855D43",
"h. c #885F44",
"j. c #8B6247",
"k. c #86624C",
"l. c #80664D",
"z. c #91664D",
"x. c #816250",
"c. c #846B51",
"v. c #9B6E52",
"b. c #9D6F53",
"n. c #8F7157",
"m. c #9F7256",
"M. c #AC7B5D",
"N. c #817360",
"B. c #8A7B66",
"V. c #917F69",
"C. c #8E7D7E",
"Z. c #9C866D",
"A. c #A98467",
"S. c #B2896B",
"D. c #B48E70",
"F. c #B59072",
"G. c #1D438A",
"H. c #1F4890",
"J. c #274D8D",
"K. c #325388",
"L. c #36538B",
"P. c #38598B",
"I. c #204B94",
"U. c #224D97",
"Y. c #224F99",
"T. c #325FA0",
"R. c #3061A7",
"E. c #2C65B5",
"W. c #787E97",
"Q. c #5773A4",
"!. c #6B86B1",
"~. c #718BB5",
"^. c #B29F84",
"/. c #B99D80",
"(. c #BEA487",
"). c #BEA588",
"_. c #BFA78A",
"`. c #9A9EAE",
"'. c #A4A8B5",
"]. c #C1AC8F",
"[. c None",
/* pixels */
"[.[.[.[.[.[.[.[.[.                                    [.[.[.[.[.                  [.[.[.[.[.[.[.[.[.[.[.[.[.[.[.[.[.[.",
"[.[.[.[.[.[.[.[.[.                                    [.[.[.[.[.                  [.[.[.[.[.[.[.[.[.[.[.[.[.[.[.[.[.[.",
"[.[.[.[.[.[.[.[.[.                                    [.[.[.[.[.                  [.[.[.[.[.[.[.[.[.[.[.[.[.[.[.[.[.[.",
"[.[.[.[.[.[.[.[.[.                                    [.[.[.[.[.                  [.[.[.[.[.[.[.[.[.[.[.[.[.[.[.[.[.[.",
"[.[.[.[.[.[.[.[.[.        ; a a a a a a a a i 0 0 0 0 & [.[.[.: a a a a *         [.[.[.[.[.[.[.[.[.[.[.[.[.[.[.[.[.[.",
"[.[.[.[.[.[.[.[.[.        u ] ] ] ] ] ] ] ] I n n n n -       6 ] ] ] ] q                           [.[.[.[.[.[.[.[.[.",
"[.[.[.[.[.[.[.[.[.        u ] ] ] ] ] ] ] ] I n n n n -       6 ] ] ] ] q                           [.[.[.[.[.[.[.[.[.",
"[.[.[.[.[.[.[.[.[.        u ] ] ] ] ] ] ] ] I n n n n -       6 ] ] ] ] q                           [.[.[.[.[.[.[.[.[.",
"[.[.[.[.[.[.[.[.[.        u ] ] ] ] ] ] ] ] I n n n n -       6 ] ] ] ] q                           [.[.[.[.[.[.[.[.[.",
"[.[.[.[.[.[.[.[.[.        + = = = = J ] ] ] ` ( ( ( ( k h h h l ] ] ] ] Y H H H H H H H H c h h h f         [.[.[.[.[.",
"[.[.[.[.[.[.[.[.[.                  G ] ] ] ] ] ] ] ] C n n n C ] ] ] ] ] ] ] ] ] ] ] ] ] S n n n j         [.[.[.[.[.",
"[.[.[.[.[.[.[.[.[.                  G ] ] ] ] ] ] ] ] C n n n C ] ] ] ] ] ] ] ] ] ] ] ] ] S n n n j         [.[.[.[.[.",
"[.[.[.[.[.[.[.[.[.                  G ] ] ] ] ] ] ] ] C n n n C ] ] ] ] ] ] ] ] ] ] ] ] ] S n n n j         [.[.[.[.[.",
"[.[.[.[.[.[.[.[.[.3 4 4 4 7 9 9 9 9 P ] ] ] ] ] ] ] ] F Z Z Z F ] ] ] ] ] ] ] ] ] ] ] ] ] K Z Z Z m         [.[.[.[.[.",
"[.[.[.[.[.        j n n n S ] ] ] ] ] ] ] ] ] ] ] ] ] ] ] ] ] ] ] ] ] ] ] ] ] ] ] ] ] ] ] ] ] ] ] W         [.[.[.[.[.",
"[.[.[.[.[.        j n n n S ] ] ] ] ] ] ] ] ] ] ] ] ] ] ] ] ] ] ] ] ] ] ] ] ] ] ] ] ] ] ] ] ] ] ] W         [.[.[.[.[.",
"[.[.[.[.[.        j n n n S ] ] ] ] ] ] ] ] ] ] ] ] ] ] ] ] ] ] ] ] ] ] ] ] ] ] ] ] ] ] ] ] ] ] ] W         [.[.[.[.[.",
"[.[.[.[.[.        j n n n S ] ] ] ] ] ] ] ] ] ] ] ] ] ] ] ] ] ] ] ] ] ] ] ] ] ] ] ] ] ] ] ] ] ] ] W         [.[.[.[.[.",
"        8 d d d d L E E E ~ ] ] ] ] ] ] ] ] ] ] ] ] ] F Z Z Z F ] ] ] ] ] ] ] ] ] ] ] ] ] ] ] ] ] ) d d d d 8         ",
"        w n n n n _ ] ] ] ] ] ] ] ] ] ] ] ] ] ] ] ] ] C n n n C ] ] ] ] ] ] ] ] ] ] ] ] ] ] ] ] ] _ n n n n w         ",
"        w n n n n _ ] ] ] ] ] ] ] ] ] ] ] ] ] ] ] ] ] C n n n C ] ] ] ] ] ] ] ] ] ] ] ] ] ] ] ] ] _ n n n n w         ",
"        w n n n n _ ] ] ] ] ] ] ] ] ] ] ] ] ] ] ] ] ] C n n n C ] ] ] ] ] ] ] ] ] ] ] ] ] ] ] ] ] _ n n n n w         ",
"        e N N N N _ ] ] ] ] ] ] ] ] ) ( ( ( ( ( ( ( ( V n n n V ( ( ( ( ` ] ] ] ] ] ] ] ] ] ] ] ] _ N N N N e         ",
"        s ] ] ] ] ] ] ] ] ] ] ] ] ] B n n n n n n n n n n n n n n n n n I ] ] ] ] ] ] ] ] ] ] ] ] ] ] ] ] ] s         ",
"        s ] ] ] ] ] ] ] ] ] ] ] ] ] B n n n n n n n n n n n n n n n n n I ] ] ] ] ] ] ] ] ] ] ] ] ] ] ] ] ] s         ",
"        s ] ] ] ] ] ] ] ] ] ] ] ] ] B n n n n n n n n n n n n n n n n n I ] ] ] ] ] ] ] ] ] ] ] ] ] ] ] ] ] s         ",
"        s ] ] ] ] ] ] ] ] ] ] ] ] ] B n n n n n n n n n n n n n n n n n I ] ] ] ] ] ] ] ] ] ] ] ] ] ] ] ] ] s         ",
"        s ] ] ] ] ] ] ] ] ] ] ] ] ] B n n n / ,.,.,.,.,.,.,.,.,.,.,.,.,.g.h.h.h.<.D D D D ! ] ] ] ] ] ] ] ] s         ",
"        s ] ] ] ] ] ] ] ] ] ] ] ] ] B n n n +.M.M.M.M.M.M.M.M.M.M.M.M.M.M.M.M.M.v.n n n n L ] ] ] ] ] ] ] ] s         ",
"        s ] ] ] ] ] ] ] ] ] ] ] ] ] B n n n +.M.M.M.M.M.M.M.M.M.M.M.M.M.M.M.M.M.v.n n n n L ] ] ] ] ] ] ] ] s         ",
"        s ] ] ] ] ] ] ] ] ] ] ] ] ] B n n n +.M.M.M.M.M.M.M.M.M.M.M.M.M.M.M.M.M.v.n n n n L ] ] ] ] ] ] ] ] s         ",
"        s ] ] ] ] ] ] ] ] ] ] ] ] ] B n n n +.M.M.M.M.M.M.M.M.M.M.M.M.M.M.M.M.M.v.n n n n L ] ] ] ] ] ] ] ] s         ",
"        s ] ] ] ] ] ] ] ] L n n n n v.M.M.M.M.M.M.M.M.M.M.M.M.M.M.M.M.M.M.M.M.M.M.M.M.M.M.#.n n n M ] ] ] ] s         ",
"        s ] ] ] ] ] ] ] ] L n n n n v.M.M.M.M.M.M.M.M.M.M.M.M.M.M.M.M.M.M.M.M.M.M.M.M.M.M.#.n n n M ] ] ] ] s         ",
"        s ] ] ] ] ] ] ] ] L n n n n v.M.M.M.M.M.M.M.M.M.M.M.M.M.M.M.M.M.M.M.M.M.M.M.M.M.M.#.n n n M ] ] ] ] s         ",
"        s ] ] ] ] ] ] ] ] L n n n n v.M.M.M.M.M.M.M.M.M.M.M.M.M.M.M.M.M.M.M.M.M.M.M.M.M.M.#.n n n M ] ] ] ] s         ",
"        p K K K K ' ] ] ] O.%.%.%.%.=.-.-.-.k.F.F.F.F.F.F.F.F.F.F.F.F.F.k.-.-.-.t.M.M.M.M.#.n n n z g g g g r         ",
"        w n n n n _ ] ] ] :.M.M.M.M.x y y y ..].].].].].].].].].].].].]...y y y x M.M.M.M.#.n n n j         [.[.[.[.[.",
"        w n n n n _ ] ] ] :.M.M.M.M.x y y y ..].].].].].].].].].].].].]...y y y x M.M.M.M.#.n n n j         [.[.[.[.[.",
"        w n n n n _ ] ] ] :.M.M.M.M.x y y y ..].].].].].].].].].].].].]...y y y x M.M.M.M.#.n n n j         [.[.[.[.[.",
"        w n n n n _ ] ] ] :.M.M.M.M.x y y y ..].].].].].].].].].].].].]...y y y x M.M.M.M.#.n n n j         [.[.[.[.[.",
"[.[.[.[.# $ $ $ $ Q ] ] ] s.).).).).v y y y ..].].].].].].].].].].].].]...y y y v ).).).).A.b.b.b.z.        [.[.[.[.[.",
"[.[.[.[.[.        W ] ] ] l.].].].].b y y y ..].].].].].].].].].].].].]...y y y b ].].].].D.M.M.M.m.        [.[.[.[.[.",
"[.[.[.[.[.        W ] ] ] l.].].].].b y y y ..].].].].].].].].].].].].]...y y y b ].].].].D.M.M.M.m.        [.[.[.[.[.",
"[.[.[.[.[.        W ] ] ] l.].].].].b y y y ..].].].].].].].].].].].].]...y y y b ].].].].D.M.M.M.m.        [.[.[.[.[.",
"[.[.[.[.[.        @.&.&.&.n.].].].].w.| | | i.].].].].].].].].].].].].].i.| | | w.].].].].D.M.M.M.m.        [.[.[.[.[.",
"[.[.[.[.[.        m.M.M.M.D.].].].].].].].].].].].].].].].].].].].].].].].].].].].].].].].D.M.M.M.m.        [.[.[.[.[.",
"[.[.[.[.[.        m.M.M.M.D.].].].].].].].].].].].].].].].].].].].].].].].].].].].].].].].D.M.M.M.m.        [.[.[.[.[.",
"[.[.[.[.[.        m.M.M.M.D.].].].].].].].].].].].].].].].].].].].].].].].].].].].].].].].D.M.M.M.m.        [.[.[.[.[.",
"[.[.[.[.[.        m.M.M.M.D.].].].].].].].].].].].].].].].].].].].].].].].].].].].].].].].D.M.M.M.m.        [.[.[.[.[.",
"[.[.[.[.[.        [ { { { u.S.S.S.S._.].].].].].].].].].].].].].].].].].].].].]._.S.S.S.S.u.{ { { [         [.[.[.[.[.",
"[.[.[.[.[.        j n n n #.M.M.M.M.(.].].].].].].].].].].].].].].].].].].].].].(.M.M.M.M.#.n n n j         [.[.[.[.[.",
"[.[.[.[.[.        j n n n #.M.M.M.M.(.].].].].].].].].].].].].].].].].].].].].].(.M.M.M.M.#.n n n j         [.[.[.[.[.",
"[.[.[.[.[.        j n n n #.M.M.M.M.(.].].].].].].].].].].].].].].].].].].].].].(.M.M.M.M.#.n n n j         [.[.[.[.[.",
"[.[.[.[.[.        f h h h } b.b.b.b./.).).).).).).).).).).).).).).).).).).).).)./.b.b.b.b.} h h h f         [.[.[.[.[.",
"[.[.[.[.[.[.[.[.[.        8 n n n n v.M.M.M.M.M.M.M.M.M.M.M.M.M.M.M.M.M.M.M.M.M.v.n n n n 8         [.[.[.[.[.[.[.[.[.",
"[.[.[.[.[.[.[.[.[.        8 n n n n v.M.M.M.M.M.M.M.M.M.M.M.M.M.M.M.M.M.M.M.M.M.v.n n n n 8         [.[.[.[.[.[.[.[.[.",
"[.[.[.[.[.[.[.[.[.        8 n n n n v.M.M.M.M.M.M.M.M.M.M.M.M.M.M.M.M.M.M.M.M.M.v.n n n n 8         [.[.[.[.[.[.[.[.[.",
"[.[.[.[.[.[.[.[.[.        8 n n n n v.M.M.M.M.M.M.M.M.M.M.M.M.M.M.M.M.M.M.M.M.M.v.n n n n 8         [.[.[.[.[.[.[.[.[.",
"[.[.[.[.[.[.[.[.[.        8 n n n n *.>.>.>.x.C.C.C.C.C.C.C.C.C.C.C.C.C.x.>.>.>.*.n n n n 8         [.[.[.[.[.[.[.[.[.",
"[.[.[.[.[.[.[.[.[.        8 n n n n ~ ] ] ] e.W.W.W.W.W.W.W.W.W.W.W.W.W.e.] ] ] ~ n n n n 8         [.[.[.[.[.[.[.[.[.",
"[.[.[.[.[.[.[.[.[.        8 n n n n ~ ] ] ] e.W.W.W.W.W.W.W.W.W.W.W.W.W.e.] ] ] ~ n n n n 8         [.[.[.[.[.[.[.[.[.",
"[.[.[.[.[.[.[.[.[.        8 n n n n ~ ] ] ] e.W.W.W.W.W.W.W.W.W.W.W.W.W.e.] ] ] ~ n n n n 8         [.[.[.[.[.[.[.[.[.",
"[.[.[.[.[.[.[.[.[.        8 n n n n ~ ] ] ] e.W.W.W.W.W.W.W.W.W.W.W.W.W.e.] ] ] ~ n n n n 8         [.[.[.[.[.[.[.[.[.",
"[.[.[.[.[.[.[.[.[.        u ] ] ] ] ] ] ] ] e.W.W.W.W.`.'.'.'.'.'.'.'.'.p.] ] ] ] ] ] ] ] u         [.[.[.[.[.[.[.[.[.",
"[.[.[.[.[.[.[.[.[.        u ] ] ] ] ] ] ] ] e.W.W.W.W.`.'.'.'.'.'.'.'.'.p.] ] ] ] ] ] ] ] u         [.[.[.[.[.[.[.[.[.",
"[.[.[.[.[.[.[.[.[.        u ] ] ] ] ] ] ] ] e.W.W.W.W.`.'.'.'.'.'.'.'.'.p.] ] ] ] ] ] ] ] u         [.[.[.[.[.[.[.[.[.",
"[.[.[.[.[.[.[.[.[.        u ] ] ] ] ] ] ] ] e.W.W.W.W.`.'.'.'.'.'.'.'.'.p.] ] ] ] ] ] ] ] u         [.[.[.[.[.[.[.[.[.",
"[.[.[.[.[.[.[.[.[.X.o.o.o.r.c.c.c.c. .] ] ] 9.Q.Q.Q.Q.!.~.~.~.~.~.~.~.~.q.] ] ] ] ] ] ] ] T R R R U [.[.[.[.[.[.[.[.[.",
"[.[.[.[.[.        ^.].].].].].].].].$.] ] ] 0.E.E.E.E.E.E.E.E.E.E.E.E.E.0.] ] ] ] ] ] ] ] j.M.M.M.m.        [.[.[.[.[.",
"[.[.[.[.[.        ^.].].].].].].].].$.] ] ] 0.E.E.E.E.E.E.E.E.E.E.E.E.E.0.] ] ] ] ] ] ] ] j.M.M.M.m.        [.[.[.[.[.",
"[.[.[.[.[.        ^.].].].].].].].].$.] ] ] 0.E.E.E.E.E.E.E.E.E.E.E.E.E.0.] ] ] ] ] ] ] ] j.M.M.M.m.        [.[.[.[.[.",
"[.[.[.[.[.        ^.].].].].].].].].$.] ] ] 0.E.E.E.E.E.E.E.E.E.E.E.E.E.0.] ] ] ] ] ] ] ] j.M.M.M.m.        [.[.[.[.[.",
"[.[.[.[.[.        ^.].].].].].].].].8.7.7.7.J.E.E.E.E.Y.H.H.H.Y.E.E.E.E.R.T.T.T.T.T.T.T.T.d.M.M.M.m.        [.[.[.[.[.",
"[.[.[.[.[.        ^.].].].].].].].].L.G.G.G.U.E.E.E.E.I.G.G.G.I.E.E.E.E.E.E.E.E.E.E.E.E.E.f.M.M.M.m.        [.[.[.[.[.",
"[.[.[.[.[.        ^.].].].].].].].].L.G.G.G.U.E.E.E.E.I.G.G.G.I.E.E.E.E.E.E.E.E.E.E.E.E.E.f.M.M.M.m.        [.[.[.[.[.",
"[.[.[.[.[.        ^.].].].].].].].].L.G.G.G.U.E.E.E.E.I.G.G.G.I.E.E.E.E.E.E.E.E.E.E.E.E.E.f.M.M.M.m.        [.[.[.[.[.",
"[.[.[.[.[.@ @ @ @ N.B.B.B.V.Z.Z.Z.Z.5.4.4.4.6.K.K.K.K.2.1.1.1.3.P.P.P.P.P.P.P.P.P.P.P.P.P.a.y.y.y.;.@ @ @ @ [.[.[.[.[.",
"[.[.[.[.[.t t t t .       8 n n n n n n n n n n n n n -       6 ] ] ] ] ] ] ] ] ] ] ] ] ] u       . t t t t [.[.[.[.[.",
"[.[.[.[.[.t t t t .       8 n n n n n n n n n n n n n -       6 ] ] ] ] ] ] ] ] ] ] ] ] ] u       . t t t t [.[.[.[.[.",
"[.[.[.[.[.t t t t .       8 n n n n n n n n n n n n n -       6 ] ] ] ] ] ] ] ] ] ] ] ] ] u       . t t t t [.[.[.[.[.",
"[.[.[.[.[.t t t t .       8 n n n n n n n n n n n n n -       6 ] ] ] ] ] ] ] ] ] ] ] ] ] u       . t t t t [.[.[.[.[.",
"[.[.[.[.[.t t t t 1 < < < 2 4 4 4 4 4 4 4 4 4 4 4 4 4 O       6 ] ] ] ] ] ] ] ] P 9 9 9 9 %       . t t t t [.[.[.[.[.",
"t t t t t t t t t t t t t >                                   6 ] ] ] ] ] ] ] ] G                 . t t t t t t t t t ",
"t t t t t t t t t t t t t >                                   6 ] ] ] ] ] ] ] ] G                 . t t t t t t t t t ",
"t t t t t t t t t t t t t >                                   6 ] ] ] ] ] ] ] ] G                 . t t t t t t t t t ",
"t t t t t t t t t t t t t , X X X X X X X X X X X X X X X X X 5 ^ ^ ^ ^ ^ ^ ^ ^ A X X X X X X X X o t t t t t t t t t ",
"t t t t t t t t t t t t t t t t t t t t t t t t t t t t t t t t t t t t t t t t t t t t t t t t t t t t t t t t t t t ",
"t t t t t t t t t t t t t t t t t t t t t t t t t t t t t t t t t t t t t t t t t t t t t t t t t t t t t t t t t t t ",
"t t t t t t t t t t t t t t t t t t t t t t t t t t t t t t t t t t t t t t t t t t t t t t t t t t t t t t t t t t t ",
"t t t t t t t t t t t t t t t t t t t t t t t t t t t t t t t t t t t t t t t t t t t t t t t t t t t t t t t t t t t ",
"[.[.[.[.[.t t t t t t t t t t t t t t t t t t t t t t t t t t t t t t t t t t t t t t t t t t t t t t t t t [.[.[.[.[.",
"[.[.[.[.[.t t t t t t t t t t t t t t t t t t t t t t t t t t t t t t t t t t t t t t t t t t t t t t t t t [.[.[.[.[.",
"[.[.[.[.[.t t t t t t t t t t t t t t t t t t t t t t t t t t t t t t t t t t t t t t t t t t t t t t t t t [.[.[.[.[.",
"[.[.[.[.[.t t t t t t t t t t t t t t t t t t t t t t t t t t t t t t t t t t t t t t t t t t t t t t t t t [.[.[.[.[.",
"[.[.[.[.[.t t t t t t t t t t t t t t t t t t t t t t t t t t t t t t t t t t t t t t t t t t t t t t t t t [.[.[.[.[."
};
