/* XPM */
static char *player_east[] = {
/* columns rows colors chars-per-pixel */
"96 96 87 1 ",
"  c black",
". c #010000",
"X c #000100",
"o c #010101",
"O c #000002",
"+ c #1F100B",
"@ c #20110A",
"# c #20110C",
"$ c #21120D",
"% c #2F211E",
"& c #2D221E",
"* c #3E2717",
"= c #3F2818",
"- c #2D2220",
"; c #3F3029",
": c #412716",
"> c #402617",
", c #412718",
"< c #402619",
"1 c #422618",
"2 c #41271A",
"3 c #42261A",
"4 c #402919",
"5 c #422819",
"6 c #402F28",
"7 c #422F29",
"8 c #412F2B",
"9 c #4F3524",
"0 c #4E3725",
"q c #4E3823",
"w c #413028",
"e c #413029",
"r c #42312A",
"t c #513623",
"y c #503723",
"u c #503625",
"i c #513625",
"p c #513726",
"a c #503627",
"s c #553923",
"d c #553B22",
"f c #563A22",
"g c #553B24",
"h c #563A24",
"j c #563A25",
"k c #573B25",
"l c #583924",
"z c #745237",
"x c #755337",
"c c #765337",
"v c #725239",
"b c #73533A",
"n c #755338",
"m c #765238",
"M c #75533A",
"N c #735438",
"B c #765439",
"V c #AD7A5B",
"C c #AC7B5B",
"Z c #AB7A5C",
"A c #AD7A5D",
"S c #AC7B5D",
"D c #AC7A5F",
"F c #AE7B5E",
"G c #AD7C5E",
"H c #1C4289",
"J c #1D438A",
"K c #1E438A",
"L c #1D4489",
"P c #2B64B5",
"I c #2B66B6",
"U c #2C65B6",
"Y c #2C64B7",
"T c #797D98",
"R c #787E98",
"E c #797F99",
"W c #787D9A",
"Q c #A5A7B4",
"! c #A4A8B3",
"~ c #A4A8B4",
"^ c #A5A9B5",
"/ c #C0AB8E",
"( c #C3AB8F",
") c #C1AC8D",
"_ c #C1AC8F",
"` c #C1AC91",
"' c #C2AD90",
/* pixels */
"nnnnnnnnnnnnnnnnnnnnnnnnnnnnnnnnnnnnnnnnnnnnnnnnnnnnnnnnnnnnnnnnnnnnnnnnuuuuuunnnnnnnnnnnnnnnnnn",
"nnnnnnnnnnnnnnnnnnnnnnnnnnnnnnnnnnnnnnnnnnnnnnnnnnnnnnnnnnnnnnnnnnnnnnnnuuuuuunnnnnnnnnnnnnnnnnn",
"nnnnnnnnnnnnnnnnnnnnnnnnnnnnnnnnnnnnnnnnnnnnnnnnnnnnnnnnnnnnnnnnnnnnnnnnuuuuuunnnnnnnnnnnnnnnnnn",
"nnnnnnnnnnnnnnnnnnnnnnnnnnnnnnnnnnnnnnnnnnnnnnnnnnnnnnnnnnnnnnnnnnnnnnnnuuuuuunnnnnnnnnnnnnnnnnn",
"nnnnnnnnnnnnnnnnnnnnnnnnnnnnnnnnnnnnnnnnnnnnnnnnnnnnnnnnnnnnnnnnnnnnnnnnuuuuuunnnnnnnnnnnnnnnnnn",
"nnnnnnnnnnnnnnnnnnnnnnnnnnnnnnnnnnnnnnnnnnnnnnnnnnnnnnnnnnnnnnnnnnnnnnnnuuuuuunnnnnnnnnnnnnnnnnn",
"nnnnnnnnnnnnnnnnnnnnnnnnnnnnnnnnnnnnnnnnnnnnnnnnnnnnnnnnnnnnnnnnnnnnnnnnuuuuuunnnnnnnnnnnnnnnnnn",
"nnnnnnnnnnnnnnnnnnnnnnnnnnnnnnnnnnnnnnnnnnnnnnnnnnnnnnnnnnnnnnnnnnnnnnnnuuuuuunnnnnnnnnnnnnnnnnn",
"nnnnnnnnnnnnnnnnnnnnnnnnnnnnnnnnnnnnnnnnnnnnnnnncnnnnnnnnnnnnnnnnnnnMnnnuuuuuunnnnnnnnnnnnnnnnnn",
"nnnnnnnnnnnnnnnnnnnnnnnnnnnn                nnnn   O O  nnnnnnnnnBznnnnnuuuuuunnnnnnnnnnnnnnnnnn",
"nnnnnnnnnnnnnnnnnnnnnnnnnnzn                nnnn  o     nnnnnnnnnnnnnnnnuuuuuuxnnnnnnnnnnnnnnnnn",
"nnnnnnnnnnnnnnnnnnnnnnnnnnnn   .        oO  nMnn        nnnnnnnnnnnnnnnnuuuuuunnnnnnnnnnnnnnnnnn",
"uuuuuuuuuuuuuuuuuuuuuuuunnnn              X nnnn  o     nnnnnnnnnnu0uuuuuuuuuuuuuuuuuuuuuuuuuuuu",
"uuuuuuuuuuuuuuuuuuuuuuuuBnnn    hhhhhhhh,,>,    hhhh            nxuuuuuuuuuuuuauuuuuuuuuuuuuuuuu",
"uuuuuuuuuuuuuuuuuuuuuuuuncnn    hhhhhhhh,,,,    hhhhX           nnuuuquuuuuuu9uuuuuuuuuuuuuuuuuu",
"uuuuuuuuuuuuuuuuuuuuuuuunnnn    hhhhhhhh,,,,  X hhhh            nnuuuuuuuuuuuuuuuuuuuuuuuuuuuuuu",
"uuuuuuuuuuuuuuuuuuuuuuuunnnn    hhhhhhhh,,,,    hflh X          ncuuu9uuuuuuuuuuuuuuuuuuuuuuuuuu",
"uuuuuuuuuuuuuuuuuuuuuuuunnxn O      hhhhhhhh,,,,hhhh,,,,hhhhhhhh    u0uuuuuuuuuuuuuuuuuuuuuuuuuu",
"nnnnnnnnnnnnnnnnnnnnnnnnnnnn        hhhhhhhh=,,,hhhh,1,,hhhhhhhh    nnBmnnnnnnnnnnnnnnnnnnnnnnnn",
"nnnnnnnnnnnnnnnnnnnnnnnnnnxnX       hhkhhshh,,,,hkhh,,,,hhhhhhhh    nnnnnnnnnnnnnnnnnnnnnnnnnnnn",
"nnnnnnnnnnnnnnnnnnnnnnnnnxnn       Ohhshhhhh,,,,hhhh,,,,hhhhhhhh  o cnnnnnnnnnnnnnnnnnnnnnnnnnnn",
"nnnnnnnnnnnnnnnnnnnnnnnn    ,,,,hhhhhhhhflhhfhghhhhhfhhhhhhhhhhhhhhh    nnnnnnnnnnnnnnnnnnnnnnnn",
"nnnnnnnnnnnnnnnnnnnnnnnn    ,,,,hhhhhhhhhhhfjhhhhhhhhhhhhhhhhhhhhhhh    nnnnnnnnnnnnnnnnnnnnnnnn",
"nnnnnnnnnnnnnnnnnnnnnnnn    ,,,,hhhhhhhhhhhhhhhhhhhhhhhhhhhhhhhhhhhh  o nnnnnnnnnnnnnnnnnnnnnnnn",
"nnnnnnnnnnnnnnnnnnnnnnnn    ,,,,hhhhhhhhhhhhhhhhhhhhhhhhhhhhhhhhhhhh    nnnnnnnnnnnnnnnnnnnnnnnn",
"nnnnnnnnnnnnnnnnnnnn    =,,,hhhhhhhhhhhhhhhhhhhhhhhhhhhhhhhhhhhhhhhhhhhh    nnnnnnnnnnnnnnnnnnnn",
"nnnnnnnnnnnnnnnnnnzn    ,4,,hhlhhhhhhhhhhhhhhhhhhhhhhhhhhhhhhhhhhhhhhhhh    nznnnnnnnnnnnnnnnnnn",
"nnnnnnnnnnnnnnnnnnnn   .,,,,hhhhhhhhhhhhhhhhhhhhhhhhhhhhhhhhhhhhhhhhhhhf.   nnnnnnnnnnnnnnnnnnnn",
"nnnnnnnnnnnnnnnnnnnn    ,,,,hhhhhhhhghhhhhhhhhhhhhhhghhhhhhghhhhhhlfhhlh    nnnnnnnnnnnnnnnnnnnn",
"nnnnnnnnnnnnnnnnBnnn    ,,1,hhhlhhhh:,*=hhhhhhhhhhhh:,*==*,:jhhhhhhhhhhh    nnnBnnnnnnnnnnnnnnnn",
"nnnnnnnnnnnnnnnnncnn    ,,,,hshhhhhh>,,,hhhhhhhhhhhh>,,,,,2>hhhhhhhhhhsh    nncnnnnnnnnnnnnnnnnn",
"nnnnnnnnnnnnnnnnnnnn    ,,,,hhhhhhhh,,,,hhhhhhhhhhhh,,,,,,,,hhhhhghhhhhh    nnnnnnnnnnnnnnnnnnnn",
"nnnnnnnnnnnnnnnnnnnn    ,,,,hhhhhhhg1,,,hhhhhhhhhhhh,,,,,,,3ghhhhhhhhhsl    xxnmnnnnnnnnnnnnnnnn",
"nnnnnnnnnnnnnnnnnnnn    ,,,,,,,,,,,,2,,,hhhhhhhhhhhf,,,,SSSDSSSS,,,,hhhh>,,,    nnnnnnnnnnnnnnnn",
"nnnnnnnnnnnnnnnnnnnn    ,,,,,,,,,,,,:,,,hhhhhhhhhhhk,,,,SSSSSSSS,:,,hhhh,,,>    nnnnnnnnnnnnnnnn",
"nnnnnnnnnnnnnnnnnnnn    ,,,,,,,,5,,,,,,,hhhhhhhhhhhh,1,,ZSSSSCSS:5,,hhsh,,,1    nnnnnnnnnnnnnnnn",
"nnnnnnnnnnnnnnnnnnnn    ,,,,,,,,,,,,,,,,hhhhhhhhhhkk,,,,DSSSSSSS,,,,hhhh1,1,    nnnnnnnnnnnnnnnn",
"nnnnnnnnnnnnnnnnnnnn    ,,,,hhhh,,,,,,>,hhhhhhhh>,,>ASSSSZSSSSSSSSSS,,,1,,,, X  nnnnnnnnnnnnnnnn",
"nnnnnnnnnnnnnnnnnnnn    ,,,,hhhh,,,,,,,,hhhhhhhh,,,,SSSSSSSSSSSSSSSS,,,,,,,,    nnnnnnnnnnnnnnnn",
"nnnnnnnnnnnnnnnnnnnn    ,,,,hhhh,,,,,,,,hhhhhhhh,=,,SSCSSSSSSSSSSSSS,,,,:,,,   Onnnnnnnnnnnnnnnn",
"nnnnnnnnnnnnnnnnnnnx    ,,,,hhhh,,,:2,,,hhhhhhsl,,,,SSSSSSSSSSSSCSSC,,,,,,,,    nnnnnnnnnMcnnNnn",
"nnnnnnnnnnnnnnnnnnxn    ,,,,hhhhhhhhSSAS,,,,hhhhSDSS####________####    ,,:,    nnnnnnnnnnBnxnnn",
"uuuuuuuuuuuuuuuuuuuu    ,,,,hhhhhhhhSSSS,:,,hhhhSSSS####________#$##.   ,,,,    nnnnnnnnxntuuuuu",
"uuuuuuuuuuuuuuuuuu0u   X,,,,hhhhhhhhSSSS:5,,hhshSSSS##+#________####    >,,,    nnnnnnnnnnuuuuuu",
"uuuuuuuuuuuuuuuuuuuu    ,,,,hhhhghhhSSSA,,,,hhhhSSSS####________####    2,,,    nnnnnnnnnnu9uuuu",
"uuuuuuuuuuuuuuuuuuuu    ,,,,,,,=hhhhSSSSSSSS,,,1____##@#________####        mnnnnnnnnnnnnnuuupau",
"uuuuuuuuuuuuuuuuuuuu    ,,,,<31,hhhhSSSSSSSS,,,,____####________####        nnnnnnnnnnnnnnu9u9uu",
"uuuuuuuuuuuuuuuuuuua    ,,,,,,,,hhhhSSSSSSSS,,,,____####________####        nnnnnnnnnnnnnnuuuuua",
"xnnnnniuuuuunnnmnnnn    ,,,,,,,:lhhhSZSSSSSS,,,,____####________####        nnnnnnnnnnnnnnnnnnnn",
"nnBnnnuuuuuunnnnnnnnnnnno   ,,5,,,,,SSSSSSSS_____________________(__    nnnnnnnnnnnnnnnnnnnnnnnn",
"nBnnnnuuuquunnnnnnnnnnnn   X,,,,,,,>GSSSGSSS________(_______________    nnnnnnnnnnnnnnnnnnnnnnnn",
"nnnnnnuuuuuunnnMBnnnnnnv    ,,,1,,,,SSSSSSSS________________________    vnnnnnnBnnnnnnnnnnnnnnnn",
"nnnnnzuuuuuunnnnnnnnnnnn    1,1,,,:,VSSASSSC______'`)___________/___    nnnnnnnnnnnnnnnnnnnnnnnn",
"nnnnnMuuuuuunnnnncnnnnnnnnnxO   ,,,,,,,,SSSSSCSF________________SSSA    nnnnnncnnnnnnnnnnnnnnnnn",
"nnBnnnnxnnxnnnnnnnnnnnnnnnnn    ,,,,,,,1SSSSGSSS__)_____________SSSS    nnnnnnnnnnnnnnnnnnnnnnnn",
"nnmnnbnnnnnnnnnnnnnnnnnnnnnn    ,,,,,,,,SSSSSSSS______(_________SSSS    nnnnnnnnnnnnnnnnnnnnnnnn",
"nnnnnnnnnnnnnnnnnnnnnnnnnnnn    ,,,,,,,,SSSSSSSS_____________``_SSSS    nnnnnnnnnnnnnnnnnnnnnnnn",
"nnnnnnnnnnnnnnnnnnnnnnnnnnnnnnnn    ,,,,,,,,SSSSSSSSSSSSSSSSSSSS    Bnnnnnnnnnnnnnnnnnnnnnnnnnnn",
"nnnnnnnnnnnnnnnnnnnnnnnnnnnnnnnn    1>2,,,,,SSSSSSSSSSSSSCSSSSSS    xnnnnnnnnnnnnnnnnnnnnnnnnnnn",
"nnnnnnnnnnnnnnnnnnnnnnnnBnnnnnnv    ,,,,,,,2SSDSSSSSSSSSSSSSSSSS    nnnnnnnnnnnnnnnnnnnnnnnnnnnn",
"nnnnnnnnnnnnnnnnnnnnnnnnnnnnnnnn    ,,,,,,,,SSSSSSSSSSSSSSSSSSSS.   nnnnnnnnnnnnnnnnnnnnnnnnnnnn",
"nnnnnnnnnnnnnnnnnnnnnnnnncnnnnnn O  ,,,,,,,,hhhhRRRRRRRRRRRR,,,,    nnnnnnnnnnnnnnnnnnnnnnnnnnnn",
"nnnnnnnnnnnnnnnnnnnnnnnnnnnnnnnn    ,,,,,,,,hhhhRRRRRRRRRRRR,,,,    nnnnnnnnnnnnnnnnnnnnnnnnnnnn",
"nnnnnnnnnnnnnnnnnnnnnnnnnnnnnnnn    ,,,,,1,,hhhhRRRRRRRRRRRR,,>,   Xnnnnnnnnnnnnnnnnnnnnnnnnnnnn",
"nnnnnnnnnnnnnnnnnnnnnnnnnnnnnnnn    ,,,,,,,3dhhhRWRRRRRRRRRT,,,,    nnnnnnnnnnnnnnnnnnnnnnnnnnnn",
"nnnnnnnnnnnnnnnnnnnnnnnnnnnnnnnn    ,,,,hhhhfhhhRRRRRRRRQ~~~,,,, .  nnnnnnnnnnnnnnnnnnnnnnnnnnnn",
"nnnnnnnnnnnnnnnnnnnnnnnnnnnnnnnn    ,,5,hhhhjhhhRRRRREER~~~~,,,,    nnnnnnnnnnnnnnnnnnnnnnnnnnnn",
"nnnnnnnnnnnnnnnnnnnnnnnnnnnnnnnn    ,,,,shhhhfhhWRRRWRRR~~~~,,,,    nnnnnnnnnnnnnnnnnnnnnnnnnnnn",
"nnnnnnnnnnnnnnnnnnnnnnnnnnnnnnnn    ,,,,hshhhhhfRRRRTRRR~~~~,,,,    Bnnnnnnnnnnnnnnnnnnnnnnnnnnn",
"nnnnnnnnnnnnnnnnnnnnnnnnnnnn    )_______hhhhhhkhRRRR~!QQ~~~~,,,,SSSS    nnnnnnnnnnnnnnnnnnnnnnnn",
"nnnnnnnnnnnnnnnnnnnnnnnnnnnn    ________hhhhhhhhRRRR~^~~~~~~,,,:SSSS    nnnnnnnnnnnnnnnnnnnnnnnn",
"nnnnnnnnnnnnnnnnnnnnnnnnnnnn    ________hhhhhhhhRRRR~~~~~~~~,,,>SSSS    nnnnnnnnnnnnnnnnnnnnnnnn",
"uuuuuuuuuuuuuuuuuinnnnnxnnnn    ________hhhhhhhhRRRR~~~~~~~~,,,,SSSSX   yuuuuyiuuuuuuuuuuuuuuuuu",
"uuuuuuuuuuuuuuuuuunnnnnnnnnn    ________hhhhhhhhUUUUUUUUUUUU,,,,SSSS    uuuuuuuuuuuuuuuuuuuuuuuu",
"uuuuuuuuuuuuuuuuuunnnzBnnnnn    ________hhhhhhhhUUUUUUUUUUPU,,,,SSSS    uu9uuuuuuuuuuuuuuuuuuuuu",
"uuuuuuuuuuuuuuuuuunnBnnnnnnn    ________hhhhhhhhUUUUUUUUUUUU,,:,GSSS    uuuuuuuuuuuuuuuuuuuuuuuu",
"uuuuuuuuuuuuuuuuuunnnnnnnnnn    ___`)___hhhhhhhhUUUUUUUUUUUU,,,,SCSC    uuuu99uuuuuuuuuuuuuuuuuu",
"uuuuuuuuuuuuuuuuu9MnnnnnxnnN7wee    JJJJUUUUUUUUJJJJUUUUUUUU        &&&&uuuu9uiuuuuuuuuuuuuuuuuu",
"nnnnnnnnnnnnnnnnxnnnnnnnnnnmeeee    HHJJUUUUUUUUJJJHUUUYUUUU        eeeeuuuuuunxnnnnnnnnnnnnnnnn",
"nnnnnnnnnnnnnnnnnnbnnmnnnnnneeee    JJJJUUUUUUUUJJLKUUUUUUUU.       e7eeuuiuu0xnnnnnnnnnnnnnnnnn",
"nnnnnnnnnnnnnnnnnnnnnnnnnnnneeee    JJJJUUUUUUUUJJJLUUIUPUIU   o   Oreeeuuuuuunnnnnnnnnnnnnnnnnn",
"nnnnnnnnnnnnnnnnnnnnnnnneeeeeeee    ,1,,hhhh        ,>,,hhhh    eeweeeee&%&-uunnnnnnnnnnnnnnnnnn",
"nnnnnnnnnnnnnnnnnnnnnnnneeeeeeee    ,,,,hhhh        ,,,,hfhh  O eeeeeeee&&-&u0nnnnnnnnnnnnnnnnnn",
"nnnnnnnnnnnnnnnnnnnnnnnneeeeeeee    ,,,,hhhh        ,,,,hhhh    eeeeeeee&&&&uiBnnnnnnnnnnnnnnnnn",
"nnnnnnnnnnnnnnnnnnnnnnnn;6e8w;ee    ,,,,hhhlO o     ,,,,hhhh    6eeeeeere6eennBNnnnnnnnnnnnnnnnn",
"nnnnnnnnnnnnnnnnnnnnnnnneeeeeeweeee8weeeeeeeeeeeeeee6eeeeeeeeeeeeeee7eeee;eennnnnnnnnnnnnnnnnnnn",
"nnnnnnnnnnnnnnnnnnnnnnnneeeeeeeeeeeeweeeeeeeeeee6eeeeeereeeeeeeeeeeeeeeeeeeexznnnnnnnnnnnnnnnnnn",
"nnnnnnnnnnnnnnnnnnnnnnnne7eeeeeeeeeeeeeeeeeeeeeee6eeeereeeeeeeeeeeeeeeeeeeeenNnxnnnnnnnnnnnnnnnn",
"nnnnnnnnnnnnnnnnnnnnnnnneeeeeeeeeeeeeeeeeeeeeeeeeeeeeeeeeeeeeeeeeeeeeeeeeereBnnnnnnnnnnnnnnnnnnn",
"nnnnnnnnnnnnnnnnnnnnnnnnxnnneee8eeeeeeeeeeeeeeeeeeeeeeeeeeeeeeeeeeeeeeeennnnnnnnnnnnnnnnnnnnnnnn",
"nnnnnnnnnnnnnnnnnnnnnnnnnnnneeeeeeeeeeeeeeeeeeeeeeeeeeeeeeeeeeeeeeeeeeeennnnnnnnnnnnnnnnnnnnnnnn",
"nnnnnnnnnnnnnnnnnnnnnnnnnnnneeeeeeeeeeeeeeeeeeeeeeeeeeeeeeeeeeeeeeeeeeeennnnnnnnnnnnnnnnnnnnnnnn",
"nnnnnnnnnnnnnnnnnnnnnnnnnMnneeeeeeeeeeeeeeeeeeeeeeeeeeeeeeeeeeeeeeeeeeeemnnxMmnnnnnnnnnnnnnnnnnn",
"nnnnnnnnnnnnnnnnnnnnnnnnnnnnnnnnnnnnnnnnnnnnnnnnnnnnnnnnnnnnnnnnnnnnnnnnnnnnnnnnnnnnnnnnnnnnnnnn",
"nnnnnnnnnnnnnnnnnnnnnnnnnnnnnnnnnnnnnnnnnnnnnnnnnnnnnnnnnnnnnnnnnnnnnnnnnnnnnxnnnnnnnnnnnnnnnnnn",
"nnnnnnnnnnnnnnnnnnnnnnnnnxnnnnnnnnnnnnnnnnnnnnnnnnnnnnnnnnnnnnnnnnnnnnnnnNnnnnnnnnnnnnnnnnnnnnnn"
};
