/* XPM */
static char *RA1[] = {
/* columns rows colors chars-per-pixel */
"96 65 156 2 ",
"   c #000000",
".  c #0B0704",
"X  c #0F0906",
"o  c #050609",
"O  c #0B0A09",
"+  c #110A06",
"@  c #160E08",
"#  c #190F09",
"$  c #1D120B",
"%  c #171009",
"&  c #0C0E19",
"*  c #151618",
"=  c #1D1815",
"-  c #21120D",
";  c #25180E",
":  c #29190F",
">  c #2D1D12",
",  c #231811",
"<  c #321F12",
"1  c #2B241E",
"2  c #352214",
"3  c #3A2516",
"4  c #3D2919",
"5  c #37281E",
"6  c #1D1E20",
"7  c #242527",
"8  c #2B2C2F",
"9  c #26272A",
"0  c #332D26",
"q  c #3D2C24",
"w  c #323337",
"e  c #37383D",
"r  c #402717",
"t  c #442B19",
"y  c #492F1C",
"u  c #4C311E",
"i  c #50341F",
"p  c #433024",
"a  c #4B3322",
"s  c #523621",
"d  c #573A23",
"f  c #5A3C26",
"g  c #5D3D29",
"h  c #4B3D33",
"j  c #523E33",
"k  c #5D4129",
"l  c #4F473B",
"z  c #4A4135",
"x  c #52423D",
"c  c #544B3E",
"v  c #5A4335",
"b  c #60412B",
"n  c #6B4833",
"m  c #654934",
"M  c #734F38",
"N  c #6A523E",
"B  c #76523E",
"V  c #7D563F",
"C  c #73583F",
"Z  c #0B1C52",
"A  c #0D205E",
"S  c #132B59",
"D  c #3A3B40",
"F  c #0E2362",
"G  c #16336C",
"H  c #183772",
"J  c #18397E",
"K  c #1E3974",
"L  c #223F7B",
"P  c #413D44",
"I  c #404247",
"U  c #4A474E",
"Y  c #47494F",
"T  c #4E4E4E",
"R  c #494649",
"E  c #5A4940",
"W  c #544644",
"Q  c #4C4E54",
"!  c #614E45",
"~  c #6C5A4A",
"^  c #7F5942",
"/  c #725B46",
"(  c #60585F",
")  c #726554",
"_  c #575960",
"`  c #5D5D60",
"'  c #695F62",
"]  c #6F6461",
"[  c #62656D",
"{  c DimGray",
"}  c #626265",
"|  c #7B6E68",
" . c #766A65",
".. c #686B73",
"X. c #72757E",
"o. c #7A7A7A",
"O. c #825B44",
"+. c #885F46",
"@. c #896045",
"#. c #8E654D",
"$. c #876149",
"%. c #91664B",
"&. c #94694E",
"*. c #8B6F59",
"=. c #936E56",
"-. c #9D7155",
";. c #A37457",
":. c #A47659",
">. c #AC7B5D",
",. c #927E69",
"<. c #A77B62",
"1. c #AE7F61",
"2. c #97846D",
"3. c #9F8B73",
"4. c #B2896B",
"5. c #B48E71",
"6. c #AA957B",
"7. c #B89779",
"8. c #AA876B",
"9. c #1B3E83",
"0. c #1D438A",
"q. c #26589D",
"w. c #335A94",
"e. c #345C99",
"r. c #3D67A4",
"t. c #2C65B5",
"y. c #7D7E84",
"u. c #757881",
"i. c #787E97",
"p. c #4674B5",
"a. c #807E88",
"s. c #7D808A",
"d. c #7D839B",
"f. c #80838E",
"g. c #89898B",
"h. c #8B8C91",
"j. c #83899F",
"k. c #8F929D",
"l. c #91949E",
"z. c #8D92A5",
"x. c #9194A0",
"c. c #9B9FAB",
"v. c #979AA6",
"b. c #9DA1AD",
"n. c #A9AAAE",
"m. c #A1A5B1",
"M. c #A4A8B5",
"N. c #ABAEBA",
"B. c #C1AC8F",
"V. c #B9BCC6",
"C. c #C0C2CC",
"Z. c #CDCED0",
"A. c #D0D2D8",
"S. c #DBDCE1",
"D. c white",
"F. c None",
/* pixels */
"F.F.F.F.F.F.F.F.F.F.F.F.F.F.F.F.F.F.F.F.F.F.F.F.F.F.F.F.F.F.F.F.F.F.F.F.F.F.F.F.F.F.F.F.F.F.F.F.F.F.F.F.F.F.F.F.            F.F.F.                      F.F.F.F.F.F.F.F.F.F.F.F.F.F.F.F.F.F.F.F.",
"F.F.F.F.F.F.F.F.F.F.F.F.F.F.F.F.F.F.F.F.F.F.F.F.F.F.F.F.F.F.F.F.F.F.F.F.F.F.F.F.F.F.F.F.F.F.F.F.F.F.F.F.F.F.F.F.            F.F.F.                      F.F.F.F.F.F.F.F.F.F.F.F.F.F.F.F.F.F.F.F.",
"F.F.F.F.F.F.F.F.F.F.F.F.F.F.F.F.F.F.F.F.F.F.F.F.F.F.F.F.F.F.F.F.F.F.F.F.F.F.F.F.F.F.F.F.F.F.F.F.F.F.F.F.F.F.F.F.      . X X F.F.F.. . . X X + X X .     F.F.F.F.F.F.F.F.F.F.F.F.F.F.F.F.F.F.F.F.",
"F.F.F.F.F.F.F.F.F.F.F.F.F.F.F.F.F.F.F.F.F.F.F.F.F.F.F.F.F.F.F.F.F.F.F.F.F.F.F.F.F.F.F.F.F.F.F.F.F.F.F.                4 d d .   . r r t d d d d d ;     F.F.F.F.F.F.F.F.F.F.F.F.F.F.F.F.F.F.F.F.",
"F.F.F.F.F.F.F.F.F.F.F.F.F.F.F.F.F.F.F.F.F.F.F.F.F.F.F.F.F.F.F.F.F.F.F.F.F.F.F.F.F.F.F.F.F.F.F.F.F.F.F.                4 d d .   . 3 r t d d d d d ;     F.F.F.F.F.F.F.F.F.F.F.F.F.F.F.F.F.F.F.F.",
"F.F.F.F.F.F.F.F.F.F.F.F.F.F.F.F.F.F.F.F.F.F.F.F.F.F.F.F.F.F.F.F.F.F.F.F.F.F.F.F.F.F.F.F.F.F.F.F.F.F.F.$ = $ $ - $ @ % t d d $ % $ u y u d d u 3 2 @     F.F.F.F.F.F.F.F.F.F.F.F.F.F.F.F.F.F.F.F.",
"F.F.F.F.F.F.F.F.F.F.F.F.F.F.F.F.F.F.F.F.F.F.F.F.F.F.F.F.F.F.F.F.F.F.F.F.F.F.F.F.F.F.F.F.F.F.F.F.    X d d d d d u 4 r i d d t 4 4 i d d d d 2           F.F.F.F.F.F.F.F.F.F.F.F.F.F.F.F.F.F.F.F.",
"F.F.F.F.F.F.F.F.F.F.F.F.F.F.F.F.F.F.F.F.F.F.F.F.F.F.F.F.F.F.F.F.F.F.F.F.F.F.F.F.F.F.F.F.F.F.F.F.    + d d d d d y 4 r i d d t r t d d d d d < .         F.F.F.F.F.F.F.F.F.F.F.F.F.F.F.F.F.F.F.F.",
"F.F.F.F.F.F.F.F.F.F.F.F.F.F.F.F.F.F.F.F.F.F.F.F.F.F.F.F.F.F.F.F.F.F.F.F.F.F.F.F.F.F.F.F.F.F.    < < r d d d d d i y i i d d i u i i f d d d u < > ; - - X     F.F.F.F.F.F.F.F.F.F.F.F.F.F.F.F.F.",
"F.F.F.F.F.F.F.F.F.F.F.F.F.F.F.F.F.F.F.F.F.F.F.F.F.F.F.F.F.F.F.F.F.F.F.F.F.F.F.F.F.F.F.F.F.      i f i d d d d d d d d d d d d d d d d d d d d d d u r r +     F.F.F.F.F.F.F.F.F.F.F.F.F.F.F.F.F.",
"F.F.F.F.F.F.F.F.F.F.F.F.F.F.F.F.F.F.F.F.F.F.F.F.F.F.F.F.F.F.F.F.F.F.F.F.F.F.F.F.F.F.F.F.F.      d d d d d d d d d d d d d d d i d d d d d d d d d u r r +     F.F.F.F.F.F.F.F.F.F.F.F.F.F.F.F.F.",
"F.F.F.F.F.F.F.F.F.F.F.F.F.F.F.F.F.F.F.F.F.F.F.F.F.F.F.F.F.F.F.F.F.F.F.F.F.F.F.F.F.F.F.    2 4 4 d d d d d d d d d d d d d d d f d d d d d d d d d i i i 2 : >       F.F.F.F.F.F.F.F.F.F.F.F.F.F.",
"F.F.F.F.F.F.F.F.F.F.F.F.F.F.F.F.F.F.F.F.F.F.F.F.F.F.F.F.F.F.F.F.F.F.F.F.F.F.F.F.F.F.      y d d d d d d d d d d f f k i d d d d f i f d f i f i d d d d t r r       F.F.F.F.F.F.F.F.F.F.F.F.F.F.",
"F.F.F.F.F.F.F.F.F.F.F.F.F.F.F.F.F.F.F.F.F.F.F.F.F.F.F.F.F.F.F.F.F.F.F.F.F.F.F.F.F.F.      y d d d d d d f i d d i f i i d d d d k i d d i b i f d d d d t r r .     F.F.F.F.F.F.F.F.F.F.F.F.F.F.",
"F.F.F.F.F.F.F.F.F.F.F.F.F.F.F.F.F.F.F.F.F.F.F.F.F.F.F.F.F.F.F.F.F.F.F.F.F.F.F.F.F.F.      y d d d d d d f i t t y t y i f f d i i f i i y y u i d d d d t r r .     F.F.F.F.F.F.F.F.F.F.F.F.F.F.",
"F.F.F.F.F.F.F.F.F.F.F.F.F.F.F.F.F.F.F.F.F.F.F.F.F.F.F.F.F.F.F.F.F.F.F.F.F.F.F.F.F.F.      y d d d d d d i i r r r r y i i i f f k i k i r r u d d d d d t r r       F.F.F.F.F.F.F.F.F.F.F.F.F.F.",
"F.F.F.F.F.F.F.F.F.F.F.F.F.F.F.F.F.F.F.F.F.F.F.F.F.F.F.F.F.F.F.F.F.F.F.F.F.F.F.F.F.F.      u d d d i d f f i y t t r r i d d d d d d d i r r y d d d d d t r r       F.F.F.F.F.F.F.F.F.F.F.F.F.F.",
"F.F.F.F.F.F.F.F.F.F.F.F.F.F.F.F.F.F.F.F.F.F.F.F.F.F.F.F.F.F.F.F.F.F.F.F.F.F.F.F.    : r 4 s d d t t i 4.>.>.>.>.M r r i d d d d d d d s r r r r r r r r r r r .     F.F.F.F.F.F.F.F.F.F.F.F.F.F.",
"F.F.F.F.F.F.F.F.F.F.F.F.F.F.F.F.F.F.F.F.F.F.F.F.F.F.F.F.F.F.F.F.F.F.F.F.F.F.F.F.    : r r i d d r r i >.>.>.>.>.M r r i d d d d d d d i r r r r r r r r r r r       F.F.F.F.F.F.F.F.F.F.F.F.F.F.",
"F.F.F.F.F.F.F.F.F.F.F.F.F.F.F.F.F.F.F.F.F.F.F.F.F.F.F.F.F.F.F.F.F.F.F.F.F.F.F.F.    : r r i s s i f b >.>.>.>.>.V d f s i i d d d d d s r r r r r t t t t r r       F.F.F.F.F.F.F.F.F.F.F.F.F.F.",
"F.F.F.F.F.F.F.F.F.F.F.F.F.F.F.F.F.F.F.F.F.F.F.F.F.F.F.F.F.F.F.F.F.F.F.F.F.F.F.F.    : r r r r r 4.>.>.>.>.>.>.>.>.>.>.b r r d d d d d i r r r r r u d d t r r .     F.F.F.F.F.F.F.F.F.F.F.F.F.F.",
"F.F.F.F.F.F.F.F.F.F.F.F.F.F.F.F.F.F.F.F.F.F.F.F.F.F.F.F.F.F.F.F.F.F.F.F.F.F.F.F.    : r r r r r >.>.>.>.>.>.>.>.>.>.>.g r r d d d d d i r r r r r i d d t r r       F.F.F.F.F.F.F.F.F.F.F.F.F.F.",
"F.F.F.F.F.F.F.F.F.F.F.F.F.F.F.F.F.F.F.F.F.F.F.F.F.F.F.F.F.F.F.F.F.F.F.F.F.F.F.F.    : r r N / / M M @.5.5.5.5.5.=.M M M n n d d f i i s n n g y y i d d t r r       F.F.F.F.F.F.F.F.F.F.F.F.F.F.",
"F.F.F.F.F.F.F.F.F.F.F.F.F.F.F.F.F.F.F.F.F.F.F.F.F.F.F.F.F.F.F.F.F.F.F.F.F.F.F.F.    : r r 6.B.B.- - t B.B.B.B.B.~ - - +.>.>.b d s r r f >.>.@.d d d d d t r r .     F.F.F.F.F.F.F.F.F.F.F.F.F.F.",
"F.F.F.F.F.F.F.F.F.F.F.F.F.F.F.F.F.F.F.F.F.F.F.F.F.F.F.F.F.F.F.F.F.F.F.F.F.F.F.F.    : r r 6.B.B.- - q B.B.B.B.B.~ - - O.1.1.g d s r r f >.>.@.d d d d d t r r       F.F.F.F.F.F.F.F.F.F.F.F.F.F.",
"F.F.F.F.F.F.F.F.F.F.F.F.F.F.F.F.F.F.F.F.F.F.F.F.F.F.F.F.F.F.F.F.F.F.F.F.F.F.F.F.F.F.@ $ $ h c c - # q B.B.B.B.B.~ - - *.7.7.f y u V ^ +.>.>.@.d d i y u t r r .     F.F.F.F.F.F.F.F.F.F.F.F.F.F.",
"F.F.F.F.F.F.F.F.F.F.F.F.F.F.F.F.F.F.F.F.F.F.F.F.F.F.F.F.F.F.F.F.F.F.F.F.F.F.F.F.F.F.            - - q B.B.B.B.B.~ - - ,.B.B.s r y >.>.>.>.>.+.d d y r r r r r       F.F.F.F.F.F.F.F.F.F.F.F.F.F.",
"F.F.F.F.F.F.F.F.F.F.F.F.F.F.F.F.F.F.F.F.F.F.F.F.F.F.F.F.F.F.F.F.F.F.F.F.F.F.F.F.F.F.            - - q B.B.B.B.B.~ - - ,.B.B.a r t >.>.>.>.>.+.d d y r r r r r       F.F.F.F.F.F.F.F.F.F.F.F.F.F.",
"F.F.F.F.F.F.F.F.F.F.F.F.F.F.F.F.F.D.D.D.D.D.D.D.D.D.D.D.D.D.D.F.F.F.F.F.F.F.F.F.F.F.            ,.,.3.B.B.B.B.B.B.2.,.1.4.1.&.%.%.>.>.>.>.>.+.t y r r r $ + + F.F.F.F.F.F.F.F.F.F.F.F.F.F.F.F.F.",
"F.F.F.F.F.F.F.F.F.F.F.F.F.F.F.F.F.D.D.D.D.D.D.D.D.D.D.D.D.D.D.F.F.F.F.F.F.F.F.F.F.F.            B.B.B.B.B.B.B.B.B.B.B.4.1.1.1.1.>.>.>.>.>.>.V r r r r r X     F.F.F.F.F.F.F.F.F.F.F.F.F.F.F.F.F.",
"F.F.F.F.F.F.F.F.F.F.F.F.F.F.F.F.F.D.D.D.D.D.D.D.D.D.D.D.D.D.D.F.F.F.F.F.F.F.F.F.F.F.            B.B.B.B.B.B.B.B.B.B.B.4.>.>.>.>.>.>.>.>.>.>.V r r r r r X     F.F.F.F.F.F.F.F.F.F.F.F.F.F.F.F.F.",
"F.F.F.F.F.F.F.F.F.F.F.D.D.D.D.D.D.D.D.D.D.D.D.D.D.F.F.F.F.F.F.F.F.F.F.F.F.F.F.F.F.F.F.F.F.    o 1.1.1.1.1.1.1.1.<.<.1.>.>.>.>.>.>.>.>.$.+ + ; r r $ .   F.F.F.F.F.F.F.F.F.F.F.F.F.F.F.F.F.F.F.F.",
"F.F.F.F.F.F.F.F.F.F.F.D.D.D.D.D.D.D.D.D.D.D.D.D.D.F.F.F.F.F.F.F.F.F.F.F.F.F.F.F.F.F.F.F.F.      >.>.>.>.>.>.>.>.>.>.<.>.>.>.>.>.8.:.>.@.    $ r r @     F.F.F.F.F.F.F.F.F.F.F.F.F.F.F.F.F.F.F.F.",
"F.F.F.F.F.F.F.F.F.F.F.D.D.D.D.D.D.D.D.D.D.D.D.D.D.F.F.F.F.F.F.F.F.F.F.F.F.F.F.F.F.F.F.F.F.      -.-.-.;.;.:.<.<.<.<.<.:.;.;.:.:.;.;.;.^     @ 3 3 #     F.F.F.F.F.F.F.F.F.F.F.F.F.F.F.F.F.F.F.F.",
"F.F.F.F.F.F.D.D.D.D.D.D.D.D.D.D.D.D.D.D.D.D.D.F.F.F.F.F.F.F.F.F.F.F.F.F.F.F.F.F.F.F.F.F.F.          . r r W i.i.i.i.i.W r r d d s k k t           F.F.F.F.F.F.F.F.F.F.F.F.                      ",
"F.F.F.F.F.F.D.D.D.D.D.D.D.D.D.D.D.D.D.D.D.D.D.F.F.F.F.F.F.F.F.F.F.F.F.F.F.F.F.F.F.F.F.F.F.          . r r W i.i.i.i.i.j r r s d i k s t           F.F.F.F.F.F.F.F.F.F.F.F.                      ",
"F.F.F.F.F.D.D.D.D.D.D.D.D.D.D.D.D.D.D.D.D.D.F.F.F.F.F.F.F.F.F.F.F.F.F.F.F.F.F.F.F.F.F.F.F.> > 1 + + = c E ' j.j.d.i.i.W t t d d d / C m 0 0 =     F.F.F.F.F.F.F.F.F.F.F.F.8 8 8 8 8 8 8 8 o     ",
"F.F.F.D.D.D.D.D.D.D.D.D.D.D.D.D.D.D.D.D.F.F.F.F.F.F.F.F.F.F.F.F.F.F.F.F.F.F.F.F.F.F.      #.>.>.r r j M.M.M.M.M.z.i.i.! d d d d k B.B.B.B.B.)     F.F.F.F.F.F.          w M.M.M.M.M.M.M.M.6     ",
"F.F.F.D.D.D.D.D.D.D.D.D.D.D.D.D.D.D.D.D.F.F.F.F.F.F.F.F.F.F.F.F.F.F.F.F.F.F.F.F.F.F.      #.>.>.r r j M.M.M.M.M.z.i.i.E d d d d k B.B.B.B.B.)     F.F.F.F.F.F.          w M.M.M.M.M.M.M.M.6     ",
"F.F.D.D.D.D.D.D.D.D.D.D.D.D.D.D.D.D.D.D.F.F.F.F.F.F.F.F.F.F.F.F.F.F.F.F.F.F.F.F.F.F.      #.>.>.r r j M.M.M.M.M.y.' ' g d d i u d B.B.B.B.B.2.W c 0 F.F.F.F.F.Y Y Y Y Y [ M.M.M.M.M.M.M.M.6     ",
"D.D.D.D.D.D.D.D.D.D.D.D.D.D.D.D.D.D.D.D.F.F.F.F.F.F.F.F.F.F.F.F.F.F.F.F.F.F.F.F.F.F.      #.>.>.r r j M.M.M.M.M.' r r s d d r r y B.B.B.B.B.B.B.B.l           c.M.M.M.M.M.M.M.M.M.M.M.M.M.6     ",
"D.D.D.D.D.D.D.D.D.D.D.D.D.D.D.D.D.D.D.D.F.F.F.F.F.F.F.F.F.F.F.F.F.F.F.F.F.F.F.F.F.F.      #.>.>.r 4 j M.M.M.M.M.] r r s d d r r y B.B.B.B.B.B.B.B.l           c.M.M.M.M.M.M.M.M.M.M.M.M.M.6     ",
"D.D.D.D.D.D.D.D.D.D.D.D.D.D.D.D.D.D.D.D.F.F.F.F.F.F.F.F.F.F.F.F.F.F.F.F.F.F.F.F.F.F.      5 p p r r j M.M.M.M.M. .u u s f s - # , B.B.B.B.B.B.B.B.l     Q [ [ m.M.M.M.M.M.M.M.M.M.M.[ I I F.F.F.",
"D.D.D.D.D.D.D.D.D.D.D.D.D.D.D.D.D.D.D.D.F.F.F.F.F.F.F.F.F.F.F.F.F.F.F.F.F.F.F.F.F.F.            r r j M.M.M.M.M.| d f d d f X   O B.B.B.B.B.B.B.B.l     s.M.M.M.M.M.M.M.M.M.M.M.M.M.D     F.F.F.",
"D.D.D.D.D.D.D.D.D.D.D.D.D.D.D.D.D.D.D.D.F.F.F.F.F.F.F.F.F.F.F.F.F.F.F.F.F.F.F.F.F.F.            r 3 j M.M.M.M.M.| f d d d d X   O B.B.B.B.B.B.B.B.c     s.M.M.M.M.M.M.M.M.M.M.M.M.M.D     F.F.F.",
"D.D.D.D.D.D.D.D.D.D.D.D.D.D.D.D.D.D.D.D.D.D.F.F.F.F.F.F.F.F.F.F.F.F.F.F.F.F.F.F.F.F.      S G G w.w.w.p.p.p.p.p.r.w.w.W d d 2 < < 1 1 1 1 1 1 7 7 ( f.f.c.M.M.M.M.M.M.M.M.M.M...7 7 F.F.F.F.F.F.",
"D.D.D.D.D.D.D.D.D.D.D.D.D.D.D.D.D.D.D.D.D.D.D.F.F.F.F.F.F.F.F.F.F.F.F.F.F.F.F.F.F.F.      H 0.0.t.t.t.t.t.t.t.t.t.t.t.U d d r r 4                 } M.M.M.M.M.M.M.M.M.M.M.M.M._     F.F.F.F.F.F.",
"D.D.D.D.D.D.D.D.D.D.D.D.D.D.D.D.D.D.D.D.D.D.D.F.F.F.F.F.F.F.F.F.F.F.F.F.F.F.F.F.F.F.      H 0.0.t.t.t.t.t.t.t.t.t.t.t.U d d t r 4                 [ M.M.M.M.M.M.M.M.M.M.M.M.M._     F.F.F.F.F.F.",
"F.F.F.D.D.D.D.D.D.D.D.D.D.D.D.D.D.D.D.D.D.D.D.D.D.F.F.F.F.F.F.F.F.F.F.F.F.F.F.o     2 s s j d d 0.0.9.F F 9.t.t.t.t.t.U f d O         9 b.b.b.b.b.m.M.M.M.M.M.M.M.M.M.M.u.o . o F.F.F.F.F.F.F.F.",
"F.F.F.D.D.D.D.D.D.D.D.D.D.D.D.D.D.D.D.D.D.D.D.D.D.F.F.F.F.F.F.F.F.F.F.F.F.& & o     4 d d d d d 0.0.9.F Z J t.t.t.t.t.U d d .         9 M.M.M.M.M.M.M.M.M.M.M.M.M.M.M.M.u.      F.F.F.F.F.F.F.F.",
"F.F.F.D.D.D.D.D.D.D.D.D.D.D.D.D.D.D.D.D.D.D.D.D.D.F.F.F.F.F.F.F.F.F.F.F.F.& & o     3 d d d d d L L L Z Z G q.q.q.q.q.P a a = * * * * e M.M.M.M.M.M.M.M.M.M.M.x.k.k.k.k...    F.F.F.F.F.F.F.F.F.",
"F.F.F.D.D.D.D.D.D.D.D.D.D.D.D.D.D.D.D.D.D.D.D.D.D.D.D.D.D.D.D.F.F.F.& & & & & o     2 d d d d d r r <                       x.M.M.M.M.M.M.M.M.M.M.M.M.M.M.M.M.O           F.F.F.F.F.F.F.F.F.F.F.",
"F.F.F.D.D.D.D.D.D.D.D.D.D.D.D.D.D.D.D.D.D.D.D.D.D.D.D.D.D.D.D.F.F.F.& & & & & o     3 d d d d d r r 2                       x.M.M.M.M.M.M.M.M.M.M.M.M.M.M.M.M.O           F.F.F.F.F.F.F.F.F.F.F.",
"F.F.F.D.D.D.D.D.D.D.D.D.D.D.D.D.D.D.D.D.D.D.D.D.D.D.D.D.D.D.D.F.F.F.y.y.y.y.y.} T T h a a a a y > : < w w w w w w w w w w w v.M.M.M.M.N.C.C.C.C.C.l.X.X.X.X.X.O         F.F.F.F.F.F.F.F.F.F.F.F.",
"F.F.F.F.F.F.D.D.D.D.D.D.D.D.D.D.D.D.D.D.D.D.D.D.D.D.D.D.D.D.D.D.D.D.D.D.D.D.D.D.D.D.h.& & & & &     6 M.M.M.M.M.M.M.M.M.M.M.M.M.M.M.M.V.D.D.D.D.D.{           F.F.F.F.F.F.F.F.F.F.F.F.F.F.F.F.F.",
"F.F.F.F.F.F.D.D.D.D.D.D.D.D.D.D.D.D.D.D.D.D.D.D.D.D.D.D.D.D.D.D.D.D.D.D.D.D.D.D.D.D.h.& & & & &     6 M.M.M.M.M.M.M.M.M.M.M.M.M.M.M.M.V.D.D.D.D.D.{           F.F.F.F.F.F.F.F.F.F.F.F.F.F.F.F.F.",
"F.F.F.F.F.F.D.D.D.D.D.D.D.D.D.D.D.D.D.D.D.D.D.D.D.D.D.D.D.D.D.D.D.D.D.D.D.D.D.D.D.D.Z.n.n.n.n.n.o.o.g.A.A.A.A.A.A.A.A.A.A.A.A.A.A.A.A.S.D.D.D.D.D.{           F.F.F.F.F.F.F.F.F.F.F.F.F.F.F.F.F.",
"F.F.F.F.F.F.F.F.D.D.D.D.D.D.D.D.D.D.D.D.D.D.D.D.D.D.D.D.D.D.D.D.D.D.D.D.D.D.D.D.D.D.D.D.D.D.D.D.D.D.D.D.D.D.D.D.D.D.D.D.D.D.D.D.D.D.D.D.D.D.D.F.F.F.F.F.F.F.F.F.F.F.F.F.F.F.F.F.F.F.F.F.F.F.F.F.",
"F.F.F.F.F.F.F.F.D.D.D.D.D.D.D.D.D.D.D.D.D.D.D.D.D.D.D.D.D.D.D.D.D.D.D.D.D.D.D.D.D.D.D.D.D.D.D.D.D.D.D.D.D.D.D.D.D.D.D.D.D.D.D.D.D.D.D.D.D.D.D.F.F.F.F.F.F.F.F.F.F.F.F.F.F.F.F.F.F.F.F.F.F.F.F.F.",
"F.F.F.F.F.F.F.F.F.F.F.F.F.F.D.D.D.D.D.D.D.D.D.D.D.D.D.D.D.D.D.D.D.D.D.D.D.D.D.D.D.D.D.D.D.D.D.D.D.D.D.D.D.D.D.D.D.D.D.D.D.D.D.D.D.F.F.F.F.F.F.F.F.F.F.F.F.F.F.F.F.F.F.F.F.F.F.F.F.F.F.F.F.F.F.F.",
"F.F.F.F.F.F.F.F.F.F.F.F.F.F.D.D.D.D.D.D.D.D.D.D.D.D.D.D.D.D.D.D.D.D.D.D.D.D.D.D.D.D.D.D.D.D.D.D.D.D.D.D.D.D.D.D.D.D.D.D.D.D.D.D.D.F.F.F.F.F.F.F.F.F.F.F.F.F.F.F.F.F.F.F.F.F.F.F.F.F.F.F.F.F.F.F.",
"F.F.F.F.F.F.F.F.F.F.F.F.F.F.D.D.D.D.D.D.D.D.D.D.D.D.D.D.D.D.D.D.D.D.D.D.D.D.D.D.D.D.D.D.D.D.D.D.D.D.D.D.D.D.D.D.D.D.D.D.D.D.D.D.D.F.F.F.F.F.F.F.F.F.F.F.F.F.F.F.F.F.F.F.F.F.F.F.F.F.F.F.F.F.F.F.",
"F.F.F.F.F.F.F.F.F.F.F.F.F.F.F.F.F.F.F.F.F.F.F.F.F.D.D.D.D.D.D.D.D.D.D.D.D.D.D.D.D.D.D.D.D.D.D.D.D.D.D.D.D.D.D.D.D.F.F.F.F.F.F.F.F.F.F.F.F.F.F.F.F.F.F.F.F.F.F.F.F.F.F.F.F.F.F.F.F.F.F.F.F.F.F.F.",
"F.F.F.F.F.F.F.F.F.F.F.F.F.F.F.F.F.F.F.F.F.F.F.F.F.D.D.D.D.D.D.D.D.D.D.D.D.D.D.D.D.D.D.D.D.D.D.D.D.D.D.D.D.D.D.D.F.F.F.F.F.F.F.F.F.F.F.F.F.F.F.F.F.F.F.F.F.F.F.F.F.F.F.F.F.F.F.F.F.F.F.F.F.F.F.F.",
"F.F.F.F.F.F.F.F.F.F.F.F.F.F.F.F.F.F.F.F.F.F.F.F.F.D.D.D.D.D.D.D.D.D.D.D.D.D.D.D.D.D.D.D.D.D.D.D.D.D.D.D.D.D.D.D.F.F.F.F.F.F.F.F.F.F.F.F.F.F.F.F.F.F.F.F.F.F.F.F.F.F.F.F.F.F.F.F.F.F.F.F.F.F.F.F."
};
