/* XPM */
static char *PIE2[] = {
/* columns rows colors chars-per-pixel */
"69 96 181 2 ",
"   c black",
".  c #020101",
"X  c #020201",
"o  c #010102",
"O  c #070303",
"+  c #070503",
"@  c #020204",
"#  c #030406",
"$  c #090603",
"%  c #0A0604",
"&  c #0C0805",
"*  c #0D0805",
"=  c #0D0806",
"-  c #040508",
";  c #07080E",
":  c #110A06",
">  c #120B07",
",  c #110C07",
"<  c #140C07",
"1  c #100C0A",
"2  c #150D08",
"3  c #160D08",
"4  c #1A1009",
"5  c #19110A",
"6  c #1B110A",
"7  c #1B130F",
"8  c #1E140C",
"9  c #080911",
"0  c #080A12",
"q  c #0B0C16",
"w  c #0C0E19",
"e  c #1D1612",
"r  c #1E1B17",
"t  c #21110D",
"y  c #22160E",
"u  c #25160D",
"i  c #24170F",
"p  c #26170E",
"a  c #25190F",
"s  c #2A1A0F",
"d  c #211812",
"f  c #221913",
"g  c #241B15",
"h  c #2E1C10",
"j  c #211E1A",
"k  c #311E12",
"l  c #331F12",
"z  c #2F2013",
"x  c #27221D",
"c  c #312115",
"v  c #372114",
"b  c #342315",
"n  c #352315",
"m  c #342116",
"M  c #392617",
"N  c #3C2516",
"B  c #3C2517",
"V  c #3E2919",
"C  c #081327",
"Z  c #09152A",
"A  c #121B2D",
"S  c #0D1D34",
"D  c #201C22",
"F  c #362F38",
"G  c #402717",
"H  c #432918",
"J  c #432A19",
"K  c #432B1A",
"L  c #442A19",
"P  c #452B19",
"I  c #432D1B",
"U  c #472C1A",
"Y  c #472D1B",
"T  c #462E1C",
"R  c #442C1E",
"E  c #482E1B",
"W  c #482F1C",
"Q  c #492F1C",
"!  c #4A2F1C",
"~  c #49301D",
"^  c #49301E",
"/  c #4B321E",
"(  c #4D321E",
")  c #4D331F",
"_  c #4E321E",
"`  c #422D20",
"'  c #4D3424",
"]  c #4A3528",
"[  c #503520",
"{  c #513520",
"}  c #523620",
"|  c #523621",
" . c #533523",
".. c #513722",
"X. c #543721",
"o. c #543822",
"O. c #553822",
"+. c #563923",
"@. c #573A23",
"#. c #563825",
"$. c #583A26",
"%. c #5F3F2B",
"&. c #4F3D32",
"*. c #534A3D",
"=. c #60402B",
"-. c #65442F",
";. c #6A4831",
":. c #6B4933",
">. c #6E4B35",
",. c #6F4C34",
"<. c #6F4C36",
"1. c #674A38",
"2. c #654D39",
"3. c #704E3B",
"4. c #79533C",
"5. c #7B563C",
"6. c #7E573F",
"7. c #112853",
"8. c #323643",
"9. c #3A3944",
"0. c #444149",
"q. c #4B464D",
"w. c #695745",
"e. c #7B5842",
"r. c #77604A",
"t. c #815941",
"y. c #875F44",
"u. c #885F44",
"i. c #8A6146",
"p. c #90664D",
"a. c #90694F",
"s. c #816E5B",
"d. c #936950",
"f. c #9B6E51",
"g. c #9D6F53",
"h. c #9A755C",
"j. c #A37457",
"k. c #AC7B5D",
"l. c #8A7B66",
"z. c #8B7571",
"x. c #8E7D7E",
"c. c #93806A",
"v. c #9F876F",
"b. c #8F867E",
"n. c #AE8163",
"m. c #B2896B",
"M. c #A58C72",
"N. c #A18D75",
"B. c #AD8D71",
"V. c #B48F71",
"C. c #A79177",
"Z. c #AA967C",
"A. c #AF997E",
"S. c #B59072",
"D. c #B9987B",
"F. c #BA9D7F",
"G. c #1D438A",
"H. c #204A93",
"J. c #2F5796",
"K. c #3D5F94",
"L. c #355C98",
"P. c #285BA9",
"I. c #295DAB",
"U. c #2C65B5",
"Y. c #3769B1",
"T. c #386AB2",
"R. c #3D6FB5",
"E. c #717080",
"W. c #787E97",
"Q. c #7C829A",
"!. c #928E8E",
"~. c #81869D",
"^. c #BB9E81",
"/. c #BDA285",
"(. c #BEA588",
"). c #8B90A4",
"_. c #9297A9",
"`. c #9A9EAE",
"'. c #A4A8B5",
"]. c #C1AC8F",
"[. c None",
/* pixels */
"[.[.[.[.[.[.[.[.[.[.[.[.[.[.[.[.[.[.[.[.[.[.[.[.[.[.[.[.                  [.[.[.[.                                      [.[.[.[.[.[.[.[.[.",
"[.[.[.[.[.[.[.[.[.[.[.[.[.[.[.[.[.[.[.[.[.[.[.[.[.[.[.[.                  [.[.[.[.                                      [.[.[.[.[.[.[.[.[.",
"[.[.[.[.[.[.[.[.[.[.[.[.[.[.[.[.[.[.[.[.[.[.[.[.[.[.[.[.                  [.[.[.[.                                      [.[.[.[.[.[.[.[.[.",
"[.[.[.[.[.[.[.[.[.[.[.[.[.[.[.[.[.[.[.[.[.[.[.[.[.[.[.[.                  [.[.[.[.                                      [.[.[.[.[.[.[.[.[.",
"[.[.[.[.[.[.[.[.[.[.[.[.[.[.[.[.[.[.[.[.[.[.[.[.[.[.[.          8 a a a y [.[.[.[.2 6 6 6 6 a a a a a a a a a +         [.[.[.[.[.[.[.[.[.",
"[.[.[.[.[.[.[.[.[.[.[.[.[.[.[.[.[.[.                            T @.@.@.T         p G G G G @.@.@.@.@.@.@.@.@.,         [.[.[.[.[.[.[.[.[.",
"[.[.[.[.[.[.[.[.[.[.[.[.[.[.[.[.[.[.                            T @.@.@.T         p G G G G @.@.@.@.@.@.@.@.@.,         [.[.[.[.[.[.[.[.[.",
"[.[.[.[.[.[.[.[.[.[.[.[.[.[.[.[.[.[.                            T @.@.@.T         p G G G G @.@.@.@.@.@.@.@.@.,         [.[.[.[.[.[.[.[.[.",
"[.[.[.[.[.[.[.[.[.[.[.[.[.[.[.[.[.[.                            T @.@.@.T         p G G G G @.@.@.@.@.@.@.@.@.,         [.[.[.[.[.[.[.[.[.",
"[.[.[.[.[.[.[.[.[.[.[.[.[.[.        z / / / / / / / / K v v v v { @.@.@.{ v v v v W X.X.X.X.@.@.@.@.M & & & & X         [.[.[.[.[.[.[.[.[.",
"[.[.[.[.[.[.[.[.[.[.[.[.[.[.        b @.@.@.@.@.@.@.@._ G G G G | @.@.@.| G G G G _ @.@.@.@.@.@.@.@.b                   [.[.[.[.[.[.[.[.[.",
"[.[.[.[.[.[.[.[.[.[.[.[.[.[.        b @.@.@.@.@.@.@.@._ G G G G | @.@.@.| G G G G _ @.@.@.@.@.@.@.@.b                   [.[.[.[.[.[.[.[.[.",
"[.[.[.[.[.[.[.[.[.[.[.[.[.[.        b @.@.@.@.@.@.@.@._ G G G G | @.@.@.| G G G G _ @.@.@.@.@.@.@.@.b                   [.[.[.[.[.[.[.[.[.",
"[.[.[.[.[.[.[.[.[.[.[.[.[.[.5 5 5 5 V @.@.@.@.@.@.@.@.[ U U U U X.@.@.@.X.U U U U [ @.@.@.@.@.@.@.@.V 5 5 5 5 < > > > : [.[.[.[.[.[.[.[.[.",
"[.[.[.[.[.[.[.[.[.        , @.@.@.@.@.@.@.@.@.@.@.@.@.@.@.@.@.@.@.@.@.@.@.@.@.@.@.@.@.@.@.@.@.@.@.@.@.@.@.@.@.P G G G l         [.[.[.[.[.",
"[.[.[.[.[.[.[.[.[.        , @.@.@.@.@.@.@.@.@.@.@.@.@.@.@.@.@.@.@.@.@.@.@.@.@.@.@.@.@.@.@.@.@.@.@.@.@.@.@.@.@.P G G G l         [.[.[.[.[.",
"[.[.[.[.[.[.[.[.[.        , @.@.@.@.@.@.@.@.@.@.@.@.@.@.@.@.@.@.@.@.@.@.@.@.@.@.@.@.@.@.@.@.@.@.@.@.@.@.@.@.@.P G G G l         [.[.[.[.[.",
"[.[.[.[.[.[.[.[.[.        , @.@.@.@.@.@.@.@.@.@.@.@.@.@.@.@.@.@.@.@.@.@.@.@.@.@.@.@.@.@.@.@.@.@.@.@.@.@.@.@.@.P G G G l         [.[.[.[.[.",
"[.[.[.[.[.        n V V V I @.@.@.@.@.@.@.@.@.@.@.@.@.@.@.@.@.@.@.@.@.@.@.@.@.@.@.@.@.@.@.@.@.@.@.@.@.@.@.@.@.} [ [ [ ~ h h h h 3         ",
"[.[.[.[.[.        T @.@.@.@.@.@.@.@.@.@.@.@.@.@.@.@.@.@.@.@.@.@.@.@.@.@.@.@.@.@.@.@.@.@.@.@.@.@.@.@.@.@.@.@.@.@.@.@.@.| G G G G 4         ",
"[.[.[.[.[.        T @.@.@.@.@.@.@.@.@.@.@.@.@.@.@.@.@.@.@.@.@.@.@.@.@.@.@.@.@.@.@.@.@.@.@.@.@.@.@.@.@.@.@.@.@.@.@.@.@.| G G G G 4         ",
"[.[.[.[.[.        T @.@.@.@.@.@.@.@.@.@.@.@.@.@.@.@.@.@.@.@.@.@.@.@.@.@.@.@.@.@.@.@.@.@.@.@.@.@.@.@.@.@.@.@.@.@.@.@.@.| G G G G 4         ",
"[.[.[.[.[.        T @.@.@.@.@.@.@.@.@.@.@.@.@.X.X.X.X.X.X.X.X.X.+.@.@.@.@.@.@.@.@.@.@.@.@.@.X.X.X.X.O.@.@.@.@.@.@.@.@.| G G G G 4         ",
"[.[.[.[.[.        T @.@.@.@.@.@.@.@.@.@.@.@.@.G G G G G G G G G | @.@.@.@.@.@.@.@.@.@.@.@.@.G G G G Q @.@.@.@.@.@.@.@.| G G G G 4         ",
"[.[.[.[.[.        T @.@.@.@.@.@.@.@.@.@.@.@.@.G G G G G G G G G | @.@.@.@.@.@.@.@.@.@.@.@.@.G G G G Q @.@.@.@.@.@.@.@.| G G G G 4         ",
"[.[.[.[.[.        T @.@.@.@.@.@.@.@.@.@.@.@.@.G G G G G G G G G | @.@.@.@.@.@.@.@.@.@.@.@.@.G G G G Q @.@.@.@.@.@.@.@.| G G G G 4         ",
"[.[.[.[.[.        T @.@.@.@.@.@.@.@.@.@.@.@.@.G G G G G G G G G | @.@.@.@.@.@.@.@.@.@.@.@.@.G G G G Q @.@.@.@.@.@.@.@.| G G G G 4         ",
"        < u u u u ) @.@.@.o.! ! ! ! ,.u.u.u.u.6.6.6.6.-.G G G G | @.@.@.@.@.@.@.@.@.@.@.@.@.G G G G L ! ! ! ! ! ! ! ! E G G G G 4         ",
"        4 G G G G | @.@.@.| G G G G t.k.k.k.k.k.k.k.k.t.G G G G | @.@.@.@.@.@.@.@.@.@.@.@.@.G G G G G G G G G G G G G G G G G G 4         ",
"        4 G G G G | @.@.@.| G G G G t.k.k.k.k.k.k.k.k.t.G G G G | @.@.@.@.@.@.@.@.@.@.@.@.@.G G G G G G G G G G G G G G G G G G 4         ",
"        4 G G G G | @.@.@.| G G G G t.k.k.k.k.k.k.k.k.t.G G G G | @.@.@.@.@.@.@.@.@.@.@.@.@.G G G G G G G G G G G G G G G G G G 4         ",
"        4 G G G G | @.@.@.| G G G G t.k.k.k.k.k.k.k.k.t.G G G G | @.@.@.@.@.@.@.@.@.@.@.@.@.G G G G G G G G G G G G G G G G G G 4         ",
"        4 G G G G G G G G #.k.k.k.k.k.k.k.k.k.k.k.k.k.k.k.k.k.k.#.G G G P @.@.@.@.@.@.@.@.@.G G G G G G G G G | @.@.@.| G G G G 4         ",
"        4 G G G G G G G G #.k.k.k.k.k.k.k.k.k.k.k.k.k.k.k.k.k.k.#.G G G P @.@.@.@.@.@.@.@.@.G G G G G G G G G | @.@.@.| G G G G 4         ",
"        4 G G G G G G G G #.k.k.k.k.k.k.k.k.k.k.k.k.k.k.k.k.k.k.#.G G G P @.@.@.@.@.@.@.@.@.G G G G G G G G G | @.@.@.| G G G G 4         ",
"        4 G G G G G G G G #.k.k.k.k.k.k.k.k.k.k.k.k.k.k.k.k.k.k.#.G G G P @.@.@.@.@.@.@.@.@.G G G G G G G G G | @.@.@.| G G G G 4         ",
"        4 G G G G s u u u m 3.3.3.3.h.S.S.S.S.S.S.S.S.h.3.3.3.3.<.>.>.>.;.@.@.@.@.{ ( ( ( ( >.>.>.>.=.! ! ! ! o.@.@.@.| G G G G 4         ",
"        4 G G G G *       O t t t t s.].].].].].].].].s.t t t t p.k.k.k.f.@.@.@.@.Q G G G G k.k.k.k.i.@.@.@.@.@.@.@.@.| G G G G 4         ",
"        4 G G G G *       O t t t t s.].].].].].].].].s.t t t t p.k.k.k.f.@.@.@.@.Q G G G G k.k.k.k.i.@.@.@.@.@.@.@.@.| G G G G 4         ",
"        4 G G G G *       O t t t t s.].].].].].].].].s.t t t t p.k.k.k.f.@.@.@.@.Q G G G G k.k.k.k.i.@.@.@.@.@.@.@.@.| G G G G 4         ",
"        4 G G G G *       O t t t t s.].].].].].].].].s.t t t t p.k.k.k.f.@.@.@.@.Q G G G G k.k.k.k.i.@.@.@.@.@.@.@.@.| G G G G 4         ",
"[.[.[.[.[.$ $ $ $ .       O t t t t s.].].].].].].].].s.t t t t v.(.(.(.M.J J J J 4.g.g.g.g.k.k.k.k.i.@.@.@.@.Y J J J H G G G G 4         ",
"[.[.[.[.[.                O t t t t s.].].].].].].].].s.t t t t N.].].].C.G G G G t.k.k.k.k.k.k.k.k.i.@.@.@.@.P G G G G G G G G 4         ",
"[.[.[.[.[.                O t t t t s.].].].].].].].].s.t t t t N.].].].C.G G G G t.k.k.k.k.k.k.k.k.i.@.@.@.@.P G G G G G G G G 4         ",
"[.[.[.[.[.                O t t t t s.].].].].].].].].s.t t t t N.].].].C.G G G G t.k.k.k.k.k.k.k.k.i.@.@.@.@.P G G G G G G G G 4         ",
"[.[.[.[.[.                1 &.&.&.&.c.].].].].].].].].c.&.&.&.&.Z.].].].A.2.2.2.2.a.k.k.k.k.k.k.k.k.y.[ [ [ [ J G G G N h h h h 3         ",
"[.[.[.[.[.[.[.[.[.        x ].].].].].].].].].].].].].].].].].].].].].].].].].].].V.k.k.k.k.k.k.k.k.t.G G G G G G G G l         [.[.[.[.[.",
"[.[.[.[.[.[.[.[.[.        x ].].].].].].].].].].].].].].].].].].].].].].].].].].].V.k.k.k.k.k.k.k.k.t.G G G G G G G G l         [.[.[.[.[.",
"[.[.[.[.[.[.[.[.[.        x ].].].].].].].].].].].].].].].].].].].].].].].].].].].V.k.k.k.k.k.k.k.k.t.G G G G G G G G l         [.[.[.[.[.",
"[.[.[.[.[.[.[.[.[.        x ].].].].].].].].].].].].].].].].].].].].].].].].].].].V.k.k.k.k.k.k.k.k.t.G G G G G G G G l         [.[.[.[.[.",
"[.[.[.[.[.[.[.[.[.        g m.m.m.m.^.].].].].].].].].].].].].].].].].].(.m.m.m.m.n.k.k.k.k.%.%.%.%. .G G G G 6 > > > : [.[.[.[.[.[.[.[.[.",
"[.[.[.[.[.[.[.[.[.        f k.k.k.k.D.].].].].].].].].].].].].].].].].]./.k.k.k.k.k.k.k.k.k.G G G G G G G G G *         [.[.[.[.[.[.[.[.[.",
"[.[.[.[.[.[.[.[.[.        f k.k.k.k.D.].].].].].].].].].].].].].].].].]./.k.k.k.k.k.k.k.k.k.G G G G G G G G G *         [.[.[.[.[.[.[.[.[.",
"[.[.[.[.[.[.[.[.[.        f k.k.k.k.D.].].].].].].].].].].].].].].].].]./.k.k.k.k.k.k.k.k.k.G G G G G G G G G *         [.[.[.[.[.[.[.[.[.",
"[.[.[.[.[.[.[.[.[.        d d.d.d.d.B.(.(.(.(.(.(.(.(.(.(.(.(.(.(.(.(.(.F.k.k.k.k.j.g.g.g.g.G G G G G G G G G *         [.[.[.[.[.[.[.[.[.",
"[.[.[.[.[.[.[.[.[.[.[.[.[.[.        1.k.k.k.k.k.k.k.k.k.k.k.k.k.k.k.k.k.k.k.k.k.k.:.G G G G G G G G G G G G G *         [.[.[.[.[.[.[.[.[.",
"[.[.[.[.[.[.[.[.[.[.[.[.[.[.        1.k.k.k.k.k.k.k.k.k.k.k.k.k.k.k.k.k.k.k.k.k.k.:.G G G G G G G G G G G G G *         [.[.[.[.[.[.[.[.[.",
"[.[.[.[.[.[.[.[.[.[.[.[.[.[.        1.k.k.k.k.k.k.k.k.k.k.k.k.k.k.k.k.k.k.k.k.k.k.:.G G G G G G G G G G G G G *         [.[.[.[.[.[.[.[.[.",
"[.[.[.[.[.[.[.[.[.[.[.[.[.[.        1.k.k.k.k.k.k.k.k.k.k.k.k.k.k.k.k.k.k.k.k.k.k.:.G G G G G G G G G G G G G *         [.[.[.[.[.[.[.[.[.",
"[.[.[.[.[.[.[.[.[.[.[.[.[.[.        ` >.>.>.>.x.x.x.x.x.x.x.x.x.x.x.x.x.z.5.5.5.5.$.G G G G G G G G k 6 6 6 6 % [.[.[.[.[.[.[.[.[.[.[.[.[.",
"[.[.[.[.[.[.[.[.[.[.[.[.[.[.        p G G G G W.W.W.W.W.W.W.W.W.W.W.W.W.E.@.@.@.@.Q G G G G G G G G p         [.[.[.[.[.[.[.[.[.[.[.[.[.[.",
"[.[.[.[.[.[.[.[.[.[.[.[.[.[.        p G G G G W.W.W.W.W.W.W.W.W.W.W.W.W.E.@.@.@.@.Q G G G G G G G G p         [.[.[.[.[.[.[.[.[.[.[.[.[.[.",
"[.[.[.[.[.[.[.[.[.[.[.[.[.[.        p G G G G W.W.W.W.W.W.W.W.W.W.W.W.W.E.@.@.@.@.Q G G G G G G G G p         [.[.[.[.[.[.[.[.[.[.[.[.[.[.",
"[.[.[.[.[.[.[.[.[.[.[.[.[.[.        p G G G G W.W.W.W.W.W.W.W.W.W.W.W.W.E.@.@.@.@.Q G G G G G G G G p         [.[.[.[.[.[.[.[.[.[.[.[.[.[.",
"[.[.[.[.[.[.[.[.[.[.[.[.[.[.        p G G G G '.'.'.'._.W.W.W.W.W.W.W.W.E.@.@.@.@.@.@.@.@.@.G G G G p         [.[.[.[.[.[.[.[.[.[.[.[.[.[.",
"[.[.[.[.[.[.[.[.[.[.[.[.[.[.        p G G G G '.'.'.'._.W.W.W.W.W.W.W.W.E.@.@.@.@.@.@.@.@.@.G G G G p         [.[.[.[.[.[.[.[.[.[.[.[.[.[.",
"[.[.[.[.[.[.[.[.[.[.[.[.[.[.        p G G G G '.'.'.'._.W.W.W.W.W.W.W.W.E.@.@.@.@.@.@.@.@.@.G G G G p         [.[.[.[.[.[.[.[.[.[.[.[.[.[.",
"[.[.[.[.[.[.[.[.[.[.[.[.[.[.        p G G G G '.'.'.'._.W.W.W.W.W.W.W.W.E.@.@.@.@.@.@.@.@.@.G G G G p         [.[.[.[.[.[.[.[.[.[.[.[.[.[.",
"[.[.[.[.[.[.[.[.[.[.[.[.[.7 ] ] ] ] R G G G G '.'.'.'.`.).).).).Q.W.W.W.E.@.@.@.@.@.@.@.@.@.r.r.r.r.w.*.*.*.*.r [.[.[.[.[.[.[.[.[.[.[.[.[.",
"[.[.[.[.[.[.[.[.[.        f k.k.k.k.:.G G G G '.'.'.'.'.'.'.'.'.~.W.W.W.E.@.@.@.@.@.@.@.@.@.].].].].].].].].].x         [.[.[.[.[.[.[.[.[.",
"[.[.[.[.[.[.[.[.[.        f k.k.k.k.:.G G G G '.'.'.'.'.'.'.'.'.~.W.W.W.E.@.@.@.@.@.@.@.@.@.].].].].].].].].].x         [.[.[.[.[.[.[.[.[.",
"[.[.[.[.[.[.[.[.[.        f k.k.k.k.:.G G G G '.'.'.'.'.'.'.'.'.~.W.W.W.E.@.@.@.@.@.@.@.@.@.].].].].].].].].].x         [.[.[.[.[.[.[.[.[.",
"[.[.[.[.[.[.[.[.[.        f k.k.k.k.:.G G G G '.'.'.'.'.'.'.'.'.~.W.W.W.E.@.@.@.@.@.@.@.@.@.].].].].].].].].].x         [.[.[.[.[.[.[.[.[.",
"[.[.[.[.[.[.[.[.[.        f k.k.k.k.:.G G G G R.R.R.R.R.R.R.R.R.T.Y.Y.Y.K.@.@.@.@.@.@.@.@.@.].].].].].].].].].x         [.[.[.[.[.[.[.[.[.",
"[.[.[.[.[.[.[.[.[.        f k.k.k.k.:.G G G G U.U.U.U.U.U.U.U.U.U.U.U.U.L.@.@.@.@.@.@.@.@.@.].].].].].].].].].x         [.[.[.[.[.[.[.[.[.",
"[.[.[.[.[.[.[.[.[.        f k.k.k.k.:.G G G G U.U.U.U.U.U.U.U.U.U.U.U.U.L.@.@.@.@.@.@.@.@.@.].].].].].].].].].x         [.[.[.[.[.[.[.[.[.",
"[.[.[.[.[.[.[.[.[.        f k.k.k.k.:.G G G G U.U.U.U.U.U.U.U.U.U.U.U.U.L.@.@.@.@.@.@.@.@.@.].].].].].].].].].x         [.[.[.[.[.[.[.[.[.",
"[.[.[.[.[.[.[.[.[.@ @ @ @ e e.e.e.e.' h h h h U.U.U.U.U.U.U.U.U.I.P.P.P.J.q.q.q.q.q.q.q.q.q.!.!.!.!.b.l.l.l.l.j @ @ @ @ [.[.[.[.[.[.[.[.[.",
"[.[.[.[.[.[.[.[.[.[.w w w 9                   U.U.U.U.U.U.U.U.U.H.G.G.G.H.U.U.U.U.U.U.U.U.U.G.G.G.G.7.        9 w w w [.[.[.[.[.[.[.[.[.[.",
"[.[.[.[.[.[.[.[.[.[.w w w 9                   U.U.U.U.U.U.U.U.U.H.G.G.G.H.U.U.U.U.U.U.U.U.U.G.G.G.G.7.        9 w w w [.[.[.[.[.[.[.[.[.[.",
"[.[.[.[.[.[.[.[.[.[.w w w 9                   U.U.U.U.U.U.U.U.U.H.G.G.G.H.U.U.U.U.U.U.U.U.U.G.G.G.G.7.        9 w w w [.[.[.[.[.[.[.[.[.[.",
"[.[.[.[.[.[.[.[.[.[.w w w 9                   U.U.U.U.U.U.U.U.U.H.G.G.G.H.U.U.U.U.U.U.U.U.U.G.G.G.G.7.        9 w w w [.[.[.[.[.[.[.[.[.[.",
"[.[.[.[.[.[.[.[.[.[.w w w q ; ; ; ; @         q.q.q.q.0.9.9.9.9.A C C C Z S S S S 8.q.q.q.q.F F F F D         9 w w w [.[.[.[.[.[.[.[.[.[.",
"[.[.[.[.[.w w w w w w w w w w w w w #         @.@.@.@._ G G G G *                 b @.@.@.@.G G G G p         9 w w w w w w w w [.[.[.[.[.",
"[.[.[.[.[.w w w w w w w w w w w w w #         @.@.@.@._ G G G G *                 b @.@.@.@.G G G G p         9 w w w w w w w w [.[.[.[.[.",
"[.[.[.[.[.w w w w w w w w w w w w w #         @.@.@.@._ G G G G *                 b @.@.@.@.G G G G p         9 w w w w w w w w [.[.[.[.[.",
"[.[.[.[.[.w w w w w w w w w w w w w - o o o o ........^ B B B B = o o o o o o o o c ........B B B B i o o o o 0 w w w w w w w w [.[.[.[.[.",
"[.[.[.[.[.w w w w w w w w w w w w w w w w w w w w w w w w w w w w w w w w w w w w w w w w w w w w w w w w w w w w w w w w w w w [.[.[.[.[.",
"[.[.[.[.[.w w w w w w w w w w w w w w w w w w w w w w w w w w w w w w w w w w w w w w w w w w w w w w w w w w w w w w w w w w w [.[.[.[.[.",
"[.[.[.[.[.w w w w w w w w w w w w w w w w w w w w w w w w w w w w w w w w w w w w w w w w w w w w w w w w w w w w w w w w w w w [.[.[.[.[.",
"[.[.[.[.[.w w w w w w w w w w w w w w w w w w w w w w w w w w w w w w w w w w w w w w w w w w w w w w w w w w w w w w w w w w w [.[.[.[.[.",
"[.[.[.[.[.[.[.[.[.[.w w w w w w w w w w w w w w w w w w w w w w w w w w w w w w w w w w w w w w w w w w w w w w w w w [.[.[.[.[.[.[.[.[.[.",
"[.[.[.[.[.[.[.[.[.[.w w w w w w w w w w w w w w w w w w w w w w w w w w w w w w w w w w w w w w w w w w w w w w w w w [.[.[.[.[.[.[.[.[.[.",
"[.[.[.[.[.[.[.[.[.[.w w w w w w w w w w w w w w w w w w w w w w w w w w w w w w w w w w w w w w w w w w w w w w w w w [.[.[.[.[.[.[.[.[.[.",
"[.[.[.[.[.[.[.[.[.[.w w w w w w w w w w w w w w w w w w w w w w w w w w w w w w w w w w w w w w w w w w w w w w w w w [.[.[.[.[.[.[.[.[.[.",
"[.[.[.[.[.[.[.[.[.[.w w w w w w w w w w w w w w w w w w w w w w w w w w w w w w w w w w w w w w w w w w w w w w w w w [.[.[.[.[.[.[.[.[.[."
};
