/* XPM */
static char *PIE3[] = {
/* columns rows colors chars-per-pixel */
"72 96 141 2 ",
"   c black",
".  c #010101",
"X  c #010203",
"o  c #070503",
"O  c #030406",
"+  c #080503",
"@  c #0A0704",
"#  c #0C0704",
"$  c #0D0805",
"%  c #0D0905",
"&  c #05060B",
"*  c #06070C",
"=  c #06070D",
"-  c #07090F",
";  c #110C07",
":  c #140C07",
">  c #140A08",
",  c #170E08",
"<  c #1A1009",
"1  c #1B110A",
"2  c #1F150D",
"3  c #0C0E19",
"4  c #1B1313",
"5  c #21110D",
"6  c #20150D",
"7  c #21160D",
"8  c #23170E",
"9  c #26170E",
"0  c #25190F",
"q  c #221815",
"w  c #2A1C11",
"e  c #2F1E12",
"r  c #2A1C18",
"t  c #311E11",
"y  c #331F12",
"u  c #2D201B",
"i  c #322114",
"p  c #342315",
"a  c #3B2415",
"s  c #34251D",
"d  c #37271F",
"f  c #3F2A1F",
"g  c #402717",
"h  c #402818",
"j  c #422918",
"k  c #442A19",
"l  c #452B19",
"z  c #462C1A",
"x  c #472D1B",
"c  c #462E1C",
"v  c #442D1E",
"b  c #492F1C",
"n  c #4C311D",
"m  c #4E321E",
"M  c #50341F",
"N  c #4F3320",
"B  c #4F3321",
"V  c #4A3528",
"C  c #503520",
"Z  c #513520",
"A  c #523621",
"S  c #533721",
"D  c #513422",
"F  c #543822",
"G  c #553822",
"H  c #573A23",
"J  c #563825",
"K  c #593B2D",
"L  c #563E30",
"P  c #5F402B",
"I  c #5A4031",
"U  c #5F4B3D",
"Y  c #64442C",
"T  c #68472F",
"R  c #694735",
"E  c #6B4933",
"W  c #674A38",
"Q  c #77523A",
"!  c #79543A",
"~  c #112853",
"^  c #222D4A",
"/  c #2B385C",
"(  c #173462",
")  c #17366E",
"_  c #1A3D6D",
"`  c #263E68",
"'  c #3F4E6B",
"]  c #344C76",
"[  c #364F78",
"{  c #3B527A",
"}  c #3D547B",
"|  c #4E4340",
" . c #464B5D",
".. c #614F41",
"X. c #615749",
"o. c #655A4B",
"O. c #755B44",
"+. c #745C47",
"@. c #645551",
"#. c #716150",
"$. c #746756",
"%. c #815941",
"&. c #855D44",
"*. c #865E44",
"=. c #8A6146",
"-. c #8A624A",
";. c #966A4F",
":. c #866E57",
">. c #9B6E51",
",. c #8D775F",
"<. c #9F7155",
"1. c #9E755A",
"2. c #AC7B5D",
"3. c #947864",
"4. c #9A8A72",
"5. c #A5866B",
"6. c #B08567",
"7. c #A18D75",
"8. c #B48F71",
"9. c #A59076",
"0. c #A79177",
"q. c #B9987B",
"w. c #1D438A",
"e. c #2657A4",
"r. c #295EAC",
"t. c #2B62B2",
"y. c #2C65B5",
"u. c #787E97",
"i. c #9F9488",
"p. c #A0978E",
"a. c #A49A92",
"s. c #BDA285",
"d. c #BEA689",
"f. c #8D92A5",
"g. c #9297A9",
"h. c #9BA0AF",
"j. c #A2A6B4",
"k. c #A4A8B5",
"l. c #C0AA8D",
"z. c #C1AC8F",
"x. c None",
/* pixels */
"x.x.x.x.x.x.x.x.x.x.x.x.x.x.x.x.x.x.x.x.x.x.x.x.x.x.x.x.x.                  x.x.x.x.x.                                      x.x.x.x.x.x.x.x.x.x.",
"x.x.x.x.x.x.x.x.x.x.x.x.x.x.x.x.x.x.x.x.x.x.x.x.x.x.x.x.x.                  x.x.x.x.x.                                      x.x.x.x.x.x.x.x.x.x.",
"x.x.x.x.x.x.x.x.x.x.x.x.x.x.x.x.x.x.x.x.x.x.x.x.x.x.x.x.x.                  x.x.x.x.x.                                      x.x.x.x.x.x.x.x.x.x.",
"x.x.x.x.x.x.x.x.x.x.x.x.x.x.x.x.x.x.x.x.x.x.x.x.x.x.x.x.x.                  x.x.x.x.x.                                      x.x.x.x.x.x.x.x.x.x.",
"x.x.x.x.x.x.x.x.x.x.x.x.x.x.x.x.x.x.x.x.x.x.x.x.x.x.x.x.x.        o ; ; ; ; % x.x.x.x.# $ $ $ $ ; ; ; ; ; ; ; ; ; @         x.x.x.x.x.x.x.x.x.x.",
"x.x.x.x.x.x.x.x.x.x.x.x.x.x.x.x.x.x.x.                            8 H H H H 8         y g g g g H H H H H H H H H p         x.x.x.x.x.x.x.x.x.x.",
"x.x.x.x.x.x.x.x.x.x.x.x.x.x.x.x.x.x.x.                            8 H H H H 8         y g g g g H H H H H H H H H p         x.x.x.x.x.x.x.x.x.x.",
"x.x.x.x.x.x.x.x.x.x.x.x.x.x.x.x.x.x.x.                            8 H H H H 8         y g g g g H H H H H H H H H p         x.x.x.x.x.x.x.x.x.x.",
"x.x.x.x.x.x.x.x.x.x.x.x.x.x.x.x.x.x.x.                            8 H H H H 8         y g g g g H H H H H H H H H p         x.x.x.x.x.x.x.x.x.x.",
"x.x.x.x.x.x.x.x.x.x.x.x.x.x.x.x.x.x.x.6 8 8 8 8 8 8 8 8 7 < < < < i H H H H i < < < < h b b b b H H H H C p p p p 2         x.x.x.x.x.x.x.x.x.x.",
"x.x.x.x.x.x.x.x.x.x.x.x.x.x.          c H H H H H H H H A g g g g b H H H H b g g g g A H H H H H H H H c                   x.x.x.x.x.x.x.x.x.x.",
"x.x.x.x.x.x.x.x.x.x.x.x.x.x.          c H H H H H H H H A g g g g b H H H H b g g g g A H H H H H H H H c                   x.x.x.x.x.x.x.x.x.x.",
"x.x.x.x.x.x.x.x.x.x.x.x.x.x.          c H H H H H H H H A g g g g b H H H H b g g g g A H H H H H H H H c                   x.x.x.x.x.x.x.x.x.x.",
"x.x.x.x.x.x.x.x.x.x.x.x.x.x.          c H H H H H H H H A g g g g b H H H H b g g g g A H H H H H H H H c                   x.x.x.x.x.x.x.x.x.x.",
"x.x.x.x.x.x.x.x.x.x.        0 p p p p C H H H H H H H H G m m m m Z H H H H Z m m m m G H H H H H H H H C p p p p e 9 9 9 9 :         x.x.x.x.x.",
"x.x.x.x.x.x.x.x.x.x.        p H H H H H H H H H H H H H H H H H H H H H H H H H H H H H H H H H H H H H H H H H H m g g g g <         x.x.x.x.x.",
"x.x.x.x.x.x.x.x.x.x.        p H H H H H H H H H H H H H H H H H H H H H H H H H H H H H H H H H H H H H H H H H H m g g g g <         x.x.x.x.x.",
"x.x.x.x.x.x.x.x.x.x.        p H H H H H H H H H H H H H H H H H H H H H H H H H H H H H H H H H H H H H H H H H H m g g g g <         x.x.x.x.x.",
"x.x.x.x.x.x.x.x.x.x.        p H H H H H H H H H H H H H H H H H H H H H H H H H H H H H H H H H H H H H H H H H H m g g g g <         x.x.x.x.x.",
"x.x.x.x.x.        6 c c c c C H H H H H H H H H H H H H H H H H H H H H H H H H H H H H H H H H H H H H H H H H H G A A A A h y y y y #         ",
"x.x.x.x.x.        8 H H H H H H H H H H H H H H H H H H H H H H H H H H H H H H H H H H H H H H H H H H H H H H H H H H H H b g g g g $         ",
"x.x.x.x.x.        8 H H H H H H H H H H H H H H H H H H H H H H H H H H H H H H H H H H H H H H H H H H H H H H H H H H H H b g g g g $         ",
"x.x.x.x.x.        8 H H H H H H H H H H H H H H H H H H H H H H H H H H H H H H H H H H H H H H H H H H H H H H H H H H H H b g g g g $         ",
"x.x.x.x.x.        8 H H H H H H H H H H H H H H H H H H H H H H H H H H H H H H H H H H H H H H H H H H H H H H H H H H H H b g g g g $         ",
"x.x.x.x.x.        8 H H H H H H H H H H H H H H g g g g g g g g g b H H H H H H H H H H H H H H g g g g l H H H H H H H H H b g g g g $         ",
"x.x.x.x.x.        8 H H H H H H H H H H H H H H g g g g g g g g g b H H H H H H H H H H H H H H g g g g l H H H H H H H H H b g g g g $         ",
"x.x.x.x.x.        8 H H H H H H H H H H H H H H g g g g g g g g g b H H H H H H H H H H H H H H g g g g l H H H H H H H H H b g g g g $         ",
"x.x.x.x.x.        8 H H H H H H H H H H H H H H g g g g g g g g g b H H H H H H H H H H H H H H g g g g l H H H H H H H H H b g g g g $         ",
"x.x.x.x.x.$ $ $ $ w H H H H F A A A A Y T T T T J J J J D g g g g b H H H H H H H H H H H H H H g g g g k A A A A A A A A A x g g g g $         ",
"        $ g g g g b H H H H b g g g g ;.2.2.2.2.2.2.2.2.;.g g g g b H H H H H H H H H H H H H H g g g g g g g g g g g g g g g g g g g $         ",
"        $ g g g g b H H H H b g g g g ;.2.2.2.2.2.2.2.2.;.g g g g b H H H H H H H H H H H H H H g g g g g g g g g g g g g g g g g g g $         ",
"        $ g g g g b H H H H b g g g g ;.2.2.2.2.2.2.2.2.;.g g g g b H H H H H H H H H H H H H H g g g g g g g g g g g g g g g g g g g $         ",
"        $ g g g g b H H H H b g g g g ;.2.2.2.2.2.2.2.2.;.g g g g b H H H H H H H H H H H H H H g g g g g g g g g g g g g g g g g g g $         ",
"        $ g g g g z m m m m P E E E E <.2.2.2.2.2.2.2.2.<.E E E E P m m m m S H H H H H H H H H g g g g g g g g g k b b b b k g g g g $         ",
"        $ g g g g g g g g g %.2.2.2.2.2.2.2.2.2.2.2.2.2.2.2.2.2.2.%.g g g g m H H H H H H H H H g g g g g g g g g b H H H H b g g g g $         ",
"        $ g g g g g g g g g %.2.2.2.2.2.2.2.2.2.2.2.2.2.2.2.2.2.2.%.g g g g m H H H H H H H H H g g g g g g g g g b H H H H b g g g g $         ",
"        $ g g g g g g g g g %.2.2.2.2.2.2.2.2.2.2.2.2.2.2.2.2.2.2.%.g g g g m H H H H H H H H H g g g g g g g g g b H H H H b g g g g $         ",
"        $ g g g g g g g g g %.2.2.2.2.2.2.2.2.2.2.2.2.2.2.2.2.2.2.%.g g g g m H H H H H H H H H g g g g g g g g g b H H H H b g g g g $         ",
"        $ g g g g t < < < < f K K K K 5.q.q.q.q.q.q.q.q.5.K K K K R %.%.%.%.T H H H H n b b b b %.%.%.%.Q m m m m Z H H H H b g g g g $         ",
"        $ g g g g 9         > 5 5 5 5 7.z.z.z.z.z.z.z.z.7.5 5 5 5 K 2.2.2.2.! H H H H l g g g g 2.2.2.2.>.H H H H H H H H H b g g g g $         ",
"        $ g g g g 9         > 5 5 5 5 7.z.z.z.z.z.z.z.z.7.5 5 5 5 K 2.2.2.2.! H H H H l g g g g 2.2.2.2.>.H H H H H H H H H b g g g g $         ",
"        $ g g g g 9         > 5 5 5 5 7.z.z.z.z.z.z.z.z.7.5 5 5 5 K 2.2.2.2.! H H H H l g g g g 2.2.2.2.>.H H H H H H H H H b g g g g $         ",
"        $ g g g g 9         > 5 5 5 5 7.z.z.z.z.z.z.z.z.7.5 5 5 5 K 2.2.2.2.! H H H H l g g g g 2.2.2.2.>.H H H H H H H H H b g g g g $         ",
"x.x.x.x.x.$ $ $ $ +         > 5 5 5 5 7.z.z.z.z.z.z.z.z.7.5 5 5 5 U s.s.s.s.O.l l l l *.;.;.;.;.2.2.2.2.>.H H H H M l l l l j g g g g $         ",
"x.x.x.x.x.                  > 5 5 5 5 7.z.z.z.z.z.z.z.z.7.5 5 5 5 ..z.z.z.z.+.g g g g ;.2.2.2.2.2.2.2.2.>.H H H H m g g g g g g g g g $         ",
"x.x.x.x.x.                  > 5 5 5 5 7.z.z.z.z.z.z.z.z.7.5 5 5 5 ..z.z.z.z.+.g g g g ;.2.2.2.2.2.2.2.2.>.H H H H m g g g g g g g g g $         ",
"x.x.x.x.x.                  > 5 5 5 5 7.z.z.z.z.z.z.z.z.7.5 5 5 5 ..z.z.z.z.+.g g g g ;.2.2.2.2.2.2.2.2.>.H H H H m g g g g g g g g g $         ",
"x.x.x.x.x.                  > 5 5 5 5 7.z.z.z.z.z.z.z.z.7.5 5 5 5 ..z.z.z.z.+.g g g g ;.2.2.2.2.2.2.2.2.>.H H H H m g g g g g g g g g $         ",
"x.x.x.x.x.x.x.x.x.x.        $.z.z.z.z.z.z.z.z.z.z.z.z.z.z.z.z.z.z.z.z.z.z.z.z.z.z.z.z.6.2.2.2.2.2.2.2.2.;.g g g g g g g g g <         x.x.x.x.x.",
"x.x.x.x.x.x.x.x.x.x.        $.z.z.z.z.z.z.z.z.z.z.z.z.z.z.z.z.z.z.z.z.z.z.z.z.z.z.z.z.6.2.2.2.2.2.2.2.2.;.g g g g g g g g g <         x.x.x.x.x.",
"x.x.x.x.x.x.x.x.x.x.        $.z.z.z.z.z.z.z.z.z.z.z.z.z.z.z.z.z.z.z.z.z.z.z.z.z.z.z.z.6.2.2.2.2.2.2.2.2.;.g g g g g g g g g <         x.x.x.x.x.",
"x.x.x.x.x.x.x.x.x.x.        $.z.z.z.z.z.z.z.z.z.z.z.z.z.z.z.z.z.z.z.z.z.z.z.z.z.z.z.z.6.2.2.2.2.2.2.2.2.;.g g g g g g g g g <         x.x.x.x.x.",
"x.x.x.x.x.x.x.x.x.x.        #.s.s.s.s.l.z.z.z.z.z.z.z.z.z.z.z.z.z.z.z.z.z.z.d.s.s.s.s.1.;.;.;.;.;.;.;.;.&.g g g g a y y y y ,         x.x.x.x.x.",
"x.x.x.x.x.x.x.x.x.x.        W 2.2.2.2.s.z.z.z.z.z.z.z.z.z.z.z.z.z.z.z.z.z.z.8.2.2.2.2.J g g g g g g g g g g g g g 9         x.x.x.x.x.x.x.x.x.x.",
"x.x.x.x.x.x.x.x.x.x.        W 2.2.2.2.s.z.z.z.z.z.z.z.z.z.z.z.z.z.z.z.z.z.z.8.2.2.2.2.J g g g g g g g g g g g g g 9         x.x.x.x.x.x.x.x.x.x.",
"x.x.x.x.x.x.x.x.x.x.        W 2.2.2.2.s.z.z.z.z.z.z.z.z.z.z.z.z.z.z.z.z.z.z.8.2.2.2.2.J g g g g g g g g g g g g g 9         x.x.x.x.x.x.x.x.x.x.",
"x.x.x.x.x.x.x.x.x.x.        W 2.2.2.2.s.z.z.z.z.z.z.z.z.z.z.z.z.z.z.z.z.z.z.8.2.2.2.2.J g g g g g g g g g g g g g 9         x.x.x.x.x.x.x.x.x.x.",
"x.x.x.x.x.x.x.x.x.x.        V W W W W :.,.,.,.,.a.a.a.a.a.a.a.a.a.a.a.a.a.a.3.=.=.=.=.N g g g g g g g g a 9 9 9 9 1         x.x.x.x.x.x.x.x.x.x.",
"x.x.x.x.x.x.x.x.x.x.x.x.x.x.          y g g g g u.u.u.u.u.u.u.u.u.u.u.u.u.u.@.H H H H l g g g g g g g g y           x.x.x.x.x.x.x.x.x.x.x.x.x.x.",
"x.x.x.x.x.x.x.x.x.x.x.x.x.x.          y g g g g u.u.u.u.u.u.u.u.u.u.u.u.u.u.@.H H H H l g g g g g g g g y           x.x.x.x.x.x.x.x.x.x.x.x.x.x.",
"x.x.x.x.x.x.x.x.x.x.x.x.x.x.          y g g g g u.u.u.u.u.u.u.u.u.u.u.u.u.u.@.H H H H l g g g g g g g g y           x.x.x.x.x.x.x.x.x.x.x.x.x.x.",
"x.x.x.x.x.x.x.x.x.x.x.x.x.x.          y g g g g u.u.u.u.u.u.u.u.u.u.u.u.u.u.@.H H H H l g g g g g g g g y           x.x.x.x.x.x.x.x.x.x.x.x.x.x.",
"x.x.x.x.x.x.x.x.x.x.x.x.x.x.          y g g g g g.g.g.g.f.u.u.u.u.u.u.u.u.u.@.H H H H M m m m m g g g g y           x.x.x.x.x.x.x.x.x.x.x.x.x.x.",
"x.x.x.x.x.x.x.x.x.x.x.x.x.x.          y g g g g k.k.k.k.h.u.u.u.u.u.u.u.u.u.@.H H H H H H H H H g g g g y           x.x.x.x.x.x.x.x.x.x.x.x.x.x.",
"x.x.x.x.x.x.x.x.x.x.x.x.x.x.          y g g g g k.k.k.k.h.u.u.u.u.u.u.u.u.u.@.H H H H H H H H H g g g g y           x.x.x.x.x.x.x.x.x.x.x.x.x.x.",
"x.x.x.x.x.x.x.x.x.x.x.x.x.x.          y g g g g k.k.k.k.h.u.u.u.u.u.u.u.u.u.@.H H H H H H H H H g g g g y           x.x.x.x.x.x.x.x.x.x.x.x.x.x.",
"x.x.x.x.x.x.x.x.x.x.x.x.x.x.          y g g g g k.k.k.k.h.u.u.u.u.u.u.u.u.u.@.H H H H H H H H H g g g g y           x.x.x.x.x.x.x.x.x.x.x.x.x.x.",
"x.x.x.x.x.x.x.x.x.x.        I -.-.-.-.B g g g g k.k.k.k.j.h.h.h.h.f.u.u.u.u.@.H H H H H H H H H 0.0.0.0.9.4.4.4.4.o.        x.x.x.x.x.x.x.x.x.x.",
"x.x.x.x.x.x.x.x.x.x.        W 2.2.2.2.J g g g g k.k.k.k.k.k.k.k.k.g.u.u.u.u.@.H H H H H H H H H z.z.z.z.z.z.z.z.z.$.        x.x.x.x.x.x.x.x.x.x.",
"x.x.x.x.x.x.x.x.x.x.        W 2.2.2.2.J g g g g k.k.k.k.k.k.k.k.k.g.u.u.u.u.@.H H H H H H H H H z.z.z.z.z.z.z.z.z.$.        x.x.x.x.x.x.x.x.x.x.",
"x.x.x.x.x.x.x.x.x.x.        W 2.2.2.2.J g g g g k.k.k.k.k.k.k.k.k.g.u.u.u.u.@.H H H H H H H H H z.z.z.z.z.z.z.z.z.$.        x.x.x.x.x.x.x.x.x.x.",
"x.x.x.x.x.x.x.x.x.x.        W 2.2.2.2.J g g g g k.k.k.k.k.k.k.k.k.g.u.u.u.u.@.H H H H H H H H H z.z.z.z.z.z.z.z.z.$.        x.x.x.x.x.x.x.x.x.x.",
"x.x.x.x.x.x.x.x.x.x.        W 2.2.2.2.J g g g g y.y.y.y.y.y.y.y.y.y.y.y.y.y. .H H H H H H H H H z.z.z.z.z.z.z.z.z.$.        x.x.x.x.x.x.x.x.x.x.",
"x.x.x.x.x.x.x.x.x.x.        W 2.2.2.2.J g g g g y.y.y.y.y.y.y.y.y.y.y.y.y.y. .H H H H H H H H H z.z.z.z.z.z.z.z.z.$.        x.x.x.x.x.x.x.x.x.x.",
"x.x.x.x.x.x.x.x.x.x.        W 2.2.2.2.J g g g g y.y.y.y.y.y.y.y.y.y.y.y.y.y. .H H H H H H H H H z.z.z.z.z.z.z.z.z.$.        x.x.x.x.x.x.x.x.x.x.",
"x.x.x.x.x.x.x.x.x.x.        W 2.2.2.2.J g g g g y.y.y.y.y.y.y.y.y.y.y.y.y.y. .H H H H H H H H H z.z.z.z.z.z.z.z.z.$.        x.x.x.x.x.x.x.x.x.x.",
"x.x.x.x.x.x.x.x.x.x.X X X X L -.-.-.-.v y y y y y.y.y.y.y.y.y.y.y.t.r.r.r.r.' | | | | | | | | | p.p.p.p.i.4.4.4.4.X.X X X X x.x.x.x.x.x.x.x.x.x.",
"x.x.x.x.x.x.x.x.x.x.3 3 3 3 O                   y.y.y.y.y.y.y.y.y.e.w.w.w.w.e.y.y.y.y.y.y.y.y.y.w.w.w.w.)         O 3 3 3 3 x.x.x.x.x.x.x.x.x.x.",
"x.x.x.x.x.x.x.x.x.x.3 3 3 3 O                   y.y.y.y.y.y.y.y.y.e.w.w.w.w.e.y.y.y.y.y.y.y.y.y.w.w.w.w.)         O 3 3 3 3 x.x.x.x.x.x.x.x.x.x.",
"x.x.x.x.x.x.x.x.x.x.3 3 3 3 O                   y.y.y.y.y.y.y.y.y.e.w.w.w.w.e.y.y.y.y.y.y.y.y.y.w.w.w.w.)         O 3 3 3 3 x.x.x.x.x.x.x.x.x.x.",
"x.x.x.x.x.x.x.x.x.x.3 3 3 3 O                   y.y.y.y.y.y.y.y.y.e.w.w.w.w.e.y.y.y.y.y.y.y.y.y.w.w.w.w.)         O 3 3 3 3 x.x.x.x.x.x.x.x.x.x.",
"x.x.x.x.x.x.x.x.x.x.3 3 3 3 * O O O O .         } } } } { ] ] ] ] ` ~ ~ ~ ~ ( _ _ _ _ [ } } } } / / / / ^         O 3 3 3 3 x.x.x.x.x.x.x.x.x.x.",
"x.x.x.x.x.3 3 3 3 3 3 3 3 3 3 3 3 3 3 X         H H H H A g g g g 9                   c H H H H g g g g y         O 3 3 3 3 3 3 3 3 3 x.x.x.x.x.",
"x.x.x.x.x.3 3 3 3 3 3 3 3 3 3 3 3 3 3 X         H H H H A g g g g 9                   c H H H H g g g g y         O 3 3 3 3 3 3 3 3 3 x.x.x.x.x.",
"x.x.x.x.x.3 3 3 3 3 3 3 3 3 3 3 3 3 3 X         H H H H A g g g g 9                   c H H H H g g g g y         O 3 3 3 3 3 3 3 3 3 x.x.x.x.x.",
"x.x.x.x.x.3 3 3 3 3 3 3 3 3 3 3 3 3 3 X         H H H H A g g g g 9                   c H H H H g g g g y         O 3 3 3 3 3 3 3 3 3 x.x.x.x.x.",
"x.x.x.x.x.3 3 3 3 3 3 3 3 3 3 3 3 3 3 = & & & & d d d d s r r r r 4 & & & & & & & & & u d d d d r r r r q & & & & - 3 3 3 3 3 3 3 3 3 x.x.x.x.x.",
"x.x.x.x.x.3 3 3 3 3 3 3 3 3 3 3 3 3 3 3 3 3 3 3 3 3 3 3 3 3 3 3 3 3 3 3 3 3 3 3 3 3 3 3 3 3 3 3 3 3 3 3 3 3 3 3 3 3 3 3 3 3 3 3 3 3 3 x.x.x.x.x.",
"x.x.x.x.x.3 3 3 3 3 3 3 3 3 3 3 3 3 3 3 3 3 3 3 3 3 3 3 3 3 3 3 3 3 3 3 3 3 3 3 3 3 3 3 3 3 3 3 3 3 3 3 3 3 3 3 3 3 3 3 3 3 3 3 3 3 3 x.x.x.x.x.",
"x.x.x.x.x.3 3 3 3 3 3 3 3 3 3 3 3 3 3 3 3 3 3 3 3 3 3 3 3 3 3 3 3 3 3 3 3 3 3 3 3 3 3 3 3 3 3 3 3 3 3 3 3 3 3 3 3 3 3 3 3 3 3 3 3 3 3 x.x.x.x.x.",
"x.x.x.x.x.3 3 3 3 3 3 3 3 3 3 3 3 3 3 3 3 3 3 3 3 3 3 3 3 3 3 3 3 3 3 3 3 3 3 3 3 3 3 3 3 3 3 3 3 3 3 3 3 3 3 3 3 3 3 3 3 3 3 3 3 3 3 x.x.x.x.x.",
"x.x.x.x.x.x.x.x.x.x.3 3 3 3 3 3 3 3 3 3 3 3 3 3 3 3 3 3 3 3 3 3 3 3 3 3 3 3 3 3 3 3 3 3 3 3 3 3 3 3 3 3 3 3 3 3 3 3 3 3 3 3 x.x.x.x.x.x.x.x.x.x.",
"x.x.x.x.x.x.x.x.x.x.3 3 3 3 3 3 3 3 3 3 3 3 3 3 3 3 3 3 3 3 3 3 3 3 3 3 3 3 3 3 3 3 3 3 3 3 3 3 3 3 3 3 3 3 3 3 3 3 3 3 3 3 x.x.x.x.x.x.x.x.x.x.",
"x.x.x.x.x.x.x.x.x.x.3 3 3 3 3 3 3 3 3 3 3 3 3 3 3 3 3 3 3 3 3 3 3 3 3 3 3 3 3 3 3 3 3 3 3 3 3 3 3 3 3 3 3 3 3 3 3 3 3 3 3 3 x.x.x.x.x.x.x.x.x.x.",
"x.x.x.x.x.x.x.x.x.x.3 3 3 3 3 3 3 3 3 3 3 3 3 3 3 3 3 3 3 3 3 3 3 3 3 3 3 3 3 3 3 3 3 3 3 3 3 3 3 3 3 3 3 3 3 3 3 3 3 3 3 3 x.x.x.x.x.x.x.x.x.x.",
"x.x.x.x.x.x.x.x.x.x.3 3 3 3 3 3 3 3 3 3 3 3 3 3 3 3 3 3 3 3 3 3 3 3 3 3 3 3 3 3 3 3 3 3 3 3 3 3 3 3 3 3 3 3 3 3 3 3 3 3 3 3 x.x.x.x.x.x.x.x.x.x."
};
