/* XPM */
static char *RA0[] = {
/* columns rows colors chars-per-pixel */
"77 96 197 2 ",
"   c black",
".  c #010102",
"X  c #050402",
"o  c #020204",
"O  c #080503",
"+  c #0C0704",
"@  c #0D0805",
"#  c #0D0905",
"$  c #0F0A06",
"%  c #05060B",
"&  c #06080D",
"*  c #100B07",
"=  c #110B07",
"-  c #130A07",
";  c #110C07",
":  c #160D08",
">  c #180F09",
",  c #1A1009",
"<  c #1B120B",
"1  c #1E140C",
"2  c #1F140C",
"3  c #040811",
"4  c #090A12",
"5  c #0C0E19",
"6  c #141215",
"7  c #1E1514",
"8  c #1C1D1F",
"9  c #20130B",
"0  c #21110D",
"q  c #21160D",
"w  c #22160D",
"e  c #23170E",
"r  c #24160D",
"t  c #26170E",
"y  c #24180E",
"u  c #27180E",
"i  c #28180E",
"p  c #271A10",
"a  c #211916",
"s  c #251916",
"d  c #291B10",
"f  c #2C1B10",
"g  c #2B1D11",
"h  c #2D1D11",
"j  c #2C1D12",
"k  c #2A1C18",
"l  c #2A1D18",
"z  c #301D11",
"x  c #321E12",
"c  c #331F12",
"v  c #312013",
"b  c #312114",
"n  c #342315",
"m  c #382214",
"M  c #382516",
"N  c #3A2516",
"B  c #3D2516",
"V  c #34251D",
"C  c #35261E",
"Z  c #37271F",
"A  c #3D281D",
"S  c #081338",
"D  c #212224",
"F  c #382926",
"G  c #3E2F2B",
"H  c #3D3335",
"J  c #3C3337",
"K  c #402717",
"L  c #412818",
"P  c #422918",
"I  c #432918",
"U  c #432919",
"Y  c #442A19",
"T  c #452B19",
"R  c #452B1A",
"E  c #412C1A",
"W  c #452C1A",
"Q  c #462C1A",
"!  c #472D1B",
"~  c #462E1C",
"^  c #492E1C",
"/  c #492F1C",
"(  c #4A2F1C",
")  c #482F1E",
"_  c #482F1F",
"`  c #4A301C",
"'  c #4C311D",
"]  c #4D321E",
"[  c #4E321E",
"{  c #50341F",
"}  c #462F21",
"|  c #4E3420",
" . c #4F3520",
".. c #4C3226",
"X. c #513520",
"o. c #523621",
"O. c #533721",
"+. c #533623",
"@. c #543822",
"#. c #553922",
"$. c #563922",
"%. c #573A23",
"&. c #563825",
"*. c #573926",
"=. c #5E3F2A",
"-. c #593B2D",
";. c #403235",
":. c #523E33",
">. c #5A422F",
",. c #534136",
"<. c #63432B",
"1. c #62422D",
"2. c #68472F",
"3. c #654533",
"4. c #614534",
"5. c #604835",
"6. c #6A4831",
"7. c #6B4933",
"8. c #6C4A32",
"9. c #604A3E",
"0. c #68513D",
"q. c #76513A",
"w. c #7A543C",
"e. c #7D563E",
"r. c #7E573F",
"t. c #0D1E46",
"y. c #0D205E",
"u. c #112853",
"i. c #3A3A46",
"p. c #183665",
"a. c #1A3D6D",
"s. c #153274",
"d. c #294175",
"f. c #244079",
"g. c #364B71",
"h. c #314A75",
"j. c #344C76",
"k. c #735C46",
"l. c #786049",
"z. c #5C5F66",
"x. c #815941",
"c. c #825B40",
"v. c #825A42",
"b. c #835D45",
"n. c #8A6146",
"m. c #8A6147",
"M. c #81674F",
"N. c #91664B",
"B. c #91664C",
"V. c #966A4F",
"C. c #836950",
"Z. c #806953",
"A. c #816A53",
"S. c #9C6E53",
"D. c #8D775F",
"F. c #9F7154",
"G. c #A47558",
"H. c #A57659",
"J. c #A77759",
"K. c #A9795B",
"L. c #AC7B5D",
"P. c #8F7860",
"I. c #907A63",
"U. c #977E64",
"Y. c #91816B",
"T. c #99856F",
"R. c #998974",
"E. c #A18168",
"W. c #AA866A",
"Q. c #AA846F",
"!. c #A0886D",
"~. c #AA8673",
"^. c #AD8D71",
"/. c #AC9579",
"(. c #AD997F",
"). c #B79476",
"_. c #B9987B",
"`. c #B89B7F",
"'. c #1A3C81",
"]. c #1D438A",
"[. c #214D97",
"{. c #2554A0",
"}. c #275AA8",
"|. c #295EAC",
" X c #2F62AC",
".X c #2B63B2",
"XX c #2C65B5",
"oX c #A98D80",
"OX c #A8948D",
"+X c #BCA083",
"@X c #BDA285",
"#X c #B5AA9E",
"$X c #BAAB99",
"%X c #B1AAA4",
"&X c #A4A8B5",
"*X c #C1AC8F",
"=X c None",
/* pixels */
"=X=X=X=X=X=X=X=X=X=X=X=X=X=X=X=X=X=X=X=X=X=X=X=X=X=X=X=X=X                  =X=X=X=X=X                                        =X=X=X=X=X=X=X=X=X=X=X=X=X=X",
"=X=X=X=X=X=X=X=X=X=X=X=X=X=X=X=X=X=X=X=X=X=X=X=X=X=X=X=X=X                  =X=X=X=X=X                                        =X=X=X=X=X=X=X=X=X=X=X=X=X=X",
"=X=X=X=X=X=X=X=X=X=X=X=X=X=X=X=X=X=X=X=X=X=X=X=X=X=X=X=X=X                  =X=X=X=X=X                                        =X=X=X=X=X=X=X=X=X=X=X=X=X=X",
"=X=X=X=X=X=X=X=X=X=X=X=X=X=X=X=X=X=X=X=X=X=X=X=X=X=X=X=X=X                  =X=X=X=X=X                                        =X=X=X=X=X=X=X=X=X=X=X=X=X=X",
"=X=X=X=X=X=X=X=X=X=X=X=X=X=X=X=X=X=X=X=X=X=X=X=X=X=X=X=X=X        X ; ; ; ; $ =X=X=X=X+ @ @ @ @ = ; ; ; ; ; ; ; ; #           =X=X=X=X=X=X=X=X=X=X=X=X=X=X",
"=X=X=X=X=X=X=X=X=X=X=X=X=X=X=X=X=X=X=X                            < %.%.%.%.j         f K K K K @.%.%.%.%.%.%.%.%.E           =X=X=X=X=X=X=X=X=X=X=X=X=X=X",
"=X=X=X=X=X=X=X=X=X=X=X=X=X=X=X=X=X=X=X                            < %.%.%.%.j         f K K K K @.%.%.%.%.%.%.%.%.E           =X=X=X=X=X=X=X=X=X=X=X=X=X=X",
"=X=X=X=X=X=X=X=X=X=X=X=X=X=X=X=X=X=X=X                            < %.%.%.%.j         f K K K K @.%.%.%.%.%.%.%.%.E           =X=X=X=X=X=X=X=X=X=X=X=X=X=X",
"=X=X=X=X=X=X=X=X=X=X=X=X=X=X=X=X=X=X=X                            < %.%.%.%.j         f K K K K @.%.%.%.%.%.%.%.%.E           =X=X=X=X=X=X=X=X=X=X=X=X=X=X",
"=X=X=X=X=X=X=X=X=X=X=X=X=X=X=X=X=X=X=X2 e e e e e e e e w , , , , h %.%.%.%.M , , , , N / / / / #.%.%.%.#.n n n n p           =X=X=X=X=X=X=X=X=X=X=X=X=X=X",
"=X=X=X=X=X=X=X=X=X=X=X=X=X=X          E %.%.%.%.%.%.%.%.@.K K K K ! %.%.%.%.' K K K K { %.%.%.%.%.%.%.%.o.                    =X=X=X=X=X=X=X=X=X=X=X=X=X=X",
"=X=X=X=X=X=X=X=X=X=X=X=X=X=X          E %.%.%.%.%.%.%.%.@.K K K K ! %.%.%.%.' K K K K { %.%.%.%.%.%.%.%.o.                    =X=X=X=X=X=X=X=X=X=X=X=X=X=X",
"=X=X=X=X=X=X=X=X=X=X=X=X=X=X          E %.%.%.%.%.%.%.%.@.K K K K ! %.%.%.%.' K K K K { %.%.%.%.%.%.%.%.o.                    =X=X=X=X=X=X=X=X=X=X=X=X=X=X",
"=X=X=X=X=X=X=X=X=X=X=X=X=X=X          E %.%.%.%.%.%.%.%.@.K K K K ! %.%.%.%.' K K K K { %.%.%.%.%.%.%.%.o.                    =X=X=X=X=X=X=X=X=X=X=X=X=X=X",
"=X=X=X=X=X=X=X=X=X=X        y n n n n | %.%.%.%.%.%.%.%.$.[ [ [ [ X.%.%.%.%.o.[ [ [ [ @.%.%.%.%.%.%.%.%.#.n n n n v t t t t ,         =X=X=X=X=X=X=X=X=X=X",
"=X=X=X=X=X=X=X=X=X=X        b %.%.%.%.%.%.%.%.%.%.%.%.%.%.%.%.%.%.%.%.%.%.%.%.%.%.%.%.%.%.%.%.%.%.%.%.%.%.%.%.%.%.X.K K K K r         =X=X=X=X=X=X=X=X=X=X",
"=X=X=X=X=X=X=X=X=X=X        b %.%.%.%.%.%.%.%.%.%.%.%.%.%.%.%.%.%.%.%.%.%.%.%.%.%.%.%.%.%.%.%.%.%.%.%.%.%.%.%.%.%.X.K K K K r         =X=X=X=X=X=X=X=X=X=X",
"=X=X=X=X=X=X=X=X=X=X        b %.%.%.%.%.%.%.%.%.%.%.%.%.%.%.%.%.%.%.%.%.%.%.%.%.%.%.%.%.%.%.%.%.%.%.%.%.%.%.%.%.%.X.K K K K r         =X=X=X=X=X=X=X=X=X=X",
"=X=X=X=X=X=X=X=X=X=X        b %.%.%.%.%.%.%.%.%.%.%.%.%.%.%.%.%.%.%.%.%.%.%.%.%.%.%.%.%.%.%.%.%.%.%.%.%.%.%.%.%.%.X.K K K K r         =X=X=X=X=X=X=X=X=X=X",
"=X=X=X=X=X        1 ~ ~ ~ ~  .%.%.%.%.%.%.%.%.%.%.%.%.%.%.%.%.%.%.%.%.%.%.%.%.%.%.%.%.%.%.%.%.%.%.%.%.%.%.%.%.%.%.$.o.o.o.o.W c c c c :         =X=X=X=X=X",
"=X=X=X=X=X        q %.%.%.%.%.%.%.%.%.%.%.%.%.%.%.%.%.%.%.%.%.%.%.%.%.%.%.%.%.%.%.%.%.%.%.%.%.%.%.%.%.%.%.%.%.%.%.%.%.%.%.%.] K K K K >         =X=X=X=X=X",
"=X=X=X=X=X        q %.%.%.%.%.%.%.%.%.%.%.%.%.%.%.%.%.%.%.%.%.%.%.%.%.%.%.%.%.%.%.%.%.%.%.%.%.%.%.%.%.%.%.%.%.%.%.%.%.%.%.%.] K K K K >         =X=X=X=X=X",
"=X=X=X=X=X        q %.%.%.%.%.%.%.%.%.%.%.%.%.%.%.%.%.%.%.%.%.%.%.%.%.%.%.%.%.%.%.%.%.%.%.%.%.%.%.%.%.%.%.%.%.%.%.%.%.%.%.%.] K K K K >         =X=X=X=X=X",
"=X=X=X=X=X        q %.%.%.%.%.%.%.%.%.%.%.%.%.%.%.%.%.%.%.%.%.%.%.%.%.%.%.%.%.%.%.%.%.%.%.%.%.%.%.%.%.%.%.%.%.%.%.%.%.%.%.%.] K K K K >         =X=X=X=X=X",
"=X=X=X=X=X        q %.%.%.%.%.%.%.%.%.%.%.%.%.%.L K K K K K K K K ! %.%.%.%.%.%.%.%.%.%.%.%.%.%.U K K K L %.%.%.%.%.%.%.%.%.] K K K K >         =X=X=X=X=X",
"=X=X=X=X=X        q %.%.%.%.%.%.%.%.%.%.%.%.%.%.L K K K K K K K K ! %.%.%.%.%.%.%.%.%.%.%.%.%.%.U K K K L %.%.%.%.%.%.%.%.%.] K K K K >         =X=X=X=X=X",
"=X=X=X=X=X        q %.%.%.%.%.%.%.%.%.%.%.%.%.%.L K K K K K K K K ! %.%.%.%.%.%.%.%.%.%.%.%.%.%.U K K K L %.%.%.%.%.%.%.%.%.] K K K K >         =X=X=X=X=X",
"=X=X=X=X=X        q %.%.%.%.%.%.%.%.%.%.%.%.%.%.L K K K K K K K K ! %.%.%.%.%.%.%.%.%.%.%.%.%.%.U K K K L %.%.%.%.%.%.%.%.%.] K K K K >         =X=X=X=X=X",
"=X=X=X=X=X@ @ @ @ d %.%.%.%.@.o.o.o.o.<.2.2.2.2.*.&.&.&.+.K K K K ! %.%.%.%.%.%.%.%.%.%.%.%.%.%.U K K K L o.o.o.o.o.o.o.o.o.` K K K K >         =X=X=X=X=X",
"        + K K K K ^ %.%.%.%.( K K K K B.L.L.L.L.L.L.L.L.F.K K K K ! %.%.%.%.%.%.%.%.%.%.%.%.%.%.U K K K K K K K K K K K K K K K K K K >         =X=X=X=X=X",
"        + K K K K ^ %.%.%.%.( K K K K B.L.L.L.L.L.L.L.L.F.K K K K ! %.%.%.%.%.%.%.%.%.%.%.%.%.%.U K K K K K K K K K K K K K K K K K K >         =X=X=X=X=X",
"        + K K K K ^ %.%.%.%.( K K K K B.L.L.L.L.L.L.L.L.F.K K K K ! %.%.%.%.%.%.%.%.%.%.%.%.%.%.U K K K K K K K K K K K K K K K K K K >         =X=X=X=X=X",
"        + K K K K ^ %.%.%.%.( K K K K B.L.L.L.L.L.L.L.L.F.K K K K ! %.%.%.%.%.%.%.%.%.%.%.%.%.%.U K K K K K K K K K K K K K K K K K K >         =X=X=X=X=X",
"        + K K K K R [ [ [ [ =.7.7.7.7.S.L.L.L.L.L.L.L.L.G.7.7.7.7.1.[ [ [ [ o.%.%.%.%.%.%.%.%.%.U K K K K K K K K P / / / / R K K K K >         =X=X=X=X=X",
"        + K K K K K K K K K e.L.L.L.L.L.L.L.L.L.L.L.L.L.L.L.L.L.L.m.K K K K ' %.%.%.%.%.%.%.%.%.U K K K K K K K K Q %.%.%.%.] K K K K >         =X=X=X=X=X",
"        + K K K K K K K K K e.L.L.L.L.L.L.L.L.L.L.L.L.L.L.L.L.L.L.m.K K K K ' %.%.%.%.%.%.%.%.%.U K K K K K K K K Q %.%.%.%.] K K K K >         =X=X=X=X=X",
"        + K K K K K K K K K e.L.L.L.L.L.L.L.L.L.L.L.L.L.L.L.L.L.L.m.K K K K ' %.%.%.%.%.%.%.%.%.U K K K K K K K K Q %.%.%.%.] K K K K >         =X=X=X=X=X",
"        + K K K K K K K K K e.L.L.L.L.L.L.L.L.L.L.L.L.L.L.L.L.L.L.m.K K K K ' %.%.%.%.%.%.%.%.%.U K K K K K K K K Q %.%.%.%.] K K K K >         =X=X=X=X=X",
"        + K K K K x , , , , A -.-.-.-.E._._._._._._._._.^.-.-.-.-.3.x.x.x.x.8.%.%.%.%.[ / / / / w.x.x.x.r.[ [ [ [ { %.%.%.%.] K K K K >         =X=X=X=X=X",
"        + K K K K i         - 0 0 0 0 T.*X*X*X*X*X*X*X*X(.0 0 0 0 ..L.L.L.L.c.%.%.%.%.! K K K K F.L.L.L.J.%.%.%.%.%.%.%.%.%.] K K K K >         =X=X=X=X=X",
"        + K K K K i         - 0 0 0 0 T.*X*X*X*X*X*X*X*X(.0 0 0 0 ..L.L.L.L.c.%.%.%.%.! K K K K F.L.L.L.J.%.%.%.%.%.%.%.%.%.] K K K K >         =X=X=X=X=X",
"        + K K K K i         - 0 0 0 0 T.*X*X*X*X*X*X*X*X(.0 0 0 0 ..L.L.L.L.c.%.%.%.%.! K K K K F.L.L.L.J.%.%.%.%.%.%.%.%.%.] K K K K >         =X=X=X=X=X",
"        + K K K K i         - 0 0 0 0 T.*X*X*X*X*X*X*X*X(.0 0 0 0 ..L.L.L.L.c.%.%.%.%.! K K K K F.L.L.L.J.%.%.%.%.%.%.%.%.%.] K K K K >         =X=X=X=X=X",
"=X=X=X=X=X@ @ @ @ O         - 0 0 0 0 T.*X*X*X*X*X*X*X*X(.0 0 0 0 :.@X@X@X@XM.T T T T e.V.V.V.V.K.L.L.L.J.%.%.%.%.o.T T T T I K K K K >         =X=X=X=X=X",
"=X=X=X=X=X                  - 0 0 0 0 T.*X*X*X*X*X*X*X*X(.0 0 0 0 ,.*X*X*X*XA.K K K K m.L.L.L.L.L.L.L.L.J.%.%.%.%.X.K K K K K K K K K >         =X=X=X=X=X",
"=X=X=X=X=X                  - 0 0 0 0 T.*X*X*X*X*X*X*X*X(.0 0 0 0 ,.*X*X*X*XA.K K K K m.L.L.L.L.L.L.L.L.J.%.%.%.%.X.K K K K K K K K K >         =X=X=X=X=X",
"=X=X=X=X=X                  - 0 0 0 0 T.*X*X*X*X*X*X*X*X(.0 0 0 0 ,.*X*X*X*XA.K K K K m.L.L.L.L.L.L.L.L.J.%.%.%.%.X.K K K K K K K K K >         =X=X=X=X=X",
"=X=X=X=X=X                  - 0 0 0 0 T.*X*X*X*X*X*X*X*X(.0 0 0 0 ,.*X*X*X*XA.K K K K m.L.L.L.L.L.L.L.L.J.%.%.%.%.X.K K K K K K K K K >         =X=X=X=X=X",
"=X=X=X=X=X=X=X=X=X=X        4.L.L.L.L.+X*X*X*X*X*X*X*X*X*X*X*X*X*X*X*X*X*X*X).L.L.L.L.L.L.L.L.L.L.L.L.L.H.K K K K K K K K K r         =X=X=X=X=X=X=X=X=X=X",
"=X=X=X=X=X=X=X=X=X=X        4.L.L.L.L.+X*X*X*X*X*X*X*X*X*X*X*X*X*X*X*X*X*X*X).L.L.L.L.L.L.L.L.L.L.L.L.L.H.K K K K K K K K K r         =X=X=X=X=X=X=X=X=X=X",
"=X=X=X=X=X=X=X=X=X=X        4.L.L.L.L.+X*X*X*X*X*X*X*X*X*X*X*X*X*X*X*X*X*X*X).L.L.L.L.L.L.L.L.L.L.L.L.L.H.K K K K K K K K K r         =X=X=X=X=X=X=X=X=X=X",
"=X=X=X=X=X=X=X=X=X=X        4.L.L.L.L.+X*X*X*X*X*X*X*X*X*X*X*X*X*X*X*X*X*X*X).L.L.L.L.L.L.L.L.L.L.L.L.L.H.K K K K K K K K K r         =X=X=X=X=X=X=X=X=X=X",
"=X=X=X=X=X=X=X=X=X=X        9.Q.Q.Q.Q.`.@X@X@X@X@X@X@X@X@X@X@X@X@X@X@X@X@X@XW.V.V.V.V.V.V.V.V.V.V.V.V.V.N.K K K K B c c c c 9         =X=X=X=X=X=X=X=X=X=X",
"=X=X=X=X=X=X=X=X=X=X        z.&X&X&X&X~.L.L.L.L.L.L.L.L.L.L.L.L.L.L.L.L.L.L.q.K K K K K K K K K K K K K K K K K K z           =X=X=X=X=X=X=X=X=X=X=X=X=X=X",
"=X=X=X=X=X=X=X=X=X=X        z.&X&X&X&X~.L.L.L.L.L.L.L.L.L.L.L.L.L.L.L.L.L.L.q.K K K K K K K K K K K K K K K K K K z           =X=X=X=X=X=X=X=X=X=X=X=X=X=X",
"=X=X=X=X=X=X=X=X=X=X        z.&X&X&X&X~.L.L.L.L.L.L.L.L.L.L.L.L.L.L.L.L.L.L.q.K K K K K K K K K K K K K K K K K K z           =X=X=X=X=X=X=X=X=X=X=X=X=X=X",
"=X=X=X=X=X=X=X=X=X=X        z.&X&X&X&X~.L.L.L.L.L.L.L.L.L.L.L.L.L.L.L.L.L.L.q.K K K K K K K K K K K K K K K K K K z           =X=X=X=X=X=X=X=X=X=X=X=X=X=X",
"=X=X=X=X=X=X=X=X=X=X        z.&X&X&X&XOXoXoXoXoXb.x.x.x.v.n.n.n.n.n.n.n.n.n.6./ / / / / / / / / / / / / ! t t t t 9         =X=X=X=X=X=X=X=X=X=X=X=X=X=X=X",
"=X=X=X=X=X=X=X=X=X=X        z.&X&X&X&X&X&X&X&X&X} K K K U %.%.%.%.%.%.%.%.%.%.%.%.%.%.%.%.%.%.%.%.%.%.%.o.          =X=X=X=X=X=X=X=X=X=X=X=X=X=X=X=X=X=X=X",
"=X=X=X=X=X=X=X=X=X=X        z.&X&X&X&X&X&X&X&X&X} K K K U %.%.%.%.%.%.%.%.%.%.%.%.%.%.%.%.%.%.%.%.%.%.%.o.          =X=X=X=X=X=X=X=X=X=X=X=X=X=X=X=X=X=X=X",
"=X=X=X=X=X=X=X=X=X=X        z.&X&X&X&X&X&X&X&X&X} K K K U %.%.%.%.%.%.%.%.%.%.%.%.%.%.%.%.%.%.%.%.%.%.%.o.          =X=X=X=X=X=X=X=X=X=X=X=X=X=X=X=X=X=X=X",
"=X=X=X=X=X=X=X=X=X=X        z.&X&X&X&X&X&X&X&X&X} K K K U %.%.%.%.%.%.%.%.%.%.%.%.%.%.%.%.%.%.%.%.%.%.%.o.          =X=X=X=X=X=X=X=X=X=X=X=X=X=X=X=X=X=X=X",
"=X=X=X=X=X=X=X=X=X=X        z.&X&X&X&X%X#X#X#X#XI.D.D.D.P.U.U.U.U.C.%.%.%.%.%.%.%.%.%.[ / / / / #.%.%.%.#.n n n n j         =X=X=X=X=X=X=X=X=X=X=X=X=X=X=X",
"=X=X=X=X=X=X=X=X=X=X        z.&X&X&X&X$X*X*X*X*X*X*X*X*X*X*X*X*X*X!.%.%.%.%.%.%.%.%.%.! K K K K @.%.%.%.%.%.%.%.%.E           =X=X=X=X=X=X=X=X=X=X=X=X=X=X",
"=X=X=X=X=X=X=X=X=X=X        z.&X&X&X&X$X*X*X*X*X*X*X*X*X*X*X*X*X*X!.%.%.%.%.%.%.%.%.%.! K K K K @.%.%.%.%.%.%.%.%.E           =X=X=X=X=X=X=X=X=X=X=X=X=X=X",
"=X=X=X=X=X=X=X=X=X=X        z.&X&X&X&X$X*X*X*X*X*X*X*X*X*X*X*X*X*X!.%.%.%.%.%.%.%.%.%.! K K K K @.%.%.%.%.%.%.%.%.E           =X=X=X=X=X=X=X=X=X=X=X=X=X=X",
"=X=X=X=X=X=X=X=X=X=X        z.&X&X&X&X$X*X*X*X*X*X*X*X*X*X*X*X*X*X!.%.%.%.%.%.%.%.%.%.! K K K K @.%.%.%.%.%.%.%.%.E           =X=X=X=X=X=X=X=X=X=X=X=X=X=X",
"=X=X=X=X=X=X=X=X=X=X=X=X=X=X8 D D D D R.*X*X*X*X5.>.>.>.>.>.>.>.>.k././././.l.T T T T L K K K K Y T T T Q %.%.%.%.O.~ ~ ~ ~ g         =X=X=X=X=X=X=X=X=X=X",
"=X=X=X=X=X=X=X=X=X=X=X=X=X=X          Y.*X*X*X*X_ K K K K K K K K 0.*X*X*X*XA.K K K K K K K K K K K K K L %.%.%.%.%.%.%.%.%.b         =X=X=X=X=X=X=X=X=X=X",
"=X=X=X=X=X=X=X=X=X=X=X=X=X=X          Y.*X*X*X*X_ K K K K K K K K 0.*X*X*X*XA.K K K K K K K K K K K K K L %.%.%.%.%.%.%.%.%.b         =X=X=X=X=X=X=X=X=X=X",
"=X=X=X=X=X=X=X=X=X=X=X=X=X=X          Y.*X*X*X*X_ K K K K K K K K 0.*X*X*X*XA.K K K K K K K K K K K K K L %.%.%.%.%.%.%.%.%.b         =X=X=X=X=X=X=X=X=X=X",
"=X=X=X=X=X=X=X=X=X=X=X=X=X=X          Y.*X*X*X*X) K K K K K K K K 0.*X*X*X*XZ.K K K K K K K K K K K K K L %.%.%.%.%.%.%.%.%.b         =X=X=X=X=X=X=X=X=X=X",
"=X=X=X=X=X=X=X=X=X=X=X=X=X=X=X=X=X=X=X                  3 ].].].].].].].].].{.XXXXXXXXXXXXXXXXXXG K K K K K K K K K K K K K r         =X=X=X=X=X=X=X=X=X=X",
"=X=X=X=X=X=X=X=X=X=X=X=X=X=X=X=X=X=X=X                  3 ].].].].].].].].].{.XXXXXXXXXXXXXXXXXXG K K K K K K K K K K K K K r         =X=X=X=X=X=X=X=X=X=X",
"=X=X=X=X=X=X=X=X=X=X=X=X=X=X=X=X=X=X=X                  3 ].].].].].].].].].{.XXXXXXXXXXXXXXXXXXG K K K K K K K K K K K K K r         =X=X=X=X=X=X=X=X=X=X",
"=X=X=X=X=X=X=X=X=X=X=X=X=X=X=X=X=X=X=X                  3 ].].].].].].].].].{.XXXXXXXXXXXXXXXXXXG K K K K K K K K K K K K K r         =X=X=X=X=X=X=X=X=X=X",
"=X=X=X=X=X=X=X=X=X=X=X=X=X=X=X=X=X=X=X          * ; ; ; 6 d.d.d.d.f.'.'.'.'.[.|.|.|.|..XXXXXXXXXi.J J J H T T T T T T T T T u         =X=X=X=X=X=X=X=X=X=X",
"=X=X=X=X=X=X=X=X=X=X=X=X=X=X=X=X=X=X=X          o.%.%.%.%.%.%.%.%.;.y.y.y.y.s.].].].].}.XXXXXXXXXXXXXXXX X%.%.%.%.%.%.%.%.%.b         % 5 5 5 5 =X=X=X=X=X",
"=X=X=X=X=X=X=X=X=X=X=X=X=X=X=X=X=X=X=X          o.%.%.%.%.%.%.%.%.;.y.y.y.y.s.].].].].}.XXXXXXXXXXXXXXXX X%.%.%.%.%.%.%.%.%.b         % 5 5 5 5 =X=X=X=X=X",
"=X=X=X=X=X=X=X=X=X=X=X=X=X=X=X=X=X=X=X          o.%.%.%.%.%.%.%.%.;.y.y.y.y.s.].].].].}.XXXXXXXXXXXXXXXX X%.%.%.%.%.%.%.%.%.b         % 5 5 5 5 =X=X=X=X=X",
"=X=X=X=X=X=X=X=X=X=X=X=X=X=X=X=X=X=X=X          o.%.%.%.%.%.%.%.%.;.y.y.y.y.s.].].].].}.XXXXXXXXXXXXXXXX X%.%.%.%.%.%.%.%.%.b         % 5 5 5 5 =X=X=X=X=X",
"=X=X=X=X=X=X=X=X=X=X=X=X=X=X=X=X=X=X=X.         o.%.%.%.$.[ [ [ [ F S S S S t.u.u.u.u.p.a.a.a.a.h.j.j.j.g.%.%.%.%.%.%.%.%.%.b         % 5 5 5 5 =X=X=X=X=X",
"=X=X=X=X=X=X=X=X=X=X=X=X=X=X=X5 5 5 5 o         o.%.%.%.@.K K K K f                             m K K K L %.%.%.%.%.%.%.%.%.b         % 5 5 5 5 5 5 5 5 5 ",
"=X=X=X=X=X=X=X=X=X=X=X=X=X=X=X5 5 5 5 o         o.%.%.%.@.K K K K f                             m K K K L %.%.%.%.%.%.%.%.%.b         % 5 5 5 5 5 5 5 5 5 ",
"=X=X=X=X=X=X=X=X=X=X=X=X=X=X=X5 5 5 5 o         o.%.%.%.@.K K K K f                             m K K K L %.%.%.%.%.%.%.%.%.b         % 5 5 5 5 5 5 5 5 5 ",
"=X=X=X=X=X=X=X=X=X=X=X=X=X=X=X5 5 5 5 o         o.%.%.%.@.K K K K f                             m K K K L %.%.%.%.%.%.%.%.%.b         % 5 5 5 5 5 5 5 5 5 ",
"=X=X=X=X=X=X=X=X=X=X=X=X=X=X=X5 5 5 5 & % % % % V Z Z Z C k k k k 7 % % % % % % % % % % % % % % s k k k l Z Z Z Z Z Z Z Z Z a % % % % 4 5 5 5 5 5 5 5 5 5 ",
"=X=X=X=X=X=X=X=X=X=X=X=X=X=X=X5 5 5 5 5 5 5 5 5 5 5 5 5 5 5 5 5 5 5 5 5 5 5 5 5 5 5 5 5 5 5 5 5 5 5 5 5 5 5 5 5 5 5 5 5 5 5 5 5 5 5 5 5 5 5 5 5 5 5 5 5 5 ",
"=X=X=X=X=X=X=X=X=X=X=X=X=X=X=X5 5 5 5 5 5 5 5 5 5 5 5 5 5 5 5 5 5 5 5 5 5 5 5 5 5 5 5 5 5 5 5 5 5 5 5 5 5 5 5 5 5 5 5 5 5 5 5 5 5 5 5 5 5 5 5 5 5 5 5 5 5 ",
"=X=X=X=X=X=X=X=X=X=X=X=X=X=X=X5 5 5 5 5 5 5 5 5 5 5 5 5 5 5 5 5 5 5 5 5 5 5 5 5 5 5 5 5 5 5 5 5 5 5 5 5 5 5 5 5 5 5 5 5 5 5 5 5 5 5 5 5 5 5 5 5 5 5 5 5 5 ",
"=X=X=X=X=X=X=X=X=X=X=X=X=X=X=X5 5 5 5 5 5 5 5 5 5 5 5 5 5 5 5 5 5 5 5 5 5 5 5 5 5 5 5 5 5 5 5 5 5 5 5 5 5 5 5 5 5 5 5 5 5 5 5 5 5 5 5 5 5 5 5 5 5 5 5 5 5 ",
"=X=X=X=X=X=X=X=X=X=X=X=X=X=X=X=X=X=X=X=X5 5 5 5 5 5 5 5 5 5 5 5 5 5 5 5 5 5 5 5 5 5 5 5 5 5 5 5 5 5 5 5 5 5 5 5 5 5 5 5 5 5 5 5 5 5 5 5 5 5 5 5 =X=X=X=X=X",
"=X=X=X=X=X=X=X=X=X=X=X=X=X=X=X=X=X=X=X=X5 5 5 5 5 5 5 5 5 5 5 5 5 5 5 5 5 5 5 5 5 5 5 5 5 5 5 5 5 5 5 5 5 5 5 5 5 5 5 5 5 5 5 5 5 5 5 5 5 5 5 5 =X=X=X=X=X",
"=X=X=X=X=X=X=X=X=X=X=X=X=X=X=X=X=X=X=X=X5 5 5 5 5 5 5 5 5 5 5 5 5 5 5 5 5 5 5 5 5 5 5 5 5 5 5 5 5 5 5 5 5 5 5 5 5 5 5 5 5 5 5 5 5 5 5 5 5 5 5 5 =X=X=X=X=X",
"=X=X=X=X=X=X=X=X=X=X=X=X=X=X=X=X=X=X=X=X5 5 5 5 5 5 5 5 5 5 5 5 5 5 5 5 5 5 5 5 5 5 5 5 5 5 5 5 5 5 5 5 5 5 5 5 5 5 5 5 5 5 5 5 5 5 5 5 5 5 5 5 =X=X=X=X=X",
"=X=X=X=X=X=X=X=X=X=X=X=X=X=X=X=X=X=X=X=X5 5 5 5 5 5 5 5 5 5 5 5 5 5 5 5 5 5 5 5 5 5 5 5 5 5 5 5 5 5 5 5 5 5 5 5 5 5 5 5 5 5 5 5 5 5 5 5 5 5 5 5 =X=X=X=X=X"
};
