/* XPM */
static char *RA1[] = {
/* columns rows colors chars-per-pixel */
"96 65 145 2 ",
"   c black",
".  c #0B0704",
"X  c #0F0906",
"o  c #050609",
"O  c #0B0A09",
"+  c #110A06",
"@  c #160E08",
"#  c #190F09",
"$  c #171009",
"%  c #1D120B",
"&  c #0C0E19",
"*  c #1D1815",
"=  c #151618",
"-  c #21120D",
";  c #25180E",
":  c #29190F",
">  c #2D1D12",
",  c #321F12",
"<  c #2B241E",
"1  c #352214",
"2  c #3A2516",
"3  c #37281E",
"4  c #3D2919",
"5  c #1D1E20",
"6  c #242527",
"7  c #26272A",
"8  c #2B2C2F",
"9  c #332D26",
"0  c #3D2C24",
"q  c #323337",
"w  c #37383D",
"e  c #402717",
"r  c #442B19",
"t  c #492F1C",
"y  c #4C311E",
"u  c #50341F",
"i  c #433024",
"p  c #4B3322",
"a  c #523621",
"s  c #573A23",
"d  c #5A3C26",
"f  c #5D3D29",
"g  c #4B3D33",
"h  c #523E33",
"j  c #5D4129",
"k  c #4A4135",
"l  c #4F473B",
"z  c #544B3E",
"x  c #60412B",
"c  c #6B4833",
"v  c #734F38",
"b  c #6A523E",
"n  c #76523E",
"m  c #7D563F",
"M  c #73583F",
"N  c #0B1C52",
"B  c #132B59",
"V  c #3A3B40",
"C  c #0E2362",
"Z  c #16336C",
"A  c #183772",
"S  c #1E3974",
"D  c #18397E",
"F  c #223F7B",
"G  c #413D44",
"H  c #404247",
"J  c #4A474E",
"K  c #47494F",
"L  c #4E4E4E",
"P  c #544644",
"I  c #5A4940",
"U  c #4C4E54",
"Y  c #614E45",
"T  c #6C5A4A",
"R  c #725B46",
"E  c #7F5942",
"W  c #60585F",
"Q  c #726554",
"!  c #575960",
"~  c #5D5D60",
"^  c #695F62",
"/  c #626265",
"(  c #6F6461",
")  c #62656D",
"_  c DimGray",
"`  c #7B6E68",
"'  c #686B73",
"]  c #72757E",
"[  c gray48",
"{  c #825B44",
"}  c #885F46",
"|  c #896045",
" . c #876149",
".. c #8E654D",
"X. c #91664B",
"o. c #94694E",
"O. c #8B6F59",
"+. c #936E56",
"@. c #9D7155",
"#. c #A37457",
"$. c #A47659",
"%. c #AC7B5D",
"&. c #927E69",
"*. c #A77B62",
"=. c #AE7F61",
"-. c #97846D",
";. c #9F8B73",
":. c #B2896B",
">. c #B48E71",
",. c #AA957B",
"<. c #1B3E83",
"1. c #1D438A",
"2. c #26589D",
"3. c #335A94",
"4. c #345C99",
"5. c #2C65B5",
"6. c #757881",
"7. c #7D7E84",
"8. c #787E97",
"9. c #4674B5",
"0. c #807E88",
"q. c #7D808A",
"w. c #80838E",
"e. c #89898B",
"r. c #8B8C91",
"t. c #83899F",
"y. c #8F929D",
"u. c #91949E",
"i. c #8D92A5",
"p. c #9194A0",
"a. c #979AA6",
"s. c #9B9FAB",
"d. c #9DA1AD",
"f. c #A9AAAE",
"g. c #A1A5B1",
"h. c #A4A8B5",
"j. c #ABAEBA",
"k. c #C1AC8F",
"l. c #B9BCC6",
"z. c #C0C2CC",
"x. c #CDCED0",
"c. c #D0D2D8",
"v. c #DBDCE1",
"b. c white",
"n. c None",
/* pixels */
"n.n.n.n.n.n.n.n.n.n.n.n.n.n.n.n.n.n.n.n.n.n.n.n.n.n.n.n.n.n.n.n.n.n.n.n.n.n.n.n.n.n.n.n.n.n.n.n.n.n.n.n.n.n.n.n.            n.n.n.                      n.n.n.n.n.n.n.n.n.n.n.n.n.n.n.n.n.n.n.n.",
"n.n.n.n.n.n.n.n.n.n.n.n.n.n.n.n.n.n.n.n.n.n.n.n.n.n.n.n.n.n.n.n.n.n.n.n.n.n.n.n.n.n.n.n.n.n.n.n.n.n.n.n.n.n.n.n.            n.n.n.                      n.n.n.n.n.n.n.n.n.n.n.n.n.n.n.n.n.n.n.n.",
"n.n.n.n.n.n.n.n.n.n.n.n.n.n.n.n.n.n.n.n.n.n.n.n.n.n.n.n.n.n.n.n.n.n.n.n.n.n.n.n.n.n.n.n.n.n.n.n.n.n.n.n.n.n.n.n.      . X X n.n.n.. . X X X + X X .     n.n.n.n.n.n.n.n.n.n.n.n.n.n.n.n.n.n.n.n.",
"n.n.n.n.n.n.n.n.n.n.n.n.n.n.n.n.n.n.n.n.n.n.n.n.n.n.n.n.n.n.n.n.n.n.n.n.n.n.n.n.n.n.n.n.n.n.n.n.n.n.n.                4 s s .   . e e r s s s s s ;     n.n.n.n.n.n.n.n.n.n.n.n.n.n.n.n.n.n.n.n.",
"n.n.n.n.n.n.n.n.n.n.n.n.n.n.n.n.n.n.n.n.n.n.n.n.n.n.n.n.n.n.n.n.n.n.n.n.n.n.n.n.n.n.n.n.n.n.n.n.n.n.n.                4 s s X     2 4 r s s s s s ;     n.n.n.n.n.n.n.n.n.n.n.n.n.n.n.n.n.n.n.n.",
"n.n.n.n.n.n.n.n.n.n.n.n.n.n.n.n.n.n.n.n.n.n.n.n.n.n.n.n.n.n.n.n.n.n.n.n.n.n.n.n.n.n.n.n.n.n.n.n.n.n.n.% % % % ; % @ @ r s s % @ % t t y s s y 2 4 $     n.n.n.n.n.n.n.n.n.n.n.n.n.n.n.n.n.n.n.n.",
"n.n.n.n.n.n.n.n.n.n.n.n.n.n.n.n.n.n.n.n.n.n.n.n.n.n.n.n.n.n.n.n.n.n.n.n.n.n.n.n.n.n.n.n.n.n.n.n.    X d s s s s y 2 e u s s e e e s s s s s 1           n.n.n.n.n.n.n.n.n.n.n.n.n.n.n.n.n.n.n.n.",
"n.n.n.n.n.n.n.n.n.n.n.n.n.n.n.n.n.n.n.n.n.n.n.n.n.n.n.n.n.n.n.n.n.n.n.n.n.n.n.n.n.n.n.n.n.n.n.n..   X s s s s s y e e u s s r e e s s s s s 1           n.n.n.n.n.n.n.n.n.n.n.n.n.n.n.n.n.n.n.n.",
"n.n.n.n.n.n.n.n.n.n.n.n.n.n.n.n.n.n.n.n.n.n.n.n.n.n.n.n.n.n.n.n.n.n.n.n.n.n.n.n.n.n.n.n.n.n.    , , 2 s s s s s u y u u s s y y t s s s s s t , : ; - - X     n.n.n.n.n.n.n.n.n.n.n.n.n.n.n.n.n.",
"n.n.n.n.n.n.n.n.n.n.n.n.n.n.n.n.n.n.n.n.n.n.n.n.n.n.n.n.n.n.n.n.n.n.n.n.n.n.n.n.n.n.n.n.n.      d u s s s s s s s s s s s s s s s s s s s s s s s y e e +     n.n.n.n.n.n.n.n.n.n.n.n.n.n.n.n.n.",
"n.n.n.n.n.n.n.n.n.n.n.n.n.n.n.n.n.n.n.n.n.n.n.n.n.n.n.n.n.n.n.n.n.n.n.n.n.n.n.n.n.n.n.n.n.      s s s s s s s s s s s s s s s s s s s s s s s s s y e e +     n.n.n.n.n.n.n.n.n.n.n.n.n.n.n.n.n.",
"n.n.n.n.n.n.n.n.n.n.n.n.n.n.n.n.n.n.n.n.n.n.n.n.n.n.n.n.n.n.n.n.n.n.n.n.n.n.n.n.n.n.n.    1 4 4 s s s s s s s s s s s s s s s s s s s s s s s s s u u u 1 : ,       n.n.n.n.n.n.n.n.n.n.n.n.n.n.",
"n.n.n.n.n.n.n.n.n.n.n.n.n.n.n.n.n.n.n.n.n.n.n.n.n.n.n.n.n.n.n.n.n.n.n.n.n.n.n.n.n.n.      t s s s s d u x u s s s s s s s s s s s s s s s s s s s s s s r e r       n.n.n.n.n.n.n.n.n.n.n.n.n.n.",
"n.n.n.n.n.n.n.n.n.n.n.n.n.n.n.n.n.n.n.n.n.n.n.n.n.n.n.n.n.n.n.n.n.n.n.n.n.n.n.n.n.n.      t s s u d u j u d s s s s s s s s s s s s s s s s s s s s s u r e e       n.n.n.n.n.n.n.n.n.n.n.n.n.n.",
"n.n.n.n.n.n.n.n.n.n.n.n.n.n.n.n.n.n.n.n.n.n.n.n.n.n.n.n.n.n.n.n.n.n.n.n.n.n.n.n.n.n.      y s s d u j u d u r r r r r u s s s s s s s s r r t s s s d d t e e .     n.n.n.n.n.n.n.n.n.n.n.n.n.n.",
"n.n.n.n.n.n.n.n.n.n.n.n.n.n.n.n.n.n.n.n.n.n.n.n.n.n.n.n.n.n.n.n.n.n.n.n.n.n.n.n.n.n.      t s s d d u j u u e e e e e u s s s s s s s u e e t s s s u d t e e       n.n.n.n.n.n.n.n.n.n.n.n.n.n.",
"n.n.n.n.n.n.n.n.n.n.n.n.n.n.n.n.n.n.n.n.n.n.n.n.n.n.n.n.n.n.n.n.n.n.n.n.n.n.n.n.n.n..     y s s a s s f d u r r e e e u s s s s s s s a e e t s s s s s t e e       n.n.n.n.n.n.n.n.n.n.n.n.n.n.",
"n.n.n.n.n.n.n.n.n.n.n.n.n.n.n.n.n.n.n.n.n.n.n.n.n.n.n.n.n.n.n.n.n.n.n.n.n.n.n.n.    : e 4 a s s e e a %.%.*.%.%.v e e u s s s s s s s a e e e e 2 e e e e e e       n.n.n.n.n.n.n.n.n.n.n.n.n.n.",
"n.n.n.n.n.n.n.n.n.n.n.n.n.n.n.n.n.n.n.n.n.n.n.n.n.n.n.n.n.n.n.n.n.n.n.n.n.n.n.n.    : e e a s s e e a %.%.%.%.%.v e e u s s s s s s s u e e e e e e e e e e e .     n.n.n.n.n.n.n.n.n.n.n.n.n.n.",
"n.n.n.n.n.n.n.n.n.n.n.n.n.n.n.n.n.n.n.n.n.n.n.n.n.n.n.n.n.n.n.n.n.n.n.n.n.n.n.n.    : e e y s u d d c %.%.%.%.%.{ s d a u a s s s s s a e e e e e r r r e e e       n.n.n.n.n.n.n.n.n.n.n.n.n.n.",
"n.n.n.n.n.n.n.n.n.n.n.n.n.n.n.n.n.n.n.n.n.n.n.n.n.n.n.n.n.n.n.n.n.n.n.n.n.n.n.n.    : e e e e e %.%.%.%.%.%.%.%.%.%.%.x e e s s s s s u e e e e e u s s t e e       n.n.n.n.n.n.n.n.n.n.n.n.n.n.",
"n.n.n.n.n.n.n.n.n.n.n.n.n.n.n.n.n.n.n.n.n.n.n.n.n.n.n.n.n.n.n.n.n.n.n.n.n.n.n.n.    : e e e e e %.%.*.%.%.%.%.%.%.%.%.f e e s s s s s u e e e e e y s s r e e .     n.n.n.n.n.n.n.n.n.n.n.n.n.n.",
"n.n.n.n.n.n.n.n.n.n.n.n.n.n.n.n.n.n.n.n.n.n.n.n.n.n.n.n.n.n.n.n.n.n.n.n.n.n.n.n.    : e e b R R v E { >.>.>.>.>.+.n E c c c s s s u t s c c f t t u s s r e e       n.n.n.n.n.n.n.n.n.n.n.n.n.n.",
"n.n.n.n.n.n.n.n.n.n.n.n.n.n.n.n.n.n.n.n.n.n.n.n.n.n.n.n.n.n.n.n.n.n.n.n.n.n.n.n.    : e e ,.k.k.- # 0 k.k.k.k.k.T - - { %.%.f s s e e d %.%.} s s s s s r e e       n.n.n.n.n.n.n.n.n.n.n.n.n.n.",
"n.n.n.n.n.n.n.n.n.n.n.n.n.n.n.n.n.n.n.n.n.n.n.n.n.n.n.n.n.n.n.n.n.n.n.n.n.n.n.n.    : e 2 ,.k.k.- - 0 k.k.k.k.k.T - - { %.%.x s s e e d %.%.| s s s s s r e e .     n.n.n.n.n.n.n.n.n.n.n.n.n.n.",
"n.n.n.n.n.n.n.n.n.n.n.n.n.n.n.n.n.n.n.n.n.n.n.n.n.n.n.n.n.n.n.n.n.n.n.n.n.n.n.n.n.n.@ % % k z z - - 0 k.k.k.k.k.T - - O.k.>.d t t E m } %.%.| s s u y t r e e       n.n.n.n.n.n.n.n.n.n.n.n.n.n.",
"n.n.n.n.n.n.n.n.n.n.n.n.n.n.n.n.n.n.n.n.n.n.n.n.n.n.n.n.n.n.n.n.n.n.n.n.n.n.n.n.n.n.            - - 0 k.k.k.k.k.T - - &.k.k.p e r %.%.%.%.%.| s s t e e e e e       n.n.n.n.n.n.n.n.n.n.n.n.n.n.",
"n.n.n.n.n.n.n.n.n.n.n.n.n.n.n.n.n.n.n.n.n.n.n.n.n.n.n.n.n.n.n.n.n.n.n.n.n.n.n.n.n.n.            - - 0 k.k.k.k.k.T - - &.k.k.a e t %.%.%.%.%.| s s t e e e e e .     n.n.n.n.n.n.n.n.n.n.n.n.n.n.",
"n.n.n.n.n.n.n.n.n.n.n.n.n.n.n.n.n.b.b.b.b.b.b.b.b.b.b.b.b.b.b.n.n.n.n.n.n.n.n.n.n.n.            -.-.;.k.k.k.k.k.k.&.&.*.:.:.o.X.X.%.%.%.%.%.E t r e e e % + + n.n.n.n.n.n.n.n.n.n.n.n.n.n.n.n.n.",
"n.n.n.n.n.n.n.n.n.n.n.n.n.n.n.n.n.b.b.b.b.b.b.b.b.b.b.b.b.b.b.n.n.n.n.n.n.n.n.n.n.n.            k.k.k.k.k.k.k.k.k.k.k.:.%.%.%.%.%.%.%.%.%.%.E e e e e e X     n.n.n.n.n.n.n.n.n.n.n.n.n.n.n.n.n.",
"n.n.n.n.n.n.n.n.n.n.n.n.n.n.n.n.n.b.b.b.b.b.b.b.b.b.b.b.b.b.b.n.n.n.n.n.n.n.n.n.n.n.            k.k.k.k.k.k.k.k.k.k.k.:.%.%.%.%.%.%.%.%.%.%.m e e e e e +     n.n.n.n.n.n.n.n.n.n.n.n.n.n.n.n.n.",
"n.n.n.n.n.n.n.n.n.n.n.b.b.b.b.b.b.b.b.b.b.b.b.b.b.n.n.n.n.n.n.n.n.n.n.n.n.n.n.n.n.n.n.n.n.      =.=.=.=.=.=.=.=.*.*.%.%.%.%.%.%.%.%.%. .+ + ; e e % .   n.n.n.n.n.n.n.n.n.n.n.n.n.n.n.n.n.n.n.n.",
"n.n.n.n.n.n.n.n.n.n.n.b.b.b.b.b.b.b.b.b.b.b.b.b.b.n.n.n.n.n.n.n.n.n.n.n.n.n.n.n.n.n.n.n.n.      %.%.%.%.*.%.%.%.%.%.%.%.%.%.%.%.%.%.%. .    % 4 e %     n.n.n.n.n.n.n.n.n.n.n.n.n.n.n.n.n.n.n.n.",
"n.n.n.n.n.n.n.n.n.n.n.b.b.b.b.b.b.b.b.b.b.b.b.b.b.n.n.n.n.n.n.n.n.n.n.n.n.n.n.n.n.n.n.n.n.      @.@.@.#.#.$.*.*.*.*.*.$.#.#.$.$.#.#.$.E     % 2 2 #     n.n.n.n.n.n.n.n.n.n.n.n.n.n.n.n.n.n.n.n.",
"n.n.n.n.n.n.b.b.b.b.b.b.b.b.b.b.b.b.b.b.b.b.b.n.n.n.n.n.n.n.n.n.n.n.n.n.n.n.n.n.n.n.n.n.n.          . e e P 8.8.8.8.8.h e e a s s s s 4           n.n.n.n.n.n.n.n.n.n.n.n.                      ",
"n.n.n.n.n.n.b.b.b.b.b.b.b.b.b.b.b.b.b.b.b.b.b.n.n.n.n.n.n.n.n.n.n.n.n.n.n.n.n.n.n.n.n.n.n.          X e e P 8.8.8.8.8.G e e s s s s s r           n.n.n.n.n.n.n.n.n.n.n.n.                      ",
"n.n.n.n.n.b.b.b.b.b.b.b.b.b.b.b.b.b.b.b.b.b.n.n.n.n.n.n.n.n.n.n.n.n.n.n.n.n.n.n.n.n.n.n.n.> > < + + - I I ^ t.t.0.8.8.I r t a s s M M b 9 9 *     n.n.n.n.n.n.n.n.n.n.n.n.8 8 8 8 8 8 8 8 o     ",
"n.n.n.b.b.b.b.b.b.b.b.b.b.b.b.b.b.b.b.b.n.n.n.n.n.n.n.n.n.n.n.n.n.n.n.n.n.n.n.n.n.n.      ..%.%.e e h h.h.h.h.h.i.8.0.Y s s s s j k.k.k.k.k.Q     n.n.n.n.n.n.          q h.h.h.h.h.h.h.h.5     ",
"n.n.n.b.b.b.b.b.b.b.b.b.b.b.b.b.b.b.b.b.n.n.n.n.n.n.n.n.n.n.n.n.n.n.n.n.n.n.n.n.n.n.      ..%.%.e e h h.h.h.h.h.i.8.8.Y s d s s j k.k.k.k.k.Q     n.n.n.n.n.n.          q h.h.h.h.h.h.h.h.5     ",
"n.n.b.b.b.b.b.b.b.b.b.b.b.b.b.b.b.b.b.b.n.n.n.n.n.n.n.n.n.n.n.n.n.n.n.n.n.n.n.n.n.n.      ..%.%.e e h h.h.h.h.h.0.) W G f d u y s k.k.k.k.k.-.z z 9 n.n.n.n.n.K K K K K ) g.h.h.h.h.h.h.h.5     ",
"b.b.b.b.b.b.b.b.b.b.b.b.b.b.b.b.b.b.b.b.n.n.n.n.n.n.n.n.n.n.n.n.n.n.n.n.n.n.n.n.n.n.      ..%.%.e e h h.h.h.h.h.( e e u s s e e t k.k.k.k.k.k.k.k.l           s.h.h.h.h.h.h.h.h.h.h.h.h.h.5     ",
"b.b.b.b.b.b.b.b.b.b.b.b.b.b.b.b.b.b.b.b.n.n.n.n.n.n.n.n.n.n.n.n.n.n.n.n.n.n.n.n.n.n.      ..%.%.e e h h.h.h.h.h.( e e u s s r e y k.k.k.k.k.k.k.k.l           s.h.h.h.h.h.h.h.h.h.h.h.h.h.5     ",
"b.b.b.b.b.b.b.b.b.b.b.b.b.b.b.b.b.b.b.b.n.n.n.n.n.n.n.n.n.n.n.n.n.n.n.n.n.n.n.n.n.n.      3 i i e e h h.h.h.h.h.Q a u a s s - # ; k.k.k.k.k.k.k.k.l     U ) ) g.h.h.h.h.h.h.h.h.h.h.) H H n.n.n.",
"b.b.b.b.b.b.b.b.b.b.b.b.b.b.b.b.b.b.b.b.n.n.n.n.n.n.n.n.n.n.n.n.n.n.n.n.n.n.n.n.n.n.            e e h g.h.h.h.h.` d s s s s + . + k.k.k.k.k.k.k.k.l     q.h.h.h.h.h.h.h.h.h.h.h.h.h.V     n.n.n.",
"b.b.b.b.b.b.b.b.b.b.b.b.b.b.b.b.b.b.b.b.n.n.n.n.n.n.n.n.n.n.n.n.n.n.n.n.n.n.n.n.n.n.            e e h h.h.h.h.h.` u s s s s .   X k.k.k.k.k.k.k.k.l     q.h.h.h.h.h.h.h.h.h.h.h.h.h.V     n.n.n.",
"b.b.b.b.b.b.b.b.b.b.b.b.b.b.b.b.b.b.b.b.b.b.n.n.n.n.n.n.n.n.n.n.n.n.n.n.n.n.n.n.n.n.      B Z Z 3.3.4.9.9.9.9.9.9.3.3.P s s , , , 6 < < < < < 6 < ~ w.w.s.h.h.h.h.h.h.h.h.h.h.' 7 6 n.n.n.n.n.n.",
"b.b.b.b.b.b.b.b.b.b.b.b.b.b.b.b.b.b.b.b.b.b.b.n.n.n.n.n.n.n.n.n.n.n.n.n.n.n.n.n.n.n.      A 1.1.5.5.5.5.5.5.5.5.5.5.5.J s s e e 2                 ) h.h.h.h.h.h.h.h.h.h.h.h.h.!     n.n.n.n.n.n.",
"b.b.b.b.b.b.b.b.b.b.b.b.b.b.b.b.b.b.b.b.b.b.b.n.n.n.n.n.n.n.n.n.n.n.n.n.n.n.n.n.n.n.      A 1.1.5.5.5.5.5.5.5.5.5.5.5.J s s r e 2                 ) h.h.h.h.h.h.h.h.h.h.h.h.h.!     n.n.n.n.n.n.",
"n.n.n.b.b.b.b.b.b.b.b.b.b.b.b.b.b.b.b.b.b.b.b.b.b.n.n.n.n.n.n.n.n.n.n.n.n.n.n.o     1 s a s s s 1.1.<.C C <.5.5.5.5.5.J s s X         7 d.d.d.d.d.g.h.h.h.h.h.h.h.h.h.h.6.O o o n.n.n.n.n.n.n.n.",
"n.n.n.b.b.b.b.b.b.b.b.b.b.b.b.b.b.b.b.b.b.b.b.b.b.n.n.n.n.n.n.n.n.n.n.n.n.& & o     2 s s s s s 1.1.<.N C D 5.5.5.5.5.J s s .         7 h.h.h.h.h.h.h.h.h.h.h.h.h.h.h.h.6.      n.n.n.n.n.n.n.n.",
"n.n.n.b.b.b.b.b.b.b.b.b.b.b.b.b.b.b.b.b.b.b.b.b.b.n.n.n.n.n.n.n.n.n.n.n.n.& & o     1 s s s d s F F S N N Z 2.2.2.2.2.G y p * = = = = w h.h.h.h.h.h.h.h.h.h.h.p.y.y.y.y.'     n.n.n.n.n.n.n.n.n.",
"n.n.n.b.b.b.b.b.b.b.b.b.b.b.b.b.b.b.b.b.b.b.b.b.b.b.b.b.b.b.b.n.n.n.& & & & & o     2 s s s s s e e 1                       p.h.h.h.h.h.h.h.h.h.h.h.h.h.h.h.h.O           n.n.n.n.n.n.n.n.n.n.n.",
"n.n.n.b.b.b.b.b.b.b.b.b.b.b.b.b.b.b.b.b.b.b.b.b.b.b.b.b.b.b.b.n.n.n.& & & & & o     2 s s s s s e e 1                       p.h.h.h.h.h.h.h.h.h.h.h.h.h.h.h.h.O           n.n.n.n.n.n.n.n.n.n.n.",
"n.n.n.b.b.b.b.b.b.b.b.b.b.b.b.b.b.b.b.b.b.b.b.b.b.b.b.b.b.b.b.n.n.n.7.7.7.7.7./ L L g p i p i p > > > q q q q q q q q q q q a.h.h.h.h.j.z.z.z.z.z.u.] ] ] ] ] O         n.n.n.n.n.n.n.n.n.n.n.n.",
"n.n.n.n.n.n.b.b.b.b.b.b.b.b.b.b.b.b.b.b.b.b.b.b.b.b.b.b.b.b.b.b.b.b.b.b.b.b.b.b.b.b.r.& & & & &     5 h.h.h.h.h.h.h.h.h.h.h.h.h.h.h.h.l.b.b.b.b.b._           n.n.n.n.n.n.n.n.n.n.n.n.n.n.n.n.n.",
"n.n.n.n.n.n.b.b.b.b.b.b.b.b.b.b.b.b.b.b.b.b.b.b.b.b.b.b.b.b.b.b.b.b.b.b.b.b.b.b.b.b.r.& & & & &     5 h.h.h.h.h.h.h.h.h.h.h.h.h.h.h.h.l.b.b.b.b.b._           n.n.n.n.n.n.n.n.n.n.n.n.n.n.n.n.n.",
"n.n.n.n.n.n.b.b.b.b.b.b.b.b.b.b.b.b.b.b.b.b.b.b.b.b.b.b.b.b.b.b.b.b.b.b.b.b.b.b.b.b.x.f.f.f.f.f.[ [ e.c.c.c.c.c.c.c.c.c.c.c.c.c.c.c.c.v.b.b.b.b.b._           n.n.n.n.n.n.n.n.n.n.n.n.n.n.n.n.n.",
"n.n.n.n.n.n.n.n.b.b.b.b.b.b.b.b.b.b.b.b.b.b.b.b.b.b.b.b.b.b.b.b.b.b.b.b.b.b.b.b.b.b.b.b.b.b.b.b.b.b.b.b.b.b.b.b.b.b.b.b.b.b.b.b.b.b.b.b.b.b.b.n.n.n.n.n.n.n.n.n.n.n.n.n.n.n.n.n.n.n.n.n.n.n.n.n.",
"n.n.n.n.n.n.n.n.b.b.b.b.b.b.b.b.b.b.b.b.b.b.b.b.b.b.b.b.b.b.b.b.b.b.b.b.b.b.b.b.b.b.b.b.b.b.b.b.b.b.b.b.b.b.b.b.b.b.b.b.b.b.b.b.b.b.b.b.b.b.b.n.n.n.n.n.n.n.n.n.n.n.n.n.n.n.n.n.n.n.n.n.n.n.n.n.",
"n.n.n.n.n.n.n.n.n.n.n.n.n.n.b.b.b.b.b.b.b.b.b.b.b.b.b.b.b.b.b.b.b.b.b.b.b.b.b.b.b.b.b.b.b.b.b.b.b.b.b.b.b.b.b.b.b.b.b.b.b.b.b.b.b.n.n.n.n.n.n.n.n.n.n.n.n.n.n.n.n.n.n.n.n.n.n.n.n.n.n.n.n.n.n.n.",
"n.n.n.n.n.n.n.n.n.n.n.n.n.n.b.b.b.b.b.b.b.b.b.b.b.b.b.b.b.b.b.b.b.b.b.b.b.b.b.b.b.b.b.b.b.b.b.b.b.b.b.b.b.b.b.b.b.b.b.b.b.b.b.b.b.n.n.n.n.n.n.n.n.n.n.n.n.n.n.n.n.n.n.n.n.n.n.n.n.n.n.n.n.n.n.n.",
"n.n.n.n.n.n.n.n.n.n.n.n.n.n.b.b.b.b.b.b.b.b.b.b.b.b.b.b.b.b.b.b.b.b.b.b.b.b.b.b.b.b.b.b.b.b.b.b.b.b.b.b.b.b.b.b.b.b.b.b.b.b.b.b.b.n.n.n.n.n.n.n.n.n.n.n.n.n.n.n.n.n.n.n.n.n.n.n.n.n.n.n.n.n.n.n.",
"n.n.n.n.n.n.n.n.n.n.n.n.n.n.n.n.n.n.n.n.n.n.n.n.n.b.b.b.b.b.b.b.b.b.b.b.b.b.b.b.b.b.b.b.b.b.b.b.b.b.b.b.b.b.b.b.b.n.n.n.n.n.n.n.n.n.n.n.n.n.n.n.n.n.n.n.n.n.n.n.n.n.n.n.n.n.n.n.n.n.n.n.n.n.n.n.",
"n.n.n.n.n.n.n.n.n.n.n.n.n.n.n.n.n.n.n.n.n.n.n.n.n.b.b.b.b.b.b.b.b.b.b.b.b.b.b.b.b.b.b.b.b.b.b.b.b.b.b.b.b.b.b.b.n.n.n.n.n.n.n.n.n.n.n.n.n.n.n.n.n.n.n.n.n.n.n.n.n.n.n.n.n.n.n.n.n.n.n.n.n.n.n.n.",
"n.n.n.n.n.n.n.n.n.n.n.n.n.n.n.n.n.n.n.n.n.n.n.n.n.b.b.b.b.b.b.b.b.b.b.b.b.b.b.b.b.b.b.b.b.b.b.b.b.b.b.b.b.b.b.b.n.n.n.n.n.n.n.n.n.n.n.n.n.n.n.n.n.n.n.n.n.n.n.n.n.n.n.n.n.n.n.n.n.n.n.n.n.n.n.n."
};
