/* XPM */
static char *PME1[] = {
/* columns rows colors chars-per-pixel */
"65 96 156 2 ",
"   c black",
".  c #010101",
"X  c #020305",
"o  c #030306",
"O  c #040407",
"+  c #0C0704",
"@  c #0F0906",
"#  c #06070D",
"$  c #07080E",
"%  c #110B06",
"&  c #150D07",
"*  c #150D08",
"=  c #150E08",
"-  c #170E08",
";  c #170F09",
":  c #18100A",
">  c #1B110A",
",  c #1A100B",
"<  c #1D120A",
"1  c #1F130B",
"2  c #1D130C",
"3  c #0A0C15",
"4  c #0C0E19",
"5  c #21110D",
"6  c #23150D",
"7  c #25170D",
"8  c #25190F",
"9  c #29190F",
"0  c #2B1A0F",
"q  c #2A1C11",
"w  c #221918",
"e  c #301E11",
"r  c #311F12",
"t  c #321F12",
"y  c #2F2013",
"u  c #2D201A",
"i  c #342013",
"p  c #322114",
"a  c #372516",
"s  c #3A2315",
"d  c #3A2717",
"f  c #3E2616",
"g  c #3F2A19",
"h  c #081221",
"j  c #081122",
"k  c #0A162E",
"l  c #1E2439",
"z  c #3F2D22",
"x  c #282A3D",
"c  c #352F3A",
"v  c #3C3234",
"b  c #34303D",
"n  c #402717",
"m  c #412818",
"M  c #402918",
"N  c #422918",
"B  c #402A19",
"V  c #432A19",
"C  c #442A19",
"Z  c #452B1A",
"A  c #462C1A",
"S  c #472D1C",
"D  c #482D1B",
"F  c #4A2F1D",
"G  c #4A301C",
"H  c #4D311E",
"J  c #4E321F",
"K  c #4F331F",
"L  c #4F341F",
"P  c #50341F",
"I  c #4F3520",
"U  c #513520",
"Y  c #533721",
"T  c #543822",
"R  c #553822",
"E  c #563922",
"W  c #563923",
"Q  c #573A23",
"!  c #593B26",
"~  c #5F4331",
"^  c #5B493C",
"/  c #64432E",
"(  c #664530",
")  c #714D37",
"_  c #765238",
"`  c #73523E",
"'  c #7F583F",
"]  c #102547",
"[  c #10254B",
"{  c #132D5C",
"}  c #233149",
"|  c #393C4C",
" . c #2D3656",
".. c #243E67",
"X. c #283B67",
"o. c #3C4052",
"O. c #1D4379",
"+. c #35496D",
"@. c #344D77",
"#. c #3F5075",
"$. c #534442",
"%. c #6F5743",
"&. c #60514B",
"*. c #62514A",
"=. c #61524C",
"-. c #7E5842",
";. c #805A3F",
":. c #885F46",
">. c #8D6348",
",. c #8F644A",
"<. c #90654A",
"1. c #95694D",
"2. c #8D6D55",
"3. c #886F5B",
"4. c #946C56",
"5. c #986C50",
"6. c #9B6E52",
"7. c #9D6F52",
"8. c #986F58",
"9. c #9F7156",
"0. c #94785F",
"q. c #9F795D",
"w. c #A27357",
"e. c #A97B5E",
"r. c #AC7B5D",
"t. c #8C7864",
"y. c #9E7C6D",
"u. c #AE7F62",
"i. c #968067",
"p. c #9F8B73",
"a. c #B48D6F",
"s. c #A69076",
"d. c #BA9C7E",
"f. c #1D438A",
"g. c #204080",
"h. c #335080",
"j. c #204992",
"k. c #214C96",
"l. c #224E98",
"z. c #305A98",
"x. c #295FAD",
"c. c #2C65B5",
"v. c #787E97",
"b. c #7D8CA0",
"n. c #6383B5",
"m. c #8F949C",
"M. c #BB9F81",
"N. c #A69F96",
"B. c #A29E9C",
"V. c #B7A285",
"C. c #B0A294",
"Z. c #B7AB9C",
"A. c #A0A4B2",
"S. c #A4A8B5",
"D. c #C1AC8F",
"F. c None",
/* pixels */
"F.F.F.F.F.F.F.F.F.                                  F.F.F.F.                  F.F.F.F.F.F.F.F.F.F.F.F.F.F.F.F.F.F.F.F.F.F.F.F.F.F.",
"F.F.F.F.F.F.F.F.F.                                  F.F.F.F.                  F.F.F.F.F.F.F.F.F.F.F.F.F.F.F.F.F.F.F.F.F.F.F.F.F.F.",
"F.F.F.F.F.F.F.F.F.                                  F.F.F.F.                  F.F.F.F.F.F.F.F.F.F.F.F.F.F.F.F.F.F.F.F.F.F.F.F.F.F.",
"F.F.F.F.F.F.F.F.F.                                  F.F.F.F.                  F.F.F.F.F.F.F.F.F.F.F.F.F.F.F.F.F.F.F.F.F.F.F.F.F.F.",
"F.F.F.F.F.F.F.F.F.        a a a a a a a a p 9 9 9 9         q a a a 8                         F.F.F.F.F.F.F.F.F.F.F.F.F.F.F.F.F.F.",
"F.F.F.F.F.F.F.F.F.        Q Q Q Q Q Q Q Q L n n n n         d Q Q Q d                           F.F.F.F.F.F.F.F.F.F.F.F.F.F.F.F.F.",
"F.F.F.F.F.F.F.F.F.        Q Q Q Q Q Q Q Q L n n n n         d Q Q Q d                           F.F.F.F.F.F.F.F.F.F.F.F.F.F.F.F.F.",
"F.F.F.F.F.F.F.F.F.        Q Q Q Q Q Q Q Q L n n n n         d Q Q Q d                           F.F.F.F.F.F.F.F.F.F.F.F.F.F.F.F.F.",
"F.F.F.F.F.F.F.F.F.        g g g g I Q Q Q U A A A A % % % % B Q Q Q B % % % % : : : : : : : : = F.F.F.F.F.F.F.F.F.F.F.F.F.F.F.F.F.",
"F.F.F.F.F.F.F.F.F.                d Q Q Q Q Q Q Q Q n n n n L Q Q Q L n n n n Q Q Q Q Q Q Q Q d         F.F.F.F.F.F.F.F.F.F.F.F.F.",
"F.F.F.F.F.F.F.F.F.                d Q Q Q Q Q Q Q Q n n n n L Q Q Q L n n n n Q Q Q Q Q Q Q Q d         F.F.F.F.F.F.F.F.F.F.F.F.F.",
"F.F.F.F.F.F.F.F.F.                d Q Q Q Q Q Q Q Q n n n n L Q Q Q L n n n n Q Q Q Q Q Q Q Q d         F.F.F.F.F.F.F.F.F.F.F.F.F.",
"F.F.F.F.F.F.F.F.F.                d Q Q Q Q Q Q Q Q n n n n L Q Q Q L n n n n Q Q Q Q Q Q Q Q d         F.F.F.F.F.F.F.F.F.F.F.F.F.",
"F.F.F.F.        & s s s s I I I I T Q Q Q Q Q Q Q Q R R R R W Q Q Q W R R R R Q Q Q Q Q Q Q Q T I I I I         F.F.F.F.F.F.F.F.F.",
"F.F.F.F.        * n n n n Q Q Q Q Q Q Q Q Q Q Q Q Q Q Q Q Q Q Q Q Q Q Q Q Q Q Q Q Q Q Q Q Q Q Q Q Q Q Q         F.F.F.F.F.F.F.F.F.",
"F.F.F.F.        * n n n n Q Q Q Q Q Q Q Q Q Q Q Q Q Q Q Q Q Q Q Q Q Q Q Q Q Q Q Q Q Q Q Q Q Q Q Q Q Q Q         F.F.F.F.F.F.F.F.F.",
"F.F.F.F.        * n n n n Q Q Q Q Q Q Q Q Q Q Q Q Q Q Q Q Q Q Q Q Q Q Q Q Q Q Q Q Q Q Q Q Q Q Q Q Q Q Q         F.F.F.F.F.F.F.F.F.",
"        > 6 6 6 r H H H H Q Q Q Q Q Q Q Q Q Q Q Q Q Q Q Q Q Q Q Q Q Q Q Q Q Q Q Q Q Q Q Q Q Q Q Q Q Q Q y y y y ;       F.F.F.F.F.",
"        0 n n n D Q Q Q Q Q Q Q Q Q Q Q Q Q Q Q Q Q Q Q Q Q Q Q Q Q Q Q Q Q Q Q Q Q Q Q Q Q Q Q Q Q Q Q Q Q Q Q 2         F.F.F.F.",
"        0 n n n D Q Q Q Q Q Q Q Q Q Q Q Q Q Q Q Q Q Q Q Q Q Q Q Q Q Q Q Q Q Q Q Q Q Q Q Q Q Q Q Q Q Q Q Q Q Q Q 2         F.F.F.F.",
"        0 n n n D Q Q Q Q Q Q Q Q Q Q Q Q Q Q Q Q Q Q Q Q Q Q Q Q Q Q Q Q Q Q Q Q Q Q Q Q Q Q Q Q Q Q Q Q Q Q Q 2         F.F.F.F.",
"        0 n n n D Q Q Q Q Q Q Q Q T Y Y Y T Q Q Q Q Q Q Q Q Q Q Q Q E Y Y Y Y Y Y Y Y E Q Q Q Q Q Q Q Q Q Q Q Q 2         F.F.F.F.",
"        0 n n n D Q Q Q Q Q Q Q Q D n n n D Q Q Q Q Q Q Q Q Q Q Q Q L n n n n n n n n L Q Q Q Q Q Q Q Q Q Q Q Q 2         F.F.F.F.",
"        0 n n n D Q Q Q Q Q Q Q Q D n n n D Q Q Q Q Q Q Q Q Q Q Q Q L n n n n n n n n L Q Q Q Q Q Q Q Q Q Q Q Q 2         F.F.F.F.",
"        0 n n n D Q Q Q Q Q Q Q Q D n n n D Q Q Q Q Q Q Q Q Q Q Q Q L n n n n n n n n L Q Q Q Q Q Q Q Q Q Q Q Q 2         F.F.F.F.",
"        0 n n n D Q Q Q Q Q Q Q Q D n n n D Q Q Q Q Q Q Q Q Q Q Q Q L n n n n n n n n L Q Q Q Q Q Q Q Q Q Q Q Q 2         F.F.F.F.",
"        0 n n n m C C C C C C C C m n n n D Q Q Q Q Q Q Q Q Q Q Q Q L n n n n 5.5.5.5.6.7.7.7.' C C C C Q Q Q Q M i i i 7         ",
"        0 n n n n n n n n n n n n n n n n D Q Q Q Q Q Q Q Q Q Q Q Q L n n n n r.r.r.r.r.r.r.r.:.n n n n Q Q Q Q D n n n 0         ",
"        0 n n n n n n n n n n n n n n n n D Q Q Q Q Q Q Q Q Q Q Q Q L n n n n r.r.r.r.r.r.r.r.:.n n n n Q Q Q Q D n n n 0         ",
"        0 n n n n n n n n n n n n n n n n D Q Q Q Q Q Q Q Q Q Q Q Q L n n n n r.r.r.r.r.r.r.r.:.n n n n Q Q Q Q D n n n 0         ",
"        0 n n n V G G G G n n n n n n n n D Q Q Q Q Q Q Q Q P H H H ! ) ) ) ) r.r.r.r.r.r.r.r.5.) ) ) ) H H H H C n n n 0         ",
"        0 n n n D Q Q Q Q n n n n n n n n D Q Q Q Q Q Q Q Q D n n n / r.r.r.r.r.r.r.r.r.r.r.r.r.r.r.r.r.n n n n n n n n 0         ",
"        0 n n n D Q Q Q Q n n n n n n n n D Q Q Q Q Q Q Q Q D n n n / r.r.r.r.r.r.r.r.r.r.r.r.r.r.r.r.r.n n n n n n n n 0         ",
"        0 n n n D Q Q Q Q n n n n n n n n D Q Q Q Q Q Q Q Q D n n n / r.r.r.r.r.r.r.r.r.r.r.r.r.r.r.r.r.n n n n n n n n 0         ",
"        0 n n n D Q Q Q Q N N N N S F F F J R R R R Q Q Q Q J F F F ( 9.9.9.9.u.u.u.u.u.u.u.u.e.9.9.9.9.s s s s f n n n 0         ",
"        0 n n n D Q Q Q Q Q Q Q Q <.r.r.r.:.n n n n Q Q Q Q <.r.r.r.-.5 5 5 5 D.D.D.D.D.D.D.D.t.5 5 5 5         0 n n n 0         ",
"        0 n n n D Q Q Q Q Q Q Q Q <.r.r.r.:.n n n n Q Q Q Q <.r.r.r.-.5 5 5 5 D.D.D.D.D.D.D.D.t.5 5 5 5         0 n n n 0         ",
"        0 n n n D Q Q Q Q Q Q Q Q <.r.r.r.:.n n n n Q Q Q Q <.r.r.r.-.5 5 5 5 D.D.D.D.D.D.D.D.t.5 5 5 5         0 n n n 0         ",
"        0 n n n D Q Q Q Q Q Q Q Q <.r.r.r.:.n n n n Q Q Q Q <.r.r.r.-.5 5 5 5 D.D.D.D.D.D.D.D.t.5 5 5 5         0 n n n 0         ",
"        0 n n n N A A A A Q Q Q Q <.r.r.r.w.,.,.,.,.A A A A 0.M.M.M.3.5 5 5 5 D.D.D.D.D.D.D.D.t.5 5 5 5         + % % % @ F.F.F.F.",
"        0 n n n n n n n n Q Q Q Q <.r.r.r.r.r.r.r.r.n n n n i.D.D.D.t.5 5 5 5 D.D.D.D.D.D.D.D.t.5 5 5 5                   F.F.F.F.",
"        0 n n n n n n n n Q Q Q Q <.r.r.r.r.r.r.r.r.n n n n i.D.D.D.t.5 5 5 5 D.D.D.D.D.D.D.D.t.5 5 5 5                   F.F.F.F.",
"        0 n n n n n n n n Q Q Q Q <.r.r.r.r.r.r.r.r.n n n n i.D.D.D.t.5 5 5 5 D.D.D.D.D.D.D.D.t.5 5 5 5                   F.F.F.F.",
"        1 9 9 9 e n n n n K K K K >.r.r.r.r.r.r.r.r.%.%.%.%.s.D.D.D.p.^ ^ ^ ^ D.D.D.D.D.D.D.D.p.^ ^ ^ ^                 F.F.F.F.F.",
"F.F.F.F.        * n n n n n n n n :.r.r.r.r.r.r.r.r.D.D.D.D.D.D.D.D.D.D.D.D.D.D.D.D.D.D.D.D.D.D.D.D.D.D.        F.F.F.F.F.F.F.F.F.",
"F.F.F.F.        * n n n n n n n n :.r.r.r.r.r.r.r.r.D.D.D.D.D.D.D.D.D.D.D.D.D.D.D.D.D.D.D.D.D.D.D.D.D.D.        F.F.F.F.F.F.F.F.F.",
"F.F.F.F.        * n n n n n n n n :.r.r.r.r.r.r.r.r.D.D.D.D.D.D.D.D.D.D.D.D.D.D.D.D.D.D.D.D.D.D.D.D.D.D.        F.F.F.F.F.F.F.F.F.",
"F.F.F.F.        * n n n n n n n n :.r.r.r.r.r.r.r.r.D.D.D.D.D.D.D.D.D.D.D.D.D.D.D.D.D.D.D.D.D.D.D.D.D.D.        F.F.F.F.F.F.F.F.F.",
"F.F.F.F.F.F.F.F.F.        n n n n n n n n n n n n n r.r.r.r.d.D.D.D.D.D.D.D.D.D.D.D.D.D.D.D.D.d.r.r.r.r.        F.F.F.F.F.F.F.F.F.",
"F.F.F.F.F.F.F.F.F.        n n n n n n n n n n n n n r.r.r.r.d.D.D.D.D.D.D.D.D.D.D.D.D.D.D.D.D.d.r.r.r.r.        F.F.F.F.F.F.F.F.F.",
"F.F.F.F.F.F.F.F.F.        n n n n n n n n n n n n n r.r.r.r.d.D.D.D.D.D.D.D.D.D.D.D.D.D.D.D.D.d.r.r.r.r.        F.F.F.F.F.F.F.F.F.",
"F.F.F.F.F.F.F.F.F.        n n n n n n n n n n n n n r.r.r.r.d.D.D.D.D.D.D.D.D.D.D.D.D.D.D.D.D.d.r.r.r.r.        F.F.F.F.F.F.F.F.F.",
"F.F.F.F.F.F.F.F.F.F.F.F.F.- - - - t n n n Z K K K K _ _ _ _ q.a.a.a.a.a.a.a.a.a.a.a.a.a.a.a.a.2.z z z z F.F.F.F.F.F.F.F.F.F.F.F.F.",
"F.F.F.F.F.F.F.F.F.F.F.F.F.        0 n n n D Q Q Q Q Q Q Q Q <.r.r.r.r.r.r.r.r.r.r.r.r.r.r.r.r.`         F.F.F.F.F.F.F.F.F.F.F.F.F.",
"F.F.F.F.F.F.F.F.F.F.F.F.F.        0 n n n D Q Q Q Q Q Q Q Q <.r.r.r.r.r.r.r.r.r.r.r.r.r.r.r.r.`         F.F.F.F.F.F.F.F.F.F.F.F.F.",
"F.F.F.F.F.F.F.F.F.F.F.F.F.        0 n n n D Q Q Q Q Q Q Q Q <.r.r.r.r.r.r.r.r.r.r.r.r.r.r.r.r.`         F.F.F.F.F.F.F.F.F.F.F.F.F.",
"F.F.F.F.F.F.F.F.F.F.F.F.F.        0 n n n D Q Q Q Q Q Q Q Q ;.1.1.1.8.y.y.y.y.y.y.y.y.4.,.,.,.~         F.F.F.F.F.F.F.F.F.F.F.F.F.",
"F.F.F.F.F.F.F.F.F.F.F.F.F.        0 n n n D Q Q Q Q Q Q Q Q Q Q Q Q *.v.v.v.v.v.v.v.v.$.n n n 0         F.F.F.F.F.F.F.F.F.F.F.F.F.",
"F.F.F.F.F.F.F.F.F.F.F.F.F.        0 n n n D Q Q Q Q Q Q Q Q Q Q Q Q *.v.v.v.v.v.v.v.v.$.n n n 0         F.F.F.F.F.F.F.F.F.F.F.F.F.",
"F.F.F.F.F.F.F.F.F.F.F.F.F.        0 n n n D Q Q Q Q Q Q Q Q Q Q Q Q *.v.v.v.v.v.v.v.v.$.n n n 0         F.F.F.F.F.F.F.F.F.F.F.F.F.",
"F.F.F.F.F.F.F.F.F.F.F.F.F.        0 n n n D Q Q Q Q Q Q Q Q Q Q Q Q *.v.v.v.v.v.v.v.v.$.n n n 0         F.F.F.F.F.F.F.F.F.F.F.F.F.",
"F.F.F.F.F.F.F.F.F.F.F.F.F.        0 n n n D Q Q Q Q V.V.V.V.V.V.V.V.C.A.A.A.A.A.A.A.A.&.n n n 0         F.F.F.F.F.F.F.F.F.F.F.F.F.",
"F.F.F.F.F.F.F.F.F.F.F.F.F.        0 n n n D Q Q Q Q D.D.D.D.D.D.D.D.Z.S.S.S.S.S.S.S.S.=.n n n 0         F.F.F.F.F.F.F.F.F.F.F.F.F.",
"F.F.F.F.F.F.F.F.F.F.F.F.F.        0 n n n D Q Q Q Q D.D.D.D.D.D.D.D.Z.S.S.S.S.S.S.S.S.=.n n n 0         F.F.F.F.F.F.F.F.F.F.F.F.F.",
"F.F.F.F.F.F.F.F.F.F.F.F.F.        0 n n n D Q Q Q Q D.D.D.D.D.D.D.D.Z.S.S.S.S.S.S.S.S.=.n n n 0         F.F.F.F.F.F.F.F.F.F.F.F.F.",
"F.F.F.F.F.F.F.F.F.F.F.F.F.        } +.+.+.o.G G G G D.D.D.D.D.D.D.D.B.n.n.n.n.n.n.n.n.#. . . .l         F.F.F.F.F.F.F.F.F.F.F.F.F.",
"F.F.F.F.F.F.F.F.F.F.F.F.F.        O.c.c.c.h.n n n n D.D.D.D.D.D.D.D.m.c.c.c.c.c.c.c.c.l.f.f.f.{         F.F.F.F.F.F.F.F.F.F.F.F.F.",
"F.F.F.F.F.F.F.F.F.F.F.F.F.        O.c.c.c.h.n n n n D.D.D.D.D.D.D.D.m.c.c.c.c.c.c.c.c.l.f.f.f.{         F.F.F.F.F.F.F.F.F.F.F.F.F.",
"F.F.F.F.F.F.F.F.F.F.F.F.F.        O.c.c.c.h.n n n n D.D.D.D.D.D.D.D.m.c.c.c.c.c.c.c.c.l.f.f.f.{         F.F.F.F.F.F.F.F.F.F.F.F.F.",
"F.F.F.F.F.F.F.F.F.F.F.F.F.+ + + + ..z.z.z.@.v v v v N.N.N.N.N.N.N.N.b.c.c.c.c.x.x.x.x.k.f.f.f.{         F.F.F.F.F.F.F.F.F.F.F.F.F.",
"F.F.F.F.F.F.F.F.F.        n n n n n n n n | c.c.c.c.c.c.c.c.c.c.c.c.c.c.c.c.c.f.f.f.f.f.f.f.f.{         F.F.F.F.F.F.F.F.F.F.F.F.F.",
"F.F.F.F.F.F.F.F.F.        n n n n n n n n | c.c.c.c.c.c.c.c.c.c.c.c.c.c.c.c.c.f.f.f.f.f.f.f.f.{         F.F.F.F.F.F.F.F.F.F.F.F.F.",
"F.F.F.F.F.F.F.F.F.        n n n n n n n n | c.c.c.c.c.c.c.c.c.c.c.c.c.c.c.c.c.f.f.f.f.f.f.f.f.{         F.F.F.F.F.F.F.F.F.F.F.F.F.",
"F.F.F.F.F.F.F.F.F.        n n n n n n n n | c.c.c.c.c.c.c.c.c.c.c.c.c.c.c.c.c.f.f.f.f.f.f.f.f.{         F.F.F.F.F.F.F.F.F.F.F.F.F.",
"F.F.F.F.F.F.F.F.F.        n n n n n n n n u h h h h h h h h h h h h ] j.j.j.j.f.f.f.f.f.f.f.f.{         F.F.F.F.F.F.F.F.F.F.F.F.F.",
"F.F.F.F.F.F.F.F.F.        n n n n n n n n 0                         k f.f.f.f.f.f.f.f.f.f.f.f.{         F.F.F.F.F.F.F.F.F.F.F.F.F.",
"F.F.F.F.F.F.F.F.F.        n n n n n n n n 0                         k f.f.f.f.f.f.f.f.f.f.f.f.{         F.F.F.F.F.F.F.F.F.F.F.F.F.",
"F.F.F.F.F.F.F.F.F.        n n n n n n n n 0                         k f.f.f.f.f.f.f.f.f.f.f.f.{         F.F.F.F.F.F.F.F.F.F.F.F.F.",
"F.F.F.F.F.F.F.F.F.        6 6 6 6 6 6 6 6 , O O O O O O O O O O O O j [ [ [ [ f.f.f.f.X. . . .x < < < < F.F.F.F.F.F.F.F.F.F.F.F.F.",
"F.F.F.F.F.F.F.F.F.                        X 4 4 4 4 4 4 4 4 4 4 4 4 #         f.f.f.f.b n n n n n n n n         F.F.F.F.F.F.F.F.F.",
"F.F.F.F.F.F.F.F.F.                        X 4 4 4 4 4 4 4 4 4 4 4 4 #         f.f.f.f.b n n n n n n n n         F.F.F.F.F.F.F.F.F.",
"F.F.F.F.F.F.F.F.F.                        X 4 4 4 4 4 4 4 4 4 4 4 4 #         f.f.f.f.b n n n n n n n n         F.F.F.F.F.F.F.F.F.",
"F.F.F.F.F.F.F.F.F.. . . . . . . . . . . . o 4 4 4 4 4 4 4 4 4 4 4 4 #         g.g.g.g.c n n n n n n n n         F.F.F.F.F.F.F.F.F.",
"F.F.F.F.F.4 4 4 4 4 4 4 4 4 4 4 4 4 4 4 4 4 4 4 4 4 4 4 4 4 4 4 4 4 #         n n n n n n n n n n n n n         # 4 4 4 F.F.F.F.F.",
"F.F.F.F.F.4 4 4 4 4 4 4 4 4 4 4 4 4 4 4 4 4 4 4 4 4 4 4 4 4 4 4 4 4 #         n n n n n n n n n n n n n         # 4 4 4 F.F.F.F.F.",
"F.F.F.F.F.4 4 4 4 4 4 4 4 4 4 4 4 4 4 4 4 4 4 4 4 4 4 4 4 4 4 4 4 4 #         n n n n n n n n n n n n n         # 4 4 4 F.F.F.F.F.",
"F.F.F.F.F.4 4 4 4 4 4 4 4 4 4 4 4 4 4 4 4 4 4 4 4 4 4 4 4 4 4 4 4 4 #         n n n n n n n n n n n n n         # 4 4 4 F.F.F.F.F.",
"F.F.F.F.F.4 4 4 4 4 4 4 4 4 4 4 4 4 4 4 4 4 4 4 4 4 4 4 4 4 4 4 4 4 3 $ $ $ $ w w w w w w w w w w w w w $ $ $ $ 3 4 4 4 F.F.F.F.F.",
"F.F.F.F.F.4 4 4 4 4 4 4 4 4 4 4 4 4 4 4 4 4 4 4 4 4 4 4 4 4 4 4 4 4 4 4 4 4 4 4 4 4 4 4 4 4 4 4 4 4 4 4 4 4 4 4 4 4 4 4 F.F.F.F.F.",
"F.F.F.F.F.4 4 4 4 4 4 4 4 4 4 4 4 4 4 4 4 4 4 4 4 4 4 4 4 4 4 4 4 4 4 4 4 4 4 4 4 4 4 4 4 4 4 4 4 4 4 4 4 4 4 4 4 4 4 4 F.F.F.F.F.",
"F.F.F.F.F.4 4 4 4 4 4 4 4 4 4 4 4 4 4 4 4 4 4 4 4 4 4 4 4 4 4 4 4 4 4 4 4 4 4 4 4 4 4 4 4 4 4 4 4 4 4 4 4 4 4 4 4 4 4 4 F.F.F.F.F.",
"F.F.F.F.F.F.F.F.F.4 4 4 4 4 4 4 4 4 4 4 4 4 4 4 4 4 4 4 4 4 4 4 4 4 4 4 4 4 4 4 4 4 4 4 4 4 4 4 4 4 4 4 4 4 4 4 F.F.F.F.F.F.F.F.F.",
"F.F.F.F.F.F.F.F.F.4 4 4 4 4 4 4 4 4 4 4 4 4 4 4 4 4 4 4 4 4 4 4 4 4 4 4 4 4 4 4 4 4 4 4 4 4 4 4 4 4 4 4 4 4 4 4 F.F.F.F.F.F.F.F.F.",
"F.F.F.F.F.F.F.F.F.4 4 4 4 4 4 4 4 4 4 4 4 4 4 4 4 4 4 4 4 4 4 4 4 4 4 4 4 4 4 4 4 4 4 4 4 4 4 4 4 4 4 4 4 4 4 4 F.F.F.F.F.F.F.F.F.",
"F.F.F.F.F.F.F.F.F.4 4 4 4 4 4 4 4 4 4 4 4 4 4 4 4 4 4 4 4 4 4 4 4 4 4 4 4 4 4 4 4 4 4 4 4 4 4 4 4 4 4 4 4 4 4 4 F.F.F.F.F.F.F.F.F.",
"F.F.F.F.F.F.F.F.F.4 4 4 4 4 4 4 4 4 4 4 4 4 4 4 4 4 4 4 4 4 4 4 4 4 4 4 4 4 4 4 4 4 4 4 4 4 4 4 4 4 4 4 4 4 4 4 F.F.F.F.F.F.F.F.F."
};
