/* XPM */
static char *PME0[] = {
/* columns rows colors chars-per-pixel */
"63 96 204 2 ",
"   c black",
".  c #020101",
"X  c #060302",
"o  c #020204",
"O  c #030305",
"+  c #030406",
"@  c #080503",
"#  c #0A0604",
"$  c #0C0704",
"%  c #0D0705",
"&  c #0C0805",
"*  c #0D0805",
"=  c #0E0805",
"-  c #0E0905",
";  c #040509",
":  c #05060B",
">  c #06070D",
",  c #0F0B08",
"<  c #100A06",
"1  c #110B06",
"2  c #120B07",
"3  c #110C07",
"4  c #130C07",
"5  c #120C08",
"6  c #170E08",
"7  c #160F09",
"8  c #170F0D",
"9  c #190F09",
"0  c #1A1009",
"q  c #18100A",
"w  c #1A120B",
"e  c #1C110A",
"r  c #1F130B",
"t  c #1D130C",
"y  c #1E140C",
"u  c #040912",
"i  c #070C17",
"p  c #080911",
"a  c #080A11",
"s  c #090B13",
"d  c #0B0D11",
"f  c #060D1C",
"g  c #0C0E19",
"h  c #1E1713",
"j  c #17171C",
"k  c #20130B",
"l  c #21110D",
"z  c #23160D",
"x  c #23170E",
"c  c #24160D",
"v  c #26170E",
"b  c #28180E",
"n  c #29190F",
"m  c #2A190F",
"M  c #221913",
"N  c #2A1C11",
"B  c #2B1D11",
"V  c #2D1C11",
"C  c #2F1D11",
"Z  c #2E1F13",
"A  c #311E12",
"S  c #311F12",
"D  c #331F12",
"F  c #2F221A",
"G  c #322013",
"H  c #352013",
"J  c #332214",
"K  c #322117",
"L  c #342315",
"P  c #352217",
"I  c #392315",
"U  c #3A2415",
"Y  c #392617",
"T  c #3D2516",
"R  c #091424",
"E  c #0A1627",
"W  c #09152B",
"Q  c #151821",
"!  c #0C1B37",
"~  c #382D30",
"^  c #402717",
"/  c #412717",
"(  c #412817",
")  c #412818",
"_  c #432919",
"`  c #452B19",
"'  c #452B1A",
"]  c #452D1B",
"[  c #472D1B",
"{  c #482D1B",
"}  c #492E1C",
"|  c #492F1C",
" . c #492E1D",
".. c #48301D",
"X. c #4B301D",
"o. c #4C311D",
"O. c #4C301E",
"+. c #4D321E",
"@. c #4E321E",
"#. c #4E331E",
"$. c #4F331F",
"%. c #413027",
"&. c #453125",
"*. c #4B392F",
"=. c #513520",
"-. c #523620",
";. c #523621",
":. c #533721",
">. c #543723",
",. c #543624",
"<. c #553724",
"1. c #543821",
"2. c #543822",
"3. c #553822",
"4. c #563922",
"5. c #563A23",
"6. c #573A23",
"7. c #563825",
"8. c #583A25",
"9. c #583A26",
"0. c #573A2C",
"q. c #5C3D29",
"w. c #5A402D",
"e. c #4C4337",
"r. c #4D4539",
"t. c #63432C",
"y. c #65442E",
"u. c #68472F",
"i. c #624A36",
"p. c #6B4933",
"a. c #6F4C35",
"s. c #6B4D3C",
"d. c #714D35",
"f. c #714D39",
"g. c #74513D",
"h. c #71543E",
"j. c #0E2042",
"k. c #112644",
"l. c #122848",
"z. c #3A3A47",
"x. c #383F55",
"c. c #384056",
"v. c #334365",
"b. c #564A4A",
"n. c #555056",
"m. c #625042",
"M. c #6D574F",
"N. c #745C47",
"B. c #7A5D4A",
"V. c #605351",
"C. c #685B56",
"Z. c #6F6056",
"A. c #815941",
"S. c #825A42",
"D. c #865F46",
"F. c #8A6146",
"G. c #80674D",
"H. c #95694E",
"J. c #966A4F",
"K. c #8B6A51",
"L. c #816E5B",
"P. c #996C51",
"I. c #8D775F",
"U. c #A37457",
"Y. c #A7775A",
"T. c #A8785A",
"R. c #AC7B5D",
"E. c #927E69",
"W. c #AE7F61",
"Q. c #9B856C",
"!. c #B08567",
"~. c #B59073",
"^. c #B9987B",
"/. c #B9997B",
"(. c #1C4084",
"). c #1D438A",
"_. c #1F4790",
"`. c #204A93",
"'. c #214D94",
"]. c #23519B",
"[. c #26589D",
"{. c #305893",
"}. c #275AA2",
"|. c #2A61AD",
" X c #2B61AD",
".X c #2D62AE",
"XX c #2C65B5",
"oX c #5B6988",
"OX c #5F6D8C",
"+X c #787E97",
"@X c #867D88",
"#X c #758EB5",
"$X c #B99D80",
"%X c #BDA285",
"&X c #BAA78F",
"*X c #BFA88B",
"=X c #BAA88F",
"-X c #BBA991",
";X c #9196A8",
":X c #A4A8B5",
">X c #C0A98C",
",X c #C0AA8D",
"<X c #C1AC8F",
"1X c None",
/* pixels */
"1X1X1X1X1X1X1X1X                                  1X1X1X1X                  1X1X1X1X1X1X1X1X1X1X1X1X1X1X1X1X1X1X1X1X1X1X1X1X1X",
"1X1X1X1X1X1X1X1X                                  1X1X1X1X                  1X1X1X1X1X1X1X1X1X1X1X1X1X1X1X1X1X1X1X1X1X1X1X1X1X",
"1X1X1X1X1X1X1X1X                                  1X1X1X1X                  1X1X1X1X1X1X1X1X1X1X1X1X1X1X1X1X1X1X1X1X1X1X1X1X1X",
"1X1X1X1X1X1X1X1X                                  1X1X1X1X                  1X1X1X1X1X1X1X1X1X1X1X1X1X1X1X1X1X1X1X1X1X1X1X1X1X",
"1X1X1X1X1X1X1X1X        t ................H H H H $       Z ......B                         1X1X1X1X1X1X1X1X1X1X1X1X1X1X1X1X1X",
"1X1X1X1X1X1X1X1X        x 6.6.6.6.6.6.6.6.^ ^ ^ ^ *       L 6.6.6.L                         1X1X1X1X1X1X1X1X1X1X1X1X1X1X1X1X1X",
"1X1X1X1X1X1X1X1X        x 6.6.6.6.6.6.6.6.^ ^ ^ ^ *       L 6.6.6.L                         1X1X1X1X1X1X1X1X1X1X1X1X1X1X1X1X1X",
"1X1X1X1X1X1X1X1X        x 6.6.6.6.6.6.6.6.^ ^ ^ ^ *       L 6.6.6.L                         1X1X1X1X1X1X1X1X1X1X1X1X1X1X1X1X1X",
"1X1X1X1X1X1X1X1X        & y y y N 6.6.6.6.$.$.$.$.S m m m ] 6.6.6.] m m m V Y Y Y Y Y Y Y Y <       1X1X1X1X1X1X1X1X1X1X1X1X1X",
"1X1X1X1X1X1X1X1X                3 6.6.6.6.6.6.6.6.` ^ ^ ^ @.6.6.6.@.^ ^ ^ ` 6.6.6.6.6.6.6.6.3       1X1X1X1X1X1X1X1X1X1X1X1X1X",
"1X1X1X1X1X1X1X1X                3 6.6.6.6.6.6.6.6.` ^ ^ ^ @.6.6.6.@.^ ^ ^ ` 6.6.6.6.6.6.6.6.3       1X1X1X1X1X1X1X1X1X1X1X1X1X",
"1X1X1X1X1X1X1X1X                3 6.6.6.6.6.6.6.6.` ^ ^ ^ @.6.6.6.@.^ ^ ^ ` 6.6.6.6.6.6.6.6.3       1X1X1X1X1X1X1X1X1X1X1X1X1X",
"1X1X1X1X1X1X1X1X6 r r r z N N N J 6.6.6.6.6.6.6.6.+.X.X.X.-.6.6.6.-.X.X.X.+.6.6.6.6.6.6.6.6.J N N N q 1X1X1X1X1X1X1X1X1X1X1X1X",
"1X1X1X1X        v ^ ^ ^ | 6.6.6.6.6.6.6.6.6.6.6.6.6.6.6.6.6.6.6.6.6.6.6.6.6.6.6.6.6.6.6.6.6.6.6.6.6.x         1X1X1X1X1X1X1X1X",
"1X1X1X1X        v ^ ^ ^ | 6.6.6.6.6.6.6.6.6.6.6.6.6.6.6.6.6.6.6.6.6.6.6.6.6.6.6.6.6.6.6.6.6.6.6.6.6.x         1X1X1X1X1X1X1X1X",
"1X1X1X1X        v ^ ^ ^ | 6.6.6.6.6.6.6.6.6.6.6.6.6.6.6.6.6.6.6.6.6.6.6.6.6.6.6.6.6.6.6.6.6.6.6.6.6.x         1X1X1X1X1X1X1X1X",
"1X1X1X1X2 4 4 4 G [ [ [ +.6.6.6.6.6.6.6.6.6.6.6.6.6.6.6.6.6.6.6.6.6.6.6.6.6.6.6.6.6.6.6.6.6.6.6.6.6.J w w w 7 1X1X1X1X1X1X1X1X",
"        D ^ ^ ^ @.6.6.6.6.6.6.6.6.6.6.6.6.6.6.6.6.6.6.6.6.6.6.6.6.6.6.6.6.6.6.6.6.6.6.6.6.6.6.6.6.6.6.6.6.6.L         1X1X1X1X",
"        D ^ ^ ^ @.6.6.6.6.6.6.6.6.6.6.6.6.6.6.6.6.6.6.6.6.6.6.6.6.6.6.6.6.6.6.6.6.6.6.6.6.6.6.6.6.6.6.6.6.6.L         1X1X1X1X",
"        D ^ ^ ^ @.6.6.6.6.6.6.6.6.6.6.6.6.6.6.6.6.6.6.6.6.6.6.6.6.6.6.6.6.6.6.6.6.6.6.6.6.6.6.6.6.6.6.6.6.6.L         1X1X1X1X",
"        D ^ ^ ^ @.6.6.6.6.6.6.6.5.1.1.1.1.6.6.6.6.6.6.6.6.6.6.6.6.4.1.1.1.1.1.1.1.1.6.6.6.6.6.6.6.6.6.6.6.6.L         1X1X1X1X",
"        D ^ ^ ^ @.6.6.6.6.6.6.6.;.^ ^ ^ ^ 6.6.6.6.6.6.6.6.6.6.6.6.@.^ ^ ^ ^ ^ ^ ^ ^ 6.6.6.6.6.6.6.6.6.6.6.6.L         1X1X1X1X",
"        D ^ ^ ^ @.6.6.6.6.6.6.6.;.^ ^ ^ ^ 6.6.6.6.6.6.6.6.6.6.6.6.@.^ ^ ^ ^ ^ ^ ^ ^ 6.6.6.6.6.6.6.6.6.6.6.6.L         1X1X1X1X",
"        D ^ ^ ^ @.6.6.6.6.6.6.6.;.^ ^ ^ ^ 6.6.6.6.6.6.6.6.6.6.6.6.@.^ ^ ^ ^ ^ ^ ^ ^ 6.6.6.6.6.6.6.6.6.6.6.6.L         1X1X1X1X",
"        D ^ ^ ^ @.6.6.6.6.6.6.6.;.^ ^ ^ ^ 6.6.6.6.6.6.6.6.6.6.6.6.@.^ ^ ^ ^ ^ ^ ^ ^ 6.6.6.6.6.6.6.6.6.6.6.6.L         1X1X1X1X",
"        D ^ ^ ^ / ) ) ) ) ) ) ) ( ^ ^ ^ ^ 6.6.6.6.6.6.6.6.6.6.6.6.@.^ ^ ^ <.Y.Y.Y.Y.T.T.T.T.7.) ) ) #.6.6.6.+.T T T A         ",
"        D ^ ^ ^ ^ ^ ^ ^ ^ ^ ^ ^ ^ ^ ^ ^ ^ 6.6.6.6.6.6.6.6.6.6.6.6.@.^ ^ ^ 7.R.R.R.R.R.R.R.R.7.^ ^ ^ @.6.6.6.@.^ ^ ^ D         ",
"        D ^ ^ ^ ^ ^ ^ ^ ^ ^ ^ ^ ^ ^ ^ ^ ^ 6.6.6.6.6.6.6.6.6.6.6.6.@.^ ^ ^ 7.R.R.R.R.R.R.R.R.7.^ ^ ^ @.6.6.6.@.^ ^ ^ D         ",
"        D ^ ^ ^ ^ ^ ^ ^ ^ ^ ^ ^ ^ ^ ^ ^ ^ 6.6.6.6.6.6.6.6.6.6.6.6.@.^ ^ ^ 7.R.R.R.R.R.R.R.R.7.^ ^ ^ @.6.6.6.@.^ ^ ^ D         ",
"        D ^ ^ ^ X.-.-.-.X.^ ^ ^ ^ ^ ^ ^ ^ 6.6.6.6.6.6.6.6.o.' ' ' y.H.H.H.P.R.R.R.R.R.R.R.R.P.H.H.H.y.' ' ' _ ^ ^ ^ D         ",
"        D ^ ^ ^ @.6.6.6.@.^ ^ ^ ^ ^ ^ ^ ^ 6.6.6.6.6.6.6.6.| ^ ^ ^ p.R.R.R.R.R.R.R.R.R.R.R.R.R.R.R.R.p.^ ^ ^ ^ ^ ^ ^ D         ",
"        D ^ ^ ^ @.6.6.6.@.^ ^ ^ ^ ^ ^ ^ ^ 6.6.6.6.6.6.6.6.| ^ ^ ^ p.R.R.R.R.R.R.R.R.R.R.R.R.R.R.R.R.p.^ ^ ^ ^ ^ ^ ^ D         ",
"        D ^ ^ ^ @.6.6.6.@.^ ^ ^ ^ ^ ^ ^ ^ 6.6.6.6.6.6.6.6.| ^ ^ ^ p.R.R.R.R.R.R.R.R.R.R.R.R.R.R.R.R.p.^ ^ ^ ^ ^ ^ ^ D         ",
"        D ^ ^ ^ @.6.6.6.:.#.#.#.8.S.S.S.S.} } } } 2.6.6.6.d.S.S.S.f.0.0.0.s././././././././.s.0.0.0.K 9 9 9 n ^ ^ ^ D         ",
"        D ^ ^ ^ @.6.6.6.6.6.6.6.u.R.R.R.R.^ ^ ^ ^ ;.6.6.6.F.R.R.R.g.l l l %.<X<X<X<X<X<X<X<X%.l l l %       0 ^ ^ ^ D         ",
"        D ^ ^ ^ @.6.6.6.6.6.6.6.u.R.R.R.R.^ ^ ^ ^ ;.6.6.6.F.R.R.R.g.l l l %.<X<X<X<X<X<X<X<X%.l l l %       0 ^ ^ ^ D         ",
"        D ^ ^ ^ @.6.6.6.6.6.6.6.u.R.R.R.R.^ ^ ^ ^ ;.6.6.6.F.R.R.R.g.l l l %.<X<X<X<X<X<X<X<X%.l l l %       0 ^ ^ ^ D         ",
"        D ^ ^ ^ { +.+.+.=.6.6.6.u.R.R.R.R.a.a.a.a.>.+.+.+.K.~.~.~.B.l l l %.<X<X<X<X<X<X<X<X%.l l l %       - c c c k         ",
"        D ^ ^ ^ ^ ^ ^ ^ | 6.6.6.u.R.R.R.R.R.R.R.R.7.^ ^ ^ I.<X<X<XL.l l l %.<X<X<X<X<X<X<X<X%.l l l %                 1X1X1X1X",
"        D ^ ^ ^ ^ ^ ^ ^ | 6.6.6.u.R.R.R.R.R.R.R.R.7.^ ^ ^ I.<X<X<XL.l l l %.<X<X<X<X<X<X<X<X%.l l l %                 1X1X1X1X",
"        D ^ ^ ^ ^ ^ ^ ^ | 6.6.6.u.R.R.R.R.R.R.R.R.7.^ ^ ^ I.<X<X<XL.l l l %.<X<X<X<X<X<X<X<X%.l l l %                 1X1X1X1X",
"        b C C C I ^ ^ ^ [ =.=.=.t.R.R.R.R.R.R.R.R.h.i.i.i.Q.<X<X<XE.*.*.*.m.<X<X<X<X<X<X<X<Xm.*.*.*.h                 1X1X1X1X",
"1X1X1X1X        v ^ ^ ^ ^ ^ ^ ^ 7.R.R.R.R.R.R.R.R.%X<X<X<X<X<X<X<X<X<X<X<X<X<X<X<X<X<X<X<X<X<X<X<X<Xr.        1X1X1X1X1X1X1X1X",
"1X1X1X1X        v ^ ^ ^ ^ ^ ^ ^ 7.R.R.R.R.R.R.R.R.%X<X<X<X<X<X<X<X<X<X<X<X<X<X<X<X<X<X<X<X<X<X<X<X<Xr.        1X1X1X1X1X1X1X1X",
"1X1X1X1X        v ^ ^ ^ ^ ^ ^ ^ 7.R.R.R.R.R.R.R.R.%X<X<X<X<X<X<X<X<X<X<X<X<X<X<X<X<X<X<X<X<X<X<X<X<Xr.        1X1X1X1X1X1X1X1X",
"1X1X1X1X        c U U U T ^ ^ ^ ,.U.U.U.U.U.U.U.U.$X*X*X*X,X<X<X<X<X<X<X<X<X<X<X<X<X<X<X<X<X>X*X*X*Xe.        1X1X1X1X1X1X1X1X",
"1X1X1X1X1X1X1X1X        0 ^ ^ ^ ^ ^ ^ ^ ^ ^ ^ ^ ^ J.R.R.R.^.<X<X<X<X<X<X<X<X<X<X<X<X<X<X<X<X!.R.R.R.&.        1X1X1X1X1X1X1X1X",
"1X1X1X1X1X1X1X1X        0 ^ ^ ^ ^ ^ ^ ^ ^ ^ ^ ^ ^ J.R.R.R.^.<X<X<X<X<X<X<X<X<X<X<X<X<X<X<X<X!.R.R.R.&.        1X1X1X1X1X1X1X1X",
"1X1X1X1X1X1X1X1X        0 ^ ^ ^ ^ ^ ^ ^ ^ ^ ^ ^ ^ J.R.R.R.^.<X<X<X<X<X<X<X<X<X<X<X<X<X<X<X<X!.R.R.R.&.        1X1X1X1X1X1X1X1X",
"1X1X1X1X1X1X1X1X        0 ^ ^ ^ ^ ^ ^ ^ ^ ^ ^ ^ ^ J.R.R.R.^.<X<X<X<X<X<X<X<X<X<X<X<X<X<X<X<X!.R.R.R.&.        1X1X1X1X1X1X1X1X",
"1X1X1X1X1X1X1X1X1X1X1X1X1XX X X 1 ^ ^ ^ ^ 3.3.3.3.O. . . .D.W.W.W.W.W.W.W.W.W.W.W.W.W.W.W.W.F , , , 1X1X1X1X1X1X1X1X1X1X1X1X1X",
"1X1X1X1X1X1X1X1X1X1X1X1X1X      * ^ ^ ^ ^ 6.6.6.6.` ^ ^ ^ A.R.R.R.R.R.R.R.R.R.R.R.R.R.R.R.R.M       1X1X1X1X1X1X1X1X1X1X1X1X1X",
"1X1X1X1X1X1X1X1X1X1X1X1X1X      * ^ ^ ^ ^ 6.6.6.6.` ^ ^ ^ A.R.R.R.R.R.R.R.R.R.R.R.R.R.R.R.R.M       1X1X1X1X1X1X1X1X1X1X1X1X1X",
"1X1X1X1X1X1X1X1X1X1X1X1X1X      * ^ ^ ^ ^ 6.6.6.6.` ^ ^ ^ A.R.R.R.R.R.R.R.R.R.R.R.R.R.R.R.R.M       1X1X1X1X1X1X1X1X1X1X1X1X1X",
"1X1X1X1X1X1X1X1X1X1X1X1X1X      * ^ ^ ^ ^ 6.6.6.6.-.=.=.=.9.q.q.q.M.@X@X@X@X@X@X@X@Xq.q.q.q.5       1X1X1X1X1X1X1X1X1X1X1X1X1X",
"1X1X1X1X1X1X1X1X1X1X1X1X1X      * ^ ^ ^ ^ 6.6.6.6.6.6.6.6.| ^ ^ ^ b.+X+X+X+X+X+X+X+X^ ^ ^ ^ *       1X1X1X1X1X1X1X1X1X1X1X1X1X",
"1X1X1X1X1X1X1X1X1X1X1X1X1X      * ^ ^ ^ ^ 6.6.6.6.6.6.6.6.| ^ ^ ^ b.+X+X+X+X+X+X+X+X^ ^ ^ ^ *       1X1X1X1X1X1X1X1X1X1X1X1X1X",
"1X1X1X1X1X1X1X1X1X1X1X1X1X      * ^ ^ ^ ^ 6.6.6.6.6.6.6.6.| ^ ^ ^ b.+X+X+X+X+X+X+X+X^ ^ ^ ^ *       1X1X1X1X1X1X1X1X1X1X1X1X1X",
"1X1X1X1X1X1X1X1X1X1X1X1X1X1X1X1X# e e e e 6.6.6.6.6.6.6.6.| ^ ^ ^ V.;X;X;X;X;X;X;X;X^ ^ ^ ^ *       1X1X1X1X1X1X1X1X1X1X1X1X1X",
"1X1X1X1X1X1X1X1X1X1X1X1X1X1X1X1X1X        6.6.6.6.6.6.6.6.| ^ ^ ^ C.:X:X:X:X:X:X:X:X^ ^ ^ ^ *       1X1X1X1X1X1X1X1X1X1X1X1X1X",
"1X1X1X1X1X1X1X1X1X1X1X1X1X1X1X1X1X        6.6.6.6.6.6.6.6.| ^ ^ ^ C.:X:X:X:X:X:X:X:X^ ^ ^ ^ *       1X1X1X1X1X1X1X1X1X1X1X1X1X",
"1X1X1X1X1X1X1X1X1X1X1X1X1X1X1X1X1X        6.6.6.6.6.6.6.6.| ^ ^ ^ C.:X:X:X:X:X:X:X:X^ ^ ^ ^ *       1X1X1X1X1X1X1X1X1X1X1X1X1X",
"1X1X1X1X1X1X1X1X1X1X1X1X1X1X1X1X1X        G.G.G.G.G.G.G.G.w.^ ^ ^ n.#X#X#X#X#X#X#X#Xx.x.x.x.d       1X1X1X1X1X1X1X1X1X1X1X1X1X",
"1X1X1X1X1X1X1X1X1X1X1X1X1X1X1X1X1X        <X<X<X<X<X<X<X<XN.^ ^ ^ c.XXXXXXXXXXXXXXXXXXXXXXXXR       1X1X1X1X1X1X1X1X1X1X1X1X1X",
"1X1X1X1X1X1X1X1X1X1X1X1X1X1X1X1X1X        <X<X<X<X<X<X<X<XN.^ ^ ^ c.XXXXXXXXXXXXXXXXXXXXXXXXR       1X1X1X1X1X1X1X1X1X1X1X1X1X",
"1X1X1X1X1X1X1X1X1X1X1X1X1X1X1X1X1X        <X<X<X<X<X<X<X<XN.^ ^ ^ c.XXXXXXXXXXXXXXXXXXXXXXXXR       1X1X1X1X1X1X1X1X1X1X1X1X1X",
"1X1X1X1X1X1X1X1X1X1X1X1X1X1X1X1X1XE E E E <X<X<X<X<X<X<X<XZ.~ ~ ~ v.XXXXXXXXXXXXXXXX{.{.{.{.Q = = = # 1X1X1X1X1X1X1X1X1X1X1X1X",
"1X1X1X1X1X1X1X1X1X1X1X1X1X      R XXXXXXXX<X<X<X<X<X<X<X<XOX).).).].XXXXXXXXXXXXXXXX^ ^ ^ ^ ^ ^ ^ ^ 0         1X1X1X1X1X1X1X1X",
"1X1X1X1X1X1X1X1X1X1X1X1X1X      R XXXXXXXX<X<X<X<X<X<X<X<XOX).).).].XXXXXXXXXXXXXXXX^ ^ ^ ^ ^ ^ ^ ^ 0         1X1X1X1X1X1X1X1X",
"1X1X1X1X1X1X1X1X1X1X1X1X1X      R XXXXXXXX<X<X<X<X<X<X<X<XOX).).).].XXXXXXXXXXXXXXXX^ ^ ^ ^ ^ ^ ^ ^ 0         1X1X1X1X1X1X1X1X",
"1X1X1X1X1X1X1X1X1X1X1X1X1X      R XXXXXXXX-X-X-X-X=X&X&X&XoX(.(.(.'.|.|.|. X.X.X.X.X^ ^ ^ ^ ^ ^ ^ ^ 0         1X1X1X1X1X1X1X1X",
"1X1X1X1X1X1X1X1X1X1X1X1X1X      R XXXXXXXXXXXXXXXX`.).).).!               * ^ ^ ^ ^ ^ ^ ^ ^ ^ ^ ^ ^ 0         1X1X1X1X1X1X1X1X",
"1X1X1X1X1X1X1X1X1X1X1X1X1X      R XXXXXXXXXXXXXXXX`.).).).!               * ^ ^ ^ ^ ^ ^ ^ ^ ^ ^ ^ ^ 0         1X1X1X1X1X1X1X1X",
"1X1X1X1X1X1X1X1X1X1X1X1X1X      R XXXXXXXXXXXXXXXX`.).).).!               * ^ ^ ^ ^ ^ ^ ^ ^ ^ ^ ^ ^ 0         1X1X1X1X1X1X1X1X",
"1X1X1X1X1X1X1X1X1X1X1X1X1X      R XXXXXXXXXXXXXXXX`.).).).!               * ^ ^ ^ ^ ^ ^ ^ ^ ^ ^ ^ ^ 0         1X1X1X1X1X1X1X1X",
"1X1X1X1X1X1X1X1X        k.[.[.[.}.XXXXXXXX_._._._.W u u u 1X1X1X1X1X      . @ @ @ @ @ @ @ @ @ @ @ @ 1X1X1X1X1X1X1X1X1X1X1X1X1X",
"1X1X1X1X1X1X1X1X        l.XXXXXXXXXXXXXXXX).).).).f       1X1X1X1X1X                                1X1X1X1X1X1X1X1X1X1X1X1X1X",
"1X1X1X1X1X1X1X1X        l.XXXXXXXXXXXXXXXX).).).).f       1X1X1X1X1X                                1X1X1X1X1X1X1X1X1X1X1X1X1X",
"1X1X1X1X1X1X1X1X        l.XXXXXXXXXXXXXXXX).).).).f       1X1X1X1X1X                                1X1X1X1X1X1X1X1X1X1X1X1X1X",
"1X1X1X1X1X1X1X1X        j z.z.z.z.z.z.z.z.).).).).f       ; 1X1X1X1X> > > > > > > > > > > > > > > > 1X1X1X1X1X1X1X1X1X1X1X1X1X",
"1X1X1X1X1X1X1X1X        0 ^ ^ ^ ^ ^ ^ ^ ^ ).).).).f       : g g g g g g g g g g g g g g g g g g g g g g g g 1X1X1X1X1X1X1X1X1X",
"1X1X1X1X1X1X1X1X        0 ^ ^ ^ ^ ^ ^ ^ ^ ).).).).f       : g g g g g g g g g g g g g g g g g g g g g g g g 1X1X1X1X1X1X1X1X1X",
"1X1X1X1X1X1X1X1X        0 ^ ^ ^ ^ ^ ^ ^ ^ ).).).).f       : g g g g g g g g g g g g g g g g g g g g g g g g 1X1X1X1X1X1X1X1X1X",
"1X1X1X1X1X1X1X1Xo       0 ^ ^ ^ ^ ^ ^ ^ ^ j.j.j.j.i ; ; ; a g g g g g g g g g g g g g g g g g g g g g g g g 1X1X1X1X1X1X1X1X1X",
"1X1X1X1X1Xg g g +       0 ^ ^ ^ ^ ^ ^ ^ ^         p g g g g g g g g g g g g g g g g g g g g g g g g g g g g g g g g 1X1X1X1X1X",
"1X1X1X1X1Xg g g +       0 ^ ^ ^ ^ ^ ^ ^ ^         p g g g g g g g g g g g g g g g g g g g g g g g g g g g g g g g g 1X1X1X1X1X",
"1X1X1X1X1Xg g g +       0 ^ ^ ^ ^ ^ ^ ^ ^         p g g g g g g g g g g g g g g g g g g g g g g g g g g g g g g g g 1X1X1X1X1X",
"1X1X1X1X1Xg g g : O O O 8 P P P P P P P P O O O O s g g g g g g g g g g g g g g g g g g g g g g g g g g g g g g g g 1X1X1X1X1X",
"1X1X1X1X1Xg g g g g g g g g g g g g g g g g g g g g g g g g g g g g g g g g g g g g g g g g g g g g g g g g g g g g 1X1X1X1X1X",
"1X1X1X1X1Xg g g g g g g g g g g g g g g g g g g g g g g g g g g g g g g g g g g g g g g g g g g g g g g g g g g g g 1X1X1X1X1X",
"1X1X1X1X1Xg g g g g g g g g g g g g g g g g g g g g g g g g g g g g g g g g g g g g g g g g g g g g g g g g g g g g 1X1X1X1X1X",
"1X1X1X1X1X1X1X1X1Xg g g g g g g g g g g g g g g g g g g g g g g g g g g g g g g g g g g g g g g g g g g g g 1X1X1X1X1X1X1X1X1X",
"1X1X1X1X1X1X1X1X1Xg g g g g g g g g g g g g g g g g g g g g g g g g g g g g g g g g g g g g g g g g g g g g 1X1X1X1X1X1X1X1X1X",
"1X1X1X1X1X1X1X1X1Xg g g g g g g g g g g g g g g g g g g g g g g g g g g g g g g g g g g g g g g g g g g g g 1X1X1X1X1X1X1X1X1X",
"1X1X1X1X1X1X1X1X1Xg g g g g g g g g g g g g g g g g g g g g g g g g g g g g g g g g g g g g g g g g g g g g 1X1X1X1X1X1X1X1X1X",
"1X1X1X1X1X1X1X1X1Xg g g g g g g g g g g g g g g g g g g g g g g g g g g g g g g g g g g g g g g g g g g g g 1X1X1X1X1X1X1X1X1X"
};
