/* XPM */
static char *PME2[] = {
/* columns rows colors chars-per-pixel */
"69 96 159 2 ",
"   c black",
".  c #020101",
"X  c #020201",
"o  c #010102",
"O  c #070303",
"+  c #070403",
"@  c #070503",
"#  c #030406",
"$  c #090603",
"%  c #0C0804",
"&  c #0C0805",
"*  c #0D0805",
"=  c #0D0806",
"-  c #040508",
";  c #110A06",
":  c #120B07",
">  c #110C07",
",  c #140C07",
"<  c #100C0A",
"1  c #150D08",
"2  c #160D08",
"3  c #1A1009",
"4  c #19110A",
"5  c #1B110A",
"6  c #1E140C",
"7  c #0C0E19",
"8  c #21110D",
"9  c #22160E",
"0  c #25160D",
"q  c #26170E",
"w  c #24180E",
"e  c #25190F",
"r  c #2A1A0F",
"t  c #211812",
"y  c #221913",
"u  c #241B15",
"i  c #2E1C10",
"p  c #2E1E12",
"a  c #331F12",
"s  c #2F2013",
"d  c #27221D",
"f  c #322114",
"g  c #372114",
"h  c #342315",
"j  c #352315",
"k  c #342116",
"l  c #392617",
"z  c #3C2516",
"x  c #3C2517",
"c  c #3E2919",
"v  c #39291F",
"b  c #0E192B",
"n  c #0D1D34",
"m  c #152035",
"M  c #362F38",
"N  c #402717",
"B  c #432918",
"V  c #432A19",
"C  c #432B1A",
"Z  c #442A19",
"A  c #452B19",
"S  c #432D1B",
"D  c #472C1A",
"F  c #472D1B",
"G  c #462E1C",
"H  c #482E1B",
"J  c #482F1C",
"K  c #492F1C",
"L  c #4A2F1C",
"P  c #49301D",
"I  c #4B321E",
"U  c #4D321E",
"Y  c #4D331F",
"T  c #4E321E",
"R  c #4A3528",
"E  c #503520",
"W  c #513520",
"Q  c #523620",
"!  c #523621",
"~  c #533523",
"^  c #543721",
"/  c #543822",
"(  c #553822",
")  c #563923",
"_  c #573A23",
"`  c #563825",
"'  c #5F3F2B",
"]  c #4F3D32",
"[  c #60402B",
"{  c #65442F",
"}  c #684731",
"|  c #6A4831",
" . c #6B4933",
".. c #6E4B35",
"X. c #6F4C34",
"o. c #6F4C36",
"O. c #674A38",
"+. c #654D39",
"@. c #704E3B",
"#. c #79533C",
"$. c #7E573F",
"%. c #815941",
"&. c #805D45",
"*. c #875F44",
"=. c #885F44",
"-. c #8A6146",
";. c #90664D",
":. c #90694F",
">. c #846B51",
",. c #816E5B",
"<. c #936950",
"1. c #9B6E51",
"2. c #9D6F53",
"3. c #9A755C",
"4. c #A07255",
"5. c #AC7B5D",
"6. c #836F6C",
"7. c #8A7B66",
"8. c #917F69",
"9. c #8E7D7E",
"0. c #93806A",
"q. c #9C866D",
"w. c #9F876F",
"e. c #B2896B",
"r. c #A58C72",
"t. c #A18D75",
"y. c #AD8D71",
"u. c #B48F71",
"i. c #A79177",
"p. c #AA967C",
"a. c #AF997E",
"s. c #B59072",
"d. c #B9987B",
"f. c #B89B7E",
"g. c #1D438A",
"h. c #1F4890",
"j. c #214D96",
"k. c #23519B",
"l. c #24549F",
"z. c #305995",
"x. c #285BA9",
"c. c #295EAC",
"v. c #2B63B3",
"b. c #2C65B5",
"n. c #717080",
"m. c #607293",
"M. c #787E97",
"N. c #426CA7",
"B. c #4A73AD",
"V. c #5773A4",
"C. c #5C78A7",
"Z. c #718BB5",
"A. c #81869D",
"S. c #BB9E81",
"D. c #BDA285",
"F. c #BEA588",
"G. c #A4A8B5",
"H. c #C1AC8F",
"J. c None",
/* pixels */
"J.J.J.J.J.J.J.J.J.                                      J.J.J.J.                  J.J.J.J.J.J.J.J.J.J.J.J.J.J.J.J.J.J.J.J.J.J.J.J.J.J.J.J.",
"J.J.J.J.J.J.J.J.J.                                      J.J.J.J.                  J.J.J.J.J.J.J.J.J.J.J.J.J.J.J.J.J.J.J.J.J.J.J.J.J.J.J.J.",
"J.J.J.J.J.J.J.J.J.                                      J.J.J.J.                  J.J.J.J.J.J.J.J.J.J.J.J.J.J.J.J.J.J.J.J.J.J.J.J.J.J.J.J.",
"J.J.J.J.J.J.J.J.J.                                      J.J.J.J.                  J.J.J.J.J.J.J.J.J.J.J.J.J.J.J.J.J.J.J.J.J.J.J.J.J.J.J.J.",
"J.J.J.J.J.J.J.J.J.        @ e e e e e e e e e 5 5 5 5 1 J.J.J.J.9 e e e 6           J.J.J.J.J.J.J.J.J.J.J.J.J.J.J.J.J.J.J.J.J.J.J.J.J.J.J.",
"J.J.J.J.J.J.J.J.J.        > _ _ _ _ _ _ _ _ _ N N N N q         G _ _ _ G                             J.J.J.J.J.J.J.J.J.J.J.J.J.J.J.J.J.J.",
"J.J.J.J.J.J.J.J.J.        > _ _ _ _ _ _ _ _ _ N N N N q         G _ _ _ G                             J.J.J.J.J.J.J.J.J.J.J.J.J.J.J.J.J.J.",
"J.J.J.J.J.J.J.J.J.        > _ _ _ _ _ _ _ _ _ N N N N q         G _ _ _ G                             J.J.J.J.J.J.J.J.J.J.J.J.J.J.J.J.J.J.",
"J.J.J.J.J.J.J.J.J.        > _ _ _ _ _ _ _ _ _ N N N N q         G _ _ _ G                             J.J.J.J.J.J.J.J.J.J.J.J.J.J.J.J.J.J.",
"J.J.J.J.J.J.J.J.J.        X & & & & l _ _ _ _ ^ ^ ^ ^ J g g g g W _ _ _ W g g g g C I I I I I I I I s         J.J.J.J.J.J.J.J.J.J.J.J.J.J.",
"J.J.J.J.J.J.J.J.J.                  h _ _ _ _ _ _ _ _ T N N N N ! _ _ _ ! N N N N T _ _ _ _ _ _ _ _ h         J.J.J.J.J.J.J.J.J.J.J.J.J.J.",
"J.J.J.J.J.J.J.J.J.                  h _ _ _ _ _ _ _ _ T N N N N ! _ _ _ ! N N N N T _ _ _ _ _ _ _ _ h         J.J.J.J.J.J.J.J.J.J.J.J.J.J.",
"J.J.J.J.J.J.J.J.J.                  h _ _ _ _ _ _ _ _ T N N N N ! _ _ _ ! N N N N T _ _ _ _ _ _ _ _ h         J.J.J.J.J.J.J.J.J.J.J.J.J.J.",
"J.J.J.J.J.J.J.J.J.; : : : , 4 4 4 4 c _ _ _ _ _ _ _ _ E D D D D ^ _ _ _ ^ D D D D E _ _ _ _ _ _ _ _ c 4 4 4 4 J.J.J.J.J.J.J.J.J.J.J.J.J.J.",
"J.J.J.J.J.        a N N N A _ _ _ _ _ _ _ _ _ _ _ _ _ _ _ _ _ _ _ _ _ _ _ _ _ _ _ _ _ _ _ _ _ _ _ _ _ _ _ _ _ >         J.J.J.J.J.J.J.J.J.",
"J.J.J.J.J.        a N N N A _ _ _ _ _ _ _ _ _ _ _ _ _ _ _ _ _ _ _ _ _ _ _ _ _ _ _ _ _ _ _ _ _ _ _ _ _ _ _ _ _ >         J.J.J.J.J.J.J.J.J.",
"J.J.J.J.J.        a N N N A _ _ _ _ _ _ _ _ _ _ _ _ _ _ _ _ _ _ _ _ _ _ _ _ _ _ _ _ _ _ _ _ _ _ _ _ _ _ _ _ _ >         J.J.J.J.J.J.J.J.J.",
"J.J.J.J.J.        a N N N A _ _ _ _ _ _ _ _ _ _ _ _ _ _ _ _ _ _ _ _ _ _ _ _ _ _ _ _ _ _ _ _ _ _ _ _ _ _ _ _ _ >         J.J.J.J.J.J.J.J.J.",
"        2 i i i i P E E E Q _ _ _ _ _ _ _ _ _ _ _ _ _ _ _ _ _ _ _ _ _ _ _ _ _ _ _ _ _ _ _ _ _ _ _ _ _ _ _ _ _ S c c c j         J.J.J.J.J.",
"        3 N N N N ! _ _ _ _ _ _ _ _ _ _ _ _ _ _ _ _ _ _ _ _ _ _ _ _ _ _ _ _ _ _ _ _ _ _ _ _ _ _ _ _ _ _ _ _ _ _ _ _ _ G         J.J.J.J.J.",
"        3 N N N N ! _ _ _ _ _ _ _ _ _ _ _ _ _ _ _ _ _ _ _ _ _ _ _ _ _ _ _ _ _ _ _ _ _ _ _ _ _ _ _ _ _ _ _ _ _ _ _ _ _ G         J.J.J.J.J.",
"        3 N N N N ! _ _ _ _ _ _ _ _ _ _ _ _ _ _ _ _ _ _ _ _ _ _ _ _ _ _ _ _ _ _ _ _ _ _ _ _ _ _ _ _ _ _ _ _ _ _ _ _ _ G         J.J.J.J.J.",
"        3 N N N N ! _ _ _ _ _ _ _ _ ( ^ ^ ^ ^ _ _ _ _ _ _ _ _ _ _ _ _ _ ) ^ ^ ^ ^ ^ ^ ^ ^ ^ _ _ _ _ _ _ _ _ _ _ _ _ _ G         J.J.J.J.J.",
"        3 N N N N ! _ _ _ _ _ _ _ _ K N N N N _ _ _ _ _ _ _ _ _ _ _ _ _ ! N N N N N N N N N _ _ _ _ _ _ _ _ _ _ _ _ _ G         J.J.J.J.J.",
"        3 N N N N ! _ _ _ _ _ _ _ _ K N N N N _ _ _ _ _ _ _ _ _ _ _ _ _ ! N N N N N N N N N _ _ _ _ _ _ _ _ _ _ _ _ _ G         J.J.J.J.J.",
"        3 N N N N ! _ _ _ _ _ _ _ _ K N N N N _ _ _ _ _ _ _ _ _ _ _ _ _ ! N N N N N N N N N _ _ _ _ _ _ _ _ _ _ _ _ _ G         J.J.J.J.J.",
"        3 N N N N ! _ _ _ _ _ _ _ _ K N N N N _ _ _ _ _ _ _ _ _ _ _ _ _ ! N N N N N N N N N _ _ _ _ _ _ _ _ _ _ _ _ _ G         J.J.J.J.J.",
"        3 N N N N H L L L L L L L L Z N N N N _ _ _ _ _ _ _ _ _ _ _ _ _ ! N N N N { $.$.$.$.=.=.=.=.X.L L L L / _ _ _ Y 0 0 0 0 ,         ",
"        3 N N N N N N N N N N N N N N N N N N _ _ _ _ _ _ _ _ _ _ _ _ _ ! N N N N %.5.5.5.5.5.5.5.5.%.N N N N ! _ _ _ ! N N N N 3         ",
"        3 N N N N N N N N N N N N N N N N N N _ _ _ _ _ _ _ _ _ _ _ _ _ ! N N N N %.5.5.5.5.5.5.5.5.%.N N N N ! _ _ _ ! N N N N 3         ",
"        3 N N N N N N N N N N N N N N N N N N _ _ _ _ _ _ _ _ _ _ _ _ _ ! N N N N %.5.5.5.5.5.5.5.5.%.N N N N ! _ _ _ ! N N N N 3         ",
"        3 N N N N N N N N N N N N N N N N N N _ _ _ _ _ _ _ _ _ _ _ _ _ ! N N N N %.5.5.5.5.5.5.5.5.%.N N N N ! _ _ _ ! N N N N 3         ",
"        3 N N N N ! _ _ _ ! N N N N N N N N N _ _ _ _ _ _ _ _ _ A N N N ` 5.5.5.5.5.5.5.5.5.5.5.5.5.5.5.5.5.5.` N N N N N N N N 3         ",
"        3 N N N N ! _ _ _ ! N N N N N N N N N _ _ _ _ _ _ _ _ _ A N N N ` 5.5.5.5.5.5.5.5.5.5.5.5.5.5.5.5.5.5.` N N N N N N N N 3         ",
"        3 N N N N ! _ _ _ ! N N N N N N N N N _ _ _ _ _ _ _ _ _ A N N N ` 5.5.5.5.5.5.5.5.5.5.5.5.5.5.5.5.5.5.` N N N N N N N N 3         ",
"        3 N N N N ! _ _ _ ! N N N N N N N N N _ _ _ _ _ _ _ _ _ A N N N ` 5.5.5.5.5.5.5.5.5.5.5.5.5.5.5.5.5.5.` N N N N N N N N 3         ",
"        3 N N N N ! _ _ _ / L L L L [ ........U U U U W _ _ _ _ | ......o.@.@.@.@.3.s.s.s.s.s.s.s.s.3.@.@.@.@.k 0 0 0 r N N N N 3         ",
"        3 N N N N ! _ _ _ _ _ _ _ _ -.5.5.5.5.N N N N K _ _ _ _ 1.5.5.5.;.8 8 8 8 ,.H.H.H.H.H.H.H.H.,.8 8 8 8 O       * N N N N 3         ",
"        3 N N N N ! _ _ _ _ _ _ _ _ -.5.5.5.5.N N N N K _ _ _ _ 1.5.5.5.;.8 8 8 8 ,.H.H.H.H.H.H.H.H.,.8 8 8 8 O       * N N N N 3         ",
"        3 N N N N ! _ _ _ _ _ _ _ _ -.5.5.5.5.N N N N K _ _ _ _ 1.5.5.5.;.8 8 8 8 ,.H.H.H.H.H.H.H.H.,.8 8 8 8 O       * N N N N 3         ",
"        3 N N N N ! _ _ _ _ _ _ _ _ -.5.5.5.5.N N N N K _ _ _ _ 1.5.5.5.;.8 8 8 8 ,.H.H.H.H.H.H.H.H.,.8 8 8 8 O       * N N N N 3         ",
"        3 N N N N B V V V F _ _ _ _ -.5.5.5.5.2.2.2.2.#.V V V V r.F.F.F.w.8 8 8 8 ,.H.H.H.H.H.H.H.H.,.8 8 8 8 O       . $ $ $ $ J.J.J.J.J.",
"        3 N N N N N N N N A _ _ _ _ -.5.5.5.5.5.5.5.5.%.N N N N i.H.H.H.t.8 8 8 8 ,.H.H.H.H.H.H.H.H.,.8 8 8 8 O                 J.J.J.J.J.",
"        3 N N N N N N N N A _ _ _ _ -.5.5.5.5.5.5.5.5.%.N N N N i.H.H.H.t.8 8 8 8 ,.H.H.H.H.H.H.H.H.,.8 8 8 8 O                 J.J.J.J.J.",
"        3 N N N N N N N N A _ _ _ _ -.5.5.5.5.5.5.5.5.%.N N N N i.H.H.H.t.8 8 8 8 ,.H.H.H.H.H.H.H.H.,.8 8 8 8 O                 J.J.J.J.J.",
"        2 i i i i z N N N V E E E E *.5.5.5.5.5.5.5.5.:.+.+.+.+.a.H.H.H.p.] ] ] ] 0.H.H.H.H.H.H.H.H.0.] ] ] ] <                 J.J.J.J.J.",
"J.J.J.J.J.        a N N N N N N N N %.5.5.5.5.5.5.5.5.u.H.H.H.H.H.H.H.H.H.H.H.H.H.H.H.H.H.H.H.H.H.H.H.H.H.H.H.d         J.J.J.J.J.J.J.J.J.",
"J.J.J.J.J.        a N N N N N N N N %.5.5.5.5.5.5.5.5.u.H.H.H.H.H.H.H.H.H.H.H.H.H.H.H.H.H.H.H.H.H.H.H.H.H.H.H.d         J.J.J.J.J.J.J.J.J.",
"J.J.J.J.J.        a N N N N N N N N %.5.5.5.5.5.5.5.5.u.H.H.H.H.H.H.H.H.H.H.H.H.H.H.H.H.H.H.H.H.H.H.H.H.H.H.H.d         J.J.J.J.J.J.J.J.J.",
"J.J.J.J.J.        a N N N N N N N N %.5.5.5.5.5.5.5.5.u.H.H.H.H.H.H.H.H.H.H.H.H.H.H.H.H.H.H.H.H.H.H.H.H.H.H.H.d         J.J.J.J.J.J.J.J.J.",
"J.J.J.J.J.J.J.J.J.; : : : 5 N N N N ~ ' ' ' ' ' ' ' ' &.e.e.e.e.F.H.H.H.H.H.H.H.H.H.H.H.H.H.H.H.H.H.S.e.e.e.e.u         J.J.J.J.J.J.J.J.J.",
"J.J.J.J.J.J.J.J.J.        * N N N N N N N N N N N N N  .5.5.5.5.D.H.H.H.H.H.H.H.H.H.H.H.H.H.H.H.H.H.d.5.5.5.5.y         J.J.J.J.J.J.J.J.J.",
"J.J.J.J.J.J.J.J.J.        * N N N N N N N N N N N N N  .5.5.5.5.D.H.H.H.H.H.H.H.H.H.H.H.H.H.H.H.H.H.d.5.5.5.5.y         J.J.J.J.J.J.J.J.J.",
"J.J.J.J.J.J.J.J.J.        * N N N N N N N N N N N N N  .5.5.5.5.D.H.H.H.H.H.H.H.H.H.H.H.H.H.H.H.H.H.d.5.5.5.5.y         J.J.J.J.J.J.J.J.J.",
"J.J.J.J.J.J.J.J.J.        % g g g g z N N N N V V V V } 4.4.4.4.f.F.F.F.F.F.F.F.F.F.F.F.F.F.F.F.F.F.y.<.<.<.<.t         J.J.J.J.J.J.J.J.J.",
"J.J.J.J.J.J.J.J.J.J.J.J.J.J.        q N N N N _ _ _ _ _ _ _ _ _ 1.5.5.5.5.5.5.5.5.5.5.5.5.5.5.5.5.5.O.        J.J.J.J.J.J.J.J.J.J.J.J.J.J.",
"J.J.J.J.J.J.J.J.J.J.J.J.J.J.        q N N N N _ _ _ _ _ _ _ _ _ 1.5.5.5.5.5.5.5.5.5.5.5.5.5.5.5.5.5.O.        J.J.J.J.J.J.J.J.J.J.J.J.J.J.",
"J.J.J.J.J.J.J.J.J.J.J.J.J.J.        q N N N N _ _ _ _ _ _ _ _ _ 1.5.5.5.5.5.5.5.5.5.5.5.5.5.5.5.5.5.O.        J.J.J.J.J.J.J.J.J.J.J.J.J.J.",
"J.J.J.J.J.J.J.J.J.J.J.J.J.J.        q N N N N _ _ _ _ _ _ _ _ _ 1.5.5.5.5.5.5.5.5.5.5.5.5.5.5.5.5.5.O.        J.J.J.J.J.J.J.J.J.J.J.J.J.J.",
"J.J.J.J.J.J.J.J.J.J.J.J.J.J.        p U U U U _ _ _ _ _ _ _ _ _ 6.9.9.9.9.9.9.9.9.9.9.9.9.9.R R R R v J.J.J.J.J.J.J.J.J.J.J.J.J.J.J.J.J.J.",
"J.J.J.J.J.J.J.J.J.J.J.J.J.J.        h _ _ _ _ _ _ _ _ _ _ _ _ _ n.M.M.M.M.M.M.M.M.M.M.M.M.M.          J.J.J.J.J.J.J.J.J.J.J.J.J.J.J.J.J.J.",
"J.J.J.J.J.J.J.J.J.J.J.J.J.J.        h _ _ _ _ _ _ _ _ _ _ _ _ _ n.M.M.M.M.M.M.M.M.M.M.M.M.M.          J.J.J.J.J.J.J.J.J.J.J.J.J.J.J.J.J.J.",
"J.J.J.J.J.J.J.J.J.J.J.J.J.J.        h _ _ _ _ _ _ _ _ _ _ _ _ _ n.M.M.M.M.M.M.M.M.M.M.M.M.M.          J.J.J.J.J.J.J.J.J.J.J.J.J.J.J.J.J.J.",
"J.J.J.J.J.J.J.J.J.J.J.J.J.J.        h _ _ _ _ _ _ _ _ _ _ _ _ _ n.M.M.M.M.M.M.M.M.M.M.M.M.M.          J.J.J.J.J.J.J.J.J.J.J.J.J.J.J.J.J.J.",
"J.J.J.J.J.J.J.J.J.J.J.J.J.J.        h _ _ _ _ _ _ _ _ _ _ _ _ _ n.M.M.M.A.G.G.G.G.G.G.G.G.G.          J.J.J.J.J.J.J.J.J.J.J.J.J.J.J.J.J.J.",
"J.J.J.J.J.J.J.J.J.J.J.J.J.J.        h _ _ _ _ _ _ _ _ _ _ _ _ _ n.M.M.M.A.G.G.G.G.G.G.G.G.G.          J.J.J.J.J.J.J.J.J.J.J.J.J.J.J.J.J.J.",
"J.J.J.J.J.J.J.J.J.J.J.J.J.J.        h _ _ _ _ _ _ _ _ _ _ _ _ _ n.M.M.M.A.G.G.G.G.G.G.G.G.G.          J.J.J.J.J.J.J.J.J.J.J.J.J.J.J.J.J.J.",
"J.J.J.J.J.J.J.J.J.J.J.J.J.J.        h _ _ _ _ _ _ _ _ _ _ _ _ _ n.M.M.M.A.G.G.G.G.G.G.G.G.G.          J.J.J.J.J.J.J.J.J.J.J.J.J.J.J.J.J.J.",
"J.J.J.J.J.J.J.J.J.J.J.J.J.J.        w f f f f >.>.>.>.>.>.>.>.>.m.V.V.V.C.Z.Z.Z.Z.Z.Z.Z.Z.Z.          J.J.J.J.J.J.J.J.J.J.J.J.J.J.J.J.J.J.",
"J.J.J.J.J.J.J.J.J.J.J.J.J.J.J.J.J.J.          H.H.H.H.H.H.H.H.H.B.b.b.b.b.b.b.b.b.b.b.b.b.b.          J.J.J.J.J.J.J.J.J.J.J.J.J.J.J.J.J.J.",
"J.J.J.J.J.J.J.J.J.J.J.J.J.J.J.J.J.J.          H.H.H.H.H.H.H.H.H.B.b.b.b.b.b.b.b.b.b.b.b.b.b.          J.J.J.J.J.J.J.J.J.J.J.J.J.J.J.J.J.J.",
"J.J.J.J.J.J.J.J.J.J.J.J.J.J.J.J.J.J.          H.H.H.H.H.H.H.H.H.B.b.b.b.b.b.b.b.b.b.b.b.b.b.          J.J.J.J.J.J.J.J.J.J.J.J.J.J.J.J.J.J.",
"J.J.J.J.J.J.J.J.J.J.J.J.J.J.J.J.J.J.          H.H.H.H.H.H.H.H.H.B.b.b.b.b.b.b.b.b.b.b.b.b.b.          J.J.J.J.J.J.J.J.J.J.J.J.J.J.J.J.J.J.",
"J.J.J.J.J.J.J.J.J.J.J.J.J.J.J.J.J.J.          H.H.H.H.H.H.H.H.H.B.b.b.b.b.b.b.b.b.l.h.h.h.h.          J.J.J.J.J.J.J.J.J.J.J.J.J.J.J.J.J.J.",
"J.J.J.J.J.J.J.J.J.J.J.J.J.J.J.J.J.J.          H.H.H.H.H.H.H.H.H.B.b.b.b.b.b.b.b.b.k.g.g.g.g.          J.J.J.J.J.J.J.J.J.J.J.J.J.J.J.J.J.J.",
"J.J.J.J.J.J.J.J.J.J.J.J.J.J.J.J.J.J.          H.H.H.H.H.H.H.H.H.B.b.b.b.b.b.b.b.b.k.g.g.g.g.          J.J.J.J.J.J.J.J.J.J.J.J.J.J.J.J.J.J.",
"J.J.J.J.J.J.J.J.J.J.J.J.J.J.J.J.J.J.          H.H.H.H.H.H.H.H.H.B.b.b.b.b.b.b.b.b.k.g.g.g.g.          J.J.J.J.J.J.J.J.J.J.J.J.J.J.J.J.J.J.",
"J.J.J.J.J.J.J.J.J.J.J.J.J.J.J.J.J.J.o         7.7.7.7.8.q.q.q.q.N.b.b.b.v.x.x.x.x.j.g.g.g.g.        o J.J.J.J.J.J.J.J.J.J.J.J.J.J.J.J.J.J.",
"J.J.J.J.J.J.J.J.J.J.7 7 7 7 7 7 7 7 #                 3 N N N N z.b.b.b.c.g.g.g.g.g.g.g.g.g.        # 7 7 7 7 7 7 7 7 J.J.J.J.J.J.J.J.J.J.",
"J.J.J.J.J.J.J.J.J.J.7 7 7 7 7 7 7 7 #                 3 N N N N z.b.b.b.c.g.g.g.g.g.g.g.g.g.        # 7 7 7 7 7 7 7 7 J.J.J.J.J.J.J.J.J.J.",
"J.J.J.J.J.J.J.J.J.J.7 7 7 7 7 7 7 7 #                 3 N N N N z.b.b.b.c.g.g.g.g.g.g.g.g.g.        # 7 7 7 7 7 7 7 7 J.J.J.J.J.J.J.J.J.J.",
"J.J.J.J.J.J.J.J.J.J.7 7 7 7 7 7 7 7 #                 3 N N N N z.b.b.b.c.g.g.g.g.g.g.g.g.g.        # 7 7 7 7 7 7 7 7 J.J.J.J.J.J.J.J.J.J.",
"J.J.J.J.J.J.J.J.J.J.7 7 7 7 7 7 7 7 #                 + : : : : b n n n m M M M M M M M M M         # 7 7 7 7 7 7 7 7 J.J.J.J.J.J.J.J.J.J.",
"J.J.J.J.J.7 7 7 7 7 7 7 7 7 7 7 7 7 #                                   * N N N N N N N N N         # 7 7 7 7 7 7 7 7 7 7 7 7 7 J.J.J.J.J.",
"J.J.J.J.J.7 7 7 7 7 7 7 7 7 7 7 7 7 #                                   * N N N N N N N N N         # 7 7 7 7 7 7 7 7 7 7 7 7 7 J.J.J.J.J.",
"J.J.J.J.J.7 7 7 7 7 7 7 7 7 7 7 7 7 #                                   * N N N N N N N N N         # 7 7 7 7 7 7 7 7 7 7 7 7 7 J.J.J.J.J.",
"J.J.J.J.J.7 7 7 7 7 7 7 7 7 7 7 7 7 - o o o o o o o o o o o o o o o o o = x x x x x x x x x o o o o - 7 7 7 7 7 7 7 7 7 7 7 7 7 J.J.J.J.J.",
"J.J.J.J.J.7 7 7 7 7 7 7 7 7 7 7 7 7 7 7 7 7 7 7 7 7 7 7 7 7 7 7 7 7 7 7 7 7 7 7 7 7 7 7 7 7 7 7 7 7 7 7 7 7 7 7 7 7 7 7 7 7 7 7 J.J.J.J.J.",
"J.J.J.J.J.7 7 7 7 7 7 7 7 7 7 7 7 7 7 7 7 7 7 7 7 7 7 7 7 7 7 7 7 7 7 7 7 7 7 7 7 7 7 7 7 7 7 7 7 7 7 7 7 7 7 7 7 7 7 7 7 7 7 7 J.J.J.J.J.",
"J.J.J.J.J.7 7 7 7 7 7 7 7 7 7 7 7 7 7 7 7 7 7 7 7 7 7 7 7 7 7 7 7 7 7 7 7 7 7 7 7 7 7 7 7 7 7 7 7 7 7 7 7 7 7 7 7 7 7 7 7 7 7 7 J.J.J.J.J.",
"J.J.J.J.J.7 7 7 7 7 7 7 7 7 7 7 7 7 7 7 7 7 7 7 7 7 7 7 7 7 7 7 7 7 7 7 7 7 7 7 7 7 7 7 7 7 7 7 7 7 7 7 7 7 7 7 7 7 7 7 7 7 7 7 J.J.J.J.J.",
"J.J.J.J.J.J.J.J.J.J.7 7 7 7 7 7 7 7 7 7 7 7 7 7 7 7 7 7 7 7 7 7 7 7 7 7 7 7 7 7 7 7 7 7 7 7 7 7 7 7 7 7 7 7 7 7 7 7 7 J.J.J.J.J.J.J.J.J.J.",
"J.J.J.J.J.J.J.J.J.J.7 7 7 7 7 7 7 7 7 7 7 7 7 7 7 7 7 7 7 7 7 7 7 7 7 7 7 7 7 7 7 7 7 7 7 7 7 7 7 7 7 7 7 7 7 7 7 7 7 J.J.J.J.J.J.J.J.J.J.",
"J.J.J.J.J.J.J.J.J.J.7 7 7 7 7 7 7 7 7 7 7 7 7 7 7 7 7 7 7 7 7 7 7 7 7 7 7 7 7 7 7 7 7 7 7 7 7 7 7 7 7 7 7 7 7 7 7 7 7 J.J.J.J.J.J.J.J.J.J.",
"J.J.J.J.J.J.J.J.J.J.7 7 7 7 7 7 7 7 7 7 7 7 7 7 7 7 7 7 7 7 7 7 7 7 7 7 7 7 7 7 7 7 7 7 7 7 7 7 7 7 7 7 7 7 7 7 7 7 7 J.J.J.J.J.J.J.J.J.J.",
"J.J.J.J.J.J.J.J.J.J.7 7 7 7 7 7 7 7 7 7 7 7 7 7 7 7 7 7 7 7 7 7 7 7 7 7 7 7 7 7 7 7 7 7 7 7 7 7 7 7 7 7 7 7 7 7 7 7 7 J.J.J.J.J.J.J.J.J.J."
};
