/* XPM */
static char *PME3[] = {
/* columns rows colors chars-per-pixel */
"63 96 206 2 ",
"   c black",
".  c #020101",
"X  c #020204",
"o  c #030305",
"O  c #030406",
"+  c #080503",
"@  c #090605",
"#  c #0A0604",
"$  c #0C0704",
"%  c #0D0705",
"&  c #0C0805",
"*  c #0D0805",
"=  c #0E0805",
"-  c #0E0905",
";  c #040509",
":  c #05060B",
">  c #06070D",
",  c #0F0B08",
"<  c #100A06",
"1  c #120B07",
"2  c #110C07",
"3  c #130C07",
"4  c #130E0B",
"5  c #160D08",
"6  c #170E08",
"7  c #160F09",
"8  c #170F0D",
"9  c #190F09",
"0  c #1A1009",
"q  c #18100A",
"w  c #1A120B",
"e  c #1C120B",
"r  c #1F130B",
"t  c #1D130C",
"y  c #1E140C",
"u  c #040912",
"i  c #070C17",
"p  c #080911",
"a  c #080A11",
"s  c #090B13",
"d  c #060D1C",
"f  c #0C0E19",
"g  c #1E1713",
"h  c #181719",
"j  c #20130B",
"k  c #21110D",
"l  c #20150D",
"z  c #23160D",
"x  c #23170E",
"c  c #24160D",
"v  c #26170E",
"b  c #28180E",
"n  c #29190F",
"m  c #2A190F",
"M  c #221913",
"N  c #2D1B10",
"B  c #2A1C11",
"V  c #2B1D11",
"C  c #2D1C11",
"Z  c #2F1D11",
"A  c #2E1F13",
"S  c #2E1F18",
"D  c #311E12",
"F  c #311F12",
"G  c #331F12",
"H  c #25211D",
"J  c #27221D",
"K  c #2D2018",
"L  c #2F221A",
"P  c #322013",
"I  c #352013",
"U  c #332214",
"Y  c #322117",
"T  c #342315",
"R  c #352315",
"E  c #352217",
"W  c #392315",
"Q  c #3A2415",
"!  c #392617",
"~  c #3D2516",
"^  c #091424",
"/  c #09142A",
"(  c #151821",
")  c #0C1B37",
"_  c #382D30",
"`  c #35303A",
"'  c #402717",
"]  c #412717",
"[  c #412817",
"{  c #412818",
"}  c #432919",
"|  c #442A19",
" . c #452B19",
".. c #452B1A",
"X. c #452D1B",
"o. c #472D1B",
"O. c #482D1B",
"+. c #492E1C",
"@. c #492F1C",
"#. c #4A2F1C",
"$. c #48301D",
"%. c #4B301D",
"&. c #4C311D",
"*. c #4D311E",
"=. c #4D321E",
"-. c #4E321E",
";. c #4E331E",
":. c #4F331F",
">. c #443120",
",. c #413027",
"<. c #453125",
"1. c #4D3422",
"2. c #4B392F",
"3. c #513520",
"4. c #523620",
"5. c #523621",
"6. c #533721",
"7. c #543723",
"8. c #543624",
"9. c #553724",
"0. c #543821",
"q. c #543822",
"w. c #553822",
"e. c #563922",
"r. c #563A23",
"t. c #573A23",
"y. c #563825",
"u. c #583A25",
"i. c #5D3E27",
"p. c #573A2C",
"a. c #5E4028",
"s. c #5A422F",
"d. c #4C4337",
"f. c #4D4539",
"g. c #63432C",
"h. c #65442E",
"j. c #68472F",
"k. c #614635",
"l. c #624A36",
"z. c #6B4933",
"x. c #6F4C35",
"c. c #6B4D3C",
"v. c #714D35",
"b. c #714D39",
"n. c #74513D",
"m. c #71543E",
"M. c #0E2042",
"N. c #344C76",
"B. c #544643",
"V. c #625042",
"C. c #7A5D4A",
"Z. c #50556B",
"A. c #625B64",
"S. c #665F66",
"D. c #6B6369",
"F. c #736260",
"G. c #7A727F",
"H. c #825A42",
"J. c #8A6146",
"K. c #80674D",
"L. c #8E664A",
"P. c #95694E",
"I. c #966A4F",
"U. c #8B6A51",
"Y. c #816E5B",
"T. c #996C51",
"R. c #8D775F",
"E. c #A37457",
"W. c #A7775A",
"Q. c #A8785A",
"!. c #AC7B5D",
"~. c #927E69",
"^. c #AE7F61",
"/. c #9B856C",
"(. c #B08567",
"). c #B59073",
"_. c #B9987B",
"`. c #B9997B",
"'. c #1D438A",
"]. c #314F80",
"[. c #3C578B",
"{. c #3E588B",
"}. c #25559F",
"|. c #305893",
" X c #2657A4",
".X c #2A61AD",
"XX c #2B61AD",
"oX c #2D62AE",
"OX c #2C65B5",
"+X c #787E97",
"@X c #5A74A3",
"#X c #657EAA",
"$X c #867D88",
"%X c #758EB5",
"&X c #82879E",
"*X c #B99D80",
"=X c #BDA285",
"-X c #BAA78F",
";X c #BFA88B",
":X c #8A8FA3",
">X c #9196A8",
",X c #A4A8B5",
"<X c #C0A98C",
"1X c #C0AA8D",
"2X c #C1AC8F",
"3X c None",
/* pixels */
"3X3X3X3X3X3X3X3X                                  3X3X3X3X                  3X3X3X3X3X3X3X3X3X3X3X3X3X3X3X3X3X3X3X3X3X3X3X3X3X",
"3X3X3X3X3X3X3X3X                                  3X3X3X3X                  3X3X3X3X3X3X3X3X3X3X3X3X3X3X3X3X3X3X3X3X3X3X3X3X3X",
"3X3X3X3X3X3X3X3X                                  3X3X3X3X                  3X3X3X3X3X3X3X3X3X3X3X3X3X3X3X3X3X3X3X3X3X3X3X3X3X",
"3X3X3X3X3X3X3X3X                                  3X3X3X3X                  3X3X3X3X3X3X3X3X3X3X3X3X3X3X3X3X3X3X3X3X3X3X3X3X3X",
"3X3X3X3X3X3X3X3X        t $.$.$.$.$.$.$.$.I I I I $       A $.$.$.V                         3X3X3X3X3X3X3X3X3X3X3X3X3X3X3X3X3X",
"3X3X3X3X3X3X3X3X        x t.t.t.t.t.t.t.t.' ' ' ' *       T t.t.t.T                         3X3X3X3X3X3X3X3X3X3X3X3X3X3X3X3X3X",
"3X3X3X3X3X3X3X3X        x t.t.t.t.t.t.t.t.' ' ' ' *       T t.t.t.T                         3X3X3X3X3X3X3X3X3X3X3X3X3X3X3X3X3X",
"3X3X3X3X3X3X3X3X        x t.t.t.t.t.t.t.t.' ' ' ' *       T t.t.t.T                         3X3X3X3X3X3X3X3X3X3X3X3X3X3X3X3X3X",
"3X3X3X3X3X3X3X3X        & y y y B t.t.t.t.:.:.:.:.F m m m X.t.t.t.X.m m m C ! ! ! ! ! ! ! ! <       3X3X3X3X3X3X3X3X3X3X3X3X3X",
"3X3X3X3X3X3X3X3X                2 t.t.t.t.t.t.t.t. .' ' ' -.t.t.t.-.' ' '  .t.t.t.t.t.t.t.t.2       3X3X3X3X3X3X3X3X3X3X3X3X3X",
"3X3X3X3X3X3X3X3X                2 t.t.t.t.t.t.t.t. .' ' ' -.t.t.t.-.' ' '  .t.t.t.t.t.t.t.t.2       3X3X3X3X3X3X3X3X3X3X3X3X3X",
"3X3X3X3X3X3X3X3X                2 t.t.t.t.t.t.t.t. .' ' ' -.t.t.t.-.' ' '  .t.t.t.t.t.t.t.t.2       3X3X3X3X3X3X3X3X3X3X3X3X3X",
"3X3X3X3X3X3X3X3X6 r r r z B B B U t.t.t.t.t.t.t.t.=.%.%.%.4.t.t.t.4.%.%.%.=.t.t.t.t.t.t.t.t.U B B B q 3X3X3X3X3X3X3X3X3X3X3X3X",
"3X3X3X3X        v ' ' ' @.t.t.t.t.t.t.t.t.t.t.t.t.t.t.t.t.t.t.t.t.t.t.t.t.t.t.t.t.t.t.t.t.t.t.t.t.t.x         3X3X3X3X3X3X3X3X",
"3X3X3X3X        v ' ' ' @.t.t.t.t.t.t.t.t.t.t.t.t.t.t.t.t.t.t.t.t.t.t.t.t.t.t.t.t.t.t.t.t.t.t.t.t.t.x         3X3X3X3X3X3X3X3X",
"3X3X3X3X        v ' ' ' @.t.t.t.t.t.t.t.t.t.t.t.t.t.t.t.t.t.t.t.t.t.t.t.t.t.t.t.t.t.t.t.t.t.t.t.t.t.x         3X3X3X3X3X3X3X3X",
"3X3X3X3X1 3 3 3 P o.o.o.=.t.t.t.t.t.t.t.t.t.t.t.t.t.t.t.t.t.t.t.t.t.t.t.t.t.t.t.t.t.t.t.t.t.t.t.t.t.U w w w 7 3X3X3X3X3X3X3X3X",
"        G ' ' ' -.t.t.t.t.t.t.t.t.t.t.t.t.t.t.t.t.t.t.t.t.t.t.t.t.t.t.t.t.t.t.t.t.t.t.t.t.t.t.t.t.t.t.t.t.t.T         3X3X3X3X",
"        G ' ' ' -.t.t.t.t.t.t.t.t.t.t.t.t.t.t.t.t.t.t.t.t.t.t.t.t.t.t.t.t.t.t.t.t.t.t.t.t.t.t.t.t.t.t.t.t.t.T         3X3X3X3X",
"        G ' ' ' -.t.t.t.t.t.t.t.t.t.t.t.t.t.t.t.t.t.t.t.t.t.t.t.t.t.t.t.t.t.t.t.t.t.t.t.t.t.t.t.t.t.t.t.t.t.T         3X3X3X3X",
"        G ' ' ' -.t.t.t.t.t.t.t.r.0.0.0.0.t.t.t.t.t.t.t.t.t.t.t.t.e.0.0.0.0.0.0.0.0.t.t.t.t.t.t.t.t.t.t.t.t.T         3X3X3X3X",
"        G ' ' ' -.t.t.t.t.t.t.t.5.' ' ' ' t.t.t.t.t.t.t.t.t.t.t.t.-.' ' ' ' ' ' ' ' t.t.t.t.t.t.t.t.t.t.t.t.T         3X3X3X3X",
"        G ' ' ' -.t.t.t.t.t.t.t.5.' ' ' ' t.t.t.t.t.t.t.t.t.t.t.t.-.' ' ' ' ' ' ' ' t.t.t.t.t.t.t.t.t.t.t.t.T         3X3X3X3X",
"        G ' ' ' -.t.t.t.t.t.t.t.5.' ' ' ' t.t.t.t.t.t.t.t.t.t.t.t.-.' ' ' ' ' ' ' ' t.t.t.t.t.t.t.t.t.t.t.t.T         3X3X3X3X",
"        G ' ' ' -.t.t.t.t.t.t.t.5.' ' ' ' t.t.t.t.t.t.t.t.t.t.t.t.-.' ' ' ' ' ' ' ' t.t.t.t.t.t.t.t.t.t.t.t.T         3X3X3X3X",
"        G ' ' ' ] { { { { { { { [ ' ' ' ' t.t.t.t.t.t.t.t.t.t.t.t.-.' ' ' 9.W.W.W.W.Q.Q.Q.Q.y.{ { { ;.t.t.t.*.~ ~ ~ D         ",
"        G ' ' ' ' ' ' ' ' ' ' ' ' ' ' ' ' t.t.t.t.t.t.t.t.t.t.t.t.-.' ' ' y.!.!.!.!.!.!.!.!.y.' ' ' -.t.t.t.-.' ' ' G         ",
"        G ' ' ' ' ' ' ' ' ' ' ' ' ' ' ' ' t.t.t.t.t.t.t.t.t.t.t.t.-.' ' ' y.!.!.!.!.!.!.!.!.y.' ' ' -.t.t.t.-.' ' ' G         ",
"        G ' ' ' ' ' ' ' ' ' ' ' ' ' ' ' ' t.t.t.t.t.t.t.t.t.t.t.t.-.' ' ' y.!.!.!.!.!.!.!.!.y.' ' ' -.t.t.t.-.' ' ' G         ",
"        G ' ' ' %.4.4.4.%.' ' ' ' ' ' ' ' t.t.t.t.t.t.t.t.&.......h.P.P.P.T.!.!.!.!.!.!.!.!.T.P.P.P.h.......} ' ' ' G         ",
"        G ' ' ' -.t.t.t.-.' ' ' ' ' ' ' ' t.t.t.t.t.t.t.t.@.' ' ' z.!.!.!.!.!.!.!.!.!.!.!.!.!.!.!.!.z.' ' ' ' ' ' ' G         ",
"        G ' ' ' -.t.t.t.-.' ' ' ' ' ' ' ' t.t.t.t.t.t.t.t.@.' ' ' z.!.!.!.!.!.!.!.!.!.!.!.!.!.!.!.!.z.' ' ' ' ' ' ' G         ",
"        G ' ' ' -.t.t.t.-.' ' ' ' ' ' ' ' t.t.t.t.t.t.t.t.@.' ' ' z.!.!.!.!.!.!.!.!.!.!.!.!.!.!.!.!.z.' ' ' ' ' ' ' G         ",
"        G ' ' ' -.t.t.t.6.;.;.;.u.H.H.H.H.+.+.+.+.q.t.t.t.v.H.H.H.b.p.p.p.c.`.`.`.`.`.`.`.`.c.p.p.p.Y 9 9 9 n ' ' ' G         ",
"        G ' ' ' -.t.t.t.t.t.t.t.j.!.!.!.!.' ' ' ' 5.t.t.t.J.!.!.!.n.k k k ,.2X2X2X2X2X2X2X2X,.k k k %       0 ' ' ' G         ",
"        G ' ' ' -.t.t.t.t.t.t.t.j.!.!.!.!.' ' ' ' 5.t.t.t.J.!.!.!.n.k k k ,.2X2X2X2X2X2X2X2X,.k k k %       0 ' ' ' G         ",
"        G ' ' ' -.t.t.t.t.t.t.t.j.!.!.!.!.' ' ' ' 5.t.t.t.J.!.!.!.n.k k k ,.2X2X2X2X2X2X2X2X,.k k k %       0 ' ' ' G         ",
"        G ' ' ' O.=.=.=.3.t.t.t.j.!.!.!.!.x.x.x.x.7.=.=.=.U.).).).C.k k k ,.2X2X2X2X2X2X2X2X,.k k k %       - c c c j         ",
"        G ' ' ' ' ' ' ' @.t.t.t.j.!.!.!.!.!.!.!.!.y.' ' ' R.2X2X2XY.k k k ,.2X2X2X2X2X2X2X2X,.k k k %                 3X3X3X3X",
"        G ' ' ' ' ' ' ' @.t.t.t.j.!.!.!.!.!.!.!.!.y.' ' ' R.2X2X2XY.k k k ,.2X2X2X2X2X2X2X2X,.k k k %                 3X3X3X3X",
"        G ' ' ' ' ' ' ' @.t.t.t.j.!.!.!.!.!.!.!.!.y.' ' ' R.2X2X2XY.k k k ,.2X2X2X2X2X2X2X2X,.k k k %                 3X3X3X3X",
"        b Z Z Z W ' ' ' o.3.3.3.g.!.!.!.!.!.!.!.!.m.l.l.l./.2X2X2X~.2.2.2.V.2X2X2X2X2X2X2X2XV.2.2.2.g                 3X3X3X3X",
"3X3X3X3X        v ' ' ' ' ' ' ' y.!.!.!.!.!.!.!.!.=X2X2X2X2X2X2X2X2X2X2X2X2X2X2X2X2X2X2X2X2X2X2X2X2Xf.        3X3X3X3X3X3X3X3X",
"3X3X3X3X        v ' ' ' ' ' ' ' y.!.!.!.!.!.!.!.!.=X2X2X2X2X2X2X2X2X2X2X2X2X2X2X2X2X2X2X2X2X2X2X2X2Xf.        3X3X3X3X3X3X3X3X",
"3X3X3X3X        v ' ' ' ' ' ' ' y.!.!.!.!.!.!.!.!.=X2X2X2X2X2X2X2X2X2X2X2X2X2X2X2X2X2X2X2X2X2X2X2X2Xf.        3X3X3X3X3X3X3X3X",
"3X3X3X3X        c Q Q Q ~ ' ' ' 8.E.E.E.E.E.E.E.E.*X;X;X;X1X2X2X2X2X2X2X2X2X2X2X2X2X2X2X2X2X<X;X;X;Xd.        3X3X3X3X3X3X3X3X",
"3X3X3X3X3X3X3X3X        0 ' ' ' ' ' ' ' ' ' ' ' ' I.!.!.!._.2X2X2X2X2X2X2X2X2X2X2X2X2X2X2X2X(.!.!.!.<.        3X3X3X3X3X3X3X3X",
"3X3X3X3X3X3X3X3X        0 ' ' ' ' ' ' ' ' ' ' ' ' I.!.!.!._.2X2X2X2X2X2X2X2X2X2X2X2X2X2X2X2X(.!.!.!.<.        3X3X3X3X3X3X3X3X",
"3X3X3X3X3X3X3X3X        0 ' ' ' ' ' ' ' ' ' ' ' ' I.!.!.!._.2X2X2X2X2X2X2X2X2X2X2X2X2X2X2X2X(.!.!.!.<.        3X3X3X3X3X3X3X3X",
"3X3X3X3X3X3X3X3X        0 ' ' ' ' ' ' ' ' ' ' ' ' I.!.!.!._.2X2X2X2X2X2X2X2X2X2X2X2X2X2X2X2X(.!.!.!.<.        3X3X3X3X3X3X3X3X",
"3X3X3X3X3X3X3X3X        0 ' ' ' | w.w.w.w.w.w.w.w.i.a.a.a.L.^.^.^.^.^.^.^.^.^.^.^.^.^.^.^.^.L , , , 3X3X3X3X3X3X3X3X3X3X3X3X3X",
"3X3X3X3X3X3X3X3X        0 ' ' '  .t.t.t.t.t.t.t.t.t.t.t.t.J.!.!.!.!.!.!.!.!.!.!.!.!.!.!.!.!.M       3X3X3X3X3X3X3X3X3X3X3X3X3X",
"3X3X3X3X3X3X3X3X        0 ' ' '  .t.t.t.t.t.t.t.t.t.t.t.t.J.!.!.!.!.!.!.!.!.!.!.!.!.!.!.!.!.M       3X3X3X3X3X3X3X3X3X3X3X3X3X",
"3X3X3X3X3X3X3X3X        0 ' ' '  .t.t.t.t.t.t.t.t.t.t.t.t.J.!.!.!.!.!.!.!.!.!.!.!.!.!.!.!.!.M       3X3X3X3X3X3X3X3X3X3X3X3X3X",
"3X3X3X3X3X3X3X3X        l 3.3.3.4.t.t.t.t.t.t.t.t.t.t.t.t.F.$X$X$X$X$X$X$X$X$X$X$X$XK K K K @       3X3X3X3X3X3X3X3X3X3X3X3X3X",
"3X3X3X3X3X3X3X3X        x t.t.t.t.t.t.t.t.t.t.t.t.t.t.t.t.D.+X+X+X+X+X+X+X+X+X+X+X+X                3X3X3X3X3X3X3X3X3X3X3X3X3X",
"3X3X3X3X3X3X3X3X        x t.t.t.t.t.t.t.t.t.t.t.t.t.t.t.t.D.+X+X+X+X+X+X+X+X+X+X+X+X                3X3X3X3X3X3X3X3X3X3X3X3X3X",
"3X3X3X3X3X3X3X3X        x t.t.t.t.t.t.t.t.t.t.t.t.t.t.t.t.D.+X+X+X+X+X+X+X+X+X+X+X+X                3X3X3X3X3X3X3X3X3X3X3X3X3X",
"3X3X3X3X3X3X3X3X        x t.t.t.t.t.t.t.t.t.t.t.t.*.#.#.#.S.+X+X+X&X>X>X>X>X>X>X>X>Xk.k.k.k.4       3X3X3X3X3X3X3X3X3X3X3X3X3X",
"3X3X3X3X3X3X3X3X        x t.t.t.t.t.t.t.t.t.t.t.t. .' ' ' A.+X+X+X:X,X,X,X,X,X,X,X,X!.!.!.!.M       3X3X3X3X3X3X3X3X3X3X3X3X3X",
"3X3X3X3X3X3X3X3X        x t.t.t.t.t.t.t.t.t.t.t.t. .' ' ' A.+X+X+X:X,X,X,X,X,X,X,X,X!.!.!.!.M       3X3X3X3X3X3X3X3X3X3X3X3X3X",
"3X3X3X3X3X3X3X3X        x t.t.t.t.t.t.t.t.t.t.t.t. .' ' ' A.+X+X+X:X,X,X,X,X,X,X,X,X!.!.!.!.M       3X3X3X3X3X3X3X3X3X3X3X3X3X",
"3X3X3X3X3X3X3X3X3X      e R R R >.K.K.K.K.K.K.K.K.1.' ' ' Z.@X@X@X#X%X%X%X%X%X%X%X%XG.G.G.G.h       3X3X3X3X3X3X3X3X3X3X3X3X3X",
"3X3X3X3X3X3X3X3X3X3X3X3X3X      J 2X2X2X2X2X2X2X2Xs.' ' ' N.OXOXOXOXOXOXOXOXOXOXOXOXOXOXOXOX^       3X3X3X3X3X3X3X3X3X3X3X3X3X",
"3X3X3X3X3X3X3X3X3X3X3X3X3X      J 2X2X2X2X2X2X2X2Xs.' ' ' N.OXOXOXOXOXOXOXOXOXOXOXOXOXOXOXOX^       3X3X3X3X3X3X3X3X3X3X3X3X3X",
"3X3X3X3X3X3X3X3X3X3X3X3X3X      J 2X2X2X2X2X2X2X2Xs.' ' ' N.OXOXOXOXOXOXOXOXOXOXOXOXOXOXOXOX^       3X3X3X3X3X3X3X3X3X3X3X3X3X",
"3X3X3X3X3X3X3X3X3X3X3X3X3X      J 2X2X2X2X2X2X2X2XB._ _ _ ].OXOXOXOXOXOXOXOXOXOXOXOX|.|.|.|.( = = = # 3X3X3X3X3X3X3X3X3X3X3X3X",
"3X3X3X3X3X3X3X3X3X3X3X3X3X      J 2X2X2X2X2X2X2X2X{.'.'.'. XOXOXOXOXOXOXOXOXOXOXOXOX' ' ' ' ' ' ' ' 0         3X3X3X3X3X3X3X3X",
"3X3X3X3X3X3X3X3X3X3X3X3X3X      J 2X2X2X2X2X2X2X2X{.'.'.'. XOXOXOXOXOXOXOXOXOXOXOXOX' ' ' ' ' ' ' ' 0         3X3X3X3X3X3X3X3X",
"3X3X3X3X3X3X3X3X3X3X3X3X3X      J 2X2X2X2X2X2X2X2X{.'.'.'. XOXOXOXOXOXOXOXOXOXOXOXOX' ' ' ' ' ' ' ' 0         3X3X3X3X3X3X3X3X",
"3X3X3X3X3X3X3X3X3X3X3X3X3X      H -X-X-X-X-X-X-X-X[.'.'.'.}..X.X.X.X.X.X.XXXoXoXoXoX' ' ' ' ' ' ' ' 0         3X3X3X3X3X3X3X3X",
"3X3X3X3X3X3X3X3X3X3X3X3X3X      d '.'.'.'.'.'.'.'.'.'.'.'.)               * ' ' ' ' ' ' ' ' ' ' ' ' 0         3X3X3X3X3X3X3X3X",
"3X3X3X3X3X3X3X3X3X3X3X3X3X      d '.'.'.'.'.'.'.'.'.'.'.'.)               * ' ' ' ' ' ' ' ' ' ' ' ' 0         3X3X3X3X3X3X3X3X",
"3X3X3X3X3X3X3X3X3X3X3X3X3X      d '.'.'.'.'.'.'.'.'.'.'.'.)               * ' ' ' ' ' ' ' ' ' ' ' ' 0         3X3X3X3X3X3X3X3X",
"3X3X3X3X3X3X3X3X3X3X3X3X3X      d '.'.'.'.'.'.'.'.'.'.'.'.)               * ' ' ' ' ' ' ' ' ' ' ' ' 0         3X3X3X3X3X3X3X3X",
"3X3X3X3X3X3X3X3X3X3X3X3X3X      d '.'.'.'.'.'.'.'./ u u u 3X3X3X3X3X      . + + + + + + + + + + + + 3X3X3X3X3X3X3X3X3X3X3X3X3X",
"3X3X3X3X3X3X3X3X3X3X3X3X3X      d '.'.'.'.'.'.'.'.d       3X3X3X3X3X                                3X3X3X3X3X3X3X3X3X3X3X3X3X",
"3X3X3X3X3X3X3X3X3X3X3X3X3X      d '.'.'.'.'.'.'.'.d       3X3X3X3X3X                                3X3X3X3X3X3X3X3X3X3X3X3X3X",
"3X3X3X3X3X3X3X3X3X3X3X3X3X      d '.'.'.'.'.'.'.'.d       3X3X3X3X3X                                3X3X3X3X3X3X3X3X3X3X3X3X3X",
"3X3X3X3X3X3X3X3X3X      5 N N N S ` ` ` ` '.'.'.'.d       ; 3X3X3X3X> > > > > > > > > > > > > > > > 3X3X3X3X3X3X3X3X3X3X3X3X3X",
"3X3X3X3X3X3X3X3X        0 ' ' ' ' ' ' ' ' '.'.'.'.d       : f f f f f f f f f f f f f f f f f f f f f f f f 3X3X3X3X3X3X3X3X3X",
"3X3X3X3X3X3X3X3X        0 ' ' ' ' ' ' ' ' '.'.'.'.d       : f f f f f f f f f f f f f f f f f f f f f f f f 3X3X3X3X3X3X3X3X3X",
"3X3X3X3X3X3X3X3X        0 ' ' ' ' ' ' ' ' '.'.'.'.d       : f f f f f f f f f f f f f f f f f f f f f f f f 3X3X3X3X3X3X3X3X3X",
"3X3X3X3X3X3X3X3XX       0 ' ' ' ' ' ' ' ' M.M.M.M.i ; ; ; a f f f f f f f f f f f f f f f f f f f f f f f f 3X3X3X3X3X3X3X3X3X",
"3X3X3X3X3Xf f f O       0 ' ' ' ' ' ' ' '         p f f f f f f f f f f f f f f f f f f f f f f f f f f f f f f f f 3X3X3X3X3X",
"3X3X3X3X3Xf f f O       0 ' ' ' ' ' ' ' '         p f f f f f f f f f f f f f f f f f f f f f f f f f f f f f f f f 3X3X3X3X3X",
"3X3X3X3X3Xf f f O       0 ' ' ' ' ' ' ' '         p f f f f f f f f f f f f f f f f f f f f f f f f f f f f f f f f 3X3X3X3X3X",
"3X3X3X3X3Xf f f : o o o 8 E E E E E E E E o o o o s f f f f f f f f f f f f f f f f f f f f f f f f f f f f f f f f 3X3X3X3X3X",
"3X3X3X3X3Xf f f f f f f f f f f f f f f f f f f f f f f f f f f f f f f f f f f f f f f f f f f f f f f f f f f f f 3X3X3X3X3X",
"3X3X3X3X3Xf f f f f f f f f f f f f f f f f f f f f f f f f f f f f f f f f f f f f f f f f f f f f f f f f f f f f 3X3X3X3X3X",
"3X3X3X3X3Xf f f f f f f f f f f f f f f f f f f f f f f f f f f f f f f f f f f f f f f f f f f f f f f f f f f f f 3X3X3X3X3X",
"3X3X3X3X3X3X3X3X3Xf f f f f f f f f f f f f f f f f f f f f f f f f f f f f f f f f f f f f f f f f f f f f 3X3X3X3X3X3X3X3X3X",
"3X3X3X3X3X3X3X3X3Xf f f f f f f f f f f f f f f f f f f f f f f f f f f f f f f f f f f f f f f f f f f f f 3X3X3X3X3X3X3X3X3X",
"3X3X3X3X3X3X3X3X3Xf f f f f f f f f f f f f f f f f f f f f f f f f f f f f f f f f f f f f f f f f f f f f 3X3X3X3X3X3X3X3X3X",
"3X3X3X3X3X3X3X3X3Xf f f f f f f f f f f f f f f f f f f f f f f f f f f f f f f f f f f f f f f f f f f f f 3X3X3X3X3X3X3X3X3X",
"3X3X3X3X3X3X3X3X3Xf f f f f f f f f f f f f f f f f f f f f f f f f f f f f f f f f f f f f f f f f f f f f 3X3X3X3X3X3X3X3X3X"
};
