/* XPM */
static char *PIN3[] = {
/* columns rows colors chars-per-pixel */
"62 96 103 2 ",
"   c black",
".  c #030201",
"X  c #010203",
"o  c #030306",
"O  c #030406",
"+  c #0B0704",
"@  c #0C0805",
"#  c #0D0805",
"$  c #0D0905",
"%  c #0E0905",
"&  c #0F0905",
"*  c #0F0A06",
"=  c #040509",
"-  c #05060B",
";  c #07080F",
":  c #110B06",
">  c #110B07",
",  c #110C07",
"<  c #170E08",
"1  c #1A1009",
"2  c #1E120B",
"3  c #080A11",
"4  c #0C0E19",
"5  c #1E1514",
"6  c #20150D",
"7  c #23170E",
"8  c #24160D",
"9  c #24170E",
"0  c #26170E",
"q  c #24180F",
"w  c #27180E",
"e  c #241916",
"r  c #281B10",
"t  c #2B1A10",
"y  c #2C1B10",
"u  c #2B1D11",
"i  c #2A1C18",
"p  c #301F13",
"a  c #331F12",
"s  c #362113",
"d  c #342315",
"f  c #372315",
"g  c #362416",
"h  c #3C2818",
"j  c #3F2A19",
"k  c #0D1C39",
"l  c #402717",
"z  c #412817",
"x  c #422A19",
"c  c #442A19",
"v  c #452B19",
"b  c #442C1A",
"n  c #462C1A",
"m  c #492F1C",
"M  c #4B301D",
"N  c #4E321E",
"B  c #4E331E",
"V  c #50341F",
"C  c #443126",
"Z  c #473326",
"A  c #4F392B",
"S  c #503620",
"D  c #523621",
"F  c #533721",
"G  c #523523",
"H  c #543822",
"J  c #553822",
"K  c #553922",
"L  c #563922",
"P  c #573A23",
"I  c #563825",
"U  c #5A3C28",
"Y  c #61412D",
"T  c #604330",
"R  c #664531",
"E  c #6B4933",
"W  c #765238",
"Q  c #79543A",
"!  c #1E2740",
"~  c #112853",
"^  c #122955",
"/  c #27355B",
"(  c #2B385C",
")  c #142E60",
"_  c #17366E",
"`  c #3E4D76",
"'  c #775540",
"]  c #49547C",
"[  c #8A6146",
"{  c #8A624A",
"}  c #9B6E52",
"|  c #A27357",
" . c #A57659",
".. c #A9795B",
"X. c #AC7B5D",
"o. c #1D438A",
"O. c #224F95",
"+. c #2658A4",
"@. c #285CAA",
"#. c #295EAC",
"$. c #2B62B2",
"%. c #2C65B5",
"&. c None",
/* pixels */
"&.&.&.&.&.&.&.&.&.&.&.&.&.&.&.&.&.&.&.                    &.&.&.&.                                      &.&.&.&.&.&.&.&.&.&.",
"&.&.&.&.&.&.&.&.&.&.&.&.&.&.&.&.&.&.&.                    &.&.&.&.                                      &.&.&.&.&.&.&.&.&.&.",
"&.&.&.&.&.&.&.&.&.&.&.&.&.&.&.&.&.&.&.                    &.&.&.&.                                      &.&.&.&.&.&.&.&.&.&.",
"&.&.&.&.&.&.&.&.&.&.&.&.&.&.&.&.&.&.&.                    &.&.&.&.                                      &.&.&.&.&.&.&.&.&.&.",
"&.&.&.&.&.&.&.&.&.&.&.&.&.&.&.&.&.&.&.        . , , , , * &.&.&.&.+ # # # # > , , , , , , , , @         &.&.&.&.&.&.&.&.&.&.",
"&.&.&.&.&.&.&.&.&.&.                          $ P P P P g         w l l l l F P P P P P P P P h         &.&.&.&.&.&.&.&.&.&.",
"&.&.&.&.&.&.&.&.&.&.                          $ P P P P g         w l l l l F P P P P P P P P h         &.&.&.&.&.&.&.&.&.&.",
"&.&.&.&.&.&.&.&.&.&.                          $ P P P P g         w l l l l F P P P P P P P P h         &.&.&.&.&.&.&.&.&.&.",
"&.&.&.&.&.&.&.&.&.&.                          $ P P P P g         w l l l l F P P P P P P P P h         &.&.&.&.&.&.&.&.&.&.",
"&.&.&.&.&.&.&.&.&.: 1 1 1 1 6 7 7 7 7 7 7 7 7 u P P P P j 1 1 1 1 f m m m m J P P P H d d d d q         &.&.&.&.&.&.&.&.&.&.",
"&.&.&.&.&.        2 l l l l V P P P P P P P P P P P P P B l l l l B P P P P P P P P S                   &.&.&.&.&.&.&.&.&.&.",
"&.&.&.&.&.        2 l l l l V P P P P P P P P P P P P P B l l l l B P P P P P P P P S                   &.&.&.&.&.&.&.&.&.&.",
"&.&.&.&.&.        2 l l l l V P P P P P P P P P P P P P B l l l l B P P P P P P P P S                   &.&.&.&.&.&.&.&.&.&.",
"&.&.&.&.&.        2 l l l l V P P P P P P P P P P P P P B l l l l B P P P P P P P P S                   &.&.&.&.&.&.&.&.&.&.",
"&.&.&.&.&.        9 N N N N H P P P P P P P P P P P P P F N N N N F P P P P P P P P H d d d d p 0 0 0 0 <         &.&.&.&.&.",
"&.&.&.&.&.        r P P P P P P P P P P P P P P P P P P P P P P P P P P P P P P P P P P P P P V l l l l 2         &.&.&.&.&.",
"&.&.&.&.&.        r P P P P P P P P P P P P P P P P P P P P P P P P P P P P P P P P P P P P P V l l l l 2         &.&.&.&.&.",
"&.&.&.&.&.        r P P P P P P P P P P P P P P P P P P P P P P P P P P P P P P P P P P P P P V l l l l 2         &.&.&.&.&.",
"&.&.&.&.&.        r P P P P P P P P P P P P P P P P P P P P P P P P P P P P P P P P P P P P P V l l l l 2         &.&.&.&.&.",
"        % a a a a b P P P P P P P P P P P P P P P P P P P P P P P P P P P P P P P P P P P P P L D D D D x a a a a %         ",
"        & l l l l M P P P P P P P P P P P P P P P P P P P P P P P P P P P P P P P P P P P P P P P P P P M l l l l &         ",
"        & l l l l M P P P P P P P P P P P P P P P P P P P P P P P P P P P P P P P P P P P P P P P P P P M l l l l &         ",
"        & l l l l M P P P P P P P P P P P P P P P P P P P P P P P P P P P P P P P P P P P P P P P P P P M l l l l &         ",
"        & l l l l M P P P P P P P P P P P P P P P P P P P P P P P P P P P P P P P P P P P P P P P P P P M l l l l &         ",
"        & l l l l M P P P P P P P P P P P P P P P P P P P P P P P P P P P P P P P P P P P P P P P P P P M l l l l &         ",
"        & l l l l M P P P P P P P P P P P P P P P P P P P P P P P P P P P P P P P P P P P P P P P P P P M l l l l &         ",
"        & l l l l M P P P P P P P P P P P P P P P P P P P P P P P P P P P P P P P P P P P P P P P P P P M l l l l &         ",
"        & l l l l M P P P P P P P P P P P P P P P P P P P P P P P P P P P P P P P P P P P P P P P P P P M l l l l &         ",
"        & l l l l M P P P P P P P P P P P P P P P P P P P P P P P P P P P P P P P P P P P P P P P P P P M l l l l &         ",
"        & l l l l M P P P P P P P P P P P P P P P P P P P P P P P P P P P P P P P P P P P P P P P P P P M l l l l &         ",
"        & l l l l M P P P P P P P P P P P P P P P P P P P P P P P P P P P P P P P P P P P P P P P P P P M l l l l &         ",
"        & l l l l M P P P P P P P P P P P P P P P P P P P P P P P P P P P P P P P P P P P P P P P P P P M l l l l &         ",
"        & l l l l M P P P P P P P P P P P P P P P P P P P P P P P P P P P P P P P P P P P P P P P P P P M l l l l &         ",
"        & l l l l n N N N N H P P P P P P P P P P P P P P P P P P P P P P P P P P P P P P P P H N N N N n l l l l &         ",
"        & l l l l l l l l l V P P P P P P P P P P P P P P P P P P P P P P P P P P P P P P P P V l l l l l l l l l &         ",
"        & l l l l l l l l l V P P P P P P P P P P P P P P P P P P P P P P P P P P P P P P P P V l l l l l l l l l &         ",
"        & l l l l l l l l l V P P P P P P P P P P P P P P P P P P P P P P P P P P P P P P P P V l l l l l l l l l &         ",
"        & l l l l l l l l l V P P P P P P P P P P P P P P P P P P P P P P P P P P P P P P P P V l l l l l l l l l &         ",
"&.&.&.&.+ 1 1 1 1 t l l l l n m m m m m m m m M P P P P P P P P P P P P P P M m m m m m m m m n l l l l l l l l l &         ",
"&.&.&.&.&.        2 l l l l l l l l l l l l l c P P P P P P P P P P P P P P c l l l l l l l l l l l l l l l l l l &         ",
"&.&.&.&.&.        2 l l l l l l l l l l l l l c P P P P P P P P P P P P P P c l l l l l l l l l l l l l l l l l l &         ",
"&.&.&.&.&.        2 l l l l l l l l l l l l l c P P P P P P P P P P P P P P c l l l l l l l l l l l l l l l l l l &         ",
"&.&.&.&.&.        2 l l l l l l l l l l l l l c P P P P P P P P P P P P P P c l l l l l l l l l l l l l l l l l l &         ",
"&.&.&.&.&.        2 l l l l l l l l l l l l l z v v v v v v v v v v v v v v z l l l l l l l l l l l l l 8 # # # # &.&.&.&.&.",
"&.&.&.&.&.        2 l l l l l l l l l l l l l l l l l l l l l l l l l l l l l l l l l l l l l l l l l l 2         &.&.&.&.&.",
"&.&.&.&.&.        2 l l l l l l l l l l l l l l l l l l l l l l l l l l l l l l l l l l l l l l l l l l 2         &.&.&.&.&.",
"&.&.&.&.&.        2 l l l l l l l l l l l l l l l l l l l l l l l l l l l l l l l l l l l l l l l l l l 2         &.&.&.&.&.",
"&.&.&.&.&.        2 l l l l l l l l l l l l l l l l l l l l l l l l l l l l l l l l l l l l l l l l l l 2         &.&.&.&.&.",
"&.&.&.&.&.        A X.X.X.X.Y l l l l l l l l l l l l l l l l l l l l l l l l l l l l l l l l Y X.X.X.X.A         &.&.&.&.&.",
"&.&.&.&.&.        A X.X.X.X.Y l l l l l l l l l l l l l l l l l l l l l l l l l l l l l l l l Y X.X.X.X.A         &.&.&.&.&.",
"&.&.&.&.&.        A X.X.X.X.Y l l l l l l l l l l l l l l l l l l l l l l l l l l l l l l l l Y X.X.X.X.A         &.&.&.&.&.",
"&.&.&.&.&.        A X.X.X.X.Y l l l l l l l l l l l l l l l l l l l l l l l l l l l l l l l l Y X.X.X.X.A         &.&.&.&.&.",
"&.&.&.&.&.        Z { { { { R I I I I I I I I G l l l l l l l l l l l l l l G I I I I I I I I R { { { { Z         &.&.&.&.&.",
"&.&.&.&.&.&.&.&.&.&.        ' X.X.X.X.X.X.X.X.} l l l l l l l l l l l l l l } X.X.X.X.X.X.X.X.'         &.&.&.&.&.&.&.&.&.&.",
"&.&.&.&.&.&.&.&.&.&.        ' X.X.X.X.X.X.X.X.} l l l l l l l l l l l l l l } X.X.X.X.X.X.X.X.'         &.&.&.&.&.&.&.&.&.&.",
"&.&.&.&.&.&.&.&.&.&.        ' X.X.X.X.X.X.X.X.} l l l l l l l l l l l l l l } X.X.X.X.X.X.X.X.'         &.&.&.&.&.&.&.&.&.&.",
"&.&.&.&.&.&.&.&.&.&.        ' X.X.X.X.X.X.X.X.} l l l l l l l l l l l l l l } X.X.X.X.X.X.X.X.'         &.&.&.&.&.&.&.&.&.&.",
"&.&.&.&.&.&.&.&.&.&.        T [ [ [ [ ..X.X.X.| E E E E E E E E E E E E E E | X.X.X...[ [ [ [ T         &.&.&.&.&.&.&.&.&.&.",
"&.&.&.&.&.&.&.&.&.&.        h P P P P  .X.X.X.X.X.X.X.X.X.X.X.X.X.X.X.X.X.X.X.X.X.X. .P P P P h         &.&.&.&.&.&.&.&.&.&.",
"&.&.&.&.&.&.&.&.&.&.        h P P P P  .X.X.X.X.X.X.X.X.X.X.X.X.X.X.X.X.X.X.X.X.X.X. .P P P P h         &.&.&.&.&.&.&.&.&.&.",
"&.&.&.&.&.&.&.&.&.&.        h P P P P  .X.X.X.X.X.X.X.X.X.X.X.X.X.X.X.X.X.X.X.X.X.X. .P P P P h         &.&.&.&.&.&.&.&.&.&.",
"&.&.&.&.&.&.&.&.&.&.        h P P P P  .X.X.X.X.X.X.X.X.X.X.X.X.X.X.X.X.X.X.X.X.X.X. .P P P P h         &.&.&.&.&.&.&.&.&.&.",
"&.&.&.&.&.&.&.&.&.&.        h P P P P W Q Q Q Q Q Q Q Q Q Q Q Q Q Q Q Q Q Q Q Q Q Q W P P P P h         &.&.&.&.&.&.&.&.&.&.",
"&.&.&.&.&.&.&.&.&.&.        h P P P P P P P P P P P P P P P P P P P P P P P P P P P P P P P P h         &.&.&.&.&.&.&.&.&.&.",
"&.&.&.&.&.&.&.&.&.&.        h P P P P P P P P P P P P P P P P P P P P P P P P P P P P P P P P h         &.&.&.&.&.&.&.&.&.&.",
"&.&.&.&.&.&.&.&.&.&.        h P P P P P P P P P P P P P P P P P P P P P P P P P P P P P P P P h         &.&.&.&.&.&.&.&.&.&.",
"&.&.&.&.&.&.&.&.&.&.        h P P P P P P P P P P P P P P P P P P P P P P P P P P P P P P P P h         &.&.&.&.&.&.&.&.&.&.",
"&.&.&.&.&.        Z { { { { U v v v v L P P P P P P P P P P P P P P P P P P P P P P L v v v v U { { { { Z         &.&.&.&.&.",
"&.&.&.&.&.        A X.X.X.X.Y l l l l K P P P P P P P P P P P P P P P P P P P P P P K l l l l Y X.X.X.X.A         &.&.&.&.&.",
"&.&.&.&.&.        A X.X.X.X.Y l l l l K P P P P P P P P P P P P P P P P P P P P P P K l l l l Y X.X.X.X.A         &.&.&.&.&.",
"&.&.&.&.&.        A X.X.X.X.Y l l l l K P P P P P P P P P P P P P P P P P P P P P P K l l l l Y X.X.X.X.A         &.&.&.&.&.",
"&.&.&.&.&.        A X.X.X.X.Y l l l l K P P P P P P P P P P P P P P P P P P P P P P K l l l l Y X.X.X.X.A         &.&.&.&.&.",
"&.&.&.&.&.        A X.X.X.X.] o.o.o.o.$.%.%.%.%.%.%.%.%.+.o.o.o.o.+.%.%.%.%.%.%.%.%.$.o.o.o.o.] X.X.X.X.A         &.&.&.&.&.",
"&.&.&.&.&.        A X.X.X.X.] o.o.o.o.$.%.%.%.%.%.%.%.%.+.o.o.o.o.+.%.%.%.%.%.%.%.%.$.o.o.o.o.] X.X.X.X.A         &.&.&.&.&.",
"&.&.&.&.&.        A X.X.X.X.] o.o.o.o.$.%.%.%.%.%.%.%.%.+.o.o.o.o.+.%.%.%.%.%.%.%.%.$.o.o.o.o.] X.X.X.X.A         &.&.&.&.&.",
"&.&.&.&.&.        A X.X.X.X.] o.o.o.o.$.%.%.%.%.%.%.%.%.+.o.o.o.o.+.%.%.%.%.%.%.%.%.$.o.o.o.o.] X.X.X.X.A         &.&.&.&.&.",
"&.&.&.&.&.X X X X C { { { { ` o.o.o.o.@.#.#.#.#.#.#.#.#.O._ _ _ _ O.#.#.#.#.#.#.#.#.@.o.o.o.o.` { { { { C X X X X &.&.&.&.&.",
"&.&.&.&.&.4 4 4 4 =         ) o.o.o.o.o.o.o.o.o.o.o.o.o.^         ^ o.o.o.o.o.o.o.o.o.o.o.o.o.)         = 4 4 4 4 &.&.&.&.&.",
"&.&.&.&.&.4 4 4 4 =         ) o.o.o.o.o.o.o.o.o.o.o.o.o.^         ^ o.o.o.o.o.o.o.o.o.o.o.o.o.)         = 4 4 4 4 &.&.&.&.&.",
"&.&.&.&.&.4 4 4 4 =         ) o.o.o.o.o.o.o.o.o.o.o.o.o.^         ^ o.o.o.o.o.o.o.o.o.o.o.o.o.)         = 4 4 4 4 &.&.&.&.&.",
"&.&.&.&.&.4 4 4 4 =         ) o.o.o.o.o.o.o.o.o.o.o.o.o.^         ^ o.o.o.o.o.o.o.o.o.o.o.o.o.)         = 4 4 4 4 &.&.&.&.&.",
"&.&.&.&.&.4 4 4 4 =         ! ( ( ( ( ( ( ( ( / ~ ~ ~ ~ k O O O O k ~ ~ ~ ~ / ( ( ( ( ( ( ( ( !         = 4 4 4 4 &.&.&.&.&.",
"4 4 4 4 4 4 4 4 4 =         y l l l l l l l l s         o 4 4 4 4 o         s l l l l l l l l y         = 4 4 4 4 4 4 4 4 4 ",
"4 4 4 4 4 4 4 4 4 =         y l l l l l l l l s         o 4 4 4 4 o         s l l l l l l l l y         = 4 4 4 4 4 4 4 4 4 ",
"4 4 4 4 4 4 4 4 4 =         y l l l l l l l l s         o 4 4 4 4 o         s l l l l l l l l y         = 4 4 4 4 4 4 4 4 4 ",
"4 4 4 4 4 4 4 4 4 =         y l l l l l l l l s         o 4 4 4 4 o         s l l l l l l l l y         = 4 4 4 4 4 4 4 4 4 ",
"4 4 4 4 4 4 4 4 4 3 - - - - 5 i i i i i i i i e - - - - ; 4 4 4 4 ; - - - - e i i i i i i i i 5 - - - - 3 4 4 4 4 4 4 4 4 4 ",
"4 4 4 4 4 4 4 4 4 4 4 4 4 4 4 4 4 4 4 4 4 4 4 4 4 4 4 4 4 4 4 4 4 4 4 4 4 4 4 4 4 4 4 4 4 4 4 4 4 4 4 4 4 4 4 4 4 4 4 4 4 4 ",
"4 4 4 4 4 4 4 4 4 4 4 4 4 4 4 4 4 4 4 4 4 4 4 4 4 4 4 4 4 4 4 4 4 4 4 4 4 4 4 4 4 4 4 4 4 4 4 4 4 4 4 4 4 4 4 4 4 4 4 4 4 4 ",
"4 4 4 4 4 4 4 4 4 4 4 4 4 4 4 4 4 4 4 4 4 4 4 4 4 4 4 4 4 4 4 4 4 4 4 4 4 4 4 4 4 4 4 4 4 4 4 4 4 4 4 4 4 4 4 4 4 4 4 4 4 4 ",
"4 4 4 4 4 4 4 4 4 4 4 4 4 4 4 4 4 4 4 4 4 4 4 4 4 4 4 4 4 4 4 4 4 4 4 4 4 4 4 4 4 4 4 4 4 4 4 4 4 4 4 4 4 4 4 4 4 4 4 4 4 4 ",
"&.&.&.&.&.4 4 4 4 4 4 4 4 4 4 4 4 4 4 4 4 4 4 4 4 4 4 4 4 4 4 4 4 4 4 4 4 4 4 4 4 4 4 4 4 4 4 4 4 4 4 4 4 4 4 4 4 &.&.&.&.&.",
"&.&.&.&.&.4 4 4 4 4 4 4 4 4 4 4 4 4 4 4 4 4 4 4 4 4 4 4 4 4 4 4 4 4 4 4 4 4 4 4 4 4 4 4 4 4 4 4 4 4 4 4 4 4 4 4 4 &.&.&.&.&.",
"&.&.&.&.&.4 4 4 4 4 4 4 4 4 4 4 4 4 4 4 4 4 4 4 4 4 4 4 4 4 4 4 4 4 4 4 4 4 4 4 4 4 4 4 4 4 4 4 4 4 4 4 4 4 4 4 4 &.&.&.&.&.",
"&.&.&.&.&.4 4 4 4 4 4 4 4 4 4 4 4 4 4 4 4 4 4 4 4 4 4 4 4 4 4 4 4 4 4 4 4 4 4 4 4 4 4 4 4 4 4 4 4 4 4 4 4 4 4 4 4 &.&.&.&.&.",
"&.&.&.&.&.4 4 4 4 4 4 4 4 4 4 4 4 4 4 4 4 4 4 4 4 4 4 4 4 4 4 4 4 4 4 4 4 4 4 4 4 4 4 4 4 4 4 4 4 4 4 4 4 4 4 4 4 &.&.&.&.&."
};
