/* XPM */
static char *ground2[] = {
/* columns rows colors chars-per-pixel */
"96 96 5 1 ",
"  c #65A556",
". c #E38628",
"X c #FDBE53",
"o c #84C669",
"O c white",
/* pixels */
"oooooooooooooooooooooooooooooooooooooooooooooooooooooooooooooooooooooooooooooooooooooooooooooooo",
"oooooooooooooooooooooooooooooooooooooooooooooooooooooooooooooooooooooooooooooooooooooooooooooooo",
"oooooooooooooooooooooooooooooooooooooooooooooooooooooooooooooooooooooooooooooooooooooooooooooooo",
"oooooooooooooooooooooooooooooooooooooooooooooooooooooooooooooooooooooooooooooooooooooooooooooooo",
"oooooooooooooooooooooooooooooooooooooooooooooooooooooooooooooooooooooooooooooooooooooooooooooooo",
"oooooooooooooooooooooooooooooooooooooooooooooooooooooooooooooooooooooooooooooooooooooooooooooooo",
"ooooooooooooooooooXXXXXXXXXXXXoooooooooooooooooooooooooooooooooooooooooo      oooooo      oooooo",
"ooooooooooooooooooXXXXXXXXXXXXoooooooooooooooooooooooooooooooooooooooooo      oooooo      oooooo",
"ooooooooooooooooooXXXXXXXXXXXXoooooooooooooooooooooooooooooooooooooooooo      oooooo      oooooo",
"ooooooooooooooooooXXXXXXXXXXXXoooooooooooooooooooooooooooooooooooooooooo      oooooo      oooooo",
"ooooooooooooooooooXXXXXXXXXXXXoooooooooooooooooooooooooooooooooooooooooo      oooooo      oooooo",
"ooooooooooooooooooXXXXXXXXXXXXoooooooooooooooooooooooooooooooooooooooooo      oooooo      oooooo",
"oooooooooooo......XXXXXXXXXXXX......oooooooooooooooooooooooooooooooooooooooooo      oooooooooooo",
"oooooooooooo......XXXXXXXXXXXX......oooooooooooooooooooooooooooooooooooooooooo      oooooooooooo",
"oooooooooooo......XXXXXXXXXXXX......oooooooooooooooooooooooooooooooooooooooooo      oooooooooooo",
"oooooooooooo......XXXXXXXXXXXX......oooooooooooooooooooooooooooooooooooooooooo      oooooooooooo",
"oooooooooooo......XXXXXXXXXXXX......oooooooooooooooooooooooooooooooooooooooooo      oooooooooooo",
"oooooooooooo......XXXXXXXXXXXX......oooooooooooooooooooooooooooooooooooooooooo      oooooooooooo",
"ooooooXXXXXXXXXXXXOOOOOOOOOOOOXXXXXXXXXXXXoooooooooooooooooooooooooooooooooooooooooooooooooooooo",
"ooooooXXXXXXXXXXXXOOOOOOOOOOOOXXXXXXXXXXXXoooooooooooooooooooooooooooooooooooooooooooooooooooooo",
"ooooooXXXXXXXXXXXXOOOOOOOOOOOOXXXXXXXXXXXXoooooooooooooooooooooooooooooooooooooooooooooooooooooo",
"ooooooXXXXXXXXXXXXOOOOOOOOOOOOXXXXXXXXXXXXoooooooooooooooooooooooooooooooooooooooooooooooooooooo",
"ooooooXXXXXXXXXXXXOOOOOOOOOOOOXXXXXXXXXXXXoooooooooooooooooooooooooooooooooooooooooooooooooooooo",
"ooooooXXXXXXXXXXXXOOOOOOOOOOOOXXXXXXXXXXXXoooooooooooooooooooooooooooooooooooooooooooooooooooooo",
"ooooooXXXXXXXXXXXXOOOOOOOOOOOOXXXXXXXXXXXXoooooooooooooooooooooooooooooooooooooooooooooooooooooo",
"ooooooXXXXXXXXXXXXOOOOOOOOOOOOXXXXXXXXXXXXoooooooooooooooooooooooooooooooooooooooooooooooooooooo",
"ooooooXXXXXXXXXXXXOOOOOOOOOOOOXXXXXXXXXXXXoooooooooooooooooooooooooooooooooooooooooooooooooooooo",
"ooooooXXXXXXXXXXXXOOOOOOOOOOOOXXXXXXXXXXXXoooooooooooooooooooooooooooooooooooooooooooooooooooooo",
"ooooooXXXXXXXXXXXXOOOOOOOOOOOOXXXXXXXXXXXXoooooooooooooooooooooooooooooooooooooooooooooooooooooo",
"ooooooXXXXXXXXXXXXOOOOOOOOOOOOXXXXXXXXXXXXoooooooooooooooooooooooooooooooooooooooooooooooooooooo",
"oooooo      ......XXXXXXXXXXXX......      oooooooooooooooooooooooooooooooooooooooooooooooooooooo",
"oooooo      ......XXXXXXXXXXXX......      oooooooooooooooooooooooooooooooooooooooooooooooooooooo",
"oooooo      ......XXXXXXXXXXXX......      oooooooooooooooooooooooooooooooooooooooooooooooooooooo",
"oooooo      ......XXXXXXXXXXXX......      oooooooooooooooooooooooooooooooooooooooooooooooooooooo",
"oooooo      ......XXXXXXXXXXXX......      oooooooooooooooooooooooooooooooooooooooooooooooooooooo",
"oooooo      ......XXXXXXXXXXXX......      oooooooooooooooooooooooooooooooooooooooooooooooooooooo",
"ooooooooooooooooooXXXXXXXXXXXXoooooooooooooooooooooooooooooooooooooooooooooooooooooooooooooooooo",
"ooooooooooooooooooXXXXXXXXXXXXoooooooooooooooooooooooooooooooooooooooooooooooooooooooooooooooooo",
"ooooooooooooooooooXXXXXXXXXXXXoooooooooooooooooooooooooooooooooooooooooooooooooooooooooooooooooo",
"ooooooooooooooooooXXXXXXXXXXXXoooooooooooooooooooooooooooooooooooooooooooooooooooooooooooooooooo",
"ooooooooooooooooooXXXXXXXXXXXXoooooooooooooooooooooooooooooooooooooooooooooooooooooooooooooooooo",
"ooooooooooooooooooXXXXXXXXXXXXoooooooooooooooooooooooooooooooooooooooooooooooooooooooooooooooooo",
"oooooooooooooooooo            oooooooooooooooooooooooooooooooooooooooooooooooooooooooooooooooooo",
"oooooooooooooooooo            oooooooooooooooooooooooooooooooooooooooooooooooooooooooooooooooooo",
"oooooooooooooooooo            oooooooooooooooooooooooooooooooooooooooooooooooooooooooooooooooooo",
"oooooooooooooooooo            oooooooooooooooooooooooooooooooooooooooooooooooooooooooooooooooooo",
"oooooooooooooooooo            oooooooooooooooooooooooooooooooooooooooooooooooooooooooooooooooooo",
"oooooooooooooooooo            oooooooooooooooooooooooooooooooooooooooooooooooooooooooooooooooooo",
"oooooooooooooooooooooooooooooooooooooooooooooooooooooooooooooooooooooooooooooooooooooooooooooooo",
"oooooooooooooooooooooooooooooooooooooooooooooooooooooooooooooooooooooooooooooooooooooooooooooooo",
"oooooooooooooooooooooooooooooooooooooooooooooooooooooooooooooooooooooooooooooooooooooooooooooooo",
"oooooooooooooooooooooooooooooooooooooooooooooooooooooooooooooooooooooooooooooooooooooooooooooooo",
"oooooooooooooooooooooooooooooooooooooooooooooooooooooooooooooooooooooooooooooooooooooooooooooooo",
"oooooooooooooooooooooooooooooooooooooooooooooooooooooooooooooooooooooooooooooooooooooooooooooooo",
"ooooooooooooooooooooooooooooooooooooooooooooooooooooooooooooooooooXXXXXXXXXXXXoooooooooooooooooo",
"ooooooooooooooooooooooooooooooooooooooooooooooooooooooooooooooooooXXXXXXXXXXXXoooooooooooooooooo",
"ooooooooooooooooooooooooooooooooooooooooooooooooooooooooooooooooooXXXXXXXXXXXXoooooooooooooooooo",
"ooooooooooooooooooooooooooooooooooooooooooooooooooooooooooooooooooXXXXXXXXXXXXoooooooooooooooooo",
"ooooooooooooooooooooooooooooooooooooooooooooooooooooooooooooooooooXXXXXXXXXXXXoooooooooooooooooo",
"ooooooooooooooooooooooooooooooooooooooooooooooooooooooooooooooooooXXXXXXXXXXXXoooooooooooooooooo",
"oooooooooooooooooooooooooooooooooooooooooooooooooooooooooooo......XXXXXXXXXXXX......oooooooooooo",
"oooooooooooooooooooooooooooooooooooooooooooooooooooooooooooo......XXXXXXXXXXXX......oooooooooooo",
"oooooooooooooooooooooooooooooooooooooooooooooooooooooooooooo......XXXXXXXXXXXX......oooooooooooo",
"oooooooooooooooooooooooooooooooooooooooooooooooooooooooooooo......XXXXXXXXXXXX......oooooooooooo",
"oooooooooooooooooooooooooooooooooooooooooooooooooooooooooooo......XXXXXXXXXXXX......oooooooooooo",
"oooooooooooooooooooooooooooooooooooooooooooooooooooooooooooo......XXXXXXXXXXXX......oooooooooooo",
"ooooooooooooooooooooooooooooooooooooooooooooooooooooooXXXXXXXXXXXXOOOOOOOOOOOOXXXXXXXXXXXXoooooo",
"ooooooooooooooooooooooooooooooooooooooooooooooooooooooXXXXXXXXXXXXOOOOOOOOOOOOXXXXXXXXXXXXoooooo",
"ooooooooooooooooooooooooooooooooooooooooooooooooooooooXXXXXXXXXXXXOOOOOOOOOOOOXXXXXXXXXXXXoooooo",
"ooooooooooooooooooooooooooooooooooooooooooooooooooooooXXXXXXXXXXXXOOOOOOOOOOOOXXXXXXXXXXXXoooooo",
"ooooooooooooooooooooooooooooooooooooooooooooooooooooooXXXXXXXXXXXXOOOOOOOOOOOOXXXXXXXXXXXXoooooo",
"ooooooooooooooooooooooooooooooooooooooooooooooooooooooXXXXXXXXXXXXOOOOOOOOOOOOXXXXXXXXXXXXoooooo",
"ooooooooooooooooooooooooooooooooooooooooooooooooooooooXXXXXXXXXXXXOOOOOOOOOOOOXXXXXXXXXXXXoooooo",
"ooooooooooooooooooooooooooooooooooooooooooooooooooooooXXXXXXXXXXXXOOOOOOOOOOOOXXXXXXXXXXXXoooooo",
"ooooooooooooooooooooooooooooooooooooooooooooooooooooooXXXXXXXXXXXXOOOOOOOOOOOOXXXXXXXXXXXXoooooo",
"ooooooooooooooooooooooooooooooooooooooooooooooooooooooXXXXXXXXXXXXOOOOOOOOOOOOXXXXXXXXXXXXoooooo",
"ooooooooooooooooooooooooooooooooooooooooooooooooooooooXXXXXXXXXXXXOOOOOOOOOOOOXXXXXXXXXXXXoooooo",
"ooooooooooooooooooooooooooooooooooooooooooooooooooooooXXXXXXXXXXXXOOOOOOOOOOOOXXXXXXXXXXXXoooooo",
"oooooo      oooooo      oooooooooooooooooooooooooooooo      ......XXXXXXXXXXXX......      oooooo",
"oooooo      oooooo      oooooooooooooooooooooooooooooo      ......XXXXXXXXXXXX......      oooooo",
"oooooo      oooooo      oooooooooooooooooooooooooooooo      ......XXXXXXXXXXXX......      oooooo",
"oooooo      oooooo      oooooooooooooooooooooooooooooo      ......XXXXXXXXXXXX......      oooooo",
"oooooo      oooooo      oooooooooooooooooooooooooooooo      ......XXXXXXXXXXXX......      oooooo",
"oooooo      oooooo      oooooooooooooooooooooooooooooo      ......XXXXXXXXXXXX......      oooooo",
"oooooooooooo      ooooooooooooooooooooooooooooooooooooooooooooooooXXXXXXXXXXXXoooooooooooooooooo",
"oooooooooooo      ooooooooooooooooooooooooooooooooooooooooooooooooXXXXXXXXXXXXoooooooooooooooooo",
"oooooooooooo      ooooooooooooooooooooooooooooooooooooooooooooooooXXXXXXXXXXXXoooooooooooooooooo",
"oooooooooooo      ooooooooooooooooooooooooooooooooooooooooooooooooXXXXXXXXXXXXoooooooooooooooooo",
"oooooooooooo      ooooooooooooooooooooooooooooooooooooooooooooooooXXXXXXXXXXXXoooooooooooooooooo",
"oooooooooooo      ooooooooooooooooooooooooooooooooooooooooooooooooXXXXXXXXXXXXoooooooooooooooooo",
"oooooooooooooooooooooooooooooooooooooooooooooooooooooooooooooooooo            oooooooooooooooooo",
"oooooooooooooooooooooooooooooooooooooooooooooooooooooooooooooooooo            oooooooooooooooooo",
"oooooooooooooooooooooooooooooooooooooooooooooooooooooooooooooooooo            oooooooooooooooooo",
"oooooooooooooooooooooooooooooooooooooooooooooooooooooooooooooooooo            oooooooooooooooooo",
"oooooooooooooooooooooooooooooooooooooooooooooooooooooooooooooooooo            oooooooooooooooooo",
"oooooooooooooooooooooooooooooooooooooooooooooooooooooooooooooooooo            oooooooooooooooooo"
};
