/* XPM */
static char *wall3[] = {
/* columns rows colors chars-per-pixel */
"96 96 7 1 ",
"  c #3F2631",
". c #E84537",
"X c #BD6C4A",
"o c #FF706D",
"O c #EAA56C",
"+ c white",
"@ c None",
/* pixels */
"@@@@@@@@@@@@@@@@@@@@@@@@@@@@@@@@@@@@@@@@@@@@@@@@@@@@@@@@@@@@@@@@@@@@@@@@@@@@@@@@@@@@@@@@@@@@@@@@",
"@@@@@@@@@@@@@@@@@@@@@@@@@@@@@@@@@@@@@@@@@@@@@@@@@@@@@@@@@@@@@@@@@@@@@@@@@@@@@@@@@@@@@@@@@@@@@@@@",
"@@@@@@@@@@@@@@@@@@@@@@@@@@@@@@@@@@@@@@@@@@@@@@@@@@@@@@@@@@@@@@@@@@@@@@@@@@@@@@@@@@@@@@@@@@@@@@@@",
"@@@@@@@@@@@@@@@@@@@@@@@@@@@@@@@@@@@@@@@@@@@@@@@@@@@@@@@@@@@@@@@@@@@@@@@@@@@@@@@@@@@@@@@@@@@@@@@@",
"@@@@@@@@@@@@@@@@@@@@@@@@@@@@@@@@@@@@@@@@@@@@@@@@@@@@@@@@@@@@@@@@@@@@@@@@@@@@@@@@@@@@@@@@@@@@@@@@",
"@@@@@@@@@@@@@@@@@@@@@@@@@@@@@@@@@@@@@@@@@@@@@@@@@@@@@@@@@@@@@@@@@@@@@@@@@@@@@@@@@@@@@@@@@@@@@@@@",
"@@@@@@@@@@@@@@@@@@@@@@@@@@@@@@@@@@@@@@@@@@@@@@@@@@@@@@@@@@@@@@@@@@@@@@@@@@@@@@@@@@@@@@@@@@@@@@@@",
"@@@@@@@@@@@@@@@@@@@@@@@@@@@@@@@@@@@@@@@@@@@@@@@@@@@@@@@@@@@@@@@@@@@@@@@@@@@@@@@@@@@@@@@@@@@@@@@@",
"@@@@@@@@@@@@@@@@@@@@@@@@@@@@@@@@@@@@@@@@@@@@@@@@@@@@@@@@@@@@@@@@@@@@@@@@@@@@@@@@@@@@@@@@@@@@@@@@",
"@@@@@@@@@@@@@@@@@@@@@@@@@@@@@@@@@@@@@@@@@@@@@@@@@@@@@@@@@@@@@@@@@@@@@@@@@@@@@@@@@@@@@@@@@@@@@@@@",
"@@@@@@@@@@@@@@@@@@@@@@@@@@@@@@@@@@@@@@@@@@@@@@@@@@@@@@@@@@@@@@@@@@@@@@@@@@@@@@@@@@@@@@@@@@@@@@@@",
"@@@@@@@@@@@@@@@@@@@@@@@@@@@@@@@@@@@@@@@@@@@@@@@@@@@@@@@@@@@@@@@@@@@@@@@@@@@@@@@@@@@@@@@@@@@@@@@@",
"@@@@@@@@@@@@                                    @@@@@@@@@@@@@@@@@@@@@@@@@@@@@@@@@@@@@@@@@@@@@@@@",
"@@@@@@@@@@@@                                    @@@@@@@@@@@@@@@@@@@@@@@@@@@@@@@@@@@@@@@@@@@@@@@@",
"@@@@@@@@@@@@                                    @@@@@@@@@@@@@@@@@@@@@@@@@@@@@@@@@@@@@@@@@@@@@@@@",
"@@@@@@@@@@@@                                    @@@@@@@@@@@@@@@@@@@@@@@@@@@@@@@@@@@@@@@@@@@@@@@@",
"@@@@@@@@@@@@                                    @@@@@@@@@@@@@@@@@@@@@@@@@@@@@@@@@@@@@@@@@@@@@@@@",
"@@@@@@@@@@@@                                    @@@@@@@@@@@@@@@@@@@@@@@@@@@@@@@@@@@@@@@@@@@@@@@@",
"@@@@@@                                                @@@@@@@@@@@@@@@@@@@@@@@@@@@@@@@@@@@@@@@@@@",
"@@@@@@                                                @@@@@@@@@@@@@@@@@@@@@@@@@@@@@@@@@@@@@@@@@@",
"@@@@@@                                                @@@@@@@@@@@@@@@@@@@@@@@@@@@@@@@@@@@@@@@@@@",
"@@@@@@                                                @@@@@@@@@@@@@@@@@@@@@@@@@@@@@@@@@@@@@@@@@@",
"@@@@@@                                                @@@@@@@@@@@@@@@@@@@@@@@@@@@@@@@@@@@@@@@@@@",
"@@@@@@                                                @@@@@@@@@@@@@@@@@@@@@@@@@@@@@@@@@@@@@@@@@@",
"                  ........................                  @@@@@@@@@@@@@@@@@@@@@@@@@@@@@@@@@@@@",
"                  ........................                  @@@@@@@@@@@@@@@@@@@@@@@@@@@@@@@@@@@@",
"                  ........................                  @@@@@@@@@@@@@@@@@@@@@@@@@@@@@@@@@@@@",
"                  ........................                  @@@@@@@@@@@@@@@@@@@@@@@@@@@@@@@@@@@@",
"                  ........................                  @@@@@@@@@@@@@@@@@@@@@@@@@@@@@@@@@@@@",
"                  ........................                  @@@@@@@@@@@@@@@@@@@@@@@@@@@@@@@@@@@@",
"            oooooo............++++++......oooooo            @@@@@@@@@@@@@@@@@@@@@@@@@@@@@@@@@@@@",
"            oooooo............++++++......oooooo            @@@@@@@@@@@@@@@@@@@@@@@@@@@@@@@@@@@@",
"            oooooo............++++++......oooooo            @@@@@@@@@@@@@@@@@@@@@@@@@@@@@@@@@@@@",
"            oooooo............++++++......oooooo            @@@@@@@@@@@@@@@@@@@@@@@@@@@@@@@@@@@@",
"            oooooo............++++++......oooooo            @@@@@@@@@@@@@@@@@@@@@@@@@@@@@@@@@@@@",
"            oooooo............++++++......oooooo            @@@@@@@@@@@@@@@@@@@@@@@@@@@@@@@@@@@@",
"            ....................................                                    @@@@@@@@@@@@",
"            ....................................                                    @@@@@@@@@@@@",
"            ....................................                                    @@@@@@@@@@@@",
"            ....................................                                    @@@@@@@@@@@@",
"            ....................................                                    @@@@@@@@@@@@",
"            ....................................                                    @@@@@@@@@@@@",
"            ++++++++++++............++++++......                                          @@@@@@",
"            ++++++++++++............++++++......                                          @@@@@@",
"            ++++++++++++............++++++......                                          @@@@@@",
"            ++++++++++++............++++++......                                          @@@@@@",
"            ++++++++++++............++++++......                                          @@@@@@",
"            ++++++++++++............++++++......                                          @@@@@@",
"            ++++++++++++........................                  ............                  ",
"            ++++++++++++........................                  ............                  ",
"            ++++++++++++........................                  ............                  ",
"            ++++++++++++........................                  ............                  ",
"            ++++++++++++........................                  ............                  ",
"            ++++++++++++........................                  ............                  ",
"            ....................................            oooooo......++++++oooooo            ",
"            ....................................            oooooo......++++++oooooo            ",
"            ....................................            oooooo......++++++oooooo            ",
"            ....................................            oooooo......++++++oooooo            ",
"            ....................................            oooooo......++++++oooooo            ",
"            ....................................            oooooo......++++++oooooo            ",
"                        XXXXXXXXXXXX                        ........................            ",
"                        XXXXXXXXXXXX                        ........................            ",
"                        XXXXXXXXXXXX                        ........................            ",
"                        XXXXXXXXXXXX                        ........................            ",
"                        XXXXXXXXXXXX                        ........................            ",
"                        XXXXXXXXXXXX                        ........................            ",
"@@@@@@                  OOOOOOOOOOOO                        ........................            ",
"@@@@@@                  OOOOOOOOOOOO                        ........................            ",
"@@@@@@                  OOOOOOOOOOOO                        ........................            ",
"@@@@@@                  OOOOOOOOOOOO                        ........................            ",
"@@@@@@                  OOOOOOOOOOOO                        ........................            ",
"@@@@@@                  OOOOOOOOOOOO                        ........................            ",
"@@@@@@@@@@@@            OOOOOOOOOOOO                              XXXXXXXXXXXX                  ",
"@@@@@@@@@@@@            OOOOOOOOOOOO                              XXXXXXXXXXXX                  ",
"@@@@@@@@@@@@            OOOOOOOOOOOO                              XXXXXXXXXXXX                  ",
"@@@@@@@@@@@@            OOOOOOOOOOOO                              XXXXXXXXXXXX                  ",
"@@@@@@@@@@@@            OOOOOOOOOOOO                              XXXXXXXXXXXX                  ",
"@@@@@@@@@@@@            OOOOOOOOOOOO                              XXXXXXXXXXXX                  ",
"@@@@@@@@@@@@@@@@@@@@@@@@@@@@@@@@@@@@@@@@@@@@@@@@@@@@@@            OOOOOOOOOOOO            @@@@@@",
"@@@@@@@@@@@@@@@@@@@@@@@@@@@@@@@@@@@@@@@@@@@@@@@@@@@@@@            OOOOOOOOOOOO            @@@@@@",
"@@@@@@@@@@@@@@@@@@@@@@@@@@@@@@@@@@@@@@@@@@@@@@@@@@@@@@            OOOOOOOOOOOO            @@@@@@",
"@@@@@@@@@@@@@@@@@@@@@@@@@@@@@@@@@@@@@@@@@@@@@@@@@@@@@@            OOOOOOOOOOOO            @@@@@@",
"@@@@@@@@@@@@@@@@@@@@@@@@@@@@@@@@@@@@@@@@@@@@@@@@@@@@@@            OOOOOOOOOOOO            @@@@@@",
"@@@@@@@@@@@@@@@@@@@@@@@@@@@@@@@@@@@@@@@@@@@@@@@@@@@@@@            OOOOOOOOOOOO            @@@@@@",
"@@@@@@@@@@@@@@@@@@@@@@@@@@@@@@@@@@@@@@@@@@@@@@@@@@@@@@@@@@@@@@@@@@@@@@@@@@@@@@@@@@@@@@@@@@@@@@@@",
"@@@@@@@@@@@@@@@@@@@@@@@@@@@@@@@@@@@@@@@@@@@@@@@@@@@@@@@@@@@@@@@@@@@@@@@@@@@@@@@@@@@@@@@@@@@@@@@@",
"@@@@@@@@@@@@@@@@@@@@@@@@@@@@@@@@@@@@@@@@@@@@@@@@@@@@@@@@@@@@@@@@@@@@@@@@@@@@@@@@@@@@@@@@@@@@@@@@",
"@@@@@@@@@@@@@@@@@@@@@@@@@@@@@@@@@@@@@@@@@@@@@@@@@@@@@@@@@@@@@@@@@@@@@@@@@@@@@@@@@@@@@@@@@@@@@@@@",
"@@@@@@@@@@@@@@@@@@@@@@@@@@@@@@@@@@@@@@@@@@@@@@@@@@@@@@@@@@@@@@@@@@@@@@@@@@@@@@@@@@@@@@@@@@@@@@@@",
"@@@@@@@@@@@@@@@@@@@@@@@@@@@@@@@@@@@@@@@@@@@@@@@@@@@@@@@@@@@@@@@@@@@@@@@@@@@@@@@@@@@@@@@@@@@@@@@@",
"@@@@@@@@@@@@@@@@@@@@@@@@@@@@@@@@@@@@@@@@@@@@@@@@@@@@@@@@@@@@@@@@@@@@@@@@@@@@@@@@@@@@@@@@@@@@@@@@",
"@@@@@@@@@@@@@@@@@@@@@@@@@@@@@@@@@@@@@@@@@@@@@@@@@@@@@@@@@@@@@@@@@@@@@@@@@@@@@@@@@@@@@@@@@@@@@@@@",
"@@@@@@@@@@@@@@@@@@@@@@@@@@@@@@@@@@@@@@@@@@@@@@@@@@@@@@@@@@@@@@@@@@@@@@@@@@@@@@@@@@@@@@@@@@@@@@@@",
"@@@@@@@@@@@@@@@@@@@@@@@@@@@@@@@@@@@@@@@@@@@@@@@@@@@@@@@@@@@@@@@@@@@@@@@@@@@@@@@@@@@@@@@@@@@@@@@@",
"@@@@@@@@@@@@@@@@@@@@@@@@@@@@@@@@@@@@@@@@@@@@@@@@@@@@@@@@@@@@@@@@@@@@@@@@@@@@@@@@@@@@@@@@@@@@@@@@",
"@@@@@@@@@@@@@@@@@@@@@@@@@@@@@@@@@@@@@@@@@@@@@@@@@@@@@@@@@@@@@@@@@@@@@@@@@@@@@@@@@@@@@@@@@@@@@@@@"
};
