/* XPM */
static char *wall2[] = {
/* columns rows colors chars-per-pixel */
"96 96 92 1 ",
"  c #1F100B",
". c #1E110B",
"X c #1F100D",
"o c #1F120C",
"O c #1F110E",
"+ c #210F0B",
"@ c #20110A",
"# c #20110C",
"$ c #22100C",
"% c #21120D",
"& c #20110E",
"* c #22100E",
"= c #4F3524",
"- c #4E3725",
"; c #4F3526",
": c #513623",
"> c #503723",
", c #503625",
"< c #513625",
"1 c #513527",
"2 c #513726",
"3 c #503627",
"4 c #523726",
"5 c #385737",
"6 c #365837",
"7 c #365938",
"8 c #375938",
"9 c #375839",
"0 c #395838",
"q c #385A39",
"w c #755137",
"e c #745236",
"r c #745237",
"t c #755337",
"y c #765337",
"u c #735437",
"i c #73533A",
"p c #755338",
"a c #765238",
"s c #75533A",
"d c #76523A",
"f c #735438",
"g c #765439",
"h c #46693F",
"j c #456A3F",
"k c #476B3F",
"l c #48683F",
"z c #476A40",
"x c #466B40",
"c c #476A42",
"v c #496940",
"b c #486B41",
"n c #486C40",
"m c #4A7349",
"M c #49724A",
"N c #49734B",
"B c #4A734B",
"V c #4C724B",
"C c #4B744C",
"Z c #9B7757",
"A c #9E7555",
"S c #9D7655",
"D c #9C7556",
"F c #9E7557",
"G c #9D7657",
"H c #9B7659",
"J c #9E7758",
"K c #64A555",
"L c #65A654",
"P c #65A557",
"I c #66A556",
"U c #65A656",
"Y c #66A757",
"T c #84C569",
"R c #85C668",
"E c #84C768",
"W c #86C668",
"Q c #86C769",
"! c #86C56A",
"~ c #85C66A",
"^ c #84C76A",
"/ c #86C76B",
"( c #84C66C",
") c #85C66C",
"_ c #86C76D",
"` c #85C86B",
"' c #8DD77E",
"] c #8AD97D",
"[ c #8CD87D",
"{ c #8DD87D",
"} c #8CD87E",
"| c #8DD97E",
/* pixels */
"~~~~~~~~~~~~~~~/~~~~~~~~~~~~~~~~~~~~~~~~~~~~~~~~~~~~~~~~~~~~~~~~~~~~~~~~~~~~~~~~~~~~~~~~~~~~~~~~",
"~~~~~~~~~~~~~~~~~~~~~~~~~^~~/~~~~~~~~~~~~~~~~~~~~~~~~~~~~~~~~~~~~~~~~~~~~~~~~~~~~~~~~~~~~~~~~~~~",
"~~~~~~~~~~~~~~^~~~~~~~~~~~E~~~~~~~~~~~~~~~~~~~~~~~~~~~~~~~~~~~~~~~~~~~~~~~~~~~~~~~~~~~~~~~~~~~~~",
"~~~~~~~~!~~~~~~~~~~~~~~~~~~~~/~~~~~~~~~~~~~~~~~~~~~~~~~~~~~~~~~~~~~~~~~~~~~~~~~~~~~~~~~~~~~~~~~~",
"~~~~~~~~~~~~~~~~~~~~~~~~~~~~RR^~~~~~~~~~~~~~~~~~~~~~~~~~~~~~~~~~~~~~~~~~~~~~~~~~~~~~~~~~~~~~~~~~",
"~~~~~~~~~~~~~~~R~~~~~~~~~~~~R~/~~~~~~~~~~~~~~~~~~~~~~~~~~~~~~~~~~~~~~~~~~~~~~~~~~~~~~~~~~~~~~~~~",
"~~~~~~~~~~!~[]}[[[[[[[[[~~~~^~##########################################~~~~~~~~~~~~~~~~~~~~~~~~",
"~~~~~~~~~~~~[[[[[[[[[[[[~~~~~~##########################################~~~~~~~~~~~~~~~~~~~~~~~~",
"~~~~~~~~~~~~[[[[[[[[[[[[~~~~~~##########################################~~~~~~~~~~~~~~~~~~~~~~~~",
"~~~~~~~~~~~~[[[[[[[[[[[[~~~~~~##########################################~~~~~)R~~~~~~~~~~~~~~~~~",
"~~~~~~~~~~~~[[[[[[[[[[[[~~~~~~##########################################~~~~~~~~~~~~~~~~~~~~~~~~",
"~~~~~~~~~~~~[[[[[[[[[[[[~!~~~~ ###################################&#####~~~^~~~~~~~~~~~~~~~~~~~~",
"~~~~~~~~~~~~[[[[[[[[[[[[######ppppppGGGGGGGGGGGGGGGGGGGGGGGGGGGGGGyppppt###+#$~~~~~~~~~~~~~~~~~~",
"~~~~~~~~~~~~[[[[[[[[[[[[######ppppppGGGGGGGGGGGGGGGGGGGGGGGGGGGGGGpppppp######~~~~~~~~~~~~~~~~~~",
"~~~~~~~~~~~~[[[[[[[[[[[[######spppppGGGGGGGGGGGGGGGGGGGGGGGGGGGGGGpppppp######~~~~~~~~~~~~~~~~~~",
"~~~~~~~~~~~~[[[[[[[[[[[[######ppppppGGGGGGGGGGGGGGGGGGGGGGGGGGGGGApppppp#o####~~~~~~~~~~~~~~~~~~",
"~~~~~~~~~~~~[[[[[[[[[[[[######ppppppGGGGGGGGGGGGGGGGGGGGGGGGGDGGGGpppppp######~~~~~~~~~~~~~~~~~~",
"~~~~~~~~~~~~|[[[[{|[[[[[o##$  ppipppGGGGGGGGGGGJGGGGGGGGGGGGGGGGGGpppppp# ####~~~~~~~~~~~~~~~~~~",
"~~~~~~~~~~~~UKUUUY ##+##pppppaGGGGGHAGGGGGypppppppppppppppppGGGGGGHGSGGGpppppg#####$~~~~~~~~~~~~",
"~~~~~~~~~~~~UUKUUU######ppppppGGGGGGGGGGGGprpgppppppppppppppGGGGGGGJDDGGppatpp######~~~~~~~~~~~~",
"~~~~~~~~~~~~UUUUUU######ppppppFGGGGGGGGGGGpppppppppppppppppiGGGGGGGGGGGGpppfep##### ^~~~~~~~~~~~",
"~~~~~~~~~~~~UUUUUU###o#oppwpppGGGGGGGGGGGGpgppppppppppppppppGGGGGGGGGGGGspppap######~~!~~~~~~~~~",
"~~~~~~~~~~~~UUUUUK######pppppfGGGGGGGGGGGGppppppppppppppppppGGGGGGGGGGFGpfpfpp######~~~~~~~~~~~~",
"~~~~~~~~^~R~UPUUUU######fppgppGGGGGHGGGGGJppippppppppppprpppGGGJGDGGAGAZppspgg#%####~~~~~~~~~~~~",
"~~~~~~~~~~~~~~~~~~######dtptppGGGGGHGGGGGJppippppppppppprpppGGGJGDGGAGAZtppppy######~~~~~~~~~~~~",
"~~~~~~~~~~~~~~~~~~######gtppppGGGGGGGGGGGGppppppppppppppppppGGGGGGGGGGFGspgppp######~~~~~~~~~~~~",
"~~~~~~~~~~~~~~~~~~######ppppppGGGGGGGGGGGGpgppppppppppppppppGGGGGGGGGGGGpppppt######~~~~~~~~~~~~",
"~~~~~~~~~~~~~~~~~~######gpppppGGGGGGGGGGGGpppppppppppppppppiGGGGGGGGGGGGsppgpp&#####~~~~~~~~~~~~",
"~~~~~~~~~~~~~~~~~~######ppppppGGGGGGGGGGGGprpgppppppppppppppGGGGGGGJDDGGpppppp######~~~~~~~~~~~~",
"~~~~~~~~~~~~~~~~~~######pptppiGGGGGHAGGGGGypppppppppppppppppGGGGGGHGSGGGpppppp######~~~~~~~~~~~~",
"~~~~~~~~~~~~~~~~~~######3,,,,,pripppGGGGGGGGGGGJGGGGGGGGGGGGGGGGGGpppppp,,3,,=######~~~~~~~~~~~~",
"~~~~~~~~~~~~~~~~~~######,,,,,3ppppppGGGGGGGGGGGGGGGGGGGGGGGGGDGGGGpppppp,,,,,,######~~~~~~~~~~~~",
"~~~~~~~~~~~~~~~~~~####o#,,,,,,ppppppGGGGGGGGGGGGGGGGGGGGGGGGGGGGGGpppppr,,,>,,@#####~~~~~~~~~~~~",
"~~~~~~~~~~~~~~~~~~######,,,,2,ppppppGGGGGGGGGGGGGGGGGGGGGGGGGGGGGGpppppp,,-,,,######~~~~~~~~~~~~",
"~~~~~~~~~~~~~~~~~~######,,,,,,ppppppGGGGGGGGGGGGGGGGGGGGGGGGGGGGGGpppppp,,,,,,######~~~~~~~~~~~~",
"~~~~~~~~~~~~~~~~~~$#+###,,,,,,ppppppGGGGGGGGGGGGGGGGGGGGGGGGGGGGGGpptppp,,,,,,######~~~~~~~~~~~~",
"~~~~~~~~~~~~~~~~~~~~^~~~#####@2,,,,,pppppppppppppppppppppppppppppp,,3,,,#####X~~~~~~~~~~~~~~~~~~",
"~~~~~~~~~~~~~~~~~~~~~~~~######,,,,,,pppppppppppppppppppppppppppppp,,,,,,######~~~~~~~~~~~~~~~~~~",
"~~~~~~~~~~~~~~~~~R)~~~~~#### #,,,,,,pppppppppppppppppppppppppppppp,,,,,,####$#~~~~~~~~~~~~~~~~~~",
"~~~~~~~~~~~~~~~~~~~~~~~~######,,,,,,pppppppppppppppppppppppppppppp,,,,,,######~~~~~~~~~~~~~~~~~~",
"~~~~~~~~~~~~~~~~~~~~~~~~######<,,,,,pppppppppppppppppppppppppppppt,,,<,,######~~~~~~~~~~~~~~~~~~",
"~~~~~~~~~~~~~~~~~~~~~~~~&##@##,<,,3,ptpppppppppppppppppppppppppppp,,,,,,######~~~~~~~~~~~~~~~~~~",
"~~~~~~~~~~~~~~~~~~~~~~~~##&&##### ##############################&#o ##########~~~~~~~~~~~~~~~~~~",
"~~~~~~~~~~~~~~~~~~~~~~~~######################################################~~~~~~~~~~~~~~~~~~",
"~~~~~~~~~~~~~~~~~~~~~~~~# ###&@###############################################~~~~~~~~~~~~~~~~~~",
"~~~~~~~~~~~~~~~~~~~~~~~~#### &####%###@############################## ########~~~~~~~~~~~~~~~~~~",
"~~~~~~~~~~~~~~~~~~~~~~~~#############################################%########~~~~~~~~~~~~~~~~~~",
"~~~~~~~~~~~~~~~~~~~~~~~~*## #$&#################################o#@##o#@######~~~~~~~~~~~~~~~~~~",
"~~~~~~~~~~~~~~~~~~~~~~~~######,,,,,,,,,,,<pppppt4,<3,,pppppppppppp,,,,,,######~~~~~~~~~~~~~~~~~~",
"~~~~~~~~~~~~~~~~~~~~~~~~######,,,,,,,,,,,,pppppp,,,,,3pppppppppppp,,,,,,######~~~~~~~~~~~~~~~~~~",
"~~~~~~~~~~~~~~~~~~~~~~~~######,,,,,,,,>,,,ppprgp,,,,,,gppspppppppp,,,,,,######~~~~~~~~~~~~~~~~~~",
"~~~~~~~~~~~~~~~~~~~~~~~~######,,3,,,,,,,,,ppgppp;<,>,=pgppppppptpp,,,,,,######~~~~~~~~~~~~~~~~~~",
"~~~~~~~~~~~~~~~~~~~~~~~~######,,-,,,,,,,,,pppppp,,,3,,pfpppppppapp,,,,,,######~~~~~~~~~~~~~~~~~~",
"~~~~~~~~~~~~~~~~~~~~~~~~######,,,=,,,,,,,=sppppp,3,,,,ypppppppgppp,,,,,,######~~~~~~~~~~~~~~~~~~",
"~~~~~~~~~~~~~~~~~~~~~~~~######,,,,3,ptpptpppppppappppt,,,,3,ptpppp,,,,,,######~~~~~~~~~~~~~~~~~~",
"~~~~~~~~~~~~~~~~~~~~~~~~######,,,,,,ppppppippapppppppp,,,,,,pppppp,,,,,,######~~~~~~~~~~~~~~~~~~",
"~~~~~~~~~~~~~~~~~~~~~~~~######,,,,,,pppppppppppppppppp,,,,,,pppppp,,,,,,######~~~~~~~~~~~~~~~~~~",
"~~~~~~~~~~~~~~~~~~~~~~~~######,,,,,,pppppppppppppppppp,,,,,,pppppp,,,,,,######~~~~~~~~~~~~~~~~~~",
"~~~~~~~~~~~~~~~~~~~~~~~~######,,,,,,pppppppppppppppppp,,,,,,pppppp,,,,,,######~~~~~~~~~~~~~~~~~~",
"~~~~~~~~~~~~~~~~~~~~~~~~######,,,,,,pppppppppppppppppp,,,,,,pppppp,,,,,,######~~~~~~~~~~~~~~~~~~",
"~~~~~~~~~~~~~~~~~~~~~~~~######,,,,,,pppppppppppppppppp,,,,,,pppppp,,,,,,######~~~~~~~~~~~~~~~~~~",
"~~~~~~~~~~~~~~~~~~~~~~~~######,,,,,,pppppppppppppppppp,,,,,,pppppp,,,,,,######~~~~~~~~~~~~~~~~~~",
"~~~~~~~~~~~~~~~~~~~~~~~~######,,,,,,pppppppppppppppppp,,,,,,pppppp,,,,,,######~~~~~~~~~~~~~~~~~~",
"~~~~~~~~~~~~~~~~~~~~~~~~######,,,,,,pppppppppppppppppp,,,,,,pppppp,,,,,,######~~~~~~~~~~~~~~~~~~",
"~~~~~~~~~~~~~~~~~~~~~R~~######,,,,,,pppppsyppfpppppppa3,,,,,pppppp,,,,,,######~~~~~~~~~~~~^~~~~~",
"~~~~~~~~~~~~~~~~~!~~/~~~######,,,,,,ppppppgptppppppppp,3,,3,ptpppp,,,,,,# ####~~~~~~~~~~!)~~~~~)",
"~~~~~~~~~~~~~~~~~~czxzzz######,,,,,,pppptp:,,,,,ppppgappppppppgppp,,,,,,##$$##BBBBBB[[[[[[(~~~~~",
"~~~~~~~~~~~~~~~~~~zhzzzz######,,,,,,pppppp,,,,,,ppppggpppppppppapp,,,,,,######BBBBBB[[[[[[~~~~~~",
"~~~~~~~~~~~~~~~~~~zzzzzz######,,,,,,pppppp,=,,,,ppppppppppppppptpp,,,,,,%%####NBBBBB[[[[[|~~~~~~",
"~~~~~~~~~~~~~~~~~~czzzzz######,,,,,,pppppp,,,23,ppgppppppspppppppp,,,,,,%##$#$BBBBBB[[[[[[~~~~~~",
"~~~~~~~~~~~~~~~~~~zzzzjz######,,,,,,pppppp,=,=,,pppppppapppppppppp,,,,,,#### #MBBBBB[[[[[|~~~~~~",
"~~~~~~~~~~~~~~~~~~cxzxbz######,,,,,,pppppp,,,,,3sppppsfppppppppppp,,,,,,##@###VCBBBB[[}[[[~~~~~W",
"R~~~~~KUIUUU~~~~~~878788##.###,,,,,,,>,,,,######uapapptpprpp,,,,,3<,=,,1 #####MBBmBB[[[[[[~~~T~~",
"~~~~~~UUUUUU~~~~~~888878######>,,,,,,,,,,,######pppppppppppp,,,,,,,,,,,,#####&BBBBBB[[[[[[~~~~~~",
"~/~~~~UUUUUU~~~~~/888988######,,,,,,,,,,,,######ppppptpppppp,,,,,,,=,,>,######BBBBBB[[[[['~~~^~~",
"~~~~~/UUUUUU~~~R/~886880######,,,,,,,,,,,,######gpppptsppppp,,,,,>3,,3==O##@##NBBBBB[[[[[[~R~~~~",
"~~~~~~UUUUUU~~~~~~888887######,,,,,,,,,,,,######ppgppppppppp,,,,,,,,,,,,#####$NBBBBB[[[[[[~~~~~~",
"~~~/~_UUULUU~~~~~~q88888### ##,,,,,,,,,,,,######fppppppppppp,,,,,,,,,,,,## ###mBBBBB[[[[[[~~~~~~",
"~~~~~~~R~~~^588880zzzxzzzzbzzz$###o#,,,,,,######,,,3,, o####,,,,,,##o##&zzzzzz888888888888~~~~~~",
"~~~~~)~~~~~~888868zzzzzzzzzzkz#+####,,,,,,######,=,,,,o#####,,,,,<######zzzzzz888888808888~~~~~~",
"~~~~~~~~~~~~888888zzzzzzkzzzzz######,,,,,,######,,,,,,######,,,,,,######zzzkzz988888888888~~~~~~",
"~~~~~~~~~~~~888888zzzzzzzzzzzz######,,,,,,#@####,,-,3,######,,,,,,#@####zzzzzz888888888888~~~~~~",
"~~~~~~~~~~~~888888zzzzzzzzzzzz######,,,,,<######,,,,,,o#####,,,,,<######zzzzzz888888888888~~~~~~",
"~~~~~~~~~~~~888888zzzzzzzzzzznX#####2,,,,2######,,,,,,######2,,,,2######zzzzzz088888888888~~~~~~",
"~~~~~~~~~~~~~~~~~~~~~~~~zxzzzzzzzzzzzzzzzzzzzzzzzzzzzzzzzzzzzzzzzzzzzzzz888886R~~~~~~~~~~^~~~~~~",
"~~~~~~~~~~~~~~~~~~~~~~~~zzzzzzzzzzzzzzzzzxzzzzzckzzzzzzzzzzzzzzzzxzzzzzc888888~~~~~~~~~~~~~~~~~~",
"~~~~~~~~~~~~~~~~~~~~~~~~zzzzzzzzzzzzzzzzzzzzzzzzzzzzkzzzzzzzzzzzzzzzzzzz889888~~~~~~~~~~~~~~~~~~",
"~~~~~~~~~~~~~~~~~~~/~/)~zzzzzzzzzzzzzzzzzzzzzzzzzzzzzzzzzzzzzzzzzzzzzzzz888888Q~~~~~~~~~~~~~~~~~",
"~~~~~~~~~~~~~~~~~~~~~~~~zzczzzzzzzzzzzzzzzzzzzzzzzzzzzzzzzzzzzzzzzzzzzzz888888~~~~~~~~~~~~~~~~~~",
"~~~~~~~~~~~~~~~~~~~~~~~~zzchzzxzzzzzzczzzzzzzzzzzzzzzzzzzzzzzzzzzlzzzxzz888888^~~~~~~~~~~~~~~~~~",
"~~~~~~~~~~~~~~~~~~~~~~~~~~~~~~zzzzzz~~~~~~~~~~~~~~~~~~~~~~~~~~~~~Rzzzzzz~~~~~~~~~~~~~~~~~~~~~~~~",
"~~~~~~~~~~~~~~~~~~~~~~~~~~~~`~zzzzzz~~~T~~~~~~~~~~~~~~~~~~~~~~~~~~zhzzzx~~~~~~~~~~~~~~~~~~~~~~~~",
"~~~~~~~~~~~~~~~~~~~~~~~~~~~~~~zzzzzz~~~~~~~~~~~~~~~~~~~~~~~~~~~~~~zzzzzv~~~~/~~/~~~~~~~~~~~~~~~~",
"~~~~~~~~~~~~~~~~~~~~~~~~~~~~R~zzzkzz~~~~~~~~~~~~~~~~~~~~~~~~~~~~~~cczzzzR~~^~~~~~~~~~~~~~~~~~~~~",
"~~~~~~~~~~~~~~~~~~~~~~~~~/)~~~zzzzzz~~~~~~~~~~~~~~~~~~~~~~~~~~~~~~zzzzjz~~~~~~~~~~~~~~~~~~~~~~~~",
"~~~~~~~~~~~~~~~~~~~~~~~~~T~~~~kzzzzz~~~~~~~~~~~~~~~~~~~~~~~~~~~~~Thxzxkz~~~^!~/~~~~~~~~~~~~~~~~~"
};
