/* XPM */
static char *wall[] = {
/* columns rows colors chars-per-pixel */
"96 96 5 1 ",
"  c #3F2631",
". c #BD6C4A",
"X c #479F4A",
"o c #84C669",
"O c None",
/* pixels */
"OOOOOOOOOOOOOOOOOOOOOOOOOOOOOOOOOOOO                        OOOOOOOOOOOOOOOOOOOOOOOOOOOOOOOOOOOO",
"OOOOOOOOOOOOOOOOOOOOOOOOOOOOOOOOOOOO                        OOOOOOOOOOOOOOOOOOOOOOOOOOOOOOOOOOOO",
"OOOOOOOOOOOOOOOOOOOOOOOOOOOOOOOOOOOO                        OOOOOOOOOOOOOOOOOOOOOOOOOOOOOOOOOOOO",
"OOOOOOOOOOOOOOOOOOOOOOOOOOOOOOOOOOOO                        OOOOOOOOOOOOOOOOOOOOOOOOOOOOOOOOOOOO",
"OOOOOOOOOOOOOOOOOOOOOOOOOOOOOOOOOOOO                        OOOOOOOOOOOOOOOOOOOOOOOOOOOOOOOOOOOO",
"OOOOOOOOOOOOOOOOOOOOOOOOOOOOOOOOOOOO                        OOOOOOOOOOOOOOOOOOOOOOOOOOOOOOOOOOOO",
"OOOOOOOOOOOOOOOOOOOOOOOOOOOOOO                                    OOOOOOOOOOOOOOOOOOOOOOOOOOOOOO",
"OOOOOOOOOOOOOOOOOOOOOOOOOOOOOO                                    OOOOOOOOOOOOOOOOOOOOOOOOOOOOOO",
"OOOOOOOOOOOOOOOOOOOOOOOOOOOOOO                                    OOOOOOOOOOOOOOOOOOOOOOOOOOOOOO",
"OOOOOOOOOOOOOOOOOOOOOOOOOOOOOO                                    OOOOOOOOOOOOOOOOOOOOOOOOOOOOOO",
"OOOOOOOOOOOOOOOOOOOOOOOOOOOOOO                                    OOOOOOOOOOOOOOOOOOOOOOOOOOOOOO",
"OOOOOOOOOOOOOOOOOOOOOOOOOOOOOO                                    OOOOOOOOOOOOOOOOOOOOOOOOOOOOOO",
"OOOOOOOOOOOOOOOOOOOOOOOO                  oooooooooooo                  OOOOOOOOOOOOOOOOOOOOOOOO",
"OOOOOOOOOOOOOOOOOOOOOOOO                  oooooooooooo                  OOOOOOOOOOOOOOOOOOOOOOOO",
"OOOOOOOOOOOOOOOOOOOOOOOO                  oooooooooooo                  OOOOOOOOOOOOOOOOOOOOOOOO",
"OOOOOOOOOOOOOOOOOOOOOOOO                  oooooooooooo                  OOOOOOOOOOOOOOOOOOOOOOOO",
"OOOOOOOOOOOOOOOOOOOOOOOO                  oooooooooooo                  OOOOOOOOOOOOOOOOOOOOOOOO",
"OOOOOOOOOOOOOOOOOOOOOOOO                  oooooooooooo                  OOOOOOOOOOOOOOOOOOOOOOOO",
"OOOOOOOOOOOOOOOOOOOOOOOO            oooooooooooooooooooooooo            OOOOOOOOOOOOOOOOOOOOOOOO",
"OOOOOOOOOOOOOOOOOOOOOOOO            oooooooooooooooooooooooo            OOOOOOOOOOOOOOOOOOOOOOOO",
"OOOOOOOOOOOOOOOOOOOOOOOO            oooooooooooooooooooooooo            OOOOOOOOOOOOOOOOOOOOOOOO",
"OOOOOOOOOOOOOOOOOOOOOOOO            oooooooooooooooooooooooo            OOOOOOOOOOOOOOOOOOOOOOOO",
"OOOOOOOOOOOOOOOOOOOOOOOO            oooooooooooooooooooooooo            OOOOOOOOOOOOOOOOOOOOOOOO",
"OOOOOOOOOOOOOOOOOOOOOOOO            oooooooooooooooooooooooo            OOOOOOOOOOOOOOOOOOOOOOOO",
"OOOOOOOOOOOOOOOOOO                  oooooooooooooooooooooooo                  OOOOOOOOOOOOOOOOOO",
"OOOOOOOOOOOOOOOOOO                  oooooooooooooooooooooooo                  OOOOOOOOOOOOOOOOOO",
"OOOOOOOOOOOOOOOOOO                  oooooooooooooooooooooooo                  OOOOOOOOOOOOOOOOOO",
"OOOOOOOOOOOOOOOOOO                  oooooooooooooooooooooooo                  OOOOOOOOOOOOOOOOOO",
"OOOOOOOOOOOOOOOOOO                  oooooooooooooooooooooooo                  OOOOOOOOOOOOOOOOOO",
"OOOOOOOOOOOOOOOOOO                  oooooooooooooooooooooooo                  OOOOOOOOOOOOOOOOOO",
"OOOOOOOOOOOOOOOOOO            ooooooooooooooooooXXXXXXXXXXXXoooooo            OOOOOOOOOOOOOOOOOO",
"OOOOOOOOOOOOOOOOOO            ooooooooooooooooooXXXXXXXXXXXXoooooo            OOOOOOOOOOOOOOOOOO",
"OOOOOOOOOOOOOOOOOO            ooooooooooooooooooXXXXXXXXXXXXoooooo            OOOOOOOOOOOOOOOOOO",
"OOOOOOOOOOOOOOOOOO            ooooooooooooooooooXXXXXXXXXXXXoooooo            OOOOOOOOOOOOOOOOOO",
"OOOOOOOOOOOOOOOOOO            ooooooooooooooooooXXXXXXXXXXXXoooooo            OOOOOOOOOOOOOOOOOO",
"OOOOOOOOOOOOOOOOOO            ooooooooooooooooooXXXXXXXXXXXXoooooo            OOOOOOOOOOOOOOOOOO",
"OOOOOOOOOOOOOOOOOO            ooooooooooooooooooXXXXXXXXXXXXoooooo            OOOOOOOOOOOOOOOOOO",
"OOOOOOOOOOOOOOOOOO            ooooooooooooooooooXXXXXXXXXXXXoooooo            OOOOOOOOOOOOOOOOOO",
"OOOOOOOOOOOOOOOOOO            ooooooooooooooooooXXXXXXXXXXXXoooooo            OOOOOOOOOOOOOOOOOO",
"OOOOOOOOOOOOOOOOOO            ooooooooooooooooooXXXXXXXXXXXXoooooo            OOOOOOOOOOOOOOOOOO",
"OOOOOOOOOOOOOOOOOO            ooooooooooooooooooXXXXXXXXXXXXoooooo            OOOOOOOOOOOOOOOOOO",
"OOOOOOOOOOOOOOOOOO            ooooooooooooooooooXXXXXXXXXXXXoooooo            OOOOOOOOOOOOOOOOOO",
"OOOOOOOOOOOO                  oooooooooooooooooooooooooooooooooooo                  OOOOOOOOOOOO",
"OOOOOOOOOOOO                  oooooooooooooooooooooooooooooooooooo                  OOOOOOOOOOOO",
"OOOOOOOOOOOO                  oooooooooooooooooooooooooooooooooooo                  OOOOOOOOOOOO",
"OOOOOOOOOOOO                  oooooooooooooooooooooooooooooooooooo                  OOOOOOOOOOOO",
"OOOOOOOOOOOO                  oooooooooooooooooooooooooooooooooooo                  OOOOOOOOOOOO",
"OOOOOOOOOOOO                  oooooooooooooooooooooooooooooooooooo                  OOOOOOOOOOOO",
"OOOOOOOOOOOO            XXXXXXooooooooooooooooooXXXXXXooooooooooooXXXXXX            OOOOOOOOOOOO",
"OOOOOOOOOOOO            XXXXXXooooooooooooooooooXXXXXXooooooooooooXXXXXX            OOOOOOOOOOOO",
"OOOOOOOOOOOO            XXXXXXooooooooooooooooooXXXXXXooooooooooooXXXXXX            OOOOOOOOOOOO",
"OOOOOOOOOOOO            XXXXXXooooooooooooooooooXXXXXXooooooooooooXXXXXX            OOOOOOOOOOOO",
"OOOOOOOOOOOO            XXXXXXooooooooooooooooooXXXXXXooooooooooooXXXXXX            OOOOOOOOOOOO",
"OOOOOOOOOOOO            XXXXXXooooooooooooooooooXXXXXXooooooooooooXXXXXX            OOOOOOOOOOOO",
"OOOOOOOOOOOO            XXXXXXooooooooooooooooooooooooooooooooooooXXXXXX            OOOOOOOOOOOO",
"OOOOOOOOOOOO            XXXXXXooooooooooooooooooooooooooooooooooooXXXXXX            OOOOOOOOOOOO",
"OOOOOOOOOOOO            XXXXXXooooooooooooooooooooooooooooooooooooXXXXXX            OOOOOOOOOOOO",
"OOOOOOOOOOOO            XXXXXXooooooooooooooooooooooooooooooooooooXXXXXX            OOOOOOOOOOOO",
"OOOOOOOOOOOO            XXXXXXooooooooooooooooooooooooooooooooooooXXXXXX            OOOOOOOOOOOO",
"OOOOOOOOOOOO            XXXXXXooooooooooooooooooooooooooooooooooooXXXXXX            OOOOOOOOOOOO",
"OOOOOOOOOOOO            XXXXXXXXXXXXooooooooooooooooooooooooXXXXXXXXXXXX            OOOOOOOOOOOO",
"OOOOOOOOOOOO            XXXXXXXXXXXXooooooooooooooooooooooooXXXXXXXXXXXX            OOOOOOOOOOOO",
"OOOOOOOOOOOO            XXXXXXXXXXXXooooooooooooooooooooooooXXXXXXXXXXXX            OOOOOOOOOOOO",
"OOOOOOOOOOOO            XXXXXXXXXXXXooooooooooooooooooooooooXXXXXXXXXXXX            OOOOOOOOOOOO",
"OOOOOOOOOOOO            XXXXXXXXXXXXooooooooooooooooooooooooXXXXXXXXXXXX            OOOOOOOOOOOO",
"OOOOOOOOOOOO            XXXXXXXXXXXXooooooooooooooooooooooooXXXXXXXXXXXX            OOOOOOOOOOOO",
"OOOOOOOOOOOO            XXXXXXXXXXXXXXXXXXXXXXXXXXXXXXXXXXXXXXXXXXXXXXXX            OOOOOOOOOOOO",
"OOOOOOOOOOOO            XXXXXXXXXXXXXXXXXXXXXXXXXXXXXXXXXXXXXXXXXXXXXXXX            OOOOOOOOOOOO",
"OOOOOOOOOOOO            XXXXXXXXXXXXXXXXXXXXXXXXXXXXXXXXXXXXXXXXXXXXXXXX            OOOOOOOOOOOO",
"OOOOOOOOOOOO            XXXXXXXXXXXXXXXXXXXXXXXXXXXXXXXXXXXXXXXXXXXXXXXX            OOOOOOOOOOOO",
"OOOOOOOOOOOO            XXXXXXXXXXXXXXXXXXXXXXXXXXXXXXXXXXXXXXXXXXXXXXXX            OOOOOOOOOOOO",
"OOOOOOOOOOOO            XXXXXXXXXXXXXXXXXXXXXXXXXXXXXXXXXXXXXXXXXXXXXXXX            OOOOOOOOOOOO",
"OOOOOOOOOOOO            XXXXXXooooooXXXXXXXXXXXXXXXXXXXXXXXXXXXXXXXXXXXX            OOOOOOOOOOOO",
"OOOOOOOOOOOO            XXXXXXooooooXXXXXXXXXXXXXXXXXXXXXXXXXXXXXXXXXXXX            OOOOOOOOOOOO",
"OOOOOOOOOOOO            XXXXXXooooooXXXXXXXXXXXXXXXXXXXXXXXXXXXXXXXXXXXX            OOOOOOOOOOOO",
"OOOOOOOOOOOO            XXXXXXooooooXXXXXXXXXXXXXXXXXXXXXXXXXXXXXXXXXXXX            OOOOOOOOOOOO",
"OOOOOOOOOOOO            XXXXXXooooooXXXXXXXXXXXXXXXXXXXXXXXXXXXXXXXXXXXX            OOOOOOOOOOOO",
"OOOOOOOOOOOO            XXXXXXooooooXXXXXXXXXXXXXXXXXXXXXXXXXXXXXXXXXXXX            OOOOOOOOOOOO",
"OOOOOOOOOOOO            XXXXXXXXXXXXXXXXXXXXXXXXXXXXXXXXXXXXXXXXXXXXXXXX            OOOOOOOOOOOO",
"OOOOOOOOOOOO            XXXXXXXXXXXXXXXXXXXXXXXXXXXXXXXXXXXXXXXXXXXXXXXX            OOOOOOOOOOOO",
"OOOOOOOOOOOO            XXXXXXXXXXXXXXXXXXXXXXXXXXXXXXXXXXXXXXXXXXXXXXXX            OOOOOOOOOOOO",
"OOOOOOOOOOOO            XXXXXXXXXXXXXXXXXXXXXXXXXXXXXXXXXXXXXXXXXXXXXXXX            OOOOOOOOOOOO",
"OOOOOOOOOOOO            XXXXXXXXXXXXXXXXXXXXXXXXXXXXXXXXXXXXXXXXXXXXXXXX            OOOOOOOOOOOO",
"OOOOOOOOOOOO            XXXXXXXXXXXXXXXXXXXXXXXXXXXXXXXXXXXXXXXXXXXXXXXX            OOOOOOOOOOOO",
"OOOOOOOOOOOO                  XXXXXXXXXXXXXXXXXXXXXXXXXXXXXXXXXXXX                  OOOOOOOOOOOO",
"OOOOOOOOOOOO                  XXXXXXXXXXXXXXXXXXXXXXXXXXXXXXXXXXXX                  OOOOOOOOOOOO",
"OOOOOOOOOOOO                  XXXXXXXXXXXXXXXXXXXXXXXXXXXXXXXXXXXX                  OOOOOOOOOOOO",
"OOOOOOOOOOOO                  XXXXXXXXXXXXXXXXXXXXXXXXXXXXXXXXXXXX                  OOOOOOOOOOOO",
"OOOOOOOOOOOO                  XXXXXXXXXXXXXXXXXXXXXXXXXXXXXXXXXXXX                  OOOOOOOOOOOO",
"OOOOOOOOOOOO                  XXXXXXXXXXXXXXXXXXXXXXXXXXXXXXXXXXXX                  OOOOOOOOOOOO",
"OOOOOOOOOOOOOOOOOO                        ............                        OOOOOOOOOOOOOOOOOO",
"OOOOOOOOOOOOOOOOOO                        ............                        OOOOOOOOOOOOOOOOOO",
"OOOOOOOOOOOOOOOOOO                        ............                        OOOOOOOOOOOOOOOOOO",
"OOOOOOOOOOOOOOOOOO                        ............                        OOOOOOOOOOOOOOOOOO",
"OOOOOOOOOOOOOOOOOO                        ............                        OOOOOOOOOOOOOOOOOO",
"OOOOOOOOOOOOOOOOOO                        ............                        OOOOOOOOOOOOOOOOOO"
};
