/* XPM */
static char *wall2[] = {
/* columns rows colors chars-per-pixel */
"96 96 5 1 ",
"  c #3F2631",
". c #BD6C4A",
"X c #E38628",
"o c #FDBE53",
"O c None",
/* pixels */
"OOOOOOOOOOOOOOOOOOOOOOOOOOOOOOOOOOOO                        OOOOOOOOOOOOOOOOOOOOOOOOOOOOOOOOOOOO",
"OOOOOOOOOOOOOOOOOOOOOOOOOOOOOOOOOOOO                        OOOOOOOOOOOOOOOOOOOOOOOOOOOOOOOOOOOO",
"OOOOOOOOOOOOOOOOOOOOOOOOOOOOOOOOOOOO                        OOOOOOOOOOOOOOOOOOOOOOOOOOOOOOOOOOOO",
"OOOOOOOOOOOOOOOOOOOOOOOOOOOOOOOOOOOO                        OOOOOOOOOOOOOOOOOOOOOOOOOOOOOOOOOOOO",
"OOOOOOOOOOOOOOOOOOOOOOOOOOOOOOOOOOOO                        OOOOOOOOOOOOOOOOOOOOOOOOOOOOOOOOOOOO",
"OOOOOOOOOOOOOOOOOOOOOOOOOOOOOOOOOOOO                        OOOOOOOOOOOOOOOOOOOOOOOOOOOOOOOOOOOO",
"OOOOOOOOOOOOOOOOOOOOOOOOOOOOOO                                    OOOOOOOOOOOOOOOOOOOOOOOOOOOOOO",
"OOOOOOOOOOOOOOOOOOOOOOOOOOOOOO                                    OOOOOOOOOOOOOOOOOOOOOOOOOOOOOO",
"OOOOOOOOOOOOOOOOOOOOOOOOOOOOOO                                    OOOOOOOOOOOOOOOOOOOOOOOOOOOOOO",
"OOOOOOOOOOOOOOOOOOOOOOOOOOOOOO                                    OOOOOOOOOOOOOOOOOOOOOOOOOOOOOO",
"OOOOOOOOOOOOOOOOOOOOOOOOOOOOOO                                    OOOOOOOOOOOOOOOOOOOOOOOOOOOOOO",
"OOOOOOOOOOOOOOOOOOOOOOOOOOOOOO                                    OOOOOOOOOOOOOOOOOOOOOOOOOOOOOO",
"OOOOOOOOOOOOOOOOOOOOOOOO                  oooooooooooo                  OOOOOOOOOOOOOOOOOOOOOOOO",
"OOOOOOOOOOOOOOOOOOOOOOOO                  oooooooooooo                  OOOOOOOOOOOOOOOOOOOOOOOO",
"OOOOOOOOOOOOOOOOOOOOOOOO                  oooooooooooo                  OOOOOOOOOOOOOOOOOOOOOOOO",
"OOOOOOOOOOOOOOOOOOOOOOOO                  oooooooooooo                  OOOOOOOOOOOOOOOOOOOOOOOO",
"OOOOOOOOOOOOOOOOOOOOOOOO                  oooooooooooo                  OOOOOOOOOOOOOOOOOOOOOOOO",
"OOOOOOOOOOOOOOOOOOOOOOOO                  oooooooooooo                  OOOOOOOOOOOOOOOOOOOOOOOO",
"OOOOOOOOOOOOOOOOOOOOOOOO            oooooooooooooooooooooooo            OOOOOOOOOOOOOOOOOOOOOOOO",
"OOOOOOOOOOOOOOOOOOOOOOOO            oooooooooooooooooooooooo            OOOOOOOOOOOOOOOOOOOOOOOO",
"OOOOOOOOOOOOOOOOOOOOOOOO            oooooooooooooooooooooooo            OOOOOOOOOOOOOOOOOOOOOOOO",
"OOOOOOOOOOOOOOOOOOOOOOOO            oooooooooooooooooooooooo            OOOOOOOOOOOOOOOOOOOOOOOO",
"OOOOOOOOOOOOOOOOOOOOOOOO            oooooooooooooooooooooooo            OOOOOOOOOOOOOOOOOOOOOOOO",
"OOOOOOOOOOOOOOOOOOOOOOOO            oooooooooooooooooooooooo            OOOOOOOOOOOOOOOOOOOOOOOO",
"OOOOOOOOOOOOOOOOOO                  oooooooooooooooooooooooo                  OOOOOOOOOOOOOOOOOO",
"OOOOOOOOOOOOOOOOOO                  oooooooooooooooooooooooo                  OOOOOOOOOOOOOOOOOO",
"OOOOOOOOOOOOOOOOOO                  oooooooooooooooooooooooo                  OOOOOOOOOOOOOOOOOO",
"OOOOOOOOOOOOOOOOOO                  oooooooooooooooooooooooo                  OOOOOOOOOOOOOOOOOO",
"OOOOOOOOOOOOOOOOOO                  oooooooooooooooooooooooo                  OOOOOOOOOOOOOOOOOO",
"OOOOOOOOOOOOOOOOOO                  oooooooooooooooooooooooo                  OOOOOOOOOOOOOOOOOO",
"OOOOOOOOOOOOOOOOOO            ooooooooooooXXXXXXoooooooooooooooooo            OOOOOOOOOOOOOOOOOO",
"OOOOOOOOOOOOOOOOOO            ooooooooooooXXXXXXoooooooooooooooooo            OOOOOOOOOOOOOOOOOO",
"OOOOOOOOOOOOOOOOOO            ooooooooooooXXXXXXoooooooooooooooooo            OOOOOOOOOOOOOOOOOO",
"OOOOOOOOOOOOOOOOOO            ooooooooooooXXXXXXoooooooooooooooooo            OOOOOOOOOOOOOOOOOO",
"OOOOOOOOOOOOOOOOOO            ooooooooooooXXXXXXoooooooooooooooooo            OOOOOOOOOOOOOOOOOO",
"OOOOOOOOOOOOOOOOOO            ooooooooooooXXXXXXoooooooooooooooooo            OOOOOOOOOOOOOOOOOO",
"OOOOOOOOOOOOOOOOOO            oooooooooooooooooooooooooooooooooooo            OOOOOOOOOOOOOOOOOO",
"OOOOOOOOOOOOOOOOOO            oooooooooooooooooooooooooooooooooooo            OOOOOOOOOOOOOOOOOO",
"OOOOOOOOOOOOOOOOOO            oooooooooooooooooooooooooooooooooooo            OOOOOOOOOOOOOOOOOO",
"OOOOOOOOOOOOOOOOOO            oooooooooooooooooooooooooooooooooooo            OOOOOOOOOOOOOOOOOO",
"OOOOOOOOOOOOOOOOOO            oooooooooooooooooooooooooooooooooooo            OOOOOOOOOOOOOOOOOO",
"OOOOOOOOOOOOOOOOOO            oooooooooooooooooooooooooooooooooooo            OOOOOOOOOOOOOOOOOO",
"OOOOOOOOOOOO                  ooooooXXXXXXXXXXXXoooooooooooooooooo                  OOOOOOOOOOOO",
"OOOOOOOOOOOO                  ooooooXXXXXXXXXXXXoooooooooooooooooo                  OOOOOOOOOOOO",
"OOOOOOOOOOOO                  ooooooXXXXXXXXXXXXoooooooooooooooooo                  OOOOOOOOOOOO",
"OOOOOOOOOOOO                  ooooooXXXXXXXXXXXXoooooooooooooooooo                  OOOOOOOOOOOO",
"OOOOOOOOOOOO                  ooooooXXXXXXXXXXXXoooooooooooooooooo                  OOOOOOOOOOOO",
"OOOOOOOOOOOO                  ooooooXXXXXXXXXXXXoooooooooooooooooo                  OOOOOOOOOOOO",
"OOOOOOOOOOOO            XXXXXXooooooXXXXXXXXXXXXooooooooooooooooooXXXXXX            OOOOOOOOOOOO",
"OOOOOOOOOOOO            XXXXXXooooooXXXXXXXXXXXXooooooooooooooooooXXXXXX            OOOOOOOOOOOO",
"OOOOOOOOOOOO            XXXXXXooooooXXXXXXXXXXXXooooooooooooooooooXXXXXX            OOOOOOOOOOOO",
"OOOOOOOOOOOO            XXXXXXooooooXXXXXXXXXXXXooooooooooooooooooXXXXXX            OOOOOOOOOOOO",
"OOOOOOOOOOOO            XXXXXXooooooXXXXXXXXXXXXooooooooooooooooooXXXXXX            OOOOOOOOOOOO",
"OOOOOOOOOOOO            XXXXXXooooooXXXXXXXXXXXXooooooooooooooooooXXXXXX            OOOOOOOOOOOO",
"OOOOOOOOOOOO            XXXXXXooooooooooooooooooooooooooooooooooooXXXXXX            OOOOOOOOOOOO",
"OOOOOOOOOOOO            XXXXXXooooooooooooooooooooooooooooooooooooXXXXXX            OOOOOOOOOOOO",
"OOOOOOOOOOOO            XXXXXXooooooooooooooooooooooooooooooooooooXXXXXX            OOOOOOOOOOOO",
"OOOOOOOOOOOO            XXXXXXooooooooooooooooooooooooooooooooooooXXXXXX            OOOOOOOOOOOO",
"OOOOOOOOOOOO            XXXXXXooooooooooooooooooooooooooooooooooooXXXXXX            OOOOOOOOOOOO",
"OOOOOOOOOOOO            XXXXXXooooooooooooooooooooooooooooooooooooXXXXXX            OOOOOOOOOOOO",
"OOOOOOOOOOOO            XXXXXXXXXXXXooooooooooooooooooooooooXXXXXXXXXXXX            OOOOOOOOOOOO",
"OOOOOOOOOOOO            XXXXXXXXXXXXooooooooooooooooooooooooXXXXXXXXXXXX            OOOOOOOOOOOO",
"OOOOOOOOOOOO            XXXXXXXXXXXXooooooooooooooooooooooooXXXXXXXXXXXX            OOOOOOOOOOOO",
"OOOOOOOOOOOO            XXXXXXXXXXXXooooooooooooooooooooooooXXXXXXXXXXXX            OOOOOOOOOOOO",
"OOOOOOOOOOOO            XXXXXXXXXXXXooooooooooooooooooooooooXXXXXXXXXXXX            OOOOOOOOOOOO",
"OOOOOOOOOOOO            XXXXXXXXXXXXooooooooooooooooooooooooXXXXXXXXXXXX            OOOOOOOOOOOO",
"OOOOOOOOOOOO            XXXXXXXXXXXXXXXXXXXXXXXXXXXXXXXXXXXXXXXXXXXXXXXX            OOOOOOOOOOOO",
"OOOOOOOOOOOO            XXXXXXXXXXXXXXXXXXXXXXXXXXXXXXXXXXXXXXXXXXXXXXXX            OOOOOOOOOOOO",
"OOOOOOOOOOOO            XXXXXXXXXXXXXXXXXXXXXXXXXXXXXXXXXXXXXXXXXXXXXXXX            OOOOOOOOOOOO",
"OOOOOOOOOOOO            XXXXXXXXXXXXXXXXXXXXXXXXXXXXXXXXXXXXXXXXXXXXXXXX            OOOOOOOOOOOO",
"OOOOOOOOOOOO            XXXXXXXXXXXXXXXXXXXXXXXXXXXXXXXXXXXXXXXXXXXXXXXX            OOOOOOOOOOOO",
"OOOOOOOOOOOO            XXXXXXXXXXXXXXXXXXXXXXXXXXXXXXXXXXXXXXXXXXXXXXXX            OOOOOOOOOOOO",
"OOOOOOOOOOOO            XXXXXXXXXXXXXXXXXXXXXXXXXXXXXXXXXXXXooooooXXXXXX            OOOOOOOOOOOO",
"OOOOOOOOOOOO            XXXXXXXXXXXXXXXXXXXXXXXXXXXXXXXXXXXXooooooXXXXXX            OOOOOOOOOOOO",
"OOOOOOOOOOOO            XXXXXXXXXXXXXXXXXXXXXXXXXXXXXXXXXXXXooooooXXXXXX            OOOOOOOOOOOO",
"OOOOOOOOOOOO            XXXXXXXXXXXXXXXXXXXXXXXXXXXXXXXXXXXXooooooXXXXXX            OOOOOOOOOOOO",
"OOOOOOOOOOOO            XXXXXXXXXXXXXXXXXXXXXXXXXXXXXXXXXXXXooooooXXXXXX            OOOOOOOOOOOO",
"OOOOOOOOOOOO            XXXXXXXXXXXXXXXXXXXXXXXXXXXXXXXXXXXXooooooXXXXXX            OOOOOOOOOOOO",
"OOOOOOOOOOOO            XXXXXXXXXXXXXXXXXXXXXXXXXXXXXXXXXXXXXXXXXXXXXXXX            OOOOOOOOOOOO",
"OOOOOOOOOOOO            XXXXXXXXXXXXXXXXXXXXXXXXXXXXXXXXXXXXXXXXXXXXXXXX            OOOOOOOOOOOO",
"OOOOOOOOOOOO            XXXXXXXXXXXXXXXXXXXXXXXXXXXXXXXXXXXXXXXXXXXXXXXX            OOOOOOOOOOOO",
"OOOOOOOOOOOO            XXXXXXXXXXXXXXXXXXXXXXXXXXXXXXXXXXXXXXXXXXXXXXXX            OOOOOOOOOOOO",
"OOOOOOOOOOOO            XXXXXXXXXXXXXXXXXXXXXXXXXXXXXXXXXXXXXXXXXXXXXXXX            OOOOOOOOOOOO",
"OOOOOOOOOOOO            XXXXXXXXXXXXXXXXXXXXXXXXXXXXXXXXXXXXXXXXXXXXXXXX            OOOOOOOOOOOO",
"OOOOOOOOOOOO                  XXXXXXXXXXXXXXXXXXXXXXXXXXXXXXXXXXXX                  OOOOOOOOOOOO",
"OOOOOOOOOOOO                  XXXXXXXXXXXXXXXXXXXXXXXXXXXXXXXXXXXX                  OOOOOOOOOOOO",
"OOOOOOOOOOOO                  XXXXXXXXXXXXXXXXXXXXXXXXXXXXXXXXXXXX                  OOOOOOOOOOOO",
"OOOOOOOOOOOO                  XXXXXXXXXXXXXXXXXXXXXXXXXXXXXXXXXXXX                  OOOOOOOOOOOO",
"OOOOOOOOOOOO                  XXXXXXXXXXXXXXXXXXXXXXXXXXXXXXXXXXXX                  OOOOOOOOOOOO",
"OOOOOOOOOOOO                  XXXXXXXXXXXXXXXXXXXXXXXXXXXXXXXXXXXX                  OOOOOOOOOOOO",
"OOOOOOOOOOOOOOOOOO                        ............                        OOOOOOOOOOOOOOOOOO",
"OOOOOOOOOOOOOOOOOO                        ............                        OOOOOOOOOOOOOOOOOO",
"OOOOOOOOOOOOOOOOOO                        ............                        OOOOOOOOOOOOOOOOOO",
"OOOOOOOOOOOOOOOOOO                        ............                        OOOOOOOOOOOOOOOOOO",
"OOOOOOOOOOOOOOOOOO                        ............                        OOOOOOOOOOOOOOOOOO",
"OOOOOOOOOOOOOOOOOO                        ............                        OOOOOOOOOOOOOOOOOO"
};
