/* XPM */
static char *wall3[] = {
/* columns rows colors chars-per-pixel */
"96 96 4 1 ",
"  c #3F2631",
". c #479F4A",
"X c #84C669",
"o c None",
/* pixels */
"oooooooooooooooooooooooooooooooooooo                        oooooooooooooooooooooooooooooooooooo",
"oooooooooooooooooooooooooooooooooooo                        oooooooooooooooooooooooooooooooooooo",
"oooooooooooooooooooooooooooooooooooo                        oooooooooooooooooooooooooooooooooooo",
"oooooooooooooooooooooooooooooooooooo                        oooooooooooooooooooooooooooooooooooo",
"oooooooooooooooooooooooooooooooooooo                        oooooooooooooooooooooooooooooooooooo",
"oooooooooooooooooooooooooooooooooooo                        oooooooooooooooooooooooooooooooooooo",
"oooooooooooooooooooooooo                                                oooooooooooooooooooooooo",
"oooooooooooooooooooooooo                                                oooooooooooooooooooooooo",
"oooooooooooooooooooooooo                                                oooooooooooooooooooooooo",
"oooooooooooooooooooooooo                                                oooooooooooooooooooooooo",
"oooooooooooooooooooooooo                                                oooooooooooooooooooooooo",
"oooooooooooooooooooooooo                                                oooooooooooooooooooooooo",
"oooooooooooooooooo                        ............                        oooooooooooooooooo",
"oooooooooooooooooo                        ............                        oooooooooooooooooo",
"oooooooooooooooooo                        ............                        oooooooooooooooooo",
"oooooooooooooooooo                        ............                        oooooooooooooooooo",
"oooooooooooooooooo                        ............                        oooooooooooooooooo",
"oooooooooooooooooo                        ............                        oooooooooooooooooo",
"oooooooooooo                  XXXXXXXXXXXX............XXXXXXXXXXXX                  oooooooooooo",
"oooooooooooo                  XXXXXXXXXXXX............XXXXXXXXXXXX                  oooooooooooo",
"oooooooooooo                  XXXXXXXXXXXX............XXXXXXXXXXXX                  oooooooooooo",
"oooooooooooo                  XXXXXXXXXXXX............XXXXXXXXXXXX                  oooooooooooo",
"oooooooooooo                  XXXXXXXXXXXX............XXXXXXXXXXXX                  oooooooooooo",
"oooooooooooo                  XXXXXXXXXXXX............XXXXXXXXXXXX                  oooooooooooo",
"oooooooooooo            XXXXXXXXXXXXXXXXXXXXXXXXXXXXXXXXXXXXXXXXXXXXXXXX            oooooooooooo",
"oooooooooooo            XXXXXXXXXXXXXXXXXXXXXXXXXXXXXXXXXXXXXXXXXXXXXXXX            oooooooooooo",
"oooooooooooo            XXXXXXXXXXXXXXXXXXXXXXXXXXXXXXXXXXXXXXXXXXXXXXXX            oooooooooooo",
"oooooooooooo            XXXXXXXXXXXXXXXXXXXXXXXXXXXXXXXXXXXXXXXXXXXXXXXX            oooooooooooo",
"oooooooooooo            XXXXXXXXXXXXXXXXXXXXXXXXXXXXXXXXXXXXXXXXXXXXXXXX            oooooooooooo",
"oooooooooooo            XXXXXXXXXXXXXXXXXXXXXXXXXXXXXXXXXXXXXXXXXXXXXXXX            oooooooooooo",
"oooooo                  XXXXXXXXXXXXXXXXXXXXXXXXXXXXXXXXXXXXXXXXXXXXXXXX                  oooooo",
"oooooo                  XXXXXXXXXXXXXXXXXXXXXXXXXXXXXXXXXXXXXXXXXXXXXXXX                  oooooo",
"oooooo                  XXXXXXXXXXXXXXXXXXXXXXXXXXXXXXXXXXXXXXXXXXXXXXXX                  oooooo",
"oooooo                  XXXXXXXXXXXXXXXXXXXXXXXXXXXXXXXXXXXXXXXXXXXXXXXX                  oooooo",
"oooooo                  XXXXXXXXXXXXXXXXXXXXXXXXXXXXXXXXXXXXXXXXXXXXXXXX                  oooooo",
"oooooo                  XXXXXXXXXXXXXXXXXXXXXXXXXXXXXXXXXXXXXXXXXXXXXXXX                  oooooo",
"                  XXXXXXXXXXXXXXXXXXXXXXXXXXXXXXXXXXXXXXXXXXXXXXXXXXXXXXXXXXXX                  ",
"                  XXXXXXXXXXXXXXXXXXXXXXXXXXXXXXXXXXXXXXXXXXXXXXXXXXXXXXXXXXXX                  ",
"                  XXXXXXXXXXXXXXXXXXXXXXXXXXXXXXXXXXXXXXXXXXXXXXXXXXXXXXXXXXXX                  ",
"                  XXXXXXXXXXXXXXXXXXXXXXXXXXXXXXXXXXXXXXXXXXXXXXXXXXXXXXXXXXXX                  ",
"                  XXXXXXXXXXXXXXXXXXXXXXXXXXXXXXXXXXXXXXXXXXXXXXXXXXXXXXXXXXXX                  ",
"                  XXXXXXXXXXXXXXXXXXXXXXXXXXXXXXXXXXXXXXXXXXXXXXXXXXXXXXXXXXXX                  ",
"            XXXXXXXXXXXXXXXXXXXXXXXXXXXXXXXXXXXXXXXXXXXXXXXXXXXXXXXXXXXXXXXXXXXXXXXX            ",
"            XXXXXXXXXXXXXXXXXXXXXXXXXXXXXXXXXXXXXXXXXXXXXXXXXXXXXXXXXXXXXXXXXXXXXXXX            ",
"            XXXXXXXXXXXXXXXXXXXXXXXXXXXXXXXXXXXXXXXXXXXXXXXXXXXXXXXXXXXXXXXXXXXXXXXX            ",
"            XXXXXXXXXXXXXXXXXXXXXXXXXXXXXXXXXXXXXXXXXXXXXXXXXXXXXXXXXXXXXXXXXXXXXXXX            ",
"            XXXXXXXXXXXXXXXXXXXXXXXXXXXXXXXXXXXXXXXXXXXXXXXXXXXXXXXXXXXXXXXXXXXXXXXX            ",
"            XXXXXXXXXXXXXXXXXXXXXXXXXXXXXXXXXXXXXXXXXXXXXXXXXXXXXXXXXXXXXXXXXXXXXXXX            ",
"            XXXXXXXXXXXX............XXXXXXXXXXXXXXXXXXXXXXXXXXXXXXXXXXXXXXXXXXXXXXXX            ",
"            XXXXXXXXXXXX............XXXXXXXXXXXXXXXXXXXXXXXXXXXXXXXXXXXXXXXXXXXXXXXX            ",
"            XXXXXXXXXXXX............XXXXXXXXXXXXXXXXXXXXXXXXXXXXXXXXXXXXXXXXXXXXXXXX            ",
"            XXXXXXXXXXXX............XXXXXXXXXXXXXXXXXXXXXXXXXXXXXXXXXXXXXXXXXXXXXXXX            ",
"            XXXXXXXXXXXX............XXXXXXXXXXXXXXXXXXXXXXXXXXXXXXXXXXXXXXXXXXXXXXXX            ",
"            XXXXXXXXXXXX............XXXXXXXXXXXXXXXXXXXXXXXXXXXXXXXXXXXXXXXXXXXXXXXX            ",
"            XXXXXXXXXXXX............XXXXXXXXXXXXXXXXXX......XXXXXXXXXXXXXXXXXXXXXXXX            ",
"            XXXXXXXXXXXX............XXXXXXXXXXXXXXXXXX......XXXXXXXXXXXXXXXXXXXXXXXX            ",
"            XXXXXXXXXXXX............XXXXXXXXXXXXXXXXXX......XXXXXXXXXXXXXXXXXXXXXXXX            ",
"            XXXXXXXXXXXX............XXXXXXXXXXXXXXXXXX......XXXXXXXXXXXXXXXXXXXXXXXX            ",
"            XXXXXXXXXXXX............XXXXXXXXXXXXXXXXXX......XXXXXXXXXXXXXXXXXXXXXXXX            ",
"            XXXXXXXXXXXX............XXXXXXXXXXXXXXXXXX......XXXXXXXXXXXXXXXXXXXXXXXX            ",
"            ......XXXXXXXXXXXXXXXXXXXXXXXX......XXXXXXXXXXXXXXXXXXXXXXXXXXXXXX......            ",
"            ......XXXXXXXXXXXXXXXXXXXXXXXX......XXXXXXXXXXXXXXXXXXXXXXXXXXXXXX......            ",
"            ......XXXXXXXXXXXXXXXXXXXXXXXX......XXXXXXXXXXXXXXXXXXXXXXXXXXXXXX......            ",
"            ......XXXXXXXXXXXXXXXXXXXXXXXX......XXXXXXXXXXXXXXXXXXXXXXXXXXXXXX......            ",
"            ......XXXXXXXXXXXXXXXXXXXXXXXX......XXXXXXXXXXXXXXXXXXXXXXXXXXXXXX......            ",
"            ......XXXXXXXXXXXXXXXXXXXXXXXX......XXXXXXXXXXXXXXXXXXXXXXXXXXXXXX......            ",
"            ..................XXXXXXXXXXXXXXXXXXXXXXXXXXXXXXXXXXXX..................            ",
"            ..................XXXXXXXXXXXXXXXXXXXXXXXXXXXXXXXXXXXX..................            ",
"            ..................XXXXXXXXXXXXXXXXXXXXXXXXXXXXXXXXXXXX..................            ",
"            ..................XXXXXXXXXXXXXXXXXXXXXXXXXXXXXXXXXXXX..................            ",
"            ..................XXXXXXXXXXXXXXXXXXXXXXXXXXXXXXXXXXXX..................            ",
"            ..................XXXXXXXXXXXXXXXXXXXXXXXXXXXXXXXXXXXX..................            ",
"            ............................................................XXXXXX......            ",
"            ............................................................XXXXXX......            ",
"            ............................................................XXXXXX......            ",
"            ............................................................XXXXXX......            ",
"            ............................................................XXXXXX......            ",
"            ............................................................XXXXXX......            ",
"            ....................................XXXXXXXXXXXX........................            ",
"            ....................................XXXXXXXXXXXX........................            ",
"            ....................................XXXXXXXXXXXX........................            ",
"            ....................................XXXXXXXXXXXX........................            ",
"            ....................................XXXXXXXXXXXX........................            ",
"            ....................................XXXXXXXXXXXX........................            ",
"                  ..............................XXXXXXXXXXXX..................                  ",
"                  ..............................XXXXXXXXXXXX..................                  ",
"                  ..............................XXXXXXXXXXXX..................                  ",
"                  ..............................XXXXXXXXXXXX..................                  ",
"                  ..............................XXXXXXXXXXXX..................                  ",
"                  ..............................XXXXXXXXXXXX..................                  ",
"oooooo                        ....................................                        oooooo",
"oooooo                        ....................................                        oooooo",
"oooooo                        ....................................                        oooooo",
"oooooo                        ....................................                        oooooo",
"oooooo                        ....................................                        oooooo",
"oooooo                        ....................................                        oooooo"
};
