/* XPM */
static char *wooden_floor[] = {
/* columns rows colors chars-per-pixel */
"96 96 3 1 ",
"  c #65A556",
". c #84C669",
"X c #8BD87D",
/* pixels */
"................................................................................................",
"................................................................................................",
"................................................................................................",
"................................................................................................",
"................................................................................................",
"................................................................................................",
"............XXXXXXXXXXXX......XXXXXXXXXXXX......................................................",
"............XXXXXXXXXXXX......XXXXXXXXXXXX......................................................",
"............XXXXXXXXXXXX......XXXXXXXXXXXX......................................................",
"............XXXXXXXXXXXX......XXXXXXXXXXXX......................................................",
"............XXXXXXXXXXXX......XXXXXXXXXXXX......................................................",
"............XXXXXXXXXXXX......XXXXXXXXXXXX......................................................",
"............XXXXXXXXXXXX......XXXXXXXXXXXX......................................................",
"............XXXXXXXXXXXX......XXXXXXXXXXXX......................................................",
"............XXXXXXXXXXXX......XXXXXXXXXXXX......................................................",
"............XXXXXXXXXXXX......XXXXXXXXXXXX......................................................",
"............XXXXXXXXXXXX......XXXXXXXXXXXX......................................................",
"............XXXXXXXXXXXX......XXXXXXXXXXXX......................................................",
"............            ......            ......................................................",
"............            ......            ......................................................",
"............            ......            ......................................................",
"............            ......            ......................................................",
"............            ......            ......................................................",
"............            ......            ......................................................",
"........................      ..................................................................",
"........................      ..................................................................",
"........................      ..................................................................",
"........................      ..................................................................",
"........................      ..................................................................",
"........................      ..................................................................",
"................................................................................................",
"................................................................................................",
"................................................................................................",
"................................................................................................",
"................................................................................................",
"................................................................................................",
"....................................      ......      ..........................................",
"....................................      ......      ..........................................",
"....................................      ......      ..........................................",
"....................................      ......      ..........................................",
"....................................      ......      ..........................................",
"....................................      ......      ..........................................",
"..........................................      ................................................",
"..........................................      ................................................",
"..........................................      ................................................",
"..........................................      ................................................",
"..........................................      ................................................",
"..........................................      ................................................",
"................................................................................................",
"................................................................................................",
"................................................................................................",
"................................................................................................",
"................................................................................................",
"................................................................................................",
"................................................................................................",
"................................................................................................",
"................................................................................................",
"................................................................................................",
"................................................................................................",
"................................................................................................",
"................................................................................................",
"................................................................................................",
"................................................................................................",
"................................................................................................",
"................................................................................................",
"................................................................................................",
"............................................................XXXXXXXXXXXX......XXXXXXXXXXXX......",
"............................................................XXXXXXXXXXXX......XXXXXXXXXXXX......",
"............................................................XXXXXXXXXXXX......XXXXXXXXXXXX......",
"............................................................XXXXXXXXXXXX......XXXXXXXXXXXX......",
"............................................................XXXXXXXXXXXX......XXXXXXXXXXXX......",
"............................................................XXXXXXXXXXXX......XXXXXXXXXXXX......",
"......      ......      ....................................XXXXXXXXXXXX......XXXXXXXXXXXX......",
"......      ......      ....................................XXXXXXXXXXXX......XXXXXXXXXXXX......",
"......      ......      ....................................XXXXXXXXXXXX......XXXXXXXXXXXX......",
"......      ......      ....................................XXXXXXXXXXXX......XXXXXXXXXXXX......",
"......      ......      ....................................XXXXXXXXXXXX......XXXXXXXXXXXX......",
"......      ......      ....................................XXXXXXXXXXXX......XXXXXXXXXXXX......",
"............      ..........................................            ......            ......",
"............      ..........................................            ......            ......",
"............      ..........................................            ......            ......",
"............      ..........................................            ......            ......",
"............      ..........................................            ......            ......",
"............      ..........................................            ......            ......",
"........................................................................      ..................",
"........................................................................      ..................",
"........................................................................      ..................",
"........................................................................      ..................",
"........................................................................      ..................",
"........................................................................      ..................",
"................................................................................................",
"................................................................................................",
"................................................................................................",
"................................................................................................",
"................................................................................................",
"................................................................................................"
};
