/* XPM */
static char *UA0[] = {
/* columns rows colors chars-per-pixel */
"82 96 162 2 ",
"   c black",
".  c #010100",
"X  c #030201",
"o  c #040201",
"O  c #050302",
"+  c #020305",
"@  c #030306",
"#  c #030406",
"$  c #080503",
"%  c #0A0604",
"&  c #0B0704",
"*  c #0C0704",
"=  c #0D0805",
"-  c #0F0905",
";  c #05060B",
":  c #06070C",
">  c #07080E",
",  c #09090C",
"<  c #0F0F0E",
"1  c #100A06",
"2  c #100B07",
"3  c #130B07",
"4  c #110C07",
"5  c #130C07",
"6  c #150D07",
"7  c #140E08",
"8  c #170E08",
"9  c #110E0F",
"0  c #1A1009",
"q  c #090B13",
"w  c #0B0C16",
"e  c #0B0D18",
"r  c #0C0E19",
"t  c #0A0F1C",
"y  c #181212",
"u  c #20150D",
"i  c #22150C",
"p  c #22170E",
"a  c #23170E",
"s  c #24160D",
"d  c #25160D",
"f  c #26170E",
"g  c #27180E",
"h  c #26190F",
"j  c #29190F",
"k  c #291B10",
"l  c #2D1C10",
"z  c #2D1C11",
"x  c #2E1C11",
"c  c #2E1F13",
"v  c #2A1C18",
"b  c #301D11",
"n  c #331F12",
"m  c #342315",
"M  c #382214",
"N  c #3A2315",
"B  c #3C2516",
"V  c #37271F",
"C  c #3C2818",
"Z  c #3D2919",
"A  c #071020",
"S  c #171E31",
"D  c #272523",
"F  c #292A2D",
"G  c #2D2E32",
"H  c #303135",
"J  c #402717",
"K  c #412717",
"L  c #412818",
"P  c #422918",
"I  c #452B19",
"U  c #452B1A",
"Y  c #432C1B",
"T  c #462C1A",
"R  c #462D1B",
"E  c #472D1B",
"W  c #492E1C",
"Q  c #492F1C",
"!  c #4A2F1C",
"~  c #49301D",
"^  c #4C311D",
"/  c #4D311F",
"(  c #4D331F",
")  c #4E321E",
"_  c #4E331E",
"`  c #4F331F",
"'  c #50341F",
"]  c #513520",
"[  c #523620",
"{  c #523621",
"}  c #533621",
"|  c #543724",
" . c #543822",
".. c #553822",
"X. c #573A23",
"o. c #563825",
"O. c #503A2B",
"+. c #5F4028",
"@. c #5B4131",
"#. c #5E4332",
"$. c #58453C",
"%. c #60402C",
"&. c #614431",
"*. c #654430",
"=. c #6B4931",
"-. c #6B4933",
";. c #674A38",
":. c #694B39",
">. c #755137",
",. c #79543A",
"<. c #0F2349",
"1. c #10264E",
"2. c #112853",
"3. c #142A54",
"4. c #2B385C",
"5. c #17366E",
"6. c #1E3F78",
"7. c #294175",
"8. c #474441",
"9. c #4D4A46",
"0. c #424348",
"q. c #5D4D45",
"w. c #504E4D",
"e. c #4D4F55",
"r. c #585450",
"t. c #795742",
"y. c #805840",
"u. c #8A6146",
"i. c #8A624A",
"p. c #92674B",
"a. c #91664C",
"s. c #986D52",
"d. c #A27356",
"f. c #A67659",
"g. c #A7775A",
"h. c #A8785A",
"j. c #A8785B",
"k. c #AC7B5D",
"l. c #1B3F82",
"z. c #1D438A",
"x. c #2E4C84",
"c. c #214B94",
"v. c #23519C",
"b. c #355C98",
"n. c #2556A2",
"m. c #285BA8",
"M. c #285CA9",
"N. c #295EAC",
"B. c #2B63B2",
"V. c #2C65B5",
"C. c #888584",
"Z. c #908E95",
"A. c #9F9A9A",
"S. c #AFA89F",
"D. c #A4A8B5",
"F. c #BEBCBD",
"G. c #C1BEBE",
"H. c #C5C1C0",
"J. c #C8C3C1",
"K. c #D3CCC4",
"L. c #DBD2C7",
"P. c None",
/* pixels */
"P.P.P.P.P.P.P.P.P.P.P.P.P.P.P.P.P.P.P.P.P.P.P.P.                    P.P.P.P.P.                                      P.P.P.P.P.P.P.P.P.P.P.P.P.P.P.P.P.P.P.P.P.P.P.P.",
"P.P.P.P.P.P.P.P.P.P.P.P.P.P.P.P.P.P.P.P.P.P.P.P.                    P.P.P.P.P.                                      P.P.P.P.P.P.P.P.P.P.P.P.P.P.P.P.P.P.P.P.P.P.P.P.",
"P.P.P.P.P.P.P.P.P.P.P.P.P.P.P.P.P.P.P.P.P.P.P.P.                    P.P.P.P.P.                                      P.P.P.P.P.P.P.P.P.P.P.P.P.P.P.P.P.P.P.P.P.P.P.P.",
"P.P.P.P.P.P.P.P.P.P.P.P.P.P.P.P.P.P.P.P.P.P.P.P.                    P.P.P.P.P.                                      P.P.P.P.P.P.P.P.P.P.P.P.P.P.P.P.P.P.P.P.P.P.P.P.",
"P.P.P.P.P.P.P.P.P.P.P.P.P.P.P.P.P.P.P.P.P.P.P.P.        . 4 4 4 4 2 P.P.P.P.% = = = = 1 4 4 4 4 4 4 4 4 4 .         P.P.P.P.P.P.P.P.P.P.P.P.P.P.P.P.P.P.P.P.P.P.P.P.",
"P.P.P.P.P.P.P.P.P.P.P.P.P.P.                            O X.X.X.X.Y         0 J J J J ) X.X.X.X.X.X.X.X.X.O         P.P.P.P.P.P.P.P.P.P.P.P.P.P.P.P.P.P.P.P.P.P.P.P.",
"P.P.P.P.P.P.P.P.P.P.P.P.P.P.                            O X.X.X.X.Y         0 J J J J ) X.X.X.X.X.X.X.X.X.O         P.P.P.P.P.P.P.P.P.P.P.P.P.P.P.P.P.P.P.P.P.P.P.P.",
"P.P.P.P.P.P.P.P.P.P.P.P.P.P.                            O X.X.X.X.Y         0 J J J J ) X.X.X.X.X.X.X.X.X.O         P.P.P.P.P.P.P.P.P.P.P.P.P.P.P.P.P.P.P.P.P.P.P.P.",
"P.P.P.P.P.P.P.P.P.P.P.P.P.P.                            O X.X.X.X.Y         0 J J J J ) X.X.X.X.X.X.X.X.X.O         P.P.P.P.P.P.P.P.P.P.P.P.P.P.P.P.P.P.P.P.P.P.P.P.",
"P.P.P.P.P.P.P.P.P.P.P.P.P.P.5 0 0 0 0 u a a a a a a a a h X.X.X.X.~ 0 0 0 0 z Q Q Q Q ] X.X.X.X.C m m m m X         P.P.P.P.P.P.P.P.P.P.P.P.P.P.P.P.P.P.P.P.P.P.P.P.",
"P.P.P.P.P.P.P.P.P.P.        i J J J J ' X.X.X.X.X.X.X.X.X.X.X.X.X.[ J J J J Q X.X.X.X.X.X.X.X.X.7                   P.P.P.P.P.P.P.P.P.P.P.P.P.P.P.P.P.P.P.P.P.P.P.P.",
"P.P.P.P.P.P.P.P.P.P.        i J J J J ' X.X.X.X.X.X.X.X.X.X.X.X.X.[ J J J J Q X.X.X.X.X.X.X.X.X.7                   P.P.P.P.P.P.P.P.P.P.P.P.P.P.P.P.P.P.P.P.P.P.P.P.",
"P.P.P.P.P.P.P.P.P.P.        i J J J J ' X.X.X.X.X.X.X.X.X.X.X.X.X.[ J J J J Q X.X.X.X.X.X.X.X.X.7                   P.P.P.P.P.P.P.P.P.P.P.P.P.P.P.P.P.P.P.P.P.P.P.P.",
"P.P.P.P.P.P.P.P.P.P.        i J J J J ' X.X.X.X.X.X.X.X.X.X.X.X.X.[ J J J J Q X.X.X.X.X.X.X.X.X.7                   P.P.P.P.P.P.P.P.P.P.P.P.P.P.P.P.P.P.P.P.P.P.P.P.",
"P.P.P.P.P.P.P.P.P.P.        k ) ) ) )  .X.X.X.X.X.X.X.X.X.X.X.X.X...) ) ) ) [ X.X.X.X.X.X.X.X.X.C m m m m g f f f s         P.P.P.P.P.P.P.P.P.P.P.P.P.P.P.P.P.P.P.P.",
"P.P.P.P.P.P.P.P.P.P.        c X.X.X.X.X.X.X.X.X.X.X.X.X.X.X.X.X.X.X.X.X.X.X.X.X.X.X.X.X.X.X.X.X.X.X.X.X.X.L J J J M           P.P.P.P.P.P.P.P.P.P.P.P.P.P.P.P.P.P.P.",
"P.P.P.P.P.P.P.P.P.P.        c X.X.X.X.X.X.X.X.X.X.X.X.X.X.X.X.X.X.X.X.X.X.X.X.X.X.X.X.X.X.X.X.X.X.X.X.X.X.L J J J M           P.P.P.P.P.P.P.P.P.P.P.P.P.P.P.P.P.P.P.",
"P.P.P.P.P.P.P.P.P.P.        c X.X.X.X.X.X.X.X.X.X.X.X.X.X.X.X.X.X.X.X.X.X.X.X.X.X.X.X.X.X.X.X.X.X.X.X.X.X.L J J J M           P.P.P.P.P.P.P.P.P.P.P.P.P.P.P.P.P.P.P.",
"P.P.P.P.P.P.P.P.P.P.        c X.X.X.X.X.X.X.X.X.X.X.X.X.X.X.X.X.X.X.X.X.X.X.X.X.X.X.X.X.X.X.X.X.X.X.X.X.X.L J J J M           P.P.P.P.P.P.P.P.P.P.P.P.P.P.P.P.P.P.P.",
"P.P.P.P.P.        6 n n n n R X.X.X.X.X.X.X.X.X.X.X.X.X.X.X.X.X.X.X.X.X.X.X.X.X.X.X.X.X.X.X.X.X.X.X.X.X.X.} { { { ` n n n n f         P.P.P.P.P.P.P.P.P.P.P.P.P.P.P.",
"P.P.P.P.P.        8 J J J J ^ X.X.X.X.X.X.X.X.X.X.X.X.X.X.X.X.X.X.X.X.X.X.X.X.X.X.X.X.X.X.X.X.X.X.X.X.X.X.X.X.X.X. .J J J J l           P.P.P.P.P.P.P.P.P.P.P.P.P.P.",
"P.P.P.P.P.        8 J J J J ^ X.X.X.X.X.X.X.X.X.X.X.X.X.X.X.X.X.X.X.X.X.X.X.X.X.X.X.X.X.X.X.X.X.X.X.X.X.X.X.X.X.X. .J J J J l           P.P.P.P.P.P.P.P.P.P.P.P.P.P.",
"P.P.P.P.P.        8 J J J J ^ X.X.X.X.X.X.X.X.X.X.X.X.X.X.X.X.X.X.X.X.X.X.X.X.X.X.X.X.X.X.X.X.X.X.X.X.X.X.X.X.X.X. .J J J J l           P.P.P.P.P.P.P.P.P.P.P.P.P.P.",
"P.P.P.P.P.        8 J J J J ^ X.X.X.X.X.X.X.X.X.X.X.X.X.X.X.X.X.X.X.X.X.X.X.X.X.X.X.X.X.X.X.X.X.X.X.X.X.X.X.X.X.X. .J J J J l           P.P.P.P.P.P.P.P.P.P.P.P.P.P.",
"P.P.P.P.P.        8 J J J J ^ X.X.X.X.X.X.X.X.X.X.X.X.X.X.X.X.X.X.X.X.X.X.X.X.X.X.X.X.X.X.X.X.X.X.X.X.X.X.X.X.X.X. .J J J J l           P.P.P.P.P.P.P.P.P.P.P.P.P.P.",
"P.P.P.P.P.        8 J J J J ^ X.X.X.X.X.X.X.X.X.X.X.X.X.X.X.X.X.X.X.X.X.X.X.X.X.X.X.X.X.X.X.X.X.X.X.X.X.X.X.X.X.X. .J J J J l           P.P.P.P.P.P.P.P.P.P.P.P.P.P.",
"P.P.P.P.P.        8 J J J J ^ X.X.X.X.X.X.X.X.X.X.X.X.X.X.X.X.X.X.X.X.X.X.X.X.X.X.X.X.X.X.X.X.X.X.X.X.X.X.X.X.X.X. .J J J J l           P.P.P.P.P.P.P.P.P.P.P.P.P.P.",
"P.P.P.P.P.        8 J J J J ^ X.X.X.X.X.X.X.X.X.X.X.X.X.X.X.X.X.X.X.X.X.X.X.X.X.X.X.X.X.X.X.X.X.X.X.X.X.X.X.X.X.X. .J J J J l           P.P.P.P.P.P.P.P.P.P.P.P.P.P.",
"P.P.P.P.P.        8 J J J J ^ X.X.X.X.X.X.X.X.X.X.X.X.X.X.X.X.X.X.X.X.X.X.X.X.X.X.X.X.X.X.X.X.X.X.X.X.X.X.X.X.X.X. .J J J J l           P.P.P.P.P.P.P.P.P.P.P.P.P.P.",
"P.P.P.P.P.        8 J J J J ^ X.X.X.X.X.X.X.X.X.X.X.X.X.X.X.X.X.X.X.X.X.X.X.X.X.X.X.X.X.X.X.X.X.X.X.X.X.X.X.X.X.X. .J J J J l           P.P.P.P.P.P.P.P.P.P.P.P.P.P.",
"P.P.P.P.P.        8 J J J J ^ X.X.X.X.X.X.X.X.X.X.X.X.X.X.X.X.X.X.X.X.X.X.X.X.X.X.X.X.X.X.X.X.X.X.X.X.X.X.X.X.X.X. .J J J J l           P.P.P.P.P.P.P.P.P.P.P.P.P.P.",
"P.P.P.P.P.        8 J J J J ^ X.X.X.X.X.X.X.X.X.X.X.X.X.X.X.X.X.X.X.X.X.X.X.X.X.X.X.X.X.X.X.X.X.X.X.X.X.X.X.X.X.X. .J J J J l           P.P.P.P.P.P.P.P.P.P.P.P.P.P.",
"P.P.P.P.P.        8 J J J J ^ X.X.X.X.X.X.X.X.X.X.X.X.X.X.X.X.X.X.X.X.X.X.X.X.X.X.X.X.X.X.X.X.X.X.X.X.X.X.X.X.X.X. .J J J J l           P.P.P.P.P.P.P.P.P.P.P.P.P.P.",
"P.P.P.P.P.        8 J J J J E ) ) ) )  .X.X.X.X.X.X.X.X.X.X.X.X.X.X.X.X.X.X.X.X.X.X.X.X.X.X.X.X.X.X.X.X.X._ ) ) ) ^ J J J J l           P.P.P.P.P.P.P.P.P.P.P.P.P.P.",
"P.P.P.P.P.        8 J J J J J J J J J ' X.X.X.X.X.X.X.X.X.X.X.X.X.X.X.X.X.X.X.X.X.X.X.X.X.X.X.X.X.X.X.X.X.L J J J J J J J J l           P.P.P.P.P.P.P.P.P.P.P.P.P.P.",
"P.P.P.P.P.        8 J J J J J J J J J ' X.X.X.X.X.X.X.X.X.X.X.X.X.X.X.X.X.X.X.X.X.X.X.X.X.X.X.X.X.X.X.X.X.L J J J J J J J J l           P.P.P.P.P.P.P.P.P.P.P.P.P.P.",
"P.P.P.P.P.        8 J J J J J J J J J ' X.X.X.X.X.X.X.X.X.X.X.X.X.X.X.X.X.X.X.X.X.X.X.X.X.X.X.X.X.X.X.X.X.L J J J J J J J J l           P.P.P.P.P.P.P.P.P.P.P.P.P.P.",
"P.P.P.P.P.        8 J J J J J J J J J ' X.X.X.X.X.X.X.X.X.X.X.X.X.X.X.X.X.X.X.X.X.X.X.X.X.X.X.X.X.X.X.X.X.L J J J J J J J J l           P.P.P.P.P.P.P.P.P.P.P.P.P.P.",
"P.P.P.P.P.P.P.P.P.- 0 0 0 0 x J J J J T Q Q Q Q Q Q Q Q ! X.X.X.X.X.X.X.X.X.X.X.X.X.X.` Q Q Q Q Q Q Q Q Q K J J J J J J J J l           P.P.P.P.P.P.P.P.P.P.P.P.P.P.",
"P.P.P.P.P.P.P.P.P.P.        i J J J J J J J J J J J J J L X.X.X.X.X.X.X.X.X.X.X.X.X.X.Q J J J J J J J J J J J J J J J J J J l           P.P.P.P.P.P.P.P.P.P.P.P.P.P.",
"P.P.P.P.P.P.P.P.P.P.        i J J J J J J J J J J J J J L X.X.X.X.X.X.X.X.X.X.X.X.X.X.Q J J J J J J J J J J J J J J J J J J l           P.P.P.P.P.P.P.P.P.P.P.P.P.P.",
"P.P.P.P.P.P.P.P.P.P.        i J J J J J J J J J J J J J L X.X.X.X.X.X.X.X.X.X.X.X.X.X.Q J J J J J J J J J J J J J J J J J J l           P.P.P.P.P.P.P.P.P.P.P.P.P.P.",
"P.P.P.P.P.P.P.P.P.P.        i J J J J J J J J J J J J J L X.X.X.X.X.X.X.X.X.X.X.X.X.X.Q J J J J J J J J J J J J J J J J J J l           P.P.P.P.P.P.P.P.P.P.P.P.P.P.",
"P.P.P.P.P.P.P.P.P.P.        i J J J J J J J J J J J J J J I I I I I I I I I I I I I I P J J J J J J J J J J J J J N = = = = * P.P.P.P.P.P.P.P.P.P.P.P.P.P.P.P.P.P.P.",
"P.P.P.P.P.P.P.P.P.P.        i J J J J J J J J J J J J J J J J J J J J J J J J J J J J J J J J J J J J J J J J J J M           P.P.P.P.P.P.P.P.P.P.P.P.P.P.P.P.P.P.P.",
"P.P.P.P.P.P.P.P.P.P.        i J J J J J J J J J J J J J J J J J J J J J J J J J J J J J J J J J J J J J J J J J J M           P.P.P.P.P.P.P.P.P.P.P.P.P.P.P.P.P.P.P.",
"P.P.P.P.P.P.P.P.P.P.        i J J J J J J J J J J J J J J J J J J J J J J J J J J J J J J J J J J J J J J J J J J M           P.P.P.P.P.P.P.P.P.P.P.P.P.P.P.P.P.P.P.",
"P.P.P.P.P.P.P.P.P.P.        i J J J J J J J J J J J J J J J J J J J J J J J J J J J J J J J J J J J J J J J J J J M           P.P.P.P.P.P.P.P.P.P.P.P.P.P.P.P.P.P.P.",
"P.P.P.P.P.P.P.P.P.P.        @.k.k.k.k.%.J J J J J J J J J J J J J J J J J J J J J J J J J J J J J J J J J f.k.k.k.s.                    P.P.P.P.P.P.P.P.P.P.P.P.P.P.",
"P.P.P.P.P.P.P.P.P.P.        @.k.k.k.k.%.J J J J J J J J J J J J J J J J J J J J J J J J J J J J J J J J J f.k.k.k.s.                    P.P.P.P.P.P.P.P.P.P.P.P.P.P.",
"P.P.P.P.P.P.P.P.P.P.        @.k.k.k.k.%.J J J J J J J J J J J J J J J J J J J J J J J J J J J J J J J J J f.k.k.k.s.                    P.P.P.P.P.P.P.P.P.P.P.P.P.P.",
"P.P.P.P.P.P.P.P.P.P.        @.k.k.k.k.%.J J J J J J J J J J J J J J J J J J J J J J J J J J J J J J J J J f.k.k.k.s.                    P.P.P.P.P.P.P.P.P.P.P.P.P.P.",
"P.P.P.P.P.P.P.P.P.P.        O.i.i.i.i.*.o.o.o.o.o.o.o.o.| J J J J J J J J J J J J J J / o.o.o.o.o.o.o.o.o.g.k.k.k.s.        o = = = = & P.P.P.P.P.P.P.P.P.P.P.P.P.P.",
"P.P.P.P.P.P.P.P.P.P.P.P.P.P.          t.k.k.k.k.k.k.k.k.f.J J J J J J J J J J J J J J y.k.k.k.k.k.k.k.k.k.k.k.k.k.s.        3 J J J J i         P.P.P.P.P.P.P.P.P.P.",
"P.P.P.P.P.P.P.P.P.P.P.P.P.P.          t.k.k.k.k.k.k.k.k.f.J J J J J J J J J J J J J J y.k.k.k.k.k.k.k.k.k.k.k.k.k.s.        3 J J J J i         P.P.P.P.P.P.P.P.P.P.",
"P.P.P.P.P.P.P.P.P.P.P.P.P.P.          t.k.k.k.k.k.k.k.k.f.J J J J J J J J J J J J J J y.k.k.k.k.k.k.k.k.k.k.k.k.k.s.        3 J J J J i         P.P.P.P.P.P.P.P.P.P.",
"P.P.P.P.P.P.P.P.P.P.P.P.P.P.          t.k.k.k.k.k.k.k.k.f.J J J J J J J J J J J J J J y.k.k.k.k.k.k.k.k.k.k.k.k.k.s.        3 J J J J i         P.P.P.P.P.P.P.P.P.P.",
"P.P.P.P.P.P.P.P.P.P.P.P.P.P.          &.u.u.u.u.h.k.k.k.j.-.-.-.-.-.-.-.-.-.-.-.-.-.-.a.k.k.k.k.p.u.u.u.u.:.;.;.;.#.0 0 0 0 d J J J J i         P.P.P.P.P.P.P.P.P.P.",
"P.P.P.P.P.P.P.P.P.P.P.P.P.P.          Z X.X.X.X.d.k.k.k.k.k.k.k.k.k.k.k.k.k.k.k.k.k.k.k.k.k.k.k.=.X.X.X.X.O       $ J J J J J J J J J i         P.P.P.P.P.P.P.P.P.P.",
"P.P.P.P.P.P.P.P.P.P.P.P.P.P.          Z X.X.X.X.d.k.k.k.k.k.k.k.k.k.k.k.k.k.k.k.k.k.k.k.k.k.k.k.=.X.X.X.X.O       $ J J J J J J J J J i         P.P.P.P.P.P.P.P.P.P.",
"P.P.P.P.P.P.P.P.P.P.P.P.P.P.          Z X.X.X.X.d.k.k.k.k.k.k.k.k.k.k.k.k.k.k.k.k.k.k.k.k.k.k.k.=.X.X.X.X.O       $ J J J J J J J J J i         P.P.P.P.P.P.P.P.P.P.",
"P.P.P.P.P.P.P.P.P.P.P.P.P.P.          Z X.X.X.X.d.k.k.k.k.k.k.k.k.k.k.k.k.k.k.k.k.k.k.k.k.k.k.k.=.X.X.X.X.O       $ J J J J J J J J J i         P.P.P.P.P.P.P.P.P.P.",
"P.P.P.P.P.P.P.P.P.P.        p m m m m ( X.X.X.X.>.,.,.,.,.,.,.,.,.,.,.,.,.,.,.,.,.,.,.,.,.,.,.,.+.X.X.X.X.j f f f j J J J J J J J J J i         P.P.P.P.P.P.P.P.P.P.",
"P.P.P.P.P.P.P.P.P.P.        c X.X.X.X.X.X.X.X.X.X.X.X.X.X.X.X.X.X.X.X.X.X.X.X.X.X.X.X.X.X.X.X.X.X.X.X.X.X.L J J J J J J J J J J J J J i         P.P.P.P.P.P.P.P.P.P.",
"P.P.P.P.P.P.P.P.P.P.        c X.X.X.X.X.X.X.X.X.X.X.X.X.X.X.X.X.X.X.X.X.X.X.X.X.X.X.X.X.X.X.X.X.X.X.X.X.X.L J J J J J J J J J J J J J i         P.P.P.P.P.P.P.P.P.P.",
"P.P.P.P.P.P.P.P.P.P.        c X.X.X.X.X.X.X.X.X.X.X.X.X.X.X.X.X.X.X.X.X.X.X.X.X.X.X.X.X.X.X.X.X.X.X.X.X.X.L J J J J J J J J J J J J J i         P.P.P.P.P.P.P.P.P.P.",
"P.P.P.P.P.P.P.P.P.P.        c X.X.X.X.X.X.X.X.X.X.X.X.X.X.X.X.X.X.X.X.X.X.X.X.X.X.X.X.X.X.X.X.X.X.X.X.X.X.L J J J J J J J J J J J J J i         P.P.P.P.P.P.P.P.P.P.",
"P.P.P.P.P.P.P.P.P.P.        c X.X.X.X.X.X.X.X.X.X.X.X.X.X.X.X.X.X.X.X.X.X.X.X.X.X.X.X.X.X.X.X.X.W I I I I J J J J J J J J J $.Z.Z.Z.Z.A.S.S.S.S.8.        P.P.P.P.P.",
"P.P.P.P.P.P.P.P.P.P.        c X.X.X.X.X.X.X.X.X.X.X.X.X.X.X.X.X.X.X.X.X.X.X.X.X.X.X.X.X.X.X.X.X.U J J J J J J J J J J J J J q.D.D.D.D.F.L.L.L.L.9.        P.P.P.P.P.",
"P.P.P.P.P.P.P.P.P.P.        c X.X.X.X.X.X.X.X.X.X.X.X.X.X.X.X.X.X.X.X.X.X.X.X.X.X.X.X.X.X.X.X.X.U J J J J J J J J J J J J J q.D.D.D.D.F.L.L.L.L.9.        P.P.P.P.P.",
"P.P.P.P.P.P.P.P.P.P.        c X.X.X.X.X.X.X.X.X.X.X.X.X.X.X.X.X.X.X.X.X.X.X.X.X.X.X.X.X.X.X.X.X.U J J J J J J J J J J J J J q.D.D.D.D.F.L.L.L.L.9.        P.P.P.P.P.",
"P.P.P.P.P.P.P.P.P.P.        c X.X.X.X.X.X.X.X.X.X.X.X.X.X.X.X.X.X.X.X.X.X.X.X.X.X.X.X.X.X.X.X.X.U J J J J J J J J J J J J J q.D.D.D.D.F.L.L.L.L.9.        P.P.P.P.P.",
"P.P.P.P.P.P.P.P.P.P.        <.z.z.z.z.m.V.V.V.V.V.V.V.V.B.z.z.z.z.c.V.V.V.V.V.V.V.V.V.v.z.z.z.z.A         B J J J M         H D.D.D.D.F.L.L.L.L.L.L.L.L.L.D         ",
"P.P.P.P.P.P.P.P.P.P.        <.z.z.z.z.m.V.V.V.V.V.V.V.V.B.z.z.z.z.c.V.V.V.V.V.V.V.V.V.v.z.z.z.z.A         B J J J M         H D.D.D.D.F.L.L.L.L.L.L.L.L.L.D         ",
"P.P.P.P.P.P.P.P.P.P.        <.z.z.z.z.m.V.V.V.V.V.V.V.V.B.z.z.z.z.c.V.V.V.V.V.V.V.V.V.v.z.z.z.z.A         B J J J M         H D.D.D.D.F.L.L.L.L.L.L.L.L.L.D         ",
"P.P.P.P.P.P.P.P.P.P.        <.z.z.z.z.m.V.V.V.V.V.V.V.V.B.z.z.z.z.c.V.V.V.V.V.V.V.V.V.v.z.z.z.z.A         B J J J M         H D.D.D.D.F.L.L.L.L.L.L.L.L.L.D         ",
"P.P.P.P.P.P.P.P.P.P.        <.z.z.z.z.n.N.N.N.N.N.N.N.N.M.5.5.5.5.6.b.b.b.b.b.b.b.b.b.x.7.7.7.7.t         b n n n l         F D.D.D.D.G.L.L.L.L.L.L.L.L.L.D         ",
"P.P.P.P.P.r r r r :         <.z.z.z.z.z.z.z.z.z.z.z.z.z.l.        7 X.X.X.X.X.X.X.X.X.X.X.X.X.X.7                             P.P.P.P.P.L.L.L.L.L.L.L.L.L.D         ",
"P.P.P.P.P.r r r r :         <.z.z.z.z.z.z.z.z.z.z.z.z.z.l.        7 X.X.X.X.X.X.X.X.X.X.X.X.X.X.7                             P.P.P.P.P.L.L.L.L.L.L.L.L.L.D         ",
"P.P.P.P.P.r r r r :         <.z.z.z.z.z.z.z.z.z.z.z.z.z.l.        7 X.X.X.X.X.X.X.X.X.X.X.X.X.X.7                             P.P.P.P.P.L.L.L.L.L.L.L.L.L.D         ",
"P.P.P.P.P.r r r r :         <.z.z.z.z.z.z.z.z.z.z.z.z.z.l.        7 X.X.X.X.X.X.X.X.X.X.X.X.X.X.7                             P.P.P.P.P.L.L.L.L.L.L.L.L.L.D         ",
"P.P.P.P.P.r r r r :         S 4.4.4.4.4.4.4.4.4.3.2.2.2.1.        7 X.X.X.X.X.X.X.X.X.X.X.X.X.X.7         @ # # # # # # # # + P.P.P.P.C.H.H.H.H.K.L.L.L.L.D         ",
"r r r r r r r r r :         i J J J J J J J J J $                 7 X.X.X.X.X.X.X.X.X.X.X.X.X.X.7         w r r r r r r r r >         e.D.D.D.D.J.L.L.L.L.D         ",
"r r r r r r r r r :         i J J J J J J J J J $                 7 X.X.X.X.X.X.X.X.X.X.X.X.X.X.7         w r r r r r r r r >         e.D.D.D.D.J.L.L.L.L.D         ",
"r r r r r r r r r :         i J J J J J J J J J $                 7 X.X.X.X.X.X.X.X.X.X.X.X.X.X.7         w r r r r r r r r >         e.D.D.D.D.J.L.L.L.L.D         ",
"r r r r r r r r r :         i J J J J J J J J J $                 7 X.X.X.X.X.X.X.X.X.X.X.X.X.X.7         w r r r r r r r r >         e.D.D.D.D.J.L.L.L.L.D         ",
"r r r r r r r r r q ; ; ; ; y v v v v v v v v v , ; ; ; ; ; ; ; ; 9 V V V V V V V V V V V V V V 9 ; ; ; ; e r r r r r r r r P.P.P.P.P.G 0.0.0.0.w.r.r.r.r.<         ",
"r r r r r r r r r r r r r r r r r r r r r r r r r r r r r r r r r r r r r r r r r r r r r r r r r r r r r r r r r r r r r r P.P.P.P.P.P.                            ",
"r r r r r r r r r r r r r r r r r r r r r r r r r r r r r r r r r r r r r r r r r r r r r r r r r r r r r r r r r r r r r r P.P.P.P.P.P.                            ",
"r r r r r r r r r r r r r r r r r r r r r r r r r r r r r r r r r r r r r r r r r r r r r r r r r r r r r r r r r r r r r r P.P.P.P.P.P.                            ",
"r r r r r r r r r r r r r r r r r r r r r r r r r r r r r r r r r r r r r r r r r r r r r r r r r r r r r r r r r r r r r r P.P.P.P.P.P.                            ",
"P.P.P.P.P.r r r r r r r r r r r r r r r r r r r r r r r r r r r r r r r r r r r r r r r r r r r r r r r r r r r r P.P.P.P.P.P.P.P.P.P.P.P.P.P.P.P.P.P.P.P.P.P.P.P.P.",
"P.P.P.P.P.r r r r r r r r r r r r r r r r r r r r r r r r r r r r r r r r r r r r r r r r r r r r r r r r r r r r P.P.P.P.P.P.P.P.P.P.P.P.P.P.P.P.P.P.P.P.P.P.P.P.P.",
"P.P.P.P.P.r r r r r r r r r r r r r r r r r r r r r r r r r r r r r r r r r r r r r r r r r r r r r r r r r r r r P.P.P.P.P.P.P.P.P.P.P.P.P.P.P.P.P.P.P.P.P.P.P.P.P.",
"P.P.P.P.P.r r r r r r r r r r r r r r r r r r r r r r r r r r r r r r r r r r r r r r r r r r r r r r r r r r r r P.P.P.P.P.P.P.P.P.P.P.P.P.P.P.P.P.P.P.P.P.P.P.P.P.",
"P.P.P.P.P.r r r r r r r r r r r r r r r r r r r r r r r r r r r r r r r r r r r r r r r r r r r r r r r r r r r r P.P.P.P.P.P.P.P.P.P.P.P.P.P.P.P.P.P.P.P.P.P.P.P.P."
};
