/* XPM */
static char *UA3[] = {
/* columns rows colors chars-per-pixel */
"66 96 136 2 ",
"   c black",
".  c #010101",
"X  c #010102",
"o  c #010203",
"O  c #020203",
"+  c #070503",
"@  c #090604",
"#  c #190F09",
"$  c #180F0A",
"%  c #1A1009",
"&  c #1B100A",
"*  c #1D120A",
"=  c #1E120B",
"-  c #0C0E19",
";  c #271A10",
":  c #271A11",
">  c #281B10",
",  c #2F1C11",
"<  c #2F1D11",
"1  c #2F1D12",
"2  c #311E12",
"3  c #331F12",
"4  c #362113",
"5  c #332214",
"6  c #362416",
"7  c #392315",
"8  c #3A2415",
"9  c #3B2415",
"0  c #3D2516",
"q  c #3D2617",
"w  c #35261D",
"e  c #36271D",
"r  c #3C2818",
"t  c #3F2A19",
"y  c #3F2A1A",
"u  c #0B1A36",
"i  c #2C2324",
"p  c #3D2C21",
"a  c #3F2D22",
"s  c #392D2F",
"d  c #3C3235",
"f  c #35303A",
"g  c #402717",
"h  c #402B1B",
"j  c #452B1A",
"k  c #432D1B",
"l  c #452C1A",
"z  c #452D1B",
"x  c #472D1A",
"c  c #462D1B",
"v  c #472D1B",
"b  c #472E1B",
"n  c #452E1C",
"m  c #472F1C",
"M  c #482E1B",
"N  c #492E1C",
"B  c #4A2F1C",
"V  c #49301D",
"C  c #49311D",
"Z  c #4B301D",
"A  c #4A311E",
"S  c #4C311D",
"D  c #4C301F",
"F  c #4D321E",
"G  c #4E331E",
"H  c #4E341F",
"J  c #50341F",
"K  c #4F3622",
"L  c #483429",
"P  c #4E3729",
"I  c #513520",
"U  c #513620",
"Y  c #523620",
"T  c #523721",
"R  c #533721",
"E  c #513522",
"W  c #543721",
"Q  c #533822",
"!  c #543822",
"~  c #553822",
"^  c #563922",
"/  c #563923",
"(  c #573A23",
")  c #593A27",
"_  c #5C3E28",
"`  c #453736",
"'  c #4B3C39",
"]  c #483C3E",
"[  c #5A4031",
"{  c #614330",
"}  c #644736",
"|  c #684631",
" . c #6A4732",
".. c #6B4930",
"X. c #6B4A35",
"o. c #6D4A34",
"O. c #6C4C37",
"+. c #734F38",
"@. c #6E5138",
"#. c #6F543C",
"$. c #7F593E",
"%. c #0D1F40",
"&. c #1B305C",
"*. c #16346A",
"=. c #183874",
"-. c #1C3B76",
";. c #233F78",
":. c #3F486A",
">. c #294174",
",. c #5F4B45",
"<. c #775541",
"1. c #7E5A43",
"2. c #7F5B45",
"3. c #825A42",
"4. c #845F48",
"5. c #886149",
"6. c #8D6348",
"7. c #91664B",
"8. c #92674B",
"9. c #92684F",
"0. c #9F7256",
"q. c #997458",
"w. c #A27456",
"e. c #AC7B5D",
"r. c #997A61",
"t. c #B18669",
"y. c #A39279",
"u. c #AD997E",
"i. c #B59072",
"p. c #B8977A",
"a. c #BA9D7F",
"s. c #1D438A",
"d. c #3E5080",
"f. c #BEA487",
"g. c #C1AC8F",
"h. c None",
/* pixels */
"h.h.h.h.h.h.h.h.h.h.h.h.h.h.h.h.h.h.h.h.                    h.h.h.h.h.h.                                        h.h.h.h.h.h.h.h.h.h.",
"h.h.h.h.h.h.h.h.h.h.h.h.h.h.h.h.h.h.h.h.                    h.h.h.h.h.h.                                        h.h.h.h.h.h.h.h.h.h.",
"h.h.h.h.h.h.h.h.h.h.h.h.h.h.h.h.h.h.h.h.                    h.h.h.h.h.h.                                        h.h.h.h.h.h.h.h.h.h.",
"h.h.h.h.h.h.h.h.h.h.h.h.h.h.h.h.h.h.h.h.                    h.h.h.h.h.h.                                        h.h.h.h.h.h.h.h.h.h.",
"h.h.h.h.h.h.h.h.h.h.h.h.h.h.h.h.h.h.h.h.                    h.h.h.h.h.h.                                        h.h.h.h.h.h.h.h.h.h.",
"h.h.h.h.h.h.h.h.h.h.                              5 T T T T ;         * 0 0 0 0 l T T T T T T T T T y           h.h.h.h.h.h.h.h.h.h.",
"h.h.h.h.h.h.h.h.h.h.                              6 ( ( ( ( >         = g g g g N ( ( ( ( ( ( ( ( ( k           h.h.h.h.h.h.h.h.h.h.",
"h.h.h.h.h.h.h.h.h.h.                              6 ( ( ( ( >         = g g g g N ( ( ( ( ( ( ( ( ( k           h.h.h.h.h.h.h.h.h.h.",
"h.h.h.h.h.h.h.h.h.h.                              6 ( ( ( ( >         = g g g g N ( ( ( ( ( ( ( ( ( k           h.h.h.h.h.h.h.h.h.h.",
"h.h.h.h.h.h.h.h.h.h.                              6 ( ( ( ( >         = g g g g N ( ( ( ( ( ( ( ( ( k           h.h.h.h.h.h.h.h.h.h.",
"h.h.h.h.h.          2 7 7 7 7 V H H H H H H H H H Q ( ( ( ( b 7 7 7 7 c ~ ~ ~ ~ ^ ( ( ( ( t @ @ @ @ +           h.h.h.h.h.h.h.h.h.h.",
"h.h.h.h.h.          4 g g g g Y ( ( ( ( ( ( ( ( ( ( ( ( ( ( Z g g g g Z ( ( ( ( ( ( ( ( ( r                     h.h.h.h.h.h.h.h.h.h.",
"h.h.h.h.h.          4 g g g g Y ( ( ( ( ( ( ( ( ( ( ( ( ( ( Z g g g g Z ( ( ( ( ( ( ( ( ( r                     h.h.h.h.h.h.h.h.h.h.",
"h.h.h.h.h.          4 g g g g Y ( ( ( ( ( ( ( ( ( ( ( ( ( ( Z g g g g Z ( ( ( ( ( ( ( ( ( r                     h.h.h.h.h.h.h.h.h.h.",
"h.h.h.h.h.          4 g g g g Y ( ( ( ( ( ( ( ( ( ( ( ( ( ( Z g g g g Z ( ( ( ( ( ( ( ( ( r                     h.h.h.h.h.h.h.h.h.h.",
"h.h.h.h.h.          m R R R R / ( ( ( ( ( ( ( ( ( ( ( ( ( ( ~ R R R R ~ ( ( ( ( ( ( ( ( ( T C C C C z 4 4 4 4 ,           h.h.h.h.h.",
"h.h.h.h.h.          A ( ( ( ( ( ( ( ( ( ( ( ( ( ( ( ( ( ( ( ( ( ( ( ( ( ( ( ( ( ( ( ( ( ( ( ( ( ( ( Y g g g g 4           h.h.h.h.h.",
"h.h.h.h.h.          A ( ( ( ( ( ( ( ( ( ( ( ( ( ( ( ( ( ( ( ( ( ( ( ( ( ( ( ( ( ( ( ( ( ( ( ( ( ( ( Y g g g g 4           h.h.h.h.h.",
"h.h.h.h.h.          A ( ( ( ( ( ( ( ( ( ( ( ( ( ( ( ( ( ( ( ( ( ( ( ( ( ( ( ( ( ( ( ( ( ( ( ( ( ( ( Y g g g g 4           h.h.h.h.h.",
"h.h.h.h.h.          A ( ( ( ( ( ( ( ( ( ( ( ( ( ( ( ( ( ( ( ( ( ( ( ( ( ( ( ( ( ( ( ( ( ( ( ( ( ( ( Y g g g g 4           h.h.h.h.h.",
"          < 3 3 3 3 U ( ( ( ( ( ( ( ( ( ( ( ( ( ( ( ( ( ( ( ( ( ( ( ( ( ( ( ( ( ( ( ( ( ( ( ( ( ( ( ^ Y Y Y Y F 3 3 3 3 <           ",
"          9 g g g g R ( ( ( ( ( ( ( ( ( ( ( ( ( ( ( ( ( ( ( ( ( ( ( ( ( ( ( ( ( ( ( ( ( ( ( ( ( ( ( ( ( ( ( ( R g g g g 9           ",
"          9 g g g g R ( ( ( ( ( ( ( ( ( ( ( ( ( ( ( ( ( ( ( ( ( ( ( ( ( ( ( ( ( ( ( ( ( ( ( ( ( ( ( ( ( ( ( ( R g g g g 9           ",
"          9 g g g g R ( ( ( ( ( ( ( ( ( ( ( ( ( ( ( ( ( ( ( ( ( ( ( ( ( ( ( ( ( ( ( ( ( ( ( ( ( ( ( ( ( ( ( ( R g g g g 9           ",
"          9 g g g g R ( ( ( ( ( ( ( ( ( ( ( ( ( ( ( ( ( ( ( ( ( ( ( ( ( ( ( ( ( ( ( ( ( ( ( ( ( ( ( ( ( ( ( ( R g g g g 9           ",
"          9 g g g g R ( ( ( ( ( ( ( ( ( ( ( ( ( ( ( ( ( ( ( ( ( ( ( ( ( ( ( ( ( ( ( ( ( ( ( ( ( ( ( ( ( ( ( ( R g g g g 9           ",
"          9 g g g g R ( ( ( ( ( ( ( ( ( ( ( ( ( ( ( ( ( ( ( ( ( ( ( ( ( ( ( ( ( ( ( ( ( ( ( ( ( ( ( ( ( ( ( ( R g g g g 9           ",
"          9 g g g g R ( ( ( ( ( ( ( ( ( ( ( ( ( ( ( ( ( ( ( ( ( ( ( ( ( ( ( ( ( ( ( ( ( ( ( ( ( ( ( ( ( ( ( ( R g g g g 9           ",
"          9 g g g g R ( ( ( ( ( ( ( ( ( ( ( ( ( ( ( ( ( ( ( ( ( ( ( ( ( ( ( ( ( ( ( ( ( ( ( ( ( ( ( ( ( ( ( ( R g g g g 9           ",
"          9 g g g g R ( ( ( ( ( ( ( ( ( ( ( ( ( ( ( ( ( ( ( ( ( ( ( ( ( ( ( ( ( ( ( ( ( ( ( ( ( ( ( ( ( ( ( ( R g g g g 9           ",
"          9 g g g g R ( ( ( ( ( ( ( ( ( ( ( ( ( ( ( ( ( ( ( ( ( ( ( ( ( ( ( ( ( ( ( ( ( ( ( ( ( ( ( ( ( ( ( ( R g g g g 9           ",
"          9 g g g g R ( ( ( ( ( ( ( ( ( ( ( ( ( ( ( ( ( ( ( ( ( ( ( ( ( ( ( ( ( ( ( ( ( ( ( ( ( ( ( ( ( ( ( ( R g g g g 9           ",
"          9 g g g g R ( ( ( ( ( ( ( ( ( ( ( ( ( ( ( ( ( ( ( ( ( ( ( ( ( ( ( ( ( ( ( ( ( ( ( ( ( ( ( ( ( ( ( ( R g g g g 9           ",
"          9 g g g g R ( ( ( ( ( ( ( ( ( ( ( ( ( ( ( ( ( ( ( ( ( ( ( ( ( ( ( ( ( ( ( ( ( ( ( ( ( ( ( ( ( ( ( ( R g g g g 9           ",
"          9 g g g g R ( ( ( ( ( ( ( ( ( ( ( ( ( ( ( ( ( ( ( ( ( ( ( ( ( ( ( ( ( ( ( ( ( ( ( ( ( ( ( ( ( ( ( ( R g g g g 9           ",
"          9 g g g g v M M M M W ( ( ( ( ( ( ( ( ( ( ( ( ( ( ( ( ( ( ( ( ( ( ( ( ( ( ( ( ( ( ( ( ( ( W M M M M v g g g g 9           ",
"          9 g g g g g g g g g Y ( ( ( ( ( ( ( ( ( ( ( ( ( ( ( ( ( ( ( ( ( ( ( ( ( ( ( ( ( ( ( ( ( ( Y g g g g g g g g g 9           ",
"          9 g g g g g g g g g Y ( ( ( ( ( ( ( ( ( ( ( ( ( ( ( ( ( ( ( ( ( ( ( ( ( ( ( ( ( ( ( ( ( ( Y g g g g g g g g g 9           ",
"          9 g g g g g g g g g Y ( ( ( ( ( ( ( ( ( ( ( ( ( ( ( ( ( ( ( ( ( ( ( ( ( ( ( ( ( ( ( ( ( ( Y g g g g g g g g g 9           ",
"          9 g g g g g g g g g Y ( ( ( ( ( ( ( ( ( ( ( ( ( ( ( ( ( ( ( ( ( ( ( ( ( ( ( ( ( ( ( ( ( ( Y g g g g g g g g g 9           ",
"h.h.h.h.h.% & & & & 8 g g g g v B B B B B B B B B Y ( ( ( ( ( ( ( ( ( ( ( ( ( ( Y B B B B B B B B B v g g g g g g g g g 9           ",
"h.h.h.h.h.          4 g g g g g g g g g g g g g g G ( ( ( ( ( ( ( ( ( ( ( ( ( ( G g g g g g g g g g g g g g g g g g g g 9           ",
"h.h.h.h.h.          4 g g g g g g g g g g g g g g G ( ( ( ( ( ( ( ( ( ( ( ( ( ( G g g g g g g g g g g g g g g g g g g g 9           ",
"h.h.h.h.h.          4 g g g g g g g g g g g g g g G ( ( ( ( ( ( ( ( ( ( ( ( ( ( G g g g g g g g g g g g g g g g g g g g 9           ",
"h.h.h.h.h.          4 g g g g g g g g g g g g g g G ( ( ( ( ( ( ( ( ( ( ( ( ( ( G g g g g g g g g g g g g g g g g g g g 9           ",
"h.h.h.h.h.          4 g g g g g g g g g g g g g g x Z Z Z Z Z Z Z Z Z Z Z Z Z Z x g g g g g g g g g g g g g g 9 = = = = * h.h.h.h.h.",
"h.h.h.h.h.          4 g g g g g g g g g g g g g g g g g g g g g g g g g g g g g g g g g g g g g g g g g g g g 4           h.h.h.h.h.",
"h.h.h.h.h.          4 g g g g g g g g g g g g g g g g g g g g g g g g g g g g g g g g g g g g g g g g g g g g 4           h.h.h.h.h.",
"h.h.h.h.h.          4 g g g g g g g g g g g g g g g g g g g g g g g g g g g g g g g g g g g g g g g g g g g g 4           h.h.h.h.h.",
"h.h.h.h.h.          4 g g g g g g g g g g g g g g g g g g g g g g g g g g g g g g g g g g g g g g g g g g g g 4           h.h.h.h.h.",
"h.h.h.h.h.          { +.+.+.+.D g g g g g g g g g g g g g g g g g g g g g g g g g g g g g g g g g g D +.+.+.+.{           h.h.h.h.h.",
"h.h.h.h.h.          9.e.e.e.e.) g g g g g g g g g g g g g g g g g g g g g g g g g g g g g g g g g g ) e.e.e.e.9.          h.h.h.h.h.",
"h.h.h.h.h.          9.e.e.e.e.) g g g g g g g g g g g g g g g g g g g g g g g g g g g g g g g g g g ) e.e.e.e.9.          h.h.h.h.h.",
"h.h.h.h.h.          9.e.e.e.e.) g g g g g g g g g g g g g g g g g g g g g g g g g g g g g g g g g g ) e.e.e.e.9.          h.h.h.h.h.",
"h.h.h.h.h.          9.e.e.e.e.) g g g g g g g g g g g g g g g g g g g g g g g g g g g g g g g g g g ) e.e.e.e.9.          h.h.h.h.h.",
"h.h.h.h.h.          r.i.i.i.i.1.o.o.o.o.o.o.o.o.o.E g g g g g g g g g g g g g g E o.o.o.o.o.o.o.o.o.X.} } } } [           h.h.h.h.h.",
"h.h.h.h.h.          y.g.g.g.g.t.e.e.e.e.e.e.e.e.e. .g g g g g g g g g g g g g g  .e.e.e.e.e.e.e.e.e.4.          h.h.h.h.h.h.h.h.h.h.",
"h.h.h.h.h.          y.g.g.g.g.t.e.e.e.e.e.e.e.e.e. .g g g g g g g g g g g g g g  .e.e.e.e.e.e.e.e.e.4.          h.h.h.h.h.h.h.h.h.h.",
"h.h.h.h.h.          y.g.g.g.g.t.e.e.e.e.e.e.e.e.e. .g g g g g g g g g g g g g g  .e.e.e.e.e.e.e.e.e.4.          h.h.h.h.h.h.h.h.h.h.",
"h.h.h.h.h.          y.g.g.g.g.t.e.e.e.e.e.e.e.e.e. .g g g g g g g g g g g g g g  .e.e.e.e.e.e.e.e.e.4.          h.h.h.h.h.h.h.h.h.h.",
"h.h.h.h.h.p a a a a u.g.g.g.g.q.6.6.6.6.w.e.e.e.e.3.| | | | | | | | | | | | | | 3.e.e.e.e.w.6.6.6.6.O.          h.h.h.h.h.h.h.h.h.h.",
"          0.e.e.e.e.f.g.g.g.g.#.( ( ( ( 8.e.e.e.e.e.e.e.e.e.e.e.e.e.e.e.e.e.e.e.e.e.e.e.e.8.( ( ( ( k                     h.h.h.h.h.",
"          0.e.e.e.e.f.g.g.g.g.#.( ( ( ( 8.e.e.e.e.e.e.e.e.e.e.e.e.e.e.e.e.e.e.e.e.e.e.e.e.8.( ( ( ( k                     h.h.h.h.h.",
"          0.e.e.e.e.f.g.g.g.g.#.( ( ( ( 8.e.e.e.e.e.e.e.e.e.e.e.e.e.e.e.e.e.e.e.e.e.e.e.e.8.( ( ( ( k                     h.h.h.h.h.",
"          0.e.e.e.e.f.g.g.g.g.#.( ( ( ( 8.e.e.e.e.e.e.e.e.e.e.e.e.e.e.e.e.e.e.e.e.e.e.e.e.8.( ( ( ( k                     h.h.h.h.h.",
"          0.e.e.e.e.p.a.a.a.a.@.( ( ( ( $.7.7.7.7.7.7.7.7.7.7.7.7.7.7.7.7.7.7.7.7.7.7.7.7.$.( ( ( ( K e e e e e e e e e w h.h.h.h.h.",
"          0.e.e.e.e.e.e.e.e.e...( ( ( ( ( ( ( ( ( ( ( ( ( ( ( ( ( ( ( ( ( ( ( ( ( ( ( ( ( ( ( ( ( ( ..e.e.e.e.e.e.e.e.e.0.          ",
"          0.e.e.e.e.e.e.e.e.e...( ( ( ( ( ( ( ( ( ( ( ( ( ( ( ( ( ( ( ( ( ( ( ( ( ( ( ( ( ( ( ( ( ( ..e.e.e.e.e.e.e.e.e.0.          ",
"          0.e.e.e.e.e.e.e.e.e...( ( ( ( ( ( ( ( ( ( ( ( ( ( ( ( ( ( ( ( ( ( ( ( ( ( ( ( ( ( ( ( ( ( ..e.e.e.e.e.e.e.e.e.0.          ",
"          0.e.e.e.e.e.e.e.e.e...( ( ( ( ( ( ( ( ( ( ( ( ( ( ( ( ( ( ( ( ( ( ( ( ( ( ( ( ( ( ( ( ( ( ..e.e.e.e.e.e.e.e.e.0.          ",
"          <.2.2.2.2.2.2.2.2.2._ I I I I ~ ( ( ( ( ( ( ( ( ( ( ( ( ( ( ! I I I I I I I I I P ] ] ] ] ,.e.e.e.e.e.e.e.e.e.0.          ",
"h.h.h.h.h.                    2 g g g g J ( ( ( ( ( ( ( ( ( ( ( ( ( ( S g g g g g g g g g f s.s.s.s.d.e.e.e.e.e.e.e.e.e.0.          ",
"h.h.h.h.h.                    2 g g g g J ( ( ( ( ( ( ( ( ( ( ( ( ( ( S g g g g g g g g g f s.s.s.s.d.e.e.e.e.e.e.e.e.e.0.          ",
"h.h.h.h.h.                    2 g g g g J ( ( ( ( ( ( ( ( ( ( ( ( ( ( S g g g g g g g g g f s.s.s.s.d.e.e.e.e.e.e.e.e.e.0.          ",
"h.h.h.h.h.                    2 g g g g J ( ( ( ( ( ( ( ( ( ( ( ( ( ( S g g g g g g g g g f s.s.s.s.d.e.e.e.e.e.e.e.e.e.0.          ",
"h.h.h.h.h.o o o o o           i s s s s ` ' ' ' ' ' ' ' ' ' L n n n n z j j j j j j j j j d >.>.>.>.:.5.5.5.5.5.5.5.5.5.2.          ",
"h.h.h.h.h.h.- - - - X         *.s.s.s.s.s.s.s.s.s.s.s.s.s.s.%.        > ( ( ( ( ( ( ( ( ( ( ( ( ( ( k                     h.h.h.h.h.",
"h.h.h.h.h.h.- - - - X         *.s.s.s.s.s.s.s.s.s.s.s.s.s.s.%.        > ( ( ( ( ( ( ( ( ( ( ( ( ( ( k                     h.h.h.h.h.",
"h.h.h.h.h.h.- - - - X         *.s.s.s.s.s.s.s.s.s.s.s.s.s.s.%.        > ( ( ( ( ( ( ( ( ( ( ( ( ( ( k                     h.h.h.h.h.",
"h.h.h.h.h.h.- - - - X         *.s.s.s.s.s.s.s.s.s.s.s.s.s.s.%.        > ( ( ( ( ( ( ( ( ( ( ( ( ( ( k                     h.h.h.h.h.",
"h.h.h.h.h.h.- - - - X         &.;.;.;.;.;.;.;.;.;.-.=.=.=.=.u         > ( ( ( ( ( ( ( ( ( ( ( ( ( ( k           X X X X X h.h.h.h.h.",
"- - - - - - - - - - X         2 g g g g g g g g g #                   > ( ( ( ( ( ( ( ( ( ( ( ( ( ( k         X - - - - - - - - - - ",
"- - - - - - - - - - X         2 g g g g g g g g g #                   > ( ( ( ( ( ( ( ( ( ( ( ( ( ( k         X - - - - - - - - - - ",
"- - - - - - - - - - X         2 g g g g g g g g g #                   > ( ( ( ( ( ( ( ( ( ( ( ( ( ( k         X - - - - - - - - - - ",
"- - - - - - - - - - X         2 g g g g g g g g g #                   > ( ( ( ( ( ( ( ( ( ( ( ( ( ( k         X - - - - - - - - - - ",
"- - - - - - - - - - O . . . . 1 q q q q q q q q q $ . . . . . . . . . : Q Q Q Q Q Q Q Q Q Q Q Q Q Q h . . . . O - - - - - - - - - - ",
"- - - - - - - - - - - - - - - - - - - - - - - - - - - - - - - - - - - - - - - - - - - - - - - - - - - - - - - - - - - - - - - - - - ",
"- - - - - - - - - - - - - - - - - - - - - - - - - - - - - - - - - - - - - - - - - - - - - - - - - - - - - - - - - - - - - - - - - - ",
"- - - - - - - - - - - - - - - - - - - - - - - - - - - - - - - - - - - - - - - - - - - - - - - - - - - - - - - - - - - - - - - - - - ",
"- - - - - - - - - - - - - - - - - - - - - - - - - - - - - - - - - - - - - - - - - - - - - - - - - - - - - - - - - - - - - - - - - - ",
"h.h.h.h.h.h.- - - - - - - - - - - - - - - - - - - - - - - - - - - - - - - - - - - - - - - - - - - - - - - - - - - - - - h.h.h.h.h.h.",
"h.h.h.h.h.h.- - - - - - - - - - - - - - - - - - - - - - - - - - - - - - - - - - - - - - - - - - - - - - - - - - - - - - h.h.h.h.h.h.",
"h.h.h.h.h.h.- - - - - - - - - - - - - - - - - - - - - - - - - - - - - - - - - - - - - - - - - - - - - - - - - - - - - - h.h.h.h.h.h.",
"h.h.h.h.h.h.- - - - - - - - - - - - - - - - - - - - - - - - - - - - - - - - - - - - - - - - - - - - - - - - - - - - - - h.h.h.h.h.h.",
"h.h.h.h.h.h.- - - - - - - - - - - - - - - - - - - - - - - - - - - - - - - - - - - - - - - - - - - - - - - - - - - - - - h.h.h.h.h.h.",
"h.h.h.h.h.h.- - - - - - - - - - - - - - - - - - - - - - - - - - - - - - - - - - - - - - - - - - - - - - - - - - - - - - h.h.h.h.h.h."
};
