/* XPM */
static char *RA3[] = {
/* columns rows colors chars-per-pixel */
"76 96 210 2 ",
"   c black",
".  c #010101",
"X  c #010102",
"o  c #010203",
"O  c #040201",
"+  c #070503",
"@  c #020204",
"#  c #020305",
"$  c #090503",
"%  c #090604",
"&  c #190F09",
"*  c #1A0E0A",
"=  c #1A1009",
"-  c #1B100A",
";  c #1D120B",
":  c #1E120B",
">  c #1D120C",
",  c #0C0E19",
"<  c #20130B",
"1  c #21110D",
"2  c #20140C",
"3  c #22150C",
"4  c #23170E",
"5  c #22170F",
"6  c #25170D",
"7  c #29190F",
"8  c #2A190F",
"9  c #2C1B10",
"0  c #2D1C11",
"q  c #2F1D11",
"w  c #2C1D12",
"e  c #2D1E12",
"r  c #2E1F13",
"t  c #301D11",
"y  c #331F12",
"u  c #362113",
"i  c #372214",
"p  c #372517",
"a  c #392315",
"s  c #3A2717",
"d  c #3C2415",
"f  c #3C2516",
"g  c #3D2516",
"h  c #3D2617",
"j  c #32241B",
"k  c #36271D",
"l  c #3B2718",
"z  c #3D2818",
"x  c #3D2919",
"c  c #38322A",
"v  c #3D362D",
"b  c #3D3130",
"n  c #3C3438",
"m  c #402717",
"M  c #422918",
"N  c #432919",
"B  c #412A19",
"V  c #402B1A",
"C  c #452B19",
"Z  c #442B1A",
"A  c #422C1B",
"S  c #462C1A",
"D  c #472D1B",
"F  c #452E1B",
"G  c #462D1C",
"H  c #452E1C",
"J  c #462E1C",
"K  c #482D1B",
"L  c #482E1B",
"P  c #492F1C",
"I  c #4A2F1C",
"U  c #49311D",
"Y  c #4A301C",
"T  c #4B301D",
"R  c #4B321E",
"E  c #4C311D",
"W  c #4D311E",
"Q  c #4D321E",
"!  c #4C321F",
"~  c #4E321E",
"^  c #4E331F",
"/  c #4F331F",
"(  c #4E341F",
")  c #4F341F",
"_  c #4F3527",
"`  c #513520",
"'  c #513620",
"]  c #523620",
"[  c #523621",
"{  c #523721",
"}  c #533721",
"|  c #543721",
" . c #533624",
".. c #533822",
"X. c #553822",
"o. c #553922",
"O. c #563922",
"+. c #573A23",
"@. c #5B3D28",
"#. c #5D3E29",
"$. c #5D3D2A",
"%. c #5E3E2A",
"&. c #5C3E2F",
"*. c #5F402D",
"=. c #5E4333",
"-. c #57483C",
";. c #5D4A39",
":. c #64432E",
">. c #6B4933",
",. c #6C4A32",
"<. c #6D4A34",
"1. c #6B4A38",
"2. c #6E4B38",
"3. c #6D4E3B",
"4. c #714E37",
"5. c #724E38",
"6. c #69513D",
"7. c #6B533F",
"8. c #6F503D",
"9. c #74513C",
"0. c #78533B",
"q. c #79533C",
"w. c #7D573E",
"e. c #3B3741",
"r. c #28375D",
"t. c #183874",
"y. c #263C6B",
"u. c #233F78",
"i. c #344A70",
"p. c #344C76",
"a. c #5D5555",
"s. c #614F41",
"d. c #6D5A4B",
"f. c #715746",
"g. c #7F5840",
"h. c #7E5841",
"j. c #7E5A44",
"k. c #7F5B44",
"l. c #766452",
"z. c #7D6650",
"x. c #756C6B",
"c. c #626A7F",
"v. c #845D42",
"b. c #845C43",
"n. c #885F46",
"m. c #8A6047",
"M. c #81624D",
"N. c #85664D",
"B. c #886149",
"V. c #8A624A",
"C. c #8C6248",
"Z. c #8F654A",
"A. c #91664B",
"S. c #92674C",
"D. c #94684E",
"F. c #956A4E",
"G. c #966A4F",
"H. c #856E57",
"J. c #906E55",
"K. c #9B6E52",
"L. c #85735E",
"P. c #9F7154",
"I. c #A17356",
"U. c #AC7B5D",
"Y. c #8E7B66",
"T. c #9B7662",
"R. c #937962",
"E. c #9F7F66",
"W. c #9F7C68",
"Q. c #96836C",
"!. c #9A866F",
"~. c #9A8A72",
"^. c #A5866B",
"/. c #B38C6E",
"(. c #A18B72",
"). c #A98979",
"_. c #A69076",
"`. c #AB967D",
"'. c #B79577",
"]. c #B79578",
"[. c #B8977A",
"{. c #B9987B",
"}. c #B99A7D",
"|. c #1E4685",
" X c #1D438A",
".X c #234987",
"XX c #335080",
"oX c #325183",
"OX c #2D5491",
"+X c #255598",
"@X c #24539E",
"#X c #2B599B",
"$X c #2F5B9C",
"%X c #315C9D",
"&X c #335E9E",
"*X c #275AA7",
"=X c #295EAC",
"-X c #2A61B0",
";X c #2C65B5",
":X c #6E7180",
">X c #837D80",
",X c #9E968E",
"<X c #A09487",
"1X c #BB9F82",
"2X c #BDA285",
"3X c #BFA689",
"4X c #8496B5",
"5X c #A4A8B5",
"6X c #C1AC8F",
"7X c None",
/* pixels */
"7X7X7X7X7X7X7X7X7X7X7X7X7X7X7X7X7X7X7X7X7X7X7X7X7X7X7X7X7X7X                      7X7X7X7X7X                                        7X7X7X7X7X7X7X7X7X7X",
"7X7X7X7X7X7X7X7X7X7X7X7X7X7X7X7X7X7X7X7X7X7X7X7X7X7X7X7X7X7X                      7X7X7X7X7X                                        7X7X7X7X7X7X7X7X7X7X",
"7X7X7X7X7X7X7X7X7X7X7X7X7X7X7X7X7X7X7X7X7X7X7X7X7X7X7X7X7X7X                      7X7X7X7X7X                                        7X7X7X7X7X7X7X7X7X7X",
"7X7X7X7X7X7X7X7X7X7X7X7X7X7X7X7X7X7X7X7X7X7X7X7X7X7X7X7X7X7X                      7X7X7X7X7X                                        7X7X7X7X7X7X7X7X7X7X",
"7X7X7X7X7X7X7X7X7X7X7X7X7X7X7X7X7X7X7X7X7X7X7X7X7X7X7X7X7X7X                      7X7X7X7X7X                                        7X7X7X7X7X7X7X7X7X7X",
"7X7X7X7X7X7X7X7X7X7X7X7X7X7X7X7X7X7X7X7X                              w { { { { e         & g g g g Z { { { { { { { { { A           7X7X7X7X7X7X7X7X7X7X",
"7X7X7X7X7X7X7X7X7X7X7X7X7X7X7X7X7X7X7X7X                              r +.+.+.+.r         = m m m m K +.+.+.+.+.+.+.+.+.J           7X7X7X7X7X7X7X7X7X7X",
"7X7X7X7X7X7X7X7X7X7X7X7X7X7X7X7X7X7X7X7X                              r +.+.+.+.r         = m m m m K +.+.+.+.+.+.+.+.+.J           7X7X7X7X7X7X7X7X7X7X",
"7X7X7X7X7X7X7X7X7X7X7X7X7X7X7X7X7X7X7X7X                              r +.+.+.+.r         = m m m m K +.+.+.+.+.+.+.+.+.J           7X7X7X7X7X7X7X7X7X7X",
"7X7X7X7X7X7X7X7X7X7X7X7X7X7X7X7X7X7X7X7X                              r +.+.+.+.r         = m m m m K +.+.+.+.+.+.+.+.+.J           7X7X7X7X7X7X7X7X7X7X",
"7X7X7X7X7X7X7X7X7X7X7X7X7X7X7X          l ( ( ( ( ( ( ( ( ( B a a a a I +.+.+.+.I a a a a Z X.X.X.X.o.+.+.+.+.A % % % % +           7X7X7X7X7X7X7X7X7X7X",
"7X7X7X7X7X7X7X7X7X7X7X7X7X7X7X          V +.+.+.+.+.+.+.+.+.P m m m m E +.+.+.+.E m m m m P +.+.+.+.+.+.+.+.+.V                     7X7X7X7X7X7X7X7X7X7X",
"7X7X7X7X7X7X7X7X7X7X7X7X7X7X7X          V +.+.+.+.+.+.+.+.+.P m m m m E +.+.+.+.E m m m m P +.+.+.+.+.+.+.+.+.V                     7X7X7X7X7X7X7X7X7X7X",
"7X7X7X7X7X7X7X7X7X7X7X7X7X7X7X          V +.+.+.+.+.+.+.+.+.P m m m m E +.+.+.+.E m m m m P +.+.+.+.+.+.+.+.+.V                     7X7X7X7X7X7X7X7X7X7X",
"7X7X7X7X7X7X7X7X7X7X7X7X7X7X7X          V +.+.+.+.+.+.+.+.+.P m m m m E +.+.+.+.E m m m m P +.+.+.+.+.+.+.+.+.V                     7X7X7X7X7X7X7X7X7X7X",
"7X7X7X7X7X7X7X7X7X7X          z U U U U ..+.+.+.+.+.+.+.+.+.X.} } } } o.+.+.+.+.o.} } } } X.+.+.+.+.+.+.+.+.+...U U U U F u u u u t           7X7X7X7X7X",
"7X7X7X7X7X7X7X7X7X7X          J +.+.+.+.+.+.+.+.+.+.+.+.+.+.+.+.+.+.+.+.+.+.+.+.+.+.+.+.+.+.+.+.+.+.+.+.+.+.+.+.+.+.+.+.[ m m m m i           7X7X7X7X7X",
"7X7X7X7X7X7X7X7X7X7X          J +.+.+.+.+.+.+.+.+.+.+.+.+.+.+.+.+.+.+.+.+.+.+.+.+.+.+.+.+.+.+.+.+.+.+.+.+.+.+.+.+.+.+.+.[ m m m m i           7X7X7X7X7X",
"7X7X7X7X7X7X7X7X7X7X          J +.+.+.+.+.+.+.+.+.+.+.+.+.+.+.+.+.+.+.+.+.+.+.+.+.+.+.+.+.+.+.+.+.+.+.+.+.+.+.+.+.+.+.+.[ m m m m i           7X7X7X7X7X",
"7X7X7X7X7X7X7X7X7X7X          J +.+.+.+.+.+.+.+.+.+.+.+.+.+.+.+.+.+.+.+.+.+.+.+.+.+.+.+.+.+.+.+.+.+.+.+.+.+.+.+.+.+.+.+.[ m m m m i           7X7X7X7X7X",
"7X7X7X7X7X          x H H H H ..+.+.+.+.+.+.+.+.+.+.+.+.+.+.+.+.+.+.+.+.+.+.+.+.+.+.+.+.+.+.+.+.+.+.+.+.+.+.+.+.+.+.+.+.O.] ] ] ] ^ y y y y t           ",
"7X7X7X7X7X          R +.+.+.+.+.+.+.+.+.+.+.+.+.+.+.+.+.+.+.+.+.+.+.+.+.+.+.+.+.+.+.+.+.+.+.+.+.+.+.+.+.+.+.+.+.+.+.+.+.+.+.+.+.+.| m m m m d           ",
"7X7X7X7X7X          R +.+.+.+.+.+.+.+.+.+.+.+.+.+.+.+.+.+.+.+.+.+.+.+.+.+.+.+.+.+.+.+.+.+.+.+.+.+.+.+.+.+.+.+.+.+.+.+.+.+.+.+.+.+.| m m m m d           ",
"7X7X7X7X7X          R +.+.+.+.+.+.+.+.+.+.+.+.+.+.+.+.+.+.+.+.+.+.+.+.+.+.+.+.+.+.+.+.+.+.+.+.+.+.+.+.+.+.+.+.+.+.+.+.+.+.+.+.+.+.| m m m m d           ",
"7X7X7X7X7X          R +.+.+.+.+.+.+.+.+.+.+.+.+.+.+.+.+.+.+.+.+.+.+.+.+.+.+.+.+.+.+.+.+.+.+.+.+.+.+.+.+.+.+.+.+.+.+.+.+.+.+.+.+.+.| m m m m d           ",
"7X7X7X7X7X          R +.+.+.+.+.+.+.+.+.+.+.+.+.+.E S S S S S S S S S / +.+.+.+.+.+.+.+.+.+.+.+.+.+.` S S S S Y +.+.+.+.+.+.+.+.+.| m m m m d           ",
"7X7X7X7X7X          R +.+.+.+.+.+.+.+.+.+.+.+.+.+.K m m m m m m m m m E +.+.+.+.+.+.+.+.+.+.+.+.+.+.) m m m m S +.+.+.+.+.+.+.+.+.| m m m m d           ",
"7X7X7X7X7X          R +.+.+.+.+.+.+.+.+.+.+.+.+.+.K m m m m m m m m m E +.+.+.+.+.+.+.+.+.+.+.+.+.+.) m m m m S +.+.+.+.+.+.+.+.+.| m m m m d           ",
"7X7X7X7X7X          R +.+.+.+.+.+.+.+.+.+.+.+.+.+.K m m m m m m m m m E +.+.+.+.+.+.+.+.+.+.+.+.+.+.) m m m m S +.+.+.+.+.+.+.+.+.| m m m m d           ",
"7X7X7X7X7X          R +.+.+.+.+.+.+.+.+.+.+.+.+.+.K m m m m m m m m m E +.+.+.+.+.+.+.+.+.+.+.+.+.+.) m m m m S +.+.+.+.+.+.+.+.+.| m m m m d           ",
"          8 9 9 9 9 ' +.+.+.+.Y D D D D w.A.A.A.A.C.m.m.m.m.%.m m m m E +.+.+.+.+.+.+.+.+.+.+.+.+.+.) m m m m M D D D D D D D D D S m m m m d           ",
"          d m m m m | +.+.+.+.C m m m m Z.U.U.U.U.U.U.U.U.U.>.m m m m E +.+.+.+.+.+.+.+.+.+.+.+.+.+.) m m m m m m m m m m m m m m m m m m m d           ",
"          d m m m m | +.+.+.+.C m m m m Z.U.U.U.U.U.U.U.U.U.>.m m m m E +.+.+.+.+.+.+.+.+.+.+.+.+.+.) m m m m m m m m m m m m m m m m m m m d           ",
"          d m m m m | +.+.+.+.C m m m m Z.U.U.U.U.U.U.U.U.U.>.m m m m E +.+.+.+.+.+.+.+.+.+.+.+.+.+.) m m m m m m m m m m m m m m m m m m m d           ",
"          d m m m m | +.+.+.+.C m m m m Z.U.U.U.U.U.U.U.U.U.>.m m m m E +.+.+.+.+.+.+.+.+.+.+.+.+.+.) m m m m m m m m m m m m m m m m m m m d           ",
"          d m m m m D L L L L 0.b.b.b.b.I.U.U.U.U.U.U.U.U.U.D.b.b.b.b.:.L L L L ) +.+.+.+.+.+.+.+.+.) m m m m m m m m m N / / / / W m m m m d           ",
"          d m m m m m m m m m G.U.U.U.U.U.U.U.U.U.U.U.U.U.U.U.U.U.U.U.5.m m m m T +.+.+.+.+.+.+.+.+.) m m m m m m m m m C +.+.+.+.| m m m m d           ",
"          d m m m m m m m m m G.U.U.U.U.U.U.U.U.U.U.U.U.U.U.U.U.U.U.U.5.m m m m T +.+.+.+.+.+.+.+.+.) m m m m m m m m m C +.+.+.+.| m m m m d           ",
"          d m m m m m m m m m G.U.U.U.U.U.U.U.U.U.U.U.U.U.U.U.U.U.U.U.5.m m m m T +.+.+.+.+.+.+.+.+.) m m m m m m m m m C +.+.+.+.| m m m m d           ",
"          d m m m m m m m m m G.U.U.U.U.U.U.U.U.U.U.U.U.U.U.U.U.U.U.U.5.m m m m T +.+.+.+.+.+.+.+.+.) m m m m m m m m m C +.+.+.+.| m m m m d           ",
"          d m m m m < - - - - _ &.&.&.&.E.[.[.[.[.[.[.[.[.[.M.&.&.&.&.2.g.g.g.g.,.+.+.+.+.` I I I I @.g.g.g.g.4.Q Q Q Q ) +.+.+.+.| m m m m d           ",
"          d m m m m $         * 1 1 1 1 Q.6X6X6X6X6X6X6X6X6Xs.1 1 1 1 1.U.U.U.U.v.+.+.+.+.~ m m m m :.U.U.U.U.F.+.+.+.+.+.+.+.+.+.| m m m m d           ",
"          d m m m m $         * 1 1 1 1 Q.6X6X6X6X6X6X6X6X6Xs.1 1 1 1 1.U.U.U.U.v.+.+.+.+.~ m m m m :.U.U.U.U.F.+.+.+.+.+.+.+.+.+.| m m m m d           ",
"          d m m m m $         * 1 1 1 1 Q.6X6X6X6X6X6X6X6X6Xs.1 1 1 1 1.U.U.U.U.v.+.+.+.+.~ m m m m :.U.U.U.U.F.+.+.+.+.+.+.+.+.+.| m m m m d           ",
"          d m m m m $         * 1 1 1 1 Q.6X6X6X6X6X6X6X6X6Xs.1 1 1 1 1.U.U.U.U.v.+.+.+.+.~ m m m m :.U.U.U.U.F.+.+.+.+.+.+.+.+.+.| m m m m d           ",
"7X7X7X7X7X; : : : : O         * 1 1 1 1 Q.6X6X6X6X6X6X6X6X6Xs.1 1 1 1 f.'.'.'.'.N.T T T T #.q.q.q.q.m.U.U.U.U.F.+.+.+.+.X.T T T T P m m m m d           ",
"7X7X7X7X7X                    * 1 1 1 1 Q.6X6X6X6X6X6X6X6X6Xs.1 1 1 1 l.6X6X6X6XH.m m m m >.U.U.U.U.U.U.U.U.U.F.+.+.+.+.[ m m m m m m m m m d           ",
"7X7X7X7X7X                    * 1 1 1 1 Q.6X6X6X6X6X6X6X6X6Xs.1 1 1 1 l.6X6X6X6XH.m m m m >.U.U.U.U.U.U.U.U.U.F.+.+.+.+.[ m m m m m m m m m d           ",
"7X7X7X7X7X                    * 1 1 1 1 Q.6X6X6X6X6X6X6X6X6Xs.1 1 1 1 l.6X6X6X6XH.m m m m >.U.U.U.U.U.U.U.U.U.F.+.+.+.+.[ m m m m m m m m m d           ",
"7X7X7X7X7X                    * 1 1 1 1 Q.6X6X6X6X6X6X6X6X6Xs.1 1 1 1 l.6X6X6X6XH.m m m m >.U.U.U.U.U.U.U.U.U.F.+.+.+.+.[ m m m m m m m m m d           ",
"7X7X7X7X7X7X                  -.d.d.d.d.`.6X6X6X6X6X6X6X6X6XY.d.d.d.d.!.6X6X6X6X(.z.z.z.z.J.U.U.U.U.U.U.U.U.U.S.E E E E I m m m m f 3 3 3 3 2           ",
"7X7X7X7X7X7X7X7X7X7X          ~.6X6X6X6X6X6X6X6X6X6X6X6X6X6X6X6X6X6X6X6X6X6X6X6X6X6X6X6X6X{.U.U.U.U.U.U.U.U.U.Z.m m m m m m m m m i           7X7X7X7X7X",
"7X7X7X7X7X7X7X7X7X7X          ~.6X6X6X6X6X6X6X6X6X6X6X6X6X6X6X6X6X6X6X6X6X6X6X6X6X6X6X6X6X{.U.U.U.U.U.U.U.U.U.Z.m m m m m m m m m i           7X7X7X7X7X",
"7X7X7X7X7X7X7X7X7X7X          ~.6X6X6X6X6X6X6X6X6X6X6X6X6X6X6X6X6X6X6X6X6X6X6X6X6X6X6X6X6X{.U.U.U.U.U.U.U.U.U.Z.m m m m m m m m m i           7X7X7X7X7X",
"7X7X7X7X7X7X7X7X7X7X          ~.6X6X6X6X6X6X6X6X6X6X6X6X6X6X6X6X6X6X6X6X6X6X6X6X6X6X6X6X6X{.U.U.U.U.U.U.U.U.U.Z.m m m m m m m m m i           7X7X7X7X7X",
"7X7X7X7X7X7X7X7X7X7X          R.[.[.[.[.3X6X6X6X6X6X6X6X6X6X6X6X6X6X6X6X6X6X6X6X2X[.[.[.[./.U.U.U.U.U.U.U.U.U.K.<.<.<.<.*.6 6 6 6 3           7X7X7X7X7X",
"7X7X7X7X7X7X7X7X7X7X          V.U.U.U.U.1X6X6X6X6X6X6X6X6X6X6X6X6X6X6X6X6X6X6X6X].U.U.U.U.U.U.U.U.U.U.U.U.U.U.U.U.U.U.U.V.          7X7X7X7X7X7X7X7X7X7X",
"7X7X7X7X7X7X7X7X7X7X          V.U.U.U.U.1X6X6X6X6X6X6X6X6X6X6X6X6X6X6X6X6X6X6X6X].U.U.U.U.U.U.U.U.U.U.U.U.U.U.U.U.U.U.U.V.          7X7X7X7X7X7X7X7X7X7X",
"7X7X7X7X7X7X7X7X7X7X          V.U.U.U.U.1X6X6X6X6X6X6X6X6X6X6X6X6X6X6X6X6X6X6X6X].U.U.U.U.U.U.U.U.U.U.U.U.U.U.U.U.U.U.U.V.          7X7X7X7X7X7X7X7X7X7X",
"7X7X7X7X7X7X7X7X7X7X          V.U.U.U.U.1X6X6X6X6X6X6X6X6X6X6X6X6X6X6X6X6X6X6X6X].U.U.U.U.U.U.U.U.U.U.U.U.U.U.U.U.U.U.U.V.          7X7X7X7X7X7X7X7X7X7X",
"7X7X7X7X7X7X7X7X7X7X          =.3.3.3.3.^.}.}.}.}.}.}.}.}.}.}.}.}.}.}.}.}.}.}.}./.U.U.U.U.U.U.U.U.U.P.b.b.b.b.h.3.3.3.3.=.          7X7X7X7X7X7X7X7X7X7X",
"7X7X7X7X7X7X7X7X7X7X7X7X7X7X7X          j.U.U.U.U.U.U.U.U.U.U.U.U.U.U.U.U.U.U.U.U.U.U.U.U.U.U.U.U.U.n.m m m m q           7X7X7X7X7X7X7X7X7X7X7X7X7X7X7X",
"7X7X7X7X7X7X7X7X7X7X7X7X7X7X7X          j.U.U.U.U.U.U.U.U.U.U.U.U.U.U.U.U.U.U.U.U.U.U.U.U.U.U.U.U.U.n.m m m m q           7X7X7X7X7X7X7X7X7X7X7X7X7X7X7X",
"7X7X7X7X7X7X7X7X7X7X7X7X7X7X7X          j.U.U.U.U.U.U.U.U.U.U.U.U.U.U.U.U.U.U.U.U.U.U.U.U.U.U.U.U.U.n.m m m m q           7X7X7X7X7X7X7X7X7X7X7X7X7X7X7X",
"7X7X7X7X7X7X7X7X7X7X7X7X7X7X7X          j.U.U.U.U.U.U.U.U.U.U.U.U.U.U.U.U.U.U.U.U.U.U.U.U.U.U.U.U.U.n.m m m m q           7X7X7X7X7X7X7X7X7X7X7X7X7X7X7X",
"7X7X7X7X7X7X7X7X7X7X7X7X7X7X7Xj k k k k 9.m.m.m.m.W.).).).).).).).).).).).).).).T.m.m.m.m.m.m.m.m.m.k.6.6.6.6.;.v v v v c 7X7X7X7X7X7X7X7X7X7X7X7X7X7X7X",
"7X7X7X7X7X7X7X7X7X7X          V.U.U.U.U.$.m m m m >X5X5X5X5X5X5X5X5X5X5X5X5X5X5Xx.m m m m m m m m m 7.6X6X6X6X6X6X6X6X6X~.          7X7X7X7X7X7X7X7X7X7X",
"7X7X7X7X7X7X7X7X7X7X          V.U.U.U.U.$.m m m m >X5X5X5X5X5X5X5X5X5X5X5X5X5X5Xx.m m m m m m m m m 7.6X6X6X6X6X6X6X6X6X~.          7X7X7X7X7X7X7X7X7X7X",
"7X7X7X7X7X7X7X7X7X7X          V.U.U.U.U.$.m m m m >X5X5X5X5X5X5X5X5X5X5X5X5X5X5Xx.m m m m m m m m m 7.6X6X6X6X6X6X6X6X6X~.          7X7X7X7X7X7X7X7X7X7X",
"7X7X7X7X7X7X7X7X7X7X          V.U.U.U.U.$.m m m m >X5X5X5X5X5X5X5X5X5X5X5X5X5X5Xx.m m m m m m m m m 7.6X6X6X6X6X6X6X6X6X~.          7X7X7X7X7X7X7X7X7X7X",
"7X7X7X7X7X7X7X7X7X7X          V.U.U.U.U.$.m m m m :X4X4X4X4X4X4X4X4X4X4X4X4X4X4Xc.e.e.e.e.b m m m m 7.6X6X6X6X6X6X6X6X6X~.          7X7X7X7X7X7X7X7X7X7X",
"7X7X7X7X7X7X7X7X7X7X          V.U.U.U.U.$.m m m m XX;X;X;X;X;X;X;X;X;X;X;X;X;X;X;X;X;X;X;Xp.m m m m 7.6X6X6X6X6X6X6X6X6X~.          7X7X7X7X7X7X7X7X7X7X",
"7X7X7X7X7X7X7X7X7X7X          V.U.U.U.U.$.m m m m XX;X;X;X;X;X;X;X;X;X;X;X;X;X;X;X;X;X;X;Xp.m m m m 7.6X6X6X6X6X6X6X6X6X~.          7X7X7X7X7X7X7X7X7X7X",
"7X7X7X7X7X7X7X7X7X7X          V.U.U.U.U.$.m m m m XX;X;X;X;X;X;X;X;X;X;X;X;X;X;X;X;X;X;X;Xp.m m m m 7.6X6X6X6X6X6X6X6X6X~.          7X7X7X7X7X7X7X7X7X7X",
"7X7X7X7X7X7X7X7X7X7X          V.U.U.U.U.$.m m m m XX;X;X;X;X;X;X;X;X;X;X;X;X;X;X;X;X;X;X;Xp.m m m m 7.6X6X6X6X6X6X6X6X6X~.          7X7X7X7X7X7X7X7X7X7X",
"7X7X7X7X7X7X7X7X7X7Xo o o o o 8.B.B.B.B. .m m m m XX;X;X;X;X;X;X;X;X;X-X=X=X=X=X-X;X;X;X;XoXn n n n a.,X,X,X,X<X_._._._.L.          7X7X7X7X7X7X7X7X7X7X",
"7X7X7X7X7X7X7X7X7X7X7X, , , , o         q m m m m XX;X;X;X;X;X;X;X;X;X@X X X X X@X;X;X;X;X;X;X;X;X;X*X X X X Xy.m m m m y           7X7X7X7X7X7X7X7X7X7X",
"7X7X7X7X7X7X7X7X7X7X7X, , , , o         q m m m m XX;X;X;X;X;X;X;X;X;X@X X X X X@X;X;X;X;X;X;X;X;X;X*X X X X Xy.m m m m y           7X7X7X7X7X7X7X7X7X7X",
"7X7X7X7X7X7X7X7X7X7X7X, , , , o         q m m m m XX;X;X;X;X;X;X;X;X;X@X X X X X@X;X;X;X;X;X;X;X;X;X*X X X X Xy.m m m m y           7X7X7X7X7X7X7X7X7X7X",
"7X7X7X7X7X7X7X7X7X7X7X, , , , o         q m m m m XX;X;X;X;X;X;X;X;X;X@X X X X X@X;X;X;X;X;X;X;X;X;X*X X X X Xy.m m m m y           7X7X7X7X7X7X7X7X7X7X",
"7X7X7X7X7X7X7X7X7X7X7X, , , , # X X X X 7 u u u u i.&X&X&X&X%X$X$X$X$X.Xt.t.t.t.|.+X+X+X+X#X&X&X&X&XOXu.u.u.u.r.u u u u 9 X X X X X 7X7X7X7X7X7X7X7X7X7X",
"7X7X7X7X7X7X, , , , , , , , , , , , , , @         s +.+.+.+.P m m m m :                   4 +.+.+.+.) m m m m q         o , , , , , , , , , 7X7X7X7X7X7X",
"7X7X7X7X7X7X, , , , , , , , , , , , , , @         s +.+.+.+.P m m m m :                   4 +.+.+.+.) m m m m q         o , , , , , , , , , 7X7X7X7X7X7X",
"7X7X7X7X7X7X, , , , , , , , , , , , , , @         s +.+.+.+.P m m m m :                   4 +.+.+.+.) m m m m q         o , , , , , , , , , 7X7X7X7X7X7X",
"7X7X7X7X7X7X, , , , , , , , , , , , , , @         s +.+.+.+.P m m m m :                   4 +.+.+.+.) m m m m q         o , , , , , , , , , 7X7X7X7X7X7X",
"7X7X7X7X7X7X, , , , , , , , , , , , , , # . . . . p ........G h h h h > . . . . . . . . . 5 ........! h h h h 0 . . . . @ , , , , , , , , , 7X7X7X7X7X7X",
"7X7X7X7X7X7X, , , , , , , , , , , , , , , , , , , , , , , , , , , , , , , , , , , , , , , , , , , , , , , , , , , , , , , , , , , , , , , , 7X7X7X7X7X7X",
"7X7X7X7X7X7X, , , , , , , , , , , , , , , , , , , , , , , , , , , , , , , , , , , , , , , , , , , , , , , , , , , , , , , , , , , , , , , , 7X7X7X7X7X7X",
"7X7X7X7X7X7X, , , , , , , , , , , , , , , , , , , , , , , , , , , , , , , , , , , , , , , , , , , , , , , , , , , , , , , , , , , , , , , , 7X7X7X7X7X7X",
"7X7X7X7X7X7X, , , , , , , , , , , , , , , , , , , , , , , , , , , , , , , , , , , , , , , , , , , , , , , , , , , , , , , , , , , , , , , , 7X7X7X7X7X7X",
"7X7X7X7X7X7X7X7X7X7X7X, , , , , , , , , , , , , , , , , , , , , , , , , , , , , , , , , , , , , , , , , , , , , , , , , , , , , , 7X7X7X7X7X7X7X7X7X7X7X",
"7X7X7X7X7X7X7X7X7X7X7X, , , , , , , , , , , , , , , , , , , , , , , , , , , , , , , , , , , , , , , , , , , , , , , , , , , , , , 7X7X7X7X7X7X7X7X7X7X7X",
"7X7X7X7X7X7X7X7X7X7X7X, , , , , , , , , , , , , , , , , , , , , , , , , , , , , , , , , , , , , , , , , , , , , , , , , , , , , , 7X7X7X7X7X7X7X7X7X7X7X",
"7X7X7X7X7X7X7X7X7X7X7X, , , , , , , , , , , , , , , , , , , , , , , , , , , , , , , , , , , , , , , , , , , , , , , , , , , , , , 7X7X7X7X7X7X7X7X7X7X7X",
"7X7X7X7X7X7X7X7X7X7X7X, , , , , , , , , , , , , , , , , , , , , , , , , , , , , , , , , , , , , , , , , , , , , , , , , , , , , , 7X7X7X7X7X7X7X7X7X7X7X",
"7X7X7X7X7X7X7X7X7X7X7X, , , , , , , , , , , , , , , , , , , , , , , , , , , , , , , , , , , , , , , , , , , , , , , , , , , , , , 7X7X7X7X7X7X7X7X7X7X7X"
};
