/* XPM */
static char *PME3[] = {
/* columns rows colors chars-per-pixel */
"63 96 206 2 ",
"   c black",
".  c #020101",
"X  c #020204",
"o  c #030305",
"O  c #030406",
"+  c #080503",
"@  c #090605",
"#  c #0A0604",
"$  c #0C0704",
"%  c #0D0705",
"&  c #0C0805",
"*  c #0D0805",
"=  c #0E0805",
"-  c #0E0905",
";  c #040509",
":  c #05060B",
">  c #06070D",
",  c #0F0B08",
"<  c #100A06",
"1  c #120B07",
"2  c #110C07",
"3  c #130C07",
"4  c #130E0B",
"5  c #160D08",
"6  c #170E08",
"7  c #160F09",
"8  c #170F0D",
"9  c #190F09",
"0  c #1A1009",
"q  c #18100A",
"w  c #1A120B",
"e  c #1C120B",
"r  c #1F130B",
"t  c #1D130C",
"y  c #1E140C",
"u  c #040912",
"i  c #070C17",
"p  c #080911",
"a  c #080A11",
"s  c #090B13",
"d  c #060D1C",
"f  c #0C0E19",
"g  c #1E1713",
"h  c #181719",
"j  c #20130B",
"k  c #21110D",
"l  c #20150D",
"z  c #23160D",
"x  c #23170E",
"c  c #24160D",
"v  c #26170E",
"b  c #28180E",
"n  c #29190F",
"m  c #2A190F",
"M  c #221913",
"N  c #2D1B10",
"B  c #2A1C11",
"V  c #2B1D11",
"C  c #2D1C11",
"Z  c #2F1D11",
"A  c #2E1F13",
"S  c #2E1F18",
"D  c #311E12",
"F  c #311F12",
"G  c #331F12",
"H  c #25211D",
"J  c #27221D",
"K  c #2D2018",
"L  c #2F221A",
"P  c #322013",
"I  c #352013",
"U  c #332214",
"Y  c #322117",
"T  c #342315",
"R  c #352315",
"E  c #352217",
"W  c #392315",
"Q  c #3A2415",
"!  c #392617",
"~  c #3D2516",
"^  c #091424",
"/  c #09142A",
"(  c #151821",
")  c #0C1B37",
"_  c #382D30",
"`  c #35303A",
"'  c #402717",
"]  c #412717",
"[  c #412817",
"{  c #412818",
"}  c #432919",
"|  c #442A19",
" . c #452B19",
".. c #452B1A",
"X. c #452D1B",
"o. c #472D1B",
"O. c #482D1B",
"+. c #492E1C",
"@. c #492F1C",
"#. c #4A2F1C",
"$. c #48301D",
"%. c #4B301D",
"&. c #4C311D",
"*. c #4D311E",
"=. c #4D321E",
"-. c #4E321E",
";. c #4E331E",
":. c #4F331F",
">. c #443120",
",. c #413027",
"<. c #453125",
"1. c #4D3422",
"2. c #4B392F",
"3. c #513520",
"4. c #523620",
"5. c #523621",
"6. c #533721",
"7. c #543723",
"8. c #543624",
"9. c #553724",
"0. c #543821",
"q. c #543822",
"w. c #553822",
"e. c #563922",
"r. c #563A23",
"t. c #573A23",
"y. c #563825",
"u. c #583A25",
"i. c #5D3E27",
"p. c #573A2C",
"a. c #5E4028",
"s. c #5A422F",
"d. c #4C4337",
"f. c #4D4539",
"g. c #63432C",
"h. c #65442E",
"j. c #68472F",
"k. c #614635",
"l. c #624A36",
"z. c #6B4933",
"x. c #6F4C35",
"c. c #6B4D3C",
"v. c #714D35",
"b. c #714D39",
"n. c #74513D",
"m. c #71543E",
"M. c #0E2042",
"N. c #344C76",
"B. c #544643",
"V. c #625042",
"C. c #7A5D4A",
"Z. c #50556B",
"A. c #625B64",
"S. c #665F66",
"D. c #6B6369",
"F. c #736260",
"G. c #7A727F",
"H. c #825A42",
"J. c #8A6146",
"K. c #80674D",
"L. c #8E664A",
"P. c #95694E",
"I. c #966A4F",
"U. c #8B6A51",
"Y. c #816E5B",
"T. c #996C51",
"R. c #8D775F",
"E. c #A37457",
"W. c #A7775A",
"Q. c #A8785A",
"!. c #AC7B5D",
"~. c #927E69",
"^. c #AE7F61",
"/. c #9B856C",
"(. c #B08567",
"). c #B59073",
"_. c #B9987B",
"`. c #B9997B",
"'. c #1D438A",
"]. c #314F80",
"[. c #3C578B",
"{. c #3E588B",
"}. c #25559F",
"|. c #305893",
" X c #2657A4",
".X c #2A61AD",
"XX c #2B61AD",
"oX c #2D62AE",
"OX c #2C65B5",
"+X c #787E97",
"@X c #5A74A3",
"#X c #657EAA",
"$X c #867D88",
"%X c #758EB5",
"&X c #82879E",
"*X c #B99D80",
"=X c #BDA285",
"-X c #BAA78F",
";X c #BFA88B",
":X c #8A8FA3",
">X c #9196A8",
",X c #A4A8B5",
"<X c #C0A98C",
"1X c #C0AA8D",
"2X c #C1AC8F",
"3X c None",
/* pixels */
"3X3X3X3X3X3X3X3X3X3X3X3X3X3X3X3X3X3X3X3X3X3X3X3X3X                  3X3X3X3X                                  3X3X3X3X3X3X3X3X",
"3X3X3X3X3X3X3X3X3X3X3X3X3X3X3X3X3X3X3X3X3X3X3X3X3X                  3X3X3X3X                                  3X3X3X3X3X3X3X3X",
"3X3X3X3X3X3X3X3X3X3X3X3X3X3X3X3X3X3X3X3X3X3X3X3X3X                  3X3X3X3X                                  3X3X3X3X3X3X3X3X",
"3X3X3X3X3X3X3X3X3X3X3X3X3X3X3X3X3X3X3X3X3X3X3X3X3X                  3X3X3X3X                                  3X3X3X3X3X3X3X3X",
"3X3X3X3X3X3X3X3X3X3X3X3X3X3X3X3X3X                        V $.$.$.A       $ I I I I $.$.$.$.$.$.$.$.t         3X3X3X3X3X3X3X3X",
"3X3X3X3X3X3X3X3X3X3X3X3X3X3X3X3X3X                        T t.t.t.T       * ' ' ' ' t.t.t.t.t.t.t.t.x         3X3X3X3X3X3X3X3X",
"3X3X3X3X3X3X3X3X3X3X3X3X3X3X3X3X3X                        T t.t.t.T       * ' ' ' ' t.t.t.t.t.t.t.t.x         3X3X3X3X3X3X3X3X",
"3X3X3X3X3X3X3X3X3X3X3X3X3X3X3X3X3X                        T t.t.t.T       * ' ' ' ' t.t.t.t.t.t.t.t.x         3X3X3X3X3X3X3X3X",
"3X3X3X3X3X3X3X3X3X3X3X3X3X      < ! ! ! ! ! ! ! ! C m m m X.t.t.t.X.m m m F :.:.:.:.t.t.t.t.B y y y &         3X3X3X3X3X3X3X3X",
"3X3X3X3X3X3X3X3X3X3X3X3X3X      2 t.t.t.t.t.t.t.t. .' ' ' -.t.t.t.-.' ' '  .t.t.t.t.t.t.t.t.2                 3X3X3X3X3X3X3X3X",
"3X3X3X3X3X3X3X3X3X3X3X3X3X      2 t.t.t.t.t.t.t.t. .' ' ' -.t.t.t.-.' ' '  .t.t.t.t.t.t.t.t.2                 3X3X3X3X3X3X3X3X",
"3X3X3X3X3X3X3X3X3X3X3X3X3X      2 t.t.t.t.t.t.t.t. .' ' ' -.t.t.t.-.' ' '  .t.t.t.t.t.t.t.t.2                 3X3X3X3X3X3X3X3X",
"3X3X3X3X3X3X3X3X3X3X3X3Xq B B B U t.t.t.t.t.t.t.t.=.%.%.%.4.t.t.t.4.%.%.%.=.t.t.t.t.t.t.t.t.U B B B z r r r 6 3X3X3X3X3X3X3X3X",
"3X3X3X3X3X3X3X3X        x t.t.t.t.t.t.t.t.t.t.t.t.t.t.t.t.t.t.t.t.t.t.t.t.t.t.t.t.t.t.t.t.t.t.t.t.t.@.' ' ' v         3X3X3X3X",
"3X3X3X3X3X3X3X3X        x t.t.t.t.t.t.t.t.t.t.t.t.t.t.t.t.t.t.t.t.t.t.t.t.t.t.t.t.t.t.t.t.t.t.t.t.t.@.' ' ' v         3X3X3X3X",
"3X3X3X3X3X3X3X3X        x t.t.t.t.t.t.t.t.t.t.t.t.t.t.t.t.t.t.t.t.t.t.t.t.t.t.t.t.t.t.t.t.t.t.t.t.t.@.' ' ' v         3X3X3X3X",
"3X3X3X3X3X3X3X3X7 w w w U t.t.t.t.t.t.t.t.t.t.t.t.t.t.t.t.t.t.t.t.t.t.t.t.t.t.t.t.t.t.t.t.t.t.t.t.t.=.o.o.o.P 3 3 3 1 3X3X3X3X",
"3X3X3X3X        T t.t.t.t.t.t.t.t.t.t.t.t.t.t.t.t.t.t.t.t.t.t.t.t.t.t.t.t.t.t.t.t.t.t.t.t.t.t.t.t.t.t.t.t.t.-.' ' ' G         ",
"3X3X3X3X        T t.t.t.t.t.t.t.t.t.t.t.t.t.t.t.t.t.t.t.t.t.t.t.t.t.t.t.t.t.t.t.t.t.t.t.t.t.t.t.t.t.t.t.t.t.-.' ' ' G         ",
"3X3X3X3X        T t.t.t.t.t.t.t.t.t.t.t.t.t.t.t.t.t.t.t.t.t.t.t.t.t.t.t.t.t.t.t.t.t.t.t.t.t.t.t.t.t.t.t.t.t.-.' ' ' G         ",
"3X3X3X3X        T t.t.t.t.t.t.t.t.t.t.t.t.0.0.0.0.0.0.0.0.e.t.t.t.t.t.t.t.t.t.t.t.t.0.0.0.0.r.t.t.t.t.t.t.t.-.' ' ' G         ",
"3X3X3X3X        T t.t.t.t.t.t.t.t.t.t.t.t.' ' ' ' ' ' ' ' -.t.t.t.t.t.t.t.t.t.t.t.t.' ' ' ' 5.t.t.t.t.t.t.t.-.' ' ' G         ",
"3X3X3X3X        T t.t.t.t.t.t.t.t.t.t.t.t.' ' ' ' ' ' ' ' -.t.t.t.t.t.t.t.t.t.t.t.t.' ' ' ' 5.t.t.t.t.t.t.t.-.' ' ' G         ",
"3X3X3X3X        T t.t.t.t.t.t.t.t.t.t.t.t.' ' ' ' ' ' ' ' -.t.t.t.t.t.t.t.t.t.t.t.t.' ' ' ' 5.t.t.t.t.t.t.t.-.' ' ' G         ",
"3X3X3X3X        T t.t.t.t.t.t.t.t.t.t.t.t.' ' ' ' ' ' ' ' -.t.t.t.t.t.t.t.t.t.t.t.t.' ' ' ' 5.t.t.t.t.t.t.t.-.' ' ' G         ",
"        D ~ ~ ~ *.t.t.t.;.{ { { y.Q.Q.Q.Q.W.W.W.W.9.' ' ' -.t.t.t.t.t.t.t.t.t.t.t.t.' ' ' ' [ { { { { { { { ] ' ' ' G         ",
"        G ' ' ' -.t.t.t.-.' ' ' y.!.!.!.!.!.!.!.!.y.' ' ' -.t.t.t.t.t.t.t.t.t.t.t.t.' ' ' ' ' ' ' ' ' ' ' ' ' ' ' ' G         ",
"        G ' ' ' -.t.t.t.-.' ' ' y.!.!.!.!.!.!.!.!.y.' ' ' -.t.t.t.t.t.t.t.t.t.t.t.t.' ' ' ' ' ' ' ' ' ' ' ' ' ' ' ' G         ",
"        G ' ' ' -.t.t.t.-.' ' ' y.!.!.!.!.!.!.!.!.y.' ' ' -.t.t.t.t.t.t.t.t.t.t.t.t.' ' ' ' ' ' ' ' ' ' ' ' ' ' ' ' G         ",
"        G ' ' ' } ......h.P.P.P.T.!.!.!.!.!.!.!.!.T.P.P.P.h.......&.t.t.t.t.t.t.t.t.' ' ' ' ' ' ' ' %.4.4.4.%.' ' ' G         ",
"        G ' ' ' ' ' ' ' z.!.!.!.!.!.!.!.!.!.!.!.!.!.!.!.!.z.' ' ' @.t.t.t.t.t.t.t.t.' ' ' ' ' ' ' ' -.t.t.t.-.' ' ' G         ",
"        G ' ' ' ' ' ' ' z.!.!.!.!.!.!.!.!.!.!.!.!.!.!.!.!.z.' ' ' @.t.t.t.t.t.t.t.t.' ' ' ' ' ' ' ' -.t.t.t.-.' ' ' G         ",
"        G ' ' ' ' ' ' ' z.!.!.!.!.!.!.!.!.!.!.!.!.!.!.!.!.z.' ' ' @.t.t.t.t.t.t.t.t.' ' ' ' ' ' ' ' -.t.t.t.-.' ' ' G         ",
"        G ' ' ' n 9 9 9 Y p.p.p.c.`.`.`.`.`.`.`.`.c.p.p.p.b.H.H.H.v.t.t.t.q.+.+.+.+.H.H.H.H.u.;.;.;.6.t.t.t.-.' ' ' G         ",
"        G ' ' ' 0       % k k k ,.2X2X2X2X2X2X2X2X,.k k k n.!.!.!.J.t.t.t.5.' ' ' ' !.!.!.!.j.t.t.t.t.t.t.t.-.' ' ' G         ",
"        G ' ' ' 0       % k k k ,.2X2X2X2X2X2X2X2X,.k k k n.!.!.!.J.t.t.t.5.' ' ' ' !.!.!.!.j.t.t.t.t.t.t.t.-.' ' ' G         ",
"        G ' ' ' 0       % k k k ,.2X2X2X2X2X2X2X2X,.k k k n.!.!.!.J.t.t.t.5.' ' ' ' !.!.!.!.j.t.t.t.t.t.t.t.-.' ' ' G         ",
"        j c c c -       % k k k ,.2X2X2X2X2X2X2X2X,.k k k C.).).).U.=.=.=.7.x.x.x.x.!.!.!.!.j.t.t.t.3.=.=.=.O.' ' ' G         ",
"3X3X3X3X                % k k k ,.2X2X2X2X2X2X2X2X,.k k k Y.2X2X2XR.' ' ' y.!.!.!.!.!.!.!.!.j.t.t.t.@.' ' ' ' ' ' ' G         ",
"3X3X3X3X                % k k k ,.2X2X2X2X2X2X2X2X,.k k k Y.2X2X2XR.' ' ' y.!.!.!.!.!.!.!.!.j.t.t.t.@.' ' ' ' ' ' ' G         ",
"3X3X3X3X                % k k k ,.2X2X2X2X2X2X2X2X,.k k k Y.2X2X2XR.' ' ' y.!.!.!.!.!.!.!.!.j.t.t.t.@.' ' ' ' ' ' ' G         ",
"3X3X3X3X                g 2.2.2.V.2X2X2X2X2X2X2X2XV.2.2.2.~.2X2X2X/.l.l.l.m.!.!.!.!.!.!.!.!.g.3.3.3.o.' ' ' W Z Z Z b         ",
"3X3X3X3X3X3X3X3X        f.2X2X2X2X2X2X2X2X2X2X2X2X2X2X2X2X2X2X2X2X2X2X2X2X=X!.!.!.!.!.!.!.!.y.' ' ' ' ' ' ' v         3X3X3X3X",
"3X3X3X3X3X3X3X3X        f.2X2X2X2X2X2X2X2X2X2X2X2X2X2X2X2X2X2X2X2X2X2X2X2X=X!.!.!.!.!.!.!.!.y.' ' ' ' ' ' ' v         3X3X3X3X",
"3X3X3X3X3X3X3X3X        f.2X2X2X2X2X2X2X2X2X2X2X2X2X2X2X2X2X2X2X2X2X2X2X2X=X!.!.!.!.!.!.!.!.y.' ' ' ' ' ' ' v         3X3X3X3X",
"3X3X3X3X3X3X3X3X        d.;X;X;X<X2X2X2X2X2X2X2X2X2X2X2X2X2X2X2X2X1X;X;X;X*XE.E.E.E.E.E.E.E.8.' ' ' ~ Q Q Q c         3X3X3X3X",
"3X3X3X3X3X3X3X3X        <.!.!.!.(.2X2X2X2X2X2X2X2X2X2X2X2X2X2X2X2X_.!.!.!.I.' ' ' ' ' ' ' ' ' ' ' ' 0         3X3X3X3X3X3X3X3X",
"3X3X3X3X3X3X3X3X        <.!.!.!.(.2X2X2X2X2X2X2X2X2X2X2X2X2X2X2X2X_.!.!.!.I.' ' ' ' ' ' ' ' ' ' ' ' 0         3X3X3X3X3X3X3X3X",
"3X3X3X3X3X3X3X3X        <.!.!.!.(.2X2X2X2X2X2X2X2X2X2X2X2X2X2X2X2X_.!.!.!.I.' ' ' ' ' ' ' ' ' ' ' ' 0         3X3X3X3X3X3X3X3X",
"3X3X3X3X3X3X3X3X        <.!.!.!.(.2X2X2X2X2X2X2X2X2X2X2X2X2X2X2X2X_.!.!.!.I.' ' ' ' ' ' ' ' ' ' ' ' 0         3X3X3X3X3X3X3X3X",
"3X3X3X3X3X3X3X3X3X3X3X3X3X, , , L ^.^.^.^.^.^.^.^.^.^.^.^.^.^.^.^.L.a.a.a.i.w.w.w.w.w.w.w.w.| ' ' ' 0         3X3X3X3X3X3X3X3X",
"3X3X3X3X3X3X3X3X3X3X3X3X3X      M !.!.!.!.!.!.!.!.!.!.!.!.!.!.!.!.J.t.t.t.t.t.t.t.t.t.t.t.t. .' ' ' 0         3X3X3X3X3X3X3X3X",
"3X3X3X3X3X3X3X3X3X3X3X3X3X      M !.!.!.!.!.!.!.!.!.!.!.!.!.!.!.!.J.t.t.t.t.t.t.t.t.t.t.t.t. .' ' ' 0         3X3X3X3X3X3X3X3X",
"3X3X3X3X3X3X3X3X3X3X3X3X3X      M !.!.!.!.!.!.!.!.!.!.!.!.!.!.!.!.J.t.t.t.t.t.t.t.t.t.t.t.t. .' ' ' 0         3X3X3X3X3X3X3X3X",
"3X3X3X3X3X3X3X3X3X3X3X3X3X      @ K K K K $X$X$X$X$X$X$X$X$X$X$X$XF.t.t.t.t.t.t.t.t.t.t.t.t.4.3.3.3.l         3X3X3X3X3X3X3X3X",
"3X3X3X3X3X3X3X3X3X3X3X3X3X                +X+X+X+X+X+X+X+X+X+X+X+XD.t.t.t.t.t.t.t.t.t.t.t.t.t.t.t.t.x         3X3X3X3X3X3X3X3X",
"3X3X3X3X3X3X3X3X3X3X3X3X3X                +X+X+X+X+X+X+X+X+X+X+X+XD.t.t.t.t.t.t.t.t.t.t.t.t.t.t.t.t.x         3X3X3X3X3X3X3X3X",
"3X3X3X3X3X3X3X3X3X3X3X3X3X                +X+X+X+X+X+X+X+X+X+X+X+XD.t.t.t.t.t.t.t.t.t.t.t.t.t.t.t.t.x         3X3X3X3X3X3X3X3X",
"3X3X3X3X3X3X3X3X3X3X3X3X3X      4 k.k.k.k.>X>X>X>X>X>X>X>X&X+X+X+XS.#.#.#.*.t.t.t.t.t.t.t.t.t.t.t.t.x         3X3X3X3X3X3X3X3X",
"3X3X3X3X3X3X3X3X3X3X3X3X3X      M !.!.!.!.,X,X,X,X,X,X,X,X:X+X+X+XA.' ' '  .t.t.t.t.t.t.t.t.t.t.t.t.x         3X3X3X3X3X3X3X3X",
"3X3X3X3X3X3X3X3X3X3X3X3X3X      M !.!.!.!.,X,X,X,X,X,X,X,X:X+X+X+XA.' ' '  .t.t.t.t.t.t.t.t.t.t.t.t.x         3X3X3X3X3X3X3X3X",
"3X3X3X3X3X3X3X3X3X3X3X3X3X      M !.!.!.!.,X,X,X,X,X,X,X,X:X+X+X+XA.' ' '  .t.t.t.t.t.t.t.t.t.t.t.t.x         3X3X3X3X3X3X3X3X",
"3X3X3X3X3X3X3X3X3X3X3X3X3X      h G.G.G.G.%X%X%X%X%X%X%X%X#X@X@X@XZ.' ' ' 1.K.K.K.K.K.K.K.K.>.R R R e       3X3X3X3X3X3X3X3X3X",
"3X3X3X3X3X3X3X3X3X3X3X3X3X      ^ OXOXOXOXOXOXOXOXOXOXOXOXOXOXOXOXN.' ' ' s.2X2X2X2X2X2X2X2XJ       3X3X3X3X3X3X3X3X3X3X3X3X3X",
"3X3X3X3X3X3X3X3X3X3X3X3X3X      ^ OXOXOXOXOXOXOXOXOXOXOXOXOXOXOXOXN.' ' ' s.2X2X2X2X2X2X2X2XJ       3X3X3X3X3X3X3X3X3X3X3X3X3X",
"3X3X3X3X3X3X3X3X3X3X3X3X3X      ^ OXOXOXOXOXOXOXOXOXOXOXOXOXOXOXOXN.' ' ' s.2X2X2X2X2X2X2X2XJ       3X3X3X3X3X3X3X3X3X3X3X3X3X",
"3X3X3X3X3X3X3X3X3X3X3X3X# = = = ( |.|.|.|.OXOXOXOXOXOXOXOXOXOXOXOX]._ _ _ B.2X2X2X2X2X2X2X2XJ       3X3X3X3X3X3X3X3X3X3X3X3X3X",
"3X3X3X3X3X3X3X3X        0 ' ' ' ' ' ' ' ' OXOXOXOXOXOXOXOXOXOXOXOX X'.'.'.{.2X2X2X2X2X2X2X2XJ       3X3X3X3X3X3X3X3X3X3X3X3X3X",
"3X3X3X3X3X3X3X3X        0 ' ' ' ' ' ' ' ' OXOXOXOXOXOXOXOXOXOXOXOX X'.'.'.{.2X2X2X2X2X2X2X2XJ       3X3X3X3X3X3X3X3X3X3X3X3X3X",
"3X3X3X3X3X3X3X3X        0 ' ' ' ' ' ' ' ' OXOXOXOXOXOXOXOXOXOXOXOX X'.'.'.{.2X2X2X2X2X2X2X2XJ       3X3X3X3X3X3X3X3X3X3X3X3X3X",
"3X3X3X3X3X3X3X3X        0 ' ' ' ' ' ' ' ' oXoXoXoXXX.X.X.X.X.X.X.X}.'.'.'.[.-X-X-X-X-X-X-X-XH       3X3X3X3X3X3X3X3X3X3X3X3X3X",
"3X3X3X3X3X3X3X3X        0 ' ' ' ' ' ' ' ' ' ' ' ' *               ) '.'.'.'.'.'.'.'.'.'.'.'.d       3X3X3X3X3X3X3X3X3X3X3X3X3X",
"3X3X3X3X3X3X3X3X        0 ' ' ' ' ' ' ' ' ' ' ' ' *               ) '.'.'.'.'.'.'.'.'.'.'.'.d       3X3X3X3X3X3X3X3X3X3X3X3X3X",
"3X3X3X3X3X3X3X3X        0 ' ' ' ' ' ' ' ' ' ' ' ' *               ) '.'.'.'.'.'.'.'.'.'.'.'.d       3X3X3X3X3X3X3X3X3X3X3X3X3X",
"3X3X3X3X3X3X3X3X        0 ' ' ' ' ' ' ' ' ' ' ' ' *               ) '.'.'.'.'.'.'.'.'.'.'.'.d       3X3X3X3X3X3X3X3X3X3X3X3X3X",
"3X3X3X3X3X3X3X3X3X3X3X3X3X+ + + + + + + + + + + + .       3X3X3X3X3Xu u u / '.'.'.'.'.'.'.'.d       3X3X3X3X3X3X3X3X3X3X3X3X3X",
"3X3X3X3X3X3X3X3X3X3X3X3X3X                                3X3X3X3X3X      d '.'.'.'.'.'.'.'.d       3X3X3X3X3X3X3X3X3X3X3X3X3X",
"3X3X3X3X3X3X3X3X3X3X3X3X3X                                3X3X3X3X3X      d '.'.'.'.'.'.'.'.d       3X3X3X3X3X3X3X3X3X3X3X3X3X",
"3X3X3X3X3X3X3X3X3X3X3X3X3X                                3X3X3X3X3X      d '.'.'.'.'.'.'.'.d       3X3X3X3X3X3X3X3X3X3X3X3X3X",
"3X3X3X3X3X3X3X3X3X3X3X3X3X> > > > > > > > > > > > > > > > 3X3X3X3X;       d '.'.'.'.` ` ` ` S N N N 5       3X3X3X3X3X3X3X3X3X",
"3X3X3X3X3X3X3X3X3Xf f f f f f f f f f f f f f f f f f f f f f f f :       d '.'.'.'.' ' ' ' ' ' ' ' 0         3X3X3X3X3X3X3X3X",
"3X3X3X3X3X3X3X3X3Xf f f f f f f f f f f f f f f f f f f f f f f f :       d '.'.'.'.' ' ' ' ' ' ' ' 0         3X3X3X3X3X3X3X3X",
"3X3X3X3X3X3X3X3X3Xf f f f f f f f f f f f f f f f f f f f f f f f :       d '.'.'.'.' ' ' ' ' ' ' ' 0         3X3X3X3X3X3X3X3X",
"3X3X3X3X3X3X3X3X3Xf f f f f f f f f f f f f f f f f f f f f f f f a ; ; ; i M.M.M.M.' ' ' ' ' ' ' ' 0       X 3X3X3X3X3X3X3X3X",
"3X3X3X3X3Xf f f f f f f f f f f f f f f f f f f f f f f f f f f f f f f f p         ' ' ' ' ' ' ' ' 0       O f f f 3X3X3X3X3X",
"3X3X3X3X3Xf f f f f f f f f f f f f f f f f f f f f f f f f f f f f f f f p         ' ' ' ' ' ' ' ' 0       O f f f 3X3X3X3X3X",
"3X3X3X3X3Xf f f f f f f f f f f f f f f f f f f f f f f f f f f f f f f f p         ' ' ' ' ' ' ' ' 0       O f f f 3X3X3X3X3X",
"3X3X3X3X3Xf f f f f f f f f f f f f f f f f f f f f f f f f f f f f f f f s o o o o E E E E E E E E 8 o o o : f f f 3X3X3X3X3X",
"3X3X3X3X3Xf f f f f f f f f f f f f f f f f f f f f f f f f f f f f f f f f f f f f f f f f f f f f f f f f f f f f 3X3X3X3X3X",
"3X3X3X3X3Xf f f f f f f f f f f f f f f f f f f f f f f f f f f f f f f f f f f f f f f f f f f f f f f f f f f f f 3X3X3X3X3X",
"3X3X3X3X3Xf f f f f f f f f f f f f f f f f f f f f f f f f f f f f f f f f f f f f f f f f f f f f f f f f f f f f 3X3X3X3X3X",
"3X3X3X3X3X3X3X3X3Xf f f f f f f f f f f f f f f f f f f f f f f f f f f f f f f f f f f f f f f f f f f f f 3X3X3X3X3X3X3X3X3X",
"3X3X3X3X3X3X3X3X3Xf f f f f f f f f f f f f f f f f f f f f f f f f f f f f f f f f f f f f f f f f f f f f 3X3X3X3X3X3X3X3X3X",
"3X3X3X3X3X3X3X3X3Xf f f f f f f f f f f f f f f f f f f f f f f f f f f f f f f f f f f f f f f f f f f f f 3X3X3X3X3X3X3X3X3X",
"3X3X3X3X3X3X3X3X3Xf f f f f f f f f f f f f f f f f f f f f f f f f f f f f f f f f f f f f f f f f f f f f 3X3X3X3X3X3X3X3X3X",
"3X3X3X3X3X3X3X3X3Xf f f f f f f f f f f f f f f f f f f f f f f f f f f f f f f f f f f f f f f f f f f f f 3X3X3X3X3X3X3X3X3X"
};
