/* XPM */
static char *PME4[] = {
/* columns rows colors chars-per-pixel */
"65 96 165 2 ",
"   c black",
".  c #010101",
"X  c #020305",
"o  c #030306",
"O  c #040407",
"+  c #0C0704",
"@  c #0F0906",
"#  c #06070D",
"$  c #07080E",
"%  c #110B06",
"&  c #150D07",
"*  c #150D08",
"=  c #150E08",
"-  c #170F09",
";  c #18100A",
":  c #1B110A",
">  c #1A100B",
",  c #1D120A",
"<  c #1F130B",
"1  c #1D130C",
"2  c #0A0C15",
"3  c #050C19",
"4  c #0C0E19",
"5  c #21110D",
"6  c #23150D",
"7  c #25170D",
"8  c #25190F",
"9  c #29190F",
"0  c #2B1A0F",
"q  c #2A1C11",
"w  c #221918",
"e  c #301E11",
"r  c #311F12",
"t  c #2F2013",
"y  c #342013",
"u  c #322114",
"i  c #372516",
"p  c #3A2315",
"a  c #3A2717",
"s  c #3E2616",
"d  c #3F2A19",
"f  c #081221",
"g  c #09152C",
"h  c #0A162E",
"j  c #0C1C38",
"k  c #282126",
"l  c #3F2D22",
"z  c #3C2A25",
"x  c #3A2C2C",
"c  c #3C352C",
"v  c #402717",
"b  c #412818",
"n  c #402918",
"m  c #422918",
"M  c #402A19",
"N  c #432A19",
"B  c #442A19",
"V  c #462C1A",
"C  c #472D1C",
"Z  c #482D1B",
"A  c #492E1C",
"S  c #4A2F1D",
"D  c #4A301C",
"F  c #4D311E",
"G  c #4E321F",
"H  c #4F331F",
"J  c #4F341F",
"K  c #50341F",
"L  c #4F3520",
"P  c #513520",
"I  c #533721",
"U  c #543822",
"Y  c #553822",
"T  c #563922",
"R  c #563923",
"E  c #573A23",
"W  c #593B26",
"Q  c #5C3D27",
"!  c #533C2D",
"~  c #403536",
"^  c #403930",
"/  c #5B493C",
"(  c #64432E",
")  c #664530",
"_  c #714D37",
"`  c #68503C",
"'  c #6B533F",
"]  c #765238",
"[  c #73523E",
"{  c #7F583F",
"}  c #10254B",
"|  c #132D5C",
" . c #2D364C",
".. c #3A3A47",
"X. c #393C4C",
"o. c #2D3656",
"O. c #343D57",
"+. c #173568",
"@. c #18376C",
"#. c #1A3D7D",
"$. c #203C66",
"%. c #293A64",
"&. c #1D4379",
"*. c #35496D",
"=. c #5F4F46",
"-. c #6F5743",
";. c #7E5840",
":. c #7E5842",
">. c #7D5944",
",. c #405173",
"<. c #706066",
"1. c #7C686C",
"2. c #835D46",
"3. c #885F46",
"4. c #8D6348",
"5. c #8F644A",
"6. c #8D654C",
"7. c #90654A",
"8. c #94694F",
"9. c #8D6D55",
"0. c #82645B",
"q. c #886F5B",
"w. c #986C50",
"e. c #9B6E52",
"r. c #9D6F52",
"t. c #9C7055",
"y. c #9F7156",
"u. c #94785F",
"i. c #A27357",
"p. c #A97B5E",
"a. c #AC7B5D",
"s. c #8C7864",
"d. c #9E7C6D",
"f. c #AE7F62",
"g. c #968067",
"h. c #9F8B73",
"j. c #9E8D75",
"k. c #B18769",
"l. c #B48D6F",
"z. c #A69076",
"x. c #AA9479",
"c. c #BA9C7E",
"v. c #1D438A",
"b. c #325285",
"n. c #204992",
"m. c #224E98",
"M. c #24529E",
"N. c #305A98",
"B. c #2556A1",
"V. c #2E5DA2",
"C. c #2E5FA7",
"Z. c #295FAD",
"A. c #2C65B5",
"S. c #787E97",
"D. c #4F70A7",
"F. c #5C7DB0",
"G. c #6383B5",
"H. c #BB9F81",
"J. c #B5A084",
"K. c #9397A9",
"L. c #959AAB",
"P. c #A0A4B2",
"I. c #A4A8B5",
"U. c #C1AC8F",
"Y. c None",
/* pixels */
"Y.Y.Y.Y.Y.Y.Y.Y.Y.Y.Y.Y.Y.Y.Y.Y.Y.Y.Y.Y.Y.Y.Y.Y.Y.Y.                  Y.Y.Y.Y.                                  Y.Y.Y.Y.Y.Y.Y.Y.Y.",
"Y.Y.Y.Y.Y.Y.Y.Y.Y.Y.Y.Y.Y.Y.Y.Y.Y.Y.Y.Y.Y.Y.Y.Y.Y.Y.                  Y.Y.Y.Y.                                  Y.Y.Y.Y.Y.Y.Y.Y.Y.",
"Y.Y.Y.Y.Y.Y.Y.Y.Y.Y.Y.Y.Y.Y.Y.Y.Y.Y.Y.Y.Y.Y.Y.Y.Y.Y.                  Y.Y.Y.Y.                                  Y.Y.Y.Y.Y.Y.Y.Y.Y.",
"Y.Y.Y.Y.Y.Y.Y.Y.Y.Y.Y.Y.Y.Y.Y.Y.Y.Y.Y.Y.Y.Y.Y.Y.Y.Y.                  Y.Y.Y.Y.                                  Y.Y.Y.Y.Y.Y.Y.Y.Y.",
"Y.Y.Y.Y.Y.Y.Y.Y.Y.Y.Y.Y.Y.Y.Y.Y.Y.Y.                        8 i i i q         9 9 9 9 u i i i i i i i i         Y.Y.Y.Y.Y.Y.Y.Y.Y.",
"Y.Y.Y.Y.Y.Y.Y.Y.Y.Y.Y.Y.Y.Y.Y.Y.Y.                          a E E E a         v v v v J E E E E E E E E         Y.Y.Y.Y.Y.Y.Y.Y.Y.",
"Y.Y.Y.Y.Y.Y.Y.Y.Y.Y.Y.Y.Y.Y.Y.Y.Y.                          a E E E a         v v v v J E E E E E E E E         Y.Y.Y.Y.Y.Y.Y.Y.Y.",
"Y.Y.Y.Y.Y.Y.Y.Y.Y.Y.Y.Y.Y.Y.Y.Y.Y.                          a E E E a         v v v v J E E E E E E E E         Y.Y.Y.Y.Y.Y.Y.Y.Y.",
"Y.Y.Y.Y.Y.Y.Y.Y.Y.Y.Y.Y.Y.Y.Y.Y.Y.= ; ; ; ; ; ; ; ; % % % % M E E E M % % % % V V V V P E E E L d d d d         Y.Y.Y.Y.Y.Y.Y.Y.Y.",
"Y.Y.Y.Y.Y.Y.Y.Y.Y.Y.Y.Y.Y.        a E E E E E E E E v v v v J E E E J v v v v E E E E E E E E a                 Y.Y.Y.Y.Y.Y.Y.Y.Y.",
"Y.Y.Y.Y.Y.Y.Y.Y.Y.Y.Y.Y.Y.        a E E E E E E E E v v v v J E E E J v v v v E E E E E E E E a                 Y.Y.Y.Y.Y.Y.Y.Y.Y.",
"Y.Y.Y.Y.Y.Y.Y.Y.Y.Y.Y.Y.Y.        a E E E E E E E E v v v v J E E E J v v v v E E E E E E E E a                 Y.Y.Y.Y.Y.Y.Y.Y.Y.",
"Y.Y.Y.Y.Y.Y.Y.Y.Y.Y.Y.Y.Y.        a E E E E E E E E v v v v J E E E J v v v v E E E E E E E E a                 Y.Y.Y.Y.Y.Y.Y.Y.Y.",
"Y.Y.Y.Y.Y.Y.Y.Y.Y.        L L L L U E E E E E E E E Y Y Y Y R E E E R Y Y Y Y E E E E E E E E U L L L L p p p p &         Y.Y.Y.Y.",
"Y.Y.Y.Y.Y.Y.Y.Y.Y.        E E E E E E E E E E E E E E E E E E E E E E E E E E E E E E E E E E E E E E E v v v v *         Y.Y.Y.Y.",
"Y.Y.Y.Y.Y.Y.Y.Y.Y.        E E E E E E E E E E E E E E E E E E E E E E E E E E E E E E E E E E E E E E E v v v v *         Y.Y.Y.Y.",
"Y.Y.Y.Y.Y.Y.Y.Y.Y.        E E E E E E E E E E E E E E E E E E E E E E E E E E E E E E E E E E E E E E E v v v v *         Y.Y.Y.Y.",
"Y.Y.Y.Y.Y.      - t t t t E E E E E E E E E E E E E E E E E E E E E E E E E E E E E E E E E E E E E E E F F F F r 6 6 6 :         ",
"Y.Y.Y.Y.        1 E E E E E E E E E E E E E E E E E E E E E E E E E E E E E E E E E E E E E E E E E E E E E E E Z v v v 0         ",
"Y.Y.Y.Y.        1 E E E E E E E E E E E E E E E E E E E E E E E E E E E E E E E E E E E E E E E E E E E E E E E Z v v v 0         ",
"Y.Y.Y.Y.        1 E E E E E E E E E E E E E E E E E E E E E E E E E E E E E E E E E E E E E E E E E E E E E E E Z v v v 0         ",
"Y.Y.Y.Y.        1 E E E E E E E E E E E E T I I I I I I I I T E E E E E E E E E E E E U I I I U E E E E E E E E Z v v v 0         ",
"Y.Y.Y.Y.        1 E E E E E E E E E E E E J v v v v v v v v J E E E E E E E E E E E E Z v v v Z E E E E E E E E Z v v v 0         ",
"Y.Y.Y.Y.        1 E E E E E E E E E E E E J v v v v v v v v J E E E E E E E E E E E E Z v v v Z E E E E E E E E Z v v v 0         ",
"Y.Y.Y.Y.        1 E E E E E E E E E E E E J v v v v v v v v J E E E E E E E E E E E E Z v v v Z E E E E E E E E Z v v v 0         ",
"Y.Y.Y.Y.        1 E E E E E E E E E E E E J v v v v v v v v J E E E E E E E E E E E E Z v v v Z E E E E E E E E Z v v v 0         ",
"        7 y y y n E E E E B B B B { r.r.r.e.w.w.w.w.v v v v J E E E E E E E E E E E E Z v v v b B B B B B B B B b v v v 0         ",
"        0 v v v Z E E E E v v v v 3.a.a.a.a.a.a.a.a.v v v v J E E E E E E E E E E E E Z v v v v v v v v v v v v v v v v 0         ",
"        0 v v v Z E E E E v v v v 3.a.a.a.a.a.a.a.a.v v v v J E E E E E E E E E E E E Z v v v v v v v v v v v v v v v v 0         ",
"        0 v v v Z E E E E v v v v 3.a.a.a.a.a.a.a.a.v v v v J E E E E E E E E E E E E Z v v v v v v v v v v v v v v v v 0         ",
"        0 v v v B F F F F _ _ _ _ w.a.a.a.a.a.a.a.a._ _ _ _ W F F F K E E E E E E E E Z v v v v v v v v D D D D N v v v 0         ",
"        0 v v v v v v v v a.a.a.a.a.a.a.a.a.a.a.a.a.a.a.a.a.( v v v Z E E E E E E E E Z v v v v v v v v E E E E Z v v v 0         ",
"        0 v v v v v v v v a.a.a.a.a.a.a.a.a.a.a.a.a.a.a.a.a.( v v v Z E E E E E E E E Z v v v v v v v v E E E E Z v v v 0         ",
"        0 v v v v v v v v a.a.a.a.a.a.a.a.a.a.a.a.a.a.a.a.a.( v v v Z E E E E E E E E Z v v v v v v v v E E E E Z v v v 0         ",
"        0 v v v s p p p p y.y.y.y.p.f.f.f.f.f.f.f.f.y.y.y.y.) S S S G E E E E Y Y Y Y G S S S C m m m m E E E E Z v v v 0         ",
"        0 v v v 0         5 5 5 5 s.U.U.U.U.U.U.U.U.5 5 5 5 :.a.a.a.7.E E E E v v v v 3.a.a.a.7.E E E E E E E E Z v v v 0         ",
"        0 v v v 0         5 5 5 5 s.U.U.U.U.U.U.U.U.5 5 5 5 :.a.a.a.7.E E E E v v v v 3.a.a.a.7.E E E E E E E E Z v v v 0         ",
"        0 v v v 0         5 5 5 5 s.U.U.U.U.U.U.U.U.5 5 5 5 :.a.a.a.7.E E E E v v v v 3.a.a.a.7.E E E E E E E E Z v v v 0         ",
"        0 v v v 0         5 5 5 5 s.U.U.U.U.U.U.U.U.5 5 5 5 :.a.a.a.7.E E E E v v v v 3.a.a.a.7.E E E E E E E E Z v v v 0         ",
"Y.Y.Y.Y.@ % % % +         5 5 5 5 s.U.U.U.U.U.U.U.U.5 5 5 5 q.H.H.H.u.V V V V 5.5.5.5.i.a.a.a.7.E E E E V V V V m v v v 0         ",
"Y.Y.Y.Y.                  5 5 5 5 s.U.U.U.U.U.U.U.U.5 5 5 5 s.U.U.U.g.v v v v a.a.a.a.a.a.a.a.7.E E E E v v v v v v v v 0         ",
"Y.Y.Y.Y.                  5 5 5 5 s.U.U.U.U.U.U.U.U.5 5 5 5 s.U.U.U.g.v v v v a.a.a.a.a.a.a.a.7.E E E E v v v v v v v v 0         ",
"Y.Y.Y.Y.                  5 5 5 5 s.U.U.U.U.U.U.U.U.5 5 5 5 s.U.U.U.g.v v v v a.a.a.a.a.a.a.a.7.E E E E v v v v v v v v 0         ",
"Y.Y.Y.Y.Y.                / / / / h.U.U.U.U.U.U.U.U./ / / / h.U.U.U.z.-.-.-.-.a.a.a.a.a.a.a.a.4.H H H H v v v v e 9 9 9 <         ",
"Y.Y.Y.Y.Y.Y.Y.Y.Y.        U.U.U.U.U.U.U.U.U.U.U.U.U.U.U.U.U.U.U.U.U.U.U.U.U.U.a.a.a.a.a.a.a.a.3.v v v v v v v v *         Y.Y.Y.Y.",
"Y.Y.Y.Y.Y.Y.Y.Y.Y.        U.U.U.U.U.U.U.U.U.U.U.U.U.U.U.U.U.U.U.U.U.U.U.U.U.U.a.a.a.a.a.a.a.a.3.v v v v v v v v *         Y.Y.Y.Y.",
"Y.Y.Y.Y.Y.Y.Y.Y.Y.        U.U.U.U.U.U.U.U.U.U.U.U.U.U.U.U.U.U.U.U.U.U.U.U.U.U.a.a.a.a.a.a.a.a.3.v v v v v v v v *         Y.Y.Y.Y.",
"Y.Y.Y.Y.Y.Y.Y.Y.Y.        U.U.U.U.U.U.U.U.U.U.U.U.U.U.U.U.U.U.U.U.U.U.U.U.U.U.a.a.a.a.a.a.a.a.3.v v v v v v v v *         Y.Y.Y.Y.",
"Y.Y.Y.Y.Y.Y.Y.Y.Y.        a.a.a.a.c.U.U.U.U.U.U.U.U.U.U.U.U.U.U.U.U.c.a.a.a.a.a.a.a.a.( v v v v v v v v v v v v *         Y.Y.Y.Y.",
"Y.Y.Y.Y.Y.Y.Y.Y.Y.        a.a.a.a.c.U.U.U.U.U.U.U.U.U.U.U.U.U.U.U.U.c.a.a.a.a.a.a.a.a.( v v v v v v v v v v v v *         Y.Y.Y.Y.",
"Y.Y.Y.Y.Y.Y.Y.Y.Y.        a.a.a.a.c.U.U.U.U.U.U.U.U.U.U.U.U.U.U.U.U.c.a.a.a.a.a.a.a.a.( v v v v v v v v v v v v *         Y.Y.Y.Y.",
"Y.Y.Y.Y.Y.Y.Y.Y.Y.        a.a.a.a.c.U.U.U.U.U.U.U.U.U.U.U.U.U.U.U.U.c.a.a.a.a.a.a.a.a.( v v v v v v v v v v v v *         Y.Y.Y.Y.",
"Y.Y.Y.Y.Y.Y.Y.Y.Y.Y.Y.Y.Y.l l l l 9.l.l.l.l.l.l.l.l.l.l.l.l.l.l.l.l.k.a.a.a.a.] ] ] ] Q H H H H H H H H v v v v *         Y.Y.Y.Y.",
"Y.Y.Y.Y.Y.Y.Y.Y.Y.Y.Y.Y.Y.        [ a.a.a.a.a.a.a.a.a.a.a.a.a.a.a.a.a.a.a.a.a.E E E E E E E E E E E E E v v v v *         Y.Y.Y.Y.",
"Y.Y.Y.Y.Y.Y.Y.Y.Y.Y.Y.Y.Y.        [ a.a.a.a.a.a.a.a.a.a.a.a.a.a.a.a.a.a.a.a.a.E E E E E E E E E E E E E v v v v *         Y.Y.Y.Y.",
"Y.Y.Y.Y.Y.Y.Y.Y.Y.Y.Y.Y.Y.        [ a.a.a.a.a.a.a.a.a.a.a.a.a.a.a.a.a.a.a.a.a.E E E E E E E E E E E E E v v v v *         Y.Y.Y.Y.",
"Y.Y.Y.Y.Y.Y.Y.Y.Y.Y.Y.Y.Y.        ! >.>.>.2.5.5.5.5.d.d.d.d.d.d.d.d.d.d.d.d.d.E E E E E E E E Y P P P P v v v v *         Y.Y.Y.Y.",
"Y.Y.Y.Y.Y.Y.Y.Y.Y.Y.Y.Y.Y.                * v v v v S.S.S.S.S.S.S.S.S.S.S.S.S.E E E E E E E E J v v v v v v v v *         Y.Y.Y.Y.",
"Y.Y.Y.Y.Y.Y.Y.Y.Y.Y.Y.Y.Y.                * v v v v S.S.S.S.S.S.S.S.S.S.S.S.S.E E E E E E E E J v v v v v v v v *         Y.Y.Y.Y.",
"Y.Y.Y.Y.Y.Y.Y.Y.Y.Y.Y.Y.Y.                * v v v v S.S.S.S.S.S.S.S.S.S.S.S.S.E E E E E E E E J v v v v v v v v *         Y.Y.Y.Y.",
"Y.Y.Y.Y.Y.Y.Y.Y.Y.Y.Y.Y.Y.                * v v v v S.S.S.S.S.S.S.S.S.S.S.S.S.E E E E E E E E J v v v v v v v v *         Y.Y.Y.Y.",
"Y.Y.Y.Y.Y.Y.Y.Y.Y.        t.t.t.t.t.t.t.t.;.v v v v P.P.P.P.P.P.P.P.K.S.S.S.S.E E E E A m m m ` J.J.J.J.J.J.J.J.c         Y.Y.Y.Y.",
"Y.Y.Y.Y.Y.Y.Y.Y.Y.        a.a.a.a.a.a.a.a.3.v v v v I.I.I.I.I.I.I.I.L.S.S.S.S.E E E E Z v v v ' U.U.U.U.U.U.U.U.^         Y.Y.Y.Y.",
"Y.Y.Y.Y.Y.Y.Y.Y.Y.        a.a.a.a.a.a.a.a.3.v v v v I.I.I.I.I.I.I.I.L.S.S.S.S.E E E E Z v v v ' U.U.U.U.U.U.U.U.^         Y.Y.Y.Y.",
"Y.Y.Y.Y.Y.Y.Y.Y.Y.        a.a.a.a.a.a.a.a.3.v v v v I.I.I.I.I.I.I.I.L.S.S.S.S.E E E E Z v v v ' U.U.U.U.U.U.U.U.^         Y.Y.Y.Y.",
"Y.Y.Y.Y.Y.Y.Y.Y.Y.        a.a.a.a.a.a.a.a.0.o.o.o.o.G.G.G.G.G.G.G.G.F.D.D.D.D.,.,.,.,.~ v v v ' U.U.U.U.U.U.U.U.^         Y.Y.Y.Y.",
"Y.Y.Y.Y.Y.Y.Y.Y.Y.        a.a.a.a.a.a.a.a.1.v.v.v.v.A.A.A.A.A.A.A.A.A.A.A.A.A.A.A.A.A.X.v v v ' U.U.U.U.U.U.U.U.^         Y.Y.Y.Y.",
"Y.Y.Y.Y.Y.Y.Y.Y.Y.        a.a.a.a.a.a.a.a.1.v.v.v.v.A.A.A.A.A.A.A.A.A.A.A.A.A.A.A.A.A.X.v v v ' U.U.U.U.U.U.U.U.^         Y.Y.Y.Y.",
"Y.Y.Y.Y.Y.Y.Y.Y.Y.        a.a.a.a.a.a.a.a.1.v.v.v.v.A.A.A.A.A.A.A.A.A.A.A.A.A.A.A.A.A.X.v v v ' U.U.U.U.U.U.U.U.^         Y.Y.Y.Y.",
"Y.Y.Y.Y.Y.Y.Y.Y.Y.        6.6.6.6.8.w.w.w.<.n.n.n.n.A.A.A.A.A.A.A.A.A.A.A.A.A.Z.Z.Z.Z.O.x x x =.x.x.x.x.j.j.j.j.c         Y.Y.Y.Y.",
"Y.Y.Y.Y.Y.Y.Y.Y.Y.Y.Y.Y.Y.        0 v v v X.A.A.A.A.A.A.A.A.A.A.A.A.A.A.A.A.A.v.v.v.v.v.v.v.v.%.v v v v         Y.Y.Y.Y.Y.Y.Y.Y.Y.",
"Y.Y.Y.Y.Y.Y.Y.Y.Y.Y.Y.Y.Y.        0 v v v X.A.A.A.A.A.A.A.A.A.A.A.A.A.A.A.A.A.v.v.v.v.v.v.v.v.%.v v v v         Y.Y.Y.Y.Y.Y.Y.Y.Y.",
"Y.Y.Y.Y.Y.Y.Y.Y.Y.Y.Y.Y.Y.        0 v v v X.A.A.A.A.A.A.A.A.A.A.A.A.A.A.A.A.A.v.v.v.v.v.v.v.v.%.v v v v         Y.Y.Y.Y.Y.Y.Y.Y.Y.",
"Y.Y.Y.Y.Y.Y.Y.Y.Y.Y.Y.Y.Y.        0 v v v X.A.A.A.A.A.A.A.A.A.A.A.A.A.A.A.A.A.v.v.v.v.v.v.v.v.%.v v v v         Y.Y.Y.Y.Y.Y.Y.Y.Y.",
"Y.Y.Y.Y.Y.Y.Y.Y.Y.Y.Y.Y.Y.        $.N.N.N.V.A.A.A.A.A.A.A.A.M.n.n.n.@.f f f f 3 3 3 3 k x x x z v v v v         Y.Y.Y.Y.Y.Y.Y.Y.Y.",
"Y.Y.Y.Y.Y.Y.Y.Y.Y.Y.Y.Y.Y.        &.A.A.A.A.A.A.A.A.A.A.A.A.m.v.v.v.|                 0 v v v v v v v v         Y.Y.Y.Y.Y.Y.Y.Y.Y.",
"Y.Y.Y.Y.Y.Y.Y.Y.Y.Y.Y.Y.Y.        &.A.A.A.A.A.A.A.A.A.A.A.A.m.v.v.v.|                 0 v v v v v v v v         Y.Y.Y.Y.Y.Y.Y.Y.Y.",
"Y.Y.Y.Y.Y.Y.Y.Y.Y.Y.Y.Y.Y.        &.A.A.A.A.A.A.A.A.A.A.A.A.m.v.v.v.|                 0 v v v v v v v v         Y.Y.Y.Y.Y.Y.Y.Y.Y.",
"Y.Y.Y.Y.Y.Y.Y.Y.Y.Y.Y.Y.Y., , , ,  .*.*.*.b.A.A.A.A.B.B.B.B.+.} } } j O O O O O O O O > 6 6 6 6 6 6 6 6         Y.Y.Y.Y.Y.Y.Y.Y.Y.",
"Y.Y.Y.Y.Y.Y.Y.Y.Y.        v v v v v v v v X.A.A.A.A.v.v.v.v.h       X 4 4 4 4 4 4 4 4 X                         Y.Y.Y.Y.Y.Y.Y.Y.Y.",
"Y.Y.Y.Y.Y.Y.Y.Y.Y.        v v v v v v v v X.A.A.A.A.v.v.v.v.h       X 4 4 4 4 4 4 4 4 X                         Y.Y.Y.Y.Y.Y.Y.Y.Y.",
"Y.Y.Y.Y.Y.Y.Y.Y.Y.        v v v v v v v v X.A.A.A.A.v.v.v.v.h       X 4 4 4 4 4 4 4 4 X                         Y.Y.Y.Y.Y.Y.Y.Y.Y.",
"Y.Y.Y.Y.Y.Y.Y.Y.Y.        v v v v v v v v ..C.C.C.C.#.#.#.#.g . . . o 4 4 4 4 4 4 4 4 o . . . . . . . . . . . . Y.Y.Y.Y.Y.Y.Y.Y.Y.",
"Y.Y.Y.Y.Y.4 4 4 #         v v v v v v v v v v v v v         # 4 4 4 4 4 4 4 4 4 4 4 4 4 4 4 4 4 4 4 4 4 4 4 4 4 4 4 4 4 Y.Y.Y.Y.Y.",
"Y.Y.Y.Y.Y.4 4 4 #         v v v v v v v v v v v v v         # 4 4 4 4 4 4 4 4 4 4 4 4 4 4 4 4 4 4 4 4 4 4 4 4 4 4 4 4 4 Y.Y.Y.Y.Y.",
"Y.Y.Y.Y.Y.4 4 4 #         v v v v v v v v v v v v v         # 4 4 4 4 4 4 4 4 4 4 4 4 4 4 4 4 4 4 4 4 4 4 4 4 4 4 4 4 4 Y.Y.Y.Y.Y.",
"Y.Y.Y.Y.Y.4 4 4 #         v v v v v v v v v v v v v         # 4 4 4 4 4 4 4 4 4 4 4 4 4 4 4 4 4 4 4 4 4 4 4 4 4 4 4 4 4 Y.Y.Y.Y.Y.",
"Y.Y.Y.Y.Y.4 4 4 2 $ $ $ $ w w w w w w w w w w w w w $ $ $ $ 2 4 4 4 4 4 4 4 4 4 4 4 4 4 4 4 4 4 4 4 4 4 4 4 4 4 4 4 4 4 Y.Y.Y.Y.Y.",
"Y.Y.Y.Y.Y.4 4 4 4 4 4 4 4 4 4 4 4 4 4 4 4 4 4 4 4 4 4 4 4 4 4 4 4 4 4 4 4 4 4 4 4 4 4 4 4 4 4 4 4 4 4 4 4 4 4 4 4 4 4 4 Y.Y.Y.Y.Y.",
"Y.Y.Y.Y.Y.4 4 4 4 4 4 4 4 4 4 4 4 4 4 4 4 4 4 4 4 4 4 4 4 4 4 4 4 4 4 4 4 4 4 4 4 4 4 4 4 4 4 4 4 4 4 4 4 4 4 4 4 4 4 4 Y.Y.Y.Y.Y.",
"Y.Y.Y.Y.Y.4 4 4 4 4 4 4 4 4 4 4 4 4 4 4 4 4 4 4 4 4 4 4 4 4 4 4 4 4 4 4 4 4 4 4 4 4 4 4 4 4 4 4 4 4 4 4 4 4 4 4 4 4 4 4 Y.Y.Y.Y.Y.",
"Y.Y.Y.Y.Y.Y.Y.Y.Y.4 4 4 4 4 4 4 4 4 4 4 4 4 4 4 4 4 4 4 4 4 4 4 4 4 4 4 4 4 4 4 4 4 4 4 4 4 4 4 4 4 4 4 4 4 4 4 Y.Y.Y.Y.Y.Y.Y.Y.Y.",
"Y.Y.Y.Y.Y.Y.Y.Y.Y.4 4 4 4 4 4 4 4 4 4 4 4 4 4 4 4 4 4 4 4 4 4 4 4 4 4 4 4 4 4 4 4 4 4 4 4 4 4 4 4 4 4 4 4 4 4 4 Y.Y.Y.Y.Y.Y.Y.Y.Y.",
"Y.Y.Y.Y.Y.Y.Y.Y.Y.4 4 4 4 4 4 4 4 4 4 4 4 4 4 4 4 4 4 4 4 4 4 4 4 4 4 4 4 4 4 4 4 4 4 4 4 4 4 4 4 4 4 4 4 4 4 4 Y.Y.Y.Y.Y.Y.Y.Y.Y.",
"Y.Y.Y.Y.Y.Y.Y.Y.Y.4 4 4 4 4 4 4 4 4 4 4 4 4 4 4 4 4 4 4 4 4 4 4 4 4 4 4 4 4 4 4 4 4 4 4 4 4 4 4 4 4 4 4 4 4 4 4 Y.Y.Y.Y.Y.Y.Y.Y.Y.",
"Y.Y.Y.Y.Y.Y.Y.Y.Y.4 4 4 4 4 4 4 4 4 4 4 4 4 4 4 4 4 4 4 4 4 4 4 4 4 4 4 4 4 4 4 4 4 4 4 4 4 4 4 4 4 4 4 4 4 4 4 Y.Y.Y.Y.Y.Y.Y.Y.Y."
};
