/* XPM */
static char *DA0[] = {
/* columns rows colors chars-per-pixel */
"77 96 201 2 ",
"   c black",
".  c #000001",
"X  c #020101",
"o  c #040201",
"O  c #050302",
"+  c #0B0704",
"@  c #0D0805",
"#  c #05060B",
"$  c #07070C",
"%  c #0B0A0D",
"&  c #100A06",
"*  c #100B06",
"=  c #100B07",
"-  c #110C07",
";  c #130C07",
":  c #140C07",
">  c #160D08",
",  c #150E08",
"<  c #110D0F",
"1  c #180F09",
"2  c #1A1009",
"3  c #070C13",
"4  c #060D17",
"5  c #090A12",
"6  c #0C0E19",
"7  c #1A1312",
"8  c #191816",
"9  c #20130B",
"0  c #21110D",
"q  c #20140C",
"w  c #21150D",
"e  c #22140C",
"r  c #21160D",
"t  c #23170E",
"y  c #24160D",
"u  c #26170E",
"i  c #28180E",
"p  c #201C17",
"a  c #291A10",
"s  c #2A1812",
"d  c #291C11",
"f  c #2C1C11",
"g  c #2E1E12",
"h  c #2B1A15",
"j  c #2B1B15",
"k  c #2A1C18",
"l  c #301D11",
"z  c #311F13",
"x  c #331F12",
"c  c #27221D",
"v  c #332013",
"b  c #352013",
"n  c #312114",
"m  c #332215",
"M  c #342315",
"N  c #382214",
"B  c #392617",
"V  c #30221B",
"C  c #35241D",
"Z  c #37271F",
"A  c #3C2818",
"S  c #101825",
"D  c #0E2039",
"F  c #272624",
"G  c #292725",
"H  c #402717",
"J  c #412818",
"K  c #452B19",
"L  c #412C1A",
"P  c #442C1A",
"I  c #442D1B",
"U  c #462C1A",
"Y  c #472C1B",
"T  c #472E1C",
"R  c #492F1C",
"E  c #4A2F1C",
"W  c #4B301D",
"Q  c #4C301D",
"!  c #4C311D",
"~  c #4D321E",
"^  c #4E321E",
"/  c #4E331E",
"(  c #50341F",
")  c #4E3220",
"_  c #513520",
"`  c #513521",
"'  c #523620",
"]  c #523621",
"[  c #533621",
"{  c #543721",
"}  c #543822",
"|  c #553822",
" . c #563922",
".. c #573A23",
"X. c #563825",
"o. c #553C2C",
"O. c #553D2E",
"+. c #593B2D",
"@. c #423F3C",
"#. c #5E3F30",
"$. c #534136",
"%. c #5B4332",
"&. c #59473F",
"*. c #62412D",
"=. c #64432E",
"-. c #66452D",
";. c #67462E",
":. c #68472F",
">. c #614331",
",. c #614534",
"<. c #604735",
"1. c #654737",
"2. c #614835",
"3. c #6B4933",
"4. c #684E37",
"5. c #6A4E36",
"6. c #6C5139",
"7. c #765238",
"8. c #79543A",
"9. c #7C563F",
"0. c #7E573F",
"q. c #142341",
"w. c #10264E",
"e. c #17366E",
"r. c #1A3C7A",
"t. c #243D73",
"y. c #344C76",
"u. c #46434C",
"i. c #524F4B",
"p. c #544E48",
"a. c #614F47",
"s. c #775845",
"d. c #745C47",
"f. c #7B5943",
"g. c #7F5840",
"h. c #605C57",
"j. c #766253",
"k. c #7F6150",
"l. c #42506C",
"z. c #7C7476",
"x. c #7F7976",
"c. c #815941",
"v. c #815C46",
"b. c #8A624A",
"n. c #91664C",
"m. c #966A4F",
"M. c #9B6E53",
"N. c #A57659",
"B. c #A77759",
"V. c #A8785A",
"C. c #AC7B5D",
"Z. c #9A7A68",
"A. c #837E77",
"S. c #89837C",
"D. c #AF8163",
"F. c #B08B6E",
"G. c #AA8673",
"H. c #A18B71",
"J. c #B48F71",
"K. c #A99076",
"L. c #AD997F",
"P. c #B59072",
"I. c #B09276",
"U. c #B59477",
"Y. c #B39478",
"T. c #B69C7F",
"R. c #B9987B",
"E. c #1D438A",
"W. c #2D528D",
"Q. c #204A93",
"!. c #2D5491",
"~. c #2A5395",
"^. c #305995",
"/. c #355C98",
"(. c #2554A0",
"). c #285DAA",
"_. c #2A61B0",
"`. c #2C65B5",
"'. c #787E97",
"]. c #8D7D80",
"[. c #B49E82",
"{. c #BA9F82",
"}. c #BCA083",
"|. c #B8A184",
" X c #BDA285",
".X c #BDA386",
"XX c #BAA588",
"oX c #BEA689",
"OX c #AFA89F",
"+X c #8A8FA3",
"@X c #8E93A6",
"#X c #9BA0AF",
"$X c #A4A8B5",
"%X c #BCBABD",
"&X c #C0A98C",
"*X c #C1AB8E",
"=X c #C1AC8F",
"-X c #C0B8AE",
";X c #CBC2B8",
":X c #DBD2C7",
">X c None",
/* pixels */
">X>X>X>X>X>X>X>X>X>X>X>X>X>X>X>X>X>X>X                                      >X>X>X>X>X                    >X>X>X>X>X>X>X>X>X>X>X>X>X>X>X>X>X>X>X>X>X>X>X>X",
">X>X>X>X>X>X>X>X>X>X>X>X>X>X>X>X>X>X>X                                      >X>X>X>X>X                    >X>X>X>X>X>X>X>X>X>X>X>X>X>X>X>X>X>X>X>X>X>X>X>X",
">X>X>X>X>X>X>X>X>X>X>X>X>X>X>X>X>X>X>X                                      >X>X>X>X>X                    >X>X>X>X>X>X>X>X>X>X>X>X>X>X>X>X>X>X>X>X>X>X>X>X",
">X>X>X>X>X>X>X>X>X>X>X>X>X>X>X>X>X>X>X                                      >X>X>X>X>X                    >X>X>X>X>X>X>X>X>X>X>X>X>X>X>X>X>X>X>X>X>X>X>X>X",
">X>X>X>X>X>X>X>X>X>X>X>X>X>X>X>X>X>X>X          = - - - - - - - - & @ @ @ @ + >X>X>X>X* - - - - X         >X>X>X>X>X>X>X>X>X>X>X>X>X>X>X>X>X>X>X>X>X>X>X>X",
">X>X>X>X>X>X>X>X>X>X>X>X>X>X>X>X>X>X>X          ] ................( H H H H q         A ........+                             >X>X>X>X>X>X>X>X>X>X>X>X>X>X",
">X>X>X>X>X>X>X>X>X>X>X>X>X>X>X>X>X>X>X          ] ................( H H H H q         A ........+                             >X>X>X>X>X>X>X>X>X>X>X>X>X>X",
">X>X>X>X>X>X>X>X>X>X>X>X>X>X>X>X>X>X>X          ] ................( H H H H q         A ........+                             >X>X>X>X>X>X>X>X>X>X>X>X>X>X",
">X>X>X>X>X>X>X>X>X>X>X>X>X>X>X>X>X>X>X          ] ................( H H H H q         A ........+                             >X>X>X>X>X>X>X>X>X>X>X>X>X>X",
">X>X>X>X>X>X>X>X>X>X>X>X>X>X>X>X>X>X>X          n M M M B ........[ R R R R z 2 2 2 2 I ........d t t t t t t t t w 2 2 2 2 : >X>X>X>X>X>X>X>X>X>X>X>X>X>X",
">X>X>X>X>X>X>X>X>X>X>X>X>X>X>X>X>X>X>X                  + ..................! H H H H ( .........................._ H H H H y         >X>X>X>X>X>X>X>X>X>X",
">X>X>X>X>X>X>X>X>X>X>X>X>X>X>X>X>X>X>X                  + ..................! H H H H ( .........................._ H H H H y         >X>X>X>X>X>X>X>X>X>X",
">X>X>X>X>X>X>X>X>X>X>X>X>X>X>X>X>X>X>X                  + ..................! H H H H ( .........................._ H H H H y         >X>X>X>X>X>X>X>X>X>X",
">X>X>X>X>X>X>X>X>X>X>X>X>X>X>X>X>X>X>X                  + ..................! H H H H ( .........................._ H H H H y         >X>X>X>X>X>X>X>X>X>X",
">X>X>X>X>X>X>X>X>X>X>X>X>X>X>X        q u u u u m M M M B ..................] ^ ^ ^ ^ } ..........................| ^ ^ ^ ^ f         >X>X>X>X>X>X>X>X>X>X",
">X>X>X>X>X>X>X>X>X>X>X>X>X>X          l H H H H  ...........................................................................n         >X>X>X>X>X>X>X>X>X>X",
">X>X>X>X>X>X>X>X>X>X>X>X>X>X          l H H H H  ...........................................................................n         >X>X>X>X>X>X>X>X>X>X",
">X>X>X>X>X>X>X>X>X>X>X>X>X>X          l H H H H  ...........................................................................n         >X>X>X>X>X>X>X>X>X>X",
">X>X>X>X>X>X>X>X>X>X>X>X>X>X          l H H H H  ...........................................................................n         >X>X>X>X>X>X>X>X>X>X",
">X>X>X>X>X>X>X>X>X>X        9 x x x x W ] ] ] ] ............................^ K K K K _ ....................................T x x x x >         >X>X>X>X>X",
">X>X>X>X>X>X>X>X>X>X        y H H H H _ ....................................! H H H H ( ....................................~ H H H H 1         >X>X>X>X>X",
">X>X>X>X>X>X>X>X>X>X        y H H H H _ ....................................! H H H H ( ....................................~ H H H H 1         >X>X>X>X>X",
">X>X>X>X>X>X>X>X>X>X        y H H H H _ ....................................! H H H H ( ....................................~ H H H H 1         >X>X>X>X>X",
">X>X>X>X>X>X>X>X>X>X        y H H H H _ ....................................Q H H H H ( ....................................~ H H H H 1         >X>X>X>X>X",
">X>X>X>X>X>X>X>X>X>X        n ..........................} H H H H H H H H H H H H H H H H H H H } ....................................r         >X>X>X>X>X",
">X>X>X>X>X>X>X>X>X>X        n ..........................} H H H H H H H H H H H H H H H H H H H } ....................................r         >X>X>X>X>X",
">X>X>X>X>X>X>X>X>X>X        n ..........................} H H H H H H H H H H H H H H H H H H H } ....................................r         >X>X>X>X>X",
">X>X>X>X>X>X>X>X>X>X        n ..........................} H H H H H H H H H H H H H H H H H H H } ....................................r         >X>X>X>X>X",
">X>X>X>X>X>X>X>X>X>X        n ..........................} H H H H Y X.X.X.X.X.X.X.X.X.X.X.X.X.X.-.:.:.:.;.] ] ] ] { ..................r         >X>X>X>X>X",
">X>X>X>X>X>X>X>X>X>X        n ..........................} H H H H *.C.C.C.C.C.C.C.C.C.C.C.C.C.C.C.C.C.C.N.H H H H U ..................r         >X>X>X>X>X",
">X>X>X>X>X>X>X>X>X>X        n ..........................} H H H H *.C.C.C.C.C.C.C.C.C.C.C.C.C.C.C.C.C.C.N.H H H H U ..................r         >X>X>X>X>X",
">X>X>X>X>X>X>X>X>X>X        n ..........................} H H H H *.C.C.C.C.C.C.C.C.C.C.C.C.C.C.C.C.C.C.N.H H H H U ..................r         >X>X>X>X>X",
">X>X>X>X>X>X>X>X>X>X        n ..........................} H H H H *.C.C.C.C.C.C.C.C.C.C.C.C.C.C.C.C.C.C.N.H H H H U ..................r         >X>X>X>X>X",
">X>X>X>X>X>X>X>X>X          n ................../ ^ ^ ^ ` 3.3.3.3.g.C.C.C.C.C.C.C.C.C.C.C.C.C.C.C.C.C.C.V.3.3.3.3.=.^ ^ ^ ^ ' ........r         >X>X>X>X>X",
"                            n ..................J H H H ) C.C.C.C.C.C.C.C.C.C.C.C.C.C.C.C.C.C.C.C.C.C.C.C.C.C.C.C.n.H H H H E ........r         >X>X>X>X>X",
"                            n ..................J H H H ) C.C.C.C.C.C.C.C.C.C.C.C.C.C.C.C.C.C.C.C.C.C.C.C.C.C.C.C.n.H H H H E ........r         >X>X>X>X>X",
"                            n ..................J H H H ) C.C.C.C.C.C.C.C.C.C.C.C.C.C.C.C.C.C.C.C.C.C.C.C.C.C.C.C.n.H H H H E ........r         >X>X>X>X>X",
"                            n ..................J H H H ) C.C.C.C.C.C.C.C.C.C.C.C.C.C.C.C.C.C.C.C.C.C.C.C.C.C.C.C.n.H H H H E ........r         >X>X>X>X>X",
"        8 A.A.A.A.i.        a R R R R { ........0.c.c.c.9.+.+.+.+.s.R.R.R.R.R.R.R.R.R.R.R.R.R.R.1.+.+.+.#.C.C.C.C.n.H H H H v t t t t , >X>X>X>X>X>X>X>X>X",
"        G :X:X:X:XS.        y H H H H _ ........B.C.C.C.M.0 0 0 0 $.=X=X=X=X=X=X=X=X=X=X=X=X=X=XC 0 0 0 s C.C.C.C.n.H H H H y         >X>X>X>X>X>X>X>X>X>X",
"        G :X:X:X:XS.        y H H H H _ ........B.C.C.C.M.0 0 0 0 $.=X=X=X=X=X=X=X=X=X=X=X=X=X=XC 0 0 0 s C.C.C.C.n.H H H H y         >X>X>X>X>X>X>X>X>X>X",
"        G :X:X:X:XS.        y H H H H _ ........B.C.C.C.M.0 0 0 0 $.=X=X=X=X=X=X=X=X=X=X=X=X=X=XC 0 0 0 s C.C.C.C.n.H H H H y         >X>X>X>X>X>X>X>X>X>X",
"        G :X:X:X:XS.        y H H H H _ ........B.C.C.C.M.0 0 0 0 $.=X=X=X=X=X=X=X=X=X=X=X=X=X=XC 0 0 0 s C.C.C.C.n.H H H H y         >X>X>X>X>X>X>X>X>X>X",
"        G :X:X:X:X;XOXOXOXOXp.@ @ @ @ I ........T. X X XK.0 0 0 0 $.=X=X=X=X=X=X=X=X=X=X=X=X=X=XC 0 0 0 h  X X X XY.m.m.m.m.o.        >X>X>X>X>X>X>X>X>X>X",
"        G :X:X:X:X:X:X:X:X:Xh.        L ........XX=X=X=XL.0 0 0 0 $.=X=X=X=X=X=X=X=X=X=X=X=X=X=XC 0 0 0 j =X=X=X=X}.C.C.C.C.,.        >X>X>X>X>X>X>X>X>X>X",
"        G :X:X:X:X:X:X:X:X:Xh.        L ........XX=X=X=XL.0 0 0 0 $.=X=X=X=X=X=X=X=X=X=X=X=X=X=XC 0 0 0 j =X=X=X=X}.C.C.C.C.,.        >X>X>X>X>X>X>X>X>X>X",
"        G :X:X:X:X:X:X:X:X:Xh.        L ........XX=X=X=XL.0 0 0 0 $.=X=X=X=X=X=X=X=X=X=X=X=X=X=XC 0 0 0 j =X=X=X=X}.C.C.C.C.,.        >X>X>X>X>X>X>X>X>X>X",
"        G :X:X:X:X:X:X:X:X:Xh.        L ........XX=X=X=XL.0 0 0 0 $.=X=X=X=X=X=X=X=X=X=X=X=X=X=XC 0 0 0 j =X=X=X=X}.C.C.C.C.,.        >X>X>X>X>X>X>X>X>X>X",
"        G :X:X:X:X:X:X:X:X:X%X$X$X$X$XG.C.C.C.C.&X=X=X=X=X=X=X=X=X=X=X=X=X=X=X=X=X=X=X=X=X=X=X=X=X=X=X=X=X=X=X=X=X}.C.C.C.C.,.        >X>X>X>X>X>X>X>X>X>X",
"        G :X:X:X:X:X:X:X:X:X%X$X$X$X$XG.C.C.C.C.&X=X=X=X=X=X=X=X=X=X=X=X=X=X=X=X=X=X=X=X=X=X=X=X=X=X=X=X=X=X=X=X=X}.C.C.C.C.,.        >X>X>X>X>X>X>X>X>X>X",
"        G :X:X:X:X:X:X:X:X:X%X$X$X$X$XG.C.C.C.C.&X=X=X=X=X=X=X=X=X=X=X=X=X=X=X=X=X=X=X=X=X=X=X=X=X=X=X=X=X=X=X=X=X}.C.C.C.C.,.        >X>X>X>X>X>X>X>X>X>X",
"        G :X:X:X:X:X:X:X:X:X%X$X$X$X$XG.C.C.C.C.&X=X=X=X=X=X=X=X=X=X=X=X=X=X=X=X=X=X=X=X=X=X=X=X=X=X=X=X=X=X=X=X=X}.C.C.C.C.,.        >X>X>X>X>X>X>X>X>X>X",
"        F OXOXOXOX-X:X:X:X:X%X$X$X$X$XZ.m.m.m.m.{. X X X.X=X=X=X=X=X=X=X=X=X=X=X=X=X=X=X=X=X=X=X=X=X=X=X*X X X X XI.b.b.b.b.O.        >X>X>X>X>X>X>X>X>X>X",
">X>X>X>X>X        i.:X:X:X:X%X$X$X$X$X&.H H H H N.C.C.C.D.=X=X=X=X=X=X=X=X=X=X=X=X=X=X=X=X=X=X=X=X=X=X=X&XC.C.C.C.v.          >X>X>X>X>X>X>X>X>X>X>X>X>X>X",
">X>X>X>X>X        i.:X:X:X:X%X$X$X$X$X&.H H H H N.C.C.C.D.=X=X=X=X=X=X=X=X=X=X=X=X=X=X=X=X=X=X=X=X=X=X=X&XC.C.C.C.v.          >X>X>X>X>X>X>X>X>X>X>X>X>X>X",
">X>X>X>X>X        i.:X:X:X:X%X$X$X$X$X&.H H H H N.C.C.C.D.=X=X=X=X=X=X=X=X=X=X=X=X=X=X=X=X=X=X=X=X=X=X=X&XC.C.C.C.v.          >X>X>X>X>X>X>X>X>X>X>X>X>X>X",
">X>X>X>X>X        i.:X:X:X:X%X$X$X$X$X&.H H H H N.C.C.C.D.=X=X=X=X=X=X=X=X=X=X=X=X=X=X=X=X=X=X=X=X=X=X=X&XC.C.C.C.v.          >X>X>X>X>X>X>X>X>X>X>X>X>X>X",
">X>X>X>X>X        @.A.A.A.A.x.z.z.z.z.j.d.d.d.d.F.J.J.J.P.R.R.R.R.R.R.R.R.R.R.R.R.R.R.R.R.R.R.R.R.R.R.R.U.c.c.c.c.>.          >X>X>X>X>X>X>X>X>X>X>X>X>X>X",
">X>X>X>X>X>X>X>X>X>X        y H H H H H.=X=X=X=X=X=X=X=XoXC.C.C.C.C.C.C.C.C.C.C.C.C.C.C.C.C.C.C.C.C.C.C.N.H H H H l           >X>X>X>X>X>X>X>X>X>X>X>X>X>X",
">X>X>X>X>X>X>X>X>X>X        y H H H H H.=X=X=X=X=X=X=X=XoXC.C.C.C.C.C.C.C.C.C.C.C.C.C.C.C.C.C.C.C.C.C.C.N.H H H H l           >X>X>X>X>X>X>X>X>X>X>X>X>X>X",
">X>X>X>X>X>X>X>X>X>X        y H H H H H.=X=X=X=X=X=X=X=XoXC.C.C.C.C.C.C.C.C.C.C.C.C.C.C.C.C.C.C.C.C.C.C.N.H H H H l           >X>X>X>X>X>X>X>X>X>X>X>X>X>X",
">X>X>X>X>X>X>X>X>X>X        y H H H H H.=X=X=X=X=X=X=X=XoXC.C.C.C.C.C.C.C.C.C.C.C.C.C.C.C.C.C.C.C.C.C.C.N.H H H H l           >X>X>X>X>X>X>X>X>X>X>X>X>X>X",
">X>X>X>X>X        ; u u u u b H H H H H.=X=X=X=X=X=X=X=X|.8.8.8.8.k.].].].].].].].].].].].].].].f.8.8.8.7.^ ^ ^ ^ P u u u u 2         >X>X>X>X>X>X>X>X>X>X",
">X>X>X>X>X        1 H H H H H H H H H H.=X=X=X=X=X=X=X=X[.........a.'.'.'.'.'.'.'.'.'.'.'.'.'.'.%................._ H H H H y         >X>X>X>X>X>X>X>X>X>X",
">X>X>X>X>X        1 H H H H H H H H H H.=X=X=X=X=X=X=X=X[.........a.'.'.'.'.'.'.'.'.'.'.'.'.'.'.%................._ H H H H y         >X>X>X>X>X>X>X>X>X>X",
">X>X>X>X>X        1 H H H H H H H H H H.=X=X=X=X=X=X=X=X[.........a.'.'.'.'.'.'.'.'.'.'.'.'.'.'.%................._ H H H H y         >X>X>X>X>X>X>X>X>X>X",
">X>X>X>X>X        1 H H H H H H H H H H.=X=X=X=X=X=X=X=X[.........a.'.'.'.'.'.'.'.'.'.'.'.'.'.'.%................._ H H H H y         >X>X>X>X>X>X>X>X>X>X",
">X>X>X>X>X        O @ @ @ @ @ @ @ @ @ p c c c c 4.6.6.6.5.........a.'.'.'.'.+X#X#X#X#X#X#X#X#X#X<................. .] ] ] ] g         >X>X>X>X>X>X>X>X>X>X",
">X>X>X>X>X                                      ] ................a.'.'.'.'.@X$X$X$X$X$X$X$X$X$X2...........................n         >X>X>X>X>X>X>X>X>X>X",
">X>X>X>X>X                                      ] ................a.'.'.'.'.@X$X$X$X$X$X$X$X$X$X2...........................n         >X>X>X>X>X>X>X>X>X>X",
">X>X>X>X>X                                      ] ................a.'.'.'.'.@X$X$X$X$X$X$X$X$X$X2...........................n         >X>X>X>X>X>X>X>X>X>X",
">X>X>X>X>X                                      ] ................a.'.'.'.'.@X$X$X$X$X$X$X$X$X$X2...........................n         >X>X>X>X>X>X>X>X>X>X",
">X>X>X>X>X>X>X>X>X>X>X>X>X>X>X>X>X>X>X>X>X>X>X>X        4 `.`.`.`.`.`.`.`.`.(.E.E.E.E.E.E.E.E.E._.`.`.`.`.`.`.`.`.).E.E.E.E.w.        >X>X>X>X>X>X>X>X>X>X",
">X>X>X>X>X>X>X>X>X>X>X>X>X>X>X>X>X>X>X>X>X>X>X>X        4 `.`.`.`.`.`.`.`.`.(.E.E.E.E.E.E.E.E.E._.`.`.`.`.`.`.`.`.).E.E.E.E.w.        >X>X>X>X>X>X>X>X>X>X",
">X>X>X>X>X>X>X>X>X>X>X>X>X>X>X>X>X>X>X>X>X>X>X>X        4 `.`.`.`.`.`.`.`.`.(.E.E.E.E.E.E.E.E.E._.`.`.`.`.`.`.`.`.).E.E.E.E.w.        >X>X>X>X>X>X>X>X>X>X",
">X>X>X>X>X>X>X>X>X>X>X>X>X>X>X>X>X>X>X>X>X>X>X>X        4 `.`.`.`.`.`.`.`.`.(.E.E.E.E.E.E.E.E.E._.`.`.`.`.`.`.`.`.).E.E.E.E.w.        >X>X>X>X>X>X>X>X>X>X",
">X>X>X>X>X>X>X>X>X>X>X>X>X>X>X>X>X>X>X>X>X>X>X>X        3 /././././././././.~.Q.Q.Q.Q.r.e.e.e.e.!.^.^.^.^.^.^.^.^.W.t.t.t.t.q.        >X>X>X>X>X>X>X>X>X>X",
">X>X>X>X>X>X>X>X>X>X>X>X>X>X>X>X>X>X>X>X6 6 6 6 .       + ..................l.`.`.`.`.D         N H H H H H H H H H H H H H y         # 6 6 6 6 >X>X>X>X>X",
">X>X>X>X>X>X>X>X>X>X>X>X>X>X>X>X>X>X>X>X6 6 6 6 .       + ..................l.`.`.`.`.D         N H H H H H H H H H H H H H y         # 6 6 6 6 >X>X>X>X>X",
">X>X>X>X>X>X>X>X>X>X>X>X>X>X>X>X>X>X>X>X6 6 6 6 .       + ..................l.`.`.`.`.D         N H H H H H H H H H H H H H y         # 6 6 6 6 >X>X>X>X>X",
">X>X>X>X>X>X>X>X>X>X>X>X>X>X>X>X>X>X>X>X6 6 6 6 .       + ..................l.`.`.`.`.D         N H H H H H H H H H H H H H y         # 6 6 6 6 >X>X>X>X>X",
">X>X>X>X>X>X>X>X>X>X>X>X>X>X>X>X>X>X>X>X6 6 6 6 .       + ..................u.y.y.y.y.S         e u u u i H H H H H H H H H y         # 6 6 6 6 >X>X>X>X>X",
">X>X>X>X>X>X>X>X>X>X>X>X>X>X>X6 6 6 6 6 6 6 6 6 .       + ..................! H H H H :                 o H H H H H H H H H y         # 6 6 6 6 6 6 6 6 6 ",
">X>X>X>X>X>X>X>X>X>X>X>X>X>X>X6 6 6 6 6 6 6 6 6 .       + ..................! H H H H :                 o H H H H H H H H H y         # 6 6 6 6 6 6 6 6 6 ",
">X>X>X>X>X>X>X>X>X>X>X>X>X>X>X6 6 6 6 6 6 6 6 6 .       + ..................! H H H H :                 o H H H H H H H H H y         # 6 6 6 6 6 6 6 6 6 ",
">X>X>X>X>X>X>X>X>X>X>X>X>X>X>X6 6 6 6 6 6 6 6 6 .       + ..................! H H H H :                 o H H H H H H H H H y         # 6 6 6 6 6 6 6 6 6 ",
">X>X>X>X>X>X>X>X>X>X>X>X>X>X>X6 6 6 6 6 6 6 6 6 # # # # % Z Z Z Z Z Z Z Z Z V k k k k < # # # # # # # # $ k k k k k k k k k 7 # # # # 5 6 6 6 6 6 6 6 6 6 ",
">X>X>X>X>X>X>X>X>X>X>X>X>X>X>X6 6 6 6 6 6 6 6 6 6 6 6 6 6 6 6 6 6 6 6 6 6 6 6 6 6 6 6 6 6 6 6 6 6 6 6 6 6 6 6 6 6 6 6 6 6 6 6 6 6 6 6 6 6 6 6 6 6 6 6 6 6 ",
">X>X>X>X>X>X>X>X>X>X>X>X>X>X>X6 6 6 6 6 6 6 6 6 6 6 6 6 6 6 6 6 6 6 6 6 6 6 6 6 6 6 6 6 6 6 6 6 6 6 6 6 6 6 6 6 6 6 6 6 6 6 6 6 6 6 6 6 6 6 6 6 6 6 6 6 6 ",
">X>X>X>X>X>X>X>X>X>X>X>X>X>X>X6 6 6 6 6 6 6 6 6 6 6 6 6 6 6 6 6 6 6 6 6 6 6 6 6 6 6 6 6 6 6 6 6 6 6 6 6 6 6 6 6 6 6 6 6 6 6 6 6 6 6 6 6 6 6 6 6 6 6 6 6 6 ",
">X>X>X>X>X>X>X>X>X>X>X>X>X>X>X6 6 6 6 6 6 6 6 6 6 6 6 6 6 6 6 6 6 6 6 6 6 6 6 6 6 6 6 6 6 6 6 6 6 6 6 6 6 6 6 6 6 6 6 6 6 6 6 6 6 6 6 6 6 6 6 6 6 6 6 6 6 ",
">X>X>X>X>X>X>X>X>X>X>X>X>X>X>X>X>X>X>X>X6 6 6 6 6 6 6 6 6 6 6 6 6 6 6 6 6 6 6 6 6 6 6 6 6 6 6 6 6 6 6 6 6 6 6 6 6 6 6 6 6 6 6 6 6 6 6 6 6 6 6 6 >X>X>X>X>X",
">X>X>X>X>X>X>X>X>X>X>X>X>X>X>X>X>X>X>X>X6 6 6 6 6 6 6 6 6 6 6 6 6 6 6 6 6 6 6 6 6 6 6 6 6 6 6 6 6 6 6 6 6 6 6 6 6 6 6 6 6 6 6 6 6 6 6 6 6 6 6 6 >X>X>X>X>X",
">X>X>X>X>X>X>X>X>X>X>X>X>X>X>X>X>X>X>X>X6 6 6 6 6 6 6 6 6 6 6 6 6 6 6 6 6 6 6 6 6 6 6 6 6 6 6 6 6 6 6 6 6 6 6 6 6 6 6 6 6 6 6 6 6 6 6 6 6 6 6 6 >X>X>X>X>X",
">X>X>X>X>X>X>X>X>X>X>X>X>X>X>X>X>X>X>X>X6 6 6 6 6 6 6 6 6 6 6 6 6 6 6 6 6 6 6 6 6 6 6 6 6 6 6 6 6 6 6 6 6 6 6 6 6 6 6 6 6 6 6 6 6 6 6 6 6 6 6 6 >X>X>X>X>X",
">X>X>X>X>X>X>X>X>X>X>X>X>X>X>X>X>X>X>X>X6 6 6 6 6 6 6 6 6 6 6 6 6 6 6 6 6 6 6 6 6 6 6 6 6 6 6 6 6 6 6 6 6 6 6 6 6 6 6 6 6 6 6 6 6 6 6 6 6 6 6 6 >X>X>X>X>X"
};
