/* XPM */
static char *PMN4[] = {
/* columns rows colors chars-per-pixel */
"57 96 122 2 ",
"   c black",
".  c #010101",
"X  c #010102",
"o  c #020203",
"O  c #040302",
"+  c #070403",
"@  c #040407",
"#  c #0E0905",
"$  c #0F0905",
"%  c #07080E",
"&  c #110A06",
"*  c #110B06",
"=  c #140C07",
"-  c #140D08",
";  c #170F09",
":  c #1A1009",
">  c #18100A",
",  c #18100B",
"<  c #1B120B",
"1  c #1C110A",
"2  c #1D130C",
"3  c #1F130C",
"4  c #080910",
"5  c #0A0C15",
"6  c #0B0C16",
"7  c #0C0D18",
"8  c #0C0E19",
"9  c #181315",
"0  c #22150C",
"q  c #23150D",
"w  c #25170D",
"e  c #27180E",
"r  c #27190F",
"t  c #29190F",
"y  c #281B10",
"u  c #2D1C10",
"i  c #2F1E12",
"p  c #2F1F13",
"a  c #281C15",
"s  c #211919",
"d  c #2C211D",
"f  c #362113",
"g  c #362416",
"h  c #372516",
"j  c #3A2315",
"k  c #3C2415",
"l  c #3C2818",
"z  c #3F2818",
"x  c #3F2A19",
"c  c #332B2C",
"v  c #3A2C2C",
"b  c #3C3233",
"n  c #3C3234",
"m  c #402717",
"M  c #422818",
"N  c #432919",
"B  c #452B1A",
"V  c #462C1A",
"C  c #462C1B",
"Z  c #472D1B",
"A  c #472F1C",
"S  c #4A301C",
"D  c #4B301D",
"F  c #4A311E",
"G  c #4D311E",
"H  c #4C321E",
"J  c #50341F",
"K  c #4F3520",
"L  c #523620",
"P  c #533721",
"I  c #513422",
"U  c #553822",
"Y  c #553922",
"T  c #563922",
"R  c #573A23",
"E  c #543B29",
"W  c #473733",
"Q  c #4C3C36",
"!  c #453938",
"~  c #4D3E38",
"^  c #5D432E",
"/  c #4B403E",
"(  c #4F413D",
")  c #4F423E",
"_  c #64452F",
"`  c #674630",
"'  c #654932",
"]  c #674C34",
"[  c #745036",
"{  c #765238",
"}  c #7E583E",
"|  c #363C54",
" . c #383F5A",
".. c #16346A",
"X. c #193975",
"o. c #1A3D7D",
"O. c #685D4D",
"+. c #706453",
"@. c #776A58",
"#. c #41506D",
"$. c #405173",
"%. c #855C44",
"&. c #8F6549",
"*. c #92684F",
"=. c #95694D",
"-. c #A47558",
";. c #A9795B",
":. c #AC7B5D",
">. c #9E8D75",
",. c #1D438A",
"<. c #1F4889",
"1. c #31548C",
"2. c #224D97",
"3. c #255599",
"4. c #2556A1",
"5. c #2F62AA",
"6. c #2F62AC",
"7. c #2B62B2",
"8. c #2C65B5",
"9. c #AF9C82",
"0. c #C1AC8F",
"q. c None",
/* pixels */
"q.q.q.q.q.q.q.q.q.q.q.q.q.q.q.q.q.q.                q.q.q.q.q.                                  q.q.q.q.q.q.q.q.q.",
"q.q.q.q.q.q.q.q.q.q.q.q.q.q.q.q.q.q.                q.q.q.q.q.                                  q.q.q.q.q.q.q.q.q.",
"q.q.q.q.q.q.q.q.q.q.q.q.q.q.q.q.q.q.                q.q.q.q.q.                                  q.q.q.q.q.q.q.q.q.",
"q.q.q.q.q.q.q.q.q.q.q.q.q.q.q.q.q.q.                q.q.q.q.q.                                  q.q.q.q.q.q.q.q.q.",
"q.q.q.q.q.q.q.q.q.                        O h h h h ;       & t t t t g h h h h h h h p         q.q.q.q.q.q.q.q.q.",
"q.q.q.q.q.q.q.q.q.                        + R R R R <       = m m m m Y R R R R R R R F         q.q.q.q.q.q.q.q.q.",
"q.q.q.q.q.q.q.q.q.                        + R R R R <       = m m m m Y R R R R R R R F         q.q.q.q.q.q.q.q.q.",
"q.q.q.q.q.q.q.q.q.                        + R R R R <       = m m m m Y R R R R R R R F         q.q.q.q.q.q.q.q.q.",
"q.q.q.q.q.q.q.q.q.* * * * ; > > > > > > > 2 R R R R r * * * 0 V V V V T R R R F x x x g         q.q.q.q.q.q.q.q.q.",
"q.q.q.q.        $ m m m m P R R R R R R R R R R R R Z m m m Z R R R R R R R R y                 q.q.q.q.q.q.q.q.q.",
"q.q.q.q.        $ m m m m P R R R R R R R R R R R R Z m m m Z R R R R R R R R y                 q.q.q.q.q.q.q.q.q.",
"q.q.q.q.        $ m m m m P R R R R R R R R R R R R Z m m m Z R R R R R R R R y                 q.q.q.q.q.q.q.q.q.",
"q.q.q.q.        $ m m m m P R R R R R R R R R R R R Z m m m Z R R R R R R R R y                 q.q.q.q.q.q.q.q.q.",
"q.q.q.q.        - U U U U R R R R R R R R R R R R R T U U U T R R R R R R R R P K K K H j j j j #         q.q.q.q.",
"q.q.q.q.        - R R R R R R R R R R R R R R R R R R R R R R R R R R R R R R R R R R P m m m m $         q.q.q.q.",
"q.q.q.q.        - R R R R R R R R R R R R R R R R R R R R R R R R R R R R R R R R R R P m m m m $         q.q.q.q.",
"q.q.q.q.        - R R R R R R R R R R R R R R R R R R R R R R R R R R R R R R R R R R P m m m m $         q.q.q.q.",
"        : q q q i R R R R R R R R R R R R R R R R R R R R R R R R R R R R R R R R R R Y G G G G u q q q :         ",
"        e m m m B R R R R R R R R R R R R R R R R R R R R R R R R R R R R R R R R R R R R R R R B m m m e         ",
"        e m m m B R R R R R R R R R R R R R R R R R R R R R R R R R R R R R R R R R R R R R R R B m m m e         ",
"        e m m m B R R R R R R R R R R R R R R R R R R R R R R R R R R R R R R R R R R R R R R R B m m m e         ",
"        e m m m B R R R R R R R R R R R R R R R R R R R R R R R R R R R R R R R R R R R R R R R B m m m e         ",
"        e m m m B R R R R R R R R R R R R R R R R R R R R R R R R R R R R R R R R R R R R R R R B m m m e         ",
"        e m m m B R R R R R R R R R R R R R R R R R R R R R R R R R R R R R R R R R R R R R R R B m m m e         ",
"        e m m m B R R R R R R R R R R R R R R R R R R R R R R R R R R R R R R R R R R R R R R R B m m m e         ",
"        e m m m B R R R R R R R R R R R R R R R R R R R R R R R R R R R R R R R R R R R R R R R B m m m e         ",
"        e m m m B R R R R R R R R R R R R R R R R R R R R R R R R R R R R R R R R R R R R R R R B m m m e         ",
"        e m m m B R R R R R R R R R R R R R R R R R R R R R R R R R R R R R R R R R R R R R R R B m m m e         ",
"        e m m m B R R R R R R R R R R R R R R R R R R R R R R R R R R R R R R R R R R R R R R R B m m m e         ",
"        e m m m B R R R R R R R R R R R R R R R R R R R R R R R R R R R R R R R R R R R R R R R B m m m e         ",
"        e m m m N G G G G Y R R R R R R R R R R R R R R R R R R R R R R R R R R R R R Y G G G G N m m m e         ",
"        e m m m m m m m m P R R R R R R R R R R R R R R R R R R R R R R R R R R R R R P m m m m m m m m e         ",
"        e m m m m m m m m P R R R R R R R R R R R R R R R R R R R R R R R R R R R R R P m m m m m m m m e         ",
"        e m m m m m m m m P R R R R R R R R R R R R R R R R R R R R R R R R R R R R R P m m m m m m m m e         ",
"        w j j j k m m m m L U U U U U U U U R R R R R R R R R R R R R U U U U U U U U L m m m m m m m m e         ",
"q.q.q.q.        $ m m m m m m m m m m m m M R R R R R R R R R R R R R M m m m m m m m m m m m m m m m m e         ",
"q.q.q.q.        $ m m m m m m m m m m m m M R R R R R R R R R R R R R M m m m m m m m m m m m m m m m m e         ",
"q.q.q.q.        $ m m m m m m m m m m m m M R R R R R R R R R R R R R M m m m m m m m m m m m m m m m m e         ",
"q.q.q.q.        $ m m m m m m m m m m m m M R R R R R R R R R R R R R M m m m m m m m m m m m m m m m m e         ",
"q.q.q.q.        $ m m m m m m m m m m m m m V V V V V V V V V V V V V m m m m m m m m m m m m m 1 * * * $ q.q.q.q.",
"q.q.q.q.        $ m m m m m m m m m m m m m m m m m m m m m m m m m m m m m m m m m m m m m m m $         q.q.q.q.",
"q.q.q.q.        $ m m m m m m m m m m m m m m m m m m m m m m m m m m m m m m m m m m m m m m m $         q.q.q.q.",
"q.q.q.q.        $ m m m m m m m m m m m m m m m m m m m m m m m m m m m m m m m m m m m m m m m $         q.q.q.q.",
"q.q.q.q.        , ` ` ` ` C m m m m m m m m m m m m m m m m m m m m m m m m m m m m m C ` ` ` ` ,         q.q.q.q.",
"q.q.q.q.        a :.:.:.:.I m m m m m m m m m m m m m m m m m m m m m m m m m m m m m I :.:.:.:.a         q.q.q.q.",
"q.q.q.q.        a :.:.:.:.I m m m m m m m m m m m m m m m m m m m m m m m m m m m m m I :.:.:.:.a         q.q.q.q.",
"q.q.q.q.        a :.:.:.:.I m m m m m m m m m m m m m m m m m m m m m m m m m m m m m I :.:.:.:.a         q.q.q.q.",
"q.q.q.q.        a :.:.:.:.I m m m m m m m m m m m m m m m m m m m m m m m m m m m m m I :.:.:.:.a         q.q.q.q.",
"q.q.q.q.q.q.q.q.q.        *.:.:.:.:.:.:.:.-.m m m m m m m m m m m m m -.:.:.:.:.:.:.:.*.        q.q.q.q.q.q.q.q.q.",
"q.q.q.q.q.q.q.q.q.        *.:.:.:.:.:.:.:.-.m m m m m m m m m m m m m -.:.:.:.:.:.:.:.*.        q.q.q.q.q.q.q.q.q.",
"q.q.q.q.q.q.q.q.q.        *.:.:.:.:.:.:.:.-.m m m m m m m m m m m m m -.:.:.:.:.:.:.:.*.        q.q.q.q.q.q.q.q.q.",
"q.q.q.q.q.q.q.q.q.        *.:.:.:.:.:.:.:.-.m m m m m m m m m m m m m -.:.:.:.:.:.:.:.*.        q.q.q.q.q.q.q.q.q.",
"q.q.q.q.q.q.q.q.q.        _ { { { &.:.:.:.;.%.%.%.%.%.%.%.%.%.%.%.%.%.;.:.:.:.&.{ { { _         q.q.q.q.q.q.q.q.q.",
"q.q.q.q.q.q.q.q.q.        F R R R } :.:.:.:.:.:.:.:.:.:.:.:.:.:.:.:.:.:.:.:.:.} R R R F         q.q.q.q.q.q.q.q.q.",
"q.q.q.q.q.q.q.q.q.        F R R R } :.:.:.:.:.:.:.:.:.:.:.:.:.:.:.:.:.:.:.:.:.} R R R F         q.q.q.q.q.q.q.q.q.",
"q.q.q.q.q.q.q.q.q.        F R R R } :.:.:.:.:.:.:.:.:.:.:.:.:.:.:.:.:.:.:.:.:.} R R R F         q.q.q.q.q.q.q.q.q.",
"q.q.q.q.q.q.q.q.q.        F R R R [ =.=.=.=.=.=.=.=.=.=.=.=.=.=.=.=.=.=.=.=.=.[ R R R F         q.q.q.q.q.q.q.q.q.",
"q.q.q.q.                  F R R R R R R R R R R R R R R R R R R R R R R R R R R R R R F         q.q.q.q.q.q.q.q.q.",
"q.q.q.q.                  F R R R R R R R R R R R R R R R R R R R R R R R R R R R R R F         q.q.q.q.q.q.q.q.q.",
"q.q.q.q.                  F R R R R R R R R R R R R R R R R R R R R R R R R R R R R R F         q.q.q.q.q.q.q.q.q.",
"q.q.q.q.                  F R R R R R R R R R R R R R R R R R R R R R R R R R R R R R F         q.q.q.q.q.q.q.q.q.",
"        +.9.9.9.9.9.9.9.9.' R R R R R R R R R R R R R R R R R R R R R R R R R R R R R F         q.q.q.q.q.q.q.q.q.",
"        @.0.0.0.0.0.0.0.0.] R R R R R R R R R R R R R R R R R R R R R R R R R R R R R F         q.q.q.q.q.q.q.q.q.",
"        @.0.0.0.0.0.0.0.0.] R R R R R R R R R R R R R R R R R R R R R R R R R R R R R F         q.q.q.q.q.q.q.q.q.",
"        @.0.0.0.0.0.0.0.0.] R R R R R R R R R R R R R R R R R R R R R R R R R R R R R F         q.q.q.q.q.q.q.q.q.",
"        @.0.0.0.0.0.0.0.0.^ S S S J R R R R R R R R R R R R R R R R R R R R R J S S S z         q.q.q.q.q.q.q.q.q.",
"        @.0.0.0.0.0.0.0.0.E m m m D R R R R R R R R R R R R R R R R R R R R R D m m m f         q.q.q.q.q.q.q.q.q.",
"        @.0.0.0.0.0.0.0.0.E m m m D R R R R R R R R R R R R R R R R R R R R R D m m m f         q.q.q.q.q.q.q.q.q.",
"        @.0.0.0.0.0.0.0.0.E m m m D R R R R R R R R R R R R R R R R R R R R R D m m m f         q.q.q.q.q.q.q.q.q.",
"        O.>.>.>.>.>.>.>.>./ n n n ! ) ) ) ) ) ) ) ) ~ Q Q Q Q Q Q Q Q ( ) ) ) ! n n n c         q.q.q.q.q.q.q.q.q.",
"q.q.q.q.                  3.8.8.8.8.8.8.8.8.8.8.8.8.2.,.,.,.,.,.,.,.,.7.8.8.8.8.8.8.8.3.        q.q.q.q.q.q.q.q.q.",
"q.q.q.q.                  3.8.8.8.8.8.8.8.8.8.8.8.8.2.,.,.,.,.,.,.,.,.7.8.8.8.8.8.8.8.3.        q.q.q.q.q.q.q.q.q.",
"q.q.q.q.                  3.8.8.8.8.8.8.8.8.8.8.8.8.2.,.,.,.,.,.,.,.,.7.8.8.8.8.8.8.8.3.        q.q.q.q.q.q.q.q.q.",
"q.q.q.q.                  3.8.8.8.8.8.8.8.8.8.8.8.8.2.,.,.,.,.,.,.,.,.7.8.8.8.8.8.8.8.3.        q.q.q.q.q.q.q.q.q.",
"q.q.q.q.q.q.q.q.q.        3.8.8.8.8.8.8.8.6.) ) ) ) ~ Q Q Q W v v v v b n n n n n n n c         q.q.q.q.q.q.q.q.q.",
"q.q.q.q.q.q.q.q.q.        3.8.8.8.8.8.8.8.5.R R R R R R R R J m m m m m m m m m m m m f         q.q.q.q.q.q.q.q.q.",
"q.q.q.q.q.q.q.q.q.        3.8.8.8.8.8.8.8.5.R R R R R R R R J m m m m m m m m m m m m f         q.q.q.q.q.q.q.q.q.",
"q.q.q.q.q.q.q.q.q.        3.8.8.8.8.8.8.8.5.R R R R R R R R J m m m m m m m m m m m m f         q.q.q.q.q.q.q.q.q.",
"q.q.q.q.q.q.q.q.q.        <.4.4.4.1.$.$.$.#.R R R R R R R R A q q q q q q q q q q q q 3 @ @ @ @ q.q.q.q.q.q.q.q.q.",
"q.q.q.q.q.8 8 8 4         X.,.,.,. .R R R R R R R R R R R R l                         X 8 8 8 8 8 8 8 8 q.q.q.q.q.",
"q.q.q.q.q.8 8 8 4         X.,.,.,. .R R R R R R R R R R R R l                         X 8 8 8 8 8 8 8 8 q.q.q.q.q.",
"q.q.q.q.q.8 8 8 4         X.,.,.,. .R R R R R R R R R R R R l                         X 8 8 8 8 8 8 8 8 q.q.q.q.q.",
"q.q.q.q.q.8 8 8 4         ..o.o.o.| R R R R R R R R R R R R l         . . . . . . . . o 8 8 8 8 8 8 8 8 q.q.q.q.q.",
"8 8 8 8 8 8 8 8 4                 y R R R R R R R R R R R R l         5 8 8 8 8 8 8 8 8 8 8 8 8 8 8 8 8 8 8 8 8 8 ",
"8 8 8 8 8 8 8 8 4                 y R R R R R R R R R R R R l         5 8 8 8 8 8 8 8 8 8 8 8 8 8 8 8 8 8 8 8 8 8 ",
"8 8 8 8 8 8 8 8 4                 y R R R R R R R R R R R R l         5 8 8 8 8 8 8 8 8 8 8 8 8 8 8 8 8 8 8 8 8 8 ",
"8 8 8 8 8 8 8 8 4                 y R R R R R R R R R R R R l         5 8 8 8 8 8 8 8 8 8 8 8 8 8 8 8 8 8 8 8 8 8 ",
"8 8 8 8 8 8 8 8 6 % % % % % % % % 9 d d d d d d d d d d d d s % % % % 7 8 8 8 8 8 8 8 8 8 8 8 8 8 8 8 8 8 8 8 8 8 ",
"8 8 8 8 8 8 8 8 8 8 8 8 8 8 8 8 8 8 8 8 8 8 8 8 8 8 8 8 8 8 8 8 8 8 8 8 8 8 8 8 8 8 8 8 8 8 8 8 8 8 8 8 8 8 8 8 8 ",
"8 8 8 8 8 8 8 8 8 8 8 8 8 8 8 8 8 8 8 8 8 8 8 8 8 8 8 8 8 8 8 8 8 8 8 8 8 8 8 8 8 8 8 8 8 8 8 8 8 8 8 8 8 8 8 8 8 ",
"8 8 8 8 8 8 8 8 8 8 8 8 8 8 8 8 8 8 8 8 8 8 8 8 8 8 8 8 8 8 8 8 8 8 8 8 8 8 8 8 8 8 8 8 8 8 8 8 8 8 8 8 8 8 8 8 8 ",
"q.q.q.q.q.8 8 8 8 8 8 8 8 8 8 8 8 8 8 8 8 8 8 8 8 8 8 8 8 8 8 8 8 8 8 8 8 8 8 8 8 8 8 8 8 8 8 8 8 8 8 8 q.q.q.q.q.",
"q.q.q.q.q.8 8 8 8 8 8 8 8 8 8 8 8 8 8 8 8 8 8 8 8 8 8 8 8 8 8 8 8 8 8 8 8 8 8 8 8 8 8 8 8 8 8 8 8 8 8 8 q.q.q.q.q.",
"q.q.q.q.q.8 8 8 8 8 8 8 8 8 8 8 8 8 8 8 8 8 8 8 8 8 8 8 8 8 8 8 8 8 8 8 8 8 8 8 8 8 8 8 8 8 8 8 8 8 8 8 q.q.q.q.q.",
"q.q.q.q.q.8 8 8 8 8 8 8 8 8 8 8 8 8 8 8 8 8 8 8 8 8 8 8 8 8 8 8 8 8 8 8 8 8 8 8 8 8 8 8 8 8 8 8 8 8 8 8 q.q.q.q.q.",
"q.q.q.q.q.8 8 8 8 8 8 8 8 8 8 8 8 8 8 8 8 8 8 8 8 8 8 8 8 8 8 8 8 8 8 8 8 8 8 8 8 8 8 8 8 8 8 8 8 8 8 8 q.q.q.q.q."
};
