/* XPM */
static char *PMN5[] = {
/* columns rows colors chars-per-pixel */
"59 96 132 2 ",
"   c black",
".  c #000101",
"X  c #010102",
"o  c #020203",
"O  c #050302",
"+  c #020204",
"@  c #020304",
"#  c #020305",
"$  c #080503",
"%  c #090603",
"&  c #0B0704",
"*  c #0B0805",
"=  c #0C0805",
"-  c #0F0905",
";  c #0F0907",
":  c #0E0A06",
">  c #0F0A06",
",  c #05060B",
"<  c #06070D",
"1  c #07080E",
"2  c #07080F",
"3  c #0C0B0D",
"4  c #120B06",
"5  c #120B07",
"6  c #140D08",
"7  c #150D08",
"8  c #160D08",
"9  c #190F09",
"0  c #19110A",
"q  c #1B110A",
"w  c #1B120B",
"e  c #1E120B",
"r  c #18110D",
"t  c #19120D",
"y  c #1B130D",
"u  c #040A14",
"i  c #0A0B14",
"p  c #070D1A",
"a  c #0C0E19",
"s  c #171517",
"d  c #13141C",
"f  c #21160D",
"g  c #22160D",
"h  c #25160D",
"j  c #25190F",
"k  c #2E1C10",
"l  c #331F12",
"z  c #2F2015",
"x  c #362113",
"c  c #332014",
"v  c #372114",
"b  c #3B2415",
"n  c #3C2415",
"m  c #3C2517",
"M  c #3E2616",
"N  c #3E2617",
"B  c #3E2717",
"V  c #30221A",
"C  c #31231B",
"Z  c #3E2818",
"A  c #3E2919",
"S  c #070F20",
"D  c #081327",
"F  c #0A1830",
"G  c #0B1A35",
"H  c #3D2C21",
"J  c #2F2B35",
"K  c #362F38",
"L  c #402717",
"P  c #412818",
"I  c #412918",
"U  c #432A19",
"Y  c #452B1A",
"T  c #472C1A",
"R  c #472D1B",
"E  c #492E1C",
"W  c #4A301C",
"Q  c #4A311E",
"!  c #4B321E",
"~  c #4C321E",
"^  c #4D321E",
"/  c #4E331E",
"(  c #4D341F",
")  c #50341F",
"_  c #422F24",
"`  c #4F3321",
"'  c #4E3420",
"]  c #503520",
"[  c #503620",
"{  c #533721",
"}  c #533623",
"|  c #543721",
" . c #543822",
".. c #553922",
"X. c #563922",
"o. c #563A23",
"O. c #573A23",
"+. c #553C2C",
"@. c #583A28",
"#. c #5F3F2B",
"$. c #765238",
"%. c #75513A",
"&. c #7B563C",
"*. c #313348",
"=. c #3E3E4F",
"-. c #2C3759",
";. c #3E4358",
":. c #2A4172",
">. c #3C4E72",
",. c #3E5376",
"<. c #4D4445",
"1. c #404153",
"2. c #42495E",
"3. c #7B615B",
"4. c #454C62",
"5. c #75656E",
"6. c #825B42",
"7. c #8B6147",
"8. c #8D6349",
"9. c #90654B",
"0. c #9F7154",
"q. c #9F7256",
"w. c #A07255",
"e. c #AA7A5C",
"r. c #AC7B5D",
"t. c #1D438A",
"y. c #1F478F",
"u. c #1F4890",
"i. c #204B94",
"p. c #2A60AE",
"a. c #2C65B5",
"s. c None",
/* pixels */
"s.s.s.s.s.s.s.s.s.s.s.s.s.s.s.s.s.s.                  s.s.s.s.s.                                    s.s.s.s.s.s.s.s.s.",
"s.s.s.s.s.s.s.s.s.s.s.s.s.s.s.s.s.s.                  s.s.s.s.s.                                    s.s.s.s.s.s.s.s.s.",
"s.s.s.s.s.s.s.s.s.s.s.s.s.s.s.s.s.s.                  s.s.s.s.s.                                    s.s.s.s.s.s.s.s.s.",
"s.s.s.s.s.s.s.s.s.s.s.s.s.s.s.s.s.s.                  s.s.s.s.s.                                    s.s.s.s.s.s.s.s.s.",
"s.s.s.s.s.s.s.s.s.s.s.s.s.s.s.s.s.s.        * j j j j > s.s.s.& q q q q g j j j j j j j j :         s.s.s.s.s.s.s.s.s.",
"s.s.s.s.s.s.s.s.s.                          w O.O.O.O.6       - L L L L ) O.O.O.O.O.O.O.O.f         s.s.s.s.s.s.s.s.s.",
"s.s.s.s.s.s.s.s.s.                          w O.O.O.O.6       - L L L L ) O.O.O.O.O.O.O.O.f         s.s.s.s.s.s.s.s.s.",
"s.s.s.s.s.s.s.s.s.                          w O.O.O.O.6       - L L L L ) O.O.O.O.O.O.O.O.f         s.s.s.s.s.s.s.s.s.",
"s.s.s.s.s.s.s.s.s.                          w O.O.O.O.6       - L L L L ) O.O.O.O.O.O.O.O.f         s.s.s.s.s.s.s.s.s.",
"s.s.s.s.s.        l v v v Z ! ! ! ! ! ! ! ! ' O.O.O.O.B v v v N | | | | X.O.O.O.~ = = = = O         s.s.s.s.s.s.s.s.s.",
"s.s.s.s.s.        b L L L E O.O.O.O.O.O.O.O.O.O.O.O.O.Y L L L Y O.O.O.O.O.O.O.O.Q                   s.s.s.s.s.s.s.s.s.",
"s.s.s.s.s.        b L L L E O.O.O.O.O.O.O.O.O.O.O.O.O.Y L L L Y O.O.O.O.O.O.O.O.Q                   s.s.s.s.s.s.s.s.s.",
"s.s.s.s.s.        b L L L E O.O.O.O.O.O.O.O.O.O.O.O.O.Y L L L Y O.O.O.O.O.O.O.O.Q                   s.s.s.s.s.s.s.s.s.",
"s.s.s.s.s.        I T T T ^ O.O.O.O.O.O.O.O.O.O.O.O.O.W T T T W O.O.O.O.O.O.O.O.( 0 0 0 0 7 5 5 5 4 s.s.s.s.s.s.s.s.s.",
"s.s.s.s.s.        [ O.O.O.O.O.O.O.O.O.O.O.O.O.O.O.O.O.O.O.O.O.O.O.O.O.O.O.O.O.O.O.O.O.O.O.E L L L b         s.s.s.s.s.",
"s.s.s.s.s.        [ O.O.O.O.O.O.O.O.O.O.O.O.O.O.O.O.O.O.O.O.O.O.O.O.O.O.O.O.O.O.O.O.O.O.O.E L L L b         s.s.s.s.s.",
"s.s.s.s.s.        [ O.O.O.O.O.O.O.O.O.O.O.O.O.O.O.O.O.O.O.O.O.O.O.O.O.O.O.O.O.O.O.O.O.O.O.E L L L b         s.s.s.s.s.",
"s.s.s.s.s.        [ O.O.O.O.O.O.O.O.O.O.O.O.O.O.O.O.O.O.O.O.O.O.O.O.O.O.O.O.O.O.O.O.O.O.O.E L L L b         s.s.s.s.s.",
"        9 k k k k  .O.O.O.O.O.O.O.O.O.O.O.O.O.O.O.O.O.O.O.O.O.O.O.O.O.O.O.O.O.O.O.O.O.O.O.{ ] ] ] / k k k k 9         ",
"        e L L L L ..O.O.O.O.O.O.O.O.O.O.O.O.O.O.O.O.O.O.O.O.O.O.O.O.O.O.O.O.O.O.O.O.O.O.O.O.O.O.O...L L L L e         ",
"        e L L L L ..O.O.O.O.O.O.O.O.O.O.O.O.O.O.O.O.O.O.O.O.O.O.O.O.O.O.O.O.O.O.O.O.O.O.O.O.O.O.O...L L L L e         ",
"        e L L L L ..O.O.O.O.O.O.O.O.O.O.O.O.O.O.O.O.O.O.O.O.O.O.O.O.O.O.O.O.O.O.O.O.O.O.O.O.O.O.O...L L L L e         ",
"        e L L L L ..O.O.O.O.O.O.O.O.O.O.O.O.O.O.O.O.O.O.O.O.O.O.O.O.O.O.O.O.O.O.O.O.O.O.O.O.O.O.O...L L L L e         ",
"        e L L L L ..O.O.O.O.O.O.O.O.O.O.O.O.O.O.O.O.O.O.O.O.O.O.O.O.O.O.O.O.O.O.O.O.O.O.O.O.O.O.O...L L L L e         ",
"        e L L L L ..O.O.O.O.O.O.O.O.O.O.O.O.O.O.O.O.O.O.O.O.O.O.O.O.O.O.O.O.O.O.O.O.O.O.O.O.O.O.O...L L L L e         ",
"        e L L L L ..O.O.O.O.O.O.O.O.O.O.O.O.O.O.O.O.O.O.O.O.O.O.O.O.O.O.O.O.O.O.O.O.O.O.O.O.O.O.O...L L L L e         ",
"        e L L L L ..O.O.O.O.O.O.O.O.O.O.O.O.O.O.O.O.O.O.O.O.O.O.O.O.O.O.O.O.O.O.O.O.O.O.O.O.O.O.O...L L L L e         ",
"        e L L L L ..O.O.O.O.O.O.O.O.O.O.O.O.O.O.O.O.O.O.O.O.O.O.O.O.O.O.O.O.O.O.O.O.O.O.O.O.O.O.O...L L L L e         ",
"        e L L L L ..O.O.O.O.O.O.O.O.O.O.O.O.O.O.O.O.O.O.O.O.O.O.O.O.O.O.O.O.O.O.O.O.O.O.O.O.O.O.O...L L L L e         ",
"        e L L L L ..O.O.O.O.O.O.O.O.O.O.O.O.O.O.O.O.O.O.O.O.O.O.O.O.O.O.O.O.O.O.O.O.O.O.O.O.O.O.O...L L L L e         ",
"        e L L L L ..O.O.O.O.O.O.O.O.O.O.O.O.O.O.O.O.O.O.O.O.O.O.O.O.O.O.O.O.O.O.O.O.O.O.O.O.O.O.O...L L L L e         ",
"        e L L L L ..O.O.O.O.O.O.O.O.O.O.O.O.O.O.O.O.O.O.O.O.O.O.O.O.O.O.O.O.O.O.O.O.O.O.O.O.O.O.O...L L L L e         ",
"        e L L L L L L L L E O.O.O.O.O.O.O.O.O.O.O.O.O.O.O.O.O.O.O.O.O.O.O.O.O.O.O.O.O.O.O.E L L L L L L L L e         ",
"        e L L L L L L L L E O.O.O.O.O.O.O.O.O.O.O.O.O.O.O.O.O.O.O.O.O.O.O.O.O.O.O.O.O.O.O.E L L L L L L L L e         ",
"        e L L L L L L L L E O.O.O.O.O.O.O.O.O.O.O.O.O.O.O.O.O.O.O.O.O.O.O.O.O.O.O.O.O.O.O.E L L L L L L L L e         ",
"        e L L L L L L L L E O.O.O.O.O.O.O.O.O.O.O.O.O.O.O.O.O.O.O.O.O.O.O.O.O.O.O.O.O.O.O.E L L L L L L L L e         ",
"        8 h h h h M L L L Y ^ ^ ^ ^ ^ ^ ^ ^ ) O.O.O.O.O.O.O.O.O.O.O.O.O.) ^ ^ ^ ^ ^ ^ ^ ^ Y L L L L L L L L e         ",
"s.s.s.s.s.        b L L L L L L L L L L L L R O.O.O.O.O.O.O.O.O.O.O.O.O.R L L L L L L L L L L L L L L L L L e         ",
"s.s.s.s.s.        b L L L L L L L L L L L L R O.O.O.O.O.O.O.O.O.O.O.O.O.R L L L L L L L L L L L L L L L L L e         ",
"s.s.s.s.s.        b L L L L L L L L L L L L R O.O.O.O.O.O.O.O.O.O.O.O.O.R L L L L L L L L L L L L L L L L L e         ",
"s.s.s.s.s.        b L L L L L L L L L L L L R O.O.O.O.O.O.O.O.O.O.O.O.O.R L L L L L L L L L L L L L L L L L e         ",
"s.s.s.s.s.        b L L L L L L L L L L L L P U U U U U U U U U U U U U P L L L L L L L L L L L L n % % % % $ s.s.s.s.",
"s.s.s.s.s.        b L L L L L L L L L L L L L L L L L L L L L L L L L L L L L L L L L L L L L L L b         s.s.s.s.s.",
"s.s.s.s.s.        b L L L L L L L L L L L L L L L L L L L L L L L L L L L L L L L L L L L L L L L b         s.s.s.s.s.",
"s.s.s.s.s.        b L L L L L L L L L L L L L L L L L L L L L L L L L L L L L L L L L L L L L L L b         s.s.s.s.s.",
"s.s.s.s.s.        @.#.#.#.} L L L L L L L L L L L L L L L L L L L L L L L L L L L L L L L } #.#.#.@.        s.s.s.s.s.",
"s.s.s.s.s.        q.r.r.r.6.L L L L L L L L L L L L L L L L L L L L L L L L L L L L L L L 6.r.r.r.q.        s.s.s.s.s.",
"s.s.s.s.s.        q.r.r.r.6.L L L L L L L L L L L L L L L L L L L L L L L L L L L L L L L 6.r.r.r.q.        s.s.s.s.s.",
"s.s.s.s.s.        q.r.r.r.6.L L L L L L L L L L L L L L L L L L L L L L L L L L L L L L L 6.r.r.r.q.        s.s.s.s.s.",
"s.s.s.s.s.        q.r.r.r.6.L L L L L L L L L L L L L L L L L L L L L L L L L L L L L L L 6.r.r.r.q.        s.s.s.s.s.",
"s.s.s.s.s.s.s.s.s.V C C C +.8.8.8.8.8.8.8.8.%.L L L L L L L L L L L L L %.8.8.8.8.8.8.8.8.+.C C C V s.s.s.s.s.s.s.s.s.",
"s.s.s.s.s.s.s.s.s.        _ r.r.r.r.r.r.r.r.7.L L L L L L L L L L L L L 7.r.r.r.r.r.r.r.r._         s.s.s.s.s.s.s.s.s.",
"s.s.s.s.s.s.s.s.s.        _ r.r.r.r.r.r.r.r.7.L L L L L L L L L L L L L 7.r.r.r.r.r.r.r.r._         s.s.s.s.s.s.s.s.s.",
"s.s.s.s.s.s.s.s.s.        _ r.r.r.r.r.r.r.r.7.L L L L L L L L L L L L L 7.r.r.r.r.r.r.r.r._         s.s.s.s.s.s.s.s.s.",
"s.s.s.s.s.s.s.s.s.        H w.w.w.w.e.r.r.r.9.` ` ` ` ` ` ` ` ` ` ` ` ` 9.r.r.r.e.w.w.w.w.H         s.s.s.s.s.s.s.s.s.",
"s.s.s.s.s.s.s.s.s.        f O.O.O.O.0.r.r.r.r.r.r.r.r.r.r.r.r.r.r.r.r.r.r.r.r.r.0.O.O.O.O.f         s.s.s.s.s.s.s.s.s.",
"s.s.s.s.s.s.s.s.s.        f O.O.O.O.0.r.r.r.r.r.r.r.r.r.r.r.r.r.r.r.r.r.r.r.r.r.0.O.O.O.O.f         s.s.s.s.s.s.s.s.s.",
"s.s.s.s.s.s.s.s.s.        f O.O.O.O.0.r.r.r.r.r.r.r.r.r.r.r.r.r.r.r.r.r.r.r.r.r.0.O.O.O.O.f         s.s.s.s.s.s.s.s.s.",
"s.s.s.s.s.s.s.s.s.        f O.O.O.O.0.r.r.r.r.r.r.r.r.r.r.r.r.r.r.r.r.r.r.r.r.r.0.O.O.O.O.f         s.s.s.s.s.s.s.s.s.",
"s.s.s.s.s.s.s.s.s.        f O.O.O.O.$.&.&.&.&.&.&.&.&.&.&.&.&.&.&.&.&.&.&.&.&.&.$.O.O.O.O.f         s.s.s.s.s.s.s.s.s.",
"s.s.s.s.s.s.s.s.s.        f O.O.O.O.O.O.O.O.O.O.O.O.O.O.O.O.O.O.O.O.O.O.O.O.O.O.O.O.O.O.O.f         s.s.s.s.s.s.s.s.s.",
"s.s.s.s.s.s.s.s.s.        f O.O.O.O.O.O.O.O.O.O.O.O.O.O.O.O.O.O.O.O.O.O.O.O.O.O.O.O.O.O.O.f         s.s.s.s.s.s.s.s.s.",
"s.s.s.s.s.s.s.s.s.        f O.O.O.O.O.O.O.O.O.O.O.O.O.O.O.O.O.O.O.O.O.O.O.O.O.O.O.O.O.O.O.f         s.s.s.s.s.s.s.s.s.",
"s.s.s.s.s.s.s.s.s.        f O.O.O.O.O.O.O.O.O.O.O.O.O.O.O.O.O.O.O.O.O.O.O.O.O.O.O.O.O.O.O.f         s.s.s.s.s.s.s.s.s.",
"s.s.s.s.s.        q.r.r.r.5.t.t.t.t.p.a.a.a.a.a.a.a.a.<.O.O.O.O.O.O.O.O.O.O.O.O.{ L L L L 9         s.s.s.s.s.s.s.s.s.",
"s.s.s.s.s.        q.r.r.r.5.t.t.t.t.p.a.a.a.a.a.a.a.a.<.O.O.O.O.O.O.O.O.O.O.O.O.{ L L L L 9         s.s.s.s.s.s.s.s.s.",
"s.s.s.s.s.        q.r.r.r.5.t.t.t.t.p.a.a.a.a.a.a.a.a.<.O.O.O.O.O.O.O.O.O.O.O.O.{ L L L L 9         s.s.s.s.s.s.s.s.s.",
"s.s.s.s.s.        q.r.r.r.5.t.t.t.t.p.a.a.a.a.a.a.a.a.<.O.O.O.O.O.O.O.O.O.O.O.O.{ L L L L 9         s.s.s.s.s.s.s.s.s.",
"s.s.s.s.s.        q.r.r.r.3.-.-.-.-.>.,.,.,.,.,.,.,.,.;.=.=.=.1.4.4.4.4.4.4.4.4.2.*.*.*.*.d         s.s.s.s.s.s.s.s.s.",
"s.s.s.s.s.        q.r.r.r.6.L L L L { O.O.O.O.O.O.O.O.:.t.t.t.i.a.a.a.a.a.a.a.a.p.t.t.t.t.G         s.s.s.s.s.s.s.s.s.",
"s.s.s.s.s.        q.r.r.r.6.L L L L { O.O.O.O.O.O.O.O.:.t.t.t.i.a.a.a.a.a.a.a.a.p.t.t.t.t.G         s.s.s.s.s.s.s.s.s.",
"s.s.s.s.s.        q.r.r.r.6.L L L L { O.O.O.O.O.O.O.O.:.t.t.t.i.a.a.a.a.a.a.a.a.p.t.t.t.t.G         s.s.s.s.s.s.s.s.s.",
"s.s.s.s.s.        q.r.r.r.6.L L L L { O.O.O.O.O.O.O.O.:.t.t.t.i.a.a.a.a.a.a.a.a.p.t.t.t.t.G         s.s.s.s.s.s.s.s.s.",
"s.s.s.s.s.s.s.s.s.r t t t z | | | | o.O.O.O.O.O.O.O.O.s u u u F u.u.u.u.u.u.u.u.y.t.t.t.t.G         s.s.s.s.s.s.s.s.s.",
"s.s.s.s.s.s.s.s.s.        f O.O.O.O.O.O.O.O.O.O.O.O.O.6       S t.t.t.t.t.t.t.t.t.t.t.t.t.G         s.s.s.s.s.s.s.s.s.",
"s.s.s.s.s.s.s.s.s.        f O.O.O.O.O.O.O.O.O.O.O.O.O.6       S t.t.t.t.t.t.t.t.t.t.t.t.t.G         s.s.s.s.s.s.s.s.s.",
"s.s.s.s.s.s.s.s.s.        f O.O.O.O.O.O.O.O.O.O.O.O.O.6       S t.t.t.t.t.t.t.t.t.t.t.t.t.G         s.s.s.s.s.s.s.s.s.",
"s.s.s.s.s.s.s.s.s.@ + + + y A A A A A A A A A A A A A :       S t.t.t.t.t.t.t.t.t.t.t.t.t.G         s.s.s.s.s.s.s.s.s.",
"s.s.s.s.s.a a a a a a a a ,                                   S t.t.t.t.t.t.t.t.t.t.t.t.t.G       . a a a a s.s.s.s.s.",
"s.s.s.s.s.a a a a a a a a ,                                   S t.t.t.t.t.t.t.t.t.t.t.t.t.G       . a a a a s.s.s.s.s.",
"s.s.s.s.s.a a a a a a a a ,                                   S t.t.t.t.t.t.t.t.t.t.t.t.t.G       . a a a a s.s.s.s.s.",
"s.s.s.s.s.a a a a a a a a ,                                   S t.t.t.t.t.t.t.t.t.t.t.t.t.G       . a a a a s.s.s.s.s.",
"s.s.s.s.s.a a a a a a a a i 1 1 1 1 1 1 1 1 1 1 1 1 1 X       3 K K K K K K K K J D D D D p 1 1 1 2 a a a a s.s.s.s.s.",
"a a a a a a a a a a a a a a a a a a a a a a a a a a a o       - L L L L L L L L x         , a a a a a a a a a a a a a ",
"a a a a a a a a a a a a a a a a a a a a a a a a a a a o       - L L L L L L L L x         , a a a a a a a a a a a a a ",
"a a a a a a a a a a a a a a a a a a a a a a a a a a a o       - L L L L L L L L x         , a a a a a a a a a a a a a ",
"a a a a a a a a a a a a a a a a a a a a a a a a a a a # X X X ; m m m m m m m m c X X X X < a a a a a a a a a a a a a ",
"a a a a a a a a a a a a a a a a a a a a a a a a a a a a a a a a a a a a a a a a a a a a a a a a a a a a a a a a a a a ",
"a a a a a a a a a a a a a a a a a a a a a a a a a a a a a a a a a a a a a a a a a a a a a a a a a a a a a a a a a a a ",
"a a a a a a a a a a a a a a a a a a a a a a a a a a a a a a a a a a a a a a a a a a a a a a a a a a a a a a a a a a a ",
"a a a a a a a a a a a a a a a a a a a a a a a a a a a a a a a a a a a a a a a a a a a a a a a a a a a a a a a a a a a ",
"s.s.s.s.s.a a a a a a a a a a a a a a a a a a a a a a a a a a a a a a a a a a a a a a a a a a a a a a a a a s.s.s.s.s.",
"s.s.s.s.s.a a a a a a a a a a a a a a a a a a a a a a a a a a a a a a a a a a a a a a a a a a a a a a a a a s.s.s.s.s.",
"s.s.s.s.s.a a a a a a a a a a a a a a a a a a a a a a a a a a a a a a a a a a a a a a a a a a a a a a a a a s.s.s.s.s.",
"s.s.s.s.s.a a a a a a a a a a a a a a a a a a a a a a a a a a a a a a a a a a a a a a a a a a a a a a a a a s.s.s.s.s.",
"s.s.s.s.s.a a a a a a a a a a a a a a a a a a a a a a a a a a a a a a a a a a a a a a a a a a a a a a a a a s.s.s.s.s."
};
