/* XPM */
static char *closed_door[] = {
/* columns rows colors chars-per-pixel */
"96 96 9 1 ",
"  c black",
". c #21110D",
"X c #342319",
"o c #503625",
"O c #755338",
"+ c #D99945",
"@ c #E9CE7C",
"# c #677598",
"$ c #755338",
/* pixels */
"######....................................................................................######",
"######....................................................................................######",
"######....................................................................................######",
"######....................................................................................######",
"######....................................................................................######",
"######....................................................................................######",
"......OOOOOOOOOOOOOOOOOOOOOOOOOOOOOOOOOOOOOOOOOOOOOOOOOOOOOOOOOOOOOOOOOOOOOOOOOOOOOOOOOOOO......",
"......OOOOOOOOOOOOOOOOOOOOOOOOOOOOOOOOOOOOOOOOOOOOOOOOOOOOOOOOOOOOOOOOOOOOOOOOOOOOOOOOOOOO......",
"......OOOOOOOOOOOOOOOOOOOOOOOOOOOOOOOOOOOOOOOOOOOOOOOOOOOOOOOOOOOOOOOOOOOOOOOOOOOOOOOOOOOO......",
"......OOOOOOOOOOOOOOOOOOOOOOOOOOOOOOOOOOOOOOOOOOOOOOOOOOOOOOOOOOOOOOOOOOOOOOOOOOOOOOOOOOOO......",
"......OOOOOOOOOOOOOOOOOOOOOOOOOOOOOOOOOOOOOOOOOOOOOOOOOOOOOOOOOOOOOOOOOOOOOOOOOOOOOOOOOOOO......",
"......OOOOOOOOOOOOOOOOOOOOOOOOOOOOOOOOOOOOOOOOOOOOOOOOOOOOOOOOOOOOOOOOOOOOOOOOOOOOOOOOOOOO......",
"......OOOOOOOOOOOOOOOOOOOOOOOOOOOOOOOOOOOOOOOOOOOOOOOOOOOOOOOOOOOOOOOOOOOOOOOOOOOOOOOOOOOO......",
"......OOOOOOOOOOOOOOOOOOOOOOOOOOOOOOOOOOOOOOOOOOOOOOOOOOOOOOOOOOOOOOOOOOOOOOOOOOOOOOOOOOOO......",
"......OOOOOOOOOOOOOOOOOOOOOOOOOOOOOOOOOOOOOOOOOOOOOOOOOOOOOOOOOOOOOOOOOOOOOOOOOOOOOOOOOOOO......",
"......OOOOOOOOOOOOOOOOOOOOOOOOOOOOOOOOOOOOOOOOOOOOOOOOOOOOOOOOOOOOOOOOOOOOOOOOOOOOOOOOOOOO......",
"......OOOOOOOOOOOOOOOOOOOOOOOOOOOOOOOOOOOOOOOOOOOOOOOOOOOOOOOOOOOOOOOOOOOOOOOOOOOOOOOOOOOO......",
"......OOOOOOOOOOOOOOOOOOOOOOOOOOOOOOOOOOOOOOOOOOOOOOOOOOOOOOOOOOOOOOOOOOOOOOOOOOOOOOOOOOOO......",
"......ooooooXXXXXXXXXXXXXXXXXXXXXXXXXXXXXXXXXXXXXXXXXXXXXXXXXXXXXXXXXXXXXXXXXXXXXXXXoooooo......",
"......ooooooXXXXXXXXXXXXXXXXXXXXXXXXXXXXXXXXXXXXXXXXXXXXXXXXXXXXXXXXXXXXXXXXXXXXXXXXoooooo......",
"......ooooooXXXXXXXXXXXXXXXXXXXXXXXXXXXXXXXXXXXXXXXXXXXXXXXXXXXXXXXXXXXXXXXXXXXXXXXXoooooo......",
"......ooooooXXXXXXXXXXXXXXXXXXXXXXXXXXXXXXXXXXXXXXXXXXXXXXXXXXXXXXXXXXXXXXXXXXXXXXXXoooooo......",
"......ooooooXXXXXXXXXXXXXXXXXXXXXXXXXXXXXXXXXXXXXXXXXXXXXXXXXXXXXXXXXXXXXXXXXXXXXXXXoooooo......",
"......ooooooXXXXXXXXXXXXXXXXXXXXXXXXXXXXXXXXXXXXXXXXXXXXXXXXXXXXXXXXXXXXXXXXXXXXXXXXoooooo......",
"......OOOOOOXXXXXXooooooooooooXXXXXXooooooooooooooooooooooooXXXXXXooooooooooooXXXXXXOOOOOO......",
"......OOOOOOXXXXXXooooooooooooXXXXXXooooooooooooooooooooooooXXXXXXooooooooooooXXXXXXOOOOOO......",
"......OOOOOOXXXXXXooooooooooooXXXXXXooooooooooooooooooooooooXXXXXXooooooooooooXXXXXXOOOOOO......",
"......OOOOOOXXXXXXooooooooooooXXXXXXooooooooooooooooooooooooXXXXXXooooooooooooXXXXXXOOOOOO......",
"......OOOOOOXXXXXXooooooooooooXXXXXXooooooooooooooooooooooooXXXXXXooooooooooooXXXXXXOOOOOO......",
"......OOOOOOXXXXXXooooooooooooXXXXXXooooooooooooooooooooooooXXXXXXooooooooooooXXXXXXOOOOOO......",
"......OOOOOOXXXXXXooooooooooooooooooooooooooooooooooooooooooXXXXXXooooooooooooXXXXXXOOOOOO......",
"......OOOOOOXXXXXXooooooooooooooooooooooooooooooooooooooooooXXXXXXooooooooooooXXXXXXOOOOOO......",
"......OOOOOOXXXXXXooooooooooooooooooooooooooooooooooooooooooXXXXXXooooooooooooXXXXXXOOOOOO......",
"......OOOOOOXXXXXXooooooooooooooooooooooooooooooooooooooooooXXXXXXooooooooooooXXXXXXOOOOOO......",
"......OOOOOOXXXXXXooooooooooooooooooooooooooooooooooooooooooXXXXXXooooooooooooXXXXXXOOOOOO......",
"......OOOOOOXXXXXXooooooooooooooooooooooooooooooooooooooooooXXXXXXooooooooooooXXXXXXOOOOOO......",
"......OOOOOOXXXXXXooooooooooooooooooooooooooooooooooooooooooooooooooooooooooooXXXXXXOOOOOO......",
"......OOOOOOXXXXXXooooooooooooooooooooooooooooooooooooooooooooooooooooooooooooXXXXXXOOOOOO......",
"......OOOOOOXXXXXXooooooooooooooooooooooooooooooooooooooooooooooooooooooooooooXXXXXXOOOOOO......",
"......OOOOOOXXXXXXooooooooooooooooooooooooooooooooooooooooooooooooooooooooooooXXXXXXOOOOOO......",
"......OOOOOOXXXXXXooooooooooooooooooooooooooooooooooooooooooooooooooooooooooooXXXXXXOOOOOO......",
"......OOOOOOXXXXXXooooooooooooooooooooooooooooooooooooooooooooooooooooooooooooXXXXXXOOOOOO......",
"......OOOOOOXXXXXXooooooooooooooooooooooooooooooooooooooooooooooooooooooooooooXXXXXXOOOOOO......",
"......OOOOOOXXXXXXooooooooooooooooooooooooooooooooooooooooooooooooooooooooooooXXXXXXOOOOOO......",
"......OOOOOOXXXXXXooooooooooooooooooooooooooooooooooooooooooooooooooooooooooooXXXXXXOOOOOO......",
"......OOOOOOXXXXXXooooooooooooooooooooooooooooooooooooooooooooooooooooooooooooXXXXXXOOOOOO......",
"......OOOOOOXXXXXXooooooooooooooooooooooooooooooooooooooooooooooooooooooooooooXXXXXXOOOOOO......",
"......OOOOOOXXXXXXooooooooooooooooooooooooooooooooooooooooooooooooooooooooooooXXXXXXOOOOOO......",
"......OOOOOOXXXXXXoooooooooooooooooooooooooooooooooooooooooooooooo@@@@@@++++++XXXXXXOOOOOO......",
"......OOOOOOXXXXXXoooooooooooooooooooooooooooooooooooooooooooooooo@@@@@@++++++XXXXXXOOOOOO......",
"......OOOOOOXXXXXXoooooooooooooooooooooooooooooooooooooooooooooooo@@@@@@++++++XXXXXXOOOOOO......",
"......OOOOOOXXXXXXoooooooooooooooooooooooooooooooooooooooooooooooo@@@@@@++++++XXXXXXOOOOOO......",
"......OOOOOOXXXXXXoooooooooooooooooooooooooooooooooooooooooooooooo@@@@@@++++++XXXXXXOOOOOO......",
"......OOOOOOXXXXXXoooooooooooooooooooooooooooooooooooooooooooooooo@@@@@@++++++XXXXXXOOOOOO......",
"......OOOOOOXXXXXXoooooooooooooooooooooooooooooooooooooooooooooooo++++++++++++XXXXXXOOOOOO......",
"......OOOOOOXXXXXXoooooooooooooooooooooooooooooooooooooooooooooooo++++++++++++XXXXXXOOOOOO......",
"......OOOOOOXXXXXXoooooooooooooooooooooooooooooooooooooooooooooooo++++++++++++XXXXXXOOOOOO......",
"......OOOOOOXXXXXXoooooooooooooooooooooooooooooooooooooooooooooooo++++++++++++XXXXXXOOOOOO......",
"......OOOOOOXXXXXXoooooooooooooooooooooooooooooooooooooooooooooooo++++++++++++XXXXXXOOOOOO......",
"......OOOOOOXXXXXXoooooooooooooooooooooooooooooooooooooooooooooooo++++++++++++XXXXXXOOOOOO......",
"......OOOOOOXXXXXXooooooooooooooooooooooooooooooooooooooooooooooooXXXXXXXXXXXXXXXXXXOOOOOO......",
"......OOOOOOXXXXXXooooooooooooooooooooooooooooooooooooooooooooooooXXXXXXXXXXXXXXXXXXOOOOOO......",
"......OOOOOOXXXXXXooooooooooooooooooooooooooooooooooooooooooooooooXXXXXXXXXXXXXXXXXXOOOOOO......",
"......OOOOOOXXXXXXooooooooooooooooooooooooooooooooooooooooooooooooXXXXXXXXXXXXXXXXXXOOOOOO......",
"......OOOOOOXXXXXXooooooooooooooooooooooooooooooooooooooooooooooooXXXXXXXXXXXXXXXXXXOOOOOO......",
"......OOOOOOXXXXXXooooooooooooooooooooooooooooooooooooooooooooooooXXXXXXXXXXXXXXXXXXOOOOOO......",
"......OOOOOOXXXXXXooooooooooooXXXXXXooooooooooooooooooooooooooooooooooooooooooXXXXXXOOOOOO......",
"......OOOOOOXXXXXXooooooooooooXXXXXXooooooooooooooooooooooooooooooooooooooooooXXXXXXOOOOOO......",
"......OOOOOOXXXXXXooooooooooooXXXXXXooooooooooooooooooooooooooooooooooooooooooXXXXXXOOOOOO......",
"......OOOOOOXXXXXXooooooooooooXXXXXXooooooooooooooooooooooooooooooooooooooooooXXXXXXOOOOOO......",
"......OOOOOOXXXXXXooooooooooooXXXXXXooooooooooooooooooooooooooooooooooooooooooXXXXXXOOOOOO......",
"......OOOOOOXXXXXXooooooooooooXXXXXXooooooooooooooooooooooooooooooooooooooooooXXXXXXOOOOOO......",
"......OOOOOOXXXXXXooooooooooooXXXXXXooooooooooooooooooooooooooooooooooooooooooXXXXXXOOOOOO......",
"......OOOOOOXXXXXXooooooooooooXXXXXXooooooooooooooooooooooooooooooooooooooooooXXXXXXOOOOOO......",
"......OOOOOOXXXXXXooooooooooooXXXXXXooooooooooooooooooooooooooooooooooooooooooXXXXXXOOOOOO......",
"......OOOOOOXXXXXXooooooooooooXXXXXXooooooooooooooooooooooooooooooooooooooooooXXXXXXOOOOOO......",
"......OOOOOOXXXXXXooooooooooooXXXXXXooooooooooooooooooooooooooooooooooooooooooXXXXXXOOOOOO......",
"......OOOOOOXXXXXXooooooooooooXXXXXXooooooooooooooooooooooooooooooooooooooooooXXXXXXOOOOOO......",
"......OOOOOOXXXXXXooooooooooooXXXXXXooooooooooooooooooooooooXXXXXXooooooooooooXXXXXXOOOOOO......",
"......OOOOOOXXXXXXooooooooooooXXXXXXooooooooooooooooooooooooXXXXXXooooooooooooXXXXXXOOOOOO......",
"......OOOOOOXXXXXXooooooooooooXXXXXXooooooooooooooooooooooooXXXXXXooooooooooooXXXXXXOOOOOO......",
"......OOOOOOXXXXXXooooooooooooXXXXXXooooooooooooooooooooooooXXXXXXooooooooooooXXXXXXOOOOOO......",
"......OOOOOOXXXXXXooooooooooooXXXXXXooooooooooooooooooooooooXXXXXXooooooooooooXXXXXXOOOOOO......",
"......OOOOOOXXXXXXooooooooooooXXXXXXooooooooooooooooooooooooXXXXXXooooooooooooXXXXXXOOOOOO......",
"......                                                                                    ......",
"......                                                                                    ......",
"......                                                                                    ......",
"......                                                                                    ......",
"......                                                                                    ......",
"......                                                                                    ......",
"      $$$$$$$$$$$$$$$$$$$$$$$$$$$$$$$$$$$$$$$$$$$$$$$$$$$$$$$$$$$$$$$$$$$$$$$$$$$$$$$$$$$$      ",
"      $$$$$$$$$$$$$$$$$$$$$$$$$$$$$$$$$$$$$$$$$$$$$$$$$$$$$$$$$$$$$$$$$$$$$$$$$$$$$$$$$$$$      ",
"      $$$$$$$$$$$$$$$$$$$$$$$$$$$$$$$$$$$$$$$$$$$$$$$$$$$$$$$$$$$$$$$$$$$$$$$$$$$$$$$$$$$$      ",
"      $$$$$$$$$$$$$$$$$$$$$$$$$$$$$$$$$$$$$$$$$$$$$$$$$$$$$$$$$$$$$$$$$$$$$$$$$$$$$$$$$$$$      ",
"      $$$$$$$$$$$$$$$$$$$$$$$$$$$$$$$$$$$$$$$$$$$$$$$$$$$$$$$$$$$$$$$$$$$$$$$$$$$$$$$$$$$$      ",
"      $$$$$$$$$$$$$$$$$$$$$$$$$$$$$$$$$$$$$$$$$$$$$$$$$$$$$$$$$$$$$$$$$$$$$$$$$$$$$$$$$$$$      "
};
