/* XPM */
static char *player_north[] = {
/* columns rows colors chars-per-pixel */
"96 96 63 1 ",
"  c black",
". c #010000",
"X c #000100",
"o c #010101",
"O c #000002",
"+ c #2D221C",
"@ c #2F211E",
"# c #2D221E",
"$ c #3F2818",
"% c #2D2220",
"& c #3F3029",
"* c #412716",
"= c #402617",
"- c #422716",
"; c #412718",
": c #422618",
"> c #41271A",
", c #422819",
"< c #402F27",
"1 c #402F28",
"2 c #422F29",
"3 c #412F2B",
"4 c #4F3524",
"5 c #4E3725",
"6 c #4E3823",
"7 c #413028",
"8 c #413029",
"9 c #42312A",
"0 c #513623",
"q c #503723",
"w c #503625",
"e c #513625",
"r c #513726",
"t c #503627",
"y c #553923",
"u c #563A22",
"i c #563A24",
"p c #563A25",
"a c #573B25",
"s c #583A22",
"d c #583924",
"f c #745237",
"g c #755337",
"h c #765337",
"j c #73533A",
"k c #755338",
"l c #765238",
"z c #75533A",
"x c #735438",
"c c #765439",
"v c #AB7A5C",
"b c #AA7B5D",
"n c #AD7A5D",
"m c #AC7B5D",
"M c #AC7A5F",
"N c #AD7C5E",
"B c #1D438A",
"V c #1E438A",
"C c #1C448A",
"Z c #1E448B",
"A c #1D438C",
"S c #2B66B6",
"D c #2C65B6",
/* pixels */
"kkkkkkkkkkkkkkkkkkkkkkkkkkkkkkkkkkkkkkkkkkkkkkkkkkkkkkkkkkkkkkkkkkkkkkkkwwwwwwkkkkkkkkkkkkkkkkkk",
"kkkkkkkkkkkkkkkkkkkkkkkkkkkkkkkkkkkkkkkkkkkkkkkkkkkkkkkkkkkkkkkkkkkkkkkkwwwwwwkkkkkkkkkkkkkkkkkk",
"kkkkkkkkkkkkkkkkkkkkkkkkkkkkkkkkkkkkkkkkkkkkkkkkkkkkkkkkkkkkkkkkkkkkkkkkwwwwwwkkkkkkkkkkkkkkkkkk",
"kkkkkkkkkkkkkkkkkkkkkkkkkkkkkkkkkkkkkkkkkkkkkkkkkkkkkkkkkkkkkkkkkkkkkkkkwwwwwwkkkkkkkkkkkkkkkkkk",
"kkkkkkkkkkkkkkkkkkkkkkkkkkkkkkkkkkkkkkkkkkkkkkkkkkkkkkkkkkkkkkkkkkkkkkkkwwwwwwkkkkkkkkkkkkkkkkkk",
"kkkkkkkkkkkkkkkkkkkkkkkkkkkkkkkkkkkkkkkkkkkkkkkkkkkkkkkkkkkkkkkkkkkkkkkkwwwwwwkkkkkkkkkkkkkkkkkk",
"kkkkkkkkkkkkkkkkkkkkkkkkkkkkkkkkkkkkkkkkkkkkkkkkkkkkkkkkkkkkkkkkkkkkkkkkwwwwwwkkkkkkkkkkkkkkkkkk",
"kkkkkkkkkkkkkkkkkkkkkkkkkkkkkkkkkkkkkkkkkkkkkkkkkkkkkkkkkkkkkkkkkkkkkkkkwwwwwwkkkkkkkkkkkkkkkkkk",
"kkkkkkkkkkkkkkkkkkkkkkkkkkkkkkkkkkkkkkkkkkkkkkkkkkkkkkkkkkkkkkkkkkkkkkkkwwwwwwkkkkkkkkkkkkkkkkkk",
"kkkkkkkkkkkkkkkkkkkkkkkkkkkkkckkkkkkkkkkkkkkkkkkkkkkkkkkkkkkkkkkkkkkkkkkwwwwwwkkkkkkkkkkkkkkkkkk",
"kkkkkkkkkkkkkkkkkkkkkkkkkkkkkkgkkkkkkkkkO       kkkk                kkkkwwwwwwgkkkkkkkkkkkkkkkkk",
"kkkkkkkkkkkkkkkkkkkkkkkkkkkkkkkkkkkkkkkk        kkkk                ckkkwwwwwwkkkkkkkkkkkkkkkkkk",
"wwwwwwwwwwwwwwwwwwwwwwwwkkkkkkwwwwwwwwww        kkkk                wwwwwwwwwwwwwwwwwwwwwwwwwwww",
"wwwwwwwwwwwwwwwwwwwwwwwwkkkkkktwwwwwwwww        kkkk                wwwqwwwwwwtwwwwwwwwwwwwwwwww",
"wwwwwwwwwwwwwwwwwwwwwwwwkkkkkkww         O  iisi  o ;=;;iiiiiiii    wwwwwwwww4wwwwwwwwwwwwwwwwww",
"wwwwwwwwwwwwwwwwwwwwwwwwkkkkkkww            iiii    ;;;;iiiiiiii    wweewwwwwwwwwwwwwwwwwwwwwwww",
"wwwwwwwwwwwwwwwwwwwwwwwwkkgkkkww            iiii    ;;;;iiiiiiii    wwwwwwwwwwwwwwwwwwwwwwwwwwww",
"wwwwwwwwwwwwwwwwwwwwwwwwkkkkgkww         O  iiii    ;;;;iiiiiiiiO   wwwwwwwwwwwwwwwwwwwwwwwwwwww",
"kkkkkkkkkkkkkkkkkkkkkkkkkkkc    ;;;;iiiiiiiiiiii;;;;iiiiiiii        fkkkkkkkkkkkkkkkkkkkkkkkkkkk",
"kkkkkkkkkkkkkkkkkkkkkkkkkkkc  . ;;;;iiiiiiiiiiii;;;;iiiiiiii    X   kkkfkkkkkkkkkkkkkkkkkkkkkkkk",
"kkkkkkkkkkkkkkkkkkkkkkkkclkk    ;;;;iiiiiiiiiiii;;;;aiiiiiii        kkckkkkkkkkkkkkkkkkkkkkkkkkk",
"kkkkkkkkkkkkkkkkkkkkkkkkkkkk    ;;;;iiiiiiiiiiis,;;;iiiyiiii        kkkkkkkkkkkkkkkkkkkkkkkkkkkk",
"kkkkkkkkkkkkkkkkkkkkkkkkkkkk    iiiiiiiiiiiiiiiiiiiiiiiiiiiiiiii;;;;    kkkkkkkkkkkkkkkkkkkkkkkk",
"kkkkkkkkkkkkkkkkkkkkkkkkkkkk    iiiiiiiiiiiiiiiiiiuiiiiiiiiiiiii:;;;    kkkkkkkkkkkkkkkkkkkkkkkk",
"kkkkkkkkkkkkkkkkkkkkkkkkkkkkX   iiiiiiiiiiiiiiiiiiiiiiiiiiiiiiii;;;;    kkkkkkkkkkkkkkkkkkkkkkkk",
"kkkkkkkkkkkkkkkkkkkkkkkkkkkk    iiiiiiiiiiiiiiiiiiiiiiiiiiiiiiii;;;;    kkkkkkkkkkkkkkkkkkkkkkkk",
"kkkkkkkkkkkkkkkkkkkkkkkk    ;;;;iiiiiiiiiiiiiiiiiiiiiiiiiiiiiiiiiiii;;;;    kkkkkkkkkkkkkkkkkkkk",
"kkkkkkkkkkkkkkkkkkkkkkkk    ;;;;iiiiiiiiiiiiiiiiiiiiiiiiiiiiiiiiiuii;;;;    kkkkkkkkkkkkkkkkkkkk",
"kkkkkkkkkkkkkkkkkkkkkkkk    ;;;;iiiiiiiiiiiiiiiiiiiiiiiiiiiiiiiiiiii;;;;    kkkkkkkkkkkkkkkkkkkk",
"kkkkkkkkkkkkkkkkkkkkkkkkO   ;;$;iiiiiiiiiiiiiiiiiiiiiiiiiiiiiiiiiiii;;;;   .kkkhkkkkkkkkkkkkkkkk",
"kkkkkkkkkkkkkkkkkkkkkkkk    ;;;;iiiiiiiiiiiiiiiiiiiiiiiiiiiiiiiiiiiu;;;;    ckkkkkkkkkkkkkkkkkkk",
"kkkkkkkkkkkkkkkkkkkkkkkk    *;;;iiiiiiiiiiiiiiiiiiiiiiiiiiiiiiiiiiii;;;;    kkkkkkkkkkkkkkkkkkkk",
"kkkkkkkkkkkkkkkkkkkkkkkk    ;;;;iiuiipiiiiiiiiiiiiiiiiiiiiiiiiiiiiui;>;;    kkkkkkkkkkkkkkkkkkkk",
"kkkkkkkkkkkkkkkkkkkkkkkk    ;;;;iiiiiiiiiiiiiiiiiiiiiiiiiiiiiiiiiiii;;;;    kkkkkkkkkkkkkkkkkkkk",
"kkkkkkkkkkkkkkkkkkkkkkkk    ;;;;iiiyiiiyiiiiiiiiiiiiiiiiiiiiiiiiiiiy;;;=    kkkkkkkkkkkkkkkkkkkk",
"kkkkkkkkkkkkkkkkkkkkkkkk    ;;;;iiiiiiiiiiiiiiiiiiiiiiiiiiiiiiiiiiii;;;;    kkkkkkkkkkkkkkkkkkkk",
"kkkkkkkkkkkkkkkkkkkkkkkk    ;;;;iiiiiiiiiiiiiiiiiiiiiiiiiiiiiiiiiiii;;;;    kkkkkkkkkkkkkkkkkkkk",
"kkkkkkkkkkkkkkkkkkkkkkkk    ;;;;diiiiiiiiiiiiiiiiiiiiiiiiiiiiiiiddii:;;;    kkkkkkkkkkkkkkkkkkkk",
"kkkkkkkkkkkkkkkkkkkkkkkk    ;;;;;$;;iiiiiiiiiiiiiiiiiiiiiiiiiiii;;;;;;;;    kkkkkkkkkkkkkkkkkkkk",
"kkkkkkkkkkkkkkkkkkkkkkkk    ;;;;;;;;iiiiiiiiiiiiiiiiiiiiiiiiiiii;;;;;;;;    kkkkkkkkkkkkkkkkkkkk",
"kkkkkkkkkkkkkkkkkkkkkkkk    ;;;;;;;;iiiiiiiiiiiiiiiiiiiiiiiiiiii;;;;;;;=    kkkkkkkkkkkkkzhkkxkk",
"kkkkkkkkkkkkkkkkkkkkkkkkX   ;;;-;;;;iidiiiiiiiiiiiiiiiiiiiiiiiii;;,;;;;;    ckkkkkkkkkkkkkckgkkk",
"wwwwwwwwwwwwwwwwwwwwwwwwwwwr    ;;;;;;;$;;;;iiiiiiiiiiii;;;;;;;;;;;;;;;;   .kkkhkkkkkkkkgk0wwwww",
"wwwwwwwwwwwwwwwwwwwwwwwwwwww    ;;;;;;;;;;;;iiiiiiiiiiii;;;;;;;;;:;;;;;;    kkkkkkkkkkkkkkwwwwww",
"wwwwwwwwwwwwwwwwwwwwwwwwwwww    ;;;;;;;;;;;;iiiiiiiiiiii;;;;;;;;;;;;;;;;    kkkkkkkkkkkkkkw4wwww",
"wwwwwwwwwwwwwwwwwwwwwwwwwwww    ,;;;,;;;;;;;iiiiiiiiiiii;;;;;;;;;;;;;;;;    kkkkkkkkkkkkkkwwwrtw",
"wwwwwwwwwwwwwwwwwwwwwwwwwwww    ;;;;;;;;;;;;;;;;;;;;;;;;;;;;;;;;;;;;    kkkkkkkkkkkkkkkkkkw4w4ww",
"wwwwwwwwwwwwwwwwwwwwwwwwwwww    ;;*;;>;;;;;;;;;;;;;;;;;;;;;;;;;;;;;;    kkkkkkkkkkkkkkkkkkwwwwwt",
"gkkkkkewwwwwkkklkkkkkkkkkkkk    ;;;;;;;;;;;;;;;;;;;;;;;;;;;;;;;;;;;;   .kkkkkkkkkkkkkkkkkkkkkkkk",
"kkckkkwwwwwwkkkkkkkkkkkkkkkc    ;;,;;;;;;;;;;;;;;;;;;;;;;;;;;;;;;;;;    kkkkkkkkkkkkkkkkkkkkkkkk",
"kckkkkwww6wwkkkkkkkkkkkkhkkk.   mmmm;;;;;;;;;;;;;;;;;;;;;;;;;;;;mbmm  . kkkkkkkkkkkkkkkkkkkkkkkk",
"kkkkkkwwwwwwkkkzkkkkkkkkkkkk    mmmm;;;;;;;;;;;;;;;;;;;;;;;;;;;;mmmm    kkkkkkkkkkkkkkkkkkkkkkkk",
"kkkkkfwwwwwwkkkkkkkkkkkkkkkk    mmmm;;;;;;;;;;;;;;;;;;;;;;;;;;;;mmmm    kkkkkkkkkkkkkkkkkkkkkkkk",
"kkkkkzwwwwwwkkkkkkkkkkkkkkkk    mmmm;;;;;;;;;;;;;;;;;;;;;;;;;;;;mmmm    kkkkkkkkkkkkkkkkkkkkkkkk",
"kkckkkkgkkgkkkkkkkkkkkkkkkkkkkkk  . mmmmmmmm>;;;;;;;;;;;mmmmmmmm    kkkkkkkkkkkkkkkkkkkkkkkkkkkk",
"kklkkjkkkkkkkkkkkkkkkkkkkkkkkkkk    mmmmmmmm;;;;;;;;;;;;mmmmmmmm    kkkkkkkkkkkkkkkkkkkkkkkkkkkk",
"kkkkkkkkkkkkkkkkkkkkkkkkkkkkkkkk    mmmmmmmm;;;;;;;;;;;;mmmmmmmm    kkkkkkkkkkkkkkkkkkkkkkkkkkkk",
"kkkkkkkkkkkkkkkkkkkkkkkkkkkkkkkko  XNmmmnmmm;;;;;;;;;;;;mmmmmmmm    kkkkkkkkkkkkkkkkkkkkkkkkkkkk",
"kkkkkkkkkkkkkkkkkkkkkkkkkkkkkkkk    yiiimmmmmmmmmmmmmmmmmmmmiiii    kkkkkkkkkkkkkkkkkkkkkkkkkkkk",
"kkkkkkkkkkkkkkkkkkkkkkkkkkkkkkkk    iiiimmmmmmmmmmmmmmmmmmmmiiii    kkkkkkkkkkkkkkkkkkkkkkkkkkkk",
"kkkkkkkkkkkkkkkkkkkkkkkkkkkkkkkk   Oiipimmmmmmmmmmmmmmmmmmmmiiii    kkkkkkkkkkkkkkkkkkkkkkkkkkkk",
"kkkkkkkkkkkkkkkkkkkkkkkkkkkkkkkk    iiiimmmmmmmmmmmmmmmmmmmmiiii    kkkkkkkkkkkkkkkkkkkkkkkkkkkk",
"kkkkkkkkkkkkkkkkkkkkkkkkkkkkkkkk    iiiiiiipiiiiiiiiiiiiiiiiiiii    kkkkkkkkkkkkkkkkkkkkkkkkkkkk",
"kkkkkkkkkkkkkkkkkkkkkkkkkkkkkkkk    iiiiiiiiiiiiiiiiiiiiiiiiiiii    kkkkkkkkkkkkkkkkkkkkkkkkkkkk",
"kkkkkkkkkkkkkkkkkkkkkkkkkkkkkkkk    iiiiiiiiiiiiiiiiiiiiiiiiiiii    kkkkkkkkkkkkkkkkkkkkkkkkkkkk",
"kkkkkkkkkkkkkkkkkkkkkkkkkkkkkkkk    iiiiiiiiiiiiiiiipiiiiiiyaiii    lkkkkkkkkkkkkkkkkkkkkkkkkkkk",
"kkkkkkkkkkkkkkkkkkkkkkkkkkkk    mmmm;;;;iiiiiiiiiiiiiiiiiiii;;;;mmmm    kkkkkkkkkkkkkkkkkkkkkkkk",
"kkkkkkkkkkkkkkkkkkkkkkkkkkkk    mmmm;;;;iiiiiiiiiiiuiiiiiiii;;;;mMmm  X kkkkkkkkkkkkkkkkkkkkkkkk",
"kkkkkkkkkkkkkkkkkkkkkkkkkkkk    mmmm;;;;iiiiiiiiiiiiyiiiiiii;;;$mmmm    kkkkkkkkkkkkkkkkkkkkkkkk",
"kkkkkkkkkkkkkkkkkkkkkkkkhkkk.   mmmm;;;;iiiiiiiiiiiiiiiiiiii;;;;mmmm    kkkkkkkkkkkkkkkkkkkkkkkk",
"kkkkkkkkkkkkkkkkkkkkkkkkkkkc    mmmmBBBBDDDDDDDDBBBBSDDDDDDDBBBBmMmv    kkkkkkkkkkkkkkkkkkkkkkkk",
"kkkkkkkkkkkkkkkkkkkkkkkkkkkk    mmmmBBBBDDDDDDDDBBBBDDDDDDDDBBBBmmmm   .kkkkkkkkkkkkkkkkkkkkkkkk",
"wwwwwwwwwwwwwwwwwekkkkkgkkkk    mmmmBBZBDDDDDDDDBBBBDDDDDDDDBBBBmmmm    wwwwwwwwwwwwwwwwwwwwwwww",
"wwwwwwwwwwwwwwwwwwkkkkkkkkkk    mmmmBCBBDDDDDDDDVBBBDDDDDDDDBBBBmmmm    w4www0wwwwwwwwwwwwwwwwww",
"wwwwwwwwwwwwwwwwwwkkkfckkkkx8888   O;;;;;;;;;;;;    CBBBBBBBBBBC    ####wwwww4rwwwwwwwwwwwwwwwww",
"wwwwwwwwwwwwwwwwwwkkckkkkkkk8888X   ;;;:;;;;;;;;    BBBBBBBBBBBB    ####wwwwqqw5wwwwwwwwwwwwwwww",
"wwwwwwwwwwwwwwwwwwkkkkkkkkkk8888    ;;;;;;;;;;;;    BBBBBBBBBBBB    ####ewwwwwwwwwwwwwwwwwwwwwww",
"wwwwwwwwwwwwwwwww4zkkkkkkkkg3888    ;;;;;;;;;;;;    BAABBBBBBBBA    ####wewwwwwwwwwwwwwwwwwwwwww",
"kkkkkkkkkkkkkkkkgkkkkkkk788888838888                ;;;;;;;;        8888@%@#wwkkkkkkkkkkkkkkkkkk",
"kkkkkkkkkkkkkkkkkkjkklkk888888888888                ;>;;;;>;O       8888#+%#wwkkkkkkkkkkkkkkkkkk",
"kkkkkkkkkkkkkkkkkkkkkkkk&88888888888                ;;;;;;;;        8888#%##wwkkkkkkkkkkkkkkkkkk",
"kkkkkkkkkkkkkkkkkkkkkkkk888888888888XO              ;;;;;;;;      OX8788####wwkkkkkkkkkkkkkkkkkk",
"kkkkkkkkkkkkkkkkkkkkkkkk888888818888888888888888888888899888888888888888####wwkkkkkkkkkkkkkkkkkk",
"kkkkkkkkkkkkkkkkkkkkkkkk888888888&888888888888888888888888888888888888&8####wwkkkkkkkkkkkkkkkkkk",
"kkkkkkkkkkkkkkkkkkkkkkkk89888888188888888888888888888888888888888888888<8888kkkkkkkkkkkkkkkkkkkk",
"kkkkkkkkkkkkkkkkkkkkkkkk888&888888988888888888888888888888888888838889888888kkkkkkkkkkkkkkkkkkkk",
"kkkkkkkkkkkkkkkkkkkkkkkkkkkl88888888888888888888888888888888888888888888kckkkkkckkkkkkkkkkkkkkkk",
"kkkkkkkkkkkkkkkkkkkkkkkkkkkk88888288888888888888888888888888888888888828kkgkkfkkkkkkkkkkkkkkkkkk",
"kkkkkkkkkkkkkkkkkkkkkkkkkkkk88888888888888888888888888888888888888888888kkkkkkkkkkkkkkkkkkkkkkkk",
"kkkkkkkkkkkkkkkkkkkkkkkkkkkk&8888888888888888888888888888888888888888888kkkkkkkkkkkkkkkkkkkkkkkk",
"kkkkkkkkkkkkkkkkkkkkkkkkkkkklkkkkkkkkkkkkkkkkkkkkkkkkkkkkkkkkkkkkkkkkkkkkkkkkkkkkkkkkkkkkkkkkkkk",
"kkkkkkkkkkkkkkkkkkkkkkkkkkkkkkfkkkkkkkkkkkkkkkkkkkkkkkkkkkkkkkkkkkkkkkkkkkkkkkkkkkkkkkkkkkkkkkkk",
"kkkkkkkkkkkkkkkkkkkkkkkkkkkkkkkkkkkkkkkkkkkkkkkkkkkkkkkkkkkkkkkkkkkkkkkkkkkkkkkkkkkkkkkkkkkkkkkk",
"kkkkkkkkkkkkkkkkkkkkkkkkckkkkkkkkkkkkkkkkkkkkkkkkkkkkkkkkkkkkkkkkkkkkkkkkkkkkkkkkkkkkkkkkkkkkkkk",
"kkkkkkkkkkkkkkkkkkkkkkkkkkkkkkkkkkkkkkkkkkkkkkkkkkkkkkkkkkkkkkkkkkkkkkkkkkkkkkkkkkkkkkkkkkkkkkkk",
"kkkkkkkkkkkkkkkkkkkkkkkkkkkkkkklkkkkkkkkkkkkkkkkkkkkkkkkkkkkkkkkkkkkkkkkkkkkkkkkkkkkkkkkkkkkkkkk"
};
