/* XPM */
static char *sortie[] = {
/* columns rows colors chars-per-pixel */
"96 96 7 1 ",
"  c black",
". c #21110D",
"X c #342319",
"o c #503625",
"O c #755338",
"+ c #677598",
"@ c #755338",
/* pixels */
"++++++....................................................................................++++++",
"++++++....................................................................................++++++",
"++++++....................................................................................++++++",
"++++++....................................................................................++++++",
"++++++....................................................................................++++++",
"++++++....................................................................................++++++",
"......OOOOOOOOOOOOOOOOOOOOOOOOOOOOOOOOOOOOOOOOOOOOOOOOOOOOOOOOOOOOOOOOOOOOOOOOOOOOOOOOOOOO......",
"......OOOOOOOOOOOOOOOOOOOOOOOOOOOOOOOOOOOOOOOOOOOOOOOOOOOOOOOOOOOOOOOOOOOOOOOOOOOOOOOOOOOO......",
"......OOOOOOOOOOOOOOOOOOOOOOOOOOOOOOOOOOOOOOOOOOOOOOOOOOOOOOOOOOOOOOOOOOOOOOOOOOOOOOOOOOOO......",
"......OOOOOOOOOOOOOOOOOOOOOOOOOOOOOOOOOOOOOOOOOOOOOOOOOOOOOOOOOOOOOOOOOOOOOOOOOOOOOOOOOOOO......",
"......OOOOOOOOOOOOOOOOOOOOOOOOOOOOOOOOOOOOOOOOOOOOOOOOOOOOOOOOOOOOOOOOOOOOOOOOOOOOOOOOOOOO......",
"......OOOOOOOOOOOOOOOOOOOOOOOOOOOOOOOOOOOOOOOOOOOOOOOOOOOOOOOOOOOOOOOOOOOOOOOOOOOOOOOOOOOO......",
"......OOOOOOOOOOOOOOOOOOOOOOOOOOOOOOOOOOOOOOOOOOOOOOOOOOOOOOOOOOOOOOOOOOOOOOOOOOOOOOOOOOOO......",
"......OOOOOOOOOOOOOOOOOOOOOOOOOOOOOOOOOOOOOOOOOOOOOOOOOOOOOOOOOOOOOOOOOOOOOOOOOOOOOOOOOOOO......",
"......OOOOOOOOOOOOOOOOOOOOOOOOOOOOOOOOOOOOOOOOOOOOOOOOOOOOOOOOOOOOOOOOOOOOOOOOOOOOOOOOOOOO......",
"......OOOOOOOOOOOOOOOOOOOOOOOOOOOOOOOOOOOOOOOOOOOOOOOOOOOOOOOOOOOOOOOOOOOOOOOOOOOOOOOOOOOO......",
"......OOOOOOOOOOOOOOOOOOOOOOOOOOOOOOOOOOOOOOOOOOOOOOOOOOOOOOOOOOOOOOOOOOOOOOOOOOOOOOOOOOOO......",
"......OOOOOOOOOOOOOOOOOOOOOOOOOOOOOOOOOOOOOOOOOOOOOOOOOOOOOOOOOOOOOOOOOOOOOOOOOOOOOOOOOOOO......",
"......ooooooXXXXXXXXXXXXXXXXXXXXXXXXXXXXXXXXXXXXXXXXXXXXXXXXXXXXXXXXXXXXXXXXXXXXXXXXoooooo......",
"......ooooooXXXXXXXXXXXXXXXXXXXXXXXXXXXXXXXXXXXXXXXXXXXXXXXXXXXXXXXXXXXXXXXXXXXXXXXXoooooo......",
"......ooooooXXXXXXXXXXXXXXXXXXXXXXXXXXXXXXXXXXXXXXXXXXXXXXXXXXXXXXXXXXXXXXXXXXXXXXXXoooooo......",
"......ooooooXXXXXXXXXXXXXXXXXXXXXXXXXXXXXXXXXXXXXXXXXXXXXXXXXXXXXXXXXXXXXXXXXXXXXXXXoooooo......",
"......ooooooXXXXXXXXXXXXXXXXXXXXXXXXXXXXXXXXXXXXXXXXXXXXXXXXXXXXXXXXXXXXXXXXXXXXXXXXoooooo......",
"......ooooooXXXXXXXXXXXXXXXXXXXXXXXXXXXXXXXXXXXXXXXXXXXXXXXXXXXXXXXXXXXXXXXXXXXXXXXXoooooo......",
"......OOOOOOXXXXXXoooooo                                                            OOOOOO......",
"......OOOOOOXXXXXXoooooo                                                            OOOOOO......",
"......OOOOOOXXXXXXoooooo                                                            OOOOOO......",
"......OOOOOOXXXXXXoooooo                                                            OOOOOO......",
"......OOOOOOXXXXXXoooooo                                                            OOOOOO......",
"......OOOOOOXXXXXXoooooo                                                            OOOOOO......",
"......OOOOOOXXXXXXoooooo                                                            OOOOOO......",
"......OOOOOOXXXXXXoooooo                                                            OOOOOO......",
"......OOOOOOXXXXXXoooooo                                                            OOOOOO......",
"......OOOOOOXXXXXXoooooo                                                            OOOOOO......",
"......OOOOOOXXXXXXoooooo                                                            OOOOOO......",
"......OOOOOOXXXXXXoooooo                                                            OOOOOO......",
"......OOOOOOXXXXXXoooooo                                                            OOOOOO......",
"......OOOOOOXXXXXXoooooo                                                            OOOOOO......",
"......OOOOOOXXXXXXoooooo                                                            OOOOOO......",
"......OOOOOOXXXXXXoooooo                                                            OOOOOO......",
"......OOOOOOXXXXXXoooooo                                                            OOOOOO......",
"......OOOOOOXXXXXXoooooo                                                            OOOOOO......",
"......OOOOOOXXXXXXoooooo                                                            OOOOOO......",
"......OOOOOOXXXXXXoooooo                                                            OOOOOO......",
"......OOOOOOXXXXXXoooooo                                                            OOOOOO......",
"......OOOOOOXXXXXXoooooo                                                            OOOOOO......",
"......OOOOOOXXXXXXoooooo                                                            OOOOOO......",
"......OOOOOOXXXXXXoooooo                                                            OOOOOO......",
"......OOOOOOXXXXXXoooooo                                                            OOOOOO......",
"......OOOOOOXXXXXXoooooo                                                            OOOOOO......",
"......OOOOOOXXXXXXoooooo                                                            OOOOOO......",
"......OOOOOOXXXXXXoooooo                                                            OOOOOO......",
"......OOOOOOXXXXXXoooooo                                                            OOOOOO......",
"......OOOOOOXXXXXXoooooo                                                            OOOOOO......",
"......OOOOOOXXXXXXoooooo                                                            OOOOOO......",
"......OOOOOOXXXXXXoooooo                                                            OOOOOO......",
"......OOOOOOXXXXXXoooooo                                                            OOOOOO......",
"......OOOOOOXXXXXXoooooo                                                            OOOOOO......",
"......OOOOOOXXXXXXoooooo                                                            OOOOOO......",
"......OOOOOOXXXXXXoooooo                                                            OOOOOO......",
"......OOOOOOXXXXXXoooooo                                                            OOOOOO......",
"......OOOOOOXXXXXXoooooo                                                            OOOOOO......",
"......OOOOOOXXXXXXoooooo                                                            OOOOOO......",
"......OOOOOOXXXXXXoooooo                                                            OOOOOO......",
"......OOOOOOXXXXXXoooooo                                                            OOOOOO......",
"......OOOOOOXXXXXXoooooo                                                            OOOOOO......",
"......OOOOOOXXXXXXoooooo                                                            OOOOOO......",
"......OOOOOOXXXXXXoooooo                                                            OOOOOO......",
"......OOOOOOXXXXXXoooooo                                                            OOOOOO......",
"......OOOOOOXXXXXXoooooo                                                            OOOOOO......",
"......OOOOOOXXXXXXoooooo                                                            OOOOOO......",
"......OOOOOOXXXXXXoooooo                                                            OOOOOO......",
"......OOOOOOXXXXXXoooooo                                                            OOOOOO......",
"......OOOOOOXXXXXXoooooo                                                            OOOOOO......",
"......OOOOOOXXXXXXoooooo                                                            OOOOOO......",
"......OOOOOOXXXXXXoooooo                                                            OOOOOO......",
"......OOOOOOXXXXXXoooooo                                                            OOOOOO......",
"......OOOOOOXXXXXXoooooo                                                            OOOOOO......",
"......OOOOOOXXXXXXoooooo                                                            OOOOOO......",
"......OOOOOOXXXXXXoooooo                                                            OOOOOO......",
"......OOOOOOXXXXXXoooooo                                                            OOOOOO......",
"......OOOOOOXXXXXXoooooo                                                            OOOOOO......",
"......OOOOOOXXXXXXoooooo                                                            OOOOOO......",
"......OOOOOOXXXXXXoooooo                                                            OOOOOO......",
"......                                                                                    ......",
"......                                                                                    ......",
"......                                                                                    ......",
"......                                                                                    ......",
"......                                                                                    ......",
"......                                                                                    ......",
"      @@@@@@@@@@@@@@@@@@@@@@@@@@@@@@@@@@@@@@@@@@@@@@@@@@@@@@@@@@@@@@@@@@@@@@@@@@@@@@@@@@@@      ",
"      @@@@@@@@@@@@@@@@@@@@@@@@@@@@@@@@@@@@@@@@@@@@@@@@@@@@@@@@@@@@@@@@@@@@@@@@@@@@@@@@@@@@      ",
"      @@@@@@@@@@@@@@@@@@@@@@@@@@@@@@@@@@@@@@@@@@@@@@@@@@@@@@@@@@@@@@@@@@@@@@@@@@@@@@@@@@@@      ",
"      @@@@@@@@@@@@@@@@@@@@@@@@@@@@@@@@@@@@@@@@@@@@@@@@@@@@@@@@@@@@@@@@@@@@@@@@@@@@@@@@@@@@      ",
"      @@@@@@@@@@@@@@@@@@@@@@@@@@@@@@@@@@@@@@@@@@@@@@@@@@@@@@@@@@@@@@@@@@@@@@@@@@@@@@@@@@@@      ",
"      @@@@@@@@@@@@@@@@@@@@@@@@@@@@@@@@@@@@@@@@@@@@@@@@@@@@@@@@@@@@@@@@@@@@@@@@@@@@@@@@@@@@      "
};
