/* XPM */
static char *player_static2[] = {
/* columns rows colors chars-per-pixel */
"96 96 12 1 ",
"  c black",
". c #1B0905",
"X c #040614",
"o c #3E2210",
"O c #56371E",
"+ c #AD7C5D",
"@ c #17418B",
"# c #2865B6",
"$ c #797F98",
"% c #A5A9B6",
"& c #C2AD90",
"* c None",
/* pixels */
"************************************************************************************************",
"************************************************************************************************",
"************************************************************************************************",
"************************************************************************************************",
"************************************************************************************************",
"************************************************************************************************",
"************************************************************************************************",
"************************************************************************************************",
"************************************************************************************************",
"************************************************************************************************",
"************************************************************************************************",
"************************************************************************************************",
"************************************************************************************************",
"************************************************************************************************",
"************************************************************************************************",
"************************************************************************************************",
"************************************************************************************************",
"************************************************************************************************",
"************************************************************************************************",
"************************************************************************************************",
"************************************************************************************************",
"************************************************************************************************",
"************************************************************************************************",
"************************************************************************************************",
"************************************************************************************************",
"************************************************************************************************",
"************************************************************************************************",
"************************************************************************************************",
"************************************************************************************************",
"************************************************************************************************",
"************************************************************************************************",
"************************************************************************************************",
"************************************************************************************************",
"************************************************************************************************",
"************************************************************************************************",
"************************************************************************************************",
"************************************************************************************************",
"************************************************************************************************",
"************************************************************************************************",
"************************************************************************************************",
"************************************************************************************************",
"************************************************************************************************",
"************************************************************************************************",
"************************************************************************************************",
"****************************************        **    ******************************************",
"****************************************        **    ******************************************",
"****************************************  OOOOoo  OO      **************************************",
"****************************************  OOOOoo  OO      **************************************",
"****************************************    OOOOooOOOOOOoo  ************************************",
"****************************************    OOOOooOOOOOOoo  ************************************",
"**************************************  ooOOOOOOOOOOOOOOOO  ************************************",
"**************************************  ooOOOOOOOOOOOOOOOO  ************************************",
"************************************  ooOOOOOOOOooOOOOOOOOoo  **********************************",
"************************************  ooOOOOOOOOooOOOOOOOOoo  **********************************",
"************************************  OOOOOOooooooooOOOOOOOO  **********************************",
"************************************  OOOOOOooooooooOOOOOOOO  **********************************",
"************************************  OOOOOOoo++++++++ooOOOO  **********************************",
"************************************  OOOOOOoo++++++++ooOOOO  **********************************",
"************************************  OOOOoo++++++++++++ooOO  **********************************",
"************************************  OOOOoo++++++++++++ooOO  **********************************",
"************************************  ooOO++..&&&&&&..++oo  ************************************",
"************************************  ooOO++..&&&&&&..++oo  ************************************",
"**************************************  OO&&..&&&&&&..&&&&  ************************************",
"**************************************  OO&&..&&&&&&..&&&&  ************************************",
"**************************************  ++&&&&&&&&&&&&&&++  ************************************",
"**************************************  ++&&&&&&&&&&&&&&++  ************************************",
"****************************************  ++&&&&&&&&&&++  **************************************",
"****************************************  ++&&&&&&&&&&++  **************************************",
"****************************************  oo++++++++++oo  **************************************",
"****************************************  oo++++++++++oo  **************************************",
"****************************************  ooOO$$$$$$OOoo  **************************************",
"****************************************  ooOO$$$$$$OOoo  **************************************",
"**************************************  &&&&OO$$%%%%OO&&&&  ************************************",
"**************************************  &&&&OO$$%%%%OO&&&&  ************************************",
"**************************************  &&&&OO######OO&&&&  ************************************",
"**************************************  &&&&OO######OO&&&&  ************************************",
"****************************************  ######@@######  **************************************",
"****************************************  ######@@######  **************************************",
"**************************************XX  ####@@  @@####  XX************************************",
"**************************************XX  ####@@  @@####  XX************************************",
"************************************XXXX  ooOO  XX  OOoo  XXXX**********************************",
"************************************XXXX  ooOO  XX  OOoo  XXXX**********************************",
"************************************XXXXXXXXXXXXXXXXXXXXXXXXXX**********************************",
"************************************XXXXXXXXXXXXXXXXXXXXXXXXXX**********************************",
"**************************************XXXXXXXXXXXXXXXXXXXXXX************************************",
"**************************************XXXXXXXXXXXXXXXXXXXXXX************************************",
"************************************************************************************************",
"************************************************************************************************",
"************************************************************************************************",
"************************************************************************************************",
"************************************************************************************************",
"************************************************************************************************",
"************************************************************************************************",
"************************************************************************************************",
"************************************************************************************************",
"************************************************************************************************"
};
