/* XPM */
static char *wooden_floor[] = {
/* columns rows colors chars-per-pixel */
"96 96 2 1 ",
"  c #503625",
". c #755338",
/* pixels */
"........................................................................      ..................",
"........................................................................      ..................",
"........................................................................      ..................",
"........................................................................      ..................",
"........................................................................      ..................",
"........................................................................      ..................",
"........................................................................      ..................",
"........................................................................      ..................",
"........................................................................      ..................",
"........................................................................      ..................",
"........................................................................      ..................",
"........................................................................      ..................",
"                        ......            ........................                              ",
"                        ......            ........................                              ",
"                        ......            ........................                              ",
"                        ......            ........................                              ",
"                        ......            ........................                              ",
"                        ......            ........................                              ",
"................................................................................................",
"................................................................................................",
"................................................................................................",
"................................................................................................",
"................................................................................................",
"................................................................................................",
"................................................................................................",
"................................................................................................",
"................................................................................................",
"................................................................................................",
"................................................................................................",
"................................................................................................",
"................................................................................................",
"................................................................................................",
"................................................................................................",
"................................................................................................",
"................................................................................................",
"................................................................................................",
"..............................      ............................................................",
"..............................      ............................................................",
"..............................      ............................................................",
"..............................      ............................................................",
"..............................      ............................................................",
"..............................      ............................................................",
"                                                ......            ........................      ",
"                                                ......            ........................      ",
"                                                ......            ........................      ",
"                                                ......            ........................      ",
"                                                ......            ........................      ",
"                                                ......            ........................      ",
"......      ....................................................................................",
"......      ....................................................................................",
"......      ....................................................................................",
"......      ....................................................................................",
"......      ....................................................................................",
"......      ....................................................................................",
"................................................................................................",
"................................................................................................",
"................................................................................................",
"................................................................................................",
"................................................................................................",
"................................................................................................",
"................................................................................................",
"................................................................................................",
"................................................................................................",
"................................................................................................",
"................................................................................................",
"................................................................................................",
"................................................................................................",
"................................................................................................",
"................................................................................................",
"................................................................................................",
"................................................................................................",
"................................................................................................",
"                  ..................                                                            ",
"                  ..................                                                            ",
"                  ..................                                                            ",
"                  ..................                                                            ",
"                  ..................                                                            ",
"                  ..................                                                            ",
"........................................................................      ..................",
"........................................................................      ..................",
"........................................................................      ..................",
"........................................................................      ..................",
"........................................................................      ..................",
"........................................................................      ..................",
"................................................................................................",
"................................................................................................",
"................................................................................................",
"................................................................................................",
"................................................................................................",
"................................................................................................",
"................................................................................................",
"................................................................................................",
"................................................................................................",
"................................................................................................",
"................................................................................................",
"................................................................................................"
};
