/* XPM */
static char *PIE3[] = {
/* columns rows colors chars-per-pixel */
"72 96 141 2 ",
"   c black",
".  c #010101",
"X  c #010203",
"o  c #070503",
"O  c #030406",
"+  c #080503",
"@  c #0A0704",
"#  c #0C0704",
"$  c #0D0805",
"%  c #0D0905",
"&  c #05060B",
"*  c #06070C",
"=  c #06070D",
"-  c #07090F",
";  c #110C07",
":  c #140C07",
">  c #140A08",
",  c #170E08",
"<  c #1A1009",
"1  c #1B110A",
"2  c #1F150D",
"3  c #0C0E19",
"4  c #1B1313",
"5  c #21110D",
"6  c #20150D",
"7  c #21160D",
"8  c #23170E",
"9  c #26170E",
"0  c #25190F",
"q  c #221815",
"w  c #2A1C11",
"e  c #2F1E12",
"r  c #2A1C18",
"t  c #311E11",
"y  c #331F12",
"u  c #2D201B",
"i  c #322114",
"p  c #342315",
"a  c #3B2415",
"s  c #34251D",
"d  c #37271F",
"f  c #3F2A1F",
"g  c #402717",
"h  c #402818",
"j  c #422918",
"k  c #442A19",
"l  c #452B19",
"z  c #462C1A",
"x  c #472D1B",
"c  c #462E1C",
"v  c #442D1E",
"b  c #492F1C",
"n  c #4C311D",
"m  c #4E321E",
"M  c #50341F",
"N  c #4F3320",
"B  c #4F3321",
"V  c #4A3528",
"C  c #503520",
"Z  c #513520",
"A  c #523621",
"S  c #533721",
"D  c #513422",
"F  c #543822",
"G  c #553822",
"H  c #573A23",
"J  c #563825",
"K  c #593B2D",
"L  c #563E30",
"P  c #5F402B",
"I  c #5A4031",
"U  c #5F4B3D",
"Y  c #64442C",
"T  c #68472F",
"R  c #694735",
"E  c #6B4933",
"W  c #674A38",
"Q  c #77523A",
"!  c #79543A",
"~  c #112853",
"^  c #222D4A",
"/  c #2B385C",
"(  c #173462",
")  c #17366E",
"_  c #1A3D6D",
"`  c #263E68",
"'  c #3F4E6B",
"]  c #344C76",
"[  c #364F78",
"{  c #3B527A",
"}  c #3D547B",
"|  c #4E4340",
" . c #464B5D",
".. c #614F41",
"X. c #615749",
"o. c #655A4B",
"O. c #755B44",
"+. c #745C47",
"@. c #645551",
"#. c #716150",
"$. c #746756",
"%. c #815941",
"&. c #855D44",
"*. c #865E44",
"=. c #8A6146",
"-. c #8A624A",
";. c #966A4F",
":. c #866E57",
">. c #9B6E51",
",. c #8D775F",
"<. c #9F7155",
"1. c #9E755A",
"2. c #AC7B5D",
"3. c #947864",
"4. c #9A8A72",
"5. c #A5866B",
"6. c #B08567",
"7. c #A18D75",
"8. c #B48F71",
"9. c #A59076",
"0. c #A79177",
"q. c #B9987B",
"w. c #1D438A",
"e. c #2657A4",
"r. c #295EAC",
"t. c #2B62B2",
"y. c #2C65B5",
"u. c #787E97",
"i. c #9F9488",
"p. c #A0978E",
"a. c #A49A92",
"s. c #BDA285",
"d. c #BEA689",
"f. c #8D92A5",
"g. c #9297A9",
"h. c #9BA0AF",
"j. c #A2A6B4",
"k. c #A4A8B5",
"l. c #C0AA8D",
"z. c #C1AC8F",
"x. c None",
/* pixels */
"x.x.x.x.x.x.x.x.x.x.                                      x.x.x.x.x.                  x.x.x.x.x.x.x.x.x.x.x.x.x.x.x.x.x.x.x.x.x.x.x.x.x.x.x.x.x.",
"x.x.x.x.x.x.x.x.x.x.                                      x.x.x.x.x.                  x.x.x.x.x.x.x.x.x.x.x.x.x.x.x.x.x.x.x.x.x.x.x.x.x.x.x.x.x.",
"x.x.x.x.x.x.x.x.x.x.                                      x.x.x.x.x.                  x.x.x.x.x.x.x.x.x.x.x.x.x.x.x.x.x.x.x.x.x.x.x.x.x.x.x.x.x.",
"x.x.x.x.x.x.x.x.x.x.                                      x.x.x.x.x.                  x.x.x.x.x.x.x.x.x.x.x.x.x.x.x.x.x.x.x.x.x.x.x.x.x.x.x.x.x.",
"x.x.x.x.x.x.x.x.x.x.        @ ; ; ; ; ; ; ; ; ; $ $ $ $ # x.x.x.x.% ; ; ; ; o         x.x.x.x.x.x.x.x.x.x.x.x.x.x.x.x.x.x.x.x.x.x.x.x.x.x.x.x.x.",
"x.x.x.x.x.x.x.x.x.x.        p H H H H H H H H H g g g g y         8 H H H H 8                             x.x.x.x.x.x.x.x.x.x.x.x.x.x.x.x.x.x.x.",
"x.x.x.x.x.x.x.x.x.x.        p H H H H H H H H H g g g g y         8 H H H H 8                             x.x.x.x.x.x.x.x.x.x.x.x.x.x.x.x.x.x.x.",
"x.x.x.x.x.x.x.x.x.x.        p H H H H H H H H H g g g g y         8 H H H H 8                             x.x.x.x.x.x.x.x.x.x.x.x.x.x.x.x.x.x.x.",
"x.x.x.x.x.x.x.x.x.x.        p H H H H H H H H H g g g g y         8 H H H H 8                             x.x.x.x.x.x.x.x.x.x.x.x.x.x.x.x.x.x.x.",
"x.x.x.x.x.x.x.x.x.x.        2 p p p p C H H H H b b b b h < < < < i H H H H i < < < < 7 8 8 8 8 8 8 8 8 6 x.x.x.x.x.x.x.x.x.x.x.x.x.x.x.x.x.x.x.",
"x.x.x.x.x.x.x.x.x.x.                  c H H H H H H H H A g g g g b H H H H b g g g g A H H H H H H H H c           x.x.x.x.x.x.x.x.x.x.x.x.x.x.",
"x.x.x.x.x.x.x.x.x.x.                  c H H H H H H H H A g g g g b H H H H b g g g g A H H H H H H H H c           x.x.x.x.x.x.x.x.x.x.x.x.x.x.",
"x.x.x.x.x.x.x.x.x.x.                  c H H H H H H H H A g g g g b H H H H b g g g g A H H H H H H H H c           x.x.x.x.x.x.x.x.x.x.x.x.x.x.",
"x.x.x.x.x.x.x.x.x.x.                  c H H H H H H H H A g g g g b H H H H b g g g g A H H H H H H H H c           x.x.x.x.x.x.x.x.x.x.x.x.x.x.",
"x.x.x.x.x.        : 9 9 9 9 e p p p p C H H H H H H H H G m m m m Z H H H H Z m m m m G H H H H H H H H C p p p p 0         x.x.x.x.x.x.x.x.x.x.",
"x.x.x.x.x.        < g g g g m H H H H H H H H H H H H H H H H H H H H H H H H H H H H H H H H H H H H H H H H H H p         x.x.x.x.x.x.x.x.x.x.",
"x.x.x.x.x.        < g g g g m H H H H H H H H H H H H H H H H H H H H H H H H H H H H H H H H H H H H H H H H H H p         x.x.x.x.x.x.x.x.x.x.",
"x.x.x.x.x.        < g g g g m H H H H H H H H H H H H H H H H H H H H H H H H H H H H H H H H H H H H H H H H H H p         x.x.x.x.x.x.x.x.x.x.",
"x.x.x.x.x.        < g g g g m H H H H H H H H H H H H H H H H H H H H H H H H H H H H H H H H H H H H H H H H H H p         x.x.x.x.x.x.x.x.x.x.",
"        # y y y y h A A A A G H H H H H H H H H H H H H H H H H H H H H H H H H H H H H H H H H H H H H H H H H H C c c c c 6         x.x.x.x.x.",
"        $ g g g g b H H H H H H H H H H H H H H H H H H H H H H H H H H H H H H H H H H H H H H H H H H H H H H H H H H H H 8         x.x.x.x.x.",
"        $ g g g g b H H H H H H H H H H H H H H H H H H H H H H H H H H H H H H H H H H H H H H H H H H H H H H H H H H H H 8         x.x.x.x.x.",
"        $ g g g g b H H H H H H H H H H H H H H H H H H H H H H H H H H H H H H H H H H H H H H H H H H H H H H H H H H H H 8         x.x.x.x.x.",
"        $ g g g g b H H H H H H H H H H H H H H H H H H H H H H H H H H H H H H H H H H H H H H H H H H H H H H H H H H H H 8         x.x.x.x.x.",
"        $ g g g g b H H H H H H H H H l g g g g H H H H H H H H H H H H H H b g g g g g g g g g H H H H H H H H H H H H H H 8         x.x.x.x.x.",
"        $ g g g g b H H H H H H H H H l g g g g H H H H H H H H H H H H H H b g g g g g g g g g H H H H H H H H H H H H H H 8         x.x.x.x.x.",
"        $ g g g g b H H H H H H H H H l g g g g H H H H H H H H H H H H H H b g g g g g g g g g H H H H H H H H H H H H H H 8         x.x.x.x.x.",
"        $ g g g g b H H H H H H H H H l g g g g H H H H H H H H H H H H H H b g g g g g g g g g H H H H H H H H H H H H H H 8         x.x.x.x.x.",
"        $ g g g g x A A A A A A A A A k g g g g H H H H H H H H H H H H H H b g g g g D J J J J T T T T Y A A A A F H H H H w $ $ $ $ x.x.x.x.x.",
"        $ g g g g g g g g g g g g g g g g g g g H H H H H H H H H H H H H H b g g g g ;.2.2.2.2.2.2.2.2.;.g g g g b H H H H b g g g g $         ",
"        $ g g g g g g g g g g g g g g g g g g g H H H H H H H H H H H H H H b g g g g ;.2.2.2.2.2.2.2.2.;.g g g g b H H H H b g g g g $         ",
"        $ g g g g g g g g g g g g g g g g g g g H H H H H H H H H H H H H H b g g g g ;.2.2.2.2.2.2.2.2.;.g g g g b H H H H b g g g g $         ",
"        $ g g g g g g g g g g g g g g g g g g g H H H H H H H H H H H H H H b g g g g ;.2.2.2.2.2.2.2.2.;.g g g g b H H H H b g g g g $         ",
"        $ g g g g k b b b b k g g g g g g g g g H H H H H H H H H S m m m m P E E E E <.2.2.2.2.2.2.2.2.<.E E E E P m m m m z g g g g $         ",
"        $ g g g g b H H H H b g g g g g g g g g H H H H H H H H H m g g g g %.2.2.2.2.2.2.2.2.2.2.2.2.2.2.2.2.2.2.%.g g g g g g g g g $         ",
"        $ g g g g b H H H H b g g g g g g g g g H H H H H H H H H m g g g g %.2.2.2.2.2.2.2.2.2.2.2.2.2.2.2.2.2.2.%.g g g g g g g g g $         ",
"        $ g g g g b H H H H b g g g g g g g g g H H H H H H H H H m g g g g %.2.2.2.2.2.2.2.2.2.2.2.2.2.2.2.2.2.2.%.g g g g g g g g g $         ",
"        $ g g g g b H H H H b g g g g g g g g g H H H H H H H H H m g g g g %.2.2.2.2.2.2.2.2.2.2.2.2.2.2.2.2.2.2.%.g g g g g g g g g $         ",
"        $ g g g g b H H H H Z m m m m Q %.%.%.%.b b b b n H H H H T %.%.%.%.R K K K K 5.q.q.q.q.q.q.q.q.5.K K K K f < < < < t g g g g $         ",
"        $ g g g g b H H H H H H H H H >.2.2.2.2.g g g g l H H H H ! 2.2.2.2.K 5 5 5 5 7.z.z.z.z.z.z.z.z.7.5 5 5 5 >         9 g g g g $         ",
"        $ g g g g b H H H H H H H H H >.2.2.2.2.g g g g l H H H H ! 2.2.2.2.K 5 5 5 5 7.z.z.z.z.z.z.z.z.7.5 5 5 5 >         9 g g g g $         ",
"        $ g g g g b H H H H H H H H H >.2.2.2.2.g g g g l H H H H ! 2.2.2.2.K 5 5 5 5 7.z.z.z.z.z.z.z.z.7.5 5 5 5 >         9 g g g g $         ",
"        $ g g g g b H H H H H H H H H >.2.2.2.2.g g g g l H H H H ! 2.2.2.2.K 5 5 5 5 7.z.z.z.z.z.z.z.z.7.5 5 5 5 >         9 g g g g $         ",
"        $ g g g g j l l l l M H H H H >.2.2.2.2.;.;.;.;.*.l l l l O.s.s.s.s.U 5 5 5 5 7.z.z.z.z.z.z.z.z.7.5 5 5 5 >         + $ $ $ $ x.x.x.x.x.",
"        $ g g g g g g g g g m H H H H >.2.2.2.2.2.2.2.2.;.g g g g +.z.z.z.z...5 5 5 5 7.z.z.z.z.z.z.z.z.7.5 5 5 5 >                   x.x.x.x.x.",
"        $ g g g g g g g g g m H H H H >.2.2.2.2.2.2.2.2.;.g g g g +.z.z.z.z...5 5 5 5 7.z.z.z.z.z.z.z.z.7.5 5 5 5 >                   x.x.x.x.x.",
"        $ g g g g g g g g g m H H H H >.2.2.2.2.2.2.2.2.;.g g g g +.z.z.z.z...5 5 5 5 7.z.z.z.z.z.z.z.z.7.5 5 5 5 >                   x.x.x.x.x.",
"        $ g g g g g g g g g m H H H H >.2.2.2.2.2.2.2.2.;.g g g g +.z.z.z.z...5 5 5 5 7.z.z.z.z.z.z.z.z.7.5 5 5 5 >                   x.x.x.x.x.",
"x.x.x.x.x.        < g g g g g g g g g ;.2.2.2.2.2.2.2.2.6.z.z.z.z.z.z.z.z.z.z.z.z.z.z.z.z.z.z.z.z.z.z.z.z.z.z.z.z.$.        x.x.x.x.x.x.x.x.x.x.",
"x.x.x.x.x.        < g g g g g g g g g ;.2.2.2.2.2.2.2.2.6.z.z.z.z.z.z.z.z.z.z.z.z.z.z.z.z.z.z.z.z.z.z.z.z.z.z.z.z.$.        x.x.x.x.x.x.x.x.x.x.",
"x.x.x.x.x.        < g g g g g g g g g ;.2.2.2.2.2.2.2.2.6.z.z.z.z.z.z.z.z.z.z.z.z.z.z.z.z.z.z.z.z.z.z.z.z.z.z.z.z.$.        x.x.x.x.x.x.x.x.x.x.",
"x.x.x.x.x.        < g g g g g g g g g ;.2.2.2.2.2.2.2.2.6.z.z.z.z.z.z.z.z.z.z.z.z.z.z.z.z.z.z.z.z.z.z.z.z.z.z.z.z.$.        x.x.x.x.x.x.x.x.x.x.",
"x.x.x.x.x.        , y y y y a g g g g &.;.;.;.;.;.;.;.;.1.s.s.s.s.d.z.z.z.z.z.z.z.z.z.z.z.z.z.z.z.z.z.z.l.s.s.s.s.#.        x.x.x.x.x.x.x.x.x.x.",
"x.x.x.x.x.x.x.x.x.x.        9 g g g g g g g g g g g g g J 2.2.2.2.8.z.z.z.z.z.z.z.z.z.z.z.z.z.z.z.z.z.z.s.2.2.2.2.W         x.x.x.x.x.x.x.x.x.x.",
"x.x.x.x.x.x.x.x.x.x.        9 g g g g g g g g g g g g g J 2.2.2.2.8.z.z.z.z.z.z.z.z.z.z.z.z.z.z.z.z.z.z.s.2.2.2.2.W         x.x.x.x.x.x.x.x.x.x.",
"x.x.x.x.x.x.x.x.x.x.        9 g g g g g g g g g g g g g J 2.2.2.2.8.z.z.z.z.z.z.z.z.z.z.z.z.z.z.z.z.z.z.s.2.2.2.2.W         x.x.x.x.x.x.x.x.x.x.",
"x.x.x.x.x.x.x.x.x.x.        9 g g g g g g g g g g g g g J 2.2.2.2.8.z.z.z.z.z.z.z.z.z.z.z.z.z.z.z.z.z.z.s.2.2.2.2.W         x.x.x.x.x.x.x.x.x.x.",
"x.x.x.x.x.x.x.x.x.x.        1 9 9 9 9 a g g g g g g g g N =.=.=.=.3.a.a.a.a.a.a.a.a.a.a.a.a.a.a.,.,.,.,.:.W W W W V         x.x.x.x.x.x.x.x.x.x.",
"x.x.x.x.x.x.x.x.x.x.x.x.x.x.          y g g g g g g g g l H H H H @.u.u.u.u.u.u.u.u.u.u.u.u.u.u.g g g g y           x.x.x.x.x.x.x.x.x.x.x.x.x.x.",
"x.x.x.x.x.x.x.x.x.x.x.x.x.x.          y g g g g g g g g l H H H H @.u.u.u.u.u.u.u.u.u.u.u.u.u.u.g g g g y           x.x.x.x.x.x.x.x.x.x.x.x.x.x.",
"x.x.x.x.x.x.x.x.x.x.x.x.x.x.          y g g g g g g g g l H H H H @.u.u.u.u.u.u.u.u.u.u.u.u.u.u.g g g g y           x.x.x.x.x.x.x.x.x.x.x.x.x.x.",
"x.x.x.x.x.x.x.x.x.x.x.x.x.x.          y g g g g g g g g l H H H H @.u.u.u.u.u.u.u.u.u.u.u.u.u.u.g g g g y           x.x.x.x.x.x.x.x.x.x.x.x.x.x.",
"x.x.x.x.x.x.x.x.x.x.x.x.x.x.          y g g g g m m m m M H H H H @.u.u.u.u.u.u.u.u.u.f.g.g.g.g.g g g g y           x.x.x.x.x.x.x.x.x.x.x.x.x.x.",
"x.x.x.x.x.x.x.x.x.x.x.x.x.x.          y g g g g H H H H H H H H H @.u.u.u.u.u.u.u.u.u.h.k.k.k.k.g g g g y           x.x.x.x.x.x.x.x.x.x.x.x.x.x.",
"x.x.x.x.x.x.x.x.x.x.x.x.x.x.          y g g g g H H H H H H H H H @.u.u.u.u.u.u.u.u.u.h.k.k.k.k.g g g g y           x.x.x.x.x.x.x.x.x.x.x.x.x.x.",
"x.x.x.x.x.x.x.x.x.x.x.x.x.x.          y g g g g H H H H H H H H H @.u.u.u.u.u.u.u.u.u.h.k.k.k.k.g g g g y           x.x.x.x.x.x.x.x.x.x.x.x.x.x.",
"x.x.x.x.x.x.x.x.x.x.x.x.x.x.          y g g g g H H H H H H H H H @.u.u.u.u.u.u.u.u.u.h.k.k.k.k.g g g g y           x.x.x.x.x.x.x.x.x.x.x.x.x.x.",
"x.x.x.x.x.x.x.x.x.x.        o.4.4.4.4.9.0.0.0.0.H H H H H H H H H @.u.u.u.u.f.h.h.h.h.j.k.k.k.k.g g g g B -.-.-.-.I         x.x.x.x.x.x.x.x.x.x.",
"x.x.x.x.x.x.x.x.x.x.        $.z.z.z.z.z.z.z.z.z.H H H H H H H H H @.u.u.u.u.g.k.k.k.k.k.k.k.k.k.g g g g J 2.2.2.2.W         x.x.x.x.x.x.x.x.x.x.",
"x.x.x.x.x.x.x.x.x.x.        $.z.z.z.z.z.z.z.z.z.H H H H H H H H H @.u.u.u.u.g.k.k.k.k.k.k.k.k.k.g g g g J 2.2.2.2.W         x.x.x.x.x.x.x.x.x.x.",
"x.x.x.x.x.x.x.x.x.x.        $.z.z.z.z.z.z.z.z.z.H H H H H H H H H @.u.u.u.u.g.k.k.k.k.k.k.k.k.k.g g g g J 2.2.2.2.W         x.x.x.x.x.x.x.x.x.x.",
"x.x.x.x.x.x.x.x.x.x.        $.z.z.z.z.z.z.z.z.z.H H H H H H H H H @.u.u.u.u.g.k.k.k.k.k.k.k.k.k.g g g g J 2.2.2.2.W         x.x.x.x.x.x.x.x.x.x.",
"x.x.x.x.x.x.x.x.x.x.        $.z.z.z.z.z.z.z.z.z.H H H H H H H H H  .y.y.y.y.y.y.y.y.y.y.y.y.y.y.g g g g J 2.2.2.2.W         x.x.x.x.x.x.x.x.x.x.",
"x.x.x.x.x.x.x.x.x.x.        $.z.z.z.z.z.z.z.z.z.H H H H H H H H H  .y.y.y.y.y.y.y.y.y.y.y.y.y.y.g g g g J 2.2.2.2.W         x.x.x.x.x.x.x.x.x.x.",
"x.x.x.x.x.x.x.x.x.x.        $.z.z.z.z.z.z.z.z.z.H H H H H H H H H  .y.y.y.y.y.y.y.y.y.y.y.y.y.y.g g g g J 2.2.2.2.W         x.x.x.x.x.x.x.x.x.x.",
"x.x.x.x.x.x.x.x.x.x.        $.z.z.z.z.z.z.z.z.z.H H H H H H H H H  .y.y.y.y.y.y.y.y.y.y.y.y.y.y.g g g g J 2.2.2.2.W         x.x.x.x.x.x.x.x.x.x.",
"x.x.x.x.x.x.x.x.x.x.X X X X X.4.4.4.4.i.p.p.p.p.| | | | | | | | | ' r.r.r.r.t.y.y.y.y.y.y.y.y.y.y y y y v -.-.-.-.L X X X X x.x.x.x.x.x.x.x.x.x.",
"x.x.x.x.x.x.x.x.x.x.3 3 3 3 O         ) w.w.w.w.y.y.y.y.y.y.y.y.y.e.w.w.w.w.e.y.y.y.y.y.y.y.y.y.                  O 3 3 3 3 x.x.x.x.x.x.x.x.x.x.",
"x.x.x.x.x.x.x.x.x.x.3 3 3 3 O         ) w.w.w.w.y.y.y.y.y.y.y.y.y.e.w.w.w.w.e.y.y.y.y.y.y.y.y.y.                  O 3 3 3 3 x.x.x.x.x.x.x.x.x.x.",
"x.x.x.x.x.x.x.x.x.x.3 3 3 3 O         ) w.w.w.w.y.y.y.y.y.y.y.y.y.e.w.w.w.w.e.y.y.y.y.y.y.y.y.y.                  O 3 3 3 3 x.x.x.x.x.x.x.x.x.x.",
"x.x.x.x.x.x.x.x.x.x.3 3 3 3 O         ) w.w.w.w.y.y.y.y.y.y.y.y.y.e.w.w.w.w.e.y.y.y.y.y.y.y.y.y.                  O 3 3 3 3 x.x.x.x.x.x.x.x.x.x.",
"x.x.x.x.x.x.x.x.x.x.3 3 3 3 O         ^ / / / / } } } } [ _ _ _ _ ( ~ ~ ~ ~ ` ] ] ] ] { } } } }         . O O O O * 3 3 3 3 x.x.x.x.x.x.x.x.x.x.",
"x.x.x.x.x.3 3 3 3 3 3 3 3 3 O         y g g g g H H H H c                   9 g g g g A H H H H         X 3 3 3 3 3 3 3 3 3 3 3 3 3 3 x.x.x.x.x.",
"x.x.x.x.x.3 3 3 3 3 3 3 3 3 O         y g g g g H H H H c                   9 g g g g A H H H H         X 3 3 3 3 3 3 3 3 3 3 3 3 3 3 x.x.x.x.x.",
"x.x.x.x.x.3 3 3 3 3 3 3 3 3 O         y g g g g H H H H c                   9 g g g g A H H H H         X 3 3 3 3 3 3 3 3 3 3 3 3 3 3 x.x.x.x.x.",
"x.x.x.x.x.3 3 3 3 3 3 3 3 3 O         y g g g g H H H H c                   9 g g g g A H H H H         X 3 3 3 3 3 3 3 3 3 3 3 3 3 3 x.x.x.x.x.",
"x.x.x.x.x.3 3 3 3 3 3 3 3 3 - & & & & q r r r r d d d d u & & & & & & & & & 4 r r r r s d d d d & & & & = 3 3 3 3 3 3 3 3 3 3 3 3 3 3 x.x.x.x.x.",
"x.x.x.x.x.3 3 3 3 3 3 3 3 3 3 3 3 3 3 3 3 3 3 3 3 3 3 3 3 3 3 3 3 3 3 3 3 3 3 3 3 3 3 3 3 3 3 3 3 3 3 3 3 3 3 3 3 3 3 3 3 3 3 3 3 3 3 x.x.x.x.x.",
"x.x.x.x.x.3 3 3 3 3 3 3 3 3 3 3 3 3 3 3 3 3 3 3 3 3 3 3 3 3 3 3 3 3 3 3 3 3 3 3 3 3 3 3 3 3 3 3 3 3 3 3 3 3 3 3 3 3 3 3 3 3 3 3 3 3 3 x.x.x.x.x.",
"x.x.x.x.x.3 3 3 3 3 3 3 3 3 3 3 3 3 3 3 3 3 3 3 3 3 3 3 3 3 3 3 3 3 3 3 3 3 3 3 3 3 3 3 3 3 3 3 3 3 3 3 3 3 3 3 3 3 3 3 3 3 3 3 3 3 3 x.x.x.x.x.",
"x.x.x.x.x.3 3 3 3 3 3 3 3 3 3 3 3 3 3 3 3 3 3 3 3 3 3 3 3 3 3 3 3 3 3 3 3 3 3 3 3 3 3 3 3 3 3 3 3 3 3 3 3 3 3 3 3 3 3 3 3 3 3 3 3 3 3 x.x.x.x.x.",
"x.x.x.x.x.x.x.x.x.x.3 3 3 3 3 3 3 3 3 3 3 3 3 3 3 3 3 3 3 3 3 3 3 3 3 3 3 3 3 3 3 3 3 3 3 3 3 3 3 3 3 3 3 3 3 3 3 3 3 3 3 3 x.x.x.x.x.x.x.x.x.x.",
"x.x.x.x.x.x.x.x.x.x.3 3 3 3 3 3 3 3 3 3 3 3 3 3 3 3 3 3 3 3 3 3 3 3 3 3 3 3 3 3 3 3 3 3 3 3 3 3 3 3 3 3 3 3 3 3 3 3 3 3 3 3 x.x.x.x.x.x.x.x.x.x.",
"x.x.x.x.x.x.x.x.x.x.3 3 3 3 3 3 3 3 3 3 3 3 3 3 3 3 3 3 3 3 3 3 3 3 3 3 3 3 3 3 3 3 3 3 3 3 3 3 3 3 3 3 3 3 3 3 3 3 3 3 3 3 x.x.x.x.x.x.x.x.x.x.",
"x.x.x.x.x.x.x.x.x.x.3 3 3 3 3 3 3 3 3 3 3 3 3 3 3 3 3 3 3 3 3 3 3 3 3 3 3 3 3 3 3 3 3 3 3 3 3 3 3 3 3 3 3 3 3 3 3 3 3 3 3 3 x.x.x.x.x.x.x.x.x.x.",
"x.x.x.x.x.x.x.x.x.x.3 3 3 3 3 3 3 3 3 3 3 3 3 3 3 3 3 3 3 3 3 3 3 3 3 3 3 3 3 3 3 3 3 3 3 3 3 3 3 3 3 3 3 3 3 3 3 3 3 3 3 3 x.x.x.x.x.x.x.x.x.x."
};
